<?xml version="1.0" encoding="utf-8"?>
<!-- Generator: Adobe Illustrator 22.0.1, SVG Export Plug-In . SVG Version: 6.00 Build 0)  -->
<svg version="1.1" id="Layer_1" xmlns="http://www.w3.org/2000/svg" xmlns:xlink="http://www.w3.org/1999/xlink" x="0px" y="0px"
	 viewBox="0 0 400 400" style="enable-background:new 0 0 400 400;" xml:space="preserve">
<style type="text/css">
	.st0{fill:none;stroke:#8DD7F2;stroke-width:14.2609;stroke-linecap:round;stroke-linejoin:round;stroke-miterlimit:10;}
	.st1{fill:none;stroke:#47C8F5;stroke-width:20;stroke-linecap:round;stroke-miterlimit:10;}
	.st2{fill:none;stroke:#8DD7F2;stroke-width:15.4098;stroke-linecap:round;stroke-linejoin:round;stroke-miterlimit:10;}
	.st3{fill:#47C8F5;}
	.st4{fill:none;stroke:#47C8F5;stroke-width:20;stroke-miterlimit:10;}
	.st5{fill:none;stroke:#47C8F5;stroke-width:15;stroke-linecap:round;stroke-miterlimit:10;}
	.st6{fill:none;stroke:#47C8F5;stroke-width:10;stroke-linecap:round;stroke-miterlimit:10;}
	.st7{fill:none;stroke:#47C8F5;stroke-width:20;stroke-linecap:round;stroke-linejoin:round;stroke-miterlimit:10;}
	.st8{fill:none;stroke:#47C8F5;stroke-width:22.4476;stroke-linecap:round;stroke-linejoin:round;stroke-miterlimit:10;}
	.st9{fill:none;stroke:#47C8F5;stroke-miterlimit:10;}
	.st10{fill:none;stroke:#47C8F5;stroke-width:10;stroke-linecap:round;stroke-linejoin:round;stroke-miterlimit:10;}
</style>
<line class="st2" x1="290.8" y1="284.3" x2="351.5" y2="284.3"/>
<line class="st2" x1="321.2" y1="314.7" x2="321.2" y2="254"/>
<g>
	<path class="st8" d="M250.1,285.3l-60.2,7.5c3.1,24.8-5.7,43.7-36.8,47.8l115.3-14.4"/>
</g>
<path class="st9" d="M133.3,343.1c0.1,0,0.2,0,0.3,0"/>
<path class="st7" d="M46.1,139.7c-38.1,4.8-32,53.1-32,53.1l79.5-10"/>
<path class="st7" d="M152.7,340.7c-31.4,3.9-34.5-21-34.5-21L101,182c0,0-2.4-48.8-50.4-42.8L179.9,123c48-6,50.4,42.8,50.4,42.8
	l15,120"/>
<line class="st7" x1="141.9" y1="197.7" x2="188.8" y2="191.8"/>
<line class="st8" x1="147.1" y1="238.7" x2="193.9" y2="232.8"/>
<circle class="st0" cx="321.2" cy="284.3" r="63.5"/>
</svg>
