<?xml version="1.0" encoding="utf-8"?>
<!-- Generator: Adobe Illustrator 22.0.1, SVG Export Plug-In . SVG Version: 6.00 Build 0)  -->
<svg version="1.1" id="Layer_1" xmlns="http://www.w3.org/2000/svg" xmlns:xlink="http://www.w3.org/1999/xlink" x="0px" y="0px"
	 viewBox="0 0 400 400" style="enable-background:new 0 0 400 400;" xml:space="preserve">
<style type="text/css">
	.st0{fill:none;stroke:#8DD7F2;stroke-width:14.2609;stroke-linecap:round;stroke-linejoin:round;stroke-miterlimit:10;}
	.st1{fill:none;stroke:#47C8F5;stroke-width:20;stroke-linecap:round;stroke-miterlimit:10;}
	.st2{fill:none;stroke:#8DD7F2;stroke-width:15.4098;stroke-linecap:round;stroke-linejoin:round;stroke-miterlimit:10;}
	.st3{fill:#47C8F5;}
	.st4{fill:none;stroke:#47C8F5;stroke-width:20;stroke-miterlimit:10;}
	.st5{fill:none;stroke:#47C8F5;stroke-width:15;stroke-linecap:round;stroke-miterlimit:10;}
	.st6{fill:none;stroke:#47C8F5;stroke-width:10;stroke-linecap:round;stroke-miterlimit:10;}
	.st7{fill:none;stroke:#47C8F5;stroke-width:20;stroke-linecap:round;stroke-linejoin:round;stroke-miterlimit:10;}
	.st8{fill:none;stroke:#47C8F5;stroke-width:22.4476;stroke-linecap:round;stroke-linejoin:round;stroke-miterlimit:10;}
	.st9{fill:none;stroke:#47C8F5;stroke-miterlimit:10;}
	.st10{fill:none;stroke:#47C8F5;stroke-width:10;stroke-linecap:round;stroke-linejoin:round;stroke-miterlimit:10;}
</style>
<path class="st8" d="M257.1,233.5c21.1-4.3,26.2-17.6,22.8-34.4l-87,17.6c3.4,16.7-1.6,30-22.6,34.3L257.1,233.5z"/>
<path class="st9" d="M157.1,253.7c0.1,0,0.1,0,0.2,0"/>
<path class="st7" d="M87.5,119.9c-25.6,5.2-19.1,37.7-19.1,37.7l48.8-9.9"/>
<path class="st7" d="M170.1,251.1c-21.1,4.3-24.5-12.5-24.5-12.5l-18.7-92.7c0,0-4.1-33.1-36.4-26.5l87-17.6
	c32.3-6.5,36.4,26.5,36.4,26.5l16.3,80.8"/>
<line class="st10" x1="155.5" y1="154.4" x2="187.1" y2="148.1"/>
<line class="st10" x1="161.1" y1="182.1" x2="192.7" y2="175.7"/>
<circle class="st0" cx="309.1" cy="286.1" r="63.5"/>
<path class="st1" d="M241.4,320.1c-20.1,10.3-42.9,16.2-67.1,16.2c-81.2,0-146.9-65.8-146.9-146.9S93.1,42.4,174.3,42.4
	s146.9,65.8,146.9,146.9c0,8.5-0.7,16.9-2.1,25"/>
<g>
	<line class="st2" x1="278.8" y1="286.1" x2="339.5" y2="286.1"/>
	<line class="st2" x1="309.1" y1="316.5" x2="309.1" y2="255.7"/>
</g>
<circle class="st0" cx="309.1" cy="286.1" r="63.5"/>
</svg>
