<?xml version="1.0" encoding="utf-8"?>
<!-- Generator: Adobe Illustrator 22.0.1, SVG Export Plug-In . SVG Version: 6.00 Build 0)  -->
<svg version="1.1" xmlns="http://www.w3.org/2000/svg" xmlns:xlink="http://www.w3.org/1999/xlink" x="0px" y="0px"
	 viewBox="0 0 400 400" style="enable-background:new 0 0 400 400;" xml:space="preserve">
<style type="text/css">
	.st0{fill:#80E4FF;}
	.st1{display:none;}
	.st2{display:inline;}
	.st3{fill:none;stroke:#80E4FF;stroke-width:20;stroke-linecap:round;stroke-linejoin:round;stroke-miterlimit:10;}
	.st4{fill:none;stroke:#33CCFF;stroke-width:20;stroke-linecap:round;stroke-linejoin:round;stroke-miterlimit:10;}
	.st5{fill:none;stroke:#000000;stroke-miterlimit:10;}
	.st6{fill:none;stroke:#80E4FF;stroke-width:10;stroke-linecap:round;stroke-linejoin:round;stroke-miterlimit:10;}
	.st7{fill:#33CCFF;}
	.st8{fill:none;stroke:#80E4FF;stroke-width:20;stroke-linecap:round;stroke-miterlimit:10;}
	.st9{fill:none;stroke:#33CCFF;stroke-width:10;stroke-linecap:round;stroke-linejoin:round;stroke-miterlimit:10;}
	.st10{fill:none;stroke:#000000;stroke-width:20;stroke-linecap:round;stroke-linejoin:round;stroke-miterlimit:10;}
	.st11{fill:none;stroke:#B3B3B3;stroke-width:20;stroke-linecap:round;stroke-miterlimit:10;}
	.st12{fill:none;stroke:#B3B3B3;stroke-width:20;stroke-linecap:round;stroke-linejoin:bevel;stroke-miterlimit:10;}
	.st13{fill:none;stroke:#33CCFF;stroke-width:20;stroke-miterlimit:10;}
	.st14{fill:none;stroke:#80E4FF;stroke-width:15.4098;stroke-linecap:round;stroke-linejoin:round;stroke-miterlimit:10;}
	.st15{fill:none;stroke:#80E4FF;stroke-width:14.2609;stroke-linecap:round;stroke-linejoin:round;stroke-miterlimit:10;}
	.st16{fill:#80E4FF;stroke:#33CCFF;stroke-width:20;stroke-miterlimit:10;}
	.st17{fill:none;stroke:#33CCFF;stroke-width:20;stroke-linecap:round;stroke-miterlimit:10;}
	.st18{fill:none;stroke:#33CCFF;stroke-width:21.6558;stroke-miterlimit:10;}
	.st19{fill:none;stroke:#33CCFF;stroke-width:17.3894;stroke-linecap:round;stroke-miterlimit:10;}
	.st20{fill:none;stroke:#33CCFF;stroke-width:22.4476;stroke-linecap:round;stroke-linejoin:round;stroke-miterlimit:10;}
	.st21{fill:none;stroke:#33CCFF;stroke-miterlimit:10;}
</style>
<g id="FILL">
</g>
<g id="Layer_6">
</g>
<g id="Inspo" class="st1">
</g>
<g id="Lighter_Lines">
</g>
<g id="Heavier_Lines">
</g>
<g id="Palette">
	<g>
		<circle class="st15" cx="306.5" cy="289.1" r="63.5"/>
		<g>
			<path class="st7" d="M212,233c-3,2.3-5.8,4.7-8.4,7.3c0,0-0.1,0.1-0.1,0.1c-0.6,0.6-1.2,1.2-1.8,1.8c-1.3,1.3-2.5,2.7-3.7,4.1
				c-1.3,1.8-2.7,3.5-4.2,5.2c-11.3,13.1-26.2,23-43.3,28c7.8,2.2,16.1,3.3,25.1,3.3c0.2,0,0.4,0,0.6,0c0.9,0,1.9,0,2.8-0.1
				c9.6-0.3,18.4-1.8,26.5-4.8c8.9-3.2,16.6-7.9,23.2-14c6.6-6.1,11.9-13.6,16-22.3c3.6-7.8,6-16.4,7.1-25.8
				C237.1,218.3,223.5,224.3,212,233z"/>
			<path class="st7" d="M242.6,137.5c-2.2-3.9-4.7-7.5-7.5-10.8c-2.7-3.2-5.8-6.1-9.1-8.7c-6.7-5.2-14.3-9.2-22.8-12
				c-8.5-2.7-17.5-4.1-27-4.1c-13.2,0-25.1,2.3-35.7,7c-5.3,2.3-10.1,5.1-14.5,8.3c0,0,0,0,0,0c-0.2,0.2-0.5,0.4-0.7,0.6
				c-0.3,0.2-0.6,0.4-0.9,0.7c-0.6,0.5-1.2,0.9-1.8,1.4c-0.3,0.2-0.6,0.5-0.8,0.7c-0.6,0.5-1.2,1-1.8,1.6c-0.2,0.2-0.5,0.4-0.7,0.7
				c-0.8,0.8-1.6,1.5-2.4,2.3c-0.1,0.1-0.1,0.1-0.2,0.2c-1,1-1.9,2-2.8,3c-0.7,0.8-1.5,1.7-2.2,2.6c-0.2,0.3-0.5,0.6-0.7,0.9l0,0v0
				c-5.9,7.4-10.5,15.9-13.8,25.4c-3.9,11.1-5.8,23-5.8,35.9c0,12.6,1.9,24.3,5.8,35.2c3.9,10.9,9.4,20.4,16.7,28.4
				c3.7,4.1,7.9,7.8,12.5,11c19.2-0.2,36.9-6.4,51.5-16.9c-0.5,0-1,0-1.5,0c-8.6,0-15.8-1.7-21.8-5c-6-3.3-10.8-7.7-14.5-13.2
				c-3.7-5.5-6.4-11.7-8.1-18.5c-1.7-6.9-2.5-13.9-2.5-21.2c0-7.6,0.8-14.9,2.5-22c0.9-4,2.2-7.7,3.8-11.2c0.3-0.7,0.6-1.3,1-2
				c0,0,0-0.1,0.1-0.1c0.3-0.6,0.6-1.2,1-1.8c0.1-0.2,0.2-0.4,0.3-0.5c0.3-0.5,0.5-0.9,0.8-1.4c0.4-0.7,0.8-1.3,1.2-2
				c3.7-5.6,8.6-10,14.5-13.3c6-3.3,13.2-5,21.8-5c0.4,0,0.8,0,1.2,0v0c4.2,0.1,8.3,0.9,12.2,2.3c4.3,1.5,8.1,3.7,11.5,6.4
				c3.4,2.7,6.2,5.9,8.5,9.6l0,0c0,0,0,0.1,0.1,0.1c4.5,7.3,12.2,11.9,20.8,11.9h20.3C249.7,154.1,247,145.3,242.6,137.5z"/>
		</g>
		<path class="st17" d="M238.7,323.1c-20.1,10.3-42.9,16.2-67.1,16.2c-81.2,0-146.9-65.8-146.9-146.9S90.5,45.4,171.6,45.4
			s146.9,65.8,146.9,146.9c0,8.5-0.7,16.9-2.1,25"/>
		<g>
			<line class="st14" x1="276.1" y1="289.1" x2="336.9" y2="289.1"/>
			<line class="st14" x1="306.5" y1="319.5" x2="306.5" y2="258.7"/>
		</g>
		<circle class="st15" cx="306.5" cy="289.1" r="63.5"/>
	</g>
</g>
</svg>
