<?xml version="1.0" encoding="utf-8"?>
<!-- Generator: Adobe Illustrator 22.0.1, SVG Export Plug-In . SVG Version: 6.00 Build 0)  -->
<svg version="1.1" id="Layer_1" xmlns="http://www.w3.org/2000/svg" xmlns:xlink="http://www.w3.org/1999/xlink" x="0px" y="0px"
	 viewBox="0 0 400 400" style="enable-background:new 0 0 400 400;" xml:space="preserve">
<style type="text/css">
	.st0{fill:none;stroke:#8DD7F2;stroke-width:14.2609;stroke-linecap:round;stroke-linejoin:round;stroke-miterlimit:10;}
	.st1{fill:none;stroke:#47C8F5;stroke-width:20;stroke-linecap:round;stroke-miterlimit:10;}
	.st2{fill:none;stroke:#8DD7F2;stroke-width:15.4098;stroke-linecap:round;stroke-linejoin:round;stroke-miterlimit:10;}
	.st3{fill:#47C8F5;}
	.st4{fill:none;stroke:#47C8F5;stroke-width:20;stroke-miterlimit:10;}
	.st5{fill:none;stroke:#47C8F5;stroke-width:15;stroke-linecap:round;stroke-miterlimit:10;}
	.st6{fill:none;stroke:#47C8F5;stroke-width:10;stroke-linecap:round;stroke-miterlimit:10;}
	.st7{fill:none;stroke:#47C8F5;stroke-width:20;stroke-linecap:round;stroke-linejoin:round;stroke-miterlimit:10;}
	.st8{fill:none;stroke:#47C8F5;stroke-width:22.4476;stroke-linecap:round;stroke-linejoin:round;stroke-miterlimit:10;}
	.st9{fill:none;stroke:#47C8F5;stroke-miterlimit:10;}
	.st10{fill:none;stroke:#47C8F5;stroke-width:10;stroke-linecap:round;stroke-linejoin:round;stroke-miterlimit:10;}
</style>
<circle class="st0" cx="309.1" cy="290.7" r="63.5"/>
<path class="st1" d="M241.4,324.7c-20.1,10.3-42.9,16.2-67.1,16.2c-81.2,0-146.9-65.8-146.9-146.9S93.1,47,174.3,47
	S321.2,112.8,321.2,194c0,8.5-0.7,16.9-2.1,25"/>
<g>
	<line class="st2" x1="278.8" y1="290.7" x2="339.5" y2="290.7"/>
	<line class="st2" x1="309.1" y1="321.1" x2="309.1" y2="260.3"/>
</g>
<circle class="st0" cx="309.1" cy="290.7" r="63.5"/>
<g>
	<path class="st3" d="M146.3,271.4c0-15.1,11.8-26.3,28.4-26.3c16.6,0,28.4,11.2,28.4,26.3c0,14.8-11.8,26.9-28.4,26.9
		C158.1,298.3,146.3,286.2,146.3,271.4z M147.2,89h55L193,224.1h-36.7L147.2,89z"/>
</g>
</svg>
