<?xml version="1.0" encoding="UTF-8" standalone="no"?>
<svg
   xmlns:dc="http://purl.org/dc/elements/1.1/"
   xmlns:cc="http://creativecommons.org/ns#"
   xmlns:rdf="http://www.w3.org/1999/02/22-rdf-syntax-ns#"
   xmlns:svg="http://www.w3.org/2000/svg"
   xmlns="http://www.w3.org/2000/svg"
   xmlns:sodipodi="http://sodipodi.sourceforge.net/DTD/sodipodi-0.dtd"
   xmlns:inkscape="http://www.inkscape.org/namespaces/inkscape"
   viewBox="0 0 842 252"
   version="1.1"
   id="svg940"
   sodipodi:docname="binance_chain.svg"
   width="842"
   height="252"
   inkscape:version="0.92.3 (2405546, 2018-03-11)">
  <metadata
     id="metadata944">
    <rdf:RDF>
      <cc:Work
         rdf:about="">
        <dc:format>image/svg+xml</dc:format>
        <dc:type
           rdf:resource="http://purl.org/dc/dcmitype/StillImage" />
        <dc:title>Chain-Horizontal</dc:title>
      </cc:Work>
    </rdf:RDF>
  </metadata>
  <sodipodi:namedview
     pagecolor="#ffffff"
     bordercolor="#666666"
     borderopacity="1"
     objecttolerance="10"
     gridtolerance="10"
     guidetolerance="10"
     inkscape:pageopacity="0"
     inkscape:pageshadow="2"
     inkscape:window-width="1920"
     inkscape:window-height="1017"
     id="namedview942"
     showgrid="false"
     inkscape:zoom="0.60375"
     inkscape:cx="658.80669"
     inkscape:cy="-81.700094"
     inkscape:window-x="-8"
     inkscape:window-y="-8"
     inkscape:window-maximized="1"
     inkscape:current-layer="svg940" />
  <defs
     id="defs931">
    <style
       id="style929">.cls-1{fill:none;}.cls-2{fill:#f0b90b;}</style>
  </defs>
  <title
     id="title933">Chain-Horizontal</title>
  <g
     id="Logos">
    <rect
       class="cls-1"
       width="600"
       height="252"
       id="rect935"
       x="0"
       y="0"
       style="fill:none" />
  </g>
  <g
     id="g986"
     transform="translate(259.65253,-0.2250011)">
    <path
       id="path937"
       d="M 226.87,126.23 H 203.65 V 77.42 h 22.66 c 10,0 16.11,5 16.11,12.62 v 0.14 c 0,5.51 -2.93,8.57 -6.42,10.53 5.65,2.16 9.14,5.43 9.14,12 v 0.14 c 0,8.91 -7.26,13.38 -18.27,13.38 z m 4.88,-34.38 c 0,-3.21 -2.51,-5 -7,-5 h -10.6 v 10.3 H 224 c 4.74,0 7.74,-1.53 7.74,-5.16 z m 2.72,19.52 c 0,-3.27 -2.44,-5.3 -7.95,-5.3 h -12.41 v 10.74 h 12.76 c 4.74,0 7.6,-1.67 7.6,-5.3 z m 22.45,14.86 V 77.42 h 10.74 v 48.81 z m 59.33,0 -23.64,-31 v 31 H 282 V 77.42 h 9.9 l 22.87,30.05 v -30 h 10.6 v 48.81 z m 57.39,0 -4.46,-11 h -20.64 l -4.47,11 H 333.13 L 354.05,77.07 H 364 l 20.92,49.16 z M 358.86,90 l -6.49,15.83 h 13 z m 68.06,36.26 -23.64,-31 v 31 h -10.6 V 77.42 h 9.9 l 22.87,30.05 v -30 h 10.6 v 48.81 z m 44.56,0.83 a 24.63,24.63 0 0 1 -25,-25.1 v -0.14 c 0,-13.88 10.46,-25.24 25.45,-25.24 9.2,0 14.71,3.07 19.25,7.53 L 484.31,92 c -3.76,-3.42 -7.6,-5.51 -12.48,-5.51 -8.23,0 -14.16,6.83 -14.16,15.2 v 0.14 c 0,8.37 5.79,15.34 14.16,15.34 5.58,0 9,-2.23 12.83,-5.72 l 6.83,6.91 c -5.02,5.36 -10.59,8.7 -20.01,8.7 z m 28.67,-0.83 V 77.42 H 537 V 87 h -26.19 v 9.9 h 23 v 9.55 h -23 v 10.25 h 26.5 v 9.56 z m -111.64,49.33 c -10.07,0 -17.57,-7.84 -17.57,-17.82 0,-9.98 7.35,-17.91 17.82,-17.91 a 18,18 0 0 1 13.52,5.38 l -3.9,4.49 c -2.76,-2.57 -5.72,-4.3 -9.67,-4.3 -6.62,0 -11.41,5.43 -11.41,12.25 0,6.82 4.79,12.32 11.41,12.32 4.24,0 7,-1.73 9.92,-4.5 l 3.9,3.95 c -3.61,3.77 -7.53,6.14 -14.02,6.14 z m 28,-15.15 V 175 h -6.07 v -34.55 h 6.07 v 14.36 H 433 v -14.36 h 6.07 V 175 H 433 v -14.56 z m 66,14.56 h -6.42 l -3.5,-8.34 h -16.35 l -3.56,8.34 h -6.22 l 15.21,-34.8 h 5.62 z m -18.12,-27.54 -5.92,13.82 h 11.9 z m 31.78,-7 V 175 h -6.07 v -34.55 z m 35.2,0 h 6 V 175 h -5.09 l -19,-24.58 V 175 h -6 v -34.55 h 5.62 l 18.51,23.89 z m -176.69,14.43 h -151 v 5.75 h 151 z M 63.34,112 49.11,126.23 63.34,140.46 77.58,126.23 Z m 48.8,-20.33 24.4,24.39 14.23,-14.23 -38.63,-38.63 -38.63,38.63 14.23,14.23 z m 48.79,20.33 -14.23,14.23 14.23,14.23 14.24,-14.23 z m -48.79,48.79 -24.4,-24.4 -14.23,14.23 38.63,38.63 38.63,-38.63 -14.23,-14.23 z m 0,-20.33 14.23,-14.23 L 112.14,112 97.91,126.23 Z"
       class="cls-2"
       style="fill:#f0b90b"
       inkscape:connector-curvature="0" />
    <text
       id="text967"
       y="188.93239"
       x="-220.96381"
       style="font-style:normal;font-variant:normal;font-weight:normal;font-stretch:normal;font-size:63.52277756px;line-height:1.25;font-family:Montserrat;-inkscape-font-specification:'Montserrat, Normal';font-variant-ligatures:normal;font-variant-caps:normal;font-variant-numeric:normal;font-feature-settings:normal;text-align:start;letter-spacing:0px;word-spacing:0px;writing-mode:lr-tb;text-anchor:start;opacity:1;fill:#747474;fill-opacity:1;stroke:none;stroke-width:3.58211136"
       xml:space="preserve"><tspan
         style="stroke-width:3.58211136"
         y="188.93239"
         x="-220.96381"
         id="tspan965"
         sodipodi:role="line">built on</tspan></text>
  </g>
</svg>
