<?xml version="1.0" encoding="UTF-8" standalone="no"?>
<svg
   xmlns:dc="http://purl.org/dc/elements/1.1/"
   xmlns:cc="http://creativecommons.org/ns#"
   xmlns:rdf="http://www.w3.org/1999/02/22-rdf-syntax-ns#"
   xmlns:svg="http://www.w3.org/2000/svg"
   xmlns="http://www.w3.org/2000/svg"
   xmlns:sodipodi="http://sodipodi.sourceforge.net/DTD/sodipodi-0.dtd"
   xmlns:inkscape="http://www.inkscape.org/namespaces/inkscape"
   viewBox="0 0 407.29349 347.37863"
   version="1.1"
   id="svg13"
   sodipodi:docname="Built-On-Binance-Chain-Vertical.svg"
   width="407.29349"
   height="347.37863"
   inkscape:version="0.92.4 (5da689c313, 2019-01-14)">
  <metadata
     id="metadata17">
    <rdf:RDF>
      <cc:Work
         rdf:about="">
        <dc:format>image/svg+xml</dc:format>
        <dc:type
           rdf:resource="http://purl.org/dc/dcmitype/StillImage" />
        <dc:title>Chain-Vertical</dc:title>
      </cc:Work>
    </rdf:RDF>
  </metadata>
  <sodipodi:namedview
     pagecolor="#ffffff"
     bordercolor="#666666"
     borderopacity="1"
     objecttolerance="10"
     gridtolerance="10"
     guidetolerance="10"
     inkscape:pageopacity="0"
     inkscape:pageshadow="2"
     inkscape:window-width="1920"
     inkscape:window-height="1027"
     id="namedview15"
     showgrid="false"
     inkscape:zoom="1.5688932"
     inkscape:cx="54.307504"
     inkscape:cy="217.86753"
     inkscape:window-x="-8"
     inkscape:window-y="-8"
     inkscape:window-maximized="1"
     inkscape:current-layer="svg13" />
  <defs
     id="defs4">
    <style
       id="style2">.cls-1{fill:#f0b90b;}.cls-2{fill:none;}</style>
  </defs>
  <title
     id="title6">Chain-Vertical</title>
  <g
     id="Logos"
     transform="translate(-52.266144,2.1943444)">
    <path
       class="cls-1"
       d="m 221,129.21 -14.46,14.45 -14.45,-14.45 14.45,-14.45 z m 35.09,-35.09 24.78,24.77 14.45,-14.45 -39.19,-39.23 -39.22,39.23 14.45,14.45 z m 49.55,20.64 -14.45,14.45 14.45,14.45 14.45,-14.45 z M 256.09,164.31 231.32,139.53 216.91,154 256.13,193.22 295.36,154 280.91,139.54 Z m 0,-20.65 14.45,-14.45 -14.45,-14.45 -14.45,14.45 z M 111.88,262.88 v -0.16 c 0,-7.54 -4,-11.31 -10.51,-13.8 4,-2.25 7.38,-5.78 7.38,-12.12 v -0.16 c 0,-8.83 -7.06,-14.52 -18.54,-14.52 H 64.13 v 56.17 h 26.73 c 12.68,0 21.02,-5.13 21.02,-15.41 z m -15.41,-24 c 0,4.17 -3.45,5.94 -8.9,5.94 H 76.17 V 233 h 12.2 c 5.21,0 8.1,2.09 8.1,5.78 z m 3.13,22.47 c 0,4.17 -3.29,6.1 -8.74,6.1 H 76.17 V 255.1 h 14.28 c 6.34,0 9.15,2.33 9.15,6.1 z m 38.2,16.93 v -56.16 h -12.36 v 56.17 z m 66.43,0 V 222.12 H 192 v 34.58 l -26.32,-34.58 h -11.36 v 56.17 h 12.19 v -35.71 l 27.21,35.71 z m 68.46,0 -24.07,-56.58 h -11.4 l -24.08,56.58 h 12.6 l 5.14,-12.6 h 23.75 l 5.14,12.6 z m -22.47,-23.51 h -14.93 l 7.47,-18.22 z m 81.38,23.51 v -56.16 h -12.2 v 34.58 l -26.32,-34.58 h -11.4 v 56.17 h 12.2 v -35.71 l 27.21,35.71 z m 63.8,-9.07 -7.86,-7.94 c -4.41,4 -8.35,6.58 -14.77,6.58 -9.63,0 -16.29,-8 -16.29,-17.66 V 250 c 0,-9.63 6.82,-17.49 16.29,-17.49 5.62,0 10,2.41 14.37,6.34 l 7.86,-9.07 c -5.21,-5.14 -11.55,-8.67 -22.15,-8.67 -17.25,0 -29.29,13.08 -29.29,29 v 0.16 c 0,16.13 12.28,28.89 28.81,28.89 10.84,0.09 17.26,-3.76 23.03,-9.94 z m 52.73,9.07 v -11 H 417.64 V 255.5 h 26.48 v -11 h -26.48 v -11.4 h 30.09 v -11 h -42.37 v 56.17 z m -252.19,49.8 -4.49,-4.54 c -3.41,3.18 -6.53,5.17 -11.42,5.17 -7.61,0 -13.13,-6.37 -13.13,-14.21 0,-7.84 5.52,-14.09 13.13,-14.09 4.55,0 8,2 11.14,4.94 l 4.49,-5.17 A 20.76,20.76 0 0 0 180.09,294 c -12.05,0 -20.52,9.26 -20.52,20.63 0,11.37 8.64,20.51 20.23,20.51 7.45,0 11.99,-2.73 16.14,-7.05 z m 34.91,-10.4 v 16.77 h 7 v -39.77 h -7 v 16.54 h -19 v -16.54 h -7 v 39.78 h 7 v -16.77 z m 39.32,-23.29 h -6.47 l -17.51,40.06 h 7.16 l 4.1,-9.61 h 18.8 l 4,9.61 h 7.39 z m 3.53,24.26 H 260 l 6.82,-15.91 z m 22.54,-24 v 39.78 h 7 v -39.75 z m 47.36,27.5 -21.31,-27.5 h -6.48 v 39.78 h 6.88 v -28.3 l 21.93,28.3 h 5.85 v -39.75 h -6.87 z"
       id="path8"
       inkscape:connector-curvature="0"
       style="fill:#f0b90b" />
    <rect
       class="cls-2"
       width="512"
       height="400"
       id="rect10"
       x="0"
       y="0"
       style="fill:none" />
  </g>
  <g
     id="g3747"
     transform="translate(-58.871654,-12.003928)">
    <path
       inkscape:connector-curvature="0"
       id="path3717"
       style="font-style:normal;font-variant:normal;font-weight:bold;font-stretch:normal;font-size:49.33333206px;line-height:1.25;font-family:'Gotham HTF';-inkscape-font-specification:'Gotham HTF Bold';letter-spacing:1.35000002px;word-spacing:0px;fill:#f0b90b;fill-opacity:1;stroke:none"
       d="m 169.94848,47.668173 q 0,2.368 -0.93734,4.144 -0.888,1.776 -2.61466,2.959999 -1.67734,1.184 -4.09467,1.776 -2.368,0.592 -5.27867,0.592 h -16.428 V 22.606839 h 16.03334 q 5.328,0 8.33733,2.417333 3.05867,2.417334 3.05867,6.512001 v 0.09867 q 0,2.96 -1.332,4.686666 -1.332,1.726667 -3.20667,2.762667 3.00933,1.134667 4.736,3.058666 1.72667,1.924 1.72667,5.426667 z m -9.472,-14.849333 q 0,-1.726667 -1.28267,-2.614667 -1.28267,-0.937333 -3.7,-0.937333 h -7.49867 v 7.301333 h 7.00534 q 2.516,0 3.996,-0.838667 1.48,-0.888 1.48,-2.812 z m 1.924,13.813333 q 0,-1.726667 -1.332,-2.713334 -1.332,-1.036 -4.292,-1.036 h -8.78134 v 7.597334 h 9.028 q 2.516,0 3.94667,-0.888 1.43067,-0.937334 1.43067,-2.861334 z" />
    <path
       inkscape:connector-curvature="0"
       id="path3719"
       style="font-style:normal;font-variant:normal;font-weight:bold;font-stretch:normal;font-size:49.33333206px;line-height:1.25;font-family:'Gotham HTF';-inkscape-font-specification:'Gotham HTF Bold';letter-spacing:1.35000002px;word-spacing:0px;fill:#f0b90b;fill-opacity:1;stroke:none"
       d="m 207.14685,42.093506 q 0,3.897333 -1.08534,6.857333 -1.036,2.910667 -3.00933,4.884 -1.97333,1.924 -4.78533,2.910667 -2.76267,0.937333 -6.26534,0.937333 -6.956,0 -10.952,-3.848 -3.996,-3.897333 -3.996,-11.494666 V 22.606839 h 7.59734 v 19.536 q 0,4.242667 1.97333,6.413334 1.97333,2.121333 5.476,2.121333 3.50267,0 5.476,-2.072 1.97333,-2.072 1.97333,-6.216 V 22.606839 h 7.59734 z" />
    <path
       inkscape:connector-curvature="0"
       id="path3721"
       style="font-style:normal;font-variant:normal;font-weight:bold;font-stretch:normal;font-size:49.33333206px;line-height:1.25;font-family:'Gotham HTF';-inkscape-font-specification:'Gotham HTF Bold';letter-spacing:1.35000002px;word-spacing:0px;fill:#f0b90b;fill-opacity:1;stroke:none"
       d="M 216.58057,57.140172 V 22.606839 h 7.59734 v 34.533333 z" />
    <path
       inkscape:connector-curvature="0"
       id="path3723"
       style="font-style:normal;font-variant:normal;font-weight:bold;font-stretch:normal;font-size:49.33333206px;line-height:1.25;font-family:'Gotham HTF';-inkscape-font-specification:'Gotham HTF Bold';letter-spacing:1.35000002px;word-spacing:0px;fill:#f0b90b;fill-opacity:1;stroke:none"
       d="M 234.15816,57.140172 V 22.606839 h 7.59733 v 27.626667 h 17.21734 v 6.906666 z" />
    <path
       inkscape:connector-curvature="0"
       id="path3725"
       style="font-style:normal;font-variant:normal;font-weight:bold;font-stretch:normal;font-size:49.33333206px;line-height:1.25;font-family:'Gotham HTF';-inkscape-font-specification:'Gotham HTF Bold';letter-spacing:1.35000002px;word-spacing:0px;fill:#f0b90b;fill-opacity:1;stroke:none"
       d="M 276.77704,29.612173 V 57.140172 H 269.1797 V 29.612173 h -10.508 v -7.005334 h 28.61334 v 7.005334 z" />
    <path
       inkscape:connector-curvature="0"
       id="path3727"
       style="font-style:normal;font-variant:normal;font-weight:bold;font-stretch:normal;font-size:49.33333206px;line-height:1.25;font-family:'Gotham HTF';-inkscape-font-specification:'Gotham HTF Bold';letter-spacing:1.35000002px;word-spacing:0px;fill:#f0b90b;fill-opacity:1;stroke:none"
       d="m 345.84116,39.873506 q 0,3.7 -1.38133,6.956 -1.38134,3.206667 -3.848,5.673333 -2.41734,2.417333 -5.82134,3.848 -3.35466,1.381333 -7.35066,1.381333 -3.996,0 -7.35067,-1.381333 -3.35467,-1.430667 -5.82133,-3.798666 -2.41734,-2.417334 -3.79867,-5.624 -1.332,-3.256 -1.332,-6.956 v -0.09867 q 0,-3.7 1.38133,-6.906666 1.38134,-3.256 3.79867,-5.673334 2.46667,-2.466667 5.82133,-3.848 3.404,-1.430667 7.4,-1.430667 3.996,0 7.35067,1.430667 3.35467,1.381333 5.772,3.798666 2.46667,2.368001 3.79867,5.624001 1.38133,3.206667 1.38133,6.906667 z m -7.94267,0 q 0,-2.22 -0.78933,-4.193333 -0.74,-1.973333 -2.17067,-3.453333 -1.38133,-1.48 -3.30533,-2.318667 -1.87467,-0.888 -4.19333,-0.888 -2.26934,0 -4.19334,0.838667 -1.924,0.838666 -3.30533,2.318666 -1.332,1.48 -2.12133,3.453334 -0.74,1.924 -0.74,4.144 v 0.09867 q 0,2.22 0.74,4.193333 0.78933,1.973334 2.17066,3.453334 1.43067,1.48 3.35467,2.368 1.924,0.838666 4.19333,0.838666 2.31867,0 4.19334,-0.838666 1.924,-0.838667 3.256,-2.318667 1.38133,-1.48 2.12133,-3.404 0.78933,-1.973333 0.78933,-4.193333 z" />
    <path
       inkscape:connector-curvature="0"
       id="path3729"
       style="font-style:normal;font-variant:normal;font-weight:bold;font-stretch:normal;font-size:49.33333206px;line-height:1.25;font-family:'Gotham HTF';-inkscape-font-specification:'Gotham HTF Bold';letter-spacing:1.35000002px;word-spacing:0px;fill:#f0b90b;fill-opacity:1;stroke:none"
       d="m 378.15321,57.140172 -16.724,-21.953332 v 21.953332 h -7.49866 V 22.606839 h 7.00533 l 16.18133,21.262667 V 22.606839 h 7.49867 v 34.533333 z" />
  </g>
  <rect
     style="fill:none;fill-opacity:1;stroke-width:0.9956578"
     id="rect3749"
     width="551.98151"
     height="364.58826"
     x="-84.135742"
     y="-17.847004" />
  <rect
     style="fill:none;fill-opacity:1"
     id="rect3751"
     width="537.32147"
     height="219.90025"
     x="-60.552238"
     y="127.47839" />
  <rect
     style="fill:none;fill-opacity:1"
     id="rect3753"
     width="562.17975"
     height="346.10388"
     x="-85.41053"
     y="1.274773" />
  <rect
     style="fill:none;fill-opacity:1;stroke-width:0.93634492"
     id="rect3755"
     width="407.29349"
     height="347.37863"
     x="0"
     y="0" />
</svg>
