<?xml version="1.0" encoding="UTF-8" standalone="no"?>
<svg
   xmlns:dc="http://purl.org/dc/elements/1.1/"
   xmlns:cc="http://creativecommons.org/ns#"
   xmlns:rdf="http://www.w3.org/1999/02/22-rdf-syntax-ns#"
   xmlns:svg="http://www.w3.org/2000/svg"
   xmlns="http://www.w3.org/2000/svg"
   xmlns:sodipodi="http://sodipodi.sourceforge.net/DTD/sodipodi-0.dtd"
   xmlns:inkscape="http://www.inkscape.org/namespaces/inkscape"
   viewBox="0 0 624.29578 174.82394"
   version="1.1"
   id="svg13"
   sodipodi:docname="Built-On-Binance-Chain-Horizontal.svg"
   inkscape:version="0.92.4 (5da689c313, 2019-01-14)"
   width="624.29578"
   height="174.82394">
  <metadata
     id="metadata17">
    <rdf:RDF>
      <cc:Work
         rdf:about="">
        <dc:format>image/svg+xml</dc:format>
        <dc:type
           rdf:resource="http://purl.org/dc/dcmitype/StillImage" />
        <dc:title>Chain-Horizontal</dc:title>
      </cc:Work>
    </rdf:RDF>
  </metadata>
  <sodipodi:namedview
     pagecolor="#ffffff"
     bordercolor="#666666"
     borderopacity="1"
     objecttolerance="10"
     gridtolerance="10"
     guidetolerance="10"
     inkscape:pageopacity="0"
     inkscape:pageshadow="2"
     inkscape:window-width="1920"
     inkscape:window-height="1027"
     id="namedview15"
     showgrid="false"
     showguides="false"
     inkscape:zoom="1.8933333"
     inkscape:cx="317.47709"
     inkscape:cy="-9.5269233"
     inkscape:window-x="1912"
     inkscape:window-y="105"
     inkscape:window-maximized="1"
     inkscape:current-layer="text21" />
  <defs
     id="defs4">
    <style
       id="style2">.cls-1{fill:none;}.cls-2{fill:#f0b90b;}</style>
  </defs>
  <title
     id="title6">Chain-Horizontal</title>
  <g
     id="Logos"
     transform="translate(11.09155,-21.718306)">
    <rect
       class="cls-1"
       width="600"
       height="252"
       id="rect8"
       x="0"
       y="0"
       style="fill:none" />
    <path
       class="cls-2"
       d="M 226.87,126.23 H 203.65 V 77.42 h 22.66 c 10,0 16.11,5 16.11,12.62 v 0.14 c 0,5.51 -2.93,8.57 -6.42,10.53 5.65,2.16 9.14,5.43 9.14,12 v 0.14 c 0,8.91 -7.26,13.38 -18.27,13.38 z m 4.88,-34.38 c 0,-3.21 -2.51,-5 -7,-5 h -10.6 v 10.3 H 224 c 4.74,0 7.74,-1.53 7.74,-5.16 z m 2.72,19.52 c 0,-3.27 -2.44,-5.3 -7.95,-5.3 h -12.41 v 10.74 h 12.76 c 4.74,0 7.6,-1.67 7.6,-5.3 z m 22.45,14.86 V 77.42 h 10.74 v 48.81 z m 59.33,0 -23.64,-31 v 31 H 282 V 77.42 h 9.9 l 22.87,30.05 v -30 h 10.6 v 48.81 z m 57.39,0 -4.46,-11 h -20.64 l -4.47,11 H 333.13 L 354.05,77.07 H 364 l 20.92,49.16 z M 358.86,90 l -6.49,15.83 h 13 z m 68.06,36.26 -23.64,-31 v 31 h -10.6 V 77.42 h 9.9 l 22.87,30.05 v -30 h 10.6 v 48.81 z m 44.56,0.83 a 24.63,24.63 0 0 1 -25,-25.1 v -0.14 c 0,-13.88 10.46,-25.24 25.45,-25.24 9.2,0 14.71,3.07 19.25,7.53 L 484.31,92 c -3.76,-3.42 -7.6,-5.51 -12.48,-5.51 -8.23,0 -14.16,6.83 -14.16,15.2 v 0.14 c 0,8.37 5.79,15.34 14.16,15.34 5.58,0 9,-2.23 12.83,-5.72 l 6.83,6.91 c -5.02,5.36 -10.59,8.7 -20.01,8.7 z m 28.67,-0.83 V 77.42 H 537 V 87 h -26.19 v 9.9 h 23 v 9.55 h -23 v 10.25 h 26.5 v 9.56 z m -111.64,49.33 c -10.07,0 -17.57,-7.84 -17.57,-17.82 0,-9.98 7.35,-17.91 17.82,-17.91 a 18,18 0 0 1 13.52,5.38 l -3.9,4.49 c -2.76,-2.57 -5.72,-4.3 -9.67,-4.3 -6.62,0 -11.41,5.43 -11.41,12.25 0,6.82 4.79,12.32 11.41,12.32 4.24,0 7,-1.73 9.92,-4.5 l 3.9,3.95 c -3.61,3.77 -7.53,6.14 -14.02,6.14 z m 28,-15.15 V 175 h -6.07 v -34.55 h 6.07 v 14.36 H 433 v -14.36 h 6.07 V 175 H 433 v -14.56 z m 66,14.56 h -6.42 l -3.5,-8.34 h -16.35 l -3.56,8.34 h -6.22 l 15.21,-34.8 h 5.62 z m -18.12,-27.54 -5.92,13.82 h 11.9 z m 31.78,-7 V 175 h -6.07 v -34.55 z m 35.2,0 h 6 V 175 h -5.09 l -19,-24.58 V 175 h -6 v -34.55 h 5.62 l 18.51,23.89 z m -176.69,14.43 h -151 v 5.75 h 151 z M 63.34,112 49.11,126.23 63.34,140.46 77.58,126.23 Z m 48.8,-20.33 24.4,24.39 14.23,-14.23 -38.63,-38.63 -38.63,38.63 14.23,14.23 z m 48.79,20.33 -14.23,14.23 14.23,14.23 14.24,-14.23 z m -48.79,48.79 -24.4,-24.4 -14.23,14.23 38.63,38.63 38.63,-38.63 -14.23,-14.23 z m 0,-20.33 14.23,-14.23 L 112.14,112 97.91,126.23 Z"
       id="path10"
       inkscape:connector-curvature="0"
       style="fill:#f0b90b" />
    <path
       inkscape:connector-curvature="0"
       class="cls-2"
       d="m 537,43.42 h -72.64748 v 5.75 H 537 Z"
       id="path10-3"
       style="fill:#f0b90b;stroke-width:0.6936202"
       sodipodi:nodetypes="ccccc" />
  </g>
  <g
     aria-label="BUILT ON"
     style="font-style:normal;font-variant:normal;font-weight:bold;font-stretch:normal;font-size:40px;line-height:1.25;font-family:'Gotham HTF';-inkscape-font-specification:'Gotham HTF Bold';letter-spacing:0px;word-spacing:0px;fill:#f0b90b;fill-opacity:1;stroke:none"
     id="text21"
     transform="translate(11.09155,-21.718306)">
    <path
       d="m 232.95533,53.930001 q 0,2.368 -0.93734,4.144 -0.888,1.776 -2.61466,2.959999 -1.67734,1.184 -4.09467,1.776 -2.368,0.592 -5.27867,0.592 h -16.428 V 28.868668 h 16.03334 q 5.328,0 8.33733,2.417333 3.05867,2.417334 3.05867,6.512 v 0.09867 q 0,2.96 -1.332,4.686666 -1.332,1.726667 -3.20667,2.762667 3.00933,1.134667 4.736,3.058666 1.72667,1.924 1.72667,5.426667 z m -9.472,-14.849333 q 0,-1.726667 -1.28267,-2.614667 -1.28267,-0.937333 -3.7,-0.937333 h -7.49867 v 7.301333 h 7.00534 q 2.516,0 3.996,-0.838667 1.48,-0.888 1.48,-2.812 z m 1.924,13.813333 q 0,-1.726667 -1.332,-2.713334 -1.332,-1.036 -4.292,-1.036 h -8.78134 v 7.597334 h 9.028 q 2.516,0 3.94667,-0.888 1.43067,-0.937334 1.43067,-2.861334 z"
       style="font-size:49.33333206px;letter-spacing:1.35000002px;fill:#f0b90b;fill-opacity:1"
       id="path3717"
       inkscape:connector-curvature="0" />
    <path
       d="m 270.1537,48.355334 q 0,3.897333 -1.08534,6.857333 -1.036,2.910667 -3.00933,4.884 -1.97333,1.924 -4.78533,2.910667 -2.76267,0.937333 -6.26534,0.937333 -6.956,0 -10.952,-3.848 -3.996,-3.897333 -3.996,-11.494666 V 28.868668 h 7.59734 v 19.535999 q 0,4.242667 1.97333,6.413334 1.97333,2.121333 5.476,2.121333 3.50267,0 5.476,-2.072 1.97333,-2.072 1.97333,-6.216 V 28.868668 h 7.59734 z"
       style="font-size:49.33333206px;letter-spacing:1.35000002px;fill:#f0b90b;fill-opacity:1"
       id="path3719"
       inkscape:connector-curvature="0" />
    <path
       d="M 279.58742,63.402 V 28.868668 h 7.59734 V 63.402 Z"
       style="font-size:49.33333206px;letter-spacing:1.35000002px;fill:#f0b90b;fill-opacity:1"
       id="path3721"
       inkscape:connector-curvature="0" />
    <path
       d="M 297.16501,63.402 V 28.868668 h 7.59733 v 27.626666 h 17.21734 V 63.402 Z"
       style="font-size:49.33333206px;letter-spacing:1.35000002px;fill:#f0b90b;fill-opacity:1"
       id="path3723"
       inkscape:connector-curvature="0" />
    <path
       d="M 339.78389,35.874001 V 63.402 h -7.59734 V 35.874001 h -10.508 v -7.005333 h 28.61334 v 7.005333 z"
       style="font-size:49.33333206px;letter-spacing:1.35000002px;fill:#f0b90b;fill-opacity:1"
       id="path3725"
       inkscape:connector-curvature="0" />
    <path
       d="m 408.84801,46.135334 q 0,3.7 -1.38133,6.956 -1.38134,3.206667 -3.848,5.673333 -2.41734,2.417333 -5.82134,3.848 -3.35466,1.381333 -7.35066,1.381333 -3.996,0 -7.35067,-1.381333 -3.35467,-1.430667 -5.82133,-3.798666 -2.41734,-2.417334 -3.79867,-5.624 -1.332,-3.256 -1.332,-6.956 v -0.09867 q 0,-3.7 1.38133,-6.906666 1.38134,-3.256 3.79867,-5.673333 2.46667,-2.466667 5.82133,-3.848 3.404,-1.430667 7.4,-1.430667 3.996,0 7.35067,1.430667 3.35467,1.381333 5.772,3.798666 2.46667,2.368 3.79867,5.624 1.38133,3.206667 1.38133,6.906667 z m -7.94267,0 q 0,-2.22 -0.78933,-4.193333 -0.74,-1.973333 -2.17067,-3.453333 -1.38133,-1.48 -3.30533,-2.318667 -1.87467,-0.888 -4.19333,-0.888 -2.26934,0 -4.19334,0.838667 -1.924,0.838666 -3.30533,2.318666 -1.332,1.48 -2.12133,3.453334 -0.74,1.924 -0.74,4.144 v 0.09867 q 0,2.22 0.74,4.193333 0.78933,1.973334 2.17066,3.453334 1.43067,1.48 3.35467,2.368 1.924,0.838666 4.19333,0.838666 2.31867,0 4.19334,-0.838666 1.924,-0.838667 3.256,-2.318667 1.38133,-1.48 2.12133,-3.404 0.78933,-1.973333 0.78933,-4.193333 z"
       style="font-size:49.33333206px;letter-spacing:1.35000002px;fill:#f0b90b;fill-opacity:1"
       id="path3727"
       inkscape:connector-curvature="0" />
    <path
       d="m 441.16006,63.402 -16.724,-21.953332 V 63.402 H 416.9374 V 28.868668 h 7.00533 l 16.18133,21.262666 V 28.868668 h 7.49867 V 63.402 Z"
       style="font-size:49.33333206px;letter-spacing:1.35000002px;fill:#f0b90b;fill-opacity:1"
       id="path3729"
       inkscape:connector-curvature="0" />
    <rect
       style="fill:none;fill-opacity:1"
       id="rect20"
       width="659.15497"
       height="183.80283"
       x="-23.239437"
       y="17.492954" />
    <rect
       style="fill:none;fill-opacity:1"
       id="rect22"
       width="304.75354"
       height="18.485916"
       x="-4.7535214"
       y="20.661968" />
    <rect
       style="fill:none;fill-opacity:1;stroke-width:1.0316534"
       id="rect24"
       width="624.29578"
       height="174.82394"
       x="-11.09155"
       y="21.718306" />
  </g>
</svg>
