<?xml version="1.0" encoding="UTF-8" standalone="no"?>
<!DOCTYPE svg PUBLIC "-//W3C//DTD SVG 1.1//EN" "http://www.w3.org/Graphics/SVG/1.1/DTD/svg11.dtd">
<svg width="100%" height="100%" viewBox="0 0 477 120" version="1.1" xmlns="http://www.w3.org/2000/svg" xmlns:xlink="http://www.w3.org/1999/xlink" xml:space="preserve" xmlns:serif="http://www.serif.com/" style="fill-rule:evenodd;clip-rule:evenodd;stroke-linejoin:round;stroke-miterlimit:2;">
    <g id="Logos" transform="matrix(1,0,0,1,-92.474,-17.539)">
        <rect x="0" y="0" width="600" height="252" style="fill:none;"/>
        <g>
            <rect x="464.353" y="43.42" width="90.077" height="5.75" style="fill:rgb(240,185,11);fill-rule:nonzero;"/>
            <path d="M129.03,48.488L119.296,42.881L145.775,27.539L172.331,42.881L162.596,48.488L145.774,38.831L129.03,48.488ZM179.262,58.145L179.262,69.437L188.997,63.83L188.997,52.538L179.262,46.853L169.528,52.46L179.262,58.145ZM136.039,52.538L145.774,58.145L155.509,52.538L145.774,46.853L136.039,52.538ZM172.331,62.195L162.597,56.588L145.775,66.245L129.031,56.588L119.296,62.195L119.296,73.488L136.039,83.145L136.039,102.459L145.774,108.066L155.51,102.459L155.51,83.145L172.331,73.488L172.331,62.195ZM179.262,96.851L162.519,106.508L162.519,117.8L189.075,102.458L189.075,71.852L179.262,77.537L179.262,96.851ZM162.519,98.486L172.254,92.879L172.254,81.509L162.519,87.116L162.519,98.486ZM136.04,110.557L136.04,121.849L145.776,127.457L155.511,121.849L155.511,110.557L145.776,116.165L136.04,110.557ZM102.474,63.83L112.21,69.437L112.21,58.145L121.944,52.538L112.287,46.853L102.552,52.46L102.552,63.83L102.474,63.83ZM112.287,77.537L102.552,71.93L102.552,102.536L129.108,117.878L129.108,106.586L112.287,96.851L112.287,77.537ZM129.031,87.194L119.297,81.587L119.297,92.879L129.031,98.486L129.031,87.194Z" style="fill:rgb(240,185,11);fill-rule:nonzero;"/>
        </g>
    </g>
    <g transform="matrix(1,0,0,1,-92.474,-17.539)">
        <path d="M232.96,53.93C232.96,55.509 232.648,56.89 232.023,58.074C231.431,59.258 230.559,60.245 229.408,61.034C228.29,61.823 226.925,62.415 225.313,62.81C223.735,63.205 221.975,63.402 220.035,63.402L203.607,63.402L203.607,28.869L219.64,28.869C223.192,28.869 225.971,29.675 227.977,31.286C230.016,32.898 231.036,35.069 231.036,37.798L231.036,37.897C231.036,39.87 230.592,41.433 229.704,42.584C228.816,43.735 227.747,44.656 226.497,45.346C228.503,46.103 230.082,47.122 231.233,48.405C232.384,49.688 232.96,51.497 232.96,53.832L232.96,53.93ZM223.488,39.081C223.488,37.93 223.06,37.058 222.205,36.466C221.35,35.841 220.117,35.529 218.505,35.529L211.007,35.529L211.007,42.83L218.012,42.83C219.689,42.83 221.021,42.551 222.008,41.992C222.995,41.4 223.488,40.462 223.488,39.18L223.488,39.081ZM225.412,52.894C225.412,51.743 224.968,50.838 224.08,50.181C223.192,49.49 221.761,49.145 219.788,49.145L211.007,49.145L211.007,56.742L220.035,56.742C221.712,56.742 223.028,56.446 223.981,55.854C224.935,55.229 225.412,54.275 225.412,52.993L225.412,52.894Z" style="fill:rgb(240,185,11);fill-rule:nonzero;"/>
        <path d="M270.15,48.355C270.15,50.953 269.788,53.239 269.065,55.212C268.374,57.153 267.371,58.781 266.055,60.096C264.74,61.379 263.145,62.349 261.27,63.007C259.428,63.632 257.34,63.944 255.005,63.944C250.367,63.944 246.717,62.662 244.053,60.096C241.389,57.498 240.057,53.666 240.057,48.601L240.057,28.868L247.654,28.868L247.654,48.404C247.654,51.233 248.312,53.371 249.627,54.818C250.943,56.232 252.768,56.939 255.103,56.939C257.439,56.939 259.264,56.248 260.579,54.867C261.895,53.486 262.553,51.414 262.553,48.651L262.553,28.868L270.15,28.868L270.15,48.355Z" style="fill:rgb(240,185,11);fill-rule:nonzero;"/>
        <rect x="279.59" y="28.869" width="7.597" height="34.533" style="fill:rgb(240,185,11);fill-rule:nonzero;"/>
        <path d="M297.17,63.402L297.17,28.869L304.767,28.869L304.767,56.496L321.984,56.496L321.984,63.403L297.17,63.402Z" style="fill:rgb(240,185,11);fill-rule:nonzero;"/>
        <path d="M339.78,35.874L339.78,63.402L332.183,63.402L332.183,35.874L321.675,35.874L321.675,28.869L350.288,28.869L350.288,35.874L339.78,35.874Z" style="fill:rgb(240,185,11);fill-rule:nonzero;"/>
        <path d="M408.85,46.135C408.85,48.602 408.39,50.92 407.469,53.091C406.548,55.229 405.265,57.12 403.621,58.764C402.009,60.376 400.069,61.658 397.799,62.612C395.563,63.533 393.113,63.994 390.449,63.994C387.785,63.994 385.334,63.533 383.098,62.612C380.862,61.658 378.921,60.392 377.277,58.814C375.665,57.202 374.399,55.327 373.478,53.19C372.59,51.019 372.146,48.7 372.146,46.234L372.146,46.135C372.146,43.668 372.606,41.366 373.527,39.228C374.448,37.058 375.714,35.166 377.326,33.555C378.97,31.91 380.911,30.628 383.147,29.707C385.417,28.753 387.883,28.276 390.547,28.276C393.211,28.276 395.662,28.753 397.898,29.707C400.134,30.628 402.058,31.894 403.67,33.506C405.314,35.084 406.581,36.959 407.469,39.13C408.39,41.267 408.85,43.57 408.85,46.036L408.85,46.135ZM400.907,46.135C400.907,44.655 400.644,43.257 400.118,41.942C399.625,40.626 398.901,39.475 397.947,38.488C397.026,37.502 395.925,36.729 394.642,36.17C393.392,35.578 391.994,35.282 390.449,35.282C388.936,35.282 387.538,35.561 386.255,36.12C384.973,36.679 383.871,37.452 382.95,38.439C382.062,39.426 381.355,40.577 380.829,41.892C380.335,43.175 380.089,44.556 380.089,46.036L380.089,46.135C380.089,47.615 380.335,49.013 380.829,50.328C381.355,51.644 382.079,52.795 382.999,53.782C383.953,54.768 385.072,55.558 386.354,56.15C387.637,56.709 389.035,56.988 390.547,56.988C392.093,56.988 393.491,56.709 394.741,56.15C396.023,55.591 397.109,54.818 397.997,53.831C398.918,52.844 399.625,51.71 400.118,50.427C400.644,49.111 400.907,47.714 400.907,46.234L400.907,46.135Z" style="fill:rgb(240,185,11);fill-rule:nonzero;"/>
        <path d="M441.16,63.402L424.436,41.449L424.436,63.402L416.937,63.402L416.937,28.869L423.943,28.869L440.124,50.132L440.124,28.869L447.622,28.869L447.622,63.402L441.16,63.402Z" style="fill:rgb(240,185,11);fill-rule:nonzero;"/>
        <g>
            <rect x="-23.239" y="17.493" width="659.15" height="183.8" style="fill:none;"/>
            <rect x="-4.754" y="20.662" width="304.75" height="18.486" style="fill:none;"/>
            <rect x="-11.092" y="21.718" width="624.3" height="174.82" style="fill:none;"/>
        </g>
    </g>
    <g id="bnb-chain-h.svg" transform="matrix(0.43919,0,0,0.43919,240.944,84.9373)">
        <g transform="matrix(1,0,0,1,-502,-88.5)">
            <path d="M288.072,110.67L288.072,110.389C288.072,97.21 281.062,90.62 269.705,86.274C276.715,82.348 282.604,76.179 282.604,65.103L282.604,64.823C282.604,49.4 270.266,39.446 250.217,39.446L204.651,39.446L204.651,137.589L251.339,137.589C273.491,137.589 288.072,128.616 288.072,110.67ZM261.153,68.749C261.153,76.039 255.124,79.124 245.59,79.124L225.681,79.124L225.681,58.373L246.992,58.373C256.105,58.373 261.153,62.019 261.153,68.468L261.153,68.749ZM266.621,108.006C266.621,115.296 260.872,118.661 251.339,118.661L225.681,118.661L225.681,97.07L250.637,97.07C261.714,97.07 266.621,101.136 266.621,107.725L266.621,108.006Z" style="fill:rgb(240,185,11);fill-rule:nonzero;"/>
            <path d="M394.442,137.589L394.442,39.446L373.131,39.446L373.131,99.874L327.144,39.446L307.235,39.446L307.235,137.589L328.546,137.589L328.546,75.198L376.075,137.589L394.442,137.589Z" style="fill:rgb(240,185,11);fill-rule:nonzero;"/>
            <path d="M502.825,110.67L502.825,110.389C502.825,97.21 495.815,90.62 484.459,86.274C491.469,82.348 497.358,76.179 497.358,65.103L497.358,64.823C497.358,49.4 485.019,39.446 464.97,39.446L419.404,39.446L419.404,137.589L466.092,137.589C488.244,137.589 502.825,128.616 502.825,110.67ZM475.906,68.749C475.906,76.039 469.877,79.124 460.344,79.124L440.435,79.124L440.435,58.373L461.746,58.373C470.859,58.373 475.906,62.019 475.906,68.468L475.906,68.749ZM481.374,108.006C481.374,115.296 475.626,118.661 466.092,118.661L440.435,118.661L440.435,97.07L465.391,97.07C476.467,97.07 481.374,101.136 481.374,107.725L481.374,108.006Z" style="fill:rgb(240,185,11);fill-rule:nonzero;"/>
            <path d="M632.954,120.251L621.877,109.035C613.465,116.886 605.754,121.794 593.696,121.794C574.909,121.794 561.309,106.091 561.309,86.743C561.309,67.394 574.909,51.972 593.696,51.972C604.913,51.972 613.325,56.879 621.176,64.17L632.253,51.411C622.859,42.438 611.923,36.129 593.837,36.129C564.113,36.129 543.223,58.982 543.223,87.023C543.223,115.344 564.534,137.637 593.136,137.637C611.502,137.637 622.719,130.907 632.954,120.251Z" style="fill:rgb(240,185,11);fill-rule:nonzero;"/>
            <path d="M716.555,94.594L716.555,135.954L733.8,135.954L733.8,37.811L716.555,37.811L716.555,78.611L669.727,78.611L669.727,37.811L652.481,37.811L652.481,135.954L669.727,135.954L669.727,94.594L716.555,94.594Z" style="fill:rgb(240,185,11);fill-rule:nonzero;"/>
            <path d="M811.16,37.11L795.176,37.11L751.994,135.954L769.659,135.954L779.754,112.26L826.162,112.26L836.116,135.954L854.343,135.954L811.16,37.11ZM819.852,96.978L786.063,96.978L802.888,57.72L819.852,96.978Z" style="fill:rgb(240,185,11);fill-rule:nonzero;"/>
            <rect x="873.556" y="37.811" width="17.245" height="98.143" style="fill:rgb(240,185,11);fill-rule:nonzero;"/>
            <path d="M987.035,105.67L934.458,37.811L918.475,37.811L918.475,135.954L935.44,135.954L935.44,66.132L989.559,135.954L1004,135.954L1004,37.811L987.035,37.811L987.035,105.67Z" style="fill:rgb(240,185,11);fill-rule:nonzero;"/>
        </g>
    </g>
</svg>
