<?xml version="1.0" encoding="UTF-8"?>
<svg width="400" height="400" version="1.1" viewBox="0 0 400 400" xmlns="http://www.w3.org/2000/svg">
 <defs>
  <style>.cls-1{fill:#f0b90b;}.cls-2{fill:none;}</style>
 </defs>
 <title>Chain-Vertical</title>
 <g id="Logos" transform="translate(-55.453 56.09)">
  <rect class="cls-2" width="512" height="400" fill="none"/>
  <path d="m219.89 82.555-19.471-11.216 52.963-30.688 53.118 30.688-19.471 11.216-33.648-19.316zm100.47 19.316v22.587l19.472-11.216v-22.587l-19.472-11.372-19.471 11.216zm-86.455-11.216 19.472 11.216 19.472-11.216-19.472-11.372zm72.591 19.316-19.471-11.216-33.648 19.316-33.492-19.316-19.471 11.216v22.587l33.491 19.316v38.632l19.472 11.216 19.472-11.216v-38.632l33.646-19.316zm13.864 69.32-33.491 19.316v22.587l53.118-30.687v-61.219l-19.628 11.372zm-33.491 3.2713 19.471-11.216v-22.743l-19.471 11.216zm-52.964 24.145v22.587l19.472 11.216 19.472-11.216v-22.587l-19.472 11.216zm-67.138-93.465 19.472 11.216v-22.587l19.471-11.216-19.315-11.372-19.472 11.216v22.743zm19.628 27.416-19.472-11.216v61.219l53.118 30.687v-22.587l-33.646-19.472zm33.491 19.316-19.471-11.216v22.587l19.471 11.216z" fill="#f0b90b" stroke-width="1.5557"/>
  <g fill="#f0b90b" aria-label="BNBChain">
   <path d="m115.28 310.2q0 3.328-1.3173 5.824-1.248 2.496-3.6746 4.16-2.3573 1.664-5.7546 2.496-3.328 0.832-7.4186 0.832h-23.088v-48.533h22.533q7.488 0 11.717 3.3973 4.2986 3.3973 4.2986 9.152v0.13867q0 4.16-1.872 6.5866-1.872 2.4267-4.5066 3.8826 4.2293 1.5947 6.656 4.2986 2.4267 2.704 2.4267 7.6266zm-13.312-20.869q0-2.4266-1.8027-3.6746-1.8027-1.3173-5.2-1.3173h-10.539v10.261h9.8453q3.536 0 5.616-1.1787 2.08-1.248 2.08-3.952zm2.704 19.413q0-2.4266-1.872-3.8133-1.872-1.456-6.032-1.456h-12.341v10.677h12.688q3.536 0 5.5466-1.248 2.0107-1.3173 2.0107-4.0213z"/>
   <path d="m161.42 323.51-23.504-30.853v30.853h-10.539v-48.533h9.8453l22.741 29.883v-29.883h10.539v48.533z"/>
   <path d="m226.59 310.2q0 3.328-1.3173 5.824-1.248 2.496-3.6746 4.16-2.3573 1.664-5.7546 2.496-3.328 0.832-7.4186 0.832h-23.088v-48.533h22.533q7.488 0 11.717 3.3973 4.2986 3.3973 4.2986 9.152v0.13867q0 4.16-1.872 6.5866-1.872 2.4267-4.5066 3.8826 4.2293 1.5947 6.656 4.2986 2.4266 2.704 2.4266 7.6266zm-13.312-20.869q0-2.4266-1.8027-3.6746-1.8027-1.3173-5.2-1.3173h-10.539v10.261h9.8453q3.536 0 5.616-1.1787 2.08-1.248 2.08-3.952zm2.704 19.413q0-2.4266-1.872-3.8133-1.872-1.456-6.032-1.456h-12.341v10.677h12.688q3.536 0 5.5466-1.248 2.0107-1.3173 2.0107-4.0213z"/>
   <path d="m281.33 315.68q-1.872 2.0107-3.8826 3.6053-2.0106 1.5947-4.4373 2.7733-2.3573 1.1093-5.2 1.664-2.8427 0.624-6.3786 0.624-5.3386 0-9.9146-1.9413-4.576-1.9413-7.904-5.2693-3.328-3.3973-5.2-7.9733-1.872-4.576-1.872-9.776v-0.13867q0-5.2 1.872-9.7066 1.872-4.576 5.2-7.9733 3.328-3.4666 7.9733-5.408 4.6453-2.0107 10.261-2.0107 3.4666 0 6.24 0.55467 2.7733 0.55466 5.0613 1.5253 2.288 0.97067 4.2293 2.3573t3.6053 3.0506l-6.7946 7.8346q-2.8426-2.5653-5.824-4.0213-2.912-1.456-6.5866-1.456-3.0507 0-5.6853 1.1787-2.5653 1.1787-4.4373 3.2586t-2.912 4.8533q-1.04 2.704-1.04 5.824v0.13867q0 3.12 1.04 5.8933 1.04 2.7733 2.8426 4.8533 1.872 2.08 4.4373 3.328 2.6346 1.1787 5.7546 1.1787 4.16 0 7.0026-1.5253 2.912-1.5947 5.7546-4.16z"/>
   <path d="m315.52 323.51v-20.731q0-3.744-1.664-5.616-1.664-1.9413-4.7146-1.9413-3.0507 0-4.8533 1.9413-1.7333 1.872-1.7333 5.616v20.731h-10.539v-50.613h10.539v18.72q1.8027-2.3573 4.2986-4.16 2.5653-1.8027 6.5866-1.8027 6.032 0 9.2906 3.6746 3.328 3.6746 3.328 10.123v24.059z"/>
   <path d="m360.24 323.51v-4.0213q-1.9413 2.1493-4.6453 3.4666-2.704 1.248-6.5866 1.248-2.6346 0-4.992-0.69333-2.288-0.76266-4.0213-2.2187-1.7333-1.456-2.7733-3.536-0.97066-2.1493-0.97066-4.9226v-0.13867q0-3.0506 1.1093-5.2693 1.1093-2.2186 3.0506-3.6746 2.0107-1.456 4.7146-2.1493 2.7733-0.76266 6.1013-0.76266 2.8426 0 4.9226 0.416 2.1493 0.41599 4.16 1.1093v-0.62399q0-3.328-2.0106-5.0613-2.0107-1.7333-5.9626-1.7333-3.0506 0-5.408 0.55467-2.288 0.48533-4.8533 1.456l-2.6346-8.0426q3.12-1.3867 6.3786-2.1493 3.2586-0.832 8.0426-0.832 8.6666 0 12.619 4.2293 3.952 4.2293 3.952 11.787v21.563zm0.208-14.976q-1.3867-0.624-3.12-0.97066-1.664-0.416-3.6053-0.416-3.3973 0-5.3386 1.3173-1.9413 1.3173-1.9413 3.8133v0.13867q0 2.1493 1.5947 3.328t4.16 1.1787q3.744 0 5.9626-1.8026 2.288-1.8027 2.288-4.7146z"/>
   <path d="m382.96 282.26v-9.36h11.093v9.36zm0.27734 41.253v-37.162h10.539v37.162z"/>
   <path d="m430.49 323.51v-20.731q0-3.744-1.664-5.616-1.664-1.9413-4.7146-1.9413-3.0507 0-4.8533 1.9413-1.7333 1.872-1.7333 5.616v20.731h-10.539v-37.162h10.539v5.2693q1.8027-2.3573 4.2986-4.16 2.5653-1.8027 6.5866-1.8027 6.032 0 9.2906 3.6746 3.328 3.6746 3.328 10.123v24.059z"/>
  </g>
 </g>
 <g transform="translate(-69.298 .46174)" fill="#f0b90b" stroke-width="1.1384">
  <path d="m163.81 50.582q0 2.6958-1.0671 4.7177-1.0109 2.0219-2.9766 3.3698-1.9096 1.3479-4.6615 2.0219-2.6958 0.67396-6.0094 0.67396h-18.702v-39.314h18.253q6.0656 0 9.4915 2.752 3.4821 2.752 3.4821 7.4135v0.11233q0 3.3698-1.5164 5.3355t-3.6506 3.1451q3.4259 1.2917 5.3916 3.4821t1.9657 6.1779zm-10.783-16.905q0-1.9657-1.4602-2.9766-1.4602-1.0671-4.2122-1.0671h-8.5368v8.3121h7.9752q2.8643 0 4.5492-0.95477 1.6849-1.0109 1.6849-3.2013zm2.1904 15.726q0-1.9657-1.5164-3.089-1.5164-1.1794-4.8862-1.1794h-9.997v8.6491h10.278q2.8643 0 4.493-1.0109 1.6287-1.0671 1.6287-3.2575z"/>
  <path d="m206.16 44.236q0 4.4369-1.2356 7.8066-1.1794 3.3136-3.4259 5.5601-2.2465 2.1904-5.4478 3.3136-3.1451 1.0671-7.1327 1.0671-7.919 0-12.468-4.3807-4.5492-4.4369-4.5492-13.086v-22.465h8.6491v22.241q0 4.83 2.2465 7.3012 2.2465 2.415 6.2341 2.415t6.2341-2.3588q2.2465-2.3588 2.2465-7.0765v-22.521h8.6491z"/>
  <path d="m216.9 61.365v-39.314h8.6491v39.314z"/>
  <path d="m236.91 61.365v-39.314h8.6491v31.451h19.601v7.8628z"/>
  <path d="m285.43 30.027v31.339h-8.6491v-31.339h-11.963v-7.9751h32.575v7.9751z"/>
  <path d="m364.06 41.708q0 4.2122-1.5726 7.919-1.5726 3.6506-4.3807 6.4587-2.752 2.752-6.6272 4.3807-3.8191 1.5726-8.3683 1.5726t-8.3683-1.5726q-3.8191-1.6287-6.6272-4.3245-2.752-2.752-4.3246-6.4026-1.5164-3.7068-1.5164-7.919v-0.11233q0-4.2122 1.5726-7.8628 1.5726-3.7068 4.3246-6.4587 2.8082-2.8081 6.6272-4.3807 3.8752-1.6287 8.4244-1.6287t8.3683 1.6287q3.8191 1.5726 6.5711 4.3245 2.8082 2.6958 4.3246 6.4026 1.5726 3.6506 1.5726 7.8628zm-9.0422 0q0-2.5273-0.8986-4.7738-0.84245-2.2465-2.4712-3.9314-1.5726-1.6849-3.7629-2.6397-2.1342-1.0109-4.7738-1.0109-2.5835 0-4.7739 0.95477t-3.7629 2.6397q-1.5164 1.6849-2.415 3.9314-0.84245 2.1904-0.84245 4.7177v0.11233q0 2.5273 0.84245 4.7738 0.8986 2.2465 2.4712 3.9314 1.6287 1.6849 3.8191 2.6958 2.1904 0.95477 4.7738 0.95477 2.6397 0 4.7739-0.95477 2.1904-0.95477 3.7068-2.6397 1.5726-1.6849 2.415-3.8752 0.8986-2.2465 0.8986-4.7738z"/>
  <path d="m400.84 61.365-19.039-24.993v24.993h-8.5368v-39.314h7.9751l18.421 24.206v-24.206h8.5368v39.314z"/>
 </g>
 <g fill="none">
  <rect x="-75.991" y="34.774" width="551.98" height="364.59" stroke-width=".99566"/>
  <rect x="-68.661" y="180.1" width="537.32" height="219.9"/>
  <rect x="-81.09" y="53.896" width="562.18" height="346.1"/>
  <rect x="-3.6467" y="52.621" width="407.29" height="347.38" stroke-width=".93634"/>
 </g>
</svg>
