<?xml version="1.0" encoding="utf-8"?>
<!-- Generator: Adobe Illustrator 22.0.1, SVG Export Plug-In . SVG Version: 6.00 Build 0)  -->
<svg version="1.1" id="Layer_1" xmlns="http://www.w3.org/2000/svg" xmlns:xlink="http://www.w3.org/1999/xlink" x="0px" y="0px"
	 viewBox="0 0 1177.6 262.2" style="enable-background:new 0 0 1177.6 262.2;" xml:space="preserve">
<style type="text/css">
	.st0{fill:url(#SVGID_1_);}
	.st1{fill:#33CCFF;}
	.st2{fill:url(#SVGID_2_);}
	.st3{fill:url(#SVGID_3_);}
	.st4{fill:url(#SVGID_4_);}
	.st5{fill:url(#SVGID_5_);}
	.st6{fill:url(#SVGID_6_);}
	.st7{fill:url(#SVGID_7_);}
	.st8{fill:#FFFFFF;}
	.st9{fill:#0099CC;}
	.st10{fill:#33CAFF;}
	.st11{opacity:5.000000e-02;fill:#F8F9F9;}
	.st12{fill:#00FFCA;}
	.st13{fill:#F5F5F5;}
	.st14{fill:#F2F2F2;}
	.st15{opacity:0.9;fill:#00FFFF;}
	.st16{fill:#15EBD6;}
	.st17{fill:#FFDB15;}
	.st18{fill:#FF99FF;}
	.st19{fill:#3366FF;}
	.st20{fill:#D1D1D1;}
	.st21{opacity:0.3;fill:#15EBD6;}
	.st22{fill:#919D9D;}
	.st23{fill:#FF6666;}
	.st24{opacity:0.1;fill:#33CCFF;}
	.st25{opacity:0.2;fill:#33CCFF;}
	.st26{opacity:5.000000e-02;fill:#33CCFF;}
	.st27{opacity:0.95;fill:#33CCFF;}
	.st28{opacity:0.9;fill:#33CCFF;}
	.st29{opacity:0.7;fill:#33CCFF;}
	.st30{opacity:0.6;fill:#33CCFF;}
	.st31{opacity:0.8;fill:#33CCFF;}
	.st32{opacity:0.3;fill:#33CCFF;}
	.st33{opacity:0.5;fill:#33CCFF;}
	.st34{opacity:0.4;fill:#33CCFF;}
	.st35{fill:url(#SVGID_8_);}
	.st36{fill:url(#SVGID_9_);}
	.st37{fill:url(#SVGID_10_);}
	.st38{fill:url(#SVGID_11_);}
	.st39{fill:url(#SVGID_12_);}
	.st40{fill:url(#SVGID_13_);}
	.st41{fill:url(#SVGID_14_);}
	.st42{fill:url(#SVGID_15_);}
	.st43{fill:#485F64;}
	.st44{fill:#9C9C9C;}
	.st45{fill:#221F1F;}
	.st46{fill:#06BC65;}
	.st47{fill:#1E1E1E;}
	.st48{fill:#FFFF5A;}
	.st49{fill:#F05A2A;}
	.st50{fill:#D661AA;}
	.st51{fill:#F7EA2F;}
	.st52{fill:#26A7DF;}
	.st53{fill:#EFE92B;}
	.st54{fill:#F9A0DC;}
	.st55{fill:#FF3951;}
	.st56{fill:#4EDCCA;}
	.st57{fill:#FFC600;}
	.st58{clip-path:url(#SVGID_17_);}
	.st59{clip-path:url(#SVGID_19_);}
	.st60{fill:#0078BF;}
	.st61{clip-path:url(#SVGID_21_);}
	.st62{clip-path:url(#SVGID_23_);}
	.st63{fill:#F9A4D8;}
	.st64{clip-path:url(#SVGID_25_);}
	.st65{clip-path:url(#SVGID_27_);}
	.st66{fill:url(#SVGID_28_);}
	.st67{fill:url(#SVGID_29_);}
	.st68{clip-path:url(#SVGID_31_);}
	.st69{clip-path:url(#SVGID_33_);}
	.st70{clip-path:url(#SVGID_35_);}
	.st71{clip-path:url(#SVGID_37_);}
	.st72{clip-path:url(#SVGID_39_);}
	.st73{clip-path:url(#SVGID_41_);}
	.st74{fill:url(#SVGID_42_);}
	.st75{fill:url(#SVGID_43_);}
	.st76{fill:url(#SVGID_44_);}
	.st77{fill:url(#SVGID_45_);}
	.st78{fill:url(#SVGID_46_);}
	.st79{fill:url(#SVGID_47_);}
	.st80{fill:url(#SVGID_48_);}
	.st81{fill:url(#SVGID_49_);}
</style>
<g>
	<g>
		<path class="st1" d="M587.9,94.6c-4.8-6.3-11.4-11.2-19.7-14.8c-8.4-3.5-19-5.3-32.1-5.3c-10.3,0-20.4,2.3-30.2,7
			c-4.5,2.2-8.7,4.9-12.5,8.3c-5.1,4.6-9.2,10.3-12.3,16.4c-10.6,20.8-26.8,38.4-46.6,50.7v74.1c0,14.2,11.5,25.7,25.7,25.7h23v-93
			c0-18.1,3-31.1,8.9-38.9c5.9-7.9,15.6-11.8,28.8-11.8c11.7,0,19.8,3.6,24.4,10.8c4.6,7.2,6.9,18.1,6.9,32.8v75.1
			c0,13.8,11.2,25.1,25.1,25.1h23.7V147.6c0-11-1-21-2.9-30C596.1,108.6,592.7,100.9,587.9,94.6z"/>
		<path class="st1" d="M434.5,79.4v60.8c16.9-16.3,29.3-37.3,35.2-60.8H434.5z"/>
		<path class="st1" d="M159.1,202.1c0,0-0.1,0.1-0.1,0.1c-0.8,0.9-1.6,1.7-2.5,2.5c-1.8,1.9-3.6,3.8-5.3,5.8c-1.9,2.5-3.8,5-5.9,7.4
			c-16,18.6-37.2,32.6-61.4,39.7c11,3.1,22.9,4.7,35.6,4.7c0.3,0,0.5,0,0.8,0c1.3,0,2.6,0,3.9-0.1c13.6-0.4,26.1-2.6,37.6-6.8
			c12.6-4.6,23.6-11.2,32.9-19.9c9.4-8.7,16.9-19.2,22.6-31.6c5.1-11,8.4-23.2,10.1-36.5c-21,3.5-40.3,12-56.5,24.4
			C166.9,195,162.9,198.4,159.1,202.1z"/>
		<path class="st1" d="M120.4,217.3c-12.1,0-22.4-2.3-30.9-7c-8.5-4.7-15.3-10.9-20.6-18.7c-5.3-7.8-9.1-16.5-11.5-26.2
			c-2.4-9.7-3.6-19.7-3.6-30c0-10.7,1.2-21.2,3.6-31.2c1.3-5.6,3.1-10.9,5.4-15.8c0.4-1,0.9-1.9,1.4-2.8c0-0.1,0.1-0.1,0.1-0.2
			c0.4-0.9,0.9-1.7,1.4-2.6c0.1-0.3,0.3-0.5,0.4-0.8c0.4-0.7,0.7-1.3,1.1-2c0.6-0.9,1.1-1.9,1.8-2.8c5.3-7.9,12.1-14.2,20.6-18.9
			c8.5-4.7,18.8-7,30.9-7c0.6,0,1.1,0,1.7,0v0c6,0.2,11.8,1.2,17.4,3.2c6.1,2.2,11.5,5.2,16.3,9.1c4.8,3.9,8.8,8.4,12,13.6
			c0,0,0,0,0,0c0,0.1,0.1,0.1,0.1,0.2c6.4,10.3,17.4,16.8,29.5,16.8h28.8c-1.6-14.2-5.5-26.8-11.7-37.7c-3.1-5.5-6.7-10.6-10.6-15.3
			c-3.9-4.5-8.2-8.7-12.9-12.3c-9.5-7.4-20.2-13.1-32.3-17c-12-3.9-24.8-5.8-38.3-5.8c-18.8,0-35.6,3.3-50.6,9.9
			c-7.5,3.3-14.3,7.2-20.6,11.8c0,0,0,0-0.1,0c-0.4,0.3-0.7,0.5-1,0.8c-0.4,0.3-0.8,0.6-1.2,0.9c-0.9,0.7-1.7,1.3-2.6,2
			c-0.4,0.3-0.8,0.7-1.2,1c-0.9,0.7-1.7,1.5-2.5,2.2c-0.3,0.3-0.7,0.6-1.1,0.9c-1.2,1.1-2.3,2.1-3.4,3.3c-0.1,0.1-0.2,0.2-0.3,0.2
			c-1.4,1.4-2.7,2.8-4,4.3c-1.1,1.2-2.1,2.4-3.1,3.7c-0.3,0.4-0.7,0.8-1,1.3c0,0,0,0,0,0v0C19.5,58.8,13,70.8,8.2,84.3
			C2.7,100,0,117,0,135.3c0,17.8,2.7,34.5,8.2,49.9c5.5,15.4,13.4,28.9,23.7,40.3c5.3,5.9,11.2,11.1,17.7,15.6
			c27.2-0.3,52.4-9.1,73-23.9C121.8,217.3,121.1,217.3,120.4,217.3z"/>
		<path class="st1" d="M245.8,187.5C245.8,187.5,245.8,187.5,245.8,187.5C245.8,187.5,245.8,187.5,245.8,187.5z"/>
		<path class="st1" d="M245,189.8c0-0.1,0.1-0.2,0.1-0.3C245.1,189.6,245,189.7,245,189.8z"/>
		<path class="st1" d="M243.8,194.4c0-0.1,0-0.2,0.1-0.3C243.8,194.2,243.8,194.3,243.8,194.4z"/>
		<path class="st1" d="M244.3,192.1c0-0.1,0.1-0.2,0.1-0.3C244.4,191.8,244.4,192,244.3,192.1z"/>
		<path class="st1" d="M244.4,191.7c0.2-0.7,0.4-1.3,0.6-1.9C244.8,190.4,244.6,191.1,244.4,191.7z"/>
		<path class="st1" d="M243.8,194.1c0.2-0.7,0.3-1.4,0.5-2C244.2,192.7,244,193.4,243.8,194.1z"/>
		<path class="st1" d="M243,199.1C243,199.1,243,199.1,243,199.1c0.2-1.6,0.5-3.2,0.8-4.7C243.5,195.9,243.2,197.4,243,199.1z"/>
		<path class="st1" d="M245.1,189.6c0.2-0.7,0.5-1.4,0.7-2C245.6,188.2,245.3,188.9,245.1,189.6z"/>
		<path class="st1" d="M299.9,187.6c2.6-1.9,5.7-3.5,9.3-4.6c3.5-1.1,7.2-2.1,10.8-2.8c3.9-0.7,7.8-1.2,11.7-1.7
			c0,0,10-1.4,22.8-4.9c0.1,0,0.1,0,0.2-0.1c14.7-4,33-10.7,44.2-20.9c6.4-4.8,10.2-12.3,10.2-20.3V125c0-6.7-0.9-12.6-2.8-17.7
			c-1.1-3-2.6-5.8-4.4-8.2c-4.8-6.5-11-11.6-18.5-15.3c-7.5-3.7-15.9-6.1-25-7.4c-4.6-0.6-9.1-1.1-13.6-1.4
			c-1.1-0.1-2.3-0.1-3.4-0.2c-3.4-0.2-6.7-0.3-10.1-0.3c-2.4,0-4.8,0.1-7.2,0.2c-7.4,0.4-14.7,1.3-22,2.7
			c-9.7,1.9-18.5,5.2-26.2,9.8c-7.8,4.6-14.2,10.6-19.2,18.2c-5,7.6-7.9,17-8.6,28.5h0c0,0,0,0,0,0h30.6c9.2,0,17.4-5.3,21.7-13.4
			c1.5-2.9,3.5-5.3,6-7.2c4.8-3.6,11.2-5.6,19.1-6.1c1.1-0.1,2.2-0.1,3.4-0.1c2.2,0,4.3,0.1,6.3,0.2c2.1,0.1,4.1,0.4,6,0.6
			c3.8,0.6,7.1,1.7,10,3.4c2.9,1.7,5.1,4.1,6.9,7.2c0.4,0.8,0.8,1.6,1.1,2.5c1,2.7,1.4,6.1,1.4,10c0.2,5-1.3,8.9-4.5,11.5
			c-3.2,2.6-7.6,4.6-13,6c-5.5,1.4-11.8,2.4-18.9,3.1c-7.1,0.7-14.3,1.6-21.6,2.7c-7.3,1.1-14.6,2.7-21.8,4.6c-4.7,1.3-9,3-13.1,5
			c-2.1,1.1-4.2,2.3-6.2,3.7c-5.6,3.9-10.2,9.1-13.7,15.6c-0.7,1.3-1.3,2.6-1.9,4c0,0,0,0,0,0c-0.3,0.7-0.5,1.3-0.7,2
			c0,0.1-0.1,0.2-0.1,0.3c-0.2,0.6-0.4,1.3-0.6,1.9c0,0.1-0.1,0.2-0.1,0.3c-0.2,0.7-0.3,1.3-0.5,2c0,0.1,0,0.2-0.1,0.3
			c-0.3,1.5-0.6,3.1-0.8,4.7c-0.1,1-0.2,1.9-0.3,2.9c-0.2,2.1-0.3,4.2-0.3,6.4c0,9.2,1.5,17.1,4.6,23.7c3.1,6.6,7.4,12.1,12.9,16.5
			c5.5,4.3,11.9,7.5,19.2,9.6c6.6,1.8,13.6,2.9,21.1,3c0.8,0,1.6,0,2.4,0c2.1,0,4.1-0.1,6.2-0.2c0.7,0,1.4-0.1,2.1-0.1
			c2.1-0.2,4.2-0.4,6.4-0.6c6-0.8,12-2.1,17.8-3.9c10.5-3.2,19.6-8.7,27.3-16.7c0,0,0.1-0.1,0.1-0.1c0,0,0,0,0,0c0,0.1,0,0.1,0,0.2
			c3.5,9.8,12.9,16.9,23.9,17h0.4H409v-39.5v-3.7v-10.4v-8.9V190v-20.6c-14.1,3.6-27.3,9.6-39.1,17.5c-0.2,0.2-0.5,0.3-0.7,0.5
			c-5.7,4-9.8,10.3-10.7,17.6c0.1-0.5,0.1-1,0.2-1.5c-0.8,3.1-2.1,6.1-3.8,9.2c-2.5,4.5-6.4,8.3-11.7,11.5c-3.3,2-7.5,3.4-12.6,4.1
			c-1.5,0.2-3,0.4-4.7,0.5c-1.7,0.1-3.4,0.2-5.2,0.2h-0.1c-0.8,0-1.7,0-2.5-0.1c-0.5,0-1.1,0-1.6-0.1c0,0-0.1,0-0.1,0
			c-0.4,0-0.8,0-1.1-0.1c-0.4,0-0.7-0.1-1.1-0.1c-0.6-0.1-1.2-0.2-1.9-0.2c-0.5-0.1-0.9-0.1-1.4-0.2c-0.5-0.1-0.9-0.1-1.4-0.2
			c-3.7-0.7-6.9-1.9-9.6-3.6c-2.7-1.7-4.9-4.1-6.5-7c-1.6-3-2.4-6.6-2.4-11c0-4.6,0.8-8.3,2.4-11.3l0,0
			C295.1,192,297.2,189.5,299.9,187.6z"/>
		<path class="st1" d="M913.1,63.1c0,0.2-0.1,0.4-0.1,0.5C913,63.4,913.1,63.3,913.1,63.1z"/>
		<path class="st1" d="M913.4,58.9c0,1.4-0.1,2.8-0.4,4.2C913.3,61.7,913.5,60.3,913.4,58.9z"/>
		<path class="st1" d="M913,63.6c0,0.1,0,0.1,0,0.2C913,63.7,913,63.7,913,63.6z"/>
	</g>
	<g>
		<path class="st22" d="M661.9,116.1l-17.3,39.3h-18.9L695.4,0h18.4l69.5,155.4H764l-17.3-39.3H661.9z M704,20.2L669.4,99h69.7
			L704,20.2z"/>
		<path class="st22" d="M924.9,97.2c0,34.6-22.6,58.8-55.7,58.8c-20.9,0-36.9-9.5-45.5-25.8v68.2h-17.3V38.4h17.3v25.3
			c8.7-16.4,24.6-26,45.1-26C901.8,37.7,924.9,62.2,924.9,97.2z M907.4,96.8c0-25.1-17.3-43.5-41.7-43.5c-24.6,0-42,18.2-42,43.5
			c0,25.5,17.3,43.5,42,43.5C890.1,140.3,907.4,122.1,907.4,96.8z"/>
		<path class="st22" d="M1075,97.2c0,34.6-22.6,58.8-55.7,58.8c-20.9,0-36.9-9.5-45.5-25.8v68.2h-17.3V38.4h17.3v25.3
			c8.7-16.4,24.6-26,45.1-26C1051.9,37.7,1075,62.2,1075,97.2z M1057.5,96.8c0-25.1-17.3-43.5-41.7-43.5c-24.6,0-42,18.2-42,43.5
			c0,25.5,17.3,43.5,42,43.5C1040.1,140.3,1057.5,122.1,1057.5,96.8z"/>
		<path class="st22" d="M1173.8,48.4l-6.7,13.8c-9.1-5.8-20.9-9.5-31.7-9.5c-13.1,0-23.1,4.7-23.1,15.5c0,26,65.3,12.7,65.3,54.6
			c0,23.1-20.4,33.3-42.8,33.3c-16.6,0-33.7-5.8-44.8-16.4l6.7-13.1c10,9.3,25.1,14.9,38.9,14.9s24.9-5.1,25.1-16.6
			c0.7-28.2-64.8-13.8-64.6-55.3c0-22.4,19.3-31.7,40.6-31.7C1150.5,37.7,1164,41.7,1173.8,48.4z"/>
	</g>
</g>
</svg>
