<?xml version="1.0" encoding="utf-8"?>
<!-- Generator: Adobe Illustrator 22.0.1, SVG Export Plug-In . SVG Version: 6.00 Build 0)  -->
<svg version="1.1" id="Layer_1" xmlns="http://www.w3.org/2000/svg" xmlns:xlink="http://www.w3.org/1999/xlink" x="0px" y="0px"
	 viewBox="0 0 1358.5 268.4" style="enable-background:new 0 0 1358.5 268.4;" xml:space="preserve">
<style type="text/css">
	.st0{fill:url(#SVGID_1_);}
	.st1{fill:#33CCFF;}
	.st2{fill:url(#SVGID_2_);}
	.st3{fill:url(#SVGID_3_);}
	.st4{fill:url(#SVGID_4_);}
	.st5{fill:url(#SVGID_5_);}
	.st6{fill:url(#SVGID_6_);}
	.st7{fill:url(#SVGID_7_);}
	.st8{fill:#FFFFFF;}
	.st9{fill:#0099CC;}
	.st10{fill:#33CAFF;}
	.st11{opacity:5.000000e-02;fill:#F8F9F9;}
	.st12{fill:#00FFCA;}
	.st13{fill:#F5F5F5;}
	.st14{fill:#F2F2F2;}
	.st15{opacity:0.9;fill:#00FFFF;}
	.st16{fill:#15EBD6;}
	.st17{fill:#FFDB15;}
	.st18{fill:#FF99FF;}
	.st19{fill:#3366FF;}
	.st20{fill:#D1D1D1;}
	.st21{opacity:0.3;fill:#15EBD6;}
	.st22{fill:#919D9D;}
	.st23{fill:#FF6666;}
	.st24{opacity:0.1;fill:#33CCFF;}
	.st25{opacity:0.2;fill:#33CCFF;}
	.st26{opacity:5.000000e-02;fill:#33CCFF;}
	.st27{opacity:0.95;fill:#33CCFF;}
	.st28{opacity:0.9;fill:#33CCFF;}
	.st29{opacity:0.7;fill:#33CCFF;}
	.st30{opacity:0.6;fill:#33CCFF;}
	.st31{opacity:0.8;fill:#33CCFF;}
	.st32{opacity:0.3;fill:#33CCFF;}
	.st33{opacity:0.5;fill:#33CCFF;}
	.st34{opacity:0.4;fill:#33CCFF;}
	.st35{fill:url(#SVGID_8_);}
	.st36{fill:url(#SVGID_9_);}
	.st37{fill:url(#SVGID_10_);}
	.st38{fill:url(#SVGID_11_);}
	.st39{fill:url(#SVGID_12_);}
	.st40{fill:url(#SVGID_13_);}
	.st41{fill:url(#SVGID_14_);}
	.st42{fill:url(#SVGID_15_);}
	.st43{fill:#485F64;}
	.st44{fill:#9C9C9C;}
	.st45{fill:#221F1F;}
	.st46{fill:#06BC65;}
	.st47{fill:#1E1E1E;}
	.st48{fill:#FFFF5A;}
	.st49{fill:#F05A2A;}
	.st50{fill:#D661AA;}
	.st51{fill:#F7EA2F;}
	.st52{fill:#26A7DF;}
	.st53{fill:#EFE92B;}
	.st54{fill:#F9A0DC;}
	.st55{fill:#FF3951;}
	.st56{fill:#4EDCCA;}
	.st57{fill:#FFC600;}
	.st58{clip-path:url(#SVGID_17_);}
	.st59{clip-path:url(#SVGID_19_);}
	.st60{fill:#0078BF;}
	.st61{clip-path:url(#SVGID_21_);}
	.st62{clip-path:url(#SVGID_23_);}
	.st63{fill:#F9A4D8;}
	.st64{clip-path:url(#SVGID_25_);}
	.st65{clip-path:url(#SVGID_27_);}
	.st66{fill:url(#SVGID_28_);}
	.st67{fill:url(#SVGID_29_);}
	.st68{clip-path:url(#SVGID_31_);}
	.st69{clip-path:url(#SVGID_33_);}
	.st70{clip-path:url(#SVGID_35_);}
	.st71{clip-path:url(#SVGID_37_);}
	.st72{clip-path:url(#SVGID_39_);}
	.st73{clip-path:url(#SVGID_41_);}
	.st74{fill:url(#SVGID_42_);}
	.st75{fill:url(#SVGID_43_);}
	.st76{fill:url(#SVGID_44_);}
	.st77{fill:url(#SVGID_45_);}
	.st78{fill:url(#SVGID_46_);}
	.st79{fill:url(#SVGID_47_);}
	.st80{fill:url(#SVGID_48_);}
	.st81{fill:url(#SVGID_49_);}
	.st82{fill:none;stroke:#BC202E;stroke-miterlimit:10;}
	.st83{fill:#BC202E;}
</style>
<g>
	<path class="st1" d="M245.8,193.7C245.8,193.7,245.8,193.7,245.8,193.7C245.8,193.7,245.8,193.7,245.8,193.7z"/>
	<path class="st1" d="M245,196c0-0.1,0.1-0.2,0.1-0.3C245.1,195.8,245,195.9,245,196z"/>
	<path class="st1" d="M243.8,200.5c0-0.1,0-0.2,0.1-0.3C243.8,200.4,243.8,200.5,243.8,200.5z"/>
	<path class="st1" d="M244.3,198.2c0-0.1,0.1-0.2,0.1-0.3C244.4,198,244.4,198.1,244.3,198.2z"/>
	<path class="st1" d="M244.4,197.9c0.2-0.7,0.4-1.3,0.6-1.9C244.8,196.6,244.6,197.3,244.4,197.9z"/>
	<path class="st1" d="M243.8,200.3c0.2-0.7,0.3-1.4,0.5-2C244.2,198.9,244,199.6,243.8,200.3z"/>
	<path class="st1" d="M243,205.2C243,205.2,243,205.2,243,205.2c0.2-1.6,0.5-3.2,0.8-4.7C243.5,202.1,243.2,203.6,243,205.2z"/>
	<path class="st1" d="M245.1,195.7c0.2-0.7,0.5-1.4,0.7-2C245.6,194.4,245.3,195.1,245.1,195.7z"/>
	<path class="st1" d="M914.1,125.3c0,0.2-0.1,0.4-0.1,0.5C914,125.6,914.1,125.5,914.1,125.3z"/>
	<path class="st1" d="M914.4,121.1c0,1.4-0.1,2.8-0.4,4.2C914.3,123.9,914.5,122.5,914.4,121.1z"/>
	<path class="st1" d="M914,125.8c0,0.1,0,0.1,0,0.2C914,125.9,914,125.9,914,125.8z"/>
	<path class="st1" d="M587.9,100.8c-4.8-6.3-11.4-11.2-19.7-14.8c-8.4-3.5-19-5.3-32.1-5.3c-10.3,0-20.4,2.3-30.2,7
		c-4.5,2.2-8.7,4.9-12.5,8.3c-5.1,4.6-9.2,10.3-12.3,16.4c-10.6,20.8-26.8,38.4-46.6,50.7v74.1c0,14.2,11.5,25.7,25.7,25.7h23v-93
		c0-18.1,3-31.1,8.9-38.9c5.9-7.9,15.6-11.8,28.8-11.8c11.7,0,19.8,3.6,24.4,10.8c4.6,7.2,6.9,18.1,6.9,32.8v75.1
		c0,13.8,11.2,25.1,25.1,25.1h23.7V153.8c0-11-1-21-2.9-30C596.1,114.8,592.7,107.1,587.9,100.8z"/>
	<path class="st1" d="M434.5,85.5v60.8c16.9-16.3,29.3-37.3,35.2-60.8H434.5z"/>
	<path class="st1" d="M159.1,208.3c0,0-0.1,0.1-0.1,0.1c-0.8,0.9-1.6,1.7-2.5,2.5c-1.8,1.9-3.6,3.8-5.3,5.8c-1.9,2.5-3.8,5-5.9,7.4
		c-16,18.6-37.2,32.6-61.4,39.7c11,3.1,22.9,4.7,35.6,4.7c0.3,0,0.5,0,0.8,0c1.3,0,2.6,0,3.9-0.1c13.6-0.4,26.1-2.6,37.6-6.8
		c12.6-4.6,23.6-11.2,32.9-19.9c9.4-8.7,16.9-19.2,22.6-31.6c5.1-11,8.4-23.2,10.1-36.5c-21,3.5-40.3,12-56.5,24.4
		C166.9,201.1,162.9,204.6,159.1,208.3z"/>
	<path class="st1" d="M120.4,223.5c-12.1,0-22.4-2.3-30.9-7c-8.5-4.7-15.3-10.9-20.6-18.7c-5.3-7.8-9.1-16.5-11.5-26.2
		c-2.4-9.7-3.6-19.7-3.6-30c0-10.7,1.2-21.2,3.6-31.2c1.3-5.6,3.1-10.9,5.4-15.8c0.4-1,0.9-1.9,1.4-2.8c0-0.1,0.1-0.1,0.1-0.2
		c0.4-0.9,0.9-1.7,1.4-2.6c0.1-0.3,0.3-0.5,0.4-0.8c0.4-0.7,0.7-1.3,1.1-2c0.6-0.9,1.1-1.9,1.8-2.8c5.3-7.9,12.1-14.2,20.6-18.9
		c8.5-4.7,18.8-7,30.9-7c0.6,0,1.1,0,1.7,0v0c6,0.2,11.8,1.2,17.4,3.2c6.1,2.2,11.5,5.2,16.3,9.1c4.8,3.9,8.8,8.4,12,13.6
		c0,0,0,0,0,0c0,0.1,0.1,0.1,0.1,0.2c6.4,10.3,17.4,16.8,29.5,16.8h28.8c-1.6-14.2-5.5-26.8-11.7-37.7c-3.1-5.5-6.7-10.6-10.6-15.3
		c-3.9-4.5-8.2-8.7-12.9-12.3c-9.5-7.4-20.2-13.1-32.3-17c-12-3.9-24.8-5.8-38.3-5.8c-18.8,0-35.6,3.3-50.6,9.9
		c-7.5,3.3-14.3,7.2-20.6,11.8c0,0,0,0-0.1,0c-0.4,0.3-0.7,0.5-1,0.8c-0.4,0.3-0.8,0.6-1.2,0.9c-0.9,0.7-1.7,1.3-2.6,2
		c-0.4,0.3-0.8,0.7-1.2,1c-0.9,0.7-1.7,1.5-2.5,2.2c-0.3,0.3-0.7,0.6-1.1,0.9c-1.2,1.1-2.3,2.1-3.4,3.3c-0.1,0.1-0.2,0.2-0.3,0.2
		c-1.4,1.4-2.7,2.8-4,4.3c-1.1,1.2-2.1,2.4-3.1,3.7c-0.3,0.4-0.7,0.8-1,1.3c0,0,0,0,0,0v0C19.5,65,13,77,8.2,90.5
		c-5.5,15.7-8.2,32.7-8.2,51c0,17.8,2.7,34.5,8.2,49.9c5.5,15.4,13.4,28.9,23.7,40.3c5.3,5.9,11.2,11.1,17.7,15.6
		c27.2-0.3,52.4-9.1,73-23.9C121.8,223.5,121.1,223.5,120.4,223.5z"/>
	<path class="st1" d="M299.9,193.8c2.6-1.9,5.7-3.5,9.3-4.6c3.5-1.1,7.2-2.1,10.8-2.8c3.9-0.7,7.8-1.2,11.7-1.7c0,0,10-1.4,22.8-4.9
		c0.1,0,0.1,0,0.2-0.1c14.7-4,33-10.7,44.2-20.9c6.4-4.8,10.2-12.3,10.2-20.3v-7.4c0-6.7-0.9-12.6-2.8-17.7c-1.1-3-2.6-5.8-4.4-8.2
		c-4.8-6.5-11-11.6-18.5-15.3c-7.5-3.7-15.9-6.1-25-7.4c-4.6-0.6-9.1-1.1-13.6-1.4c-1.1-0.1-2.3-0.1-3.4-0.2
		c-3.4-0.2-6.7-0.3-10.1-0.3c-2.4,0-4.8,0.1-7.2,0.2c-7.4,0.4-14.7,1.3-22,2.7c-9.7,1.9-18.5,5.2-26.2,9.8
		c-7.8,4.6-14.2,10.6-19.2,18.2c-5,7.6-7.9,17-8.6,28.5h0c0,0,0,0,0,0h30.6c9.2,0,17.4-5.3,21.7-13.4c1.5-2.9,3.5-5.3,6-7.2
		c4.8-3.6,11.2-5.6,19.1-6.1c1.1-0.1,2.2-0.1,3.4-0.1c2.2,0,4.3,0.1,6.3,0.2c2.1,0.1,4.1,0.4,6,0.6c3.8,0.6,7.1,1.7,10,3.4
		c2.9,1.7,5.1,4.1,6.9,7.2c0.4,0.8,0.8,1.6,1.1,2.5c1,2.7,1.4,6.1,1.4,10c0.2,5-1.3,8.9-4.5,11.5c-3.2,2.6-7.6,4.6-13,6
		c-5.5,1.4-11.8,2.4-18.9,3.1c-7.1,0.7-14.3,1.6-21.6,2.7c-7.3,1.1-14.6,2.7-21.8,4.6c-4.7,1.3-9,3-13.1,5c-2.1,1.1-4.2,2.3-6.2,3.7
		c-5.6,3.9-10.2,9.1-13.7,15.6c-0.7,1.3-1.3,2.6-1.9,4c0,0,0,0,0,0c-0.3,0.7-0.5,1.3-0.7,2c0,0.1-0.1,0.2-0.1,0.3
		c-0.2,0.6-0.4,1.3-0.6,1.9c0,0.1-0.1,0.2-0.1,0.3c-0.2,0.7-0.3,1.3-0.5,2c0,0.1,0,0.2-0.1,0.3c-0.3,1.5-0.6,3.1-0.8,4.7
		c-0.1,1-0.2,1.9-0.3,2.9c-0.2,2.1-0.3,4.2-0.3,6.4c0,9.2,1.5,17.1,4.6,23.7c3.1,6.6,7.4,12.1,12.9,16.5c5.5,4.3,11.9,7.5,19.2,9.6
		c6.6,1.8,13.6,2.9,21.1,3c0.8,0,1.6,0,2.4,0c2.1,0,4.1-0.1,6.2-0.2c0.7,0,1.4-0.1,2.1-0.1c2.1-0.2,4.2-0.4,6.4-0.6
		c6-0.8,12-2.1,17.8-3.9c10.5-3.2,19.6-8.7,27.3-16.7c0,0,0.1-0.1,0.1-0.1c0,0,0,0,0,0c0,0.1,0,0.1,0,0.2c3.5,9.8,12.9,16.9,23.9,17
		h0.4H409v-39.5v-3.7v-10.4v-8.9v-4.4v-20.6c-14.1,3.6-27.3,9.6-39.1,17.5c-0.2,0.2-0.5,0.3-0.7,0.5c-5.7,4-9.8,10.3-10.7,17.6
		c0.1-0.5,0.1-1,0.2-1.5c-0.8,3.1-2.1,6.1-3.8,9.2c-2.5,4.5-6.4,8.3-11.7,11.5c-3.3,2-7.5,3.4-12.6,4.1c-1.5,0.2-3,0.4-4.7,0.5
		c-1.7,0.1-3.4,0.2-5.2,0.2h-0.1c-0.8,0-1.7,0-2.5-0.1c-0.5,0-1.1,0-1.6-0.1c0,0-0.1,0-0.1,0c-0.4,0-0.8,0-1.1-0.1
		c-0.4,0-0.7-0.1-1.1-0.1c-0.6-0.1-1.2-0.2-1.9-0.2c-0.5-0.1-0.9-0.1-1.4-0.2c-0.5-0.1-0.9-0.1-1.4-0.2c-3.7-0.7-6.9-1.9-9.6-3.6
		c-2.7-1.7-4.9-4.1-6.5-7c-1.6-3-2.4-6.6-2.4-11c0-4.6,0.8-8.3,2.4-11.3l0,0C295.1,198.2,297.2,195.7,299.9,193.8z"/>
	<g>
		<path class="st22" d="M631.8,162.6V7.1h17.8v155.5H631.8z"/>
		<path class="st22" d="M801.3,90.4v72.2H784V95.1c0-20.7-12.4-32.9-33.1-32.9c-23.1,0.2-37.3,15.3-39.3,37.5v62.9h-17.3V45.5h17.3
			v25.8c8.2-17.8,24-26.2,45.3-26.4C784.9,44.9,801.3,62.2,801.3,90.4z"/>
		<path class="st22" d="M861.3,162.6L814.8,45.5h18.4l37.3,99.1l37.1-99.1h17.5l-46,117.1H861.3z"/>
		<path class="st22" d="M1048.8,104c0,35.1-24.7,59.3-59.3,59.3c-34.7,0-59.3-24.2-59.3-59.3c0-34.9,24.7-58.9,59.3-58.9
			C1024.1,45.1,1048.8,69.1,1048.8,104z M947.5,104.2c0,25.8,17.5,43.5,42,43.5c24.4,0,42-17.8,42-43.5c0-25.5-17.5-43.3-42-43.3
			C965,60.9,947.5,78.6,947.5,104.2z"/>
		<path class="st22" d="M1099,12c0,6.9-4.9,12-11.3,12c-6.4,0-11.3-5.1-11.3-12s4.9-12,11.3-12C1094.1,0,1099,5.1,1099,12z
			 M1079.2,162.6V45.5h17.1v117.1H1079.2z"/>
		<path class="st22" d="M1229.8,62.4l-9.6,12.2c-8.9-8.4-20.7-13.6-34.9-13.6c-24.2,0-41.5,17.5-41.5,43.1s17.3,43.3,41.5,43.3
			c15.3,0,28-5.3,36.2-15.1l10,10.7c-10.4,12.7-26.7,20.2-46.9,20.2c-34,0-58-24.2-58-59.1s24.2-59.1,58-59.1
			C1203.6,44.9,1219.1,51.3,1229.8,62.4z"/>
		<path class="st22" d="M1358.4,110.8h-95.5c3.1,22.9,19.8,37.3,42.4,37.3c14.4,0,27.1-5.1,36.2-14.7l9.6,10.2
			c-11.1,12.4-27.5,19.5-47.1,19.5c-34.4,0-58.2-24.2-58.2-59.1s24-59.1,58-59.1C1341.5,44.9,1360.2,71.1,1358.4,110.8z
			 M1342.9,96.6c-1.1-22.4-16.2-36.7-39.1-36.7c-22.2,0-38.2,14.4-40.9,36.7H1342.9z"/>
	</g>
</g>
</svg>
