<svg id="Layer_1" data-name="Layer 1" xmlns="http://www.w3.org/2000/svg" viewBox="0 0 878.74 226.77"><defs><style>.cls-1{fill:#3cf;}.cls-2{fill:#919d9d;}</style></defs><title>CanProviderLocal</title><path class="cls-1" d="M303.4,99.08v42.45A89.35,89.35,0,0,0,328,99.08Z"/><path class="cls-1" d="M410.49,109.74a33.31,33.31,0,0,0-13.78-10.3q-8.74-3.7-22.4-3.71a48.57,48.57,0,0,0-21.08,4.91,36.73,36.73,0,0,0-8.7,5.81A39.41,39.41,0,0,0,336,117.9a90,90,0,0,1-32.55,35.39V205a17.94,17.94,0,0,0,17.94,17.94h16.08V158q0-18.93,6.23-27.19t20.12-8.27q12.23,0,17,7.55T385.57,153v52.45a17.5,17.5,0,0,0,17.5,17.5h16.52V146.76a100.31,100.31,0,0,0-2-21A40,40,0,0,0,410.49,109.74Z"/><path class="cls-1" d="M111.12,184.76l-.08.09c-.56.6-1.15,1.18-1.74,1.73q-1.9,2-3.67,4-2,2.65-4.12,5.16a89.49,89.49,0,0,1-42.84,27.69,93.37,93.37,0,0,0,24.86,3.31h.56c.92,0,1.83,0,2.75-.05A83.07,83.07,0,0,0,113.07,222a67.09,67.09,0,0,0,23-13.89,69.41,69.41,0,0,0,15.81-22,85.06,85.06,0,0,0,7.05-25.51,89.22,89.22,0,0,0-47.81,24.22Z"/><path class="cls-1" d="M84.09,195.39q-12.7,0-21.56-4.91a41.09,41.09,0,0,1-14.38-13.06,56.46,56.46,0,0,1-8-18.33,86.84,86.84,0,0,1-2.52-21,93.49,93.49,0,0,1,2.52-21.8,60.84,60.84,0,0,1,3.75-11c.3-.67.62-1.33.94-2l.06-.11c.31-.61.62-1.21.95-1.81.1-.18.2-.36.31-.54.26-.46.51-.92.79-1.37.39-.65.8-1.3,1.22-1.93A40.76,40.76,0,0,1,62.53,84.35q8.85-4.91,21.56-4.91l1.17,0h0a39.31,39.31,0,0,1,23.5,8.6,37.79,37.79,0,0,1,8.39,9.47h0l.06.1a24.26,24.26,0,0,0,20.58,11.75h20.08A69,69,0,0,0,149.73,83a67.41,67.41,0,0,0-7.42-10.66,62.61,62.61,0,0,0-9-8.62A72.51,72.51,0,0,0,110.8,51.89a86.36,86.36,0,0,0-26.71-4.07q-19.65,0-35.34,6.94A79.77,79.77,0,0,0,34.38,63h0l-.73.55-.86.66c-.61.46-1.21.93-1.8,1.42l-.84.68c-.6.51-1.18,1-1.77,1.55l-.73.65c-.81.75-1.6,1.5-2.37,2.28l-.18.17c-.95,1-1.88,2-2.78,3-.74.84-1.45,1.7-2.15,2.57-.24.29-.49.59-.72.89h0A86.5,86.5,0,0,0,5.75,102.56,107,107,0,0,0,0,138.13,103.39,103.39,0,0,0,5.75,173a83.2,83.2,0,0,0,16.53,28.15A72.38,72.38,0,0,0,34.61,212a89,89,0,0,0,51-16.68C85.07,195.37,84.59,195.39,84.09,195.39Z"/><path class="cls-1" d="M171.65,174.61v0Z"/><path class="cls-1" d="M171.08,176.2l.06-.18Z"/><path class="cls-1" d="M170.22,179.38c0-.07,0-.13,0-.19S170.23,179.31,170.22,179.38Z"/><path class="cls-1" d="M170.61,177.77l.06-.23Z"/><path class="cls-1" d="M170.67,177.54c.13-.46.27-.9.41-1.34C170.94,176.64,170.8,177.08,170.67,177.54Z"/><path class="cls-1" d="M170.26,179.19c.11-.48.22-.95.35-1.42C170.48,178.24,170.37,178.71,170.26,179.19Z"/><path class="cls-1" d="M169.65,182.66h0c.14-1.13.33-2.22.56-3.27C170,180.43,169.8,181.52,169.65,182.66Z"/><path class="cls-1" d="M171.14,176q.24-.72.51-1.41Q171.38,175.3,171.14,176Z"/><path class="cls-1" d="M209.37,174.65a22.4,22.4,0,0,1,6.47-3.23,63.09,63.09,0,0,1,7.54-1.92q4.06-.7,8.15-1.19a149.87,149.87,0,0,0,15.93-3.43l.16,0c10.26-2.8,23-7.45,30.84-14.58a17.69,17.69,0,0,0,7.12-14.17V131a35.53,35.53,0,0,0-2-12.35,23.66,23.66,0,0,0-3.07-5.76,34.69,34.69,0,0,0-12.94-10.66A58.37,58.37,0,0,0,250.12,97c-3.19-.43-6.37-.76-9.52-1-.78,0-1.57-.11-2.36-.15-2.36-.12-4.7-.18-7-.18-1.68,0-3.37,0-5.06.12a105.24,105.24,0,0,0-15.34,1.91,58.32,58.32,0,0,0-18.32,6.83,40.71,40.71,0,0,0-13.41,12.7q-5.28,7.91-6,19.89h21.4a17.13,17.13,0,0,0,15.13-9.36,14.76,14.76,0,0,1,4.19-5q5-3.76,13.37-4.23c.76-.06,1.54-.08,2.35-.08,1.52,0,3,.05,4.4.15s2.85.25,4.2.44a19.27,19.27,0,0,1,6.95,2.4,13.21,13.21,0,0,1,4.79,5,10.77,10.77,0,0,1,.78,1.75,21.1,21.1,0,0,1,1,7c.16,3.52-.88,6.18-3.11,8a22.89,22.89,0,0,1-9.11,4.19,90.47,90.47,0,0,1-13.17,2.16q-7.42.72-15.1,1.91a142.76,142.76,0,0,0-15.2,3.24,45.67,45.67,0,0,0-9.13,3.53,39.46,39.46,0,0,0-4.3,2.58,31.17,31.17,0,0,0-9.58,10.9,25.65,25.65,0,0,0-1.29,2.8v0q-.27.69-.51,1.41l-.06.18c-.14.44-.28.88-.41,1.34l-.06.23c-.13.47-.24.94-.35,1.42,0,.06,0,.12,0,.19-.23,1.05-.42,2.14-.56,3.27-.09.67-.17,1.35-.22,2-.13,1.43-.19,2.92-.19,4.47a38.81,38.81,0,0,0,3.23,16.53,31.27,31.27,0,0,0,9,11.5,37.68,37.68,0,0,0,13.41,6.71A60.32,60.32,0,0,0,209.62,226l1.69,0c1.45,0,2.88,0,4.3-.11l1.43-.1q2.24-.17,4.44-.45a77.53,77.53,0,0,0,12.44-2.69A44.3,44.3,0,0,0,253,211l.06-.06,0,0s0,.09,0,.14a17.9,17.9,0,0,0,16.7,11.84h15.77V162a88.86,88.86,0,0,0-27.27,12.21l-.51.34a17.9,17.9,0,0,0-7.5,12.28c0-.35.09-.7.15-1a27,27,0,0,1-2.63,6.4,22.4,22.4,0,0,1-8.15,8,23.1,23.1,0,0,1-8.77,2.89c-1,.15-2.13.27-3.28.35s-2.35.11-3.61.11h-.07c-.58,0-1.17,0-1.75,0l-1.11-.06a.14.14,0,0,1-.09,0c-.27,0-.53,0-.79-.06s-.51,0-.76-.06l-1.31-.17c-.32,0-.64-.08-1-.15l-1-.16a19.25,19.25,0,0,1-6.7-2.51,12.91,12.91,0,0,1-4.56-4.93,15.92,15.92,0,0,1-1.67-7.66,16.62,16.62,0,0,1,1.67-7.91h0A15.53,15.53,0,0,1,209.37,174.65Z"/><path class="cls-1" d="M410.49,109.32A33.31,33.31,0,0,0,396.71,99Q388,95.3,374.31,95.3a48.57,48.57,0,0,0-21.08,4.91,37,37,0,0,0-8.7,5.81A39.41,39.41,0,0,0,336,117.47a90,90,0,0,1-32.55,35.39v51.71a17.94,17.94,0,0,0,17.94,17.94h16.08V157.59q0-18.93,6.23-27.19t20.12-8.27q12.23,0,17,7.55t4.79,22.88V205a17.5,17.5,0,0,0,17.5,17.49h16.52V146.33a100.31,100.31,0,0,0-2-21A39.93,39.93,0,0,0,410.49,109.32Z"/><path class="cls-1" d="M111.12,184.33l-.08.09c-.56.61-1.15,1.18-1.74,1.73q-1.9,2-3.67,4c-1.31,1.77-2.68,3.5-4.12,5.17A89.57,89.57,0,0,1,58.67,223a93.38,93.38,0,0,0,24.86,3.3h.56c.92,0,1.83,0,2.75-.05a82.51,82.51,0,0,0,26.23-4.74,67.09,67.09,0,0,0,23-13.89,69.41,69.41,0,0,0,15.81-22,85,85,0,0,0,7.05-25.51,89.48,89.48,0,0,0-47.81,24.22Z"/><path class="cls-1" d="M84.09,195q-12.7,0-21.56-4.91A41,41,0,0,1,48.15,177a56.41,56.41,0,0,1-8-18.32,87,87,0,0,1-2.52-21,93.37,93.37,0,0,1,2.52-21.8,60.58,60.58,0,0,1,3.75-11c.3-.68.62-1.34.94-2l.06-.11c.31-.61.62-1.22.95-1.81.1-.19.2-.36.31-.55.26-.46.51-.92.79-1.37.39-.65.8-1.3,1.22-1.93A40.76,40.76,0,0,1,62.53,83.92Q71.38,79,84.09,79c.39,0,.78,0,1.17,0h0a39.14,39.14,0,0,1,23.5,8.6,37.75,37.75,0,0,1,8.39,9.46h0l.06.11A24.26,24.26,0,0,0,137.79,109h20.08a69,69,0,0,0-8.14-26.35,67,67,0,0,0-7.42-10.67,63.16,63.16,0,0,0-9-8.62A72.51,72.51,0,0,0,110.8,51.46a86.36,86.36,0,0,0-26.71-4.07q-19.65,0-35.34,7a79.18,79.18,0,0,0-14.37,8.23h0c-.25.17-.48.36-.73.54l-.86.66c-.61.46-1.21.94-1.8,1.42l-.84.69c-.6.5-1.18,1-1.77,1.54-.24.22-.49.43-.73.66-.81.74-1.6,1.49-2.37,2.27l-.18.17c-.95,1-1.88,2-2.78,3-.74.84-1.45,1.7-2.15,2.57-.24.3-.49.59-.72.89h0A86.63,86.63,0,0,0,5.75,102.13,107,107,0,0,0,0,137.71a103.37,103.37,0,0,0,5.75,34.85,83.11,83.11,0,0,0,16.53,28.15,72.87,72.87,0,0,0,12.33,10.91,89.13,89.13,0,0,0,51-16.69C85.07,195,84.59,195,84.09,195Z"/><path class="cls-1" d="M171.65,174.19v0Z"/><path class="cls-1" d="M171.08,175.77l.06-.18Z"/><path class="cls-1" d="M170.22,179c0-.06,0-.12,0-.18S170.23,178.89,170.22,179Z"/><path class="cls-1" d="M170.61,177.35l.06-.24Z"/><path class="cls-1" d="M170.67,177.11c.13-.45.27-.9.41-1.34C170.94,176.21,170.8,176.66,170.67,177.11Z"/><path class="cls-1" d="M170.26,178.77c.11-.49.22-1,.35-1.42C170.48,177.81,170.37,178.28,170.26,178.77Z"/><path class="cls-1" d="M169.65,182.23h0c.14-1.14.33-2.23.56-3.28C170,180,169.8,181.1,169.65,182.23Z"/><path class="cls-1" d="M171.14,175.59c.16-.48.33-1,.51-1.4C171.47,174.64,171.3,175.11,171.14,175.59Z"/><path class="cls-1" d="M209.37,174.23a22.4,22.4,0,0,1,6.47-3.23,59.5,59.5,0,0,1,7.54-1.92q4.06-.72,8.15-1.2a146.89,146.89,0,0,0,15.93-3.43l.16,0c10.26-2.79,23-7.45,30.84-14.57a17.72,17.72,0,0,0,7.12-14.18v-5.14a35.47,35.47,0,0,0-2-12.34,23.3,23.3,0,0,0-3.07-5.76,34.5,34.5,0,0,0-12.94-10.66,57.8,57.8,0,0,0-17.49-5.15c-3.19-.44-6.37-.77-9.52-1l-2.36-.14c-2.36-.13-4.7-.19-7-.19-1.68,0-3.37,0-5.06.12a106.64,106.64,0,0,0-15.34,1.91,58.57,58.57,0,0,0-18.32,6.83,40.81,40.81,0,0,0-13.41,12.7q-5.28,7.91-6,19.89h21.4a17.12,17.12,0,0,0,15.13-9.35,14.8,14.8,0,0,1,4.19-5q5-3.77,13.37-4.23c.76,0,1.54-.07,2.35-.07,1.52,0,3,.05,4.4.14s2.85.25,4.2.45a18.9,18.9,0,0,1,6.95,2.4,13.11,13.11,0,0,1,4.79,5,11.17,11.17,0,0,1,.78,1.75,21.14,21.14,0,0,1,1,7q.24,5.28-3.11,8a23,23,0,0,1-9.11,4.2,93.27,93.27,0,0,1-13.17,2.16c-4.95.47-10,1.12-15.1,1.91a142.76,142.76,0,0,0-15.2,3.24,45.06,45.06,0,0,0-9.13,3.52,41.11,41.11,0,0,0-4.3,2.58,31.17,31.17,0,0,0-9.58,10.9,26.72,26.72,0,0,0-1.29,2.81v0c-.18.45-.35.92-.51,1.4l-.06.18c-.14.44-.28.89-.41,1.34l-.06.24c-.13.46-.24.93-.35,1.42,0,.06,0,.12,0,.18-.23,1.05-.42,2.14-.56,3.28-.09.66-.17,1.34-.22,2-.13,1.43-.19,2.91-.19,4.46a38.86,38.86,0,0,0,3.23,16.54,31.27,31.27,0,0,0,9,11.5,37.83,37.83,0,0,0,13.41,6.7,59.84,59.84,0,0,0,14.74,2.13l1.69,0c1.45,0,2.88,0,4.3-.11l1.43-.1c1.49-.1,3-.26,4.44-.45a77.53,77.53,0,0,0,12.44-2.69A44.21,44.21,0,0,0,253,210.61l.06-.05,0,0c0,.05,0,.1,0,.14a17.9,17.9,0,0,0,16.7,11.84h15.77v-61a89.1,89.1,0,0,0-27.27,12.21l-.51.35a17.88,17.88,0,0,0-7.5,12.27c0-.35.09-.7.15-1a26.79,26.79,0,0,1-2.63,6.4,22.4,22.4,0,0,1-8.15,8,22.93,22.93,0,0,1-8.77,2.89c-1,.16-2.13.28-3.28.35s-2.35.12-3.61.12h-.07c-.58,0-1.17,0-1.75,0l-1.11-.07a.14.14,0,0,1-.09,0l-.79-.05-.76-.07-1.31-.17c-.32,0-.64-.08-1-.14l-1-.17a19.25,19.25,0,0,1-6.7-2.51,13,13,0,0,1-4.56-4.92,16,16,0,0,1-1.67-7.66,16.56,16.56,0,0,1,1.67-7.91v0A15.5,15.5,0,0,1,209.37,174.23Z"/><path class="cls-2" d="M437.66,46.08H442V83.63h23.14v3.78H437.66Z"/><path class="cls-2" d="M467.35,71.88c0-9.21,6.74-15.76,15.83-15.76s15.76,6.55,15.76,15.76S492.27,87.7,483.18,87.7,467.35,81.09,467.35,71.88Zm27.34,0c0-7.26-4.9-12.1-11.51-12.1s-11.57,4.84-11.57,12.1S476.56,84,483.18,84,494.69,79.14,494.69,71.88Z"/><path class="cls-2" d="M503.78,71.88c0-9.26,6.73-15.76,16-15.76,5.26,0,9.69,2.07,12.17,6.14l-3.13,2.13a10.57,10.57,0,0,0-9-4.61C513,59.78,508,64.62,508,71.88S513,84,519.77,84a10.51,10.51,0,0,0,9-4.55l3.13,2.13c-2.48,4-6.91,6.13-12.17,6.13C510.51,87.7,503.78,81.15,503.78,71.88Z"/><path class="cls-2" d="M563,68.16V87.41h-4V82.57c-1.89,3.19-5.55,5.13-10.69,5.13-7,0-11.33-3.66-11.33-9,0-4.78,3.07-8.79,12-8.79h9.86V68c0-5.32-3-8.21-8.79-8.21a15.81,15.81,0,0,0-10.33,3.66l-1.89-3.13a19.75,19.75,0,0,1,12.63-4.19C558.44,56.12,563,60.14,563,68.16Zm-4.19,9.92V73h-9.74c-6,0-8,2.36-8,5.54,0,3.61,2.9,5.85,7.85,5.85C553.66,84.4,557.14,82.16,558.79,78.08Z"/><path class="cls-2" d="M573.79,43.61H578v43.8h-4.19Z"/><path class="cls-2" d="M487.09,121.35c0,13.44-9.74,21.56-25.8,21.56h-17v19.93h-6.68V99.71h23.63C477.35,99.71,487.09,107.82,487.09,121.35Zm-6.68,0c0-10.1-6.67-15.87-19.3-15.87H444.34V137h16.77C473.74,137,480.41,131.27,480.41,121.35Z"/><path class="cls-2" d="M522,115v6.22c-.55,0-1.09-.09-1.54-.09-9.92,0-16,6.31-16,17.5v24.17h-6.4V115.4h6.13v9.29C507.2,118.38,513.24,115,522,115Z"/><path class="cls-2" d="M527.4,139.12c0-14.07,10.28-24.08,24.17-24.08s24.08,10,24.08,24.08-10.2,24.17-24.08,24.17S527.4,153.19,527.4,139.12Zm41.75,0c0-11.09-7.48-18.49-17.58-18.49s-17.68,7.4-17.68,18.49,7.58,18.49,17.68,18.49S569.15,150.21,569.15,139.12Z"/><path class="cls-2" d="M626.33,115.4l-21.1,47.44h-6.59l-21-47.44h6.67l17.77,40.4L620,115.4Z"/><path class="cls-2" d="M633,100.43a4.62,4.62,0,0,1,4.69-4.51,4.54,4.54,0,0,1,4.69,4.42,4.69,4.69,0,0,1-9.38.09Zm1.44,15h6.41v47.44h-6.41Z"/><path class="cls-2" d="M701.09,95.92v66.92H695v-9.38c-3.88,6.4-10.46,9.83-18.31,9.83-13.53,0-23.63-9.83-23.63-24.17S663.12,115,676.65,115c7.58,0,14.07,3.25,18,9.38V95.92Zm-6.31,43.2c0-11.09-7.58-18.49-17.59-18.49s-17.67,7.4-17.67,18.49,7.57,18.49,17.67,18.49S694.78,150.21,694.78,139.12Z"/><path class="cls-2" d="M759.35,141.1H719.67c.72,9.92,8.3,16.51,18.67,16.51a18.71,18.71,0,0,0,14.52-6.23l3.61,4.15c-4.24,5.05-10.83,7.76-18.31,7.76-14.79,0-24.89-10.1-24.89-24.17S723.1,115,736.44,115s23,9.83,23,24.08C759.44,139.66,759.35,140.38,759.35,141.1Zm-39.68-4.78h33.64c-.81-9.29-7.58-15.78-16.87-15.78S720.48,127,719.67,136.32Z"/><path class="cls-2" d="M795.51,115v6.22c-.54,0-1.08-.09-1.53-.09-9.92,0-16,6.31-16,17.5v24.17h-6.41V115.4h6.14v9.29C780.72,118.38,786.77,115,795.51,115Z"/></svg>