<?xml version="1.0" encoding="utf-8"?>
<!-- Generator: Adobe Illustrator 22.0.1, SVG Export Plug-In . SVG Version: 6.00 Build 0)  -->
<svg version="1.1" id="Layer_1" xmlns="http://www.w3.org/2000/svg" xmlns:xlink="http://www.w3.org/1999/xlink" x="0px" y="0px"
	 viewBox="0 0 1196.9 272.5" style="enable-background:new 0 0 1196.9 272.5;" xml:space="preserve">
<style type="text/css">
	.st0{fill:url(#SVGID_1_);}
	.st1{fill:#33CCFF;}
	.st2{fill:url(#SVGID_2_);}
	.st3{fill:url(#SVGID_3_);}
	.st4{fill:url(#SVGID_4_);}
	.st5{fill:url(#SVGID_5_);}
	.st6{fill:url(#SVGID_6_);}
	.st7{fill:url(#SVGID_7_);}
	.st8{fill:#FFFFFF;}
	.st9{fill:#0099CC;}
	.st10{fill:#33CAFF;}
	.st11{opacity:5.000000e-02;fill:#F8F9F9;}
	.st12{fill:#00FFCA;}
	.st13{fill:#F5F5F5;}
	.st14{fill:#F2F2F2;}
	.st15{opacity:0.9;fill:#00FFFF;}
	.st16{fill:#15EBD6;}
	.st17{fill:#FFDB15;}
	.st18{fill:#FF99FF;}
	.st19{fill:#3366FF;}
	.st20{fill:#D1D1D1;}
	.st21{opacity:0.3;fill:#15EBD6;}
	.st22{fill:#919D9D;}
	.st23{fill:#FF6666;}
	.st24{opacity:0.1;fill:#33CCFF;}
	.st25{opacity:0.2;fill:#33CCFF;}
	.st26{opacity:5.000000e-02;fill:#33CCFF;}
	.st27{opacity:0.95;fill:#33CCFF;}
	.st28{opacity:0.9;fill:#33CCFF;}
	.st29{opacity:0.7;fill:#33CCFF;}
	.st30{opacity:0.6;fill:#33CCFF;}
	.st31{opacity:0.8;fill:#33CCFF;}
	.st32{opacity:0.3;fill:#33CCFF;}
	.st33{opacity:0.5;fill:#33CCFF;}
	.st34{opacity:0.4;fill:#33CCFF;}
	.st35{fill:url(#SVGID_8_);}
	.st36{fill:url(#SVGID_9_);}
	.st37{fill:url(#SVGID_10_);}
	.st38{fill:url(#SVGID_11_);}
	.st39{fill:url(#SVGID_12_);}
	.st40{fill:url(#SVGID_13_);}
	.st41{fill:url(#SVGID_14_);}
	.st42{fill:url(#SVGID_15_);}
	.st43{fill:#485F64;}
	.st44{fill:#9C9C9C;}
	.st45{fill:#221F1F;}
	.st46{fill:#06BC65;}
	.st47{fill:#1E1E1E;}
	.st48{fill:#FFFF5A;}
	.st49{fill:#F05A2A;}
	.st50{fill:#D661AA;}
	.st51{fill:#F7EA2F;}
	.st52{fill:#26A7DF;}
	.st53{fill:#EFE92B;}
	.st54{fill:#F9A0DC;}
	.st55{fill:#FF3951;}
	.st56{fill:#4EDCCA;}
	.st57{fill:#FFC600;}
	.st58{clip-path:url(#SVGID_17_);}
	.st59{clip-path:url(#SVGID_19_);}
	.st60{fill:#0078BF;}
	.st61{clip-path:url(#SVGID_21_);}
	.st62{clip-path:url(#SVGID_23_);}
	.st63{fill:#F9A4D8;}
	.st64{clip-path:url(#SVGID_25_);}
	.st65{clip-path:url(#SVGID_27_);}
	.st66{fill:url(#SVGID_28_);}
	.st67{fill:url(#SVGID_29_);}
	.st68{clip-path:url(#SVGID_31_);}
	.st69{clip-path:url(#SVGID_33_);}
	.st70{clip-path:url(#SVGID_35_);}
	.st71{clip-path:url(#SVGID_37_);}
	.st72{clip-path:url(#SVGID_39_);}
	.st73{clip-path:url(#SVGID_41_);}
	.st74{fill:url(#SVGID_42_);}
	.st75{fill:url(#SVGID_43_);}
	.st76{fill:url(#SVGID_44_);}
	.st77{fill:url(#SVGID_45_);}
	.st78{fill:url(#SVGID_46_);}
	.st79{fill:url(#SVGID_47_);}
	.st80{fill:url(#SVGID_48_);}
	.st81{fill:url(#SVGID_49_);}
</style>
<g>
	<g>
		<path class="st1" d="M587.9,104.8c-4.8-6.3-11.4-11.2-19.7-14.8c-8.4-3.5-19-5.3-32.1-5.3c-10.3,0-20.4,2.3-30.2,7
			c-4.5,2.2-8.7,4.9-12.5,8.3c-5.1,4.6-9.2,10.3-12.3,16.4c-10.6,20.8-26.8,38.4-46.6,50.7v74.1c0,14.2,11.5,25.7,25.7,25.7h23v-93
			c0-18.1,3-31.1,8.9-38.9c5.9-7.9,15.6-11.8,28.8-11.8c11.7,0,19.8,3.6,24.4,10.8c4.6,7.2,6.9,18.1,6.9,32.8v75.1
			c0,13.8,11.2,25.1,25.1,25.1h23.7V157.9c0-11-1-21-2.9-30C596.1,118.8,592.7,111.1,587.9,104.8z"/>
		<path class="st1" d="M434.5,89.6v60.8c16.9-16.3,29.3-37.3,35.2-60.8H434.5z"/>
		<path class="st1" d="M159.1,212.3c0,0-0.1,0.1-0.1,0.1c-0.8,0.9-1.6,1.7-2.5,2.5c-1.8,1.9-3.6,3.8-5.3,5.8c-1.9,2.5-3.8,5-5.9,7.4
			c-16,18.6-37.2,32.6-61.4,39.7c11,3.1,22.9,4.7,35.6,4.7c0.3,0,0.5,0,0.8,0c1.3,0,2.6,0,3.9-0.1c13.6-0.4,26.1-2.6,37.6-6.8
			c12.6-4.6,23.6-11.2,32.9-19.9c9.4-8.7,16.9-19.2,22.6-31.6c5.1-11,8.4-23.2,10.1-36.5c-21,3.5-40.3,12-56.5,24.4
			C166.9,205.2,162.9,208.6,159.1,212.3z"/>
		<path class="st1" d="M120.4,227.5c-12.1,0-22.4-2.3-30.9-7c-8.5-4.7-15.3-10.9-20.6-18.7c-5.3-7.8-9.1-16.5-11.5-26.2
			c-2.4-9.7-3.6-19.7-3.6-30c0-10.7,1.2-21.2,3.6-31.2c1.3-5.6,3.1-10.9,5.4-15.8c0.4-1,0.9-1.9,1.4-2.8c0-0.1,0.1-0.1,0.1-0.2
			c0.4-0.9,0.9-1.7,1.4-2.6c0.1-0.3,0.3-0.5,0.4-0.8c0.4-0.7,0.7-1.3,1.1-2c0.6-0.9,1.1-1.9,1.8-2.8c5.3-7.9,12.1-14.2,20.6-18.9
			c8.5-4.7,18.8-7,30.9-7c0.6,0,1.1,0,1.7,0v0c6,0.2,11.8,1.2,17.4,3.2c6.1,2.2,11.5,5.2,16.3,9.1c4.8,3.9,8.8,8.4,12,13.6
			c0,0,0,0,0,0c0,0.1,0.1,0.1,0.1,0.2c6.4,10.3,17.4,16.8,29.5,16.8h28.8c-1.6-14.2-5.5-26.8-11.7-37.7c-3.1-5.5-6.7-10.6-10.6-15.3
			c-3.9-4.5-8.2-8.7-12.9-12.3c-9.5-7.4-20.2-13.1-32.3-17c-12-3.9-24.8-5.8-38.3-5.8c-18.8,0-35.6,3.3-50.6,9.9
			c-7.5,3.3-14.3,7.2-20.6,11.8c0,0,0,0-0.1,0c-0.4,0.3-0.7,0.5-1,0.8c-0.4,0.3-0.8,0.6-1.2,0.9c-0.9,0.7-1.7,1.3-2.6,2
			c-0.4,0.3-0.8,0.7-1.2,1c-0.9,0.7-1.7,1.5-2.5,2.2c-0.3,0.3-0.7,0.6-1.1,0.9c-1.2,1.1-2.3,2.1-3.4,3.3c-0.1,0.1-0.2,0.2-0.3,0.2
			c-1.4,1.4-2.7,2.8-4,4.3c-1.1,1.2-2.1,2.4-3.1,3.7c-0.3,0.4-0.7,0.8-1,1.3c0,0,0,0,0,0v0C19.5,69,13,81.1,8.2,94.6
			c-5.5,15.7-8.2,32.7-8.2,51c0,17.8,2.7,34.5,8.2,49.9c5.5,15.4,13.4,28.9,23.7,40.3c5.3,5.9,11.2,11.1,17.7,15.6
			c27.2-0.3,52.4-9.1,73-23.9C121.8,227.5,121.1,227.5,120.4,227.5z"/>
		<path class="st1" d="M245.8,197.7C245.8,197.7,245.8,197.7,245.8,197.7C245.8,197.7,245.8,197.7,245.8,197.7z"/>
		<path class="st1" d="M245,200c0-0.1,0.1-0.2,0.1-0.3C245.1,199.8,245,199.9,245,200z"/>
		<path class="st1" d="M243.8,204.6c0-0.1,0-0.2,0.1-0.3C243.8,204.4,243.8,204.5,243.8,204.6z"/>
		<path class="st1" d="M244.3,202.3c0-0.1,0.1-0.2,0.1-0.3C244.4,202.1,244.4,202.2,244.3,202.3z"/>
		<path class="st1" d="M244.4,201.9c0.2-0.7,0.4-1.3,0.6-1.9C244.8,200.6,244.6,201.3,244.4,201.9z"/>
		<path class="st1" d="M243.8,204.3c0.2-0.7,0.3-1.4,0.5-2C244.2,202.9,244,203.6,243.8,204.3z"/>
		<path class="st1" d="M243,209.3C243,209.3,243,209.3,243,209.3c0.2-1.6,0.5-3.2,0.8-4.7C243.5,206.1,243.2,207.6,243,209.3z"/>
		<path class="st1" d="M245.1,199.8c0.2-0.7,0.5-1.4,0.7-2C245.6,198.4,245.3,199.1,245.1,199.8z"/>
		<path class="st1" d="M299.9,197.8c2.6-1.9,5.7-3.5,9.3-4.6c3.5-1.1,7.2-2.1,10.8-2.8c3.9-0.7,7.8-1.2,11.7-1.7
			c0,0,10-1.4,22.8-4.9c0.1,0,0.1,0,0.2-0.1c14.7-4,33-10.7,44.2-20.9c6.4-4.8,10.2-12.3,10.2-20.3v-7.4c0-6.7-0.9-12.6-2.8-17.7
			c-1.1-3-2.6-5.8-4.4-8.2c-4.8-6.5-11-11.6-18.5-15.3c-7.5-3.7-15.9-6.1-25-7.4c-4.6-0.6-9.1-1.1-13.6-1.4
			c-1.1-0.1-2.3-0.1-3.4-0.2c-3.4-0.2-6.7-0.3-10.1-0.3c-2.4,0-4.8,0.1-7.2,0.2c-7.4,0.4-14.7,1.3-22,2.7
			c-9.7,1.9-18.5,5.2-26.2,9.8c-7.8,4.6-14.2,10.6-19.2,18.2c-5,7.6-7.9,17-8.6,28.5h0c0,0,0,0,0,0h30.6c9.2,0,17.4-5.3,21.7-13.4
			c1.5-2.9,3.5-5.3,6-7.2c4.8-3.6,11.2-5.6,19.1-6.1c1.1-0.1,2.2-0.1,3.4-0.1c2.2,0,4.3,0.1,6.3,0.2c2.1,0.1,4.1,0.4,6,0.6
			c3.8,0.6,7.1,1.7,10,3.4c2.9,1.7,5.1,4.1,6.9,7.2c0.4,0.8,0.8,1.6,1.1,2.5c1,2.7,1.4,6.1,1.4,10c0.2,5-1.3,8.9-4.5,11.5
			c-3.2,2.6-7.6,4.6-13,6c-5.5,1.4-11.8,2.4-18.9,3.1c-7.1,0.7-14.3,1.6-21.6,2.7c-7.3,1.1-14.6,2.7-21.8,4.6c-4.7,1.3-9,3-13.1,5
			c-2.1,1.1-4.2,2.3-6.2,3.7c-5.6,3.9-10.2,9.1-13.7,15.6c-0.7,1.3-1.3,2.6-1.9,4c0,0,0,0,0,0c-0.3,0.7-0.5,1.3-0.7,2
			c0,0.1-0.1,0.2-0.1,0.3c-0.2,0.6-0.4,1.3-0.6,1.9c0,0.1-0.1,0.2-0.1,0.3c-0.2,0.7-0.3,1.3-0.5,2c0,0.1,0,0.2-0.1,0.3
			c-0.3,1.5-0.6,3.1-0.8,4.7c-0.1,1-0.2,1.9-0.3,2.9c-0.2,2.1-0.3,4.2-0.3,6.4c0,9.2,1.5,17.1,4.6,23.7c3.1,6.6,7.4,12.1,12.9,16.5
			c5.5,4.3,11.9,7.5,19.2,9.6c6.6,1.8,13.6,2.9,21.1,3c0.8,0,1.6,0,2.4,0c2.1,0,4.1-0.1,6.2-0.2c0.7,0,1.4-0.1,2.1-0.1
			c2.1-0.2,4.2-0.4,6.4-0.6c6-0.8,12-2.1,17.8-3.9c10.5-3.2,19.6-8.7,27.3-16.7c0,0,0.1-0.1,0.1-0.1c0,0,0,0,0,0c0,0.1,0,0.1,0,0.2
			c3.5,9.8,12.9,16.9,23.9,17h0.4H409v-39.5v-3.7v-10.4v-8.9v-4.4v-20.6c-14.1,3.6-27.3,9.6-39.1,17.5c-0.2,0.2-0.5,0.3-0.7,0.5
			c-5.7,4-9.8,10.3-10.7,17.6c0.1-0.5,0.1-1,0.2-1.5c-0.8,3.1-2.1,6.1-3.8,9.2c-2.5,4.5-6.4,8.3-11.7,11.5c-3.3,2-7.5,3.4-12.6,4.1
			c-1.5,0.2-3,0.4-4.7,0.5c-1.7,0.1-3.4,0.2-5.2,0.2h-0.1c-0.8,0-1.7,0-2.5-0.1c-0.5,0-1.1,0-1.6-0.1c0,0-0.1,0-0.1,0
			c-0.4,0-0.8,0-1.1-0.1c-0.4,0-0.7-0.1-1.1-0.1c-0.6-0.1-1.2-0.2-1.9-0.2c-0.5-0.1-0.9-0.1-1.4-0.2c-0.5-0.1-0.9-0.1-1.4-0.2
			c-3.7-0.7-6.9-1.9-9.6-3.6c-2.7-1.7-4.9-4.1-6.5-7c-1.6-3-2.4-6.6-2.4-11c0-4.6,0.8-8.3,2.4-11.3l0,0
			C295.1,202.2,297.2,199.8,299.9,197.8z"/>
		<path class="st1" d="M913.1,73.3c0,0.2-0.1,0.4-0.1,0.5C913,73.7,913.1,73.5,913.1,73.3z"/>
		<path class="st1" d="M913.4,69.1c0,1.4-0.1,2.8-0.4,4.2C913.3,71.9,913.5,70.5,913.4,69.1z"/>
		<path class="st1" d="M913,73.8c0,0.1,0,0.1,0,0.2C913,74,913,73.9,913,73.8z"/>
	</g>
	<g>
		<path class="st22" d="M686.7,10.2c38.4,0,60.6,19.1,60.6,52.2c0,34.4-22.2,54.2-60.6,54.2h-40.6v49.1h-17.8V10.2H686.7z
			 M646.1,99.5h40c28,0,44.2-12.4,44.2-36.6c0-23.5-16.2-35.5-44.2-35.5h-40V99.5z"/>
		<path class="st22" d="M791.7,74.6c7.8-17.1,22.2-26.4,42-26.6v17.5c-24.6-0.4-40,14.9-42,38v62.2h-17.3v-117h17.3V74.6z"/>
		<path class="st22" d="M963.8,107c0,35.1-24.6,59.3-59.3,59.3c-34.6,0-59.3-24.2-59.3-59.3c0-34.9,24.6-58.8,59.3-58.8
			C939.1,48.2,963.8,72.1,963.8,107z M862.5,107.2c0,25.8,17.5,43.5,42,43.5c24.4,0,42-17.8,42-43.5c0-25.5-17.5-43.3-42-43.3
			C880.1,63.9,862.5,81.7,862.5,107.2z"/>
		<path class="st22" d="M1101,107c0,35.1-24.6,59.3-59.3,59.3c-34.6,0-59.3-24.2-59.3-59.3c0-34.9,24.6-58.8,59.3-58.8
			C1076.3,48.2,1101,72.1,1101,107z M999.7,107.2c0,25.8,17.5,43.5,42,43.5c24.4,0,42-17.8,42-43.5c0-25.5-17.5-43.3-42-43.3
			C1017.3,63.9,999.7,81.7,999.7,107.2z"/>
		<path class="st22" d="M1151.3,37.1v15.1h33.5v14.2h-33.5v99.2h-17.1V66.4h-15.1V52.2h15.1V39.3c0-25.5,18-39.3,37.5-39.3
			c8.9,0.2,18,2.9,25.1,8.2l-7.1,14c-5.3-3.8-11.8-6-17.8-6C1160.7,16.2,1151.3,23.5,1151.3,37.1z"/>
	</g>
</g>
</svg>
