<svg id="Layer_1" data-name="Layer 1" xmlns="http://www.w3.org/2000/svg" viewBox="0 0 1310.21 256.3"><defs><style>.cls-1{fill:#3cf;}.cls-2{fill:#919d9d;}</style></defs><title>CanYa_Small_CanQueue_1</title><path class="cls-1" d="M670.25,106.66c0,.18,0,.35-.08.53C670.2,107,670.22,106.84,670.25,106.66Z"/><path class="cls-1" d="M670.61,102.46a25.51,25.51,0,0,1-.36,4.2A23.19,23.19,0,0,0,670.61,102.46Z"/><path class="cls-1" d="M670.17,107.19c0,.06,0,.12,0,.18A1.16,1.16,0,0,1,670.17,107.19Z"/><path class="cls-1" d="M587.91,88.69q-7.21-9.43-19.73-14.75T536.1,68.62a69.6,69.6,0,0,0-30.2,7A52.29,52.29,0,0,0,493.45,84a56.1,56.1,0,0,0-12.3,16.4,128.85,128.85,0,0,1-46.61,50.69v74.06a25.69,25.69,0,0,0,25.69,25.69h23v-93q0-27.11,8.92-38.94T521,107.05q17.5,0,24.36,10.81t6.86,32.76v75.13a25.06,25.06,0,0,0,25.06,25.06h23.66V141.7a143.29,143.29,0,0,0-2.91-30A57.32,57.32,0,0,0,587.91,88.69Z"/><path class="cls-1" d="M434.54,73.42v60.8a128.12,128.12,0,0,0,35.17-60.8Z"/><path class="cls-1" d="M159.14,196.13l-.11.13c-.8.87-1.64,1.68-2.49,2.48-1.81,1.87-3.57,3.79-5.26,5.76q-2.82,3.81-5.89,7.4A128.22,128.22,0,0,1,84,251.56a133.45,133.45,0,0,0,35.61,4.73h.8c1.33,0,2.63,0,3.94-.08A118.65,118.65,0,0,0,162,249.44a96.45,96.45,0,0,0,32.93-19.9A99.46,99.46,0,0,0,217.53,198a121.74,121.74,0,0,0,10.09-36.53,127.95,127.95,0,0,0-68.48,34.69Z"/><path class="cls-1" d="M120.43,211.35q-18.2,0-30.88-7A58.93,58.93,0,0,1,69,185.62a81,81,0,0,1-11.49-26.25,124.79,124.79,0,0,1-3.6-30,134.16,134.16,0,0,1,3.6-31.22A87.94,87.94,0,0,1,62.84,82.3c.44-1,.89-1.91,1.36-2.85a1.09,1.09,0,0,1,.08-.15c.44-.88.89-1.74,1.35-2.6l.45-.77c.37-.66.74-1.32,1.13-2,.57-.93,1.15-1.86,1.75-2.77A58.35,58.35,0,0,1,89.55,52.32q12.69-7,30.88-7l1.68,0h0a56.17,56.17,0,0,1,33.66,12.32,54.5,54.5,0,0,1,12,13.55h0l.09.15a34.75,34.75,0,0,0,29.48,16.83h28.76q-2.42-21.27-11.67-37.74a95.08,95.08,0,0,0-10.63-15.28,88.87,88.87,0,0,0-12.87-12.34,103.86,103.86,0,0,0-32.25-17A123.74,123.74,0,0,0,120.43,0Q92.29,0,69.82,10A112.83,112.83,0,0,0,49.24,21.74h-.06c-.35.25-.69.52-1,.78l-1.24.94c-.87.66-1.73,1.34-2.57,2l-1.2,1c-.86.73-1.7,1.47-2.54,2.22l-1.05.94c-1.15,1.06-2.29,2.14-3.4,3.26l-.25.24c-1.36,1.38-2.69,2.81-4,4.27-1.06,1.2-2.08,2.43-3.08,3.67-.35.43-.7.85-1,1.28h0a124.12,124.12,0,0,0-19.56,36A153.06,153.06,0,0,0,0,129.35a148,148,0,0,0,8.23,49.92,119.35,119.35,0,0,0,23.68,40.32,104.8,104.8,0,0,0,17.66,15.62,127.63,127.63,0,0,0,73-23.9C121.84,211.33,121.15,211.35,120.43,211.35Z"/><path class="cls-1" d="M245.83,181.6l0,0Z"/><path class="cls-1" d="M245.1,183.61c.23-.68.48-1.36.73-2C245.58,182.25,245.33,182.93,245.1,183.61Z"/><path class="cls-1" d="M299.86,181.65a32.11,32.11,0,0,1,9.26-4.62,87.33,87.33,0,0,1,10.81-2.75c3.88-.68,7.78-1.25,11.67-1.71a213.84,213.84,0,0,0,22.82-4.91,1.41,1.41,0,0,1,.22-.06c14.69-4,33-10.67,44.18-20.88A25.36,25.36,0,0,0,409,126.43v-7.37a51,51,0,0,0-2.81-17.68,33.49,33.49,0,0,0-4.39-8.25,49.71,49.71,0,0,0-18.54-15.27,83.21,83.21,0,0,0-25-7.37c-4.58-.62-9.13-1.1-13.63-1.41q-1.69-.12-3.39-.21-5.07-.27-10.08-.27c-2.41,0-4.84.06-7.25.18a151.77,151.77,0,0,0-22,2.73,83.66,83.66,0,0,0-26.24,9.79,58.47,58.47,0,0,0-19.21,18.18q-7.56,11.33-8.58,28.49h30.65a24.55,24.55,0,0,0,21.68-13.4,21,21,0,0,1,6-7.19q7.21-5.4,19.14-6.06c1.1-.08,2.21-.11,3.37-.11,2.17,0,4.29.08,6.31.21s4.07.36,6,.64a27.33,27.33,0,0,1,10,3.43,18.83,18.83,0,0,1,6.86,7.21,16.43,16.43,0,0,1,1.12,2.51,30.27,30.27,0,0,1,1.45,10c.22,5-1.27,8.86-4.46,11.49s-7.56,4.64-13,6a133.67,133.67,0,0,1-18.87,3.09q-10.64,1-21.62,2.73a207.92,207.92,0,0,0-21.78,4.64,65,65,0,0,0-13.07,5,56.61,56.61,0,0,0-6.15,3.7,44.56,44.56,0,0,0-13.73,15.61,37,37,0,0,0-1.85,4l0,0c-.25.65-.5,1.33-.73,2a2.58,2.58,0,0,1-.08.26c-.2.62-.4,1.27-.58,1.92l-.09.33c-.18.67-.35,1.35-.5,2l-.06.26c-.33,1.5-.6,3.07-.81,4.69-.12,1-.23,1.93-.31,2.92q-.27,3.08-.27,6.4,0,13.73,4.62,23.68a44.84,44.84,0,0,0,12.88,16.47,54.41,54.41,0,0,0,19.21,9.61,86.7,86.7,0,0,0,21.11,3.05c.81,0,1.61,0,2.42,0q3.11,0,6.16-.17l2.05-.13q3.19-.24,6.36-.65A110.24,110.24,0,0,0,335,250.46a63.46,63.46,0,0,0,27.34-16.69l.08-.08,0,0a1.49,1.49,0,0,0,0,.21,25.63,25.63,0,0,0,23.91,16.95H409V163.49A127.43,127.43,0,0,0,370,181l-.74.5a25.63,25.63,0,0,0-10.74,17.58c.06-.51.13-1,.22-1.49a38.39,38.39,0,0,1-3.77,9.16,32.1,32.1,0,0,1-11.67,11.5,33.1,33.1,0,0,1-12.57,4.14c-1.49.21-3,.39-4.69.49s-3.37.17-5.17.17h-.11c-.83,0-1.66,0-2.49-.06-.54,0-1.06-.05-1.59-.09a.23.23,0,0,1-.14,0c-.38,0-.76,0-1.13-.07l-1.08-.1-1.88-.24c-.46-.06-.92-.12-1.38-.21l-1.38-.24a27.33,27.33,0,0,1-9.61-3.6,18.37,18.37,0,0,1-6.52-7,22.76,22.76,0,0,1-2.4-11,23.73,23.73,0,0,1,2.4-11.34h0A22.33,22.33,0,0,1,299.86,181.65Z"/><path class="cls-2" d="M799.58,162.26c-11.27,10.43-24.62,16.07-37.35,16.07-16.9,0-32.34-10.44-45.9-29.21h-1.67c-42.77,0-76.57-32.76-76.57-73.86,0-41.31,33.8-73.44,76.57-73.44C757.22,1.82,791,34.16,791,75.26c0,34.42-23.78,63.22-56.54,71.35,10,10.64,19.82,16.28,29.63,16.28,8.55,0,18.36-4.8,28.16-13.15Zm-84.92-29.21c32.55,0,59.25-25.66,59.25-57.79s-26.7-57.59-59.25-57.59S655,43.13,655,75.26,682.11,133.05,714.66,133.05Z"/><path class="cls-2" d="M918.08,148.28H901.8V123.45c-7.3,17.11-21.9,25.25-41.72,25.46-25.67,0-41.11-16.28-41.11-42.77V38.33h16.28v63.43c0,19.4,11.47,30.87,30.46,30.87,22.74-.41,36.09-16.89,36.09-40.26v-54h16.28Z"/><path class="cls-2" d="M1052.44,99.67H962.72c2.92,21.49,18.57,35.05,39.85,35.05,13.56,0,25.46-4.8,34-13.77l9,9.6c-10.43,11.68-25.87,18.36-44.23,18.36-32.34,0-54.66-22.74-54.66-55.5s22.53-55.5,54.45-55.5C1036.58,37.7,1054.11,62.32,1052.44,99.67Zm-14.61-13.35c-1-21.08-15.23-34.43-36.72-34.43-20.86,0-35.88,13.56-38.39,34.43Z"/><path class="cls-2" d="M1175.74,148.28h-16.27V123.45c-7.31,17.11-21.91,25.25-41.73,25.46-25.66,0-41.1-16.28-41.1-42.77V38.33h16.27v63.43c0,19.4,11.48,30.87,30.46,30.87,22.74-.41,36.1-16.89,36.1-40.26v-54h16.27Z"/><path class="cls-2" d="M1310.1,99.67h-89.72c2.93,21.49,18.57,35.05,39.85,35.05,13.57,0,25.46-4.8,34-13.77l9,9.6c-10.43,11.68-25.87,18.36-44.23,18.36-32.34,0-54.66-22.74-54.66-55.5s22.53-55.5,54.45-55.5C1294.24,37.7,1311.77,62.32,1310.1,99.67Zm-14.61-13.35c-1-21.08-15.23-34.43-36.72-34.43-20.86,0-35.88,13.56-38.39,34.43Z"/></svg>