<svg id="Layer_1" data-name="Layer 1" xmlns="http://www.w3.org/2000/svg" viewBox="0 0 1392.59 265.02"><defs><style>.cls-1{fill:#3cf;}.cls-2{fill:#919d9d;}</style></defs><title>CanYa_Small_Artboard 113</title><path class="cls-1" d="M913.09,139.11l-.09.53Z"/><path class="cls-1" d="M913.44,134.91a25.42,25.42,0,0,1-.35,4.2A23.19,23.19,0,0,0,913.44,134.91Z"/><path class="cls-1" d="M913,139.64c0,.06,0,.12,0,.18S913,139.7,913,139.64Z"/><path class="cls-1" d="M587.91,97.41Q580.7,88,568.18,82.65T536.1,77.34a69.46,69.46,0,0,0-30.2,7,52,52,0,0,0-12.45,8.32,56,56,0,0,0-12.3,16.4,128.76,128.76,0,0,1-46.61,50.68v74.07a25.69,25.69,0,0,0,25.69,25.69h23v-93q0-27.09,8.92-38.94T521,115.76q17.5,0,24.36,10.81t6.86,32.77v75.13a25.06,25.06,0,0,0,25.06,25.06h23.66V150.42a143.29,143.29,0,0,0-2.91-30A57.2,57.2,0,0,0,587.91,97.41Z"/><path class="cls-1" d="M434.54,82.14v60.79a128.09,128.09,0,0,0,35.17-60.79Z"/><path class="cls-1" d="M159.14,204.84,159,205c-.8.87-1.64,1.69-2.49,2.48-1.81,1.87-3.57,3.79-5.26,5.77q-2.82,3.81-5.89,7.4A128.29,128.29,0,0,1,84,260.28,133.86,133.86,0,0,0,119.63,265h.8c1.33,0,2.63,0,3.94-.08A118.93,118.93,0,0,0,162,258.15a96.14,96.14,0,0,0,32.93-19.9,99.42,99.42,0,0,0,22.65-31.56,121.81,121.81,0,0,0,10.09-36.54,127.66,127.66,0,0,0-56.53,24.39A130.2,130.2,0,0,0,159.14,204.84Z"/><path class="cls-1" d="M120.43,220.07q-18.2,0-30.88-7A58.9,58.9,0,0,1,69,194.34a81.16,81.16,0,0,1-11.49-26.25,124.79,124.79,0,0,1-3.6-30,134.25,134.25,0,0,1,3.6-31.23A88.1,88.1,0,0,1,62.84,91c.44-1,.89-1.91,1.36-2.85a1.19,1.19,0,0,1,.08-.16c.44-.87.89-1.74,1.35-2.59l.45-.78c.37-.66.74-1.32,1.13-2,.57-.94,1.15-1.86,1.75-2.77A58.35,58.35,0,0,1,89.55,61q12.69-7,30.88-7c.56,0,1.12,0,1.68,0h0a56,56,0,0,1,33.66,12.32,54.33,54.33,0,0,1,12,13.55h0l.09.15a34.73,34.73,0,0,0,29.48,16.83h28.76q-2.42-21.27-11.67-37.74a95.44,95.44,0,0,0-10.63-15.27,88.94,88.94,0,0,0-12.87-12.35,103.84,103.84,0,0,0-32.25-17,123.44,123.44,0,0,0-38.26-5.83q-28.14,0-50.61,10A112.8,112.8,0,0,0,49.24,30.45h-.06c-.35.26-.69.53-1,.78l-1.24.94c-.87.67-1.73,1.35-2.57,2l-1.2,1c-.86.72-1.7,1.46-2.54,2.21l-1.05.94c-1.15,1.06-2.29,2.15-3.4,3.26l-.25.24q-2,2.08-4,4.27c-1.06,1.2-2.08,2.44-3.08,3.68-.35.43-.7.85-1,1.28h0a124.12,124.12,0,0,0-19.56,36,153.12,153.12,0,0,0-8.23,51A148,148,0,0,0,8.23,188,119.21,119.21,0,0,0,31.91,228.3a103.92,103.92,0,0,0,17.66,15.62,127.55,127.55,0,0,0,73-23.89C121.84,220.05,121.15,220.07,120.43,220.07Z"/><path class="cls-1" d="M245.83,190.31l0,0Z"/><path class="cls-1" d="M245,192.58a2.41,2.41,0,0,0,.08-.25A2.41,2.41,0,0,1,245,192.58Z"/><path class="cls-1" d="M243.79,197.13l.06-.26Z"/><path class="cls-1" d="M244.35,194.84l.09-.33Z"/><path class="cls-1" d="M244.44,194.51c.18-.66.38-1.3.58-1.93C244.82,193.21,244.62,193.85,244.44,194.51Z"/><path class="cls-1" d="M243.85,196.87c.15-.69.32-1.37.5-2C244.17,195.5,244,196.18,243.85,196.87Z"/><path class="cls-1" d="M243,201.84h0c.21-1.62.48-3.19.81-4.7C243.46,198.65,243.18,200.21,243,201.84Z"/><path class="cls-1" d="M245.1,192.33c.23-.69.48-1.36.73-2C245.58,191,245.33,191.64,245.1,192.33Z"/><path class="cls-1" d="M299.86,190.37a32.11,32.11,0,0,1,9.26-4.62A85.59,85.59,0,0,1,319.93,183c3.88-.69,7.78-1.25,11.67-1.71a215.6,215.6,0,0,0,22.82-4.92l.22-.06c14.69-4,33-10.67,44.18-20.87A25.38,25.38,0,0,0,409,135.14v-7.36a50.93,50.93,0,0,0-2.81-17.68,33.49,33.49,0,0,0-4.39-8.25,49.61,49.61,0,0,0-18.54-15.27,83.22,83.22,0,0,0-25-7.38c-4.58-.62-9.13-1.1-13.63-1.41-1.13-.07-2.26-.15-3.39-.21-3.38-.18-6.74-.26-10.08-.26-2.41,0-4.84.06-7.25.17a151.79,151.79,0,0,0-22,2.74A83.64,83.64,0,0,0,275.67,90a58.5,58.5,0,0,0-19.21,18.19q-7.56,11.33-8.58,28.48h0v0h30.64a24.57,24.57,0,0,0,21.68-13.4,20.88,20.88,0,0,1,6-7.19q7.21-5.4,19.14-6.07c1.1-.07,2.21-.1,3.37-.1,2.17,0,4.29.07,6.31.21s4.07.35,6,.63a27.33,27.33,0,0,1,10,3.44,18.83,18.83,0,0,1,6.86,7.21,16,16,0,0,1,1.12,2.51,30.21,30.21,0,0,1,1.45,10c.22,5-1.27,8.86-4.46,11.49s-7.56,4.64-13,6a130.84,130.84,0,0,1-18.87,3.09q-10.64,1-21.62,2.74a202.94,202.94,0,0,0-21.78,4.64,65,65,0,0,0-13.07,5,58.25,58.25,0,0,0-6.15,3.7,44.74,44.74,0,0,0-13.73,15.61,37.88,37.88,0,0,0-1.85,4l0,0c-.25.66-.5,1.33-.73,2a2.41,2.41,0,0,1-.08.25c-.2.63-.4,1.27-.58,1.93l-.09.33c-.18.66-.35,1.34-.5,2l-.06.26c-.33,1.51-.6,3.08-.81,4.7-.12.95-.23,1.92-.31,2.92q-.27,3.08-.27,6.39,0,13.74,4.62,23.69A44.92,44.92,0,0,0,259.9,251.3a54.22,54.22,0,0,0,19.21,9.6A85.74,85.74,0,0,0,300.22,264c.81,0,1.61,0,2.42,0,2.07,0,4.12-.06,6.16-.16l2.05-.14q3.19-.23,6.36-.65A111.28,111.28,0,0,0,335,259.18a63.38,63.38,0,0,0,27.34-16.7l.08-.07,0,0a1.49,1.49,0,0,0,0,.21,25.62,25.62,0,0,0,23.91,16.95H409V172.21A127.43,127.43,0,0,0,370,189.69l-.74.49a25.65,25.65,0,0,0-10.74,17.58c.06-.5.13-1,.22-1.48a38.56,38.56,0,0,1-3.77,9.16,32.08,32.08,0,0,1-11.67,11.49,33.1,33.1,0,0,1-12.57,4.14c-1.49.22-3,.39-4.69.5s-3.37.16-5.17.16h-.11c-.83,0-1.66,0-2.49-.06-.54,0-1.06,0-1.59-.09a.23.23,0,0,1-.14,0c-.38,0-.76,0-1.13-.08s-.72-.05-1.08-.1l-1.88-.24c-.46-.06-.92-.12-1.38-.21s-.92-.14-1.38-.23a27.52,27.52,0,0,1-9.61-3.6,18.4,18.4,0,0,1-6.52-7.05,22.76,22.76,0,0,1-2.4-11,23.69,23.69,0,0,1,2.4-11.33v0A22.4,22.4,0,0,1,299.86,190.37Z"/><path class="cls-2" d="M752.42,20.79,744.9,37.38a80,80,0,0,0-42.7-13.05c-19.91,0-33,7.52-33,20.58,0,39.81,87.16,19,86.94,75.21,0,25.88-22.79,42.47-56,42.47a88.35,88.35,0,0,1-59.28-23.67l8-15.93c14.38,13.94,34.07,21.9,51.54,21.9,22.34,0,36.28-9.07,36.28-23.89.22-40.7-86.93-19-86.93-74.55,0-24.33,21.45-40,53.53-40C721.23,6.42,739.59,12.17,752.42,20.79Z"/><path class="cls-2" d="M850.19,154c-8.19,5.53-17,8.63-26.32,8.85-17,0-29.65-10.17-29.65-33.18V63.05H777.41V49.11h16.81V18.36h17V49.11l36.94-.22V63.05H811.26v63.48c0,14.16,5.53,19.47,15.48,19.47q9,0,18.58-6Z"/><path class="cls-2" d="M948.63,144c-9.29,12.61-24.11,18.8-42.7,18.8-24.11,0-39.59-15.48-39.59-35.61,0-20.35,16.15-33.19,43.58-33.41h38.27V86.94c0-17-10.62-27.21-31.2-27.21-12.83,0-24.77,4.86-36.94,13.27l-7.3-12.61c15-10,27.65-15.71,47.56-15.71C949.07,44.68,965,60,965.22,85l.22,77H948.63Zm-.22-22.34V107.73H912.13c-19.47,0-29.64,6-29.64,18.8s10.39,21.24,26.76,21.24C928.94,147.77,944,137.81,948.41,121.67Z"/><path class="cls-2" d="M1064.1,154c-8.19,5.53-17,8.63-26.33,8.85-17,0-29.64-10.17-29.64-33.18V63.05H991.32V49.11h16.81V18.36h17V49.11l36.95-.22V63.05h-36.95v63.48c0,14.16,5.53,19.47,15.49,19.47q9,0,18.58-6Z"/><path class="cls-2" d="M1109.89,12c0,6.85-4.87,11.94-11.28,11.94S1087.32,18.8,1087.32,12,1092.19,0,1098.61,0,1109.89,5.09,1109.89,12Zm-19.69,150V45.35h17V161.93Z"/><path class="cls-2" d="M1255.67,103.53c0,34.95-24.56,59.06-59.07,59.06s-59.06-24.11-59.06-59.06c0-34.73,24.55-58.62,59.06-58.62S1255.67,68.8,1255.67,103.53Zm-100.88.22c0,25.66,17.48,43.36,41.81,43.36s41.81-17.7,41.81-43.36c0-25.44-17.48-43.14-41.81-43.14S1154.79,78.31,1154.79,103.75Z"/><path class="cls-2" d="M1392.59,90v71.9h-17.25V94.68c0-20.57-12.39-32.74-33-32.74-23,.22-37.17,15.26-39.16,37.38v62.61H1286V45.35h17.25V71c8.19-17.7,23.89-26.1,45.13-26.33C1376.22,44.68,1392.59,61.94,1392.59,90Z"/></svg>