<svg id="Layer_1" data-name="Layer 1" xmlns="http://www.w3.org/2000/svg" viewBox="0 0 1445.78 270.49"><defs><style>.cls-1{fill:#3cf;}.cls-2{fill:#919d9d;}</style></defs><title>CanYa_Small_CanTransfer_1</title><path class="cls-1" d="M587.91,102.89q-7.21-9.44-19.73-14.76T536.1,82.81a69.47,69.47,0,0,0-30.2,7,52.26,52.26,0,0,0-12.45,8.31,56.1,56.1,0,0,0-12.3,16.4,128.85,128.85,0,0,1-46.61,50.69v74.06A25.69,25.69,0,0,0,460.23,265h23V172q0-27.11,8.92-38.94T521,121.24q17.5,0,24.36,10.81t6.86,32.77v75.12A25.06,25.06,0,0,0,577.28,265h23.66V155.9a143.38,143.38,0,0,0-2.91-30A57.21,57.21,0,0,0,587.91,102.89Z"/><path class="cls-1" d="M434.54,87.62v60.79a128.09,128.09,0,0,0,35.17-60.79Z"/><path class="cls-1" d="M159.14,210.32l-.11.13c-.8.87-1.64,1.69-2.49,2.48-1.81,1.87-3.57,3.79-5.26,5.77q-2.82,3.81-5.89,7.4A128.29,128.29,0,0,1,84,265.76a133.46,133.46,0,0,0,35.61,4.72h.8c1.33,0,2.63,0,3.94-.07A118.93,118.93,0,0,0,162,263.63a96.14,96.14,0,0,0,32.93-19.9,99.35,99.35,0,0,0,22.65-31.57,121.66,121.66,0,0,0,10.09-36.53A127.76,127.76,0,0,0,171.09,200,130.31,130.31,0,0,0,159.14,210.32Z"/><path class="cls-1" d="M120.43,225.55q-18.2,0-30.88-7A58.83,58.83,0,0,1,69,199.81a81,81,0,0,1-11.49-26.24,124.81,124.81,0,0,1-3.6-30,134.16,134.16,0,0,1,3.6-31.22A87.84,87.84,0,0,1,62.84,96.5c.44-1,.89-1.92,1.36-2.85a.8.8,0,0,1,.08-.16c.44-.88.89-1.74,1.35-2.59.15-.27.3-.52.45-.78.37-.66.74-1.32,1.13-2,.57-.94,1.15-1.86,1.75-2.77A58.35,58.35,0,0,1,89.55,66.52q12.69-7,30.88-7c.56,0,1.12,0,1.68,0h0a56.07,56.07,0,0,1,33.66,12.31,54.55,54.55,0,0,1,12,13.56h0l.09.15a34.75,34.75,0,0,0,29.48,16.83h28.76Q223.7,81.1,214.44,64.63a95,95,0,0,0-10.63-15.27A88.94,88.94,0,0,0,190.94,37a104.07,104.07,0,0,0-32.25-17,123.74,123.74,0,0,0-38.26-5.83q-28.14,0-50.61,10A113.42,113.42,0,0,0,49.24,35.93h-.06c-.35.25-.69.52-1,.78l-1.24.94c-.87.67-1.73,1.34-2.57,2l-1.2,1c-.86.72-1.7,1.46-2.54,2.21l-1.05.94c-1.15,1.06-2.29,2.15-3.4,3.26l-.25.24c-1.36,1.38-2.69,2.81-4,4.27-1.06,1.2-2.08,2.43-3.08,3.68-.35.42-.7.85-1,1.28h0a124.12,124.12,0,0,0-19.56,36A153.1,153.1,0,0,0,0,143.54a148,148,0,0,0,8.23,49.93,119.21,119.21,0,0,0,23.68,40.31A103.92,103.92,0,0,0,49.57,249.4a127.49,127.49,0,0,0,73-23.9C121.84,225.52,121.15,225.55,120.43,225.55Z"/><path class="cls-1" d="M245.83,195.79l0,0Z"/><path class="cls-1" d="M245,198.06c0-.09.06-.17.08-.25C245.08,197.89,245.05,198,245,198.06Z"/><path class="cls-1" d="M243.79,202.61l.06-.26Z"/><path class="cls-1" d="M244.35,200.32l.09-.34Z"/><path class="cls-1" d="M244.44,200c.18-.65.38-1.29.58-1.92C244.82,198.69,244.62,199.33,244.44,200Z"/><path class="cls-1" d="M243.85,202.35c.15-.69.32-1.37.5-2C244.17,201,244,201.66,243.85,202.35Z"/><path class="cls-1" d="M243,207.31h0c.21-1.62.48-3.18.81-4.69C243.46,204.12,243.18,205.69,243,207.31Z"/><path class="cls-1" d="M245.1,197.81c.23-.69.48-1.36.73-2C245.58,196.45,245.33,197.12,245.1,197.81Z"/><path class="cls-1" d="M299.86,195.85a32.13,32.13,0,0,1,9.26-4.63,89.14,89.14,0,0,1,10.81-2.75c3.88-.68,7.78-1.25,11.67-1.71a213.84,213.84,0,0,0,22.82-4.91l.22-.06c14.69-4,33-10.67,44.18-20.87A25.39,25.39,0,0,0,409,140.62v-7.36a51,51,0,0,0-2.81-17.69,33.85,33.85,0,0,0-4.39-8.25,49.59,49.59,0,0,0-18.54-15.26,83.22,83.22,0,0,0-25-7.38c-4.58-.62-9.13-1.1-13.63-1.41q-1.69-.12-3.39-.21-5.07-.27-10.08-.27c-2.41,0-4.84.06-7.25.18a150.41,150.41,0,0,0-22,2.74,83.64,83.64,0,0,0-26.24,9.78,58.58,58.58,0,0,0-19.21,18.18q-7.56,11.34-8.58,28.49h0v0h30.64a24.57,24.57,0,0,0,21.68-13.4,21,21,0,0,1,6-7.2q7.21-5.39,19.14-6.06c1.1-.08,2.21-.11,3.37-.11,2.17,0,4.29.08,6.31.21s4.07.36,6,.64a27.33,27.33,0,0,1,10,3.44,18.76,18.76,0,0,1,6.86,7.21,16,16,0,0,1,1.12,2.51,30.21,30.21,0,0,1,1.45,10c.22,5-1.27,8.86-4.46,11.49s-7.56,4.64-13,6A132.24,132.24,0,0,1,324.05,160c-7.09.68-14.3,1.61-21.62,2.74a202.94,202.94,0,0,0-21.78,4.64,64.35,64.35,0,0,0-13.07,5,58.25,58.25,0,0,0-6.15,3.7,44.65,44.65,0,0,0-13.73,15.61,37,37,0,0,0-1.85,4l0,0c-.25.66-.5,1.33-.73,2,0,.08,0,.16-.08.25-.2.63-.4,1.27-.58,1.92l-.09.34c-.18.66-.35,1.34-.5,2l-.06.26c-.33,1.51-.6,3.07-.81,4.69-.12,1-.23,1.93-.31,2.93-.18,2.05-.27,4.17-.27,6.39q0,13.74,4.62,23.68a45,45,0,0,0,12.88,16.48,54.39,54.39,0,0,0,19.21,9.6,86.22,86.22,0,0,0,21.11,3.05c.81,0,1.61,0,2.42,0q3.11,0,6.16-.17l2.05-.13q3.19-.23,6.36-.65A111.28,111.28,0,0,0,335,264.66,63.48,63.48,0,0,0,362.37,248l.08-.08,0,0a1.49,1.49,0,0,0,0,.21A25.63,25.63,0,0,0,386.42,265H409V177.68A127.43,127.43,0,0,0,370,195.16l-.74.5a25.65,25.65,0,0,0-10.74,17.58c.06-.5.13-1,.22-1.48a38.56,38.56,0,0,1-3.77,9.16,32.08,32.08,0,0,1-11.67,11.49,33.1,33.1,0,0,1-12.57,4.14c-1.49.22-3,.39-4.69.5s-3.37.16-5.17.16h-.11c-.83,0-1.66,0-2.49-.06-.54,0-1.06,0-1.59-.09a.23.23,0,0,1-.14,0l-1.13-.08c-.36,0-.72-.05-1.08-.1l-1.88-.24c-.46-.06-.92-.12-1.38-.21l-1.38-.24a27.32,27.32,0,0,1-9.61-3.59,18.4,18.4,0,0,1-6.52-7.05,22.76,22.76,0,0,1-2.4-11,23.69,23.69,0,0,1,2.4-11.33v0A22.3,22.3,0,0,1,299.86,195.85Z"/><path class="cls-2" d="M672.61,27.28V165.46H654.87V27.28H604.3V10.2H723.4V27.28Z"/><path class="cls-2" d="M752.9,74.52c7.77-17.07,22.18-26.39,41.92-26.61V65.43C770.2,65,754.9,80.29,752.9,103.36v62.1H735.6V48.57h17.3Z"/><path class="cls-2" d="M885.09,147.5c-9.31,12.64-24.17,18.85-42.8,18.85-24.18,0-39.71-15.53-39.71-35.71,0-20.41,16.2-33.27,43.7-33.49h38.37V90.27C884.65,73.19,874,63,853.38,63c-12.87,0-24.85,4.88-37,13.31L809,63.66c15.08-10,27.72-15.75,47.68-15.75,28.84,0,44.81,15.3,45,40.37l.22,77.18H885.09Zm-.22-22.41v-14H848.5c-19.52,0-29.72,6-29.72,18.85s10.42,21.3,26.83,21.3C865.35,151.27,880.44,141.28,884.87,125.09Z"/><path class="cls-2" d="M1047.45,93.38v72.08h-17.3V98c0-20.62-12.42-32.82-33.05-32.82-23.07.22-37.26,15.3-39.26,37.48v62.77h-17.3V48.57h17.3V74.3c8.21-17.74,23.95-26.17,45.25-26.39C1031,47.91,1047.45,65.21,1047.45,93.38Z"/><path class="cls-2" d="M1154.35,58.55l-6.65,13.76c-9.1-5.77-20.85-9.54-31.72-9.54-13.09,0-23.07,4.66-23.07,15.52,0,25.95,65.21,12.65,65.21,54.57,0,23.06-20.41,33.27-42.81,33.27-16.63,0-33.71-5.77-44.8-16.42l6.65-13.08c10,9.31,25.07,14.86,38.82,14.86s24.84-5.1,25.06-16.64c.67-28.17-64.76-13.75-64.54-55.22,0-22.41,19.29-31.72,40.59-31.72C1131.06,47.91,1144.59,51.9,1154.35,58.55Z"/><path class="cls-2" d="M1207.13,37V52.12h33.49v14.2h-33.49v99.14h-17.08V66.32H1175V52.12h15.08V39.26c0-25.51,18-39.26,37.49-39.26,8.87.22,18,2.88,25.06,8.21l-7.1,14a31.56,31.56,0,0,0-17.74-6C1216.45,16.19,1207.13,23.51,1207.13,37Z"/><path class="cls-2" d="M1356.84,113.78h-95.37c3.11,22.85,19.74,37.26,42.37,37.26,14.41,0,27.05-5.1,36.15-14.63l9.53,10.2c-11.08,12.42-27.5,19.52-47,19.52-34.37,0-58.11-24.18-58.11-59s24-59,57.89-59C1340,47.91,1358.62,74.08,1356.84,113.78Zm-15.52-14.19c-1.11-22.4-16.19-36.6-39-36.6-22.18,0-38.15,14.42-40.81,36.6Z"/><path class="cls-2" d="M1403.86,74.52c7.77-17.07,22.18-26.39,41.92-26.61V65.43c-24.62-.44-39.92,14.86-41.92,37.93v62.1h-17.3V48.57h17.3Z"/></svg>