<svg id="Layer_1" data-name="Layer 1" xmlns="http://www.w3.org/2000/svg" viewBox="0 0 1165.27 269.11"><defs><style>.cls-1{fill:#919d9d;}.cls-2{fill:#3cf;}</style></defs><title>CanYa_Small_CanTrack_1</title><path class="cls-1" d="M672.83,26.21V163.42H655.21V26.21H605v-17H723.26v17Z"/><path class="cls-1" d="M752.56,73.12c7.7-17,22-26.21,41.62-26.43v17.4c-24.45-.44-39.64,14.75-41.62,37.66v61.67H735.38V47.35h17.18Z"/><path class="cls-1" d="M883.82,145.58c-9.25,12.55-24,18.72-42.51,18.72-24,0-39.42-15.42-39.42-35.46,0-20.26,16.08-33,43.39-33.26h38.1V88.76c0-17-10.58-27.09-31.06-27.09-12.77,0-24.66,4.84-36.78,13.21l-7.26-12.55c15-9.91,27.53-15.64,47.35-15.64,28.63,0,44.48,15.2,44.7,40.08l.22,76.65H883.82Zm-.22-22.25V109.46H847.48c-19.38,0-29.51,5.94-29.51,18.72s10.35,21.14,26.64,21.14C864.22,149.32,879.19,139.41,883.6,123.33Z"/><path class="cls-1" d="M1029.39,64.09l-9.47,12.11c-8.81-8.37-20.48-13.43-34.58-13.43-24,0-41.18,17.4-41.18,42.72s17.18,43,41.18,43c15.2,0,27.75-5.29,35.9-15l9.91,10.57c-10.35,12.56-26.43,20.05-46.47,20.05-33.69,0-57.48-24-57.48-58.59s24-58.58,57.48-58.58C1003.4,46.69,1018.82,53.08,1029.39,64.09Z"/><path class="cls-1" d="M1080.7,130.16v33.26h-17.18V0h17.18V106.81l59.69-59.46h20.26l-43.39,44.93,48,71.14h-20.48l-39.64-58.59Z"/><path class="cls-2" d="M587.91,101.5q-7.21-9.44-19.73-14.75T536.1,81.43a69.6,69.6,0,0,0-30.2,7,52.29,52.29,0,0,0-12.45,8.32,56.1,56.1,0,0,0-12.3,16.4,128.76,128.76,0,0,1-46.61,50.68v74.07a25.69,25.69,0,0,0,25.69,25.69h23v-93q0-27.1,8.92-38.95T521,119.86q17.5,0,24.36,10.8t6.86,32.77v75.13a25.06,25.06,0,0,0,25.06,25.06h23.66V154.51a143.29,143.29,0,0,0-2.91-30A57.26,57.26,0,0,0,587.91,101.5Z"/><path class="cls-2" d="M434.54,86.23V147a128,128,0,0,0,35.17-60.79Z"/><path class="cls-2" d="M159.14,208.93l-.11.13c-.8.87-1.64,1.69-2.49,2.49-1.81,1.87-3.57,3.79-5.26,5.76q-2.82,3.81-5.89,7.4A128.29,128.29,0,0,1,84,264.37a133.45,133.45,0,0,0,35.61,4.73h.8c1.33,0,2.63,0,3.94-.08A118.65,118.65,0,0,0,162,262.25a96.45,96.45,0,0,0,32.93-19.9,99.46,99.46,0,0,0,22.65-31.57,121.82,121.82,0,0,0,10.09-36.53,127.65,127.65,0,0,0-56.53,24.38A130.2,130.2,0,0,0,159.14,208.93Z"/><path class="cls-2" d="M120.43,224.16q-18.2,0-30.88-7A58.93,58.93,0,0,1,69,198.43a81,81,0,0,1-11.49-26.25,124.79,124.79,0,0,1-3.6-30,134.1,134.1,0,0,1,3.6-31.22,87.94,87.94,0,0,1,5.37-15.83c.44-1,.89-1.91,1.36-2.85,0-.05,0-.1.08-.16.44-.87.89-1.74,1.35-2.59l.45-.78c.37-.65.74-1.31,1.13-2,.57-.93,1.15-1.86,1.75-2.77A58.35,58.35,0,0,1,89.55,65.13q12.69-7,30.88-7l1.68,0h0a56.17,56.17,0,0,1,33.66,12.32,54.5,54.5,0,0,1,12,13.55h0l.09.16A34.75,34.75,0,0,0,197.35,101h28.76q-2.42-21.27-11.67-37.75A95.44,95.44,0,0,0,203.81,48a89.47,89.47,0,0,0-12.87-12.35,103.84,103.84,0,0,0-32.25-17,123.44,123.44,0,0,0-38.26-5.83q-28.14,0-50.61,10A112.83,112.83,0,0,0,49.24,34.55h-.06l-1,.79-1.24.94c-.87.66-1.73,1.34-2.57,2l-1.2,1c-.86.73-1.7,1.47-2.54,2.22l-1.05.93c-1.15,1.07-2.29,2.15-3.4,3.27-.08.08-.17.15-.25.24q-2,2.07-4,4.27c-1.06,1.2-2.08,2.43-3.08,3.67-.35.43-.7.85-1,1.28h0A124.31,124.31,0,0,0,8.23,91.21a153.06,153.06,0,0,0-8.23,51,148,148,0,0,0,8.23,49.92A119.35,119.35,0,0,0,31.91,232.4,104.8,104.8,0,0,0,49.57,248a127.63,127.63,0,0,0,73-23.9C121.84,224.14,121.15,224.16,120.43,224.16Z"/><path class="cls-2" d="M245.83,194.41l0,0Z"/><path class="cls-2" d="M245,196.67a1.83,1.83,0,0,0,.08-.25A1.83,1.83,0,0,1,245,196.67Z"/><path class="cls-2" d="M243.79,201.23l.06-.26Z"/><path class="cls-2" d="M244.35,198.93l.09-.33Z"/><path class="cls-2" d="M244.44,198.6c.18-.65.38-1.3.58-1.93C244.82,197.3,244.62,198,244.44,198.6Z"/><path class="cls-2" d="M243.85,201c.15-.69.32-1.37.5-2C244.17,199.6,244,200.28,243.85,201Z"/><path class="cls-2" d="M243,205.93h0c.21-1.62.48-3.19.81-4.69C243.46,202.74,243.18,204.3,243,205.93Z"/><path class="cls-2" d="M245.1,196.42c.23-.68.48-1.36.73-2C245.58,195.06,245.33,195.74,245.1,196.42Z"/><path class="cls-2" d="M299.86,194.46a32.11,32.11,0,0,1,9.26-4.62,85.59,85.59,0,0,1,10.81-2.75c3.88-.69,7.78-1.25,11.67-1.71a212.58,212.58,0,0,0,22.82-4.92l.22-.06c14.69-4,33-10.66,44.18-20.87A25.37,25.37,0,0,0,409,139.24v-7.37a51,51,0,0,0-2.81-17.68,33.49,33.49,0,0,0-4.39-8.25,49.61,49.61,0,0,0-18.54-15.27,82.93,82.93,0,0,0-25-7.37q-6.87-.94-13.63-1.42l-3.39-.2q-5.07-.27-10.08-.27c-2.41,0-4.84.06-7.25.18a151.77,151.77,0,0,0-22,2.73,83.66,83.66,0,0,0-26.24,9.79,58.47,58.47,0,0,0-19.21,18.18q-7.56,11.33-8.58,28.49h30.65a24.55,24.55,0,0,0,21.68-13.4,21,21,0,0,1,6-7.19q7.21-5.4,19.14-6.07c1.1-.07,2.21-.1,3.37-.1,2.17,0,4.29.07,6.31.21s4.07.36,6,.64a27.33,27.33,0,0,1,10,3.43,18.83,18.83,0,0,1,6.86,7.21A16.43,16.43,0,0,1,359,128a30.21,30.21,0,0,1,1.45,10q.33,7.56-4.46,11.5c-3.2,2.63-7.56,4.64-13,6a132.15,132.15,0,0,1-18.87,3.1q-10.64,1-21.62,2.73A205.4,205.4,0,0,0,280.65,166a65,65,0,0,0-13.07,5,56.54,56.54,0,0,0-6.15,3.69,44.69,44.69,0,0,0-13.73,15.62,36.82,36.82,0,0,0-1.85,4l0,0c-.25.65-.5,1.33-.73,2a1.83,1.83,0,0,1-.08.25c-.2.63-.4,1.28-.58,1.93l-.09.33c-.18.67-.35,1.35-.5,2l-.06.26c-.33,1.5-.6,3.07-.81,4.69-.12,1-.23,1.93-.31,2.92q-.27,3.07-.27,6.39,0,13.74,4.62,23.69a44.84,44.84,0,0,0,12.88,16.47A54.41,54.41,0,0,0,279.11,265a86.22,86.22,0,0,0,21.11,3c.81,0,1.61,0,2.42,0,2.07,0,4.12-.06,6.16-.16l2.05-.13q3.19-.24,6.36-.65A111.31,111.31,0,0,0,335,263.27a63.46,63.46,0,0,0,27.34-16.69l.08-.08,0,0a1.36,1.36,0,0,0,0,.2,25.62,25.62,0,0,0,23.91,17H409V176.3A127.43,127.43,0,0,0,370,193.78l-.74.5a25.63,25.63,0,0,0-10.74,17.57c.06-.5.13-1,.22-1.48a38.39,38.39,0,0,1-3.77,9.16A32,32,0,0,1,343.26,231a32.93,32.93,0,0,1-12.57,4.14c-1.49.22-3,.39-4.69.5s-3.37.17-5.17.17h-.11c-.83,0-1.66,0-2.49-.06-.54,0-1.06-.05-1.59-.09a.23.23,0,0,1-.14,0c-.38,0-.76,0-1.13-.07l-1.08-.1-1.88-.24c-.46-.06-.92-.12-1.38-.21l-1.38-.24a27.33,27.33,0,0,1-9.61-3.6,18.33,18.33,0,0,1-6.52-7,22.73,22.73,0,0,1-2.4-11,23.69,23.69,0,0,1,2.4-11.33h0A22.33,22.33,0,0,1,299.86,194.46Z"/><path class="cls-2" d="M913.09,70l-.09.53Z"/><path class="cls-2" d="M913.44,65.76a25.51,25.51,0,0,1-.35,4.2A23.19,23.19,0,0,0,913.44,65.76Z"/><path class="cls-2" d="M913,70.49c0,.06,0,.12,0,.18S913,70.55,913,70.49Z"/></svg>