<?xml version="1.0" encoding="UTF-8" standalone="no"?>
<svg width="249px" height="249px" viewBox="0 0 249 249" version="1.1" xmlns="http://www.w3.org/2000/svg" xmlns:xlink="http://www.w3.org/1999/xlink">
    <!-- Generator: Sketch 50 (54983) - http://www.bohemiancoding.com/sketch -->
    <title>Group 6</title>
    <desc>Created with Sketch.</desc>
    <defs></defs>
    <g id="2.-Style" stroke="none" stroke-width="1" fill="none" fill-rule="evenodd">
        <g id="Group-6" fill="#30D7A9">
            <path d="M124.5,20.75 C181.5625,20.75 228.25,67.4375 228.25,124.5 C228.25,181.5625 181.5625,228.25 124.5,228.25 C67.4375,228.25 20.75,181.5625 20.75,124.5 C20.75,67.4375 67.4375,20.75 124.5,20.75 L124.5,20.75 Z M124.5,0 C56.025,0 0,56.025 0,124.5 C0,192.975 56.025,249 124.5,249 C192.975,249 249,192.975 249,124.5 C249,56.025 192.975,0 124.5,0 L124.5,0 L124.5,0 Z" id="Shape"></path>
            <path d="M105.556724,142.045317 L85.9912972,122.47989 C82.0882405,118.576834 75.75933,118.577639 71.85892,122.478049 L71.6488593,122.68811 C67.7468196,126.590149 67.7476011,132.917387 71.6504432,136.820229 L104.845559,170.015345 C105.238324,170.40811 105.874352,170.413117 106.268201,170.024519 L175.257253,101.955322 C179.191782,98.0732532 179.21649,91.7613569 175.31608,87.8609468 L175.819593,88.3644603 C171.523458,84.0683245 164.524912,84.0438213 160.198269,88.2995352 L105.556724,142.045317 Z" id="Shape"></path>
        </g>
    </g>
</svg> 