
<?xml version="1.0" encoding="UTF-8" standalone="no"?>
<svg width="249px" height="249px" viewBox="0 0 249 249" version="1.1" xmlns="http://www.w3.org/2000/svg" xmlns:xlink="http://www.w3.org/1999/xlink">
    <!-- Generator: Sketch 50 (54983) - http://www.bohemiancoding.com/sketch -->
    <title>Group 7</title>
    <desc>Created with Sketch.</desc>
    <defs></defs>
    <g id="2.-Style" stroke="none" stroke-width="1" fill="none" fill-rule="evenodd">
        <g id="Icon/X" fill="#FF4954">
            <g id="Group-7">
                <path d="M132.371267,116.50721 L181.946448,116.50721 C186.327187,116.50721 189.878477,120.0585 189.878477,124.439238 C189.878477,128.819977 186.327187,132.371267 181.946448,132.371267 L132.371267,132.371267 L132.371267,181.946448 C132.371267,186.327187 128.819977,189.878477 124.439238,189.878477 C120.0585,189.878477 116.50721,186.327187 116.50721,181.946448 L116.50721,132.371267 L66.9320289,132.371267 C62.5512903,132.371267 59,128.819977 59,124.439238 C59,120.0585 62.5512903,116.50721 66.9320289,116.50721 L116.50721,116.50721 L116.50721,66.9320289 C116.50721,62.5512903 120.0585,59 124.439238,59 C128.819977,59 132.371267,62.5512903 132.371267,66.9320289 L132.371267,116.50721 Z" id="Combined-Shape-Copy" transform="translate(124.439238, 124.439238) rotate(45.000000) translate(-124.439238, -124.439238) "></path>
                <path d="M124.5,20.75 C181.5625,20.75 228.25,67.4375 228.25,124.5 C228.25,181.5625 181.5625,228.25 124.5,228.25 C67.4375,228.25 20.75,181.5625 20.75,124.5 C20.75,67.4375 67.4375,20.75 124.5,20.75 L124.5,20.75 Z M124.5,0 C56.025,0 0,56.025 0,124.5 C0,192.975 56.025,249 124.5,249 C192.975,249 249,192.975 249,124.5 C249,56.025 192.975,0 124.5,0 L124.5,0 L124.5,0 Z" id="Shape-Copy-5"></path>
            </g>
        </g>
    </g>
</svg> 