<svg xmlns="http://www.w3.org/2000/svg" viewBox="0 0 400 400"><defs><style>.cls-1{fill:#fff;}</style></defs><title>CanYa_Iconcoffee</title><g id="Heavier_Lines" data-name="Heavier Lines"><path class="cls-1" d="M137.77,209.12l35.51,34.27a3.57,3.57,0,0,0,2.51,1,3.53,3.53,0,0,0,2.5-1l35.46-34.15c.51-.51,13-12,13-25.61,0-16.68-10.19-26.64-27.2-26.64-10,0-19.3,7.86-23.79,12.3C171.29,164.85,162,157,152,157c-17,0-27.21,10-27.21,26.64C124.79,197.29,137.31,208.73,137.77,209.12Z"/><path class="cls-1" d="M314.26,115.79H298.65V93.89a10,10,0,0,0-10-10H59.87a10,10,0,0,0-10,10v160.4a61.9,61.9,0,0,0,61.83,61.82H236.82a61.89,61.89,0,0,0,61.83-61.82V211.76h15.61c19.78,0,35.87-13.32,35.87-29.68V145.47C350.13,129.11,334,115.79,314.26,115.79Zm-35.61,138.5a41.87,41.87,0,0,1-41.83,41.82H111.7a41.88,41.88,0,0,1-41.83-41.82V103.89H278.65Zm51.48-72.21c0,5.54-8.38,9.68-15.87,9.68H298.65v-56h15.61c7.49,0,15.87,4.14,15.87,9.68Z"/></g></svg>