<?xml version="1.0" encoding="UTF-8"?>
<svg width="25px" height="25px" viewBox="0 0 25 25" version="1.1" xmlns="http://www.w3.org/2000/svg" xmlns:xlink="http://www.w3.org/1999/xlink">
    <!-- Generator: Sketch 51.1 (57501) - http://www.bohemiancoding.com/sketch -->
    <title>Component/Icon/Complete</title>
    <desc>Created with Sketch.</desc>
    <defs></defs>
    <g id="Symbols" stroke="none" stroke-width="1" fill="none" fill-rule="evenodd">
        <g id="Icon/25/project">
            <g id="Component/Icon/Complete">
                <circle id="Oval" fill="#33CCFF" fill-rule="nonzero" cx="12.5" cy="12.5" r="12.5"></circle>
                <path d="M18.0952381,13.2924107 L18.0952381,16.25 C18.0952381,16.9878509 17.8332739,17.618735 17.3093378,18.1426711 C16.7854016,18.6666073 16.1545176,18.9285714 15.4166667,18.9285714 L7.67857143,18.9285714 C6.94072052,18.9285714 6.30983645,18.6666073 5.7859003,18.1426711 C5.26196415,17.618735 5,16.9878509 5,16.25 L5,8.51190476 C5,7.77405385 5.26196415,7.14316978 5.7859003,6.61923363 C6.30983645,6.09529748 6.94072052,5.83333333 7.67857143,5.83333333 L15.4166667,5.83333333 C15.8072936,5.83333333 16.1700132,5.91083752 16.5048363,6.06584821 C16.5978427,6.10925121 16.6536457,6.18055506 16.672247,6.2797619 C16.6908483,6.38516918 16.6629468,6.47507403 16.5885417,6.54947917 L16.1328125,7.00520833 C16.0708082,7.06721261 15.9995044,7.09821429 15.9188988,7.09821429 C15.9002975,7.09821429 15.872396,7.09201395 15.8351935,7.0796131 C15.6925836,7.04241053 15.5530761,7.02380952 15.4166667,7.02380952 L7.67857143,7.02380952 C7.26934319,7.02380952 6.91902427,7.16951739 6.62760417,7.4609375 C6.33618406,7.75235761 6.19047619,8.10267653 6.19047619,8.51190476 L6.19047619,16.25 C6.19047619,16.6592282 6.33618406,17.0095472 6.62760417,17.3009673 C6.91902427,17.5923874 7.26934319,17.7380952 7.67857143,17.7380952 L15.4166667,17.7380952 C15.8258949,17.7380952 16.1762138,17.5923874 16.4676339,17.3009673 C16.759054,17.0095472 16.9047619,16.6592282 16.9047619,16.25 L16.9047619,13.8876488 C16.9047619,13.8070432 16.9326634,13.7388396 16.9884673,13.6830357 L17.5837054,13.0877976 C17.6457096,13.0257933 17.7170135,12.9947917 17.797619,12.9947917 C17.8348216,12.9947917 17.8720236,13.0040922 17.9092262,13.0226935 C18.0332347,13.0722969 18.0952381,13.1622017 18.0952381,13.2924107 Z M20.2436756,8.74441964 L12.6729911,16.3151042 C12.5241808,16.4639144 12.3474713,16.5383185 12.1428571,16.5383185 C11.938243,16.5383185 11.7615335,16.4639144 11.6127232,16.3151042 L7.61346726,12.3158482 C7.46465699,12.1670379 7.39025298,11.9903284 7.39025298,11.7857143 C7.39025298,11.5811002 7.46465699,11.4043906 7.61346726,11.2555804 L8.63653274,10.2325149 C8.78534301,10.0837046 8.96205255,10.0093006 9.16666667,10.0093006 C9.37128078,10.0093006 9.54799033,10.0837046 9.6968006,10.2325149 L12.1428571,12.6785714 L18.1603423,6.66108631 C18.3091525,6.51227604 18.4858621,6.43787202 18.6904762,6.43787202 C18.8950903,6.43787202 19.0717999,6.51227604 19.2206101,6.66108631 L20.2436756,7.68415179 C20.3924859,7.83296205 20.4668899,8.0096716 20.4668899,8.21428571 C20.4668899,8.41889983 20.3924859,8.59560937 20.2436756,8.74441964 Z" id="check-square-o---FontAwesome" fill="#FFFFFF"></path>
            </g>
        </g>
    </g>
</svg>