<?xml version="1.0" encoding="utf-8"?>
<!-- Generator: Adobe Illustrator 22.0.1, SVG Export Plug-In . SVG Version: 6.00 Build 0)  -->
<svg version="1.1" xmlns="http://www.w3.org/2000/svg" xmlns:xlink="http://www.w3.org/1999/xlink" x="0px" y="0px"
	 viewBox="0 0 513.8 118.3" style="enable-background:new 0 0 513.8 118.3;" xml:space="preserve">
<style type="text/css">
	.st0{display:none;}
	.st1{display:inline;fill:#33CCFF;}
	.st2{display:none;opacity:0.5;}
	.st3{display:inline;}
	.st4{opacity:0.5;fill:#33CCFF;}
	.st5{display:inline;opacity:0.5;}
	.st6{fill:#33CCFF;}
	.st7{fill:url(#SVGID_1_);}
	.st8{fill:url(#SVGID_2_);}
	.st9{fill:url(#SVGID_3_);}
	.st10{fill:url(#SVGID_4_);}
	.st11{fill:url(#SVGID_5_);}
	.st12{fill:url(#SVGID_6_);}
	.st13{fill:url(#SVGID_7_);}
	.st14{fill:#FFFFFF;}
	.st15{fill:#0099CC;}
	.st16{fill:#33CAFF;}
	.st17{opacity:5.000000e-02;fill:#F8F9F9;}
	.st18{fill:#00FFCA;}
	.st19{fill:#F5F5F5;}
	.st20{fill:#F2F2F2;}
	.st21{opacity:0.9;fill:#00FFFF;}
	.st22{fill:#15EBD6;}
	.st23{fill:#FFDB15;}
	.st24{fill:#FF99FF;}
	.st25{fill:#3366FF;}
	.st26{fill:#D1D1D1;}
	.st27{opacity:0.3;fill:#15EBD6;}
	.st28{fill:#919D9D;}
	.st29{fill:#FF6666;}
	.st30{opacity:0.1;fill:#33CCFF;}
	.st31{opacity:0.2;fill:#33CCFF;}
	.st32{opacity:5.000000e-02;fill:#33CCFF;}
	.st33{opacity:0.95;fill:#33CCFF;}
	.st34{opacity:0.9;fill:#33CCFF;}
	.st35{opacity:0.7;fill:#33CCFF;}
	.st36{opacity:0.6;fill:#33CCFF;}
	.st37{opacity:0.8;fill:#33CCFF;}
	.st38{opacity:0.3;fill:#33CCFF;}
	.st39{opacity:0.4;fill:#33CCFF;}
	.st40{fill:url(#SVGID_8_);}
	.st41{fill:url(#SVGID_9_);}
	.st42{fill:url(#SVGID_10_);}
	.st43{fill:url(#SVGID_11_);}
	.st44{fill:url(#SVGID_12_);}
	.st45{fill:url(#SVGID_13_);}
	.st46{fill:url(#SVGID_14_);}
	.st47{fill:url(#SVGID_15_);}
	.st48{fill:url(#SVGID_16_);}
	.st49{fill:url(#SVGID_17_);}
	.st50{fill:url(#SVGID_18_);}
	.st51{fill:url(#SVGID_19_);}
	.st52{fill:url(#SVGID_20_);}
	.st53{fill:url(#SVGID_21_);}
	.st54{fill:url(#SVGID_22_);}
	.st55{fill:url(#SVGID_23_);}
	.st56{fill:url(#SVGID_24_);}
	.st57{fill:#485F64;}
	.st58{fill:#9C9C9C;}
	.st59{fill:#221F1F;}
	.st60{fill:#06BC65;}
	.st61{fill:#1E1E1E;}
	.st62{fill:#FFFF5A;}
	.st63{fill:#F05A2A;}
	.st64{fill:#D661AA;}
	.st65{fill:#F7EA2F;}
	.st66{fill:#26A7DF;}
	.st67{fill:#EFE92B;}
	.st68{fill:#F9A0DC;}
	.st69{fill:#FF3951;}
	.st70{fill:#4EDCCA;}
	.st71{fill:#FFC600;}
	.st72{clip-path:url(#SVGID_26_);}
	.st73{clip-path:url(#SVGID_28_);}
	.st74{fill:#0078BF;}
	.st75{clip-path:url(#SVGID_30_);}
	.st76{clip-path:url(#SVGID_32_);}
	.st77{fill:#F9A4D8;}
	.st78{clip-path:url(#SVGID_34_);}
	.st79{clip-path:url(#SVGID_36_);}
	.st80{fill:url(#SVGID_37_);}
	.st81{fill:url(#SVGID_38_);}
	.st82{clip-path:url(#SVGID_40_);}
	.st83{clip-path:url(#SVGID_42_);}
	.st84{clip-path:url(#SVGID_44_);}
	.st85{clip-path:url(#SVGID_46_);}
	.st86{clip-path:url(#SVGID_48_);}
	.st87{clip-path:url(#SVGID_50_);}
	.st88{fill:url(#SVGID_51_);}
	.st89{fill:url(#SVGID_52_);}
	.st90{fill:url(#SVGID_53_);}
	.st91{fill:url(#SVGID_54_);}
	.st92{fill:url(#SVGID_55_);}
	.st93{fill:url(#SVGID_56_);}
	.st94{fill:url(#SVGID_57_);}
	.st95{fill:url(#SVGID_58_);}
	.st96{fill:#363636;}
	.st97{fill:#474747;}
	.st98{fill:#444444;}
	.st99{fill:#5E5E5E;}
	.st100{clip-path:url(#SVGID_60_);fill:url(#SVGID_61_);}
	.st101{clip-path:url(#SVGID_60_);}
	.st102{opacity:0.5;fill:#009DC1;}
	.st103{clip-path:url(#SVGID_63_);fill:url(#SVGID_64_);}
	.st104{opacity:0.5;clip-path:url(#SVGID_63_);}
	.st105{clip-path:url(#SVGID_63_);}
	.st106{clip-path:url(#SVGID_66_);fill:url(#SVGID_67_);}
	.st107{opacity:0.77;clip-path:url(#SVGID_66_);}
	.st108{fill:#038478;}
	.st109{clip-path:url(#SVGID_66_);}
	.st110{clip-path:url(#SVGID_69_);fill:url(#SVGID_70_);}
	.st111{opacity:0.5;clip-path:url(#SVGID_69_);}
	.st112{fill:#EA3D3D;}
	.st113{clip-path:url(#SVGID_69_);}
	.st114{clip-path:url(#SVGID_72_);fill:url(#SVGID_73_);}
	.st115{clip-path:url(#SVGID_72_);}
	.st116{opacity:0.47;}
	.st117{fill:#29B29E;}
	.st118{opacity:0.3;}
	.st119{clip-path:url(#SVGID_75_);fill:url(#SVGID_76_);}
	.st120{opacity:0.5;clip-path:url(#SVGID_75_);}
	.st121{clip-path:url(#SVGID_75_);}
</style>
<g id="Layer_3" class="st0">
</g>
<g id="Layer_2" class="st2">
</g>
<g id="Layer_1">
	<g>
		<defs>
			<rect id="SVGID_59_" width="513.8" height="118.3"/>
		</defs>
		<clipPath id="SVGID_1_">
			<use xlink:href="#SVGID_59_"  style="overflow:visible;"/>
		</clipPath>
		<linearGradient id="SVGID_2_" gradientUnits="userSpaceOnUse" x1="0" y1="59.1443" x2="513.7979" y2="59.1443">
			<stop  offset="0" style="stop-color:#33CCFF"/>
			<stop  offset="1" style="stop-color:#4EDCCA"/>
		</linearGradient>
		<rect style="clip-path:url(#SVGID_1_);fill:url(#SVGID_2_);" width="513.8" height="118.3"/>
		<g style="clip-path:url(#SVGID_1_);">
			<path class="st102" d="M37.3,39.9h-6.5c-0.5,0-0.9,0.4-0.9,0.9v4.4c0,0.5,0.4,0.9,0.9,0.9h20c0.5,0,0.9-0.4,0.9-0.9v-4.4
				c0-0.5-0.4-0.9-0.9-0.9h-5.9v-8.6h25.4c0.5,0,0.9-0.4,0.9-0.9V-8.9c0-0.5-0.4-0.9-0.9-0.9H62v-2.1c0-0.5-0.4-0.9-0.9-0.9h-9.5
				c-0.5,0-0.9,0.4-0.9,0.9v2.1H31.5v-2.1c0-0.5-0.4-0.9-0.9-0.9h-9.5c-0.5,0-0.9,0.4-0.9,0.9v2.1h-7.7c-0.5,0-0.9,0.4-0.9,0.9v39.3
				c0,0.5,0.4,0.9,0.9,0.9h24.8V39.9z M50,44.3H31.7v-2.7h6.5h5.9H50V44.3z M43.2,39.9h-4.2v-8.6h4.2V39.9z M52.5-11h7.8v2.1v1.5
				h-7.8v-1.5V-11z M22-11h7.8v2.1v1.6H22v-1.6V-11z M13.4-8.1h6.9v1.6c0,0.5,0.4,0.9,0.9,0.9h9.5c0.5,0,0.9-0.4,0.9-0.9v-1.6h19.3
				v1.5c0,0.5,0.4,0.9,0.9,0.9h9.5c0.5,0,0.9-0.4,0.9-0.9v-1.5h7.5v37.6H44.1h-5.9H13.4V-8.1z"/>
			<path class="st102" d="M44.9,23.7c0.1,0.1,0.3,0.1,0.4,0.1c0.1,0,0.2,0,0.3,0c0.2-0.1,0.4-0.2,0.5-0.5l1.8-3.9l4.3-0.5
				c0.2,0,0.5-0.2,0.6-0.3c0.1-0.2,0.2-0.4,0.1-0.7L52,13.7l3.2-2.9c0.2-0.2,0.3-0.4,0.3-0.6c0-0.2-0.1-0.5-0.3-0.6L52,6.6l0.9-4.2
				c0-0.2,0-0.5-0.1-0.7c-0.1-0.2-0.4-0.3-0.6-0.3l-4.3-0.5L46.1-3c-0.1-0.2-0.3-0.4-0.5-0.5c-0.2-0.1-0.5,0-0.7,0.1l-3.7,2.1
				l-3.7-2.1c-0.2-0.1-0.5-0.1-0.7-0.1c-0.2,0.1-0.4,0.2-0.5,0.5l-1.8,3.9l-4.3,0.5c-0.2,0-0.5,0.2-0.6,0.3
				c-0.1,0.2-0.2,0.4-0.1,0.7l0.9,4.2l-3.2,2.9c-0.2,0.2-0.3,0.4-0.3,0.6c0,0.2,0.1,0.5,0.3,0.6l3.2,2.9l-0.9,4.2
				c0,0.2,0,0.5,0.1,0.7c0.1,0.2,0.4,0.3,0.6,0.3l4.3,0.5l1.8,3.9c0.1,0.2,0.3,0.4,0.5,0.5c0.2,0.1,0.5,0,0.7-0.1l3.7-2.1L44.9,23.7
				z M37.4,21.7l-1.6-3.5c-0.1-0.3-0.4-0.5-0.7-0.5l-3.8-0.4l0.8-3.8c0.1-0.3,0-0.6-0.3-0.8l-2.8-2.6l2.8-2.6C32,7.3,32.1,7,32,6.7
				L31.3,3l3.8-0.4c0.3,0,0.6-0.2,0.7-0.5l1.6-3.5l3.3,1.9c0.3,0.2,0.6,0.2,0.9,0l3.3-1.9L46.5,2c0.1,0.3,0.4,0.5,0.7,0.5L51,3
				l-0.8,3.8c-0.1,0.3,0,0.6,0.3,0.8l2.8,2.6l-2.8,2.6c-0.2,0.2-0.3,0.5-0.3,0.8l0.8,3.8l-3.8,0.4c-0.3,0-0.6,0.2-0.7,0.5l-1.6,3.5
				l-3.3-1.9c-0.3-0.2-0.6-0.2-0.9,0L37.4,21.7z"/>
			<path class="st102" d="M211.7,77.9h-58.3c-0.2,0-0.5,0.1-0.6,0.3c-0.2,0.2-0.3,0.4-0.3,0.6v11c0,0.1,0,0.1,0,0.2V137
				c0,0.5,0.4,0.9,0.9,0.9h58.3c0.5,0,0.9-0.4,0.9-0.9V89.8v-11v0C212.6,78.3,212.2,77.9,211.7,77.9z M154.3,79.6h56.5v9.3h-56.5
				V79.6z M154.3,136.2V90.7h56.5v45.5H154.3z"/>
			<path class="st102" d="M159.6,84.1c0-0.1,0-0.1-0.1-0.1l-0.1-0.1l-0.1-0.1l-0.1-0.1c-0.1,0-0.1,0-0.2,0c-0.1,0-0.2,0-0.3,0
				c-0.1,0-0.1,0-0.2,0c-0.1,0-0.1,0.1-0.1,0.1c-0.1,0-0.1,0.1-0.1,0.1l-0.1,0.1c0,0-0.1,0.1-0.1,0.1c0,0.1,0,0.1,0,0.2
				c0,0.1,0,0.1,0,0.2c0,0.2,0.1,0.4,0.3,0.6c0,0,0.1,0.1,0.1,0.1l0.1,0.1c0.1,0,0.1,0,0.2,0.1c0.1,0,0.1,0,0.2,0c0.1,0,0.1,0,0.2,0
				c0.1,0,0.1,0,0.2-0.1l0.1-0.1l0.1-0.1c0.2-0.2,0.3-0.4,0.3-0.6c0-0.1,0-0.1,0-0.2C159.6,84.3,159.6,84.2,159.6,84.1z"/>
			<path class="st102" d="M164,83.6c-0.5,0-0.9,0.4-0.9,0.9s0.4,0.9,0.9,0.9s0.9-0.4,0.9-0.9S164.5,83.6,164,83.6z"/>
			<path class="st102" d="M169.6,83.8l-0.1-0.1c-0.1,0-0.1,0-0.2,0c-0.3-0.1-0.6,0-0.8,0.2c-0.2,0.2-0.3,0.4-0.3,0.6
				c0,0.2,0.1,0.4,0.3,0.6c0.2,0.2,0.4,0.3,0.6,0.3c0.1,0,0.1,0,0.2,0c0.1,0,0.1,0,0.2-0.1l0.1-0.1l0.1-0.1c0.2-0.2,0.3-0.4,0.3-0.6
				c0-0.2-0.1-0.4-0.3-0.6L169.6,83.8z"/>
			<path class="st102" d="M166.9,108.1c0.1,0.1,0.3,0.1,0.4,0.1c0.1,0,0.3,0,0.4-0.1l7.9-4.6c0.3-0.2,0.4-0.4,0.4-0.7
				c0-0.3-0.2-0.6-0.4-0.7l-7.9-4.6c-0.3-0.2-0.6-0.2-0.9,0c-0.3,0.2-0.4,0.4-0.4,0.7v9.1C166.4,107.7,166.6,108,166.9,108.1z
				 M168.2,99.7l5.3,3.1l-5.3,3.1V99.7z"/>
			<path class="st102" d="M192.9,108.7c2,0,3.5-1,3.5-2.3V99c0.3,0.3,0.5,0.7,0.4,1.5c-0.2,2,1.5,3.2,2.4,3.5c0.1,0,0.2,0.1,0.3,0.1
				c0.3,0,0.7-0.2,0.8-0.6c0.2-0.4-0.1-0.9-0.5-1.1c-0.1,0-1.4-0.6-1.3-1.7c0.3-2.5-1.5-3.6-2.7-3.8c-0.1,0-0.1,0-0.2,0
				c0,0-0.1,0-0.1,0c-0.5,0-0.9,0.4-0.9,0.9v6.6c-0.5-0.2-1.1-0.3-1.8-0.3c-2,0-3.5,1-3.5,2.3S190.9,108.7,192.9,108.7z
				 M192.9,105.8c1.1,0,1.7,0.5,1.8,0.6c0,0.2-0.6,0.6-1.8,0.6c-1.1,0-1.7-0.5-1.8-0.6C191.2,106.3,191.8,105.8,192.9,105.8z"/>
			<path class="st102" d="M180.8,110.8V94.8c0-0.5-0.4-0.9-0.9-0.9h-19c-0.5,0-0.9,0.4-0.9,0.9v15.9c0,0.5,0.4,0.9,0.9,0.9h19
				C180.4,111.6,180.8,111.3,180.8,110.8z M179.1,109.9h-17.3V95.7h17.3V109.9z"/>
			<path class="st102" d="M203.5,94h-19c-0.5,0-0.9,0.4-0.9,0.9v15.9c0,0.5,0.4,0.9,0.9,0.9h19c0.5,0,0.9-0.4,0.9-0.9V94.9
				C204.4,94.4,204,94,203.5,94z M202.7,109.9h-17.3V95.7h17.3V109.9z"/>
			<path class="st102" d="M192.7,114.5h-20.6c-0.5,0-0.9,0.4-0.9,0.9v16.2c0,0.5,0.4,0.9,0.9,0.9h20.6c0.5,0,0.9-0.4,0.9-0.9v-16.2
				C193.6,114.9,193.2,114.5,192.7,114.5z M191.9,130.7H173v-14.4h18.9V130.7z"/>
			<path class="st102" d="M153.8,29.6c0.2,0,0.4,0,0.6,0c0,0,0,0,0,0c0,0,0.1,0,0.1,0c1.8,0,3.6-0.4,5.2-1c0,0,0,0,0,0l9.1-1.6
				l-15.1,32.8c-0.1,0.3-0.1,0.6,0.1,0.8c0.2,0.2,0.4,0.4,0.7,0.4h5.2c0.3,0,0.6-0.2,0.8-0.5l4.6-10.1h24.3l4.6,10.1
				c0.1,0.3,0.4,0.5,0.8,0.5h5.2c0.3,0,0.6-0.1,0.7-0.4c0.2-0.2,0.2-0.6,0.1-0.8l-16.4-35.5l15.2-2.7c0.4-0.1,0.7-0.4,0.7-0.8V11
				c0-0.4-0.3-0.8-0.7-0.8l-39.9-6.9c0,0,0,0,0,0c-1.8-0.8-3.8-1.1-5.8-1c0,0,0,0,0,0c0,0-0.1,0-0.1,0c-0.1,0-0.1,0-0.2,0
				c-7.3,0.4-13,6.4-13,13.7C140.7,23.2,146.4,29.2,153.8,29.6L153.8,29.6z M142.8,18.4c2.3,2.1,6.6,5.2,11.6,5.2
				c5.1,0,9.4-3.3,11.7-5.4c-0.8,3.9-3.4,7.2-7.2,8.7c0,0,0,0,0,0c-1.6,0.7-3.3,1-5,0.9C148.4,27.6,143.9,23.6,142.8,18.4z
				 M154.4,10.1c3.2,0,5.8,2.6,5.8,5.8c0,3.2-2.6,5.8-5.8,5.8c-3.2,0-5.8-2.6-5.8-5.8C148.6,12.7,151.2,10.1,154.4,10.1z
				 M160.6,11.6c2.6,1.4,4.6,3.3,5.5,4.3c-0.9,0.9-2.9,2.8-5.5,4.3c0.8-1.2,1.3-2.7,1.3-4.3S161.4,12.8,160.6,11.6z M148.2,20.1
				c-2.6-1.4-4.6-3.3-5.5-4.3c0.9-0.9,2.9-2.8,5.5-4.3c-0.8,1.2-1.3,2.7-1.3,4.3S147.4,18.9,148.2,20.1z M159,4.8
				c3.8,1.6,6.4,4.9,7.2,8.7c-2.3-2.1-6.7-5.4-11.7-5.4c-5,0-9.2,3.1-11.6,5.2c1.1-5.2,5.6-9.2,11.1-9.5h0
				C155.6,3.8,157.4,4.1,159,4.8z M159.1,59.3h-3.3l15.1-32.7l3.6-0.6l-8.1,17.5c0,0,0,0,0,0l-2.6,5.7c0,0,0,0,0,0L159.1,59.3z
				 M165.9,48.7l1.8-4h19.1l1.8,4H165.9z M195.4,59.3l-4.6-10.1c0,0,0,0,0,0l-2.6-5.7c0,0,0,0,0,0l-8.5-18.4l3-0.5l16,34.7H195.4z
				 M186,43h-17.5l8-17.4l1.3-0.2L186,43z M198.6,11.7V20l-18.9,3.3l-1.5,0.3c0,0,0,0,0,0l-7.9,1.4l-0.2,0h0l-6.6,1.1
				c2.9-2.6,4.6-6.2,4.6-10.2c0-4-1.7-7.7-4.6-10.2L198.6,11.7z"/>
			<path class="st102" d="M154.4,18.8c1.6,0,3-1.3,3-3s-1.3-3-3-3c-1.6,0-3,1.3-3,3S152.7,18.8,154.4,18.8z M154.4,14.6
				c0.7,0,1.2,0.6,1.2,1.2c0,0.7-0.6,1.2-1.2,1.2c-0.7,0-1.2-0.6-1.2-1.2C153.1,15.2,153.7,14.6,154.4,14.6z"/>
			<path class="st102" d="M77.6,105.3h-9.5V67.6c0-0.5-0.4-0.9-0.9-0.9L20,66.4c-0.2,0-0.4,0.1-0.6,0.2c-0.2,0.2-0.3,0.4-0.3,0.6
				v51.4c0,4.2,3.4,7.6,7.6,7.6h45.8c3.3,0,6-2.7,6-6v-14.1C78.5,105.7,78.1,105.3,77.6,105.3z M68.2,124.6H26.7
				c-3.2,0-5.8-2.6-5.8-5.8V68.2l45.6,0.3v37.8v14.1c0,0.2,0,0.4,0,0.6c0,0.1,0,0.1,0,0.2c0,0.1,0,0.3,0.1,0.4c0,0.1,0,0.1,0.1,0.2
				c0,0.1,0.1,0.3,0.1,0.4c0,0.1,0.1,0.2,0.1,0.2c0,0.1,0.1,0.2,0.1,0.3c0,0.1,0.1,0.2,0.1,0.2c0,0.1,0.1,0.2,0.1,0.3
				c0,0.1,0.1,0.2,0.2,0.3c0.1,0.1,0.1,0.2,0.2,0.2c0.1,0.1,0.1,0.2,0.2,0.2c0.1,0.1,0.1,0.2,0.2,0.2c0.1,0.1,0.1,0.1,0.2,0.2
				C68.1,124.4,68.1,124.5,68.2,124.6C68.2,124.6,68.2,124.6,68.2,124.6z M76.8,120.3c0,2.4-1.9,4.3-4.3,4.3s-4.3-1.9-4.3-4.3V107
				h8.7V120.3z"/>
			<path class="st102" d="M40.1,72H25.5c-0.5,0-0.9,0.4-0.9,0.9v12.9c0,0.5,0.4,0.9,0.9,0.9h14.6c0.5,0,0.9-0.4,0.9-0.9V72.8
				C40.9,72.3,40.6,72,40.1,72z M39.2,84.9H26.3V73.7h12.9V84.9z"/>
			<path class="st102" d="M46.9,86.6h14.6c0.5,0,0.9-0.4,0.9-0.9V72.8c0-0.5-0.4-0.9-0.9-0.9H46.9c-0.5,0-0.9,0.4-0.9,0.9v12.9
				C46,86.2,46.4,86.6,46.9,86.6z M47.8,73.7h12.9v11.2H47.8V73.7z"/>
			<path class="st102" d="M40.1,91.9H24.9c-0.5,0-0.9,0.4-0.9,0.9s0.4,0.9,0.9,0.9h15.1c0.5,0,0.9-0.4,0.9-0.9S40.6,91.9,40.1,91.9z
				"/>
			<path class="st102" d="M40.1,102.1H24.9c-0.5,0-0.9,0.4-0.9,0.9c0,0.5,0.4,0.9,0.9,0.9h15.1c0.5,0,0.9-0.4,0.9-0.9
				C40.9,102.5,40.6,102.1,40.1,102.1z"/>
			<path class="st102" d="M40.1,112.2H24.9c-0.5,0-0.9,0.4-0.9,0.9s0.4,0.9,0.9,0.9h15.1c0.5,0,0.9-0.4,0.9-0.9
				S40.6,112.2,40.1,112.2z"/>
			<path class="st102" d="M61.8,91.9H46.6c-0.5,0-0.9,0.4-0.9,0.9s0.4,0.9,0.9,0.9h15.1c0.5,0,0.9-0.4,0.9-0.9S62.3,91.9,61.8,91.9z
				"/>
			<path class="st102" d="M61.8,102.1H46.6c-0.5,0-0.9,0.4-0.9,0.9c0,0.5,0.4,0.9,0.9,0.9h15.1c0.5,0,0.9-0.4,0.9-0.9
				C62.6,102.5,62.3,102.1,61.8,102.1z"/>
			<path class="st102" d="M61.8,112.2H46.6c-0.5,0-0.9,0.4-0.9,0.9s0.4,0.9,0.9,0.9h15.1c0.5,0,0.9-0.4,0.9-0.9
				S62.3,112.2,61.8,112.2z"/>
			<path class="st102" d="M247.2,36h-1.4c-0.6,0-1.1-0.5-1.1-1.1c0-0.5-0.4-0.9-0.9-0.9c-0.5,0-0.9,0.4-0.9,0.9
				c0,1.5,1.2,2.7,2.6,2.8V39c0,0.5,0.4,0.9,0.9,0.9c0.5,0,0.9-0.4,0.9-0.9v-1.2c1.5-0.1,2.6-1.3,2.6-2.8v-1.4
				c0-1.5-1.3-2.8-2.8-2.8h-1.4c-0.6,0-1.1-0.5-1.1-1.1v-1.4c0-0.6,0.5-1.1,1.1-1.1h1.4c0.6,0,1.1,0.5,1.1,1.1v0.1
				c0,0.5,0.4,0.9,0.9,0.9c0.5,0,0.9-0.4,0.9-0.9v-0.1c0-1.5-1.2-2.7-2.6-2.8V24c0-0.5-0.4-0.9-0.9-0.9c-0.5,0-0.9,0.4-0.9,0.9v1.5
				c-1.5,0.1-2.6,1.3-2.6,2.8v1.4c0,1.5,1.3,2.8,2.8,2.8h1.4c0.6,0,1.1,0.5,1.1,1.1v1.4C248.3,35.5,247.8,36,247.2,36z"/>
			<path class="st102" d="M243.3,43.3c1.1,0.3,2.2,0.4,3.3,0.4c1.1,0,2.1-0.1,3.2-0.4c5.3-1.4,9-6.3,9-11.8
				c0-6.7-5.5-12.2-12.2-12.2c-2.8,0-5.5,1-7.7,2.7c-2.9,2.3-4.5,5.8-4.5,9.5C234.3,37,238,41.8,243.3,43.3z M239.9,23.3
				c1.9-1.5,4.2-2.4,6.6-2.4c5.8,0,10.5,4.7,10.5,10.5c0,4.7-3.2,8.9-7.7,10.1c-1.9,0.5-3.7,0.5-5.6,0c-4.5-1.3-7.7-5.4-7.7-10.1
				C236,28.3,237.4,25.3,239.9,23.3z"/>
			<path class="st102" d="M221.8,11c-0.5,0-0.9,0.4-0.9,0.9v37c0,0.5,0.4,0.9,0.9,0.9h49.5c0.5,0,0.9-0.4,0.9-0.9v-37
				c0-0.5-0.4-0.9-0.9-0.9H221.8z M270.5,48h-47.8V12.7h47.8V48z"/>
			<path class="st102" d="M276.6,53.2V7.5c0-0.5-0.4-0.9-0.9-0.9H255l-7.7-11.3c-0.3-0.5-1.1-0.5-1.4,0l-7.7,11.3h-20.6
				c-0.5,0-0.9,0.4-0.9,0.9v45.7c0,0.5,0.4,0.9,0.9,0.9h58.2C276.2,54,276.6,53.6,276.6,53.2z M246.5-2.6l6.3,9.3h-12.7L246.5-2.6z
				 M274.8,52.3h-56.5V8.4h19.9c0.1,0,0.2,0.1,0.3,0.1h16.1c0.1,0,0.2,0,0.3-0.1h20V52.3z"/>
			<path class="st102" d="M283.8,100.7h-0.5V99h2.9c0.5,0,0.9-0.4,0.9-0.9v-1.3h1.7c0.5,0,0.9-0.4,0.9-0.9s-0.4-0.9-0.9-0.9H287
				v-1.3c0-0.5-0.4-0.9-0.9-0.9h-2.9c-0.3-3.7-3.4-6.6-7.1-6.7v-9c0,0,0,0,0-0.1c0-0.1,0-0.2,0-0.2c0,0,0-0.1,0-0.1
				c0-0.1-0.1-0.2-0.2-0.2c0,0,0,0,0,0l-4.8-4.8c0,0,0,0,0,0c-0.1-0.1-0.1-0.1-0.2-0.2c0,0-0.1,0-0.1,0c-0.1,0-0.1,0-0.2,0
				c0,0,0,0-0.1,0h-26.1c-0.5,0-0.9,0.4-0.9,0.9v13.8c-3.5,0.1-6.4,2.8-6.9,6.1h-4.8c-0.5,0-0.9,0.4-0.9,0.9v5.5
				c0,0.5,0.4,0.9,0.9,0.9h4.7v1.2h-0.4c-3.4,0-6.1,2.8-6.1,6.1v17.8c0,3.4,2.8,6.1,6.1,6.1h47.7c3.4,0,6.1-2.8,6.1-6.1v-17.8
				C289.9,103.4,287.2,100.7,283.8,100.7z M285.3,97.2h-2v-2.7h2V97.2z M281.6,93.4v0.3v4.4v2.6h-5.4v-3.5V96v-8.1
				C279.2,87.9,281.6,90.4,281.6,93.4z M245.2,98h29.2v2.7h-29.2V98z M273.2,76.3h-1.9v-1.9L273.2,76.3z M245.2,73.1h24.4v4
				c0,0.5,0.4,0.9,0.9,0.9h4v9v9v0.3h-29.2V96v-9V73.1z M232.7,97.8V94h3.8v3.8H232.7z M238.2,98.7v-5.2c0-3,2.3-5.4,5.3-5.6V96v1.1
				v3.5h-5.3V98.7z M288.2,124.6c0,2.4-2,4.4-4.4,4.4h-47.7c-2.4,0-4.4-2-4.4-4.4v-17.8c0-2.4,2-4.4,4.4-4.4h1.3h45.1h1.3
				c2.4,0,4.4,2,4.4,4.4V124.6z"/>
			<path class="st102" d="M244.1,106.5h-6.5c-0.5,0-0.9,0.4-0.9,0.9v6.5c0,0.5,0.4,0.9,0.9,0.9h6.5c0.5,0,0.9-0.4,0.9-0.9v-6.5
				C245,106.9,244.6,106.5,244.1,106.5z M243.3,113.1h-4.8v-4.8h4.8V113.1z"/>
			<path class="st102" d="M256.8,106.5h-6.5c-0.5,0-0.9,0.4-0.9,0.9v6.5c0,0.5,0.4,0.9,0.9,0.9h6.5c0.5,0,0.9-0.4,0.9-0.9v-6.5
				C257.7,106.9,257.3,106.5,256.8,106.5z M256,113.1h-4.8v-4.8h4.8V113.1z"/>
			<path class="st102" d="M269.6,106.5h-6.5c-0.5,0-0.9,0.4-0.9,0.9v6.5c0,0.5,0.4,0.9,0.9,0.9h6.5c0.5,0,0.9-0.4,0.9-0.9v-6.5
				C270.4,106.9,270,106.5,269.6,106.5z M268.7,113.1h-4.8v-4.8h4.8V113.1z"/>
			<path class="st102" d="M282.3,106.5h-6.5c-0.5,0-0.9,0.4-0.9,0.9v6.5c0,0.5,0.4,0.9,0.9,0.9h6.5c0.5,0,0.9-0.4,0.9-0.9v-6.5
				C283.1,106.9,282.8,106.5,282.3,106.5z M281.4,113.1h-4.8v-4.8h4.8V113.1z"/>
			<path class="st102" d="M244,117.2h-6.5c-0.5,0-0.9,0.4-0.9,0.9v6.5c0,0.5,0.4,0.9,0.9,0.9h6.5c0.5,0,0.9-0.4,0.9-0.9v-6.5
				C244.9,117.6,244.5,117.2,244,117.2z M243.2,123.7h-4.8v-4.8h4.8V123.7z"/>
			<path class="st102" d="M256.8,117.2h-6.5c-0.5,0-0.9,0.4-0.9,0.9v6.5c0,0.5,0.4,0.9,0.9,0.9h6.5c0.5,0,0.9-0.4,0.9-0.9v-6.5
				C257.6,117.6,257.2,117.2,256.8,117.2z M255.9,123.7h-4.8v-4.8h4.8V123.7z"/>
			<path class="st102" d="M269.5,117.2H263c-0.5,0-0.9,0.4-0.9,0.9v6.5c0,0.5,0.4,0.9,0.9,0.9h6.5c0.5,0,0.9-0.4,0.9-0.9v-6.5
				C270.3,117.6,270,117.2,269.5,117.2z M268.6,123.7h-4.8v-4.8h4.8V123.7z"/>
			<path class="st102" d="M282.2,117.2h-6.5c-0.5,0-0.9,0.4-0.9,0.9v6.5c0,0.5,0.4,0.9,0.9,0.9h6.5c0.5,0,0.9-0.4,0.9-0.9v-6.5
				C283.1,117.6,282.7,117.2,282.2,117.2z M281.3,123.7h-4.8v-4.8h4.8V123.7z"/>
			<path class="st102" d="M496.4,84.1h-55.8c-0.5,0-0.8,0.4-0.8,0.8v8.5v47.2c0,0.5,0.4,0.8,0.8,0.8h55.8c0.5,0,0.8-0.4,0.8-0.8
				V93.4v-8.5C497.3,84.5,496.9,84.1,496.4,84.1z M441.5,85.8h54.1v6.8h-54.1V85.8z M495.6,139.7h-54.1V94.2h54.1V139.7z"/>
			<path class="st102" d="M444,89c-0.2,0.2-0.2,0.4-0.2,0.6c0,0.2,0.1,0.4,0.2,0.6c0.2,0.2,0.4,0.2,0.6,0.2c0.1,0,0.1,0,0.2,0
				l0.2-0.1l0.1-0.1l0.1-0.1c0.2-0.2,0.2-0.4,0.2-0.6c0-0.2-0.1-0.4-0.2-0.6C444.9,88.7,444.3,88.7,444,89z"/>
			<path class="st102" d="M451.4,88.8c-0.5,0-0.8,0.4-0.8,0.8s0.4,0.8,0.8,0.8c0.5,0,0.8-0.4,0.8-0.8S451.8,88.8,451.4,88.8z"/>
			<path class="st102" d="M458,88.8c-0.1,0-0.1,0-0.2,0l-0.1,0.1l-0.1,0.1l-0.1,0.1c0,0-0.1,0.1-0.1,0.1c0,0.1,0,0.1-0.1,0.2
				c0,0.1,0,0.1,0,0.2c0,0.2,0.1,0.4,0.2,0.6l0.1,0.1l0.1,0.1c0.1,0,0.1,0,0.2,0.1c0.1,0,0.1,0,0.2,0c0.1,0,0.1,0,0.2,0l0.2-0.1
				c0.1,0,0.1,0,0.1-0.1l0.1-0.1c0.2-0.2,0.2-0.4,0.2-0.6s-0.1-0.4-0.2-0.6C458.6,88.8,458.3,88.7,458,88.8z"/>
			<path class="st102" d="M452.4,130.3h23.8h8.4c0.3,0,0.6-0.2,0.7-0.4c0.1-0.3,0.1-0.6,0-0.9l-4.5-6.8l-4.5-6.8
				c-0.3-0.5-1.1-0.5-1.4,0l-3.2,4.9l-6.8-11.8c-0.2-0.3-0.4-0.4-0.7-0.4c-0.3,0-0.6,0.2-0.7,0.4L451.7,129c-0.2,0.3-0.2,0.6,0,0.8
				C451.9,130.1,452.1,130.3,452.4,130.3z M475.7,117.3l3.8,5.8l3.6,5.5h-6.4l-1.5-2.6l-2.4-4.2L475.7,117.3z M464.3,110.5l6.8,11.7
				l3.7,6.4h-20.9L464.3,110.5z"/>
			<path class="st102" d="M472,108c2.4,0,4.3-1.9,4.3-4.3c0-2.4-1.9-4.3-4.3-4.3c-2.4,0-4.3,1.9-4.3,4.3
				C467.7,106.1,469.6,108,472,108z M472,101.1c1.4,0,2.6,1.2,2.6,2.6s-1.2,2.6-2.6,2.6c-1.5,0-2.6-1.2-2.6-2.6
				S470.6,101.1,472,101.1z"/>
			<path class="st102" d="M447.7,8l-0.1,0.1c0,0-0.1,0.1-0.1,0.1s0,0.1-0.1,0.2c0,0.1,0,0.1,0,0.2c0,0.2,0.1,0.4,0.2,0.6
				c0.2,0.2,0.4,0.2,0.6,0.2c0.1,0,0.1,0,0.2,0l0.2,0c0.1,0,0.1-0.1,0.1-0.1l0.1-0.1c0.2-0.2,0.2-0.4,0.2-0.6c0-0.2-0.1-0.4-0.2-0.6
				C448.6,7.7,448.1,7.7,447.7,8z"/>
			<path class="st102" d="M455.1,7.8c-0.5,0-0.8,0.4-0.8,0.8c0,0.5,0.4,0.8,0.8,0.8c0.5,0,0.8-0.4,0.8-0.8
				C456,8.1,455.6,7.8,455.1,7.8z"/>
			<path class="st102" d="M462.7,8.3c0-0.1,0-0.1-0.1-0.1L462.5,8c-0.3-0.3-0.9-0.3-1.2,0c-0.2,0.2-0.2,0.4-0.2,0.6
				c0,0.2,0.1,0.4,0.2,0.6l0.1,0.1c0,0,0.1,0.1,0.1,0.1c0.1,0,0.1,0,0.2,0c0.1,0,0.1,0,0.2,0c0.2,0,0.4-0.1,0.6-0.2
				c0.2-0.2,0.2-0.4,0.2-0.6c0-0.1,0-0.1,0-0.2C462.7,8.4,462.7,8.3,462.7,8.3z"/>
			<path class="st102" d="M500.7,20h-17.5v-7.6V3.9c0-0.5-0.4-0.8-0.8-0.8h-37.9c-0.5,0-0.8,0.4-0.8,0.8v8.5v47.2
				c0,0.5,0.4,0.8,0.8,0.8h28.4c0.5,0,0.8-0.4,0.8-0.8v-8.7h8.7c0.5,0,0.8-0.4,0.8-0.8v-8h17.5c0.5,0,0.8-0.4,0.8-0.8V20.9
				C501.5,20.4,501.2,20,500.7,20z M445.2,4.8h36.3v6.8h-36.3V4.8z M481.5,49.2h-8.7c-0.5,0-0.8,0.4-0.8,0.8v8.7h-26.8V13.2h36.3V20
				h-28.1c-0.5,0-0.8,0.4-0.8,0.8v20.4c0,0.5,0.4,0.8,0.8,0.8h28.1V49.2z M499.9,40.4h-17.5h-28.1V21.7h28.1h17.5V40.4z"/>
			<path class="st102" d="M461.7,28.5c-2,0-3.6,1.6-3.6,3.6c0,2,1.6,3.6,3.6,3.6c2,0,3.6-1.6,3.6-3.6
				C465.2,30.1,463.6,28.5,461.7,28.5z M461.7,34c-1,0-1.9-0.8-1.9-1.9c0-1,0.9-1.9,1.9-1.9c1,0,1.9,0.9,1.9,1.9
				C463.6,33.1,462.7,34,461.7,34z"/>
			<path class="st102" d="M471,28.5c-2,0-3.6,1.6-3.6,3.6c0,2,1.6,3.6,3.6,3.6c2,0,3.6-1.6,3.6-3.6C474.6,30.1,473,28.5,471,28.5z
				 M471,34c-1,0-1.9-0.8-1.9-1.9c0-1,0.9-1.9,1.9-1.9c1,0,1.9,0.9,1.9,1.9C472.9,33.1,472.1,34,471,34z"/>
			<path class="st102" d="M476.8,32.1c0,2,1.6,3.6,3.6,3.6c2,0,3.6-1.6,3.6-3.6c0-2-1.6-3.6-3.6-3.6
				C478.4,28.5,476.8,30.1,476.8,32.1z M482.3,32.1c0,1-0.9,1.9-1.9,1.9s-1.9-0.8-1.9-1.9c0-1,0.9-1.9,1.9-1.9S482.3,31,482.3,32.1z
				"/>
			<path class="st102" d="M489.8,35.7c2,0,3.6-1.6,3.6-3.6c0-2-1.6-3.6-3.6-3.6c-2,0-3.6,1.6-3.6,3.6
				C486.2,34.1,487.8,35.7,489.8,35.7z M489.8,30.2c1,0,1.9,0.9,1.9,1.9c0,1-0.9,1.9-1.9,1.9c-1,0-1.9-0.8-1.9-1.9
				C487.9,31,488.7,30.2,489.8,30.2z"/>
			<path class="st102" d="M353.9,61V13.4V4.9c0-0.5-0.4-0.8-0.8-0.8h-55.9c-0.5,0-0.8,0.4-0.8,0.8v8.5V61c0,0.5,0.4,0.8,0.8,0.8
				h55.9C353.6,61.9,353.9,61.5,353.9,61z M298,5.7h54.3v6.9H298V5.7z M352.3,60.2H298V14.3h54.3V60.2z"/>
			<path class="st102" d="M301.6,8.9c0,0-0.1-0.1-0.1-0.1l-0.2-0.1c-0.3-0.1-0.6,0-0.8,0.2c-0.2,0.2-0.2,0.4-0.2,0.6
				c0,0.2,0.1,0.4,0.2,0.6c0.2,0.2,0.4,0.2,0.6,0.2c0.2,0,0.4-0.1,0.6-0.2c0.1-0.1,0.1-0.2,0.2-0.3c0-0.1,0.1-0.2,0.1-0.3
				c0-0.2-0.1-0.4-0.2-0.6L301.6,8.9z"/>
			<path class="st102" d="M307.9,8.8c-0.5,0-0.8,0.4-0.8,0.8s0.4,0.8,0.8,0.8c0.5,0,0.8-0.4,0.8-0.8S308.4,8.8,307.9,8.8z"/>
			<path class="st102" d="M315.2,8.9c0,0-0.1-0.1-0.1-0.1c-0.1,0-0.1,0-0.2-0.1c-0.3-0.1-0.6,0-0.8,0.2c-0.2,0.2-0.2,0.4-0.2,0.6
				c0,0.2,0.1,0.4,0.2,0.6c0.2,0.2,0.4,0.2,0.6,0.2c0.1,0,0.2,0,0.3-0.1c0.1,0,0.2-0.1,0.3-0.2c0.2-0.2,0.2-0.4,0.2-0.6
				c0-0.2-0.1-0.4-0.2-0.6L315.2,8.9z"/>
			<path class="st102" d="M342.5,22.8c-0.4-0.2-0.9,0-1.1,0.4l-2.7,6.3l-1.7-3.7c-0.2-0.4-0.7-0.6-1.1-0.4c-0.4,0.2-0.6,0.7-0.4,1.1
				L338,32c0.1,0.3,0.4,0.5,0.8,0.5h0c0.3,0,0.6-0.2,0.8-0.5l3.4-8.1C343.2,23.5,343,23,342.5,22.8z"/>
			<path class="st102" d="M331.7,35.1h14.2c0.5,0,0.8-0.4,0.8-0.8V20c0-0.5-0.4-0.8-0.8-0.8h-14.2c-0.5,0-0.8,0.4-0.8,0.8v14.2
				C330.8,34.7,331.2,35.1,331.7,35.1z M332.5,20.9h12.6v12.6h-12.6V20.9z"/>
			<path class="st102" d="M342.5,43.3c-0.4-0.2-0.9,0-1.1,0.4l-2.7,6.3l-1.7-3.7c-0.2-0.4-0.7-0.6-1.1-0.4c-0.4,0.2-0.6,0.7-0.4,1.1
				l2.5,5.4c0.1,0.3,0.4,0.5,0.8,0.5h0c0.3,0,0.6-0.2,0.8-0.5l3.4-8.1C343.2,44,343,43.5,342.5,43.3z"/>
			<path class="st102" d="M331.7,55.6h14.2c0.5,0,0.8-0.4,0.8-0.8V40.5c0-0.5-0.4-0.8-0.8-0.8h-14.2c-0.5,0-0.8,0.4-0.8,0.8v14.2
				C330.8,55.2,331.2,55.6,331.7,55.6z M332.5,41.4h12.6v12.6h-12.6V41.4z"/>
			<path class="st102" d="M304.1,25h22.1c0.5,0,0.8-0.4,0.8-0.8s-0.4-0.8-0.8-0.8h-22.1c-0.5,0-0.8,0.4-0.8,0.8S303.6,25,304.1,25z"
				/>
			<path class="st102" d="M304.1,30.3h22.1c0.5,0,0.8-0.4,0.8-0.8c0-0.5-0.4-0.8-0.8-0.8h-22.1c-0.5,0-0.8,0.4-0.8,0.8
				C303.3,29.9,303.6,30.3,304.1,30.3z"/>
			<path class="st102" d="M304.1,45.3h22.1c0.5,0,0.8-0.4,0.8-0.8c0-0.5-0.4-0.8-0.8-0.8h-22.1c-0.5,0-0.8,0.4-0.8,0.8
				C303.3,44.9,303.6,45.3,304.1,45.3z"/>
			<path class="st102" d="M304.1,50.6h22.1c0.5,0,0.8-0.4,0.8-0.8c0-0.5-0.4-0.8-0.8-0.8h-22.1c-0.5,0-0.8,0.4-0.8,0.8
				C303.3,50.2,303.6,50.6,304.1,50.6z"/>
			<path class="st102" d="M371.3,97.5h-18.1V77.1c0-0.5-0.4-0.8-0.8-0.8h-37.1c-0.5,0-0.8,0.4-0.8,0.8v27.8c0,0.5,0.4,0.8,0.8,0.8
				h4.9v8.5c0,0.4,0.2,0.7,0.6,0.8c0.1,0,0.2,0,0.3,0c0.3,0,0.5-0.1,0.7-0.4l6.2-9h7.3v19.3c0,0.5,0.4,0.8,0.8,0.8h23.7l5.4,7.8
				c0.2,0.2,0.4,0.4,0.7,0.4c0.1,0,0.2,0,0.2,0c0.4-0.1,0.6-0.4,0.6-0.8v-7.4h4.7c0.5,0,0.8-0.4,0.8-0.8V98.4
				C372.2,97.9,371.8,97.5,371.3,97.5z M327.5,104.1c-0.3,0-0.5,0.1-0.7,0.4l-4.9,7.1v-6.6c0-0.5-0.4-0.8-0.8-0.8h-4.9V78h35.5v19.6
				H336c-0.5,0-0.8,0.4-0.8,0.8v5.7H327.5z M370.5,124.2h-4.7c-0.5,0-0.8,0.4-0.8,0.8v5.5l-4.1-6c-0.2-0.2-0.4-0.4-0.7-0.4h-23.3
				v-19.3v-5.7h15.5h18.1V124.2z"/>
			<path class="st102" d="M326.1,88.1c-1.8,0-3.3,1.5-3.3,3.3c0,1.8,1.5,3.3,3.3,3.3c1.8,0,3.3-1.5,3.3-3.3
				C329.4,89.6,327.9,88.1,326.1,88.1z M326.1,93c-0.9,0-1.6-0.7-1.6-1.6s0.7-1.6,1.6-1.6c0.9,0,1.6,0.7,1.6,1.6S327,93,326.1,93z"
				/>
			<path class="st102" d="M337.1,91.4c0-1.8-1.5-3.3-3.3-3.3c-1.8,0-3.3,1.5-3.3,3.3c0,1.8,1.5,3.3,3.3,3.3
				C335.6,94.7,337.1,93.2,337.1,91.4z M333.8,93c-0.9,0-1.6-0.7-1.6-1.6s0.7-1.6,1.6-1.6c0.9,0,1.6,0.7,1.6,1.6S334.7,93,333.8,93z
				"/>
			<path class="st102" d="M341.5,94.7c1.8,0,3.3-1.5,3.3-3.3c0-1.8-1.5-3.3-3.3-3.3c-1.8,0-3.3,1.5-3.3,3.3
				C338.3,93.2,339.7,94.7,341.5,94.7z M341.5,89.8c0.9,0,1.6,0.7,1.6,1.6s-0.7,1.6-1.6,1.6s-1.6-0.7-1.6-1.6S340.7,89.8,341.5,89.8
				z"/>
			<path class="st102" d="M346.2,106.9c-1,1.1-1.5,2.6-1.3,4c0.6,5.5,8.1,9.5,8.4,9.7c0.1,0.1,0.3,0.1,0.4,0.1c0.1,0,0.3,0,0.4-0.1
				c0.3-0.2,7.8-4.2,8.4-9.7c0.2-1.5-0.3-2.9-1.3-4c-0.9-1-2.2-1.6-3.5-1.6c-1.6,0-3.1,1-4,2.4c-0.9-1.5-2.3-2.4-4-2.4
				C348.4,105.2,347.1,105.8,346.2,106.9z M352.8,110.8c0,0.5,0.4,0.8,0.8,0.8c0.5,0,0.8-0.4,0.8-0.8c0-2.2,1.4-3.9,3.1-3.9
				c0.8,0,1.6,0.4,2.3,1.1c0.7,0.7,1,1.7,0.9,2.7c-0.4,4-5.6,7.3-7.1,8.2c-1.5-0.9-6.7-4.2-7.1-8.2c-0.1-1,0.2-2,0.9-2.7
				c0.6-0.7,1.4-1.1,2.3-1.1C351.4,106.9,352.8,108.6,352.8,110.8z"/>
			<path class="st102" d="M348.7,108.4c-0.5,0-0.8,0.4-0.8,0.8s0.4,0.8,0.8,0.8s0.8-0.4,0.8-0.8S349.1,108.4,348.7,108.4z"/>
			<path class="st102" d="M121,36c-3.1-3-7.2-4.4-11.6-4.2c-7.7,0.5-14.1,6.9-14.4,14.7c-0.2,3.8,1.1,7.6,3.5,10.5
				c1.5,1.8,2.3,4.1,2.3,6.3v4.9v1.2c0,5,3.8,9.1,8.7,9.5l-0.1,4.7c0,0.5,0.4,0.9,0.8,0.9h0c0.5,0,0.8-0.4,0.9-0.8l0.1-4.8
				c4.9-0.4,8.7-4.5,8.7-9.5v-1.2v-4.8c0-2.4,0.8-4.6,2.2-6.3c2.4-2.8,3.6-6.3,3.6-10C125.9,43,124.1,38.9,121,36z M118.3,69.5
				c0,4.3-3.5,7.9-7.9,7.9c-4.3,0-7.9-3.5-7.9-7.9v-0.3h5.4h5h5.3V69.5z M108.7,67.4L105,45c0.3,0.2,0.6,0.3,1,0.3
				c0.9,0,1.4-0.5,1.7-0.9c0.3-0.3,0.3-0.3,0.5-0.3c0.2,0,0.2,0,0.5,0.3c0.3,0.3,0.8,0.9,1.7,0.9s1.4-0.5,1.7-0.9
				c0.3-0.3,0.3-0.3,0.5-0.3c0.2,0,0.2,0,0.5,0.3c0.3,0.3,0.8,0.9,1.7,0.9c0.4,0,0.8-0.1,1-0.3l-3.7,22.4H108.7z M120.9,56.1
				c-1.7,2-2.6,4.6-2.6,7.4v3.9H114l3.9-24c0,0,0,0,0-0.1c0,0,0,0,0-0.1c0,0,0-0.1,0-0.1c0-0.1,0-0.1,0-0.2c0-0.1,0-0.1-0.1-0.1
				c0,0-0.1-0.1-0.1-0.1c0,0-0.1-0.1-0.1-0.1c0,0-0.1-0.1-0.1-0.1c-0.1,0-0.1,0-0.2-0.1c0,0-0.1,0-0.1,0c0,0,0,0-0.1,0
				c0,0,0,0-0.1,0c-0.1,0-0.1,0-0.2,0c0,0,0,0-0.1,0c-0.8,0.1-1.2,0.5-1.5,0.8c-0.3,0.3-0.3,0.3-0.5,0.3c-0.2,0-0.2,0-0.5-0.3
				c-0.3-0.3-0.8-0.9-1.7-0.9c-0.9,0-1.4,0.5-1.7,0.9c-0.3,0.3-0.3,0.3-0.5,0.3c-0.2,0-0.2,0-0.5-0.3c-0.3-0.3-0.8-0.9-1.7-0.9
				c-0.9,0-1.4,0.5-1.7,0.9c-0.3,0.3-0.3,0.3-0.5,0.3c-0.2,0-0.2,0-0.5-0.3c-0.3-0.3-0.7-0.7-1.5-0.8c0,0,0,0-0.1,0
				c-0.1,0-0.1,0-0.2,0c0,0,0,0-0.1,0c0,0,0,0-0.1,0c0,0-0.1,0-0.1,0c-0.1,0-0.1,0-0.2,0.1c0,0-0.1,0.1-0.1,0.1c0,0-0.1,0.1-0.1,0.1
				c0,0-0.1,0.1-0.1,0.1c0,0-0.1,0.1-0.1,0.1c0,0.1,0,0.1,0,0.2c0,0,0,0.1,0,0.1c0,0,0,0,0,0.1c0,0,0,0,0,0.1l3.9,24h-4.4v-4.1
				c0-2.6-1-5.2-2.7-7.4c-2.2-2.6-3.3-6-3.1-9.4c0.3-6.9,6-12.6,12.8-13.1c3.8-0.2,7.5,1.1,10.3,3.7c2.8,2.6,4.3,6.2,4.3,10
				C124.1,50.5,123,53.6,120.9,56.1z"/>
			<path class="st102" d="M100.1,29.5c0.1,0,0.2,0,0.3-0.1c0.4-0.2,0.7-0.7,0.5-1.1c-0.2-0.4-0.7-0.7-1.1-0.5
				c-0.4,0.2-0.7,0.7-0.5,1.1C99.4,29.3,99.7,29.5,100.1,29.5z"/>
			<path class="st102" d="M125.9,32.5c0.1,0.1,0.3,0.1,0.5,0.1c0.3,0,0.5-0.1,0.7-0.4c0.3-0.4,0.2-0.9-0.2-1.2
				c-0.4-0.3-0.9-0.2-1.2,0.2C125.4,31.7,125.5,32.2,125.9,32.5L125.9,32.5z"/>
			<path class="st102" d="M82.6,55.3c0-0.5-0.4-0.9-0.9-0.9c-0.5,0-0.9,0.4-0.9,0.9c0,0.5,0.4,0.9,0.9,0.9
				C82.3,56.2,82.6,55.8,82.6,55.3z"/>
			<path class="st102" d="M106.7,27.9l0.1,0c0.5-0.1,0.8-0.5,0.8-1c-0.1-0.5-0.5-0.8-1-0.7c-0.5,0.1-0.8,0.5-0.7,1
				C105.9,27.5,106.3,27.9,106.7,27.9z"/>
			<path class="st102" d="M82.4,49.4c0.1,0,0.1,0,0.2,0c0.4,0,0.7-0.3,0.8-0.7c0.1-0.5-0.2-0.9-0.6-1c-0.5-0.1-0.9,0.2-1,0.6
				C81.6,48.8,81.9,49.2,82.4,49.4z"/>
			<path class="st102" d="M113.5,27.8L113.5,27.8c0.5,0,0.9-0.3,1-0.8c0.1-0.5-0.3-0.9-0.8-1c-0.5-0.1-0.9,0.3-1,0.8
				C112.7,27.3,113,27.8,113.5,27.8z"/>
			<path class="st102" d="M120,29.4c0.1,0,0.2,0.1,0.3,0.1c0.3,0,0.7-0.2,0.8-0.6c0.2-0.4-0.1-0.9-0.5-1.1c-0.4-0.2-0.9,0.1-1.1,0.5
				C119.3,28.7,119.5,29.2,120,29.4z"/>
			<path class="st102" d="M113.6,82.7c-0.5,0.1-0.8,0.5-0.8,1c0.1,0.4,0.4,0.8,0.9,0.8l0.1,0c0.5-0.1,0.8-0.5,0.8-1
				C114.5,83,114.1,82.6,113.6,82.7z"/>
			<path class="st102" d="M131,73.6c-0.3,0.3-0.3,0.9,0.1,1.2c0.2,0.1,0.4,0.2,0.6,0.2c0.2,0,0.5-0.1,0.6-0.3
				c0.3-0.3,0.3-0.9-0.1-1.2C131.8,73.2,131.3,73.2,131,73.6z"/>
			<path class="st102" d="M120.1,81.1c-0.4,0.2-0.7,0.7-0.5,1.1c0.1,0.3,0.5,0.6,0.8,0.6c0.1,0,0.2,0,0.3-0.1
				c0.4-0.2,0.7-0.7,0.5-1.1C121,81.2,120.5,80.9,120.1,81.1z"/>
			<path class="st102" d="M135.9,67.7c-0.4-0.2-0.9-0.1-1.2,0.4c-0.2,0.4-0.1,0.9,0.4,1.2c0.1,0.1,0.3,0.1,0.4,0.1
				c0.3,0,0.6-0.2,0.8-0.5C136.5,68.5,136.3,68,135.9,67.7z"/>
			<path class="st102" d="M131.5,37.2c0.2,0,0.4-0.1,0.6-0.2c0.4-0.3,0.4-0.9,0.1-1.2c-0.3-0.4-0.9-0.4-1.2-0.1
				c-0.4,0.3-0.4,0.9-0.1,1.2C131.1,37.1,131.3,37.2,131.5,37.2z"/>
			<path class="st102" d="M126,78c-0.4,0.3-0.5,0.8-0.2,1.2c0.2,0.2,0.4,0.4,0.7,0.4c0.2,0,0.3-0.1,0.5-0.2c0.4-0.3,0.5-0.8,0.2-1.2
				C126.9,77.8,126.4,77.7,126,78z"/>
			<path class="st102" d="M135.4,42.8c0.1,0,0.3,0,0.4-0.1c0.4-0.2,0.6-0.7,0.4-1.2c-0.2-0.4-0.7-0.6-1.2-0.4
				c-0.4,0.2-0.6,0.7-0.4,1.2C134.8,42.6,135.1,42.8,135.4,42.8z"/>
			<path class="st102" d="M138.8,54.3c-0.5,0-0.9,0.4-0.9,0.9v0.1v0.1c0,0.5,0.4,0.9,0.9,0.9c0.5,0,0.9-0.4,0.9-0.9v-0.1v-0.1
				C139.6,54.7,139.2,54.3,138.8,54.3z"/>
			<path class="st102" d="M82.4,61.3c-0.5,0.1-0.7,0.6-0.6,1c0.1,0.4,0.4,0.6,0.8,0.6c0.1,0,0.1,0,0.2,0c0.5-0.1,0.7-0.6,0.6-1
				C83.3,61.5,82.9,61.2,82.4,61.3z"/>
			<path class="st102" d="M137.9,49.2c0.1,0,0.1,0,0.2,0c0.5-0.1,0.7-0.6,0.6-1c-0.1-0.5-0.6-0.7-1-0.6c-0.5,0.1-0.7,0.6-0.6,1
				C137.2,48.9,137.5,49.2,137.9,49.2z"/>
			<path class="st102" d="M138.1,61.3c-0.5-0.1-0.9,0.2-1,0.6c-0.1,0.5,0.2,0.9,0.6,1c0.1,0,0.1,0,0.2,0c0.4,0,0.7-0.3,0.8-0.7
				C138.9,61.8,138.6,61.4,138.1,61.3z"/>
			<path class="st102" d="M89.6,73.6c-0.3-0.4-0.9-0.4-1.2-0.1s-0.4,0.9-0.1,1.2c0.2,0.2,0.4,0.3,0.6,0.3c0.2,0,0.4-0.1,0.6-0.2
				C89.9,74.5,89.9,74,89.6,73.6L89.6,73.6z"/>
			<path class="st102" d="M84.6,42.8c0.1,0.1,0.3,0.1,0.4,0.1c0.3,0,0.6-0.2,0.8-0.5c0.2-0.4,0.1-0.9-0.4-1.2
				c-0.4-0.2-0.9-0.1-1.2,0.4C84,42.1,84.2,42.6,84.6,42.8z"/>
			<path class="st102" d="M88.9,37.3c0.2,0,0.5-0.1,0.6-0.3c0.3-0.4,0.3-0.9-0.1-1.2c-0.4-0.3-0.9-0.3-1.2,0.1
				c-0.3,0.4-0.3,0.9,0.1,1.2C88.5,37.2,88.7,37.3,88.9,37.3z"/>
			<path class="st102" d="M94,32.7c0.2,0,0.3,0,0.5-0.1h0c0.4-0.3,0.5-0.8,0.2-1.2c-0.3-0.4-0.8-0.5-1.2-0.2
				c-0.4,0.3-0.5,0.8-0.2,1.2C93.5,32.6,93.7,32.7,94,32.7z"/>
			<path class="st102" d="M84.7,67.8c-0.4,0.2-0.6,0.7-0.4,1.2c0.2,0.3,0.5,0.5,0.8,0.5c0.1,0,0.3,0,0.4-0.1
				c0.4-0.2,0.6-0.7,0.4-1.2C85.6,67.7,85.1,67.6,84.7,67.8z"/>
			<path class="st102" d="M107,82.7c-0.5-0.1-0.9,0.3-1,0.8c-0.1,0.5,0.3,0.9,0.8,1l0.1,0c0.4,0,0.8-0.3,0.9-0.8
				C107.8,83.2,107.4,82.8,107,82.7z"/>
			<path class="st102" d="M100.5,81.1c-0.4-0.2-0.9,0.1-1.1,0.5c-0.2,0.4,0.1,0.9,0.5,1.1c0.1,0,0.2,0.1,0.3,0.1
				c0.3,0,0.7-0.2,0.8-0.6C101.2,81.8,100.9,81.3,100.5,81.1z"/>
			<path class="st102" d="M93.4,78.3c-0.3,0.4-0.2,0.9,0.2,1.2c0.1,0.1,0.3,0.1,0.5,0.1c0.3,0,0.5-0.1,0.7-0.4
				c0.3-0.4,0.2-0.9-0.2-1.2C94.2,77.8,93.7,77.9,93.4,78.3z"/>
			<path class="st102" d="M429.2,34.6c-8.5-3.1-18.2-3.1-26.7-0.1c-8.5-3-18.2-3-26.7,0.1c-0.3,0.1-0.5,0.4-0.5,0.7v32.3
				c0,0.3,0.1,0.5,0.3,0.6c0.2,0.1,0.5,0.2,0.7,0.1c8-2.9,17.2-3,25.4-0.2v15.9c-0.6-1.1-1.2-2.9-1.2-5.8c0-6.7-13.1-8.5-13.6-8.6
				c-0.4,0-0.7,0.2-0.8,0.5c-0.1,0.3,0,0.7,0.3,0.9c0,0,2.3,1.6,2.3,7.1c0,6.7,13.1,8.5,13.6,8.6l0.1,0l0.1,0
				c0.6-0.1,13.6-1.9,13.6-8.6c0-5.5,2.3-7.1,2.3-7.1c0.3-0.2,0.4-0.6,0.3-0.9c-0.1-0.3-0.5-0.6-0.8-0.5c-0.6,0.1-13.6,1.9-13.6,8.6
				c0,2.4-0.4,4.1-0.9,5.2V68.2c8.1-2.8,17.3-2.8,25.4,0.2c0.1,0,0.2,0,0.3,0c0.2,0,0.3-0.1,0.5-0.1c0.2-0.2,0.3-0.4,0.3-0.6V35.4
				C429.8,35.1,429.5,34.8,429.2,34.6z M390.2,78.4c0-3.2-0.7-5.4-1.5-6.7c4,0.9,10.2,3,10.2,6.7c0,3.2,0.7,5.4,1.5,6.7
				C396.4,84.2,390.2,82.1,390.2,78.4z M405.8,78.4c0-3.7,6.2-5.8,10.2-6.7c-0.7,1.3-1.5,3.4-1.5,6.7c0,3.7-6.2,5.8-10.2,6.7
				C405.1,83.7,405.8,81.6,405.8,78.4z M389.3,64.6c-4.2,0-8.4,0.7-12.4,2V36c7.9-2.7,16.9-2.7,24.8,0v30v0.5
				C397.7,65.2,393.5,64.6,389.3,64.6z M428.2,66.5c-4-1.3-8.2-2-12.4-2c-4.2,0-8.4,0.7-12.4,2V36c7.9-2.7,16.9-2.7,24.8,0V66.5z"/>
			<path class="st102" d="M380.3,41.6c0.1,0,0.2,0,0.3-0.1c2.7-1.1,5.6-1.7,8.7-1.7c0.4,0,0.8-0.4,0.8-0.8c0-0.4-0.4-0.8-0.8-0.8
				c-3.2,0-6.3,0.6-9.2,1.8c-0.4,0.2-0.6,0.6-0.4,1C379.7,41.4,380,41.6,380.3,41.6z"/>
			<path class="st102" d="M398.5,46.7c-5.9-2.4-12.6-2.4-18.5,0c-0.4,0.2-0.6,0.6-0.4,1c0.2,0.4,0.6,0.6,1,0.4
				c5.5-2.2,11.8-2.2,17.3,0c0.1,0,0.2,0.1,0.3,0.1c0.3,0,0.6-0.2,0.7-0.5C399.1,47.3,398.9,46.8,398.5,46.7z"/>
			<path class="st102" d="M398.5,53.3c-5.9-2.4-12.6-2.4-18.5,0c-0.4,0.2-0.6,0.6-0.4,1c0.2,0.4,0.6,0.6,1,0.4
				c5.5-2.2,11.8-2.2,17.3,0c0.1,0,0.2,0.1,0.3,0.1c0.3,0,0.6-0.2,0.7-0.5C399.1,53.9,398.9,53.5,398.5,53.3z"/>
			<path class="st102" d="M398.5,59.9c-5.9-2.4-12.6-2.4-18.5,0c-0.4,0.2-0.6,0.6-0.4,1c0.2,0.4,0.6,0.6,1,0.4
				c5.5-2.2,11.8-2.2,17.3,0c0.1,0,0.2,0.1,0.3,0.1c0.3,0,0.6-0.2,0.7-0.5C399.1,60.5,398.9,60.1,398.5,59.9z"/>
			<path class="st102" d="M405.9,40.1c-0.4,0.2-0.6,0.6-0.4,1c0.1,0.3,0.4,0.5,0.7,0.5c0.1,0,0.2,0,0.3-0.1c2.7-1.1,5.6-1.7,8.7-1.7
				c3,0,5.9,0.6,8.7,1.7c0.4,0.2,0.9,0,1-0.4c0.2-0.4,0-0.9-0.4-1c-2.9-1.2-6-1.8-9.2-1.8C411.9,38.3,408.8,38.9,405.9,40.1z"/>
			<path class="st102" d="M424.4,46.7c-5.9-2.4-12.6-2.4-18.5,0c-0.4,0.2-0.6,0.6-0.4,1c0.2,0.4,0.6,0.6,1,0.4
				c5.5-2.2,11.8-2.2,17.3,0c0.1,0,0.2,0.1,0.3,0.1c0.3,0,0.6-0.2,0.7-0.5C425,47.3,424.8,46.8,424.4,46.7z"/>
			<path class="st102" d="M424.4,53.3c-5.9-2.4-12.6-2.4-18.5,0c-0.4,0.2-0.6,0.6-0.4,1c0.2,0.4,0.6,0.6,1,0.4
				c5.5-2.2,11.8-2.2,17.3,0c0.1,0,0.2,0.1,0.3,0.1c0.3,0,0.6-0.2,0.7-0.5C425,53.9,424.8,53.5,424.4,53.3z"/>
			<path class="st102" d="M424.4,59.9c-5.9-2.4-12.6-2.4-18.5,0c-0.4,0.2-0.6,0.6-0.4,1c0.2,0.4,0.6,0.6,1,0.4
				c5.5-2.2,11.8-2.2,17.3,0c0.1,0,0.2,0.1,0.3,0.1c0.3,0,0.6-0.2,0.7-0.5C425,60.5,424.8,60.1,424.4,59.9z"/>
		</g>
		<g style="clip-path:url(#SVGID_1_);">
			<path class="st14" d="M81.2,53.6l-2.6,3.3c-1.9-2.1-4.7-3.4-7.4-3.4c-5.3,0-9.5,4.1-9.5,9.3s4.2,9.4,9.5,9.4
				c2.7,0,5.4-1.2,7.4-3.2l2.7,3c-2.7,2.7-6.5,4.4-10.3,4.4c-7.8,0-13.8-5.9-13.8-13.5c0-7.6,6.1-13.4,14-13.4
				C74.8,49.5,78.6,51,81.2,53.6z"/>
			<path class="st14" d="M111.2,62.9c0,7.6-6.2,13.5-14.1,13.5S83,70.5,83,62.9c0-7.6,6.2-13.4,14.1-13.4S111.2,55.3,111.2,62.9z
				 M87.6,62.9c0,5.3,4.4,9.5,9.6,9.5s9.5-4.2,9.5-9.5s-4.3-9.4-9.5-9.4C91.9,53.5,87.6,57.6,87.6,62.9z"/>
			<path class="st14" d="M134.6,76.2l-14.2-19.1v19.1H116V49.6h4.4l14.2,19.1V49.6h4.4v26.6H134.6z"/>
			<path class="st14" d="M155.8,53.6v22.6h-4.5V53.6h-8.4v-4h21.3v4H155.8z"/>
			<path class="st14" d="M172.6,53.6v7.2h13v4h-13v7.3h15v4h-19.5V49.6h19v4H172.6z"/>
			<path class="st14" d="M211.7,76.2l-14.2-19.1v19.1H193V49.6h4.4l14.2,19.1V49.6h4.4v26.6H211.7z"/>
			<path class="st14" d="M232.8,53.6v22.6h-4.5V53.6h-8.4v-4h21.3v4H232.8z"/>
			<path class="st14" d="M276.8,53.6l-2.6,3.3c-1.9-2.1-4.7-3.4-7.4-3.4c-5.3,0-9.5,4.1-9.5,9.3s4.2,9.4,9.5,9.4
				c2.7,0,5.4-1.2,7.4-3.2l2.7,3c-2.7,2.7-6.5,4.4-10.3,4.4c-7.8,0-13.8-5.9-13.8-13.5c0-7.6,6.1-13.4,14-13.4
				C270.4,49.5,274.2,51,276.8,53.6z"/>
			<path class="st14" d="M293.4,68.1c-0.4,0-0.8,0-1.2,0h-6.3v8h-4.5V49.6h10.8c6.8,0,10.7,3.3,10.7,9.1c0,4.3-2,7.3-5.5,8.6l6,8.9
				h-5.1L293.4,68.1z M292.2,64.1c4.1,0,6.5-1.7,6.5-5.4c0-3.5-2.4-5.2-6.5-5.2h-6.3v10.5H292.2z"/>
			<path class="st14" d="M313.3,53.6v7.2h13v4h-13v7.3h15v4h-19.5V49.6h19v4H313.3z"/>
			<path class="st14" d="M337.6,70.2l-2.5,6h-4.7l11.7-26.6h4.6l11.6,26.6h-4.8l-2.5-6H337.6z M344.2,54.4l-5,11.8h10L344.2,54.4z"
				/>
			<path class="st14" d="M368.9,53.6v22.6h-4.5V53.6h-8.4v-4h21.3v4H368.9z"/>
			<path class="st14" d="M405.6,62.9c0,7.6-6.2,13.5-14.1,13.5s-14.1-5.9-14.1-13.5c0-7.6,6.2-13.4,14.1-13.4S405.6,55.3,405.6,62.9
				z M382,62.9c0,5.3,4.4,9.5,9.6,9.5s9.5-4.2,9.5-9.5s-4.3-9.4-9.5-9.4C386.3,53.5,382,57.6,382,62.9z"/>
			<path class="st14" d="M422.4,68.1c-0.4,0-0.8,0-1.2,0h-6.3v8h-4.5V49.6h10.8c6.8,0,10.7,3.3,10.7,9.1c0,4.3-2,7.3-5.5,8.6l6,8.9
				h-5.1L422.4,68.1z M421.2,64.1c4.1,0,6.5-1.7,6.5-5.4c0-3.5-2.4-5.2-6.5-5.2h-6.3v10.5H421.2z"/>
			<path class="st14" d="M455.9,52.1l-1.9,4c-2.9-1.7-5.8-2.5-7.8-2.5c-2.6,0-4.3,1-4.3,2.8c0,5.8,14.4,2.7,14.3,12.3
				c0,4.7-4.2,7.7-10,7.7c-4.2,0-8.1-1.7-10.9-4.2l1.9-3.9c2.7,2.5,6.2,3.9,9,3.9c3.1,0,5-1.2,5-3.2c0-5.9-14.4-2.6-14.4-12.1
				c0-4.6,3.9-7.4,9.7-7.4C450.1,49.4,453.5,50.5,455.9,52.1z"/>
		</g>
	</g>
</g>
</svg>
