<?xml version="1.0" encoding="UTF-8"?>
<svg width="25px" height="25px" viewBox="0 0 25 25" version="1.1" xmlns="http://www.w3.org/2000/svg" xmlns:xlink="http://www.w3.org/1999/xlink">
    <!-- Generator: Sketch 51.1 (57501) - http://www.bohemiancoding.com/sketch -->
    <title>Component/Icon/Create</title>
    <desc>Created with Sketch.</desc>
    <defs></defs>
    <g id="Symbols" stroke="none" stroke-width="1" fill="none" fill-rule="evenodd">
        <g id="Icon/25/post">
            <g id="Component/Icon/Create">
                <g>
                    <circle id="Path" fill="#33CCFF" cx="12.5" cy="12.5" r="12.5"></circle>
                    <path d="M13.2589286,15.6547619 L14.3377976,14.5758929 L12.9241071,13.1622024 L11.8452381,14.2410714 L11.8452381,14.7619048 L12.7380952,14.7619048 L12.7380952,15.6547619 L13.2589286,15.6547619 Z M17.3418899,9.26525298 C17.4472972,9.1598457 17.4503973,9.05754018 17.3511905,8.95833333 C17.2519836,8.85912649 17.1496781,8.86222666 17.0442708,8.96763393 L13.7890625,12.2228423 C13.6836552,12.3282495 13.6805551,12.4305551 13.7797619,12.5297619 C13.8789687,12.6289688 13.9812743,12.6258686 14.0866815,12.5204613 L17.3418899,9.26525298 Z M18.0952381,14.4828869 L18.0952381,16.25 C18.0952381,16.9878509 17.8332739,17.618735 17.3093378,18.1426711 C16.7854016,18.6666073 16.1545176,18.9285714 15.4166667,18.9285714 L7.67857143,18.9285714 C6.94072052,18.9285714 6.30983645,18.6666073 5.7859003,18.1426711 C5.26196415,17.618735 5,16.9878509 5,16.25 L5,8.51190476 C5,7.77405385 5.26196415,7.14316978 5.7859003,6.61923363 C6.30983645,6.09529748 6.94072052,5.83333333 7.67857143,5.83333333 L15.4166667,5.83333333 C15.8072936,5.83333333 16.1700132,5.91083752 16.5048363,6.06584821 C16.5978427,6.10925121 16.6536457,6.18055506 16.672247,6.2797619 C16.6908483,6.38516918 16.6629468,6.47507403 16.5885417,6.54947917 L16.1328125,7.00520833 C16.0460065,7.09201432 15.9468012,7.11681566 15.8351935,7.0796131 C15.6925836,7.04241053 15.5530761,7.02380952 15.4166667,7.02380952 L7.67857143,7.02380952 C7.26934319,7.02380952 6.91902427,7.16951739 6.62760417,7.4609375 C6.33618406,7.75235761 6.19047619,8.10267653 6.19047619,8.51190476 L6.19047619,16.25 C6.19047619,16.6592282 6.33618406,17.0095472 6.62760417,17.3009673 C6.91902427,17.5923874 7.26934319,17.7380952 7.67857143,17.7380952 L15.4166667,17.7380952 C15.8258949,17.7380952 16.1762138,17.5923874 16.4676339,17.3009673 C16.759054,17.0095472 16.9047619,16.6592282 16.9047619,16.25 L16.9047619,15.078125 C16.9047619,14.9975194 16.9326634,14.9293158 16.9884673,14.8735119 L17.5837054,14.2782738 C17.6767118,14.1852674 17.7852176,14.1635662 17.9092262,14.2131696 C18.0332347,14.2627731 18.0952381,14.3526779 18.0952381,14.4828869 Z M17.202381,7.61904762 L19.8809524,10.297619 L13.6309524,16.547619 L10.952381,16.547619 L10.952381,13.8690476 L17.202381,7.61904762 Z M21.3318452,8.84672619 L20.4761905,9.70238095 L17.797619,7.02380952 L18.6532738,6.16815476 C18.8268858,5.99454278 19.0376972,5.9077381 19.2857143,5.9077381 C19.5337314,5.9077381 19.7445428,5.99454278 19.9181548,6.16815476 L21.3318452,7.58184524 C21.5054572,7.75545722 21.5922619,7.9662686 21.5922619,8.21428571 C21.5922619,8.46230283 21.5054572,8.67311421 21.3318452,8.84672619 Z" id="ï„" fill="#FFFFFF"></path>
                </g>
            </g>
        </g>
    </g>
</svg>