<?xml version="1.0" encoding="UTF-8"?>
<svg width="25px" height="25px" viewBox="0 0 25 25" version="1.1" xmlns="http://www.w3.org/2000/svg" xmlns:xlink="http://www.w3.org/1999/xlink">
    <!-- Generator: Sketch 51.1 (57501) - http://www.bohemiancoding.com/sketch -->
    <title>Component/Icon/Deliver</title>
    <desc>Created with Sketch.</desc>
    <defs></defs>
    <g id="Symbols" stroke="none" stroke-width="1" fill="none" fill-rule="evenodd">
        <g id="Icon/25/deliver">
            <g id="Component/Icon/Deliver">
                <circle id="Oval-Copy" fill="#33CCFF" fill-rule="nonzero" cx="12.5" cy="12.5" r="12.5"></circle>
                <path d="M7.20238095,15.3571429 C6.79315272,15.3571429 6.4428338,15.211435 6.15141369,14.9200149 C5.85999358,14.6285948 5.71428571,14.2782759 5.71428571,13.8690476 L5.71428571,7.32142857 C5.71428571,6.91220033 5.85999358,6.56188142 6.15141369,6.27046131 C6.4428338,5.9790412 6.79315272,5.83333333 7.20238095,5.83333333 L17.3214286,5.83333333 C17.7306568,5.83333333 18.0809757,5.9790412 18.3723958,6.27046131 C18.6638159,6.56188142 18.8095238,6.91220033 18.8095238,7.32142857 L18.8095238,13.8690476 C18.8095238,14.2782759 18.6638159,14.6285948 18.3723958,14.9200149 C18.0809757,15.211435 17.7306568,15.3571429 17.3214286,15.3571429 L7.20238095,15.3571429 Z M6.9047619,7.32142857 L6.9047619,13.8690476 C6.9047619,13.9496532 6.9342135,14.0194069 6.99311756,14.078311 C7.05202162,14.1372151 7.12177539,14.1666667 7.20238095,14.1666667 L17.3214286,14.1666667 C17.4020341,14.1666667 17.4717879,14.1372151 17.530692,14.078311 C17.589596,14.0194069 17.6190476,13.9496532 17.6190476,13.8690476 L17.6190476,7.32142857 C17.6190476,7.24082301 17.589596,7.17106924 17.530692,7.11216518 C17.4717879,7.05326111 17.4020341,7.02380952 17.3214286,7.02380952 L7.20238095,7.02380952 C7.12177539,7.02380952 7.05202162,7.05326111 6.99311756,7.11216518 C6.9342135,7.17106924 6.9047619,7.24082301 6.9047619,7.32142857 Z M3.33333333,15.952381 L21.1904762,15.952381 L21.1904762,16.8452381 C21.1904762,17.0932552 21.0447683,17.3040666 20.7533482,17.4776786 C20.4619281,17.6512906 20.1116092,17.7380952 19.702381,17.7380952 L4.82142857,17.7380952 C4.41220033,17.7380952 4.06188142,17.6512906 3.77046131,17.4776786 C3.4790412,17.3040666 3.33333333,17.0932552 3.33333333,16.8452381 L3.33333333,15.952381 Z M13.0059524,16.8452381 C13.1051592,16.8452381 13.1547619,16.7956354 13.1547619,16.6964286 C13.1547619,16.5972217 13.1051592,16.547619 13.0059524,16.547619 L11.5178571,16.547619 C11.4186503,16.547619 11.3690476,16.5972217 11.3690476,16.6964286 C11.3690476,16.7956354 11.4186503,16.8452381 11.5178571,16.8452381 L13.0059524,16.8452381 Z" id="laptop---FontAwesome" fill="#FFFFFF"></path>
            </g>
        </g>
    </g>
</svg>