<?xml version="1.0" encoding="utf-8"?>
<!-- Generator: Adobe Illustrator 22.0.1, SVG Export Plug-In . SVG Version: 6.00 Build 0)  -->
<svg version="1.1" xmlns="http://www.w3.org/2000/svg" xmlns:xlink="http://www.w3.org/1999/xlink" x="0px" y="0px"
	 viewBox="0 0 513.8 118.3" style="enable-background:new 0 0 513.8 118.3;" xml:space="preserve">
<style type="text/css">
	.st0{display:none;}
	.st1{display:inline;fill:#33CCFF;}
	.st2{display:none;opacity:0.5;}
	.st3{display:inline;}
	.st4{opacity:0.5;fill:#33CCFF;}
	.st5{display:inline;opacity:0.5;}
	.st6{fill:#33CCFF;}
	.st7{fill:url(#SVGID_1_);}
	.st8{fill:url(#SVGID_2_);}
	.st9{fill:url(#SVGID_3_);}
	.st10{fill:url(#SVGID_4_);}
	.st11{fill:url(#SVGID_5_);}
	.st12{fill:url(#SVGID_6_);}
	.st13{fill:url(#SVGID_7_);}
	.st14{fill:#FFFFFF;}
	.st15{fill:#0099CC;}
	.st16{fill:#33CAFF;}
	.st17{opacity:5.000000e-02;fill:#F8F9F9;}
	.st18{fill:#00FFCA;}
	.st19{fill:#F5F5F5;}
	.st20{fill:#F2F2F2;}
	.st21{opacity:0.9;fill:#00FFFF;}
	.st22{fill:#15EBD6;}
	.st23{fill:#FFDB15;}
	.st24{fill:#FF99FF;}
	.st25{fill:#3366FF;}
	.st26{fill:#D1D1D1;}
	.st27{opacity:0.3;fill:#15EBD6;}
	.st28{fill:#919D9D;}
	.st29{fill:#FF6666;}
	.st30{opacity:0.1;fill:#33CCFF;}
	.st31{opacity:0.2;fill:#33CCFF;}
	.st32{opacity:5.000000e-02;fill:#33CCFF;}
	.st33{opacity:0.95;fill:#33CCFF;}
	.st34{opacity:0.9;fill:#33CCFF;}
	.st35{opacity:0.7;fill:#33CCFF;}
	.st36{opacity:0.6;fill:#33CCFF;}
	.st37{opacity:0.8;fill:#33CCFF;}
	.st38{opacity:0.3;fill:#33CCFF;}
	.st39{opacity:0.4;fill:#33CCFF;}
	.st40{fill:url(#SVGID_8_);}
	.st41{fill:url(#SVGID_9_);}
	.st42{fill:url(#SVGID_10_);}
	.st43{fill:url(#SVGID_11_);}
	.st44{fill:url(#SVGID_12_);}
	.st45{fill:url(#SVGID_13_);}
	.st46{fill:url(#SVGID_14_);}
	.st47{fill:url(#SVGID_15_);}
	.st48{fill:url(#SVGID_16_);}
	.st49{fill:url(#SVGID_17_);}
	.st50{fill:url(#SVGID_18_);}
	.st51{fill:url(#SVGID_19_);}
	.st52{fill:url(#SVGID_20_);}
	.st53{fill:url(#SVGID_21_);}
	.st54{fill:url(#SVGID_22_);}
	.st55{fill:url(#SVGID_23_);}
	.st56{fill:url(#SVGID_24_);}
	.st57{fill:#485F64;}
	.st58{fill:#9C9C9C;}
	.st59{fill:#221F1F;}
	.st60{fill:#06BC65;}
	.st61{fill:#1E1E1E;}
	.st62{fill:#FFFF5A;}
	.st63{fill:#F05A2A;}
	.st64{fill:#D661AA;}
	.st65{fill:#F7EA2F;}
	.st66{fill:#26A7DF;}
	.st67{fill:#EFE92B;}
	.st68{fill:#F9A0DC;}
	.st69{fill:#FF3951;}
	.st70{fill:#4EDCCA;}
	.st71{fill:#FFC600;}
	.st72{clip-path:url(#SVGID_26_);}
	.st73{clip-path:url(#SVGID_28_);}
	.st74{fill:#0078BF;}
	.st75{clip-path:url(#SVGID_30_);}
	.st76{clip-path:url(#SVGID_32_);}
	.st77{fill:#F9A4D8;}
	.st78{clip-path:url(#SVGID_34_);}
	.st79{clip-path:url(#SVGID_36_);}
	.st80{fill:url(#SVGID_37_);}
	.st81{fill:url(#SVGID_38_);}
	.st82{clip-path:url(#SVGID_40_);}
	.st83{clip-path:url(#SVGID_42_);}
	.st84{clip-path:url(#SVGID_44_);}
	.st85{clip-path:url(#SVGID_46_);}
	.st86{clip-path:url(#SVGID_48_);}
	.st87{clip-path:url(#SVGID_50_);}
	.st88{fill:url(#SVGID_51_);}
	.st89{fill:url(#SVGID_52_);}
	.st90{fill:url(#SVGID_53_);}
	.st91{fill:url(#SVGID_54_);}
	.st92{fill:url(#SVGID_55_);}
	.st93{fill:url(#SVGID_56_);}
	.st94{fill:url(#SVGID_57_);}
	.st95{fill:url(#SVGID_58_);}
	.st96{fill:#363636;}
	.st97{fill:#474747;}
	.st98{fill:#444444;}
	.st99{fill:#5E5E5E;}
	.st100{clip-path:url(#SVGID_60_);fill:url(#SVGID_61_);}
	.st101{clip-path:url(#SVGID_60_);}
	.st102{opacity:0.5;fill:#009DC1;}
	.st103{clip-path:url(#SVGID_63_);fill:url(#SVGID_64_);}
	.st104{opacity:0.5;clip-path:url(#SVGID_63_);}
	.st105{clip-path:url(#SVGID_63_);}
	.st106{clip-path:url(#SVGID_66_);fill:url(#SVGID_67_);}
	.st107{opacity:0.77;clip-path:url(#SVGID_66_);}
	.st108{fill:#038478;}
	.st109{clip-path:url(#SVGID_66_);}
	.st110{clip-path:url(#SVGID_69_);fill:url(#SVGID_70_);}
	.st111{opacity:0.5;clip-path:url(#SVGID_69_);}
	.st112{fill:#EA3D3D;}
	.st113{clip-path:url(#SVGID_69_);}
	.st114{clip-path:url(#SVGID_72_);fill:url(#SVGID_73_);}
	.st115{clip-path:url(#SVGID_72_);}
	.st116{opacity:0.47;}
	.st117{fill:#29B29E;}
	.st118{opacity:0.3;}
	.st119{clip-path:url(#SVGID_75_);fill:url(#SVGID_76_);}
	.st120{opacity:0.5;clip-path:url(#SVGID_75_);}
	.st121{clip-path:url(#SVGID_75_);}
</style>
<g id="Layer_3" class="st0">
</g>
<g id="Layer_2" class="st2">
</g>
<g id="Layer_1">
	<g>
		<defs>
			<rect id="SVGID_62_" width="513.8" height="118.3"/>
		</defs>
		<clipPath id="SVGID_1_">
			<use xlink:href="#SVGID_62_"  style="overflow:visible;"/>
		</clipPath>
		<linearGradient id="SVGID_2_" gradientUnits="userSpaceOnUse" x1="0" y1="59.1443" x2="513.7979" y2="59.1443">
			<stop  offset="0" style="stop-color:#33CCFF"/>
			<stop  offset="1" style="stop-color:#F9A4D8"/>
		</linearGradient>
		<rect style="clip-path:url(#SVGID_1_);fill:url(#SVGID_2_);" width="513.8" height="118.3"/>
		<g style="opacity:0.5;clip-path:url(#SVGID_1_);">
			<g>
				<path class="st74" d="M28.7,43.3v0.3c0,4.3,3.5,7.9,7.9,7.9c4.3,0,7.9-3.5,7.9-7.9v-0.3H28.7L28.7,43.3z M36.5,53.3
					c-5.3,0-9.6-4.3-9.6-9.6v-1.2c0-0.5,0.4-0.9,0.9-0.9h17.5c0.5,0,0.9,0.4,0.9,0.9v1.2C46.1,49,41.8,53.3,36.5,53.3L36.5,53.3z"/>
				<path class="st74" d="M28.7,41.6h15.7v-3.9c0-2.8,0.9-5.4,2.6-7.4c2.1-2.5,3.2-5.6,3.2-8.9c0-3.8-1.5-7.4-4.3-10
					c-2.8-2.6-6.4-3.9-10.3-3.7c-6.9,0.4-12.5,6.2-12.8,13.1c-0.2,3.4,1,6.7,3.1,9.4c1.8,2.1,2.7,4.8,2.7,7.4V41.6L28.7,41.6z
					 M45.3,43.3H27.8c-0.5,0-0.9-0.4-0.9-0.9v-4.9c0-2.2-0.8-4.5-2.3-6.3c-2.4-3-3.7-6.7-3.5-10.5C21.4,13,27.8,6.5,35.5,6
					c4.3-0.3,8.4,1.2,11.6,4.2c3.1,2.9,4.9,7,4.9,11.3c0,3.6-1.3,7.2-3.6,10c-1.4,1.7-2.2,3.9-2.2,6.3v4.8
					C46.1,43,45.7,43.3,45.3,43.3L45.3,43.3z"/>
				<path class="st74" d="M39.1,43.3h-5c-0.4,0-0.8-0.3-0.8-0.7l-4.1-25c-0.1-0.5,0.2-0.9,0.7-1c0.5-0.1,0.9,0.2,1,0.7l4,24.3h3.5
					l4-24.3c0.1-0.5,0.5-0.8,1-0.7c0.5,0.1,0.8,0.5,0.7,1l-4.1,25C39.8,43,39.5,43.3,39.1,43.3L39.1,43.3z"/>
				<path class="st74" d="M41,19.5c-0.9,0-1.4-0.5-1.7-0.9c-0.3-0.3-0.3-0.3-0.5-0.3c-0.2,0-0.2,0-0.5,0.3c-0.3,0.3-0.8,0.9-1.7,0.9
					c-0.9,0-1.4-0.5-1.7-0.9c-0.3-0.3-0.3-0.3-0.5-0.3c-0.2,0-0.2,0-0.5,0.3c-0.3,0.3-0.8,0.9-1.7,0.9s-1.4-0.5-1.7-0.9
					c-0.3-0.3-0.3-0.3-0.5-0.3c-0.5,0-0.9-0.4-0.9-0.9c0-0.5,0.4-0.9,0.9-0.9c0.9,0,1.4,0.5,1.7,0.9c0.3,0.3,0.3,0.3,0.5,0.3
					c0.2,0,0.2,0,0.5-0.3c0.3-0.3,0.8-0.9,1.7-0.9c0.9,0,1.4,0.5,1.7,0.9c0.3,0.3,0.3,0.3,0.5,0.3c0.2,0,0.2,0,0.5-0.3
					c0.3-0.3,0.8-0.9,1.7-0.9c0.9,0,1.4,0.5,1.7,0.9c0.3,0.3,0.3,0.3,0.5,0.3c0.2,0,0.2,0,0.5-0.3c0.3-0.3,0.8-0.9,1.7-0.9
					c0.5,0,0.9,0.4,0.9,0.9c0,0.5-0.4,0.9-0.9,0.9c-0.2,0-0.2,0-0.5,0.3C42.4,19,41.9,19.5,41,19.5L41,19.5z"/>
				<path class="st74" d="M39.6,2L39.6,2c-0.5-0.1-0.8-0.5-0.8-1c0.1-0.5,0.5-0.8,1-0.8c0.5,0.1,0.8,0.5,0.8,1
					C40.5,1.7,40.2,2.1,39.6,2L39.6,2L39.6,2z M32,1.3c-0.1-0.5,0.3-0.9,0.7-1c0.5-0.1,0.9,0.3,1,0.7c0.1,0.5-0.3,0.9-0.8,1l-0.1,0
					C32.4,2.1,32.1,1.8,32,1.3L32,1.3z M46.1,3.6c-0.4-0.2-0.7-0.7-0.5-1.1c0.2-0.4,0.7-0.7,1.1-0.5c0.4,0.2,0.7,0.7,0.5,1.1
					c-0.1,0.3-0.5,0.6-0.8,0.6C46.3,3.7,46.2,3.7,46.1,3.6L46.1,3.6z M25.4,3.2c-0.2-0.4,0.1-0.9,0.5-1.1c0.4-0.2,0.9,0.1,1.1,0.5
					c0.2,0.4-0.1,0.9-0.5,1.1c-0.1,0-0.2,0.1-0.3,0.1C25.9,3.7,25.5,3.5,25.4,3.2L25.4,3.2z M52,6.7L52,6.7
					c-0.4-0.3-0.5-0.8-0.2-1.2C52.1,5.1,52.6,5,53,5.3c0.4,0.3,0.5,0.8,0.2,1.2c-0.2,0.2-0.4,0.4-0.7,0.4C52.3,6.8,52.1,6.8,52,6.7
					L52,6.7z M19.4,6.6c-0.3-0.4-0.2-0.9,0.2-1.2c0.4-0.3,0.9-0.2,1.2,0.2C21.1,6,21,6.5,20.6,6.8h0c-0.1,0.1-0.3,0.1-0.5,0.1
					C19.9,6.9,19.6,6.8,19.4,6.6L19.4,6.6z M57,11.1c-0.3-0.4-0.3-0.9,0.1-1.2c0.4-0.3,0.9-0.3,1.2,0.1c0.3,0.3,0.3,0.9-0.1,1.2
					c-0.2,0.1-0.4,0.2-0.6,0.2C57.4,11.4,57.2,11.3,57,11.1L57,11.1z M14.4,11.3c-0.4-0.3-0.4-0.9-0.1-1.2c0.3-0.4,0.9-0.4,1.2-0.1
					c0.4,0.3,0.4,0.9,0.1,1.2c-0.2,0.2-0.4,0.3-0.6,0.3C14.8,11.5,14.6,11.4,14.4,11.3L14.4,11.3z M60.8,16.6L60.8,16.6
					c-0.2-0.4-0.1-0.9,0.4-1.2c0.4-0.2,0.9-0.1,1.2,0.4c0.2,0.4,0.1,0.9-0.4,1.2C61.8,17,61.7,17,61.6,17C61.3,17,61,16.9,60.8,16.6
					L60.8,16.6z M10.7,17.1c-0.4-0.2-0.6-0.7-0.4-1.2c0.2-0.4,0.7-0.6,1.2-0.4c0.4,0.2,0.6,0.7,0.4,1.2c-0.2,0.3-0.5,0.5-0.8,0.5
					C11,17.2,10.8,17.1,10.7,17.1L10.7,17.1z M63.2,22.8c-0.1-0.5,0.2-0.9,0.6-1c0.5-0.1,0.9,0.2,1,0.6c0.1,0.5-0.2,0.9-0.6,1
					c-0.1,0-0.1,0-0.2,0C63.6,23.4,63.3,23.2,63.2,22.8L63.2,22.8z M8.5,23.6c-0.5-0.1-0.7-0.6-0.6-1c0.1-0.5,0.6-0.7,1-0.6
					c0.5,0.1,0.7,0.6,0.6,1c-0.1,0.4-0.4,0.7-0.8,0.7C8.6,23.6,8.6,23.6,8.5,23.6L8.5,23.6z M64,29.5L64,29.5v-0.1
					c0-0.5,0.4-0.9,0.9-0.9c0.5,0,0.9,0.4,0.9,0.9v0.1v0.1c0,0.5-0.4,0.9-0.9,0.9C64.4,30.4,64,30,64,29.5L64,29.5z M7,29.6
					c0-0.5,0.4-0.9,0.9-0.9c0.5,0,0.9,0.4,0.9,0.9c0,0.5-0.4,0.9-0.9,0.9C7.4,30.4,7,30,7,29.6L7,29.6z M63.8,37.1
					c-0.5-0.1-0.7-0.6-0.6-1c0.1-0.5,0.6-0.7,1-0.6c0.5,0.1,0.7,0.6,0.6,1c-0.1,0.4-0.5,0.7-0.8,0.7C64,37.2,63.9,37.2,63.8,37.1
					L63.8,37.1z M7.9,36.6c-0.1-0.5,0.2-0.9,0.6-1c0.5-0.1,0.9,0.2,1,0.6c0.1,0.5-0.2,0.9-0.6,1c-0.1,0-0.1,0-0.2,0
					C8.3,37.2,8,37,7.9,36.6L7.9,36.6z M61.2,43.5c-0.4-0.2-0.6-0.7-0.4-1.2c0.2-0.4,0.7-0.6,1.2-0.4c0.4,0.2,0.6,0.7,0.4,1.2
					c-0.2,0.3-0.5,0.5-0.8,0.5C61.5,43.6,61.3,43.6,61.2,43.5L61.2,43.5z M10.4,43.2c-0.2-0.4-0.1-0.9,0.4-1.2
					c0.4-0.2,0.9-0.1,1.2,0.4c0.2,0.4,0.1,0.9-0.4,1.2c-0.1,0.1-0.3,0.1-0.4,0.1C10.9,43.6,10.6,43.5,10.4,43.2L10.4,43.2z M57.1,49
					c-0.3-0.3-0.4-0.9-0.1-1.2c0.3-0.4,0.9-0.4,1.2-0.1c0.4,0.3,0.4,0.9,0.1,1.2c-0.2,0.2-0.4,0.3-0.6,0.3
					C57.5,49.2,57.3,49.2,57.1,49L57.1,49z M14.4,49c-0.3-0.4-0.3-0.9,0.1-1.2c0.4-0.3,0.9-0.3,1.2,0.1v0c0.3,0.3,0.3,0.9-0.1,1.2
					c-0.2,0.1-0.4,0.2-0.6,0.2C14.8,49.3,14.6,49.2,14.4,49L14.4,49z M51.9,53.4c-0.3-0.4-0.2-0.9,0.2-1.2c0.4-0.3,0.9-0.2,1.2,0.2
					c0.3,0.4,0.2,0.9-0.2,1.2c-0.1,0.1-0.3,0.2-0.5,0.2C52.3,53.8,52,53.7,51.9,53.4L51.9,53.4z M19.7,53.7
					c-0.4-0.3-0.5-0.8-0.2-1.2c0.3-0.4,0.8-0.5,1.2-0.2c0.4,0.3,0.5,0.8,0.2,1.2c-0.2,0.2-0.4,0.4-0.7,0.4
					C20.1,53.8,19.9,53.8,19.7,53.7L19.7,53.7z M45.7,56.4c-0.2-0.4,0.1-0.9,0.5-1.1c0.4-0.2,0.9,0.1,1.1,0.5
					c0.2,0.4-0.1,0.9-0.5,1.1c-0.1,0-0.2,0.1-0.3,0.1C46.2,57,45.8,56.8,45.7,56.4L45.7,56.4z M26,57c-0.4-0.2-0.7-0.7-0.5-1.1
					c0.2-0.4,0.7-0.7,1.1-0.5c0.4,0.2,0.7,0.7,0.5,1.1C27,56.8,26.7,57,26.3,57C26.2,57,26.1,57,26,57L26,57z M39,57.9
					c-0.1-0.5,0.3-0.9,0.8-1c0.5-0.1,0.9,0.3,1,0.8c0.1,0.5-0.3,0.9-0.8,1l-0.1,0C39.4,58.6,39,58.3,39,57.9L39,57.9z M32.9,58.6
					c-0.5-0.1-0.8-0.5-0.8-1c0.1-0.5,0.5-0.8,1-0.8c0.5,0.1,0.8,0.5,0.8,1c-0.1,0.4-0.4,0.8-0.9,0.8L32.9,58.6L32.9,58.6z"/>
				<path class="st74" d="M36.4,58.8L36.4,58.8c-0.5,0-0.9-0.4-0.9-0.9l0.1-5.6c0-0.5,0.4-0.9,0.9-0.8c0.5,0,0.8,0.4,0.8,0.9
					L37.2,58C37.2,58.5,36.8,58.8,36.4,58.8L36.4,58.8z"/>
				<path class="st74" d="M271,48.4c-0.6,0-1.2,0.3-1.7,0.8c-0.5,0.5-0.7,1.2-0.6,1.9c0.3,2.6,3.7,5.1,5.4,6c1.2-0.7,5.1-3.2,5.4-6
					c0.1-0.7-0.1-1.4-0.6-1.9c-0.4-0.5-1.1-0.8-1.7-0.8c-1.2,0-2.3,1.2-2.3,2.8c0,0.5-0.4,0.9-0.9,0.9c-0.5,0-0.9-0.4-0.9-0.9
					C273.2,49.7,272.2,48.4,271,48.4L271,48.4z M274.1,59c-0.1,0-0.3,0-0.4-0.1c-0.3-0.1-6.2-3.3-6.7-7.6c-0.1-1.2,0.2-2.3,1-3.2
					c0.8-0.9,1.9-1.4,2.9-1.4c1.3,0,2.4,0.7,3.1,1.7c0.7-1,1.9-1.7,3.1-1.7c1.1,0,2.2,0.5,2.9,1.4c0.8,0.9,1.2,2.1,1,3.2
					c-0.5,4.3-6.5,7.5-6.7,7.6C274.4,59,274.2,59,274.1,59L274.1,59z"/>
				<path class="st74" d="M114.4,66.1c-0.5,0-0.9-0.4-0.9-0.9v-17c0-0.5,0.4-0.9,0.9-0.9c0.5,0,0.9,0.4,0.9,0.9v17
					C115.2,65.8,114.8,66.1,114.4,66.1L114.4,66.1z"/>
				<path class="st74" d="M114.4,66.1c-0.8,0-1.4,0.6-1.4,1.4c0,0.8,0.6,1.4,1.4,1.4c0.8,0,1.4-0.6,1.4-1.4
					C115.7,66.8,115.1,66.1,114.4,66.1L114.4,66.1z M114.4,70.6c-1.7,0-3.1-1.4-3.1-3.1c0-1.7,1.4-3.1,3.1-3.1
					c1.7,0,3.1,1.4,3.1,3.1C117.4,69.2,116.1,70.6,114.4,70.6L114.4,70.6z"/>
				<path class="st74" d="M114.8,74.3L114.8,74.3L114.8,74.3L114.8,74.3z M109,73.6v4.5c0,1,0.8,1.7,1.7,1.7h7.2
					c1,0,1.7-0.8,1.7-1.7v-4.5c-1.4,0.9-3.1,1.5-4.8,1.6C112.7,75.3,110.7,74.7,109,73.6L109,73.6z M117.9,81.5h-7.2
					c-1.9,0-3.5-1.6-3.5-3.5v-6.3c0-0.3,0.2-0.7,0.5-0.8c0.3-0.1,0.7-0.1,0.9,0.2c1.6,1.6,3.8,2.4,6.1,2.3c1.9-0.1,3.7-0.9,5.1-2.3
					c0.2-0.2,0.6-0.3,0.9-0.2c0.3,0.1,0.5,0.4,0.5,0.8v6.2C121.4,80,119.8,81.5,117.9,81.5L117.9,81.5z"/>
				<path class="st74" d="M107.1,59.9L107.1,59.9L107.1,59.9L107.1,59.9z M111.6,49.2c-0.1,4.2-1.4,8.1-3.8,11.2v0
					c-1.1,1.4-1.6,3.1-1.6,4.9c0,2.2,0.9,4.3,2.5,5.9c1.6,1.6,3.8,2.4,6.1,2.3c1.9-0.1,3.7-0.9,5.1-2.2c1.5-1.4,2.4-3.2,2.5-5.2
					c0.2-2-0.4-3.9-1.5-5.5c-2.5-3.4-3.9-7.4-4.1-11.4H111.6L111.6,49.2z M114.3,75.1c-2.6,0-5-1-6.8-2.8c-2-1.9-3-4.4-3-7.1
					c0-2.2,0.7-4.2,2-5.9c2.2-2.9,3.4-6.8,3.4-10.8v-0.3c0-0.5,0.4-0.9,0.9-0.9h7c0.5,0,0.9,0.4,0.9,0.9c0,3.9,1.3,7.8,3.7,11.2
					c1.4,1.9,2,4.3,1.8,6.7c-0.2,2.4-1.3,4.6-3.1,6.3c-1.7,1.6-3.9,2.6-6.2,2.7C114.7,75.1,114.5,75.1,114.3,75.1L114.3,75.1z"/>
				<path class="st74" d="M83.8,40.8c-0.1,0-0.1,0-0.2,0l-0.2-0.1c-0.1,0-0.1,0-0.1-0.1l-0.1-0.1l-0.1-0.1c0,0-0.1-0.1-0.1-0.1
					L83,40.1c0-0.1,0-0.1,0-0.2c0-0.1,0-0.1,0-0.2l0.1-0.2l0.1-0.1l0.1-0.1c0.3-0.3,0.9-0.3,1.2,0l0.1,0.1l0.1,0.1l0,0.2
					c0,0.1,0,0.1,0,0.2c0,0.1,0,0.1,0,0.2l0,0.2c0,0.1-0.1,0.1-0.1,0.1l-0.1,0.1C84.3,40.7,84,40.8,83.8,40.8L83.8,40.8z"/>
				<path class="st74" d="M89.9,40c0-0.5,0.4-0.9,0.9-0.9c0.5,0,0.9,0.4,0.9,0.9c0,0.5-0.4,0.9-0.9,0.9C90.3,40.8,89.9,40.4,89.9,40
					L89.9,40z"/>
				<path class="st74" d="M97.7,40.8c-0.1,0-0.1,0-0.2,0c-0.1,0-0.1,0-0.2-0.1l-0.1-0.1L97,40.6c-0.2-0.2-0.3-0.4-0.3-0.6
					c0-0.2,0.1-0.5,0.3-0.6l0.1-0.1l0.1-0.1c0.1,0,0.1,0,0.2-0.1c0.1,0,0.2,0,0.3,0c0.1,0,0.1,0,0.2,0.1c0.1,0,0.1,0,0.1,0.1
					c0.1,0,0.1,0.1,0.1,0.1c0.2,0.2,0.3,0.4,0.3,0.6c0,0.2-0.1,0.4-0.3,0.6C98.1,40.7,97.9,40.8,97.7,40.8L97.7,40.8z"/>
				<path class="st74" d="M79.5,87.8c-0.5,0-0.9-0.4-0.9-0.9V36.1c0-0.5,0.4-0.9,0.9-0.9h51.2c0.5,0,0.9,0.4,0.9,0.9v48
					c0,0.5-0.4,0.9-0.9,0.9s-0.9-0.4-0.9-0.9V37H80.4v50C80.4,87.4,80,87.8,79.5,87.8L79.5,87.8z"/>
				<path class="st74" d="M86.6,93.9c-0.3,0-0.5,0-0.8,0c-4.1-0.3-7.2-3.3-7.2-6.9c0-0.5,0.4-0.9,0.9-0.9c0.5,0,0.9,0.4,0.9,0.9
					c0,2.7,2.4,5,5.6,5.2c0.2,0,0.4,0,0.6,0c3.4,0,6.2-2.4,6.2-5.2v-2.8c0-0.5,0.4-0.9,0.9-0.9c0.5,0,0.9,0.4,0.9,0.9v2.8
					C94.5,90.7,91,93.9,86.6,93.9L86.6,93.9z"/>
				<path class="st74" d="M91.8,92.1h37.3c3.4,0,6.2-2.4,6.2-5.2V85H94.5v1.9C94.5,89,93.5,90.9,91.8,92.1L91.8,92.1z M129.1,93.9
					H86.6c-0.5,0-0.9-0.4-0.9-0.9c0-0.5,0.4-0.9,0.9-0.9c3.4,0,6.2-2.4,6.2-5.2v-2.8c0-0.5,0.4-0.9,0.9-0.9h42.5
					c0.5,0,0.9,0.4,0.9,0.9l0,2.8C137,90.7,133.5,93.9,129.1,93.9L129.1,93.9z"/>
				<path class="st74" d="M130.6,44.6h-51c-0.5,0-0.9-0.4-0.9-0.9c0-0.5,0.4-0.9,0.9-0.9h51c0.5,0,0.9,0.4,0.9,0.9
					C131.4,44.3,131.1,44.6,130.6,44.6L130.6,44.6z"/>
				<path class="st74" d="M154.2,1.3c-0.2,0-0.4-0.1-0.6-0.3c-0.2-0.2-0.3-0.4-0.3-0.6c0-0.1,0-0.1,0-0.2l0-0.2l0.1-0.1l0.1-0.1
					c0.3-0.3,0.9-0.3,1.2,0l0.1,0.1l0.1,0.1l0.1,0.2c0,0.1,0,0.1,0,0.2c0,0.2-0.1,0.4-0.3,0.6c-0.1,0.1-0.2,0.1-0.3,0.2
					C154.5,1.3,154.3,1.3,154.2,1.3L154.2,1.3z"/>
				<path class="st74" d="M160.3,0.5c0-0.5,0.4-0.9,0.9-0.9c0.5,0,0.9,0.4,0.9,0.9c0,0.5-0.4,0.9-0.9,0.9
					C160.7,1.3,160.3,1,160.3,0.5L160.3,0.5z"/>
				<path class="st74" d="M168.1,1.3c-0.2,0-0.4-0.1-0.6-0.3c-0.2-0.2-0.3-0.4-0.3-0.6c0-0.1,0-0.1,0-0.2l0.1-0.2l0.1-0.1l0.1-0.1
					c0.2-0.2,0.5-0.3,0.8-0.2l0.2,0.1l0.1,0.1l0.1,0.1l0.1,0.1l0.1,0.1l0,0.2c0,0.1,0,0.1,0,0.2c0,0.2-0.1,0.4-0.2,0.6
					c-0.1,0.1-0.2,0.1-0.3,0.2C168.3,1.3,168.2,1.3,168.1,1.3L168.1,1.3z"/>
				<path class="st74" d="M149.9,48.3c-0.5,0-0.9-0.4-0.9-0.9V-3.4c0-0.5,0.4-0.9,0.9-0.9h51.2c0.5,0,0.9,0.4,0.9,0.9v48
					c0,0.5-0.4,0.9-0.9,0.9c-0.5,0-0.9-0.4-0.9-0.9V-2.5h-49.5v50C150.8,48,150.4,48.3,149.9,48.3L149.9,48.3z"/>
				<path class="st74" d="M157,54.4c-0.3,0-0.5,0-0.8,0c-4.1-0.3-7.2-3.3-7.2-6.9c0-0.5,0.4-0.9,0.9-0.9c0.5,0,0.9,0.4,0.9,0.9
					c0,2.7,2.4,5,5.6,5.2c0.2,0,0.4,0,0.6,0c3.4,0,6.2-2.4,6.2-5.2v-2.8c0-0.5,0.4-0.9,0.9-0.9c0.5,0,0.9,0.4,0.9,0.9v2.8
					C164.9,51.3,161.4,54.4,157,54.4L157,54.4z"/>
				<path class="st74" d="M162.2,52.7h37.3c3.4,0,6.2-2.4,6.2-5.2v-1.9h-40.8v1.9C164.9,49.5,163.9,51.4,162.2,52.7L162.2,52.7z
					 M199.5,54.4H157c-0.5,0-0.9-0.4-0.9-0.9c0-0.5,0.4-0.9,0.9-0.9c3.4,0,6.2-2.4,6.2-5.2v-2.8c0-0.5,0.4-0.9,0.9-0.9h42.5
					c0.5,0,0.9,0.4,0.9,0.9v2.8C207.5,51.3,203.9,54.4,199.5,54.4L199.5,54.4z"/>
				<path class="st74" d="M201,5.2h-51.1c-0.5,0-0.9-0.4-0.9-0.9c0-0.5,0.4-0.9,0.9-0.9H201c0.5,0,0.9,0.4,0.9,0.9
					C201.9,4.8,201.5,5.2,201,5.2L201,5.2z"/>
				<path class="st74" d="M91.5,58.6v18.9c0,1.3,1,2.3,2.3,2.3h3.5c1.3,0,2.3-1,2.3-2.3V58.6H91.5L91.5,58.6z M97.3,81.5h-3.5
					c-2.2,0-4-1.8-4-4V57.7c0-0.5,0.4-0.9,0.9-0.9h9.9c0.5,0,0.9,0.4,0.9,0.9v19.8C101.3,79.7,99.5,81.5,97.3,81.5L97.3,81.5z"/>
				<path class="st74" d="M94.5,51.5h2.1l-1-2.2L94.5,51.5L94.5,51.5z M97.9,53.2h-4.8c-0.3,0-0.6-0.2-0.7-0.4
					c-0.2-0.2-0.2-0.6-0.1-0.8l2.4-5.1c0.1-0.3,0.4-0.5,0.8-0.5c0.3,0,0.6,0.2,0.8,0.5l2.4,5.1c0.1,0.3,0.1,0.6-0.1,0.8
					C98.5,53.1,98.2,53.2,97.9,53.2L97.9,53.2z"/>
				<path class="st74" d="M92,56.8h7.1l-1.7-3.6h-3.7L92,56.8L92,56.8z M100.5,58.6h-9.9c-0.3,0-0.6-0.2-0.7-0.4
					c-0.2-0.2-0.2-0.6-0.1-0.8l2.5-5.3c0.1-0.3,0.4-0.5,0.8-0.5h4.8c0.3,0,0.6,0.2,0.8,0.5l2.5,5.3c0.1,0.3,0.1,0.6-0.1,0.8
					C101,58.4,100.8,58.6,100.5,58.6L100.5,58.6z"/>
				<path class="st74" d="M172.1,19.6v9.9l8.5-4.9L172.1,19.6L172.1,19.6z M171.2,31.8c-0.1,0-0.3,0-0.4-0.1
					c-0.3-0.1-0.4-0.4-0.4-0.7V18.1c0-0.3,0.2-0.6,0.4-0.7c0.3-0.2,0.6-0.2,0.9,0l11.1,6.4c0.3,0.2,0.4,0.4,0.4,0.7
					c0,0.3-0.2,0.6-0.4,0.7l-11.1,6.4C171.5,31.7,171.4,31.8,171.2,31.8L171.2,31.8z"/>
				<path class="st74" d="M160.3,36.6h31.5V12.4h-31.5V36.6L160.3,36.6z M192.6,38.3h-33.2c-0.5,0-0.9-0.4-0.9-0.9V11.5
					c0-0.5,0.4-0.9,0.9-0.9h33.2c0.5,0,0.9,0.4,0.9,0.9v25.9C193.5,37.9,193.1,38.3,192.6,38.3L192.6,38.3z"/>
				<path class="st74" d="M189.4,16.1c-0.1,0-0.2,0-0.3-0.1c-0.1,0-0.2-0.1-0.3-0.2c-0.2-0.2-0.3-0.4-0.3-0.6c0-0.1,0-0.1,0-0.2
					l0.1-0.2l0.1-0.1l0.1-0.1l0.1-0.1c0,0,0.1-0.1,0.1-0.1l0.2-0.1c0.3-0.1,0.6,0,0.8,0.2c0.2,0.2,0.3,0.4,0.3,0.6
					c0,0.2-0.1,0.4-0.3,0.6c-0.1,0.1-0.2,0.1-0.3,0.2C189.6,16.1,189.5,16.1,189.4,16.1L189.4,16.1z"/>
				<path class="st74" d="M188.5,21.1c0-0.5,0.4-0.9,0.9-0.9c0.5,0,0.9,0.4,0.9,0.9s-0.4,0.9-0.9,0.9
					C188.9,22,188.5,21.6,188.5,21.1L188.5,21.1z M188.5,27c0-0.5,0.4-0.9,0.9-0.9c0.5,0,0.9,0.4,0.9,0.9c0,0.5-0.4,0.9-0.9,0.9
					C188.9,27.9,188.5,27.5,188.5,27L188.5,27z"/>
				<path class="st74" d="M189.4,33.7c-0.2,0-0.4-0.1-0.6-0.3c-0.2-0.2-0.2-0.4-0.2-0.6c0-0.1,0-0.1,0-0.2c0-0.1,0-0.1,0.1-0.2
					l0.1-0.1l0.1-0.1c0.3-0.3,0.9-0.3,1.2,0l0.1,0.1l0.1,0.1c0,0.1,0,0.1,0,0.2c0,0.1,0,0.1,0,0.2c0,0.2-0.1,0.4-0.2,0.6
					C189.8,33.6,189.6,33.7,189.4,33.7L189.4,33.7z"/>
				<path class="st74" d="M162.6,16.1c-0.1,0-0.2,0-0.3-0.1c-0.1,0-0.2-0.1-0.3-0.2c-0.2-0.2-0.3-0.4-0.3-0.6c0-0.2,0.1-0.4,0.3-0.6
					l0.1-0.1c0.1,0,0.1-0.1,0.1-0.1l0.2-0.1c0.1,0,0.2,0,0.3,0c0.1,0,0.1,0,0.2,0.1l0.1,0.1l0.1,0.1l0.1,0.1l0.1,0.1l0.1,0.2
					c0,0.1,0,0.1,0,0.2c0,0.2-0.1,0.4-0.3,0.6c-0.1,0.1-0.2,0.1-0.3,0.2C162.8,16.1,162.7,16.1,162.6,16.1L162.6,16.1z"/>
				<path class="st74" d="M161.8,21.1c0-0.5,0.4-0.9,0.9-0.9c0.5,0,0.9,0.4,0.9,0.9s-0.4,0.9-0.9,0.9
					C162.1,22,161.8,21.6,161.8,21.1L161.8,21.1z M161.8,27c0-0.5,0.4-0.9,0.9-0.9c0.5,0,0.9,0.4,0.9,0.9c0,0.5-0.4,0.9-0.9,0.9
					C162.1,27.9,161.8,27.5,161.8,27L161.8,27z"/>
				<path class="st74" d="M162.6,33.7c-0.1,0-0.2,0-0.3-0.1c-0.1,0-0.2-0.1-0.3-0.2c-0.2-0.2-0.3-0.4-0.3-0.6c0-0.1,0-0.1,0-0.2
					c0-0.1,0-0.1,0-0.2l0.1-0.1l0.1-0.1l0.1-0.1l0.1-0.1l0.2,0c0.3-0.1,0.6,0,0.8,0.2l0.1,0.1l0.1,0.1c0,0.1,0,0.1,0.1,0.2
					c0,0.1,0,0.1,0,0.2c0,0.2-0.1,0.4-0.3,0.6C163.1,33.6,162.8,33.7,162.6,33.7L162.6,33.7z"/>
				<path class="st74" d="M227.6,58.5h5V32.6c0-0.5,0.4-0.9,0.9-0.9h32.8v-5.9h-38.7V58.5L227.6,58.5z M233.4,60.2h-6.7
					c-0.5,0-0.9-0.4-0.9-0.9V25c0-0.5,0.4-0.9,0.9-0.9h40.4c0.5,0,0.9,0.4,0.9,0.9v7.6c0,0.5-0.4,0.9-0.9,0.9h-32.8v25.9
					C234.3,59.9,233.9,60.2,233.4,60.2L233.4,60.2z"/>
				<path class="st74" d="M234.3,69.2h7.6V40.9c0-0.5,0.4-0.9,0.9-0.9h33.6v-6.6h-42.1V69.2L234.3,69.2z M242.8,70.9h-9.4
					c-0.5,0-0.9-0.4-0.9-0.9V32.6c0-0.5,0.4-0.9,0.9-0.9h43.8c0.5,0,0.9,0.4,0.9,0.9v8.3c0,0.5-0.4,0.9-0.9,0.9h-33.6v28.3
					C243.6,70.5,243.3,70.9,242.8,70.9L242.8,70.9z"/>
				<path class="st74" d="M243.6,82.3h40.5V41.8h-40.5V82.3L243.6,82.3z M285,84h-42.2c-0.5,0-0.9-0.4-0.9-0.9V40.9
					c0-0.5,0.4-0.9,0.9-0.9H285c0.5,0,0.9,0.4,0.9,0.9v42.2C285.9,83.6,285.5,84,285,84L285,84z"/>
				<path class="st74" d="M249.7,69h12.5v-2.2h-12.5V69L249.7,69z M263,70.7h-14.2c-0.5,0-0.9-0.4-0.9-0.9V66c0-0.5,0.4-0.9,0.9-0.9
					H263c0.5,0,0.9,0.4,0.9,0.9v3.9C263.9,70.4,263.5,70.7,263,70.7L263,70.7z"/>
				<path class="st74" d="M249.7,77.8h12.5v-2.2h-12.5V77.8L249.7,77.8z M263,79.6h-14.2c-0.5,0-0.9-0.4-0.9-0.9v-3.9
					c0-0.5,0.4-0.9,0.9-0.9H263c0.5,0,0.9,0.4,0.9,0.9v3.9C263.9,79.2,263.5,79.6,263,79.6L263,79.6z"/>
				<path class="st74" d="M267.9,69h12.5v-2.2h-12.5V69L267.9,69z M281.2,70.7H267c-0.5,0-0.9-0.4-0.9-0.9V66c0-0.5,0.4-0.9,0.9-0.9
					h14.2c0.5,0,0.9,0.4,0.9,0.9v3.9C282.1,70.4,281.7,70.7,281.2,70.7L281.2,70.7z"/>
				<path class="st74" d="M267.9,77.8h12.5v-2.2h-12.5V77.8L267.9,77.8z M281.2,79.6H267c-0.5,0-0.9-0.4-0.9-0.9v-3.9
					c0-0.5,0.4-0.9,0.9-0.9h14.2c0.5,0,0.9,0.4,0.9,0.9v3.9C282.1,79.2,281.7,79.6,281.2,79.6L281.2,79.6z"/>
				<path class="st74" d="M255.6,57c0.1,0,0.3,0,0.4,0.1l3.4,1.8l-0.7-3.8c0-0.3,0-0.6,0.2-0.8l2.8-2.7l-3.8-0.6
					c-0.3,0-0.5-0.2-0.6-0.5l-1.7-3.5l-1.7,3.5c-0.1,0.3-0.4,0.4-0.6,0.5l-3.8,0.6l2.8,2.7c0.2,0.2,0.3,0.5,0.2,0.8l-0.7,3.8
					l3.4-1.8C255.4,57,255.5,57,255.6,57L255.6,57z M250.7,61.3c-0.2,0-0.4-0.1-0.5-0.2c-0.3-0.2-0.4-0.5-0.3-0.8l0.9-5.1l-3.7-3.6
					c-0.2-0.2-0.3-0.6-0.2-0.9c0.1-0.3,0.4-0.5,0.7-0.6l5.1-0.7l2.3-4.6c0.1-0.3,0.4-0.5,0.8-0.5c0.3,0,0.6,0.2,0.8,0.5l2.3,4.6
					l5.1,0.7c0.3,0.1,0.6,0.3,0.7,0.6c0.1,0.3,0,0.7-0.2,0.9l-3.7,3.6l0.9,5.1c0.1,0.3-0.1,0.6-0.3,0.8c-0.3,0.2-0.6,0.2-0.9,0.1
					l-4.6-2.4l-4.6,2.4C251,61.3,250.8,61.3,250.7,61.3L250.7,61.3z"/>
			</g>
			<path class="st74" d="M184.1,95.7c-0.4,0-0.8-0.3-0.9-0.7l-1.1-3.5l-3.5,1.1c-0.5,0.2-1-0.1-1.2-0.6c-0.2-0.5,0.1-1,0.6-1.2
				l4.4-1.4c0.5-0.2,1,0.1,1.2,0.6l1.4,4.4c0.2,0.5-0.1,1-0.6,1.2C184.3,95.7,184.2,95.7,184.1,95.7L184.1,95.7z"/>
			<path class="st74" d="M183,108.4c0.4,0,0.8,0.1,1.1,0.2c0.4,0.2,0.8,0.3,1.2,0.5c1.4,0.4,2.3,1.9,2,3.4l0,0.2
				c-0.1,0.3,0,0.6,0.2,0.9c0.2,0.2,0.5,0.4,0.8,0.4c0.6,0,1.2,0,1.8,0c0.3,0,0.6-0.2,0.8-0.4c0.2-0.2,0.3-0.6,0.2-0.9l0-0.2
				c-0.3-1.5,0.6-2.9,2-3.4c0.4-0.1,0.8-0.3,1.2-0.5c1.4-0.6,3,0,3.7,1.3l0.1,0.1c0.2,0.3,0.4,0.5,0.7,0.5c0.3,0.1,0.6,0,0.9-0.2
				c0.4-0.3,0.9-0.7,1.3-1.1c0.2-0.2,0.4-0.5,0.4-0.8c0-0.3-0.1-0.6-0.4-0.8l-0.1-0.1c-1.2-1-1.4-2.6-0.6-3.9
				c0.2-0.4,0.5-0.8,0.7-1.1c0.7-1.3,2.3-1.9,3.7-1.4l0.1,0c0.3,0.1,0.6,0.1,0.9-0.1c0.3-0.2,0.5-0.4,0.5-0.7
				c0.1-0.6,0.2-1.1,0.3-1.6c0-0.3-0.1-0.6-0.3-0.9c-0.2-0.2-0.5-0.4-0.8-0.4c-1.5,0-2.8-1.1-3-2.6l0,0c-0.1-0.4-0.1-0.9-0.2-1.3
				c-0.3-1.5,0.5-3,1.9-3.5l0.2-0.1c0.3-0.1,0.5-0.3,0.6-0.6c0.1-0.3,0.1-0.6-0.1-0.9c-0.3-0.5-0.5-1-0.9-1.5
				c-0.2-0.3-0.4-0.4-0.8-0.5c-0.3-0.1-0.6,0-0.9,0.2l-0.1,0.1c-1.2,1-2.9,1-4-0.1c-0.3-0.3-0.7-0.6-1-0.8c-1.2-0.9-1.5-2.6-0.8-3.9
				l0.1-0.1c0.2-0.3,0.2-0.6,0.1-0.9c-0.1-0.3-0.3-0.5-0.6-0.7c-0.5-0.2-1.1-0.4-1.6-0.6c-0.3-0.1-0.6-0.1-0.9,0.1
				c-0.3,0.2-0.5,0.4-0.5,0.7l0,0.1c-0.3,1.5-1.6,2.6-3.1,2.5c-0.4,0-0.8,0-1.2,0c-1.5,0.1-2.9-1-3.2-2.5l0-0.1
				c-0.1-0.3-0.2-0.6-0.5-0.7c-0.3-0.2-0.6-0.2-0.9-0.1c-0.5,0.2-1.1,0.4-1.6,0.6c-0.3,0.1-0.5,0.4-0.6,0.7
				c-0.1,0.3-0.1,0.6,0.1,0.9l0.1,0.1c0.8,1.3,0.4,3-0.7,3.9c-0.4,0.3-0.7,0.5-1,0.8c-1.1,1-2.8,1-3.9,0.1l-0.1-0.1
				c-0.2-0.2-0.6-0.3-0.9-0.2c-0.3,0-0.6,0.2-0.7,0.5c-0.3,0.5-0.6,1-0.9,1.5c-0.1,0.3-0.2,0.6,0,0.9c0.1,0.3,0.4,0.5,0.7,0.6
				l0.2,0.1c1.4,0.5,2.2,2,1.9,3.5c-0.2,0.9-0.3,1.9-0.3,2.9v0.1c0,0.5-0.4,1-1,1l-2.1,0c-0.3,0-0.6,0.1-0.8,0.4
				c-0.2,0.2-0.3,0.5-0.3,0.9c0.1,0.6,0.2,1.1,0.3,1.7c0.1,0.3,0.3,0.6,0.5,0.7c0.3,0.2,0.6,0.2,0.9,0.1l0.2-0.1
				c1.4-0.5,3,0.1,3.7,1.4c0.2,0.4,0.4,0.8,0.7,1.1c0.8,1.3,0.5,2.9-0.6,3.9l-0.1,0.1c-0.2,0.2-0.4,0.5-0.4,0.8
				c0,0.3,0.1,0.6,0.3,0.8c0.4,0.4,0.9,0.8,1.3,1.1c0.2,0.2,0.6,0.3,0.9,0.2c0.3-0.1,0.6-0.3,0.7-0.5l0.1-0.1
				C181,108.9,182,108.4,183,108.4L183,108.4z M189.3,115.8c-0.3,0-0.6,0-1,0c-0.8,0-1.6-0.4-2.2-1.1c-0.5-0.7-0.8-1.6-0.6-2.4
				l0-0.2c0.1-0.5-0.2-1.1-0.7-1.2c-0.5-0.1-1-0.3-1.4-0.5c-0.5-0.2-1.1,0-1.3,0.5L182,111c-0.4,0.7-1.2,1.3-2,1.5
				c-0.9,0.2-1.7,0-2.4-0.5c-0.5-0.4-1-0.8-1.5-1.2c-0.6-0.6-1-1.4-1-2.3c0-0.9,0.4-1.7,1.1-2.2l0.1-0.1c0.4-0.4,0.5-1,0.2-1.4
				c-0.3-0.4-0.5-0.9-0.8-1.3c-0.2-0.5-0.8-0.7-1.3-0.5l-0.2,0.1c-0.8,0.3-1.7,0.2-2.5-0.2c-0.8-0.4-1.3-1.1-1.5-2
				c-0.1-0.6-0.2-1.2-0.3-1.9c-0.1-0.9,0.2-1.7,0.7-2.4c0.6-0.6,1.4-1,2.3-1h1.1c0.1-0.8,0.2-1.6,0.3-2.4c0.1-0.5-0.2-1-0.7-1.2
				l-0.1-0.1c-0.8-0.3-1.5-0.9-1.8-1.7c-0.3-0.8-0.3-1.7,0.1-2.5c0.3-0.6,0.6-1.1,0.9-1.6c0.5-0.7,1.2-1.2,2.1-1.3
				c0.9-0.1,1.7,0.1,2.4,0.7l0.1,0.1c0.4,0.4,1,0.4,1.4,0c0.4-0.3,0.8-0.7,1.2-1c0.4-0.3,0.5-0.9,0.2-1.4l-0.1-0.1
				c-0.4-0.7-0.5-1.6-0.3-2.5c0.3-0.8,0.9-1.5,1.7-1.8c0.6-0.2,1.2-0.5,1.8-0.7c0.8-0.3,1.7-0.1,2.5,0.3c0.7,0.5,1.3,1.2,1.4,2.1
				l0,0.1c0.1,0.5,0.6,0.9,1.2,0.9c0.5,0,0.9,0,1.4,0c0.5,0,1-0.4,1.1-0.9l0-0.1c0.1-0.9,0.7-1.6,1.4-2.1c0.7-0.5,1.6-0.6,2.5-0.3
				c0.6,0.2,1.2,0.4,1.8,0.6c0.8,0.3,1.4,1,1.7,1.8c0.3,0.8,0.2,1.7-0.2,2.5l-0.1,0.1c-0.3,0.5-0.2,1.1,0.3,1.4
				c0.4,0.3,0.8,0.6,1.2,1c0.4,0.4,1,0.4,1.4,0l0.1-0.1c0.7-0.6,1.5-0.8,2.4-0.7c0.9,0.1,1.6,0.6,2.1,1.3c0.3,0.5,0.7,1.1,1,1.6
				c0.4,0.8,0.4,1.7,0.1,2.5c-0.3,0.8-1,1.4-1.8,1.7l-0.2,0.1c-0.5,0.2-0.8,0.7-0.7,1.2c0.1,0.5,0.2,1,0.3,1.5
				c0.1,0.5,0.5,0.9,1.1,0.9h0c0.9,0,1.7,0.4,2.3,1c0.6,0.7,0.8,1.5,0.7,2.4c-0.1,0.5-0.2,1.1-0.3,1.7c-0.2,0.9-0.7,1.6-1.5,2.1
				c-0.8,0.4-1.7,0.5-2.5,0.2l-0.1,0c-0.5-0.2-1.1,0-1.3,0.5c-0.2,0.4-0.5,0.9-0.8,1.3c-0.3,0.4-0.2,1,0.2,1.4l0.1,0.1
				c0.7,0.6,1.1,1.4,1.1,2.2c0,0.9-0.3,1.7-1,2.3c-0.5,0.4-0.9,0.8-1.4,1.2c-0.7,0.5-1.6,0.7-2.4,0.6c-0.9-0.2-1.6-0.7-2-1.4
				l-0.1-0.1c-0.3-0.5-0.9-0.7-1.3-0.5c-0.5,0.2-0.9,0.4-1.4,0.5c-0.5,0.2-0.8,0.7-0.7,1.2l0,0.2c0.1,0.9-0.1,1.7-0.6,2.4
				c-0.5,0.7-1.3,1.1-2.2,1.1C189.9,115.8,189.6,115.8,189.3,115.8L189.3,115.8z"/>
			<path class="st74" d="M188.6,73.7c-6.6,0-12.3,2.1-16,5.9c-3.5,3.6-5.2,8.4-5.1,14.4c0,0.4,0,0.9,0.1,1.4
				c0.1,1.6-0.2,3.2-0.9,4.6c-0.7,1.4-2,3.7-4.9,9.3c-0.2,0.4-0.2,0.9,0,1.3c0.2,0.4,0.7,0.6,1.2,0.6l3.8,0.1c0.5,0,0.9,0.4,0.9,0.9
				c0,0.9,0.1,1.6,0.1,2.2c0.1,1.9,0.2,2.9,0.1,5.9c-0.1,2.5,0.2,3.9,0.9,4.6c0.6,0.6,1.7,0.9,3.6,0.9h7.6c0.5,0,1,0.4,1,1v9.3
				c0,0.2,0.3,0.5,0.7,0.5h20.6c0.4,0,0.7-0.3,0.7-0.5v-2.8l0-0.1l0-0.1v-7.9c0-6.6,1.9-13,5.6-18.3c2.4-3.5,3.7-7.7,3.7-12
				C212.2,81.8,203.1,73.7,188.6,73.7L188.6,73.7z M202.2,138.5h-20.6c-1.5,0-2.7-1.1-2.7-2.4v-8.3h-6.6c-2.5,0-4-0.5-5-1.5
				c-1.1-1.1-1.5-2.9-1.4-6c0.1-2.9,0.1-3.8-0.1-5.7c0-0.4-0.1-0.9-0.1-1.4l-2.9-0.1c-1.2,0-2.3-0.6-2.8-1.6c-0.6-1-0.6-2.2,0-3.2
				c3-5.6,4.2-7.9,4.9-9.3c0.6-1.1,0.8-2.3,0.7-3.6c-0.1-0.5-0.1-1.1-0.1-1.5c-0.1-6.4,1.8-11.8,5.7-15.7c4.1-4.2,10.3-6.5,17.4-6.5
				c18.8,0,25.5,12,25.5,23.2c0,4.7-1.4,9.2-4,13.1c-3.4,5-5.2,10.9-5.2,17.2v7.9c0,0.1,0,0.1,0,0.2v2.8
				C204.8,137.5,203.7,138.5,202.2,138.5L202.2,138.5z"/>
			<path class="st74" d="M189.5,106.7c-5.5,0-9.9-4.4-9.9-9.9c0-1.9,0.6-3.8,1.6-5.4c0.3-0.4,0.9-0.6,1.3-0.3
				c0.4,0.3,0.6,0.9,0.3,1.3c-0.8,1.3-1.3,2.8-1.3,4.4c0,4.4,3.6,8,8,8c4.4,0,8-3.6,8-8c0-4.4-3.6-8-8-8c-0.5,0-1-0.4-1-1
				c0-0.5,0.4-1,1-1c5.5,0,9.9,4.4,9.9,9.9C199.4,102.3,194.9,106.7,189.5,106.7L189.5,106.7z"/>
			<path class="st74" d="M446.7,55.3h53.8v-6.7h-53.8V55.3L446.7,55.3z M501.3,57h-55.5c-0.5,0-0.8-0.4-0.8-0.8v-8.4
				c0-0.5,0.4-0.8,0.8-0.8h55.5c0.5,0,0.8,0.4,0.8,0.8v8.4C502.2,56.6,501.8,57,501.3,57L501.3,57z"/>
			<path class="st74" d="M446.7,102h53.8V57h-53.8V102L446.7,102z M501.3,103.7h-55.5c-0.5,0-0.8-0.4-0.8-0.8V56.1
				c0-0.5,0.4-0.8,0.8-0.8h55.5c0.5,0,0.8,0.4,0.8,0.8v46.7C502.2,103.3,501.8,103.7,501.3,103.7L501.3,103.7z"/>
			<path class="st74" d="M449.8,53.2c-0.1,0-0.1,0-0.2,0c-0.1,0-0.1,0-0.2-0.1l-0.1-0.1l-0.1-0.1c-0.2-0.2-0.2-0.4-0.2-0.6
				c0-0.1,0-0.1,0-0.2c0-0.1,0-0.1,0.1-0.2l0.1-0.1l0.1-0.1c0.3-0.3,0.9-0.3,1.2,0l0.1,0.1l0.1,0.1c0,0.1,0,0.1,0,0.2
				c0,0.1,0,0.1,0,0.2c0,0.2-0.1,0.4-0.2,0.6C450.2,53.1,450,53.2,449.8,53.2L449.8,53.2z"/>
			<path class="st74" d="M455.7,52.4c0-0.5,0.4-0.8,0.8-0.8c0.5,0,0.8,0.4,0.8,0.8c0,0.5-0.4,0.8-0.8,0.8
				C456.1,53.2,455.7,52.8,455.7,52.4L455.7,52.4z"/>
			<path class="st74" d="M463.3,53.2c-0.1,0-0.1,0-0.2,0c-0.1,0-0.1,0-0.2-0.1l-0.1-0.1c-0.1,0-0.1-0.1-0.1-0.1
				c-0.2-0.2-0.2-0.4-0.2-0.6c0-0.1,0-0.1,0-0.2c0-0.1,0-0.1,0.1-0.2l0.1-0.1l0.1-0.1l0.1-0.1l0.1-0.1c0.1,0,0.1,0,0.2,0
				c0.3-0.1,0.6,0,0.8,0.2l0.1,0.1L464,52c0,0.1,0,0.1,0,0.2c0,0.1,0,0.1,0,0.2c0,0.2-0.1,0.4-0.2,0.6
				C463.7,53.1,463.5,53.2,463.3,53.2L463.3,53.2z"/>
			<path class="st74" d="M455.8,66.3c-1.1,0-2.1,0.9-2.1,2.1v4.5c0,1.1,0.9,2.1,2.1,2.1h4.5c1.1,0,2.1-0.9,2.1-2.1v-4.5
				c0-1.1-0.9-2.1-2.1-2.1H455.8L455.8,66.3z M460.3,76.6h-4.5c-2.1,0-3.7-1.7-3.7-3.7v-4.5c0-2.1,1.7-3.7,3.7-3.7h4.5
				c2.1,0,3.7,1.7,3.7,3.7v4.5C464.1,74.9,462.4,76.6,460.3,76.6L460.3,76.6z"/>
			<path class="st74" d="M469.4,74.9h8.6v-8.6h-8.6V74.9L469.4,74.9z M478.8,76.6h-10.3c-0.5,0-0.8-0.4-0.8-0.8V65.4
				c0-0.5,0.4-0.8,0.8-0.8h10.3c0.5,0,0.8,0.4,0.8,0.8v10.3C479.7,76.2,479.3,76.6,478.8,76.6L478.8,76.6z"/>
			<path class="st74" d="M487.1,66.3c-1.1,0-2.1,0.9-2.1,2.1v4.5c0,1.1,0.9,2.1,2.1,2.1h4.5c1.1,0,2.1-0.9,2.1-2.1v-4.5
				c0-1.1-0.9-2.1-2.1-2.1H487.1L487.1,66.3z M491.5,76.6h-4.5c-2.1,0-3.7-1.7-3.7-3.7v-4.5c0-2.1,1.7-3.7,3.7-3.7h4.5
				c2.1,0,3.7,1.7,3.7,3.7v4.5C495.3,74.9,493.6,76.6,491.5,76.6L491.5,76.6z"/>
			<path class="st74" d="M453.7,92.5h8.6v-8.6h-8.6V92.5L453.7,92.5z M463.2,94.1h-10.3c-0.5,0-0.8-0.4-0.8-0.8V83
				c0-0.5,0.4-0.8,0.8-0.8h10.3c0.5,0,0.8,0.4,0.8,0.8v10.3C464,93.8,463.6,94.1,463.2,94.1L463.2,94.1z"/>
			<path class="st74" d="M471.4,83.9c-1.1,0-2.1,0.9-2.1,2.1v4.5c0,1.1,0.9,2.1,2.1,2.1h4.5c1.1,0,2.1-0.9,2.1-2.1v-4.5
				c0-1.1-0.9-2.1-2.1-2.1H471.4L471.4,83.9z M475.9,94.1h-4.5c-2.1,0-3.7-1.7-3.7-3.7v-4.5c0-2.1,1.7-3.7,3.7-3.7h4.5
				c2.1,0,3.7,1.7,3.7,3.7v4.5C479.6,92.5,477.9,94.1,475.9,94.1L475.9,94.1z"/>
			<path class="st74" d="M484.9,92.5h8.6v-8.6h-8.6V92.5L484.9,92.5z M494.4,94.1h-10.3c-0.5,0-0.8-0.4-0.8-0.8V83
				c0-0.5,0.4-0.8,0.8-0.8h10.3c0.5,0,0.8,0.4,0.8,0.8v10.3C495.2,93.8,494.9,94.1,494.4,94.1L494.4,94.1z"/>
			<path class="st74" d="M303.5,62.6h54.3v-6.9h-54.3V62.6L303.5,62.6z M358.6,64.3h-55.9c-0.5,0-0.8-0.4-0.8-0.8v-8.5
				c0-0.5,0.4-0.8,0.8-0.8h55.9c0.5,0,0.8,0.4,0.8,0.8v8.5C359.5,63.9,359.1,64.3,358.6,64.3L358.6,64.3z"/>
			<path class="st74" d="M303.5,110.2h54.3V64.3h-54.3V110.2L303.5,110.2z M358.6,111.9h-55.9c-0.5,0-0.8-0.4-0.8-0.8V63.5
				c0-0.5,0.4-0.8,0.8-0.8h55.9c0.5,0,0.8,0.4,0.8,0.8v47.6C359.5,111.5,359.1,111.9,358.6,111.9L358.6,111.9z"/>
			<path class="st74" d="M306.7,60.5c-0.1,0-0.1,0-0.2,0c-0.1,0-0.1,0-0.2,0l-0.1-0.1l-0.1-0.1l-0.1-0.1l-0.1-0.1c0-0.1,0-0.1,0-0.2
				c0-0.1,0-0.1,0-0.2c0-0.1,0-0.1,0-0.2c0-0.1,0-0.1,0-0.2l0.1-0.1l0.1-0.1c0.2-0.2,0.5-0.3,0.8-0.2c0.1,0,0.1,0,0.2,0.1l0.1,0.1
				l0.1,0.1c0.2,0.2,0.2,0.4,0.2,0.6c0,0.2-0.1,0.4-0.2,0.6l-0.1,0.1l-0.1,0.1c-0.1,0-0.1,0-0.2,0C306.8,60.5,306.7,60.5,306.7,60.5
				L306.7,60.5z"/>
			<path class="st74" d="M312.6,59.6c0-0.5,0.4-0.8,0.8-0.8c0.5,0,0.8,0.4,0.8,0.8c0,0.5-0.4,0.8-0.8,0.8
				C313,60.5,312.6,60.1,312.6,59.6L312.6,59.6z"/>
			<path class="st74" d="M320.3,60.5c-0.1,0-0.1,0-0.2,0l-0.2,0c-0.1,0-0.1-0.1-0.1-0.1c-0.1,0-0.1-0.1-0.1-0.1
				c-0.2-0.2-0.2-0.4-0.2-0.6c0-0.1,0-0.1,0-0.2c0-0.1,0-0.1,0-0.2l0.1-0.1l0.1-0.1c0,0,0.1-0.1,0.1-0.1c0,0,0.1-0.1,0.1-0.1
				l0.2-0.1c0.3-0.1,0.6,0,0.8,0.2l0.1,0.1l0.1,0.1c0,0.1,0,0.1,0.1,0.2c0,0.1,0,0.1,0,0.2c0,0.2-0.1,0.4-0.2,0.6
				C320.7,60.4,320.5,60.5,320.3,60.5L320.3,60.5z"/>
			<path class="st74" d="M330.6,76.2c-2.3,0-4.2,2.5-4.2,5.6c0,2.3,1.1,4.4,2.7,5.2c1,0.5,2,0.5,3,0c1.6-0.8,2.7-2.9,2.7-5.2
				C334.8,78.7,332.9,76.2,330.6,76.2L330.6,76.2z M330.6,89c-0.8,0-1.5-0.2-2.3-0.6c-2.2-1.1-3.6-3.7-3.6-6.7c0-4,2.6-7.2,5.9-7.2
				c3.2,0,5.9,3.2,5.9,7.2c0,2.9-1.4,5.6-3.6,6.7C332.1,88.8,331.4,89,330.6,89L330.6,89z"/>
			<path class="st74" d="M321.2,98.3H340V95c0-1.8-1.5-3.3-3.3-3.3h-3.5c-0.3,1.1-1.2,1.9-2.4,2.1c-0.8,0.1-1.5-0.2-2.1-0.7
				c-0.4-0.4-0.7-0.8-0.8-1.4h-3.5c-1.8,0-3.3,1.5-3.3,3.3V98.3L321.2,98.3z M340.8,99.9h-20.5c-0.5,0-0.8-0.4-0.8-0.8V95
				c0-2.7,2.2-4.9,4.9-4.9h4.3c0.5,0,0.8,0.4,0.8,0.8v0.2c0,0.3,0.1,0.6,0.3,0.8c0.2,0.2,0.5,0.3,0.8,0.3c0.5-0.1,0.9-0.5,0.9-1.1
				v-0.1c0-0.5,0.4-0.8,0.8-0.8h4.3c2.7,0,5,2.2,5,4.9v4.1C341.7,99.6,341.3,99.9,340.8,99.9L340.8,99.9z"/>
			<path class="st74" d="M329.6,88.9v2.1c0,0.6,0.5,1,1,1c0.6,0,1-0.5,1-1v-2.1C331,89.1,330.2,89.1,329.6,88.9L329.6,88.9z
				 M330.6,93.8c-1.5,0-2.7-1.2-2.7-2.7v-3.3c0-0.3,0.2-0.6,0.4-0.7c0.2-0.2,0.6-0.2,0.8,0c1,0.5,2,0.5,3,0c0.3-0.1,0.6-0.1,0.8,0
				c0.3,0.2,0.4,0.4,0.4,0.7v3.3C333.3,92.6,332.1,93.8,330.6,93.8L330.6,93.8z"/>
			<path class="st74" d="M333.9,69.7c-0.5-0.1-0.8-0.5-0.7-1c0.1-0.5,0.5-0.8,1-0.7c0.5,0.1,0.8,0.5,0.7,1c-0.1,0.4-0.4,0.7-0.8,0.7
				L333.9,69.7L333.9,69.7z M326.6,69.1c-0.1-0.5,0.2-0.9,0.7-1c0.5-0.1,0.9,0.2,1,0.7c0.1,0.5-0.2,0.9-0.7,1c-0.1,0-0.1,0-0.2,0
				C327.1,69.8,326.7,69.5,326.6,69.1L326.6,69.1z M339.9,71.9c-0.4-0.2-0.5-0.7-0.3-1.1c0.2-0.4,0.7-0.5,1.1-0.3
				c0.4,0.2,0.5,0.7,0.3,1.1c-0.2,0.3-0.4,0.4-0.7,0.4C340.2,72,340,71.9,339.9,71.9L339.9,71.9z M320.5,71.6
				c-0.2-0.4-0.1-0.9,0.3-1.1h0c0.4-0.2,0.9-0.1,1.2,0.3c0.2,0.4,0.1,0.9-0.3,1.1c-0.1,0.1-0.3,0.1-0.4,0.1
				C320.9,72,320.7,71.9,320.5,71.6L320.5,71.6z M344.8,75.9c-0.3-0.4-0.3-0.9,0.1-1.2c0.4-0.3,0.9-0.3,1.2,0.1
				c0.3,0.4,0.3,0.9-0.1,1.2c-0.2,0.1-0.3,0.2-0.5,0.2C345.2,76.2,344.9,76.1,344.8,75.9L344.8,75.9z M315.6,76.1
				c-0.4-0.3-0.4-0.8-0.1-1.2c0.3-0.4,0.8-0.4,1.2-0.1c0.4,0.3,0.4,0.8,0.1,1.2c-0.2,0.2-0.4,0.3-0.6,0.3
				C316,76.3,315.8,76.3,315.6,76.1L315.6,76.1z M348,81.4c-0.2-0.4,0.1-0.9,0.5-1.1c0.4-0.2,0.9,0.1,1.1,0.5
				c0.2,0.4-0.1,0.9-0.5,1.1c-0.1,0-0.2,0.1-0.3,0.1C348.4,82,348.1,81.8,348,81.4L348,81.4z M312.6,82c-0.4-0.2-0.7-0.6-0.5-1.1
				c0.2-0.4,0.6-0.7,1.1-0.5c0.4,0.2,0.7,0.6,0.5,1.1c-0.1,0.3-0.4,0.6-0.8,0.6C312.8,82.1,312.7,82.1,312.6,82L312.6,82z
				 M349.1,87.7L349.1,87.7L349.1,87.7c0-0.5,0.4-0.9,0.8-0.9c0.5,0,0.8,0.4,0.8,0.8v0v0c0,0.5-0.4,0.8-0.8,0.8
				S349.1,88.2,349.1,87.7L349.1,87.7z M310.9,87.8c0-0.5,0.4-0.8,0.8-0.8c0.5,0,0.8,0.4,0.8,0.8c0,0.5-0.4,0.8-0.8,0.8
				C311.2,88.6,310.9,88.2,310.9,87.8L310.9,87.8z M348.5,95.1c-0.4-0.2-0.7-0.6-0.5-1.1c0.2-0.4,0.6-0.7,1.1-0.5
				c0.4,0.2,0.7,0.6,0.5,1.1v0c-0.1,0.3-0.4,0.6-0.8,0.6C348.7,95.1,348.6,95.1,348.5,95.1L348.5,95.1z M312.1,94.6
				c-0.2-0.4,0.1-0.9,0.5-1.1c0.4-0.2,0.9,0.1,1.1,0.5c0.2,0.4-0.1,0.9-0.5,1.1c-0.1,0-0.2,0.1-0.3,0.1
				C312.5,95.1,312.2,94.9,312.1,94.6L312.1,94.6z M344.9,100.7c-0.4-0.3-0.4-0.8-0.1-1.2c0.3-0.4,0.8-0.4,1.2-0.1
				c0.4,0.3,0.4,0.8,0.1,1.2c-0.2,0.2-0.4,0.3-0.6,0.3C345.3,100.8,345.1,100.8,344.9,100.7L344.9,100.7z M315.6,100.6
				c-0.3-0.4-0.3-0.9,0.1-1.2c0.4-0.3,0.9-0.3,1.2,0.1c0.3,0.4,0.3,0.9-0.1,1.2c-0.2,0.1-0.3,0.2-0.5,0.2
				C316,100.9,315.7,100.8,315.6,100.6L315.6,100.6z M339.7,104.7c-0.2-0.4-0.1-0.9,0.3-1.1c0.4-0.2,0.9-0.1,1.1,0.3
				c0.2,0.4,0.1,0.9-0.3,1.1c-0.1,0.1-0.3,0.1-0.4,0.1C340.1,105.1,339.8,105,339.7,104.7L339.7,104.7z M320.9,105
				c-0.4-0.2-0.5-0.7-0.3-1.1c0.2-0.4,0.7-0.5,1.1-0.3c0.4,0.2,0.5,0.7,0.3,1.1c-0.2,0.3-0.4,0.4-0.7,0.4
				C321.1,105.1,321,105.1,320.9,105L320.9,105z M333.3,106.7c-0.1-0.5,0.2-0.9,0.7-1c0.5-0.1,0.9,0.2,1,0.7c0.1,0.5-0.2,0.9-0.7,1
				l-0.1,0C333.8,107.4,333.4,107.1,333.3,106.7L333.3,106.7z M327.4,107.4c-0.5-0.1-0.8-0.5-0.7-1c0.1-0.5,0.5-0.8,1-0.7
				c0.5,0.1,0.8,0.5,0.7,1c-0.1,0.4-0.4,0.7-0.8,0.7L327.4,107.4L327.4,107.4z"/>
			<path class="st74" d="M371.8,25h54.3v-6.9h-54.3V25L371.8,25z M426.9,26.7H371c-0.5,0-0.8-0.4-0.8-0.8v-8.5
				c0-0.5,0.4-0.8,0.8-0.8h55.9c0.5,0,0.8,0.4,0.8,0.8v8.5C427.7,26.3,427.4,26.7,426.9,26.7L426.9,26.7z"/>
			<path class="st74" d="M371.8,72.6h54.3V26.7h-54.3V72.6L371.8,72.6z M426.9,74.3H371c-0.5,0-0.8-0.4-0.8-0.8V25.8
				c0-0.5,0.4-0.8,0.8-0.8h55.9c0.5,0,0.8,0.4,0.8,0.8v47.6C427.7,73.9,427.4,74.3,426.9,74.3L426.9,74.3z"/>
			<path class="st74" d="M374.9,22.8c-0.2,0-0.4-0.1-0.6-0.2c-0.2-0.2-0.2-0.4-0.2-0.6c0-0.2,0.1-0.4,0.2-0.6
				c0.2-0.2,0.5-0.3,0.8-0.2c0.1,0,0.1,0,0.2,0l0.1,0.1l0.1,0.1c0.2,0.2,0.2,0.4,0.2,0.6c0,0.2-0.1,0.4-0.2,0.6l-0.1,0.1l-0.1,0.1
				c-0.1,0-0.1,0-0.2,0.1C375,22.8,375,22.8,374.9,22.8L374.9,22.8z"/>
			<path class="st74" d="M380.9,22c0-0.5,0.4-0.8,0.8-0.8c0.5,0,0.8,0.4,0.8,0.8c0,0.5-0.4,0.8-0.8,0.8
				C381.3,22.8,380.9,22.4,380.9,22L380.9,22z"/>
			<path class="st74" d="M388.5,22.8c-0.2,0-0.4-0.1-0.6-0.2l-0.1-0.1l-0.1-0.1c0-0.1,0-0.1-0.1-0.2c0-0.1,0-0.1,0-0.2
				c0-0.1,0-0.1,0-0.2c0-0.1,0-0.1,0.1-0.2l0.1-0.1l0.1-0.1c0.3-0.3,0.9-0.3,1.2,0l0.1,0.1l0.1,0.1c0,0.1,0,0.1,0,0.2
				c0,0.1,0,0.1,0,0.2c0,0.1,0,0.1,0,0.2c0,0.1,0,0.1,0,0.2l-0.1,0.1l-0.1,0.1C389,22.7,388.7,22.8,388.5,22.8L388.5,22.8z"/>
			<path class="st74" d="M393.1,72.6h11.8V46.3h-11.8V72.6L393.1,72.6z M405.7,74.2h-13.5c-0.5,0-0.8-0.4-0.8-0.8V45.5
				c0-0.5,0.4-0.8,0.8-0.8h13.5c0.5,0,0.8,0.4,0.8,0.8v27.9C406.5,73.9,406.2,74.2,405.7,74.2L405.7,74.2z"/>
			<path class="st74" d="M397.3,37h3.3l-1.6-3.3L397.3,37L397.3,37z M401.9,38.7h-6c-0.3,0-0.6-0.2-0.7-0.4c-0.2-0.2-0.2-0.6,0-0.8
				l3-6c0.1-0.3,0.4-0.5,0.7-0.5c0.3,0,0.6,0.2,0.8,0.5l3,6c0.1,0.3,0.1,0.6,0,0.8C402.5,38.5,402.2,38.7,401.9,38.7L401.9,38.7z"/>
			<path class="st74" d="M393.6,44.6h10.8l-2.9-6h-4.9L393.6,44.6L393.6,44.6z M405.7,46.3h-13.5c-0.3,0-0.6-0.1-0.7-0.4
				c-0.2-0.2-0.2-0.6,0-0.8l3.8-7.6c0.1-0.3,0.4-0.5,0.7-0.5h6c0.3,0,0.6,0.2,0.7,0.5l3.8,7.6c0.1,0.3,0.1,0.6,0,0.8
				C406.3,46.2,406,46.3,405.7,46.3L405.7,46.3z"/>
			<path class="st74" d="M396.7,74.2c-0.5,0-0.8-0.4-0.8-0.8V45.5c0-0.5,0.4-0.8,0.8-0.8c0.5,0,0.8,0.4,0.8,0.8v27.9
				C397.6,73.9,397.2,74.2,396.7,74.2L396.7,74.2z"/>
			<path class="st74" d="M401.2,74.2c-0.5,0-0.8-0.4-0.8-0.8V45.5c0-0.5,0.4-0.8,0.8-0.8c0.5,0,0.8,0.4,0.8,0.8v27.9
				C402,73.9,401.7,74.2,401.2,74.2L401.2,74.2z"/>
			<path class="st74" d="M18.8,80.2c-6.6,0-12,5.4-12,12c0,6.6,5.4,12,12,12h11.5v-24H18.8L18.8,80.2z M31.2,105.8H18.8
				c-7.5,0-13.7-6.1-13.7-13.7c0-7.5,6.1-13.7,13.7-13.7h12.4c0.5,0,0.8,0.4,0.8,0.8V105C32,105.5,31.6,105.8,31.2,105.8L31.2,105.8
				z"/>
			<path class="st74" d="M32,106.8h2.9V77.5H32V106.8L32,106.8z M35.8,108.5h-4.6c-0.5,0-0.8-0.4-0.8-0.8v-31c0-0.5,0.4-0.8,0.8-0.8
				h4.6c0.5,0,0.8,0.4,0.8,0.8v31C36.6,108.1,36.2,108.5,35.8,108.5L35.8,108.5z"/>
			<path class="st74" d="M36.6,104.1l23.8,4.3v-33l-23.8,4.3V104.1L36.6,104.1z M61.2,110.3l-0.1,0l-25.5-4.6
				c-0.4-0.1-0.7-0.4-0.7-0.8V79c0-0.4,0.3-0.8,0.7-0.8l25.5-4.6c0.2,0,0.5,0,0.7,0.2c0.2,0.2,0.3,0.4,0.3,0.6v35
				c0,0.2-0.1,0.5-0.3,0.6C61.6,110.2,61.4,110.3,61.2,110.3L61.2,110.3z"/>
			<path class="st74" d="M10.1,97.6c-0.3,0-0.6-0.1-0.7-0.4C8.5,95.7,8,94,8,92.2c0-2.2,0.8-4.4,2.2-6.2c0.3-0.4,0.8-0.4,1.2-0.1
				c0.4,0.3,0.4,0.8,0.1,1.2c-1.2,1.5-1.8,3.2-1.8,5.1c0,1.5,0.4,2.9,1.2,4.2c0.2,0.4,0.1,0.9-0.3,1.2
				C10.4,97.6,10.3,97.6,10.1,97.6L10.1,97.6z"/>
			<path class="st74" d="M17.8,102c-2.2,0-4.3-0.7-6.1-2.1c-0.4-0.3-0.4-0.8-0.1-1.2c0.3-0.4,0.8-0.4,1.2-0.1
				c1.5,1.2,3.2,1.8,5.1,1.8c0.5,0,0.8,0.4,0.8,0.8C18.6,101.6,18.2,102,17.8,102L17.8,102z"/>
			<path class="st74" d="M14.5,129.4h9.2l3.4-23.6h-6.4l-2.9,19.5c-0.1,0.4-0.4,0.7-0.8,0.7c-1.4,0-2.5,1.1-2.5,2.5V129.4
				L14.5,129.4z M24.4,131H13.7c-0.5,0-0.8-0.4-0.8-0.8v-1.7c0-2,1.5-3.7,3.4-4.1l2.9-19.5c0.1-0.4,0.4-0.7,0.8-0.7h8.1
				c0.2,0,0.5,0.1,0.6,0.3c0.2,0.2,0.2,0.4,0.2,0.7l-3.7,25.2C25.2,130.7,24.8,131,24.4,131L24.4,131z"/>
			<path class="st74" d="M61.2,80.2h-4c-0.5,0-0.8-0.4-0.8-0.8c0-0.5,0.4-0.8,0.8-0.8h4c0.5,0,0.8,0.4,0.8,0.8
				C62.1,79.8,61.7,80.2,61.2,80.2L61.2,80.2z"/>
			<path class="st74" d="M61.2,86.8h-4c-0.5,0-0.8-0.4-0.8-0.8c0-0.5,0.4-0.8,0.8-0.8h4c0.5,0,0.8,0.4,0.8,0.8
				C62.1,86.4,61.7,86.8,61.2,86.8L61.2,86.8z"/>
			<path class="st74" d="M61.2,93.4h-4c-0.5,0-0.8-0.4-0.8-0.8c0-0.5,0.4-0.8,0.8-0.8h4c0.5,0,0.8,0.4,0.8,0.8
				C62.1,93,61.7,93.4,61.2,93.4L61.2,93.4z"/>
			<path class="st74" d="M61.2,100h-4c-0.5,0-0.8-0.4-0.8-0.8c0-0.5,0.4-0.8,0.8-0.8h4c0.5,0,0.8,0.4,0.8,0.8
				C62.1,99.6,61.7,100,61.2,100L61.2,100z"/>
			<path class="st74" d="M61.2,106.6h-4c-0.5,0-0.8-0.4-0.8-0.8c0-0.5,0.4-0.8,0.8-0.8h4c0.5,0,0.8,0.4,0.8,0.8
				C62.1,106.2,61.7,106.6,61.2,106.6L61.2,106.6z"/>
			<path class="st74" d="M409.8,128.2c-0.4,0-0.8-0.4-0.8-0.8v-19.5c0-0.4,0.4-0.8,0.8-0.8c0.4,0,0.8,0.4,0.8,0.8v19.5
				C410.6,127.8,410.3,128.2,409.8,128.2L409.8,128.2z"/>
			<path class="st74" d="M407.7,103.1c0.1,0,0.2,0,0.3,0.1c0.3,0.1,0.5,0.4,0.5,0.7v1.9c0,0.7,0.6,1.3,1.3,1.3
				c0.7,0,1.3-0.6,1.3-1.3v-1.9c0-0.3,0.2-0.6,0.5-0.7c0.3-0.1,0.6-0.1,0.9,0.2l1.4,1.4c0.5,0.5,1.4,0.5,1.9,0
				c0.5-0.5,0.5-1.4,0-1.9l-1.4-1.4c-0.2-0.2-0.3-0.6-0.2-0.9c0.1-0.3,0.4-0.5,0.7-0.5h1.9c0.7,0,1.3-0.6,1.3-1.3
				c0-0.7-0.6-1.3-1.3-1.3H415c-0.3,0-0.6-0.2-0.7-0.5c-0.1-0.3-0.1-0.6,0.2-0.9l1.4-1.4c0.5-0.5,0.5-1.4,0-1.9
				c-0.5-0.5-1.4-0.5-1.9,0l-1.4,1.4c-0.2,0.2-0.6,0.3-0.9,0.2c-0.3-0.1-0.5-0.4-0.5-0.7v-1.9c0-0.7-0.6-1.3-1.3-1.3
				c-0.7,0-1.3,0.6-1.3,1.3v1.9c0,0.3-0.2,0.6-0.5,0.7c-0.3,0.1-0.6,0.1-0.9-0.2l-1.4-1.4c-0.5-0.5-1.4-0.5-1.9,0
				c-0.3,0.3-0.4,0.6-0.4,0.9c0,0.4,0.1,0.7,0.4,0.9l1.4,1.4c0.2,0.2,0.3,0.6,0.2,0.9c-0.1,0.3-0.4,0.5-0.7,0.5h-1.9
				c-0.7,0-1.3,0.6-1.3,1.3c0,0.7,0.6,1.3,1.3,1.3h1.9c0.3,0,0.6,0.2,0.7,0.5c0.1,0.3,0.1,0.6-0.2,0.9l-1.4,1.4
				c-0.3,0.3-0.4,0.6-0.4,0.9c0,0.4,0.1,0.7,0.4,0.9c0.5,0.5,1.4,0.5,1.9,0l1.4-1.4C407.3,103.2,407.5,103.1,407.7,103.1
				L407.7,103.1z M409.8,108.7c-1.6,0-2.9-1.3-2.9-2.9v0l0,0c-0.6,0.6-1.3,0.9-2.1,0.9c-0.8,0-1.5-0.3-2.1-0.9
				c-0.6-0.6-0.9-1.3-0.9-2.1s0.3-1.5,0.9-2.1l0,0h0c-1.6,0-2.9-1.3-2.9-2.9c0-1.6,1.3-2.9,2.9-2.9h0l0,0c-0.6-0.6-0.9-1.3-0.9-2.1
				c0-0.8,0.3-1.5,0.9-2.1c0.5-0.6,1.3-0.9,2.1-0.9c0.8,0,1.5,0.3,2.1,0.9l0,0v0c0-1.6,1.3-2.9,2.9-2.9c1.6,0,2.9,1.3,2.9,2.9v0l0,0
				c1.1-1.1,3-1.1,4.1,0c1.1,1.1,1.1,3,0,4.1l0,0h0c1.6,0,2.9,1.3,2.9,2.9c0,1.6-1.3,2.9-2.9,2.9h0l0,0c1.1,1.1,1.1,3,0,4.1
				c-1.1,1.1-3,1.1-4.1,0l0,0v0C412.8,107.4,411.4,108.7,409.8,108.7L409.8,108.7z"/>
			<path class="st74" d="M409.6,97.2c-0.8,0-1.4,0.6-1.4,1.4c0,0.8,0.6,1.4,1.4,1.4c0.8,0,1.4-0.6,1.4-1.4
				C411,97.8,410.4,97.2,409.6,97.2L409.6,97.2z M409.6,101.6c-1.6,0-3-1.3-3-3c0-1.6,1.3-3,3-3c1.6,0,3,1.3,3,3
				C412.6,100.2,411.3,101.6,409.6,101.6L409.6,101.6z"/>
			<path class="st74" d="M421.4,109c-1.6,0-5.5,0.4-8,2.9c-2.5,2.5-2.8,6.4-2.9,8c1.6,0,5.5-0.4,8-2.9
				C421,114.5,421.4,110.6,421.4,109L421.4,109z M410.2,121.5c-0.3,0-0.5,0-0.5,0c-0.4,0-0.7-0.3-0.7-0.7c0-0.3-0.3-6.3,3.3-9.9
				c3.6-3.6,9.7-3.3,9.9-3.3c0.4,0,0.7,0.3,0.7,0.7c0,0.3,0.3,6.3-3.3,9.9C416.6,121.2,411.8,121.5,410.2,121.5L410.2,121.5z"/>
			<path class="st74" d="M401,117c2.4,2.4,6.3,2.8,8,2.9c0-1.6-0.4-5.5-2.9-8c-2.4-2.4-6.4-2.8-8-2.9
				C398.2,110.6,398.5,114.6,401,117L401,117z M409.3,121.5c-1.6,0-6.3-0.3-9.4-3.3c-3.6-3.6-3.3-9.7-3.3-9.9c0-0.4,0.3-0.7,0.7-0.7
				c0.3,0,6.3-0.3,9.9,3.3c3.6,3.6,3.3,9.7,3.3,9.9c0,0.4-0.3,0.7-0.7,0.7C409.8,121.5,409.6,121.5,409.3,121.5L409.3,121.5z"/>
			<path class="st74" d="M430.8,128.3c-0.4,0-0.8-0.4-0.8-0.8V115c0-0.4,0.4-0.8,0.8-0.8c0.4,0,0.8,0.4,0.8,0.8v12.5
				C431.5,127.9,431.2,128.3,430.8,128.3L430.8,128.3z"/>
			<path class="st74" d="M429.4,111.5c0.1,0,0.2,0,0.3,0.1c0.3,0.1,0.5,0.4,0.5,0.7v1.2c0,0.3,0.3,0.6,0.6,0.6
				c0.3,0,0.6-0.3,0.6-0.6v-1.2c0-0.3,0.2-0.6,0.5-0.7c0.3-0.1,0.6-0.1,0.9,0.2l0.9,0.9c0.2,0.2,0.6,0.2,0.8,0
				c0.2-0.2,0.2-0.6,0-0.8l-0.9-0.9c-0.2-0.2-0.3-0.6-0.2-0.9c0.1-0.3,0.4-0.5,0.7-0.5h1.2c0.3,0,0.6-0.3,0.6-0.6
				c0-0.3-0.3-0.6-0.6-0.6H434c-0.3,0-0.6-0.2-0.7-0.5c-0.1-0.3-0.1-0.6,0.2-0.9l0.9-0.9c0.2-0.2,0.2-0.6,0-0.8
				c-0.2-0.2-0.6-0.2-0.8,0l-0.9,0.9c-0.2,0.2-0.6,0.3-0.9,0.2c-0.3-0.1-0.5-0.4-0.5-0.7v-1.2c0-0.3-0.3-0.6-0.6-0.6
				c-0.3,0-0.6,0.3-0.6,0.6v1.2c0,0.3-0.2,0.6-0.5,0.7c-0.3,0.1-0.6,0.1-0.9-0.2l-0.9-0.9c-0.2-0.2-0.6-0.2-0.8,0
				c-0.2,0.2-0.2,0.6,0,0.8l0.9,0.9c0.2,0.2,0.3,0.6,0.2,0.9c-0.1,0.3-0.4,0.5-0.7,0.5h-1.2c-0.3,0-0.6,0.3-0.6,0.6
				c0,0.3,0.3,0.6,0.6,0.6h1.2c0.3,0,0.6,0.2,0.7,0.5c0.1,0.3,0.1,0.6-0.2,0.9l-0.9,0.9c-0.2,0.2-0.2,0.6,0,0.8
				c0.2,0.2,0.6,0.2,0.8,0l0.9-0.9C429,111.6,429.2,111.5,429.4,111.5L429.4,111.5z M430.8,115.7c-1,0-1.9-0.7-2.1-1.6
				c-0.8,0.5-1.9,0.4-2.6-0.3c-0.7-0.7-0.8-1.8-0.3-2.6c-0.9-0.2-1.6-1.1-1.6-2.1c0-1,0.7-1.9,1.6-2.1c-0.5-0.8-0.4-1.9,0.3-2.6
				c0.7-0.7,1.8-0.8,2.6-0.3c0.2-0.9,1.1-1.6,2.1-1.6c1,0,1.9,0.7,2.1,1.6c0.8-0.5,1.9-0.4,2.6,0.3c0.7,0.7,0.8,1.8,0.3,2.6
				c0.9,0.2,1.6,1.1,1.6,2.1c0,1-0.7,1.9-1.6,2.1c0.5,0.8,0.4,1.9-0.3,2.6c-0.7,0.7-1.8,0.8-2.6,0.3
				C432.6,115,431.8,115.7,430.8,115.7L430.8,115.7z"/>
			<path class="st74" d="M430.6,108.3c-0.3,0-0.6,0.3-0.6,0.6c0,0.3,0.3,0.6,0.6,0.6c0.3,0,0.6-0.3,0.6-0.6
				C431.2,108.6,431,108.3,430.6,108.3L430.6,108.3z M430.6,111.1c-1.2,0-2.2-1-2.2-2.2c0-1.2,1-2.2,2.2-2.2c1.2,0,2.2,1,2.2,2.2
				C432.8,110.1,431.8,111.1,430.6,111.1L430.6,111.1z"/>
			<path class="st74" d="M388.4,128.3c-0.4,0-0.8-0.4-0.8-0.8V115c0-0.4,0.4-0.8,0.8-0.8c0.4,0,0.8,0.4,0.8,0.8v12.5
				C389.2,127.9,388.8,128.3,388.4,128.3L388.4,128.3z"/>
			<path class="st74" d="M387,111.5c0.1,0,0.2,0,0.3,0.1c0.3,0.1,0.5,0.4,0.5,0.7v1.2c0,0.3,0.3,0.6,0.6,0.6c0.3,0,0.6-0.3,0.6-0.6
				v-1.2c0-0.3,0.2-0.6,0.5-0.7c0.3-0.1,0.6-0.1,0.9,0.2l0.9,0.9c0.2,0.2,0.6,0.2,0.8,0c0.2-0.2,0.2-0.6,0-0.8l-0.9-0.9
				c-0.2-0.2-0.3-0.6-0.2-0.9c0.1-0.3,0.4-0.5,0.7-0.5h1.2c0.3,0,0.6-0.3,0.6-0.6c0-0.3-0.3-0.6-0.6-0.6h-1.2
				c-0.3,0-0.6-0.2-0.7-0.5c-0.1-0.3-0.1-0.6,0.2-0.9l0.9-0.9c0.2-0.2,0.2-0.6,0-0.8c-0.2-0.2-0.6-0.2-0.8,0l-0.9,0.9
				c-0.2,0.2-0.6,0.3-0.9,0.2c-0.3-0.1-0.5-0.4-0.5-0.7v-1.2c0-0.3-0.3-0.6-0.6-0.6c-0.3,0-0.6,0.3-0.6,0.6v1.2
				c0,0.3-0.2,0.6-0.5,0.7c-0.3,0.1-0.6,0.1-0.9-0.2l-0.9-0.9c-0.2-0.2-0.6-0.2-0.8,0c-0.2,0.2-0.2,0.6,0,0.8l0.9,0.9
				c0.2,0.2,0.3,0.6,0.2,0.9c-0.1,0.3-0.4,0.5-0.7,0.5h-1.2c-0.3,0-0.6,0.3-0.6,0.6c0,0.3,0.3,0.6,0.6,0.6h1.2
				c0.3,0,0.6,0.2,0.7,0.5c0.1,0.3,0.1,0.6-0.2,0.9l-0.9,0.9c-0.2,0.2-0.2,0.6,0,0.8c0.2,0.2,0.6,0.2,0.8,0l0.9-0.9
				C386.6,111.6,386.8,111.5,387,111.5L387,111.5z M388.4,115.7c-1,0-1.9-0.7-2.1-1.6c-0.8,0.5-1.9,0.4-2.6-0.3
				c-0.7-0.7-0.8-1.8-0.3-2.6c-0.9-0.2-1.6-1.1-1.6-2.1c0-1,0.7-1.9,1.6-2.1c-0.5-0.8-0.4-1.9,0.3-2.6c0.7-0.7,1.8-0.8,2.6-0.3
				c0.2-0.9,1.1-1.6,2.1-1.6c1,0,1.9,0.7,2.1,1.6c0.8-0.5,1.9-0.4,2.6,0.3c0.7,0.7,0.8,1.8,0.3,2.6c0.9,0.2,1.6,1.1,1.6,2.1
				c0,1-0.7,1.9-1.6,2.1c0.5,0.8,0.4,1.9-0.3,2.6c-0.7,0.7-1.8,0.8-2.6,0.3C390.3,115,389.4,115.7,388.4,115.7L388.4,115.7z"/>
			<path class="st74" d="M388.3,108.3c-0.3,0-0.6,0.3-0.6,0.6c0,0.3,0.3,0.6,0.6,0.6c0.3,0,0.6-0.3,0.6-0.6
				C388.9,108.6,388.6,108.3,388.3,108.3L388.3,108.3z M388.3,111.1c-1.2,0-2.2-1-2.2-2.2c0-1.2,1-2.2,2.2-2.2c1.2,0,2.2,1,2.2,2.2
				C390.5,110.1,389.5,111.1,388.3,111.1L388.3,111.1z"/>
			<path class="st74" d="M388.4,121c-0.2,0-0.4-0.1-0.6-0.2l-3.2-3.2c-0.3-0.3-0.3-0.8,0-1.1c0.3-0.3,0.8-0.3,1.1,0l2.6,2.6l2.6-2.6
				c0.3-0.3,0.8-0.3,1.1,0c0.3,0.3,0.3,0.8,0,1.1l-3.2,3.2C388.8,120.9,388.6,121,388.4,121L388.4,121z"/>
			<path class="st74" d="M430.8,120.6L430.8,120.6c-0.2,0-0.4-0.1-0.6-0.2l-3.2-3.2c-0.3-0.3-0.3-0.8,0-1.1c0.3-0.3,0.8-0.3,1.1,0
				l2.6,2.6l2.6-2.6c0.3-0.3,0.8-0.3,1.1,0c0.3,0.3,0.3,0.8,0,1.1l-3.2,3.2C431.2,120.5,431,120.6,430.8,120.6L430.8,120.6z"/>
			<path class="st74" d="M300,28.2h52.1v-4.7H300V28.2L300,28.2z M352.9,29.8h-53.7c-0.4,0-0.8-0.4-0.8-0.8v-6.2
				c0-0.4,0.4-0.8,0.8-0.8h53.7c0.4,0,0.8,0.4,0.8,0.8V29C353.7,29.4,353.3,29.8,352.9,29.8L352.9,29.8z"/>
			<path class="st74" d="M307.9,22h36.5l-18.2-34.1L307.9,22L307.9,22z M345.7,23.5h-39.1c-0.3,0-0.5-0.1-0.7-0.4
				c-0.1-0.2-0.2-0.5,0-0.8l19.5-36.5c0.1-0.3,0.4-0.4,0.7-0.4c0.3,0,0.6,0.2,0.7,0.4l19.5,36.5c0.1,0.2,0.1,0.5,0,0.8
				C346.2,23.4,345.9,23.5,345.7,23.5L345.7,23.5z"/>
			<path class="st74" d="M325.1,11.6c-0.8,0-1.4,0.6-1.4,1.4c0,0.8,0.6,1.4,1.4,1.4c0.8,0,1.4-0.6,1.4-1.4
				C326.6,12.2,325.9,11.6,325.1,11.6L325.1,11.6z M325.1,16c-1.6,0-3-1.3-3-3s1.3-3,3-3c1.7,0,3,1.3,3,3S326.8,16,325.1,16
				L325.1,16z"/>
			<path class="st74" d="M325-0.4c-0.8,0-1.4,0.6-1.4,1.4c0,0.8,0.6,1.4,1.4,1.4c0.8,0,1.4-0.6,1.4-1.4C326.4,0.3,325.7-0.4,325-0.4
				L325-0.4z M325,4c-1.6,0-3-1.3-3-3c0-1.6,1.3-3,3-3s3,1.3,3,3C327.9,2.7,326.6,4,325,4L325,4z"/>
			<path class="st74" d="M324.5,23c-0.2,0-0.3-0.1-0.5-0.2c-0.3-0.3-0.4-0.8-0.1-1.1l2.3-2.9l-1.5-2.8c-0.2-0.4-0.1-0.9,0.3-1.1
				c0.4-0.2,0.9-0.1,1.1,0.3l1.8,3.3c0.1,0.3,0.1,0.6-0.1,0.9l-2.6,3.3C324.9,22.9,324.7,23,324.5,23L324.5,23z"/>
			<path class="st74" d="M325.9,11.7c-0.1,0-0.3,0-0.4-0.1c-0.4-0.2-0.5-0.7-0.3-1.1L326,9l-1.3-5.7c-0.1-0.4,0.2-0.9,0.6-0.9
				c0.4-0.1,0.8,0.2,0.9,0.6l1.3,6c0,0.2,0,0.4-0.1,0.6l-1,1.8C326.4,11.6,326.1,11.7,325.9,11.7L325.9,11.7z"/>
		</g>
		<g style="clip-path:url(#SVGID_1_);">
			<path class="st14" d="M30.6,49.6c8,0,13.8,5.6,13.8,13.3c0,7.7-5.8,13.3-13.9,13.3H19.7V49.6H30.6z M24.2,72.1h6.5
				c5.2,0,9.1-3.8,9.1-9.2c0-5.4-4.1-9.3-9.3-9.3h-6.3V72.1z"/>
			<path class="st14" d="M53.6,53.6v7.2h13v4h-13v7.3h15v4H49.1V49.6h19v4H53.6z"/>
			<path class="st14" d="M92.1,52.1l-1.9,4c-2.9-1.7-5.8-2.5-7.8-2.5c-2.6,0-4.3,1-4.3,2.8c0,5.8,14.4,2.7,14.3,12.3
				c0,4.7-4.2,7.7-10,7.7c-4.2,0-8.1-1.7-10.9-4.2l1.9-3.9c2.7,2.5,6.2,3.9,9,3.9c3.1,0,5-1.2,5-3.2c0-5.9-14.4-2.6-14.4-12.1
				c0-4.6,3.9-7.4,9.7-7.4C86.2,49.4,89.6,50.5,92.1,52.1z"/>
			<path class="st14" d="M97.7,76.2V49.6h4.5v26.6H97.7z"/>
			<path class="st14" d="M131.3,63.1v9.8c-2.7,2.1-6.7,3.5-10.3,3.5c-7.9,0-14-5.9-14-13.5s6.2-13.4,14.2-13.4
				c3.8,0,7.6,1.4,10.2,3.7l-2.5,3.3c-2.1-1.9-4.9-3-7.7-3c-5.4,0-9.7,4.1-9.7,9.4c0,5.3,4.3,9.5,9.7,9.5c2,0,4.2-0.7,6.1-1.8v-7.4
				H131.3z"/>
			<path class="st14" d="M156.3,76.2l-14.2-19.1v19.1h-4.5V49.6h4.4l14.2,19.1V49.6h4.4v26.6H156.3z"/>
			<path class="st14" d="M172.2,53.6v7.2h13v4h-13v7.3h15v4h-19.5V49.6h19v4H172.2z"/>
			<path class="st14" d="M204.6,68.1c-0.4,0-0.8,0-1.2,0h-6.3v8h-4.5V49.6h10.8c6.8,0,10.7,3.3,10.7,9.1c0,4.3-2,7.3-5.5,8.6l6,8.9
				h-5.1L204.6,68.1z M203.4,64.1c4.1,0,6.5-1.7,6.5-5.4c0-3.5-2.4-5.2-6.5-5.2h-6.3v10.5H203.4z"/>
			<path class="st14" d="M238.2,52.1l-1.9,4c-2.9-1.7-5.8-2.5-7.8-2.5c-2.6,0-4.3,1-4.3,2.8c0,5.8,14.4,2.7,14.3,12.3
				c0,4.7-4.2,7.7-10,7.7c-4.2,0-8.1-1.7-10.9-4.2l1.9-3.9c2.7,2.5,6.2,3.9,9,3.9c3.1,0,5-1.2,5-3.2c0-5.9-14.4-2.6-14.4-12.1
				c0-4.6,3.9-7.4,9.7-7.4C232.3,49.4,235.7,50.5,238.2,52.1z"/>
			<path class="st14" d="M268.6,72.8c-2.4,2.2-5.1,3.5-8,3.5c-4.7,0-8.4-3.2-8.4-7.4c0-3.8,2.7-5.8,5.7-7.4
				c-1.7-2.4-2.5-4.3-2.5-6.2c0-3.5,2.8-6,6.9-6c4,0,6.7,2.3,6.7,5.6c0,3.6-3.2,5.5-6.5,7.3c1.4,1.6,3.3,3.5,5.6,5.8
				c0.9-1.4,1.7-3,2.4-4.8l2.8,2.1c-0.8,1.9-1.7,3.6-2.8,5.1l4.3,4.2l-2.2,2.3L268.6,72.8z M266.2,70.5c-2.7-2.7-4.8-4.8-6.5-6.7
				c-2.2,1.3-3.9,2.7-3.9,4.8c0,2.7,2.2,4.5,4.9,4.5C262.7,73,264.5,72.1,266.2,70.5z M260.8,60.1c2.6-1.3,4.7-2.7,4.7-5.1
				c0-1.7-1.3-2.9-3.2-2.9c-2.1,0-3.5,1.4-3.5,3.2C258.9,56.7,259.5,58.2,260.8,60.1z"/>
			<path class="st14" d="M310.4,53.6l-2.6,3.3c-1.9-2.1-4.7-3.4-7.4-3.4c-5.3,0-9.5,4.1-9.5,9.3s4.2,9.4,9.5,9.4
				c2.7,0,5.4-1.2,7.4-3.2l2.7,3c-2.7,2.7-6.5,4.4-10.3,4.4c-7.8,0-13.8-5.9-13.8-13.5c0-7.6,6.1-13.4,14-13.4
				C304.1,49.5,307.9,51,310.4,53.6z"/>
			<path class="st14" d="M327,68.1c-0.4,0-0.8,0-1.2,0h-6.3v8H315V49.6h10.8c6.8,0,10.7,3.3,10.7,9.1c0,4.3-2,7.3-5.5,8.6l6,8.9
				h-5.1L327,68.1z M325.8,64.1c4.1,0,6.5-1.7,6.5-5.4c0-3.5-2.4-5.2-6.5-5.2h-6.3v10.5H325.8z"/>
			<path class="st14" d="M347,53.6v7.2h13v4h-13v7.3h15v4h-19.5V49.6h19v4H347z"/>
			<path class="st14" d="M371.2,70.2l-2.5,6H364l11.7-26.6h4.6l11.6,26.6h-4.8l-2.5-6H371.2z M377.9,54.4l-5,11.8h10L377.9,54.4z"/>
			<path class="st14" d="M402.6,53.6v22.6h-4.5V53.6h-8.4v-4H411v4H402.6z"/>
			<path class="st14" d="M414.9,76.2V49.6h4.5v26.6H414.9z"/>
			<path class="st14" d="M433.6,76.2L423,49.6h4.8l8.2,21.6l8.3-21.6h4.7l-10.8,26.6H433.6z"/>
			<path class="st14" d="M457,53.6v7.2h13v4h-13v7.3h15v4h-19.5V49.6h19v4H457z"/>
			<path class="st14" d="M495.5,52.1l-1.9,4c-2.9-1.7-5.8-2.5-7.8-2.5c-2.6,0-4.3,1-4.3,2.8c0,5.8,14.4,2.7,14.3,12.3
				c0,4.7-4.2,7.7-10,7.7c-4.2,0-8.1-1.7-10.9-4.2l1.9-3.9c2.7,2.5,6.2,3.9,9,3.9c3.1,0,5-1.2,5-3.2c0-5.9-14.4-2.6-14.4-12.1
				c0-4.6,3.9-7.4,9.7-7.4C489.7,49.4,493.1,50.5,495.5,52.1z"/>
		</g>
	</g>
</g>
</svg>
