<?xml version="1.0" encoding="UTF-8"?>
<svg width="25px" height="25px" viewBox="0 0 25 25" version="1.1" xmlns="http://www.w3.org/2000/svg" xmlns:xlink="http://www.w3.org/1999/xlink">
    <!-- Generator: Sketch 51.1 (57501) - http://www.bohemiancoding.com/sketch -->
    <title>Component/Icon/Disburse</title>
    <desc>Created with Sketch.</desc>
    <defs></defs>
    <g id="Symbols" stroke="none" stroke-width="1" fill="none" fill-rule="evenodd">
        <g id="Icon/25/disburse">
            <g id="Component/Icon/Disburse">
                <circle id="Path-Copy-2" fill="#33CCFF" cx="12.5" cy="12.5" r="12.5"></circle>
                <path d="M17.3214286,12.1428571 C17.5694457,12.1428571 17.7802571,12.2296618 17.953869,12.4032738 C18.127481,12.5768858 18.2142857,12.7876972 18.2142857,13.0357143 L18.2142857,18.3928571 C18.2142857,18.6408743 18.127481,18.8516856 17.953869,19.0252976 C17.7802571,19.1989096 17.5694457,19.2857143 17.3214286,19.2857143 L8.39285714,19.2857143 C8.14484003,19.2857143 7.93402865,19.1989096 7.76041667,19.0252976 C7.58680469,18.8516856 7.5,18.6408743 7.5,18.3928571 L7.5,13.0357143 C7.5,12.7876972 7.58680469,12.5768858 7.76041667,12.4032738 C7.93402865,12.2296618 8.14484003,12.1428571 8.39285714,12.1428571 L8.69047619,12.1428571 L8.69047619,9.16666667 C8.69047619,8.01958752 9.0981482,7.03838453 9.91350446,6.22302827 C10.7288607,5.40767201 11.7100637,5 12.8571429,5 C14.004222,5 14.985425,5.40767201 15.8007813,6.22302827 C16.6161375,7.03838453 17.0238095,8.01958752 17.0238095,9.16666667 C17.0238095,9.32787779 16.9649063,9.46738532 16.8470982,9.58519345 C16.7292901,9.70300158 16.5897826,9.76190476 16.4285714,9.76190476 L15.8333333,9.76190476 C15.6721222,9.76190476 15.5326147,9.70300158 15.4148065,9.58519345 C15.2969984,9.46738532 15.2380952,9.32787779 15.2380952,9.16666667 C15.2380952,8.50942132 15.0055827,7.94829102 14.5405506,7.48325893 C14.0755185,7.01822684 13.5143882,6.78571429 12.8571429,6.78571429 C12.1998975,6.78571429 11.6387672,7.01822684 11.1737351,7.48325893 C10.708703,7.94829102 10.4761905,8.50942132 10.4761905,9.16666667 L10.4761905,12.1428571 L17.3214286,12.1428571 Z" id="unlock-alt---FontAwesome" fill="#FFFFFF"></path>
            </g>
        </g>
    </g>
</svg>