<?xml version="1.0" encoding="utf-8"?>
<!-- Generator: Adobe Illustrator 22.0.1, SVG Export Plug-In . SVG Version: 6.00 Build 0)  -->
<svg version="1.1" id="Layer_1" xmlns="http://www.w3.org/2000/svg" xmlns:xlink="http://www.w3.org/1999/xlink" x="0px" y="0px"
	 viewBox="0 0 400 400" style="enable-background:new 0 0 400 400;" xml:space="preserve">
<style type="text/css">
	.st0{fill:none;stroke:#8DD7F2;stroke-width:14.2609;stroke-linecap:round;stroke-linejoin:round;stroke-miterlimit:10;}
	.st1{fill:none;stroke:#47C8F5;stroke-width:20;stroke-linecap:round;stroke-miterlimit:10;}
	.st2{fill:none;stroke:#8DD7F2;stroke-width:15.4098;stroke-linecap:round;stroke-linejoin:round;stroke-miterlimit:10;}
	.st3{fill:#47C8F5;}
	.st4{fill:none;stroke:#47C8F5;stroke-width:20;stroke-miterlimit:10;}
	.st5{fill:none;stroke:#47C8F5;stroke-width:15;stroke-linecap:round;stroke-miterlimit:10;}
	.st6{fill:none;stroke:#47C8F5;stroke-width:10;stroke-linecap:round;stroke-miterlimit:10;}
	.st7{fill:none;stroke:#47C8F5;stroke-width:20;stroke-linecap:round;stroke-linejoin:round;stroke-miterlimit:10;}
	.st8{fill:none;stroke:#47C8F5;stroke-width:22.4476;stroke-linecap:round;stroke-linejoin:round;stroke-miterlimit:10;}
	.st9{fill:none;stroke:#47C8F5;stroke-miterlimit:10;}
	.st10{fill:none;stroke:#47C8F5;stroke-width:10;stroke-linecap:round;stroke-linejoin:round;stroke-miterlimit:10;}
</style>
<g>
	<path class="st4" d="M323.2,251.5V124.1l-80.5-79.5L99.7,43.8c-6.6,0-12,5.5-12,12.3v269.4c0,6.7,5.4,12.3,12,12.3h152.6"/>
	<path class="st4" d="M242.7,44.6v70.8c0,6.6,5.4,12,12,12h75.8"/>
</g>
<g>
	<line class="st5" x1="131.9" y1="106.9" x2="235.1" y2="106.9"/>
	<line class="st5" x1="131.9" y1="148.4" x2="265.1" y2="148.4"/>
	<line class="st5" x1="131.9" y1="189.8" x2="265.1" y2="189.8"/>
	<line class="st5" x1="131.9" y1="231.2" x2="265.1" y2="231.2"/>
	<line class="st5" x1="131.9" y1="272.6" x2="198.5" y2="272.6"/>
</g>
<g>
	<g>
		<line class="st2" x1="285.2" y1="313.9" x2="346" y2="313.9"/>
		<line class="st2" x1="315.6" y1="344.3" x2="315.6" y2="283.5"/>
	</g>
	<circle class="st0" cx="315.6" cy="313.9" r="63.5"/>
</g>
</svg>
