<?xml version="1.0" encoding="utf-8"?>
<!-- Generator: Adobe Illustrator 23.0.1, SVG Export Plug-In . SVG Version: 6.00 Build 0)  -->
<svg version="1.1" id="Capa_1" xmlns="http://www.w3.org/2000/svg" xmlns:xlink="http://www.w3.org/1999/xlink" x="0px" y="0px"
	 viewBox="0 0 510.8 510.8" style="enable-background:new 0 0 510.8 510.8;" xml:space="preserve">
<path d="M143.8,267.8L255.4,429L367,267.8l-111.6-186L143.8,267.8z M255.4,372.8l-47-67.9l47,20.9l47-20.9L255.4,372.8z
	 M255.4,290.8l-69.6-30.9L255.4,144L325,259.9L255.4,290.8z"/>
<g>
	<path d="M255.4,28.4c30.7,0,60.4,6,88.4,17.8c27,11.4,51.3,27.8,72.2,48.7c20.9,20.9,37.2,45.1,48.7,72.2
		c11.8,28,17.8,57.7,17.8,88.4s-6,60.4-17.8,88.4c-11.4,27-27.8,51.3-48.7,72.2c-20.9,20.9-45.1,37.2-72.2,48.7
		c-28,11.8-57.7,17.8-88.4,17.8s-60.4-6-88.4-17.8c-27-11.4-51.3-27.8-72.2-48.7c-20.9-20.9-37.2-45.1-48.7-72.2
		c-11.8-28-17.8-57.7-17.8-88.4s6-60.4,17.8-88.4c11.4-27,27.8-51.3,48.7-72.2C115.7,74,140,57.6,167,46.2
		C195,34.4,224.7,28.4,255.4,28.4 M255.4,7.4c-137,0-248,111-248,248s111,248,248,248s248-111,248-248S392.4,7.4,255.4,7.4
		L255.4,7.4z"/>
</g>
</svg>
