<?xml version="1.0" encoding="utf-8"?>
<!-- Generator: Adobe Illustrator 22.0.1, SVG Export Plug-In . SVG Version: 6.00 Build 0)  -->
<svg version="1.1" xmlns="http://www.w3.org/2000/svg" xmlns:xlink="http://www.w3.org/1999/xlink" x="0px" y="0px"
	 viewBox="0 0 513.8 118.3" style="enable-background:new 0 0 513.8 118.3;" xml:space="preserve">
<style type="text/css">
	.st0{display:none;}
	.st1{display:inline;fill:#33CCFF;}
	.st2{display:none;opacity:0.5;}
	.st3{display:inline;}
	.st4{opacity:0.5;fill:#33CCFF;}
	.st5{display:inline;opacity:0.5;}
	.st6{fill:#33CCFF;}
	.st7{fill:url(#SVGID_1_);}
	.st8{fill:url(#SVGID_2_);}
	.st9{fill:url(#SVGID_3_);}
	.st10{fill:url(#SVGID_4_);}
	.st11{fill:url(#SVGID_5_);}
	.st12{fill:url(#SVGID_6_);}
	.st13{fill:url(#SVGID_7_);}
	.st14{fill:#FFFFFF;}
	.st15{fill:#0099CC;}
	.st16{fill:#33CAFF;}
	.st17{opacity:5.000000e-02;fill:#F8F9F9;}
	.st18{fill:#00FFCA;}
	.st19{fill:#F5F5F5;}
	.st20{fill:#F2F2F2;}
	.st21{opacity:0.9;fill:#00FFFF;}
	.st22{fill:#15EBD6;}
	.st23{fill:#FFDB15;}
	.st24{fill:#FF99FF;}
	.st25{fill:#3366FF;}
	.st26{fill:#D1D1D1;}
	.st27{opacity:0.3;fill:#15EBD6;}
	.st28{fill:#919D9D;}
	.st29{fill:#FF6666;}
	.st30{opacity:0.1;fill:#33CCFF;}
	.st31{opacity:0.2;fill:#33CCFF;}
	.st32{opacity:5.000000e-02;fill:#33CCFF;}
	.st33{opacity:0.95;fill:#33CCFF;}
	.st34{opacity:0.9;fill:#33CCFF;}
	.st35{opacity:0.7;fill:#33CCFF;}
	.st36{opacity:0.6;fill:#33CCFF;}
	.st37{opacity:0.8;fill:#33CCFF;}
	.st38{opacity:0.3;fill:#33CCFF;}
	.st39{opacity:0.4;fill:#33CCFF;}
	.st40{fill:url(#SVGID_8_);}
	.st41{fill:url(#SVGID_9_);}
	.st42{fill:url(#SVGID_10_);}
	.st43{fill:url(#SVGID_11_);}
	.st44{fill:url(#SVGID_12_);}
	.st45{fill:url(#SVGID_13_);}
	.st46{fill:url(#SVGID_14_);}
	.st47{fill:url(#SVGID_15_);}
	.st48{fill:url(#SVGID_16_);}
	.st49{fill:url(#SVGID_17_);}
	.st50{fill:url(#SVGID_18_);}
	.st51{fill:url(#SVGID_19_);}
	.st52{fill:url(#SVGID_20_);}
	.st53{fill:url(#SVGID_21_);}
	.st54{fill:url(#SVGID_22_);}
	.st55{fill:url(#SVGID_23_);}
	.st56{fill:url(#SVGID_24_);}
	.st57{fill:#485F64;}
	.st58{fill:#9C9C9C;}
	.st59{fill:#221F1F;}
	.st60{fill:#06BC65;}
	.st61{fill:#1E1E1E;}
	.st62{fill:#FFFF5A;}
	.st63{fill:#F05A2A;}
	.st64{fill:#D661AA;}
	.st65{fill:#F7EA2F;}
	.st66{fill:#26A7DF;}
	.st67{fill:#EFE92B;}
	.st68{fill:#F9A0DC;}
	.st69{fill:#FF3951;}
	.st70{fill:#4EDCCA;}
	.st71{fill:#FFC600;}
	.st72{clip-path:url(#SVGID_26_);}
	.st73{clip-path:url(#SVGID_28_);}
	.st74{fill:#0078BF;}
	.st75{clip-path:url(#SVGID_30_);}
	.st76{clip-path:url(#SVGID_32_);}
	.st77{fill:#F9A4D8;}
	.st78{clip-path:url(#SVGID_34_);}
	.st79{clip-path:url(#SVGID_36_);}
	.st80{fill:url(#SVGID_37_);}
	.st81{fill:url(#SVGID_38_);}
	.st82{clip-path:url(#SVGID_40_);}
	.st83{clip-path:url(#SVGID_42_);}
	.st84{clip-path:url(#SVGID_44_);}
	.st85{clip-path:url(#SVGID_46_);}
	.st86{clip-path:url(#SVGID_48_);}
	.st87{clip-path:url(#SVGID_50_);}
	.st88{fill:url(#SVGID_51_);}
	.st89{fill:url(#SVGID_52_);}
	.st90{fill:url(#SVGID_53_);}
	.st91{fill:url(#SVGID_54_);}
	.st92{fill:url(#SVGID_55_);}
	.st93{fill:url(#SVGID_56_);}
	.st94{fill:url(#SVGID_57_);}
	.st95{fill:url(#SVGID_58_);}
	.st96{fill:#363636;}
	.st97{fill:#474747;}
	.st98{fill:#444444;}
	.st99{fill:#5E5E5E;}
	.st100{clip-path:url(#SVGID_60_);fill:url(#SVGID_61_);}
	.st101{clip-path:url(#SVGID_60_);}
	.st102{opacity:0.5;fill:#009DC1;}
	.st103{clip-path:url(#SVGID_63_);fill:url(#SVGID_64_);}
	.st104{opacity:0.5;clip-path:url(#SVGID_63_);}
	.st105{clip-path:url(#SVGID_63_);}
	.st106{clip-path:url(#SVGID_66_);fill:url(#SVGID_67_);}
	.st107{opacity:0.77;clip-path:url(#SVGID_66_);}
	.st108{fill:#038478;}
	.st109{clip-path:url(#SVGID_66_);}
	.st110{clip-path:url(#SVGID_69_);fill:url(#SVGID_70_);}
	.st111{opacity:0.5;clip-path:url(#SVGID_69_);}
	.st112{fill:#EA3D3D;}
	.st113{clip-path:url(#SVGID_69_);}
	.st114{clip-path:url(#SVGID_72_);fill:url(#SVGID_73_);}
	.st115{clip-path:url(#SVGID_72_);}
	.st116{opacity:0.47;}
	.st117{fill:#29B29E;}
	.st118{opacity:0.3;}
	.st119{clip-path:url(#SVGID_75_);fill:url(#SVGID_76_);}
	.st120{opacity:0.5;clip-path:url(#SVGID_75_);}
	.st121{clip-path:url(#SVGID_75_);}
</style>
<g id="Layer_3" class="st0">
</g>
<g id="Layer_2" class="st2">
</g>
<g id="Layer_1">
	<g>
		<defs>
			<rect id="SVGID_65_" width="513.8" height="118.3"/>
		</defs>
		<clipPath id="SVGID_1_">
			<use xlink:href="#SVGID_65_"  style="overflow:visible;"/>
		</clipPath>
		<linearGradient id="SVGID_2_" gradientUnits="userSpaceOnUse" x1="0" y1="59.1443" x2="513.7979" y2="59.1443">
			<stop  offset="0" style="stop-color:#00ACA0"/>
			<stop  offset="1" style="stop-color:#4EDCCA"/>
		</linearGradient>
		<rect style="clip-path:url(#SVGID_1_);fill:url(#SVGID_2_);" width="513.8" height="118.3"/>
		<g style="opacity:0.77;clip-path:url(#SVGID_1_);">
			<g>
				<path class="st108" d="M474.1,43c-0.2,0-0.4-0.1-0.5-0.2c-0.1-0.1-0.2-0.3-0.2-0.5c0-0.2,0.1-0.4,0.2-0.5c0.3-0.3,0.7-0.3,1,0
					c0.1,0.1,0.2,0.3,0.2,0.5c0,0.2-0.1,0.4-0.2,0.5C474.4,42.9,474.3,43,474.1,43L474.1,43z"/>
				<path class="st108" d="M477.6,42.3c0-0.4,0.3-0.7,0.7-0.7c0.4,0,0.7,0.3,0.7,0.7c0,0.4-0.3,0.7-0.7,0.7
					C477.9,43,477.6,42.7,477.6,42.3L477.6,42.3z"/>
				<path class="st108" d="M482.5,43c-0.2,0-0.4-0.1-0.5-0.2c-0.1-0.1-0.2-0.3-0.2-0.5c0-0.2,0.1-0.4,0.2-0.5c0.3-0.3,0.7-0.3,1,0
					c0.1,0.1,0.2,0.3,0.2,0.5c0,0.2-0.1,0.4-0.2,0.5C482.9,42.9,482.7,43,482.5,43L482.5,43z"/>
				<path class="st108" d="M506,87.2h-35.2c-0.4,0-0.7-0.3-0.7-0.7V38.8c0-0.4,0.3-0.7,0.7-0.7H506c0.4,0,0.7,0.3,0.7,0.7v16.6
					c0,0.4-0.3,0.7-0.7,0.7c-0.4,0-0.7-0.3-0.7-0.7V39.5h-33.8v46.3h33.8v-4.2c0-0.4,0.3-0.7,0.7-0.7c0.4,0,0.7,0.3,0.7,0.7v4.9
					C506.7,86.9,506.4,87.2,506,87.2L506,87.2z"/>
				<path class="st108" d="M471.5,45h33.8v-5.5h-33.8V45L471.5,45z M506,46.4h-35.2c-0.4,0-0.7-0.3-0.7-0.7v-6.9
					c0-0.4,0.3-0.7,0.7-0.7H506c0.4,0,0.7,0.3,0.7,0.7v6.9C506.7,46.1,506.4,46.4,506,46.4L506,46.4z"/>
				<path class="st108" d="M518.2,82.3h-40.6c-0.4,0-0.7-0.3-0.7-0.7V64.7c0-0.4,0.3-0.7,0.7-0.7c0.4,0,0.7,0.3,0.7,0.7v16.2h39.2
					V56.2c0-0.4,0.3-0.7,0.7-0.7c0.4,0,0.7,0.3,0.7,0.7v25.4C518.9,82,518.6,82.3,518.2,82.3L518.2,82.3z"/>
				<path class="st108" d="M484.1,72.5c-0.2,0-0.4-0.1-0.5-0.2l-6.5-7.2c-0.3-0.3-0.2-0.7,0-1c0.3-0.3,0.7-0.2,1,0l5.4,5.9l0.6-9.8
					c0-0.3,0.2-0.5,0.5-0.6c0.3-0.1,0.6,0,0.8,0.2l5.4,7l1.1-8.7c0-0.3,0.2-0.5,0.5-0.6c0.3-0.1,0.5,0,0.7,0.2l5,4.8l1.7-6.4
					c0.1-0.2,0.2-0.4,0.5-0.5c0.2-0.1,0.5,0,0.7,0.2l3.6,3.5l2.8-10.9c0.1-0.3,0.3-0.5,0.6-0.5c0.3,0,0.6,0.1,0.7,0.4l4,7.2
					l0.7-14.9c0-0.4,0.3-0.7,0.7-0.7c0.4,0,0.7,0.3,0.7,0.7L514,58c0,0.3-0.2,0.6-0.5,0.7c-0.3,0.1-0.6-0.1-0.8-0.3l-4.4-7.8
					l-2.7,10.4c-0.1,0.2-0.2,0.4-0.5,0.5c-0.2,0.1-0.5,0-0.7-0.2l-3.6-3.5l-1.7,6.4c-0.1,0.2-0.2,0.4-0.5,0.5s-0.5,0-0.7-0.2
					l-4.8-4.6l-1.2,9c0,0.3-0.2,0.5-0.5,0.6c-0.3,0.1-0.6,0-0.7-0.2l-5.3-6.9l-0.6,9.6c0,0.3-0.2,0.5-0.5,0.6
					C484.3,72.5,484.2,72.5,484.1,72.5L484.1,72.5z"/>
				<path class="st108" d="M484.1,76.2c-0.4,0-0.7-0.3-0.7-0.7v-3.6c0-0.4,0.3-0.7,0.7-0.7c0.4,0,0.7,0.3,0.7,0.7v3.6
					C484.8,75.9,484.5,76.2,484.1,76.2L484.1,76.2z"/>
				<path class="st108" d="M491.2,74.4c-0.4,0-0.7-0.3-0.7-0.7v-5c0-0.4,0.3-0.7,0.7-0.7c0.4,0,0.7,0.3,0.7,0.7v5
					C491.9,74.1,491.6,74.4,491.2,74.4L491.2,74.4z"/>
				<path class="st108" d="M498.4,71.5c-0.4,0-0.7-0.3-0.7-0.7v-7c0-0.4,0.3-0.7,0.7-0.7c0.4,0,0.7,0.3,0.7,0.7v7
					C499.1,71.2,498.8,71.5,498.4,71.5L498.4,71.5z"/>
				<path class="st108" d="M513.2,64.5c-0.4,0-0.7-0.3-0.7-0.7v-6.3c0-0.4,0.3-0.7,0.7-0.7c0.4,0,0.7,0.3,0.7,0.7v6.3
					C513.9,64.2,513.6,64.5,513.2,64.5L513.2,64.5z"/>
				<path class="st108" d="M513,64.5c-0.7,0-1.2,0.5-1.2,1.2c0,0.7,0.5,1.2,1.2,1.2c0.7,0,1.2-0.5,1.2-1.2
					C514.2,65.1,513.7,64.5,513,64.5L513,64.5z M513,68.3c-1.4,0-2.6-1.2-2.6-2.6c0-1.4,1.2-2.6,2.6-2.6c1.4,0,2.6,1.2,2.6,2.6
					C515.6,67.2,514.5,68.3,513,68.3L513,68.3z"/>
				<path class="st108" d="M505,68c-0.7,0-1.2,0.5-1.2,1.2c0,0.7,0.5,1.2,1.2,1.2c0.7,0,1.2-0.5,1.2-1.2C506.2,68.5,505.7,68,505,68
					L505,68z M505,71.8c-1.4,0-2.6-1.2-2.6-2.6c0-1.4,1.2-2.6,2.6-2.6s2.6,1.2,2.6,2.6C507.6,70.6,506.5,71.8,505,71.8L505,71.8z"/>
				<path class="st108" d="M498.4,71.6c-0.7,0-1.2,0.5-1.2,1.2c0,0.7,0.5,1.2,1.2,1.2c0.7,0,1.2-0.5,1.2-1.2
					C499.6,72.1,499,71.6,498.4,71.6L498.4,71.6z M498.4,75.4c-1.4,0-2.6-1.2-2.6-2.6c0-1.4,1.2-2.6,2.6-2.6c1.4,0,2.6,1.2,2.6,2.6
					C501,74.2,499.8,75.4,498.4,75.4L498.4,75.4z"/>
				<path class="st108" d="M491.4,74.5c-0.7,0-1.2,0.5-1.2,1.2c0,0.7,0.5,1.2,1.2,1.2c0.7,0,1.2-0.5,1.2-1.2
					C492.6,75,492.1,74.5,491.4,74.5L491.4,74.5z M491.4,78.3c-1.4,0-2.6-1.2-2.6-2.6c0-1.4,1.2-2.6,2.6-2.6c1.4,0,2.6,1.2,2.6,2.6
					C494,77.1,492.8,78.3,491.4,78.3L491.4,78.3z"/>
				<path class="st108" d="M484.1,76.2c-0.7,0-1.2,0.5-1.2,1.2c0,0.7,0.5,1.2,1.2,1.2c0.7,0,1.2-0.5,1.2-1.2
					C485.3,76.7,484.8,76.2,484.1,76.2L484.1,76.2z M484.1,80c-1.4,0-2.6-1.2-2.6-2.6c0-1.4,1.2-2.6,2.6-2.6c1.4,0,2.6,1.2,2.6,2.6
					C486.7,78.8,485.5,80,484.1,80L484.1,80z"/>
				<path class="st108" d="M505,68c-0.4,0-0.7-0.3-0.7-0.7v-6.6c0-0.4,0.3-0.7,0.7-0.7c0.4,0,0.7,0.3,0.7,0.7v6.6
					C505.7,67.6,505.4,68,505,68L505,68z"/>
				<path class="st108" d="M477.6,65.4c-0.4,0-0.7-0.3-0.7-0.7V55c0-0.4,0.3-0.7,0.7-0.7c0.4,0,0.7,0.3,0.7,0.7v9.7
					C478.3,65.1,478,65.4,477.6,65.4L477.6,65.4z"/>
				<path class="st108" d="M480.1,57.4c-0.2,0-0.4-0.1-0.5-0.2l-2-2l-2,2c-0.3,0.3-0.7,0.3-1,0c-0.3-0.3-0.3-0.7,0-1l2.5-2.5
					c0.3-0.3,0.7-0.3,1,0l2.5,2.5c0.3,0.3,0.3,0.7,0,1C480.5,57.4,480.3,57.4,480.1,57.4L480.1,57.4z"/>
				<path class="st108" d="M516.6,43.2c-0.2,0-0.4-0.1-0.5-0.2l-2-2l-2,2c-0.3,0.3-0.7,0.3-1,0c-0.3-0.3-0.3-0.7,0-1l2.5-2.5
					c0.1-0.1,0.3-0.2,0.5-0.2c0.2,0,0.4,0.1,0.5,0.2l2.5,2.5c0.3,0.3,0.3,0.7,0,1C517,43.1,516.8,43.2,516.6,43.2L516.6,43.2z"/>
			</g>
			<g>
				<path class="st108" d="M208.5,40.1c0-0.5,0.4-0.9,0.9-0.9c0.5,0,0.9,0.4,0.9,0.9c0,0.5-0.4,0.9-0.9,0.9
					C208.8,40.9,208.5,40.5,208.5,40.1L208.5,40.1z M214.6,43.1c-0.3-0.3-0.3-0.9,0-1.2c0.3-0.3,0.9-0.3,1.2,0
					c0.3,0.3,0.3,0.9,0,1.2c-0.2,0.2-0.4,0.3-0.6,0.3C215,43.4,214.8,43.3,214.6,43.1L214.6,43.1z M202.8,43.1
					c-0.3-0.3-0.3-0.9,0-1.2c0.3-0.3,0.9-0.3,1.2,0c0.3,0.3,0.3,0.9,0,1.2c-0.2,0.2-0.4,0.3-0.6,0.3C203.2,43.4,203,43.3,202.8,43.1
					L202.8,43.1z M216.8,48.4L216.8,48.4c0-0.5,0.4-0.9,0.9-0.9s0.9,0.4,0.9,0.9v0v0c0,0.5-0.4,0.9-0.9,0.9
					C217.2,49.3,216.8,48.9,216.8,48.4L216.8,48.4z M200.1,48.4c0-0.5,0.4-0.9,0.9-0.9c0.5,0,0.9,0.4,0.9,0.9c0,0.5-0.4,0.9-0.9,0.9
					C200.5,49.3,200.1,48.9,200.1,48.4L200.1,48.4z M214.6,54.9c-0.3-0.3-0.3-0.9,0-1.2c0.3-0.3,0.9-0.3,1.2,0
					c0.3,0.3,0.3,0.9,0,1.2c-0.2,0.2-0.4,0.3-0.6,0.3C215,55.2,214.8,55.1,214.6,54.9L214.6,54.9z M202.8,55c-0.3-0.3-0.3-0.9,0-1.2
					c0.3-0.3,0.9-0.3,1.2,0c0.3,0.3,0.3,0.9,0,1.2c-0.2,0.2-0.4,0.3-0.6,0.3C203.2,55.2,203,55.1,202.8,55L202.8,55z M208.5,56.8
					c0-0.5,0.4-0.9,0.9-0.9c0.5,0,0.9,0.4,0.9,0.9c0,0.5-0.4,0.9-0.9,0.9C208.9,57.6,208.5,57.3,208.5,56.8L208.5,56.8z"/>
				<path class="st108" d="M209.4,33.6c-8.1,0-14.7,6.6-14.7,14.7c0,8.1,6.6,14.7,14.7,14.7c8.1,0,14.7-6.6,14.7-14.7
					C224,40.2,217.4,33.6,209.4,33.6L209.4,33.6z M209.4,64.7c-9,0-16.4-7.4-16.4-16.4c0-9,7.4-16.4,16.4-16.4
					c9,0,16.4,7.4,16.4,16.4C225.7,57.4,218.4,64.7,209.4,64.7L209.4,64.7z"/>
				<path class="st108" d="M209.3,27c-11.7,0-21.3,9.6-21.3,21.3c0,11.7,9.5,21.3,21.3,21.3c11.7,0,21.3-9.5,21.3-21.3
					C230.6,36.6,221.1,27,209.3,27L209.3,27z M209.3,71.3c-12.7,0-23-10.3-23-23c0-12.7,10.3-23,23-23c12.7,0,23,10.3,23,23
					C232.3,61,222,71.3,209.3,71.3L209.3,71.3z"/>
				<path class="st108" d="M209.3,20.7c-15.2,0-27.6,12.4-27.6,27.6c0,15.2,12.4,27.6,27.6,27.6c15.2,0,27.6-12.4,27.6-27.6
					C236.9,33.1,224.5,20.7,209.3,20.7L209.3,20.7z M209.3,77.7c-16.2,0-29.3-13.2-29.3-29.3c0-16.2,13.2-29.3,29.3-29.3
					c16.2,0,29.3,13.2,29.3,29.3C238.7,64.5,225.5,77.7,209.3,77.7L209.3,77.7z"/>
				<path class="st108" d="M237.8,77.7c-0.2,0-0.4-0.1-0.6-0.3L210,50.3c-0.3-0.3-0.3-0.9,0-1.2c0.3-0.3,0.9-0.3,1.2,0l27.2,27.2
					c0.3,0.3,0.3,0.9,0,1.2C238.2,77.6,238,77.7,237.8,77.7L237.8,77.7z"/>
				<polygon class="st108" points="211,54.2 211,50.1 215.1,50.1 213.4,48.3 209.2,48.3 209.2,52.4 211,54.2 				"/>
				<path class="st108" d="M230.7,77.7c-0.5,0-0.9-0.4-0.9-0.9v-7c0-0.5,0.4-0.9,0.9-0.9h7c0.5,0,0.9,0.4,0.9,0.9
					c0,0.5-0.4,0.9-0.9,0.9h-6.1v6.1C231.5,77.3,231.2,77.7,230.7,77.7L230.7,77.7z"/>
				<path class="st108" d="M69,25.2h-1.1c-1.3,0-2.4-1.1-2.4-2.4c0-0.5,0.4-0.9,0.9-0.9s0.9,0.4,0.9,0.9c0,0.4,0.3,0.7,0.7,0.7H69
					c0.4,0,0.7-0.3,0.7-0.7v-1.1c0-0.4-0.3-0.7-0.7-0.7h-1.1c-1.3,0-2.4-1.1-2.4-2.4v-1.1c0-1.3,1.1-2.4,2.4-2.4H69
					c1.3,0,2.4,1.1,2.4,2.4c0,0.5-0.4,0.9-0.9,0.9c-0.5,0-0.9-0.4-0.9-0.8c0-0.4-0.3-0.7-0.7-0.7h-1.1c-0.4,0-0.7,0.3-0.7,0.7v1.1
					c0,0.4,0.3,0.7,0.7,0.7H69c1.3,0,2.4,1.1,2.4,2.4v1.1C71.4,24.1,70.3,25.2,69,25.2L69,25.2z"/>
				<path class="st108" d="M68.5,16.8c-0.5,0-0.9-0.4-0.9-0.9v-1.6c0-0.5,0.4-0.9,0.9-0.9c0.5,0,0.9,0.4,0.9,0.9v1.6
					C69.3,16.4,69,16.8,68.5,16.8L68.5,16.8z"/>
				<path class="st108" d="M68.5,26.8c-0.5,0-0.9-0.4-0.9-0.9v-1.6c0-0.5,0.4-0.9,0.9-0.9c0.5,0,0.9,0.4,0.9,0.9v1.6
					C69.3,26.4,69,26.8,68.5,26.8L68.5,26.8z"/>
				<path class="st108" d="M68.5,12.2c-1.8,0-3.6,0.6-5,1.8c-1.9,1.5-2.9,3.8-2.9,6.2c0,3.6,2.4,6.7,5.8,7.7c1.4,0.4,2.8,0.4,4.2,0
					c3.5-0.9,5.9-4.1,5.9-7.7C76.4,15.7,72.9,12.2,68.5,12.2L68.5,12.2z M68.5,29.8c-0.9,0-1.7-0.1-2.6-0.4c-4.2-1.2-7.1-5-7.1-9.3
					c0-2.9,1.3-5.7,3.6-7.5c1.7-1.4,3.9-2.2,6.1-2.2c5.3,0,9.7,4.3,9.7,9.7c0,4.4-2.9,8.2-7.1,9.3C70.2,29.7,69.3,29.8,68.5,29.8
					L68.5,29.8z"/>
				<path class="st108" d="M44,2.5c-0.1,0-0.1,0-0.2,0c-0.1,0-0.1,0-0.2-0.1l-0.1-0.1l-0.1-0.1l-0.1-0.1c0,0-0.1-0.1-0.1-0.1
					c0-0.1,0-0.1-0.1-0.2c0-0.1,0-0.1,0-0.2c0-0.1,0-0.1,0-0.2c0-0.1,0-0.1,0.1-0.2c0-0.1,0-0.1,0.1-0.1L43.4,1
					c0.2-0.2,0.5-0.3,0.8-0.2c0.1,0,0.1,0,0.2,0c0.1,0,0.1,0.1,0.1,0.1c0.1,0,0.1,0.1,0.1,0.1l0.1,0.1c0,0,0.1,0.1,0.1,0.1
					c0,0.1,0,0.1,0,0.2c0,0.1,0,0.1,0,0.2c0,0.2-0.1,0.4-0.3,0.6c0,0-0.1,0.1-0.1,0.1c0,0-0.1,0.1-0.1,0.1c-0.1,0-0.1,0-0.2,0.1
					C44.1,2.5,44.1,2.5,44,2.5L44,2.5z"/>
				<path class="st108" d="M48.3,1.6c0-0.5,0.4-0.9,0.9-0.9c0.5,0,0.9,0.4,0.9,0.9c0,0.5-0.4,0.9-0.9,0.9
					C48.7,2.5,48.3,2.1,48.3,1.6L48.3,1.6z"/>
				<path class="st108" d="M54.3,2.5c-0.1,0-0.1,0-0.2,0c-0.1,0-0.1,0-0.2-0.1c-0.1,0-0.1,0-0.1-0.1c-0.1,0-0.1-0.1-0.1-0.1
					c-0.2-0.2-0.3-0.4-0.3-0.6c0-0.2,0.1-0.4,0.3-0.6c0,0,0.1-0.1,0.1-0.1c0,0,0.1-0.1,0.1-0.1c0.1,0,0.1,0,0.2,0
					c0.3-0.1,0.6,0,0.8,0.2c0.2,0.2,0.3,0.4,0.3,0.6c0,0.2-0.1,0.4-0.3,0.6l-0.1,0.1l-0.1,0.1c-0.1,0-0.1,0-0.2,0.1
					C54.5,2.5,54.4,2.5,54.3,2.5L54.3,2.5z"/>
				<path class="st108" d="M40.6,44.2h55.6V5.9H83.1c3.6,3.9,5.7,9.1,5.7,14.6c0,11.6-9,21-20.1,21c-11.1,0-20.1-9.4-20.1-21
					c0-5.5,2-10.7,5.7-14.6H40.6V44.2L40.6,44.2z M97.1,45.9H39.8c-0.5,0-0.9-0.4-0.9-0.9V-1.9c0-0.5,0.4-0.9,0.9-0.9h19.7
					c0.4,0,0.8,0.3,0.8,0.7c0.1,0.3,0,0.5-0.2,0.7C59.9-1.1,59.7-1,59.4-1H40.6v5.2h15.7c0.4,0,0.7,0.2,0.8,0.6c0.1,0.3,0,0.7-0.2,1
					c-4.2,3.7-6.6,9.1-6.6,14.8c0,10.6,8.2,19.3,18.4,19.3c10.1,0,18.4-8.7,18.4-19.3c0-5.7-2.4-11.1-6.6-14.8
					c-0.3-0.2-0.4-0.6-0.2-1c0.1-0.3,0.4-0.6,0.8-0.6h16.1c0.5,0,0.9,0.4,0.9,0.9v40C97.9,45.6,97.5,45.9,97.1,45.9L97.1,45.9z"/>
				<path class="st108" d="M40.6,4.2H56c1.1-0.9,2.2-1.7,3.4-2.3L58.7-1H40.6V4.2L40.6,4.2z M56.3,5.9H39.8c-0.5,0-0.9-0.4-0.9-0.9
					v-6.9c0-0.5,0.4-0.9,0.9-0.9h19.6c0.4,0,0.7,0.3,0.8,0.7l0.9,4.2c0.1,0.4-0.1,0.8-0.5,1c-1.4,0.7-2.7,1.6-3.9,2.6
					C56.7,5.8,56.5,5.9,56.3,5.9L56.3,5.9z"/>
				<path class="st108" d="M81.3,4.2h14.9V-1h-18l-0.6,2.7C78.9,2.4,80.1,3.2,81.3,4.2L81.3,4.2z M97.1,5.9H80.9
					c-0.2,0-0.4-0.1-0.6-0.2c-1.3-1.1-2.7-2-4.1-2.7c-0.4-0.2-0.6-0.6-0.5-1l0.9-4c0.1-0.4,0.4-0.7,0.8-0.7h19.5
					c0.5,0,0.9,0.4,0.9,0.9V5C97.9,5.5,97.5,5.9,97.1,5.9L97.1,5.9z"/>
				<path class="st108" d="M58-12.1l3.2,14.2c0.1,0.4-0.1,0.8-0.5,1c-1.4,0.7-2.7,1.6-3.9,2.6c-4.2,3.7-6.6,9.1-6.6,14.8
					c0,10.6,8.2,19.3,18.4,19.3c10.1,0,18.4-8.7,18.4-19.3c0-5.7-2.4-11.1-6.6-14.8c-1.3-1.1-2.7-2-4.1-2.7c-0.4-0.2-0.6-0.6-0.5-1
					l3.2-14l-0.1,0.1c-0.5,0.6-1.2,1.4-2.6,1.4c-1.4,0-2.1-0.8-2.6-1.4c-0.5-0.6-0.7-0.8-1.3-0.8c-0.6,0-0.8,0.3-1.3,0.8
					c-0.5,0.6-1.2,1.4-2.6,1.4c-1.4,0-2.1-0.8-2.6-1.4c-0.5-0.6-0.7-0.8-1.3-0.8s-0.8,0.3-1.3,0.8c-0.5,0.6-1.2,1.4-2.6,1.4
					c-1.4,0-2.1-0.8-2.6-1.4L58-12.1L58-12.1z M68.6,41.5c-11.1,0-20.1-9.4-20.1-21c0-6.2,2.6-12.1,7.2-16.1c1.1-1,2.4-1.9,3.6-2.5
					l-3.4-15c0-0.1,0-0.1,0-0.2l0-0.3c0-0.2,0.1-0.5,0.2-0.6c0.2-0.2,0.4-0.3,0.6-0.3c1.4,0,2.1,0.8,2.6,1.4
					c0.5,0.6,0.7,0.8,1.3,0.8c0.6,0,0.8-0.3,1.3-0.8c0.5-0.6,1.2-1.4,2.6-1.4s2.1,0.8,2.6,1.4c0.5,0.6,0.7,0.8,1.3,0.8
					c0.6,0,0.8-0.3,1.3-0.8c0.5-0.6,1.2-1.4,2.6-1.4c1.4,0,2.1,0.8,2.6,1.4c0.5,0.6,0.7,0.8,1.3,0.8c0.6,0,0.8-0.3,1.3-0.8
					c0.5-0.6,1.2-1.4,2.6-1.4c0.2,0,0.5,0.1,0.6,0.3c0.2,0.2,0.2,0.4,0.2,0.7l0,0.3l0,0.1L77.6,1.7c1.4,0.7,2.7,1.6,3.9,2.7
					c4.6,4,7.2,9.9,7.2,16.1C88.7,32.1,79.7,41.5,68.6,41.5L68.6,41.5z"/>
				<path class="st108" d="M79.2,2.9H58.8c-0.5,0-0.9-0.4-0.9-0.9c0-0.5,0.4-0.9,0.9-0.9h20.4c0.5,0,0.9,0.4,0.9,0.9
					C80,2.6,79.6,2.9,79.2,2.9L79.2,2.9z"/>
				<path class="st108" d="M346.9,122.6h4.2V114h-4.2V122.6L346.9,122.6z M351.9,124.3H346c-0.5,0-0.9-0.4-0.9-0.9v-10.3
					c0-0.5,0.4-0.9,0.9-0.9h5.9c0.5,0,0.9,0.4,0.9,0.9v10.3C352.8,123.9,352.4,124.3,351.9,124.3L351.9,124.3z"/>
				<path class="st108" d="M321.2,112.3h56.1V74.7h-7.5v1.5c0,0.5-0.4,0.9-0.9,0.9h-9.5c-0.5,0-0.9-0.4-0.9-0.9v-1.5h-19.3v1.6
					c0,0.5-0.4,0.9-0.9,0.9h-9.5c-0.5,0-0.9-0.4-0.9-0.9v-1.6h-6.9V112.3L321.2,112.3z M378.2,114h-57.8c-0.5,0-0.9-0.4-0.9-0.9
					V73.8c0-0.5,0.4-0.9,0.9-0.9h8.6c0.5,0,0.9,0.4,0.9,0.9v1.6h7.8v-1.6c0-0.5,0.4-0.9,0.9-0.9h21c0.5,0,0.9,0.4,0.9,0.9v1.5h7.8
					v-1.5c0-0.5,0.4-0.9,0.9-0.9h9.2c0.5,0,0.9,0.4,0.9,0.9v39.3C379,113.6,378.6,114,378.2,114L378.2,114z"/>
				<path class="st108" d="M329.8,75.4h7.8v-3.6h-7.8V75.4L329.8,75.4z M338.5,77.1h-9.5c-0.5,0-0.9-0.4-0.9-0.9v-5.4
					c0-0.5,0.4-0.9,0.9-0.9h9.5c0.5,0,0.9,0.4,0.9,0.9v5.4C339.3,76.7,338.9,77.1,338.5,77.1L338.5,77.1z"/>
				<path class="st108" d="M360.3,75.3h7.8v-3.6h-7.8V75.3L360.3,75.3z M369,77h-9.5c-0.5,0-0.9-0.4-0.9-0.9v-5.4
					c0-0.5,0.4-0.9,0.9-0.9h9.5c0.5,0,0.9,0.4,0.9,0.9v5.4C369.8,76.7,369.4,77,369,77L369,77z"/>
				<path class="st108" d="M339.1,100l3.8,0.4c0.3,0,0.6,0.2,0.7,0.5l1.6,3.5l3.3-1.9c0.3-0.2,0.6-0.2,0.9,0l3.3,1.9l1.6-3.5
					c0.1-0.3,0.4-0.5,0.7-0.5l3.8-0.4l-0.8-3.8c-0.1-0.3,0-0.6,0.3-0.8l2.8-2.6l-2.8-2.6c-0.2-0.2-0.3-0.5-0.3-0.8l0.8-3.8l-3.8-0.4
					c-0.3,0-0.6-0.2-0.7-0.5l-1.6-3.5l-3.3,1.9c-0.3,0.2-0.6,0.2-0.9,0l-3.3-1.9l-1.6,3.5c-0.1,0.3-0.4,0.5-0.7,0.5l-3.8,0.4
					l0.8,3.8c0.1,0.3,0,0.6-0.3,0.8l-2.8,2.6l2.8,2.6c0.2,0.2,0.3,0.5,0.3,0.8L339.1,100L339.1,100z M353.1,106.5
					c-0.1,0-0.3,0-0.4-0.1l-3.7-2.1l-3.7,2.1c-0.2,0.1-0.5,0.1-0.7,0.1c-0.2-0.1-0.4-0.2-0.5-0.5l-1.8-3.9l-4.3-0.5
					c-0.2,0-0.5-0.2-0.6-0.3c-0.1-0.2-0.2-0.4-0.1-0.7l0.9-4.2l-3.2-2.9c-0.2-0.2-0.3-0.4-0.3-0.6s0.1-0.5,0.3-0.6l3.2-2.9l-0.9-4.2
					c0-0.2,0-0.5,0.1-0.7c0.1-0.2,0.4-0.3,0.6-0.3l4.3-0.5l1.8-3.9c0.1-0.2,0.3-0.4,0.5-0.5c0.2-0.1,0.5,0,0.7,0.1l3.7,2.1l3.7-2.1
					c0.2-0.1,0.5-0.1,0.7-0.1c0.2,0.1,0.4,0.2,0.5,0.5l1.8,3.9l4.3,0.5c0.2,0,0.5,0.2,0.6,0.3c0.1,0.2,0.2,0.4,0.1,0.7l-0.9,4.2
					l3.2,2.9c0.2,0.2,0.3,0.4,0.3,0.6s-0.1,0.5-0.3,0.6l-3.2,2.9l0.9,4.2c0,0.2,0,0.5-0.1,0.7c-0.1,0.2-0.4,0.3-0.6,0.3l-4.3,0.5
					l-1.8,3.9c-0.1,0.2-0.3,0.4-0.5,0.5C353.3,106.5,353.2,106.5,353.1,106.5L353.1,106.5z"/>
				<path class="st108" d="M139.9,59h-1.9c-1.9,0-3.5-1.6-3.5-3.5c0-0.5,0.4-0.9,0.9-0.9c0.5,0,0.9,0.4,0.9,0.9c0,1,0.8,1.8,1.8,1.8
					h1.9c1,0,1.8-0.8,1.8-1.8v-1.9c0-1-0.8-1.8-1.8-1.8h-1.9c-1.9,0-3.5-1.6-3.5-3.5v-1.9c0-1.9,1.6-3.5,3.5-3.5h1.9
					c1.9,0,3.5,1.6,3.5,3.5v0.1c0,0.5-0.4,0.9-0.9,0.9s-0.9-0.4-0.9-0.9v-0.1c0-1-0.8-1.8-1.8-1.8h-1.9c-1,0-1.8,0.8-1.8,1.8v1.9
					c0,1,0.8,1.8,1.8,1.8h1.9c1.9,0,3.5,1.6,3.5,3.5v1.9C143.4,57.4,141.9,59,139.9,59L139.9,59z"/>
				<path class="st108" d="M139,44.5c-0.5,0-0.9-0.4-0.9-0.9v-2.8c0-0.5,0.4-0.9,0.9-0.9c0.5,0,0.9,0.4,0.9,0.9v2.8
					C139.9,44.1,139.5,44.5,139,44.5L139,44.5z"/>
				<path class="st108" d="M139,61.8c-0.5,0-0.9-0.4-0.9-0.9v-2.8c0-0.5,0.4-0.9,0.9-0.9c0.5,0,0.9,0.4,0.9,0.9v2.8
					C139.9,61.4,139.5,61.8,139,61.8L139,61.8z"/>
				<path class="st108" d="M139,38.3c-6.3,0-11.5,4.5-12.5,10.7c-0.1,0.7-0.2,1.4-0.2,2c0,7,5.7,12.7,12.7,12.7
					c2.3,0,4.6-0.6,6.6-1.9l-1.4-3.4c-0.1-0.3-0.1-0.7,0.2-0.9c0.2-0.2,0.6-0.3,0.9-0.2l3.6,1.5c1.8-2.2,2.7-5,2.7-7.8
					C151.7,44,146,38.3,139,38.3L139,38.3z M139,65.4c-7.9,0-14.4-6.5-14.4-14.4c0-0.7,0.1-1.4,0.2-2.2c1.1-7,7.1-12.2,14.2-12.2
					c7.9,0,14.4,6.5,14.4,14.4c0,3.5-1.3,6.8-3.5,9.4c-0.2,0.3-0.6,0.4-1,0.2l-2.3-0.9l0.9,2.1c0.2,0.4,0,0.8-0.3,1
					C144.7,64.5,141.9,65.4,139,65.4L139,65.4z"/>
				<path class="st108" d="M154.5,70.1c0.2,0,0.4,0.1,0.6,0.3l7.7,7.7l2.1-2.1l-7.7-7.7c-0.3-0.3-0.3-0.9,0-1.2l2.1-2.1l-12.8-5.2
					l5.2,12.8l2.1-2.1C154.1,70.2,154.3,70.1,154.5,70.1L154.5,70.1z M162.8,80.1c-0.2,0-0.4-0.1-0.6-0.3l-7.7-7.7l-2.5,2.4
					c-0.2,0.2-0.5,0.3-0.8,0.2c-0.3-0.1-0.5-0.3-0.6-0.5l-6.5-15.9c-0.1-0.3-0.1-0.7,0.2-0.9c0.2-0.2,0.6-0.3,0.9-0.2l15.9,6.5
					c0.3,0.1,0.5,0.3,0.5,0.6c0.1,0.3,0,0.6-0.2,0.8l-2.5,2.4l7.7,7.7c0.3,0.3,0.3,0.9,0,1.2l-3.3,3.3
					C163.3,80,163.1,80.1,162.8,80.1L162.8,80.1z"/>
				<path class="st108" d="M139,34.7c-0.5,0-0.9-0.4-0.9-0.9v-7.1c0-0.5,0.4-0.9,0.9-0.9s0.9,0.4,0.9,0.9v7.1
					C139.9,34.3,139.5,34.7,139,34.7L139,34.7z"/>
				<path class="st108" d="M139,76.1c-0.5,0-0.9-0.4-0.9-0.9v-7.1c0-0.5,0.4-0.9,0.9-0.9c0.5,0,0.9,0.4,0.9,0.9v7.1
					C139.9,75.7,139.5,76.1,139,76.1L139,76.1z"/>
				<path class="st108" d="M126.9,39.7c-0.2,0-0.4-0.1-0.6-0.3l-5-5c-0.3-0.3-0.3-0.9,0-1.2c0.3-0.3,0.9-0.3,1.2,0l5,5
					c0.3,0.3,0.3,0.9,0,1.2C127.3,39.6,127.1,39.7,126.9,39.7L126.9,39.7z"/>
				<path class="st108" d="M121.8,51.8h-7.1c-0.5,0-0.9-0.4-0.9-0.9c0-0.5,0.4-0.9,0.9-0.9h7.1c0.5,0,0.9,0.4,0.9,0.9
					C122.7,51.5,122.3,51.8,121.8,51.8L121.8,51.8z"/>
				<path class="st108" d="M163.3,51.8h-7.1c-0.5,0-0.9-0.4-0.9-0.9c0-0.5,0.4-0.9,0.9-0.9h7.1c0.5,0,0.9,0.4,0.9,0.9
					C164.1,51.4,163.8,51.8,163.3,51.8L163.3,51.8z"/>
				<path class="st108" d="M121.8,69c-0.2,0-0.4-0.1-0.6-0.3c-0.3-0.3-0.3-0.9,0-1.2l5-5c0.3-0.3,0.9-0.3,1.2,0
					c0.3,0.3,0.3,0.9,0,1.2l-5,5C122.3,68.9,122.1,69,121.8,69L121.8,69z"/>
				<path class="st108" d="M151.1,39.7c-0.2,0-0.4-0.1-0.6-0.3c-0.3-0.3-0.3-0.9,0-1.2l5-5c0.3-0.3,0.9-0.3,1.2,0
					c0.3,0.3,0.3,0.9,0,1.2l-5,5C151.6,39.6,151.4,39.7,151.1,39.7L151.1,39.7z"/>
				<path class="st108" d="M139,22.7c-0.8,0-1.5,0.7-1.5,1.5c0,0.8,0.7,1.5,1.5,1.5s1.5-0.7,1.5-1.5C140.5,23.4,139.9,22.7,139,22.7
					L139,22.7z M139,27.5c-1.8,0-3.2-1.5-3.2-3.2c0-1.8,1.4-3.2,3.2-3.2c1.8,0,3.2,1.5,3.2,3.2C142.2,26,140.8,27.5,139,27.5
					L139,27.5z"/>
				<path class="st108" d="M139,76.3c-0.8,0-1.5,0.7-1.5,1.5c0,0.8,0.7,1.5,1.5,1.5c0.8,0,1.5-0.7,1.5-1.5
					C140.5,77,139.8,76.3,139,76.3L139,76.3z M139,81c-1.8,0-3.2-1.4-3.2-3.2s1.4-3.2,3.2-3.2c1.8,0,3.2,1.5,3.2,3.2
					S140.8,81,139,81L139,81z"/>
				<path class="st108" d="M120.1,30.6c-0.4,0-0.8,0.1-1.1,0.4c-0.6,0.6-0.6,1.5,0,2.1c0.6,0.6,1.5,0.6,2.1,0c0.6-0.6,0.6-1.5,0-2.1
					C120.9,30.7,120.5,30.6,120.1,30.6L120.1,30.6z M120.1,35.3c-0.8,0-1.7-0.3-2.3-0.9c-0.6-0.6-0.9-1.4-0.9-2.3
					c0-0.9,0.3-1.7,0.9-2.3c0.6-0.6,1.4-1,2.3-1c0.9,0,1.7,0.3,2.3,1c1.3,1.3,1.3,3.3,0,4.6C121.7,35,120.9,35.3,120.1,35.3
					L120.1,35.3z"/>
				<path class="st108" d="M112.2,49.5c-0.8,0-1.5,0.7-1.5,1.5c0,0.8,0.7,1.5,1.5,1.5c0.8,0,1.5-0.7,1.5-1.5
					C113.7,50.2,113.1,49.5,112.2,49.5L112.2,49.5z M112.2,54.2c-1.8,0-3.2-1.5-3.2-3.2c0-1.8,1.4-3.2,3.2-3.2
					c1.8,0,3.2,1.5,3.2,3.2C115.5,52.8,114,54.2,112.2,54.2L112.2,54.2z"/>
				<path class="st108" d="M165.8,49.5c-0.8,0-1.5,0.7-1.5,1.5c0,0.8,0.7,1.5,1.5,1.5s1.5-0.7,1.5-1.5
					C167.3,50.2,166.6,49.5,165.8,49.5L165.8,49.5z M165.8,54.3c-1.8,0-3.2-1.4-3.2-3.2c0-1.8,1.4-3.2,3.2-3.2
					c1.8,0,3.2,1.5,3.2,3.2C169,52.8,167.6,54.3,165.8,54.3L165.8,54.3z"/>
				<path class="st108" d="M118.4,68.3L118.4,68.3L118.4,68.3L118.4,68.3z M120.1,68.4c-0.4,0-0.8,0.1-1.1,0.4l0,0
					c-0.3,0.3-0.4,0.7-0.4,1.1c0,0.4,0.2,0.8,0.4,1.1c0.6,0.6,1.5,0.6,2.1,0c0.6-0.6,0.6-1.5,0-2.1
					C120.8,68.6,120.4,68.4,120.1,68.4L120.1,68.4z M120.1,73.2c-0.9,0-1.7-0.3-2.3-0.9c-0.6-0.6-0.9-1.4-0.9-2.3
					c0-0.9,0.3-1.7,0.9-2.3l0,0c0.6-0.6,1.4-0.9,2.3-0.9c0.9,0,1.7,0.3,2.3,0.9c1.3,1.3,1.3,3.3,0,4.6
					C121.7,72.8,120.9,73.2,120.1,73.2L120.1,73.2z"/>
				<path class="st108" d="M156.3,30.4L156.3,30.4L156.3,30.4L156.3,30.4z M157.9,30.6c-0.4,0-0.8,0.2-1.1,0.4l0,0
					c-0.3,0.3-0.4,0.7-0.4,1.1c0,0.4,0.2,0.8,0.4,1.1c0.6,0.6,1.6,0.6,2.1,0c0.3-0.3,0.4-0.7,0.4-1.1c0-0.4-0.2-0.8-0.4-1.1
					C158.7,30.8,158.3,30.6,157.9,30.6L157.9,30.6z M157.9,35.3c-0.9,0-1.7-0.3-2.3-0.9c-0.6-0.6-0.9-1.4-0.9-2.3
					c0-0.9,0.3-1.7,0.9-2.3l0,0c0.6-0.6,1.4-0.9,2.3-0.9c0.9,0,1.7,0.3,2.3,0.9c0.6,0.6,0.9,1.4,0.9,2.3c0,0.9-0.3,1.7-0.9,2.3
					C159.6,35,158.8,35.3,157.9,35.3L157.9,35.3z"/>
				<path class="st108" d="M103.4,90.2c-4.3,0-7.8,3.5-7.8,7.8c0,0.9,0.2,1.9,0.5,2.8c1.2,3,4.1,5,7.3,5c3.2,0,6.1-2,7.3-5
					c0.3-0.9,0.5-1.8,0.5-2.8C111.2,93.7,107.7,90.2,103.4,90.2L103.4,90.2z M103.4,107.6c-3.9,0-7.5-2.5-8.9-6.1
					c-0.4-1.1-0.6-2.2-0.6-3.4c0-5.3,4.3-9.5,9.5-9.5c5.3,0,9.5,4.3,9.5,9.5c0,1.2-0.2,2.3-0.6,3.4
					C110.8,105.1,107.3,107.6,103.4,107.6L103.4,107.6z"/>
				<path class="st108" d="M87.3,109.4L87.3,109.4L87.3,109.4L87.3,109.4z M67.2,71.6c-1.3,0-2.3,1-2.3,2.3v50.1
					c0,1.3,1.1,2.3,2.3,2.3h20.2c1.3,0,2.3-1,2.3-2.3v-9.5l-5.2,2.4c-0.3,0.2-0.7,0.1-1-0.2c-0.3-0.3-0.3-0.6-0.2-1l3.9-8.4
					c-1.9-3-2.8-6.4-2.8-9.9c0-4.9,1.9-9.5,5.3-13V74c0-1.3-1-2.3-2.3-2.3H67.2L67.2,71.6z M87.3,128.1H67.2c-2.2,0-4.1-1.8-4.1-4.1
					V74c0-2.2,1.8-4.1,4.1-4.1h20.2c2.2,0,4.1,1.8,4.1,4.1v11c0,0.2-0.1,0.5-0.3,0.6c-3.2,3.2-5,7.4-5,12c0,3.3,1,6.5,2.8,9.3
					c0.2,0.2,0.2,0.6,0.1,0.8l-3.1,6.8l4.3-2c0.3-0.1,0.6-0.1,0.8,0.1c0.2,0.2,0.4,0.4,0.4,0.7v10.8
					C91.4,126.3,89.6,128.1,87.3,128.1L87.3,128.1z"/>
				<path class="st108" d="M102.9,80.7c-4.4,0-8.6,1.7-11.8,4.8c-3.2,3.2-5,7.4-5,12c0,3.3,1,6.5,2.8,9.3c0.2,0.2,0.2,0.6,0.1,0.8
					l-3.1,6.8l6.7-3.1c0.3-0.1,0.6-0.1,0.8,0.1c2.8,1.9,6.1,3,9.5,3c9.3,0,16.8-7.5,16.8-16.8C119.7,88.3,112.2,80.7,102.9,80.7
					L102.9,80.7z M84.1,117.1c-0.2,0-0.4-0.1-0.6-0.3c-0.3-0.3-0.3-0.6-0.2-1l3.9-8.4c-1.9-3-2.8-6.4-2.8-9.9c0-5,2-9.7,5.5-13.2
					c3.5-3.4,8.1-5.3,13-5.3c10.2,0,18.5,8.3,18.5,18.5c0,10.2-8.3,18.5-18.5,18.5c-3.6,0-7.1-1-10.1-3l-8.4,3.9
					C84.3,117.1,84.2,117.1,84.1,117.1L84.1,117.1z"/>
				<path class="st108" d="M90.5,79H64c-0.5,0-0.9-0.4-0.9-0.9c0-0.5,0.4-0.9,0.9-0.9h26.6c0.5,0,0.9,0.4,0.9,0.9
					C91.4,78.6,91,79,90.5,79L90.5,79z"/>
				<path class="st108" d="M79.8,75.6h-5c-0.5,0-0.9-0.4-0.9-0.9c0-0.5,0.4-0.9,0.9-0.9h5c0.5,0,0.9,0.4,0.9,0.9
					C80.6,75.2,80.2,75.6,79.8,75.6L79.8,75.6z"/>
				<path class="st108" d="M77.2,83.4c-2.9,0-5.2,2.3-5.2,5.2c0,2.2,3.3,8.3,5.2,11.5c1.9-3.3,5.2-9.3,5.2-11.5
					C82.5,85.8,80.1,83.4,77.2,83.4L77.2,83.4z M77.2,102.7L77.2,102.7c-0.3,0-0.6-0.2-0.7-0.4c-0.6-1-6.2-10.1-6.2-13.6
					c0-3.8,3.1-7,7-7c3.8,0,7,3.1,7,7c0,3.5-5.6,12.6-6.2,13.6C77.8,102.5,77.5,102.7,77.2,102.7L77.2,102.7z"/>
				<path class="st108" d="M77.2,86.3c-0.9,0-1.6,0.7-1.6,1.6c0,0.9,0.7,1.6,1.6,1.6c0.9,0,1.6-0.7,1.6-1.6
					C78.9,87,78.1,86.3,77.2,86.3L77.2,86.3z M77.2,91.2c-1.8,0-3.3-1.5-3.3-3.3c0-1.8,1.5-3.3,3.3-3.3c1.8,0,3.3,1.5,3.3,3.3
					C80.6,89.7,79.1,91.2,77.2,91.2L77.2,91.2z"/>
				<path class="st108" d="M77.2,102.7c-1.3,0-2.4,1.1-2.4,2.4c0,1.3,1.1,2.4,2.4,2.4c1.3,0,2.4-1.1,2.4-2.4
					C79.6,103.8,78.6,102.7,77.2,102.7L77.2,102.7z M77.2,109.2c-2.3,0-4.1-1.8-4.1-4.1c0-2.3,1.8-4.1,4.1-4.1
					c2.3,0,4.1,1.8,4.1,4.1C81.4,107.3,79.5,109.2,77.2,109.2L77.2,109.2z"/>
				<path class="st108" d="M103.9,103.4h-1.2c-1.4,0-2.5-1.1-2.5-2.5c0-0.5,0.4-0.9,0.9-0.9s0.9,0.4,0.9,0.9c0,0.4,0.3,0.8,0.8,0.8
					h1.2c0.4,0,0.8-0.3,0.8-0.8v-1.2c0-0.4-0.3-0.8-0.8-0.8h-1.2c-1.4,0-2.5-1.1-2.5-2.5v-1.2c0-1.4,1.1-2.5,2.5-2.5h1.2
					c1.4,0,2.5,1.1,2.5,2.5c0,0.5-0.4,0.9-0.9,0.9c-0.5,0-0.9-0.4-0.9-0.8c0-0.5-0.3-0.8-0.8-0.8h-1.2c-0.4,0-0.8,0.3-0.8,0.8v1.2
					c0,0.4,0.3,0.8,0.8,0.8h1.2c1.4,0,2.5,1.1,2.5,2.5v1.2C106.4,102.3,105.3,103.4,103.9,103.4L103.9,103.4z"/>
				<path class="st108" d="M103.4,94.4c-0.5,0-0.9-0.4-0.9-0.9v-1.7c0-0.5,0.4-0.9,0.9-0.9c0.5,0,0.9,0.4,0.9,0.9v1.7
					C104.2,94,103.8,94.4,103.4,94.4L103.4,94.4z"/>
				<path class="st108" d="M103.4,105.4c-0.5,0-0.9-0.4-0.9-0.9v-1.7c0-0.5,0.4-0.9,0.9-0.9c0.5,0,0.9,0.4,0.9,0.9v1.7
					C104.2,105,103.8,105.4,103.4,105.4L103.4,105.4z"/>
				<path class="st108" d="M283.6,41.5h-1.4c-1.6,0-2.8-1.3-2.8-2.8c0-0.5,0.4-0.9,0.9-0.9c0.5,0,0.9,0.4,0.9,0.9
					c0,0.6,0.5,1.1,1.1,1.1h1.4c0.6,0,1.1-0.5,1.1-1.1v-1.4c0-0.6-0.5-1.1-1.1-1.1h-1.4c-1.6,0-2.8-1.3-2.8-2.8v-1.4
					c0-1.6,1.3-2.8,2.8-2.8h1.4c1.6,0,2.8,1.3,2.8,2.8v0.1c0,0.5-0.4,0.9-0.9,0.9c-0.5,0-0.9-0.4-0.9-0.9v-0.1
					c0-0.6-0.5-1.1-1.1-1.1h-1.4c-0.6,0-1.1,0.5-1.1,1.1v1.4c0,0.6,0.5,1.1,1.1,1.1h1.4c1.6,0,2.8,1.3,2.8,2.8v1.4
					C286.4,40.3,285.2,41.5,283.6,41.5L283.6,41.5z"/>
				<path class="st108" d="M282.9,30.8c-0.5,0-0.9-0.4-0.9-0.9v-2.1c0-0.5,0.4-0.9,0.9-0.9c0.5,0,0.9,0.4,0.9,0.9v2.1
					C283.8,30.4,283.4,30.8,282.9,30.8L282.9,30.8z"/>
				<path class="st108" d="M282.9,43.6c-0.5,0-0.9-0.4-0.9-0.9v-2.1c0-0.5,0.4-0.9,0.9-0.9c0.5,0,0.9,0.4,0.9,0.9v2.1
					C283.8,43.2,283.4,43.6,282.9,43.6L282.9,43.6z"/>
				<path class="st108" d="M282.9,24.8c-2.4,0-4.8,0.8-6.6,2.4c-2.5,2-3.9,5-3.9,8.2c0,4.7,3.2,8.9,7.7,10.1c1.9,0.5,3.7,0.5,5.6,0
					c4.6-1.2,7.7-5.4,7.7-10.1C293.4,29.5,288.7,24.8,282.9,24.8L282.9,24.8z M282.9,47.5c-1.1,0-2.2-0.1-3.3-0.4
					c-5.3-1.5-9-6.3-9-11.8c0-3.7,1.6-7.2,4.5-9.5c2.2-1.8,4.9-2.7,7.7-2.7c6.7,0,12.2,5.5,12.2,12.2c0,5.5-3.7,10.3-9,11.8
					C285.1,47.4,284,47.5,282.9,47.5L282.9,47.5z"/>
				<path class="st108" d="M259.1,51.8h47.8V16.5h-47.8V51.8L259.1,51.8z M307.7,53.5h-49.5c-0.5,0-0.9-0.4-0.9-0.9v-37
					c0-0.5,0.4-0.9,0.9-0.9h49.5c0.5,0,0.9,0.4,0.9,0.9v37C308.6,53.1,308.2,53.5,307.7,53.5L307.7,53.5z M254.7,56.1h56.5V12.2
					h-56.5V56.1L254.7,56.1z M312.1,57.8h-58.2c-0.5,0-0.9-0.4-0.9-0.9V11.3c0-0.5,0.4-0.9,0.9-0.9h58.2c0.5,0,0.9,0.4,0.9,0.9V57
					C313,57.5,312.6,57.8,312.1,57.8L312.1,57.8z"/>
				<path class="st108" d="M276.5,10.5h12.8l-6.4-9.3L276.5,10.5L276.5,10.5z M290.9,12.2h-16.1c-0.3,0-0.6-0.2-0.8-0.5
					c-0.1-0.3-0.1-0.6,0.1-0.9l8-11.7c0.3-0.5,1.1-0.5,1.4,0l8,11.7c0.2,0.3,0.2,0.6,0.1,0.9S291.3,12.2,290.9,12.2L290.9,12.2z"/>
				<path class="st108" d="M250.5,105.9c-2.4,0-4.4,2-4.4,4.4v17.8c0,2.4,2,4.4,4.4,4.4h47.7c2.4,0,4.4-2,4.4-4.4v-17.8
					c0-2.4-2-4.4-4.4-4.4H250.5L250.5,105.9z M298.2,134.3h-47.7c-3.4,0-6.1-2.8-6.1-6.1v-17.8c0-3.4,2.8-6.1,6.1-6.1h47.7
					c3.4,0,6.1,2.8,6.1,6.1v17.8C304.3,131.5,301.6,134.3,298.2,134.3L298.2,134.3z"/>
				<path class="st108" d="M252.6,104.2H296V97c0-3-2.4-5.5-5.4-5.6v9.3c0,0.5-0.4,0.9-0.9,0.9h-31c-0.5,0-0.9-0.4-0.9-0.9v-9.3
					c-2.9,0.2-5.3,2.6-5.3,5.6V104.2L252.6,104.2z M296.9,105.9h-45.1c-0.5,0-0.9-0.4-0.9-0.9V97c0-4,3.3-7.3,7.3-7.3h0.6
					c0.5,0,0.9,0.4,0.9,0.9v9.3h29.2v-9.3c0-0.5,0.4-0.9,0.9-0.9h0.7c4,0,7.3,3.3,7.3,7.3v8.1C297.7,105.6,297.3,105.9,296.9,105.9
					L296.9,105.9z"/>
				<path class="st108" d="M259.6,99.8h29.2V81.5h-4c-0.5,0-0.9-0.4-0.9-0.9v-4h-24.4V99.8L259.6,99.8z M289.7,101.5h-31
					c-0.5,0-0.9-0.4-0.9-0.9V75.8c0-0.5,0.4-0.9,0.9-0.9h26.1c0.5,0,0.9,0.4,0.9,0.9v4h4c0.5,0,0.9,0.4,0.9,0.9v20
					C290.6,101.1,290.2,101.5,289.7,101.5L289.7,101.5z"/>
				<path class="st108" d="M285.8,79.8h1.9l-1.9-1.9V79.8L285.8,79.8z M289.7,81.5h-4.8c-0.5,0-0.9-0.4-0.9-0.9v-4.8
					c0-0.3,0.2-0.7,0.5-0.8c0.3-0.1,0.7-0.1,0.9,0.2l4.8,4.8c0.2,0.2,0.3,0.6,0.2,0.9C290.4,81.3,290.1,81.5,289.7,81.5L289.7,81.5z
					"/>
				<path class="st108" d="M258.8,105.7c-0.5,0-0.9-0.4-0.9-0.9v-5.4c0-0.5,0.4-0.9,0.9-0.9c0.5,0,0.9,0.4,0.9,0.9v5.4
					C259.6,105.4,259.2,105.7,258.8,105.7L258.8,105.7z"/>
				<path class="st108" d="M289.7,105.7c-0.5,0-0.9-0.4-0.9-0.9v-5.4c0-0.5,0.4-0.9,0.9-0.9c0.5,0,0.9,0.4,0.9,0.9v5.4
					C290.6,105.4,290.2,105.7,289.7,105.7L289.7,105.7z"/>
				<path class="st108" d="M247.1,101.3h3.8v-3.8h-3.8V101.3L247.1,101.3z M251.8,103.1h-5.5c-0.5,0-0.9-0.4-0.9-0.9v-5.5
					c0-0.5,0.4-0.9,0.9-0.9h5.5c0.5,0,0.9,0.4,0.9,0.9v5.5C252.6,102.7,252.2,103.1,251.8,103.1L251.8,103.1z"/>
				<path class="st108" d="M297.7,100.8h2v-2.7h-2V100.8L297.7,100.8z M300.6,102.5h-3.7c-0.5,0-0.9-0.4-0.9-0.9v-4.4
					c0-0.5,0.4-0.9,0.9-0.9h3.7c0.5,0,0.9,0.4,0.9,0.9v4.4C301.5,102.1,301.1,102.5,300.6,102.5L300.6,102.5z"/>
				<path class="st108" d="M303.1,100.3h-2.5c-0.5,0-0.9-0.4-0.9-0.9c0-0.5,0.4-0.9,0.9-0.9h2.5c0.5,0,0.9,0.4,0.9,0.9
					C304,99.9,303.6,100.3,303.1,100.3L303.1,100.3z"/>
				<path class="st108" d="M252.9,116.6h4.8v-4.8h-4.8V116.6L252.9,116.6z M258.5,118.3H252c-0.5,0-0.9-0.4-0.9-0.9v-6.5
					c0-0.5,0.4-0.9,0.9-0.9h6.5c0.5,0,0.9,0.4,0.9,0.9v6.5C259.4,117.9,259,118.3,258.5,118.3L258.5,118.3z"/>
				<path class="st108" d="M265.6,116.6h4.8v-4.8h-4.8V116.6L265.6,116.6z M271.3,118.3h-6.5c-0.5,0-0.9-0.4-0.9-0.9v-6.5
					c0-0.5,0.4-0.9,0.9-0.9h6.5c0.5,0,0.9,0.4,0.9,0.9v6.5C272.1,117.9,271.7,118.3,271.3,118.3L271.3,118.3z"/>
				<path class="st108" d="M278.3,116.6h4.8v-4.8h-4.8V116.6L278.3,116.6z M284,118.3h-6.5c-0.5,0-0.9-0.4-0.9-0.9v-6.5
					c0-0.5,0.4-0.9,0.9-0.9h6.5c0.5,0,0.9,0.4,0.9,0.9v6.5C284.8,117.9,284.5,118.3,284,118.3L284,118.3z"/>
				<path class="st108" d="M291.1,116.6h4.8v-4.8h-4.8V116.6L291.1,116.6z M296.7,118.3h-6.5c-0.5,0-0.9-0.4-0.9-0.9v-6.5
					c0-0.5,0.4-0.9,0.9-0.9h6.5c0.5,0,0.9,0.4,0.9,0.9v6.5C297.6,117.9,297.2,118.3,296.7,118.3L296.7,118.3z"/>
				<path class="st108" d="M13.7,76.9h-1.3c-1.5,0-2.6-1.2-2.6-2.6c0-0.5,0.4-0.9,0.9-0.9c0.5,0,0.9,0.4,0.9,0.9
					c0,0.5,0.4,0.9,0.9,0.9h1.3c0.5,0,0.9-0.4,0.9-0.9v-1.3c0-0.5-0.4-0.9-0.9-0.9h-1.3c-1.5,0-2.6-1.2-2.6-2.6v-1.3
					c0-1.5,1.2-2.7,2.6-2.7h1.3c1.5,0,2.6,1.2,2.6,2.7c0,0.5-0.4,0.9-0.9,0.9c-0.5,0-0.9-0.4-0.9-0.8c0-0.6-0.4-1-0.9-1h-1.3
					c-0.5,0-0.9,0.4-0.9,0.9v1.3c0,0.5,0.4,0.9,0.9,0.9h1.3c1.5,0,2.6,1.2,2.6,2.6v1.3C16.4,75.7,15.2,76.9,13.7,76.9L13.7,76.9z"/>
				<path class="st108" d="M13.1,67c-0.5,0-0.9-0.4-0.9-0.9v-1.9c0-0.5,0.4-0.9,0.9-0.9c0.5,0,0.9,0.4,0.9,0.9v1.9
					C14,66.6,13.6,67,13.1,67L13.1,67z"/>
				<path class="st108" d="M13.1,78.8c-0.5,0-0.9-0.4-0.9-0.9V76c0-0.5,0.4-0.9,0.9-0.9c0.5,0,0.9,0.4,0.9,0.9v1.9
					C14,78.4,13.6,78.8,13.1,78.8L13.1,78.8z"/>
				<path class="st108" d="M13.1,61.5c-2.2,0-4.3,0.8-6,2.1c-2.2,1.8-3.5,4.5-3.5,7.4c0,4.3,2.9,8.1,7,9.2c1.7,0.5,3.4,0.5,5.1,0
					c4.2-1.1,7-4.9,7-9.2C22.7,65.8,18.4,61.5,13.1,61.5L13.1,61.5z M13.1,82.3c-1,0-2-0.1-3-0.4c-4.9-1.3-8.3-5.8-8.3-10.9
					c0-3.4,1.5-6.6,4.2-8.8c2-1.6,4.5-2.5,7.1-2.5c6.2,0,11.3,5.1,11.3,11.3c0,5.1-3.4,9.5-8.3,10.9C15.1,82.2,14.1,82.3,13.1,82.3
					L13.1,82.3z"/>
				<path class="st108" d="M18.4,98.6h6.9v-9.6c0-0.4,0.2-0.7,0.5-0.8c6.2-2.5,10.4-9.1,10.4-16.4c0-9.6-7.1-17.4-15.8-17.4h-9.3
					c-0.3,0-0.5-0.1-0.7-0.3c-0.2-0.2-0.2-0.5-0.2-0.7c0.5-2.2-1.2-6.6-2.3-8.9C5.9,45.6,2,48,1.3,50c-0.4,1.4-0.3,2.8,0.2,4.1
					c0.1,0.2,0.1,0.5,0,0.7c-0.1,0.2-0.3,0.4-0.5,0.5c-0.8,0.3-1.6,0.7-2.3,1.1c-2.9,1.7-5.2,4.2-6.7,7.4c-0.5,1-0.9,2.1-1.1,3.1
					c-0.1,0.4-0.4,0.6-0.8,0.6h-4.8v8.7h4.8c0.4,0,0.7,0.3,0.8,0.6c1.4,5,4.8,9.2,9.2,11.1c0.3,0.1,0.5,0.4,0.5,0.8v9.8h6.9v-8.5
					c0-0.5,0.4-0.9,0.9-0.9h9.1c0.5,0,0.9,0.4,0.9,0.9V98.6L18.4,98.6z M26.2,100.3h-8.6c-0.5,0-0.9-0.4-0.9-0.9V91H9.3v8.5
					c0,0.5-0.4,0.9-0.9,0.9h-8.6c-0.5,0-0.9-0.4-0.9-0.9V89.4C-5.4,87.2-8.9,83-10.5,78h-5.1c-0.5,0-0.9-0.4-0.9-0.9V66.7
					c0-0.5,0.4-0.9,0.9-0.9h5c0.3-1,0.6-1.9,1.1-2.8c1.6-3.5,4.2-6.3,7.4-8.2c0.6-0.3,1.2-0.7,1.8-0.9c-0.4-1.5-0.4-3,0-4.5
					c1.1-3.5,7.7-6.6,8.4-7c0.4-0.2,0.9,0,1.1,0.4c0.3,0.7,3,6.1,2.9,9.8h8.4c9.7,0,17.5,8.6,17.5,19.2c0,7.8-4.4,14.9-11,17.8v9.8
					C27,100,26.7,100.3,26.2,100.3L26.2,100.3z"/>
				<path class="st108" d="M37.1,72.1c-0.5,0-0.9-0.4-0.9-0.9c0-0.5,0.4-0.9,0.9-0.9c2.4,0,4.4-2,4.4-4.4c0,0,0-1.2-0.8-1.9
					c-0.5-0.4-1.1-0.5-2-0.3c-0.5,0.1-0.9-0.2-1-0.7c-0.1-0.5,0.2-0.9,0.7-1c1.4-0.3,2.6,0,3.4,0.7c1.4,1.1,1.4,3.1,1.4,3.2
					C43.2,69.3,40.5,72.1,37.1,72.1L37.1,72.1z"/>
				<path class="st108" d="M188.7,89.1c-0.7,0-1.4,0.6-1.4,1.4v9.4h-25.6v-1.8c0-0.7-0.6-1.4-1.4-1.4c-0.7,0-1.4,0.6-1.4,1.4v1.8
					h-3.5v-1.8c0-0.7-0.6-1.4-1.4-1.4c-0.7,0-1.4,0.6-1.4,1.4v1.8h-3.5v-1.8c0-0.7-0.6-1.4-1.4-1.4c-0.7,0-1.4,0.6-1.4,1.4v1.8h-2.7
					v-9.4c0-0.7-0.6-1.4-1.4-1.4c-0.7,0-1.4,0.6-1.4,1.4v46.3c0,0.7,0.6,1.4,1.4,1.4h46.3c0.7,0,1.4-0.6,1.4-1.4V90.5
					C190.1,89.7,189.5,89.1,188.7,89.1z M167.7,120.5c-0.7,0-1.4,0.6-1.4,1.4v1.8h-9.8v-1.8c0-0.7-0.6-1.4-1.4-1.4
					c-0.7,0-1.4,0.6-1.4,1.4v1.8h-3.5v-1.8c0-0.7-0.6-1.4-1.4-1.4c-0.7,0-1.4,0.6-1.4,1.4v1.8h-3.8v-9.2h29.4v1.4
					c0,0.7,0.6,1.4,1.4,1.4c0.7,0,1.4-0.6,1.4-1.4v-1.4h3.5v1.4c0,0.7,0.6,1.4,1.4,1.4c0.7,0,1.4-0.6,1.4-1.4v-1.4h5.2v9.2H169v-1.8
					C169,121.1,168.4,120.5,167.7,120.5z M146.5,102.6v1.1c0,0.7,0.6,1.4,1.4,1.4c0.7,0,1.4-0.6,1.4-1.4v-1.1h3.5v1.1
					c0,0.7,0.6,1.4,1.4,1.4c0.7,0,1.4-0.6,1.4-1.4v-1.1h3.5v1.1c0,0.7,0.6,1.4,1.4,1.4c0.7,0,1.4-0.6,1.4-1.4v-1.1h25.6v9.2h-5.2
					v-1.6c0-0.7-0.6-1.4-1.4-1.4c-0.7,0-1.4,0.6-1.4,1.4v1.6h-3.5v-1.6c0-0.7-0.6-1.4-1.4-1.4c-0.7,0-1.4,0.6-1.4,1.4v1.6h-29.4
					v-9.2H146.5z M143.8,135.4v-9.1h3.8v1.1c0,0.7,0.6,1.4,1.4,1.4c0.7,0,1.4-0.6,1.4-1.4v-1.1h3.5v1.1c0,0.7,0.6,1.4,1.4,1.4
					c0.7,0,1.4-0.6,1.4-1.4v-1.1h9.8v1.1c0,0.7,0.6,1.4,1.4,1.4c0.7,0,1.4-0.6,1.4-1.4v-1.1h18.3v9.1H143.8z"/>
				<path class="st108" d="M332.5-0.6h53.7v-6.8h-53.7V-0.6L332.5-0.6z M387,1.1h-55.3c-0.5,0-0.8-0.4-0.8-0.8v-8.5
					c0-0.5,0.4-0.8,0.8-0.8H387c0.5,0,0.8,0.4,0.8,0.8v8.5C387.9,0.7,387.5,1.1,387,1.1L387,1.1z"/>
				<path class="st108" d="M332.5,46.5h53.7V1.1h-53.7V46.5L332.5,46.5z M387,48.2h-55.3c-0.5,0-0.8-0.4-0.8-0.8V0.2
					c0-0.5,0.4-0.8,0.8-0.8H387c0.5,0,0.8,0.4,0.8,0.8v47.1C387.9,47.8,387.5,48.2,387,48.2L387,48.2z"/>
				<path class="st108" d="M346.1,40.2h2.7v-11h-2.7V40.2L346.1,40.2z M349.6,41.9h-4.4c-0.5,0-0.8-0.4-0.8-0.8V28.4
					c0-0.5,0.4-0.8,0.8-0.8h4.4c0.5,0,0.8,0.4,0.8,0.8V41C350.4,41.5,350.1,41.9,349.6,41.9L349.6,41.9z"/>
				<path class="st108" d="M354.9,40.2h2.7V24.7h-2.7V40.2L354.9,40.2z M358.5,41.9h-4.4c-0.5,0-0.8-0.4-0.8-0.8V23.9
					c0-0.5,0.4-0.8,0.8-0.8h4.4c0.5,0,0.8,0.4,0.8,0.8V41C359.3,41.5,358.9,41.9,358.5,41.9L358.5,41.9z"/>
				<path class="st108" d="M363.8,40.2h2.7V20.8h-2.7V40.2L363.8,40.2z M367.4,41.9H363c-0.5,0-0.8-0.4-0.8-0.8V19.9
					c0-0.5,0.4-0.8,0.8-0.8h4.4c0.5,0,0.8,0.4,0.8,0.8V41C368.2,41.5,367.8,41.9,367.4,41.9L367.4,41.9z"/>
				<path class="st108" d="M372.7,40.2h2.7V17.6h-2.7V40.2L372.7,40.2z M376.2,41.9h-4.4c-0.5,0-0.8-0.4-0.8-0.8V16.8
					c0-0.5,0.4-0.8,0.8-0.8h4.4c0.5,0,0.8,0.4,0.8,0.8V41C377.1,41.5,376.7,41.9,376.2,41.9L376.2,41.9z"/>
				<path class="st108" d="M345.2,21.4c-0.4,0-0.8-0.3-0.8-0.7c0-0.5,0.3-0.9,0.7-0.9c12.6-1.4,21.9-4.1,29.4-13.1
					c0.3-0.4,0.8-0.4,1.2-0.1c0.4,0.3,0.4,0.8,0.1,1.2C368,17.1,358.3,19.9,345.2,21.4L345.2,21.4L345.2,21.4z"/>
				<path class="st108" d="M375.8,12.4c-0.5,0-0.8-0.4-0.8-0.8V7.4h-4.2c-0.5,0-0.8-0.4-0.8-0.8c0-0.5,0.4-0.8,0.8-0.8h5
					c0.5,0,0.8,0.4,0.8,0.8v5C376.6,12,376.2,12.4,375.8,12.4L375.8,12.4z"/>
				<path class="st108" d="M399.1,71.2H448v-6.1h-48.9V71.2L399.1,71.2z M448.7,72.8h-50.4c-0.4,0-0.8-0.3-0.8-0.8v-7.6
					c0-0.4,0.3-0.8,0.8-0.8h50.4c0.4,0,0.8,0.3,0.8,0.8V72C449.5,72.4,449.2,72.8,448.7,72.8L448.7,72.8z"/>
				<path class="st108" d="M399.1,113.7H448V72.8h-48.9V113.7L399.1,113.7z M448.7,115.2h-50.4c-0.4,0-0.8-0.3-0.8-0.8V72
					c0-0.4,0.3-0.8,0.8-0.8h50.4c0.4,0,0.8,0.3,0.8,0.8v42.4C449.5,114.8,449.2,115.2,448.7,115.2L448.7,115.2z"/>
				<path class="st108" d="M401.9,69.3c-0.2,0-0.4-0.1-0.5-0.2c-0.1-0.1-0.2-0.3-0.2-0.5c0-0.2,0.1-0.4,0.2-0.5
					c0.3-0.3,0.8-0.3,1.1,0c0.1,0.1,0.2,0.3,0.2,0.5c0,0.2-0.1,0.4-0.2,0.5C402.3,69.3,402.1,69.3,401.9,69.3L401.9,69.3z"/>
				<path class="st108" d="M407.3,68.6c0-0.4,0.3-0.8,0.8-0.8c0.4,0,0.8,0.3,0.8,0.8c0,0.4-0.3,0.8-0.8,0.8
					C407.6,69.3,407.3,69,407.3,68.6L407.3,68.6z"/>
				<path class="st108" d="M414.2,69.3c-0.2,0-0.4-0.1-0.5-0.2l-0.1-0.1c0,0-0.1-0.1-0.1-0.1c0,0,0-0.1,0-0.1c0-0.1,0-0.1,0-0.1
					c0-0.2,0.1-0.4,0.2-0.5l0.1-0.1l0.1-0.1c0,0,0.1,0,0.1,0c0.2-0.1,0.5,0,0.7,0.2l0.1,0.1l0.1,0.1c0,0,0,0.1,0,0.1
					c0,0.1,0,0.1,0,0.2c0,0.2-0.1,0.4-0.2,0.5l-0.1,0.1l-0.1,0.1c0,0-0.1,0-0.1,0C414.3,69.3,414.2,69.3,414.2,69.3L414.2,69.3z"/>
				<path class="st108" d="M408.6,88.1h29.6v-3h-29.6V88.1L408.6,88.1z M438.9,89.7h-31.1c-0.4,0-0.8-0.3-0.8-0.8v-4.5
					c0-0.4,0.3-0.8,0.8-0.8h31.1c0.4,0,0.8,0.3,0.8,0.8v4.5C439.6,89.3,439.3,89.7,438.9,89.7L438.9,89.7z"/>
				<path class="st108" d="M410.5,89.7v16.1c0,0.7,0.5,1.2,1.2,1.2H435c0.7,0,1.2-0.5,1.2-1.2V89.7H410.5L410.5,89.7z M435,108.5
					h-23.3c-1.5,0-2.7-1.2-2.7-2.7V88.9c0-0.4,0.3-0.8,0.8-0.8h27.2c0.4,0,0.8,0.3,0.8,0.8v16.9C437.7,107.3,436.5,108.5,435,108.5
					L435,108.5z"/>
				<path class="st108" d="M416.4,102.8c-0.4,0-0.8-0.3-0.8-0.8v-7.1c0-0.4,0.3-0.8,0.8-0.8c0.4,0,0.8,0.3,0.8,0.8v7.1
					C417.2,102.5,416.8,102.8,416.4,102.8L416.4,102.8z"/>
				<path class="st108" d="M423.3,102.8c-0.4,0-0.8-0.3-0.8-0.8v-7.1c0-0.4,0.3-0.8,0.8-0.8s0.8,0.3,0.8,0.8v7.1
					C424,102.5,423.7,102.8,423.3,102.8L423.3,102.8z"/>
				<path class="st108" d="M430.2,102.8c-0.4,0-0.8-0.3-0.8-0.8v-7.1c0-0.4,0.3-0.8,0.8-0.8c0.4,0,0.8,0.3,0.8,0.8v7.1
					C430.9,102.5,430.6,102.8,430.2,102.8L430.2,102.8z"/>
				<path class="st108" d="M433.2,86.9c-0.2,0-0.4-0.1-0.5-0.2l-7.8-7.8c-0.3-0.3-0.3-0.8,0-1.1c0.3-0.3,0.8-0.3,1.1,0l7.8,7.8
					c0.3,0.3,0.3,0.8,0,1.1C433.6,86.8,433.4,86.9,433.2,86.9L433.2,86.9z"/>
				<path class="st108" d="M413.4,86.9c-0.2,0-0.4-0.1-0.5-0.2c-0.3-0.3-0.3-0.8,0-1.1l7.8-7.8c0.3-0.3,0.8-0.3,1.1,0
					c0.3,0.3,0.3,0.8,0,1.1l-7.8,7.8C413.8,86.8,413.6,86.9,413.4,86.9L413.4,86.9z"/>
				<path class="st108" d="M417.7,5.5c-0.2,0-0.4-0.1-0.5-0.2c-0.3-0.3-0.3-0.8,0-1.1c1.3-1.3,0.4-4.8-2.8-8.1
					c-3.2-3.2-6.8-4.1-8.1-2.8c-1.2,1.2-0.4,4.9,2.8,8.1c0.6,0.6,1.3,1.2,2,1.7c0.3,0.2,0.4,0.7,0.2,1.1c-0.2,0.3-0.7,0.4-1.1,0.2
					c-0.8-0.5-1.5-1.2-2.2-1.9c-3.7-3.7-4.9-8.2-2.8-10.3c2.1-2.1,6.6-0.8,10.3,2.8c3.7,3.7,4.9,8.2,2.8,10.3
					C418.1,5.4,417.9,5.5,417.7,5.5L417.7,5.5z"/>
				<path class="st108" d="M455.2,30.6L455.2,30.6L455.2,30.6L455.2,30.6z M425.6-1.5L425.6-1.5l-10.7,0.3c-1.7,0-3,1.4-3.1,3.1
					l-0.3,10.6c0,0.7,0.2,1.3,0.7,1.8l27.4,27.4c0.5,0.5,1.1,0.7,1.7,0.7s1.3-0.3,1.7-0.7l11.6-11.6c0.9-0.9,0.9-2.5,0-3.4
					L427.3-0.8C426.8-1.2,426.2-1.5,425.6-1.5L425.6-1.5z M441.4,43.9c-1.1,0-2.1-0.4-2.8-1.2l-27.4-27.4c-0.8-0.8-1.2-1.8-1.2-2.9
					l0.3-10.6c0.1-2.5,2.1-4.5,4.6-4.6L425.5-3c1.1,0,2.1,0.4,2.9,1.2l27.4,27.4c1.5,1.5,1.5,4.1,0,5.6l-11.6,11.6
					C443.4,43.5,442.4,43.9,441.4,43.9L441.4,43.9z"/>
				<path class="st108" d="M418.2,3.8c-0.4,0-0.7,0.1-1,0.4c-0.5,0.5-0.5,1.4,0,2c0.5,0.5,1.4,0.5,2,0c0.5-0.5,0.5-1.4,0-2
					C418.9,3.9,418.6,3.8,418.2,3.8L418.2,3.8z M418.2,8.1c-0.8,0-1.5-0.3-2.1-0.9c-1.1-1.1-1.1-3,0-4.2c1.1-1.1,3-1.1,4.2,0l0,0
					c1.1,1.1,1.1,3,0,4.2C419.7,7.8,419,8.1,418.2,8.1L418.2,8.1z"/>
			</g>
		</g>
		<g style="clip-path:url(#SVGID_1_);">
			<path class="st14" d="M68.6,53.6v7.7h12.1v4H68.6v10.9h-4.5V49.6H82l0,4H68.6z"/>
			<path class="st14" d="M86,76.2V49.6h4.5v26.6H86z"/>
			<path class="st14" d="M116.1,76.2L102,57.1v19.1h-4.5V49.6h4.4l14.2,19.1V49.6h4.4v26.6H116.1z"/>
			<path class="st14" d="M131.3,70.2l-2.5,6h-4.7l11.7-26.6h4.6l11.6,26.6h-4.8l-2.5-6H131.3z M138,54.4l-5,11.8h10L138,54.4z"/>
			<path class="st14" d="M174.3,76.2l-14.2-19.1v19.1h-4.5V49.6h4.4l14.2,19.1V49.6h4.4v26.6H174.3z"/>
			<path class="st14" d="M207.6,53.6l-2.6,3.3c-1.9-2.1-4.7-3.4-7.4-3.4c-5.3,0-9.5,4.1-9.5,9.3s4.2,9.4,9.5,9.4
				c2.7,0,5.4-1.2,7.4-3.2l2.7,3c-2.7,2.7-6.5,4.4-10.3,4.4c-7.8,0-13.8-5.9-13.8-13.5c0-7.6,6.1-13.4,14-13.4
				C201.2,49.5,205,51,207.6,53.6z"/>
			<path class="st14" d="M212.2,76.2V49.6h4.5v26.6H212.2z"/>
			<path class="st14" d="M227.4,70.2l-2.5,6h-4.7L232,49.6h4.6l11.6,26.6h-4.8l-2.5-6H227.4z M234.1,54.4l-5,11.8h10L234.1,54.4z"/>
			<path class="st14" d="M267.7,72.1v4.1h-16V49.6h4.5v22.5H267.7z"/>
			<path class="st14" d="M286.3,53.6v7.2h13v4h-13v7.3h15v4h-19.5V49.6h19v4H286.3z"/>
			<path class="st14" d="M328.7,76.2h-5.4l-7.2-10l-7.1,10h-5.2l9.7-13.6l-9-13h5.2l6.5,9.2l6.5-9.2h5.2L319,62.3L328.7,76.2z"/>
			<path class="st14" d="M343.6,49.6c6.7,0,10.5,3.3,10.5,9.1c0,6-3.8,9.5-10.5,9.5h-6.1v8H333V49.6H343.6z M337.5,64.1h5.9
				c4.1,0,6.4-1.7,6.4-5.4c0-3.5-2.3-5.2-6.4-5.2h-5.9V64.1z"/>
			<path class="st14" d="M363.1,53.6v7.2h13v4h-13v7.3h15v4h-19.5V49.6h19v4H363.1z"/>
			<path class="st14" d="M395.5,68.1c-0.4,0-0.8,0-1.2,0H388v8h-4.5V49.6h10.8c6.8,0,10.7,3.3,10.7,9.1c0,4.3-2,7.3-5.5,8.6l6,8.9
				h-5.1L395.5,68.1z M394.3,64.1c4.1,0,6.5-1.7,6.5-5.4c0-3.5-2.4-5.2-6.5-5.2H388v10.5H394.3z"/>
			<path class="st14" d="M420.7,53.6v22.6h-4.5V53.6h-8.4v-4h21.3v4H420.7z"/>
			<path class="st14" d="M451.1,52.1l-1.9,4c-2.9-1.7-5.8-2.5-7.8-2.5c-2.6,0-4.3,1-4.3,2.8c0,5.8,14.4,2.7,14.3,12.3
				c0,4.7-4.2,7.7-10,7.7c-4.2,0-8.1-1.7-10.9-4.2l1.9-3.9c2.7,2.5,6.2,3.9,9,3.9c3.1,0,5-1.2,5-3.2c0-5.9-14.4-2.6-14.4-12.1
				c0-4.6,3.9-7.4,9.7-7.4C445.2,49.4,448.6,50.5,451.1,52.1z"/>
		</g>
	</g>
</g>
</svg>
