<?xml version="1.0" encoding="utf-8"?>
<!-- Generator: Adobe Illustrator 22.0.1, SVG Export Plug-In . SVG Version: 6.00 Build 0)  -->
<svg version="1.1" xmlns="http://www.w3.org/2000/svg" xmlns:xlink="http://www.w3.org/1999/xlink" x="0px" y="0px"
	 viewBox="0 0 400 400" style="enable-background:new 0 0 400 400;" xml:space="preserve">
<style type="text/css">
	.st0{fill:#80E4FF;}
	.st1{display:none;}
	.st2{display:inline;}
	.st3{fill:none;stroke:#80E4FF;stroke-width:20;stroke-linecap:round;stroke-linejoin:round;stroke-miterlimit:10;}
	.st4{fill:none;stroke:#33CCFF;stroke-width:20;stroke-linecap:round;stroke-linejoin:round;stroke-miterlimit:10;}
	.st5{fill:none;stroke:#000000;stroke-miterlimit:10;}
	.st6{fill:none;stroke:#80E4FF;stroke-width:10;stroke-linecap:round;stroke-linejoin:round;stroke-miterlimit:10;}
	.st7{fill:#33CCFF;}
	.st8{fill:none;stroke:#80E4FF;stroke-width:20;stroke-linecap:round;stroke-miterlimit:10;}
	.st9{fill:none;stroke:#33CCFF;stroke-width:10;stroke-linecap:round;stroke-linejoin:round;stroke-miterlimit:10;}
	.st10{fill:none;stroke:#000000;stroke-width:20;stroke-linecap:round;stroke-linejoin:round;stroke-miterlimit:10;}
	.st11{fill:none;stroke:#B3B3B3;stroke-width:20;stroke-linecap:round;stroke-miterlimit:10;}
	.st12{fill:none;stroke:#B3B3B3;stroke-width:20;stroke-linecap:round;stroke-linejoin:bevel;stroke-miterlimit:10;}
	.st13{fill:none;stroke:#33CCFF;stroke-width:20;stroke-miterlimit:10;}
	.st14{fill:none;stroke:#80E4FF;stroke-width:15.4098;stroke-linecap:round;stroke-linejoin:round;stroke-miterlimit:10;}
	.st15{fill:none;stroke:#80E4FF;stroke-width:14.2609;stroke-linecap:round;stroke-linejoin:round;stroke-miterlimit:10;}
	.st16{fill:#80E4FF;stroke:#33CCFF;stroke-width:20;stroke-miterlimit:10;}
</style>
<g id="FILL">
</g>
<g id="Inspo" class="st1">
</g>
<g id="Lighter_Lines">
</g>
<g id="Heavier_Lines">
</g>
<g id="Palette">
	<g>
		<path class="st7" d="M73.4,161c1.5,5.3,3.7,10.3,6.3,15.1l-7.7,9.7c-2.5,3.2-2.2,7.7,0.6,10.5l13.2,13.2c2.8,2.8,7.3,3.1,10.5,0.6
			l9.6-7.6c4.9,2.8,10.2,5.1,15.7,6.6l1.4,12.4c0.5,4,3.8,7,7.9,7h18.7c4,0,7.4-3,7.8-7l1.4-11.9c5.9-1.5,11.5-3.8,16.8-6.8l9.3,7.3
			c3.2,2.5,7.7,2.2,10.5-0.6l13.2-13.2c2.8-2.8,3.1-7.3,0.6-10.5l-7.2-9.2c3-5.2,5.3-10.7,6.9-16.5l11.1-1.3c4-0.5,7-3.8,7-7.8
			v-18.7c0-4-3-7.4-7-7.8l-11-1.3c-1.5-5.7-3.8-11.2-6.6-16.3l6.8-8.5c2.5-3.2,2.2-7.7-0.6-10.5l-13.2-13.2
			c-2.8-2.8-7.3-3.1-10.5-0.6l-8.3,6.6c-5.4-3.2-11.1-5.6-17.2-7.2l-1.3-10.7c-0.5-4-3.8-7-7.9-7h-18.7c-4,0-7.4,3-7.8,7l-1.3,10.7
			c-6.2,1.7-12.1,4.2-17.6,7.4l-8.6-6.8c-3.2-2.5-7.7-2.2-10.5,0.6L72.7,87.9c-2.8,2.8-3.1,7.3-0.6,10.5l7.2,9.1
			c-2.9,5.2-5.1,10.7-6.5,16.5l-11.5,1.3c-4,0.5-7,3.8-7,7.8v18.7c0,4,3,7.4,7,7.8L73.4,161z M141,110.5c17,0,30.9,13.9,30.9,30.9
			c0,17-13.9,30.9-30.9,30.9s-30.9-13.9-30.9-30.9C110.2,124.4,124,110.5,141,110.5L141,110.5z M141,110.5"/>
		<path class="st7" d="M325.6,165.6l-9.9-8.3c-3-2.6-7.5-2.4-10.4,0.3l-5.4,5.1c-4.6-2.2-9.5-3.8-14.5-4.7l-1.5-7.5
			c-0.8-3.9-4.4-6.6-8.3-6.3l-12.9,1.1c-3.9,0.3-7,3.6-7.2,7.5l-0.3,7.6c-4.9,1.8-9.6,4.2-13.9,7.3l-6.5-4.3
			c-3.3-2.2-7.7-1.6-10.3,1.5l-8.3,9.9c-2.6,3-2.4,7.5,0.3,10.4l5.7,6.1c-2,4.4-3.4,9.1-4.2,13.9l-8.1,1.7c-3.9,0.8-6.6,4.4-6.3,8.3
			l1.1,12.9c0.3,3.9,3.6,7,7.5,7.2l8.8,0.3c1.6,4.2,3.7,8.2,6.2,11.9l-4.9,7.4c-2.2,3.3-1.6,7.7,1.5,10.3l9.9,8.3
			c3,2.6,7.5,2.4,10.4-0.3l6.4-6c4.2,2,8.7,3.4,13.2,4.3l1.8,8.8c0.8,3.9,4.4,6.6,8.3,6.3l12.9-1.1c3.9-0.3,7-3.6,7.2-7.5l0.3-8.6
			c4.7-1.7,9.1-3.9,13.2-6.7l7.1,4.7c3.3,2.2,7.7,1.6,10.3-1.5l8.3-9.9c2.6-3,2.4-7.5-0.3-10.4l-5.7-6.1c2.1-4.4,3.6-9.1,4.5-13.9
			l7.8-1.6c3.9-0.8,6.6-4.4,6.3-8.3l-1.1-12.9c-0.3-3.9-3.6-7-7.5-7.2l-7.9-0.3c-1.6-4.6-3.8-8.9-6.5-12.9l4.3-6.4
			C329.3,172.7,328.6,168.2,325.6,165.6L325.6,165.6z M277.2,240c-13.9,1.2-26.1-9.2-27.3-23c-1.2-13.9,9.2-26.1,23-27.3
			c13.9-1.2,26.1,9.2,27.3,23C301.4,226.5,291,238.8,277.2,240L277.2,240z M277.2,240"/>
		<path class="st7" d="M118.4,274.5c-3.9,0.4-7,3.7-7,7.7l-0.1,7.9c-0.1,4,2.9,7.3,6.8,7.9l5.8,0.7c1,3.5,2.3,6.9,4.1,10.1l-3.8,4.6
			c-2.5,3.1-2.3,7.5,0.5,10.4l5.5,5.7c2.8,2.8,7.2,3.2,10.4,0.7l4.7-3.6c3.3,1.9,6.8,3.5,10.4,4.5l0.6,6c0.4,3.9,3.7,7,7.7,7
			l7.9,0.1c4,0.1,7.3-2.9,7.9-6.8l0.7-5.7c3.9-1,7.7-2.4,11.3-4.4l4.4,3.5c3.1,2.5,7.5,2.3,10.4-0.5l5.7-5.5
			c2.8-2.8,3.2-7.2,0.7-10.4l-3.3-4.3c2.1-3.4,3.7-7.1,4.8-10.9l5.2-0.5c3.9-0.4,7-3.7,7-7.7l0.1-7.9c0.1-4-2.9-7.3-6.8-7.8
			l-5.1-0.7c-1-3.8-2.4-7.5-4.3-10.9l3.2-3.9c2.5-3.1,2.3-7.5-0.5-10.4l-5.5-5.7c-2.8-2.8-7.2-3.2-10.4-0.7l-3.8,2.9
			c-3.6-2.2-7.4-3.8-11.4-4.9l-0.5-4.9c-0.4-3.9-3.7-7-7.7-7l-7.9-0.1c-4-0.1-7.3,2.9-7.8,6.8l-0.6,4.9c-4.1,1.1-8.1,2.7-11.8,4.8
			l-3.9-3.2c-3.1-2.5-7.5-2.3-10.4,0.5l-5.7,5.6c-2.8,2.8-3.2,7.2-0.7,10.4l3.3,4.3c-1.9,3.4-3.5,7.1-4.5,10.9L118.4,274.5z
			 M169.4,265.6c11.4,0.1,20.5,9.5,20.3,20.8c-0.1,11.4-9.5,20.5-20.8,20.3c-11.4-0.1-20.5-9.5-20.3-20.8
			C148.7,274.6,158.1,265.5,169.4,265.6L169.4,265.6z M169.4,265.6"/>
	</g>
</g>
</svg>
