<?xml version="1.0" encoding="UTF-8"?>
<svg width="25px" height="25px" viewBox="0 0 25 25" version="1.1" xmlns="http://www.w3.org/2000/svg" xmlns:xlink="http://www.w3.org/1999/xlink">
    <!-- Generator: Sketch 51.1 (57501) - http://www.bohemiancoding.com/sketch -->
    <title>Group 17</title>
    <desc>Created with Sketch.</desc>
    <defs></defs>
    <g id="Symbols" stroke="none" stroke-width="1" fill="none" fill-rule="evenodd">
        <g id="Icon/25/deposit">
            <g id="Group-17">
                <circle id="Path-Copy" fill="#33CCFF" cx="12.5" cy="12.5" r="12.5"></circle>
                <path d="M10.4761905,11.7857143 L15.2380952,11.7857143 L15.2380952,10 C15.2380952,9.34275465 15.0055827,8.78162435 14.5405506,8.31659226 C14.0755185,7.85156017 13.5143882,7.61904762 12.8571429,7.61904762 C12.1998975,7.61904762 11.6387672,7.85156017 11.1737351,8.31659226 C10.708703,8.78162435 10.4761905,9.34275465 10.4761905,10 L10.4761905,11.7857143 Z M18.2142857,12.6785714 L18.2142857,18.0357143 C18.2142857,18.2837314 18.127481,18.4945428 17.953869,18.6681548 C17.7802571,18.8417667 17.5694457,18.9285714 17.3214286,18.9285714 L8.39285714,18.9285714 C8.14484003,18.9285714 7.93402865,18.8417667 7.76041667,18.6681548 C7.58680469,18.4945428 7.5,18.2837314 7.5,18.0357143 L7.5,12.6785714 C7.5,12.4305543 7.58680469,12.2197429 7.76041667,12.046131 C7.93402865,11.872519 8.14484003,11.7857143 8.39285714,11.7857143 L8.69047619,11.7857143 L8.69047619,10 C8.69047619,8.85912128 9.09969829,7.87946838 9.91815476,7.0610119 C10.7366112,6.24255543 11.7162641,5.83333333 12.8571429,5.83333333 C13.9980216,5.83333333 14.9776745,6.24255543 15.796131,7.0610119 C16.6145874,7.87946838 17.0238095,8.85912128 17.0238095,10 L17.0238095,11.7857143 L17.3214286,11.7857143 C17.5694457,11.7857143 17.7802571,11.872519 17.953869,12.046131 C18.127481,12.2197429 18.2142857,12.4305543 18.2142857,12.6785714 Z" id="lock---FontAwesome" fill="#FFFFFF"></path>
            </g>
        </g>
    </g>
</svg>