<svg xmlns="http://www.w3.org/2000/svg" xmlns:xlink="http://www.w3.org/1999/xlink" viewBox="0 0 62 38"><defs><style>.cls-1{fill:none;}.cls-2{clip-path:url(#clip-path);}.cls-3{opacity:0.1;}.cls-4{fill:#3cf;}.cls-5{clip-path:url(#clip-path-3);}.cls-6{clip-path:url(#clip-path-4);}.cls-7{clip-path:url(#clip-path-5);}</style><clipPath id="clip-path"><rect class="cls-1" x="1" y="1" width="60" height="36" rx="2" ry="2"/></clipPath><clipPath id="clip-path-3"><rect class="cls-1" x="5" y="5" width="16" height="28"/></clipPath><clipPath id="clip-path-4"><rect class="cls-1" x="23" y="5" width="16" height="28"/></clipPath><clipPath id="clip-path-5"><rect class="cls-1" x="41" y="5" width="16" height="28"/></clipPath></defs><title>Long-selected</title><g id="Layer_2" data-name="Layer 2"><g id="Layer_1-2" data-name="Layer 1"><g class="cls-2"><g class="cls-3"><rect class="cls-4" x="1" y="1" width="60" height="36" rx="2" ry="2"/></g></g><g class="cls-2"><path class="cls-4" d="M59,38H3a3,3,0,0,1-3-3V3A3,3,0,0,1,3,0H59a3,3,0,0,1,3,3V35A3,3,0,0,1,59,38ZM3,2A1,1,0,0,0,2,3V35a1,1,0,0,0,1,1H59a1,1,0,0,0,1-1V3a1,1,0,0,0-1-1Z"/></g><g class="cls-5"><path class="cls-4" d="M22,34H4V4H22ZM6,32H20V6H6Z"/></g><g class="cls-6"><path class="cls-4" d="M40,34H22V4H40ZM24,32H38V6H24Z"/></g><g class="cls-7"><path class="cls-4" d="M58,34H40V4H58ZM42,32H56V6H42Z"/></g><path class="cls-4" d="M13,16.5A3.5,3.5,0,1,1,16.5,13,3.5,3.5,0,0,1,13,16.5Zm0-6A2.5,2.5,0,1,0,15.5,13,2.5,2.5,0,0,0,13,10.5Z"/><path class="cls-4" d="M31,16.5A3.5,3.5,0,1,1,34.5,13,3.5,3.5,0,0,1,31,16.5Zm0-6A2.5,2.5,0,1,0,33.5,13,2.5,2.5,0,0,0,31,10.5Z"/><path class="cls-4" d="M49,16.5A3.5,3.5,0,1,1,52.5,13,3.5,3.5,0,0,1,49,16.5Zm0-6A2.5,2.5,0,1,0,51.5,13,2.5,2.5,0,0,0,49,10.5Z"/></g></g></svg>