<?xml version="1.0" encoding="utf-8"?>
<!-- Generator: Adobe Illustrator 22.0.1, SVG Export Plug-In . SVG Version: 6.00 Build 0)  -->
<svg version="1.1" xmlns="http://www.w3.org/2000/svg" xmlns:xlink="http://www.w3.org/1999/xlink" x="0px" y="0px"
	 viewBox="0 0 513.8 118.3" style="enable-background:new 0 0 513.8 118.3;" xml:space="preserve">
<style type="text/css">
	.st0{display:none;}
	.st1{display:inline;fill:#33CCFF;}
	.st2{display:none;opacity:0.5;}
	.st3{display:inline;}
	.st4{opacity:0.5;fill:#33CCFF;}
	.st5{display:inline;opacity:0.5;}
	.st6{fill:#33CCFF;}
	.st7{fill:url(#SVGID_1_);}
	.st8{fill:url(#SVGID_2_);}
	.st9{fill:url(#SVGID_3_);}
	.st10{fill:url(#SVGID_4_);}
	.st11{fill:url(#SVGID_5_);}
	.st12{fill:url(#SVGID_6_);}
	.st13{fill:url(#SVGID_7_);}
	.st14{fill:#FFFFFF;}
	.st15{fill:#0099CC;}
	.st16{fill:#33CAFF;}
	.st17{opacity:5.000000e-02;fill:#F8F9F9;}
	.st18{fill:#00FFCA;}
	.st19{fill:#F5F5F5;}
	.st20{fill:#F2F2F2;}
	.st21{opacity:0.9;fill:#00FFFF;}
	.st22{fill:#15EBD6;}
	.st23{fill:#FFDB15;}
	.st24{fill:#FF99FF;}
	.st25{fill:#3366FF;}
	.st26{fill:#D1D1D1;}
	.st27{opacity:0.3;fill:#15EBD6;}
	.st28{fill:#919D9D;}
	.st29{fill:#FF6666;}
	.st30{opacity:0.1;fill:#33CCFF;}
	.st31{opacity:0.2;fill:#33CCFF;}
	.st32{opacity:5.000000e-02;fill:#33CCFF;}
	.st33{opacity:0.95;fill:#33CCFF;}
	.st34{opacity:0.9;fill:#33CCFF;}
	.st35{opacity:0.7;fill:#33CCFF;}
	.st36{opacity:0.6;fill:#33CCFF;}
	.st37{opacity:0.8;fill:#33CCFF;}
	.st38{opacity:0.3;fill:#33CCFF;}
	.st39{opacity:0.4;fill:#33CCFF;}
	.st40{fill:url(#SVGID_8_);}
	.st41{fill:url(#SVGID_9_);}
	.st42{fill:url(#SVGID_10_);}
	.st43{fill:url(#SVGID_11_);}
	.st44{fill:url(#SVGID_12_);}
	.st45{fill:url(#SVGID_13_);}
	.st46{fill:url(#SVGID_14_);}
	.st47{fill:url(#SVGID_15_);}
	.st48{fill:url(#SVGID_16_);}
	.st49{fill:url(#SVGID_17_);}
	.st50{fill:url(#SVGID_18_);}
	.st51{fill:url(#SVGID_19_);}
	.st52{fill:url(#SVGID_20_);}
	.st53{fill:url(#SVGID_21_);}
	.st54{fill:url(#SVGID_22_);}
	.st55{fill:url(#SVGID_23_);}
	.st56{fill:url(#SVGID_24_);}
	.st57{fill:#485F64;}
	.st58{fill:#9C9C9C;}
	.st59{fill:#221F1F;}
	.st60{fill:#06BC65;}
	.st61{fill:#1E1E1E;}
	.st62{fill:#FFFF5A;}
	.st63{fill:#F05A2A;}
	.st64{fill:#D661AA;}
	.st65{fill:#F7EA2F;}
	.st66{fill:#26A7DF;}
	.st67{fill:#EFE92B;}
	.st68{fill:#F9A0DC;}
	.st69{fill:#FF3951;}
	.st70{fill:#4EDCCA;}
	.st71{fill:#FFC600;}
	.st72{clip-path:url(#SVGID_26_);}
	.st73{clip-path:url(#SVGID_28_);}
	.st74{fill:#0078BF;}
	.st75{clip-path:url(#SVGID_30_);}
	.st76{clip-path:url(#SVGID_32_);}
	.st77{fill:#F9A4D8;}
	.st78{clip-path:url(#SVGID_34_);}
	.st79{clip-path:url(#SVGID_36_);}
	.st80{fill:url(#SVGID_37_);}
	.st81{fill:url(#SVGID_38_);}
	.st82{clip-path:url(#SVGID_40_);}
	.st83{clip-path:url(#SVGID_42_);}
	.st84{clip-path:url(#SVGID_44_);}
	.st85{clip-path:url(#SVGID_46_);}
	.st86{clip-path:url(#SVGID_48_);}
	.st87{clip-path:url(#SVGID_50_);}
	.st88{fill:url(#SVGID_51_);}
	.st89{fill:url(#SVGID_52_);}
	.st90{fill:url(#SVGID_53_);}
	.st91{fill:url(#SVGID_54_);}
	.st92{fill:url(#SVGID_55_);}
	.st93{fill:url(#SVGID_56_);}
	.st94{fill:url(#SVGID_57_);}
	.st95{fill:url(#SVGID_58_);}
	.st96{fill:#363636;}
	.st97{fill:#474747;}
	.st98{fill:#444444;}
	.st99{fill:#5E5E5E;}
	.st100{clip-path:url(#SVGID_60_);fill:url(#SVGID_61_);}
	.st101{clip-path:url(#SVGID_60_);}
	.st102{opacity:0.5;fill:#009DC1;}
	.st103{clip-path:url(#SVGID_63_);fill:url(#SVGID_64_);}
	.st104{opacity:0.5;clip-path:url(#SVGID_63_);}
	.st105{clip-path:url(#SVGID_63_);}
	.st106{clip-path:url(#SVGID_66_);fill:url(#SVGID_67_);}
	.st107{opacity:0.77;clip-path:url(#SVGID_66_);}
	.st108{fill:#038478;}
	.st109{clip-path:url(#SVGID_66_);}
	.st110{clip-path:url(#SVGID_69_);fill:url(#SVGID_70_);}
	.st111{opacity:0.5;clip-path:url(#SVGID_69_);}
	.st112{fill:#EA3D3D;}
	.st113{clip-path:url(#SVGID_69_);}
	.st114{clip-path:url(#SVGID_72_);fill:url(#SVGID_73_);}
	.st115{clip-path:url(#SVGID_72_);}
	.st116{opacity:0.47;}
	.st117{fill:#29B29E;}
	.st118{opacity:0.3;}
	.st119{clip-path:url(#SVGID_75_);fill:url(#SVGID_76_);}
	.st120{opacity:0.5;clip-path:url(#SVGID_75_);}
	.st121{clip-path:url(#SVGID_75_);}
</style>
<g id="Layer_3" class="st0">
</g>
<g id="Layer_2" class="st2">
</g>
<g id="Layer_1">
	<g>
		<defs>
			<rect id="SVGID_68_" width="513.8" height="118.3"/>
		</defs>
		<clipPath id="SVGID_1_">
			<use xlink:href="#SVGID_68_"  style="overflow:visible;"/>
		</clipPath>
		<linearGradient id="SVGID_2_" gradientUnits="userSpaceOnUse" x1="0" y1="59.1443" x2="513.7979" y2="59.1443">
			<stop  offset="0" style="stop-color:#FFC600"/>
			<stop  offset="1" style="stop-color:#FF6666"/>
		</linearGradient>
		<rect style="clip-path:url(#SVGID_1_);fill:url(#SVGID_2_);" width="513.8" height="118.3"/>
		<g style="opacity:0.5;clip-path:url(#SVGID_1_);">
			<path class="st112" d="M485.4,15l5.3,5.3l11.6-0.1l-4.6-4.6c-1.7-1.7-4-2.7-6.4-2.7C489,12.9,487,13.7,485.4,15L485.4,15z
				 M490.3,22c-0.2,0-0.4-0.1-0.6-0.3l-6.2-6.2c-0.3-0.3-0.3-0.9,0-1.2c2-2,4.8-3.2,7.7-3.2c2.9,0,5.6,1.1,7.7,3.2l6.1,6.1
				c0.2,0.2,0.3,0.6,0.2,0.9c-0.1,0.3-0.4,0.5-0.8,0.5L490.3,22L490.3,22L490.3,22z"/>
			<path class="st112" d="M470.1,30.3c-3,3.6-2.8,8.9,0.6,12.2l4.6,4.6l0.1-11.6L470.1,30.3L470.1,30.3z M476.1,50.1
				c-0.2,0-0.4-0.1-0.6-0.3l-6.1-6.1c-2-2-3.2-4.8-3.2-7.7c0-2.9,1.1-5.6,3.2-7.7c0.2-0.2,0.4-0.3,0.6-0.3c0.2,0,0.4,0.1,0.6,0.3
				l6.2,6.2c0.2,0.2,0.3,0.4,0.3,0.6l-0.1,14c0,0.3-0.2,0.7-0.5,0.8C476.3,50.1,476.2,50.1,476.1,50.1L476.1,50.1z"/>
			<path class="st112" d="M461.4,4.3c-0.6,0-1.1,0.2-1.5,0.6c-0.4,0.4-0.6,0.9-0.6,1.5c0,0.6,0.2,1.1,0.6,1.5c0.8,0.8,2.2,0.8,3,0
				c0.8-0.8,0.8-2.2,0-3C462.5,4.5,462,4.3,461.4,4.3L461.4,4.3z M461.4,10.3c-1,0-2-0.4-2.7-1.1c-0.7-0.7-1.1-1.7-1.1-2.7
				c0-1,0.4-2,1.1-2.7c0.7-0.7,1.7-1.1,2.7-1.1c1,0,2,0.4,2.7,1.1c1.5,1.5,1.5,4,0,5.5C463.4,9.9,462.4,10.3,461.4,10.3L461.4,10.3z
				"/>
			<path class="st112" d="M469.9,12.8c-0.6,0-1.1,0.2-1.5,0.6c-0.4,0.4-0.6,0.9-0.6,1.5c0,0.6,0.2,1.1,0.6,1.5c0.8,0.8,2.2,0.8,3,0
				c0.8-0.8,0.8-2.2,0-3C471,13.1,470.5,12.8,469.9,12.8L469.9,12.8z M469.9,18.8c-1,0-2-0.4-2.7-1.1c-0.7-0.7-1.1-1.7-1.1-2.7
				c0-1,0.4-2,1.1-2.7c0.7-0.7,1.7-1.1,2.7-1.1c1,0,2,0.4,2.7,1.1c0.7,0.7,1.1,1.7,1.1,2.7c0,1-0.4,2-1.1,2.7
				C471.9,18.4,470.9,18.8,469.9,18.8L469.9,18.8z"/>
			<path class="st112" d="M478.4,21.3c-0.6,0-1.1,0.2-1.5,0.6c-0.4,0.4-0.6,0.9-0.6,1.5c0,0.6,0.2,1.1,0.6,1.5c0.8,0.8,2.2,0.8,3,0
				c0.4-0.4,0.6-0.9,0.6-1.5c0-0.6-0.2-1.1-0.6-1.5C479.5,21.6,479,21.3,478.4,21.3L478.4,21.3z M478.4,27.4c-1,0-2-0.4-2.7-1.1
				c-0.7-0.7-1.1-1.7-1.1-2.7c0-1,0.4-2,1.1-2.7c0.7-0.7,1.7-1.1,2.7-1.1c1,0,2,0.4,2.7,1.1c0.7,0.7,1.1,1.7,1.1,2.7
				c0,1-0.4,2-1.1,2.7C480.4,26.9,479.5,27.4,478.4,27.4L478.4,27.4z"/>
			<path class="st112" d="M485,40.8c0.1,0.3,0.3,0.6,0.6,0.8v0c0.9,0.9,5.4,3,9,4.5c-0.3-0.7-0.7-1.5-1.1-2.4
				c-0.1-0.3-0.1-0.7,0.2-1c0.3-0.3,0.6-0.3,1-0.2c2,0.9,4.1,1.9,5.6,2.5c-0.6-1.5-1.5-3.5-2.4-5.5c-0.2-0.3-0.1-0.7,0.2-1
				c0.3-0.3,0.6-0.3,1-0.2c0.9,0.4,1.8,0.8,2.5,1.1c-1.5-3.6-3.6-8.1-4.5-9c-0.3-0.3-0.6-0.5-1-0.7L485,40.8L485,40.8z M496.1,48.6
				c-0.1,0-0.2,0-0.3-0.1c-1-0.4-9.8-4-11.5-5.7c-0.6-0.5-1-1.2-1.2-2c-0.1-0.3,0-0.6,0.2-0.9l11.7-11.7c0.2-0.2,0.5-0.3,0.8-0.2
				c0.9,0.2,1.6,0.7,2.3,1.3c1.6,1.6,5.3,10.5,5.7,11.5c0.1,0.3,0.1,0.7-0.2,0.9c-0.2,0.2-0.6,0.3-0.9,0.2c0,0-1-0.4-2.4-1
				c1.3,2.9,2.3,5.4,2.4,5.4c0.1,0.3,0.1,0.7-0.2,0.9c-0.2,0.2-0.6,0.3-0.9,0.2c0,0-2.6-1.1-5.6-2.4c0.6,1.3,1,2.3,1,2.3
				c0.1,0.3,0.1,0.7-0.2,0.9C496.6,48.5,496.4,48.6,496.1,48.6L496.1,48.6z"/>
			<path class="st112" d="M449.6-6.7c-0.3,0-0.6,0.1-0.8,0.3c-0.3,0.3-0.4,0.7-0.3,1.1l2.8,8.8c1.7,5.3,4.7,10.1,8.6,14l22.9,22.9
				l12.8-12.8L472.7,4.8c-3.9-3.9-8.8-6.9-14-8.6l-8.8-2.8C449.8-6.6,449.7-6.7,449.6-6.7L449.6-6.7z M482.8,42.6
				c-0.2,0-0.4-0.1-0.6-0.3l-23.5-23.5c-4.1-4.1-7.2-9.2-9-14.7l-2.8-8.8c-0.3-1-0.1-2.1,0.7-2.9c0.8-0.8,1.9-1,2.9-0.7l8.8,2.8
				c5.5,1.8,10.6,4.9,14.7,9l23.5,23.5c0.3,0.3,0.3,0.9,0,1.2l-14,14C483.3,42.5,483.1,42.6,482.8,42.6L482.8,42.6z"/>
			<path class="st112" d="M312.4,93.2c0-0.5,0.4-0.9,0.9-0.9c0.5,0,0.9,0.4,0.9,0.9c0,0.5-0.4,0.9-0.9,0.9
				C312.8,94,312.4,93.7,312.4,93.2L312.4,93.2z M318.6,96.2c-0.3-0.3-0.3-0.9,0-1.2c0.3-0.3,0.9-0.3,1.2,0c0.3,0.3,0.3,0.9,0,1.2
				c-0.2,0.2-0.4,0.3-0.6,0.3C319,96.5,318.8,96.4,318.6,96.2L318.6,96.2z M306.8,96.3c-0.3-0.3-0.3-0.9,0-1.2
				c0.3-0.3,0.9-0.3,1.2,0c0.3,0.3,0.3,0.9,0,1.2c-0.2,0.2-0.4,0.3-0.6,0.3C307.2,96.5,307,96.4,306.8,96.3L306.8,96.3z
				 M320.8,101.6L320.8,101.6c0-0.5,0.4-0.9,0.9-0.9s0.9,0.4,0.9,0.9v0v0c0,0.5-0.4,0.9-0.9,0.9C321.2,102.4,320.8,102,320.8,101.6
				L320.8,101.6z M304.1,101.6c0-0.5,0.4-0.9,0.9-0.9c0.5,0,0.9,0.4,0.9,0.9s-0.4,0.9-0.9,0.9C304.5,102.4,304.1,102,304.1,101.6
				L304.1,101.6z M318.6,108.1c-0.3-0.3-0.3-0.9,0-1.2c0.3-0.3,0.9-0.3,1.2,0c0.3,0.3,0.3,0.9,0,1.2c-0.2,0.2-0.4,0.3-0.6,0.3
				C319,108.3,318.8,108.2,318.6,108.1L318.6,108.1z M306.8,108.1c-0.3-0.3-0.3-0.9,0-1.2c0.3-0.3,0.9-0.3,1.2,0
				c0.3,0.3,0.3,0.9,0,1.2c-0.2,0.2-0.4,0.3-0.6,0.3C307.2,108.3,307,108.2,306.8,108.1L306.8,108.1z M312.5,109.9
				c0-0.5,0.4-0.9,0.9-0.9c0.5,0,0.9,0.4,0.9,0.9c0,0.5-0.4,0.9-0.9,0.9C312.9,110.8,312.5,110.4,312.5,109.9L312.5,109.9z"/>
			<path class="st112" d="M313.3,86.8c-8.1,0-14.7,6.6-14.7,14.7c0,8.1,6.6,14.7,14.7,14.7c8.1,0,14.7-6.6,14.7-14.7
				C328,93.3,321.4,86.8,313.3,86.8L313.3,86.8z M313.3,117.8c-9,0-16.4-7.4-16.4-16.4c0-9,7.4-16.4,16.4-16.4
				c9,0,16.4,7.4,16.4,16.4C329.7,110.5,322.4,117.8,313.3,117.8L313.3,117.8z"/>
			<path class="st112" d="M313.3,80.1c-11.7,0-21.3,9.6-21.3,21.3c0,11.7,9.5,21.3,21.3,21.3c11.7,0,21.3-9.5,21.3-21.3
				C334.6,89.7,325,80.1,313.3,80.1L313.3,80.1z M313.3,124.4c-12.7,0-23-10.3-23-23c0-12.7,10.3-23,23-23c12.7,0,23,10.3,23,23
				C336.3,114.1,326,124.4,313.3,124.4L313.3,124.4z"/>
			<path class="st112" d="M313.3,73.8c-15.2,0-27.6,12.4-27.6,27.6c0,15.2,12.4,27.6,27.6,27.6c15.2,0,27.6-12.4,27.6-27.6
				C340.9,86.2,328.5,73.8,313.3,73.8L313.3,73.8z M313.3,130.8c-16.2,0-29.3-13.2-29.3-29.3c0-16.2,13.2-29.3,29.3-29.3
				c16.2,0,29.3,13.2,29.3,29.3C342.6,117.6,329.5,130.8,313.3,130.8L313.3,130.8z"/>
			<path class="st112" d="M341.8,130.9c-0.2,0-0.4-0.1-0.6-0.3L314,103.4c-0.3-0.3-0.3-0.9,0-1.2c0.3-0.3,0.9-0.3,1.2,0l27.2,27.2
				c0.3,0.3,0.3,0.9,0,1.2C342.2,130.8,342,130.9,341.8,130.9L341.8,130.9z"/>
			<polygon class="st112" points="315,107.3 315,103.2 319.1,103.2 317.4,101.4 313.2,101.4 313.2,105.6 315,107.3 			"/>
			<path class="st112" d="M39.5,31.9h-1.1c-1.3,0-2.4-1.1-2.4-2.4c0-0.5,0.4-0.9,0.9-0.9c0.5,0,0.9,0.4,0.9,0.9
				c0,0.4,0.3,0.7,0.7,0.7h1.1c0.4,0,0.7-0.3,0.7-0.7v-1.1c0-0.4-0.3-0.7-0.7-0.7h-1.1c-1.3,0-2.4-1.1-2.4-2.4v-1.1
				c0-1.3,1.1-2.4,2.4-2.4h1.1c1.3,0,2.4,1.1,2.4,2.4c0,0.5-0.4,0.9-0.9,0.9c-0.5,0-0.9-0.4-0.9-0.8c0-0.4-0.3-0.7-0.7-0.7h-1.1
				c-0.4,0-0.7,0.3-0.7,0.7v1.1c0,0.4,0.3,0.7,0.7,0.7h1.1c1.3,0,2.4,1.1,2.4,2.4v1.1C41.9,30.8,40.8,31.9,39.5,31.9L39.5,31.9z"/>
			<path class="st112" d="M38.9,23.5c-0.5,0-0.9-0.4-0.9-0.9V21c0-0.5,0.4-0.9,0.9-0.9s0.9,0.4,0.9,0.9v1.6
				C39.8,23.1,39.4,23.5,38.9,23.5L38.9,23.5z"/>
			<path class="st112" d="M38.9,33.5c-0.5,0-0.9-0.4-0.9-0.9V31c0-0.5,0.4-0.9,0.9-0.9s0.9,0.4,0.9,0.9v1.6
				C39.8,33.1,39.4,33.5,38.9,33.5L38.9,33.5z"/>
			<path class="st112" d="M38.9,18.9c-1.8,0-3.6,0.6-5,1.8c-1.9,1.5-2.9,3.8-2.9,6.2c0,3.6,2.4,6.7,5.8,7.7c1.4,0.4,2.8,0.4,4.2,0
				c3.5-0.9,5.9-4.1,5.9-7.7C46.9,22.4,43.3,18.9,38.9,18.9L38.9,18.9z M38.9,36.5c-0.9,0-1.7-0.1-2.6-0.4c-4.2-1.2-7.1-5-7.1-9.3
				c0-2.9,1.3-5.7,3.6-7.5c1.7-1.4,3.9-2.2,6.1-2.2c5.3,0,9.7,4.3,9.7,9.7c0,4.4-2.9,8.2-7.1,9.3C40.6,36.4,39.8,36.5,38.9,36.5
				L38.9,36.5z"/>
			<path class="st112" d="M14.5,9.2c-0.1,0-0.1,0-0.2,0c-0.1,0-0.1,0-0.2-0.1L14,9l-0.1-0.1l-0.1-0.1c0,0-0.1-0.1-0.1-0.1
				c0-0.1,0-0.1-0.1-0.2c0-0.1,0-0.1,0-0.2c0-0.1,0-0.1,0-0.2c0-0.1,0-0.1,0.1-0.2c0-0.1,0-0.1,0.1-0.1l0.1-0.1
				c0.2-0.2,0.5-0.3,0.8-0.2c0.1,0,0.1,0,0.2,0c0.1,0,0.1,0.1,0.1,0.1c0.1,0,0.1,0.1,0.1,0.1l0.1,0.1c0,0,0.1,0.1,0.1,0.1
				c0,0.1,0,0.1,0,0.2c0,0.1,0,0.1,0,0.2c0,0.2-0.1,0.4-0.3,0.6C15,8.9,15,9,14.9,9c0,0-0.1,0.1-0.1,0.1c-0.1,0-0.1,0-0.2,0.1
				C14.6,9.2,14.5,9.2,14.5,9.2L14.5,9.2z"/>
			<path class="st112" d="M18.8,8.3c0-0.5,0.4-0.9,0.9-0.9c0.5,0,0.9,0.4,0.9,0.9c0,0.5-0.4,0.9-0.9,0.9C19.2,9.2,18.8,8.8,18.8,8.3
				L18.8,8.3z"/>
			<path class="st112" d="M24.8,9.2c-0.1,0-0.1,0-0.2,0c-0.1,0-0.1,0-0.2-0.1c-0.1,0-0.1,0-0.1-0.1c-0.1,0-0.1-0.1-0.1-0.1
				c-0.2-0.2-0.3-0.4-0.3-0.6c0-0.2,0.1-0.4,0.3-0.6c0,0,0.1-0.1,0.1-0.1c0,0,0.1-0.1,0.1-0.1c0.1,0,0.1,0,0.2,0
				c0.3-0.1,0.6,0,0.8,0.2c0.2,0.2,0.3,0.4,0.3,0.6c0,0.2-0.1,0.4-0.3,0.6L25.3,9l-0.1,0.1c-0.1,0-0.1,0-0.2,0.1
				C24.9,9.2,24.9,9.2,24.8,9.2L24.8,9.2z"/>
			<path class="st112" d="M67.5,5.7H48c-0.3,0-0.5-0.1-0.7-0.3c-0.2-0.2-0.2-0.5-0.2-0.7C47.2,4.3,47.6,4,48,4h19.5
				c0.5,0,0.9,0.4,0.9,0.9C68.4,5.3,68,5.7,67.5,5.7L67.5,5.7z"/>
			<path class="st112" d="M11.1,50.9h55.6V12.6H53.5c3.6,3.9,5.7,9.1,5.7,14.6c0,11.6-9,21-20.1,21C28,48.2,19,38.8,19,27.2
				c0-5.5,2-10.7,5.7-14.6H11.1V50.9L11.1,50.9z M67.5,52.6H10.2c-0.5,0-0.9-0.4-0.9-0.9V4.8C9.4,4.4,9.7,4,10.2,4h19.7
				c0.4,0,0.8,0.3,0.8,0.7c0.1,0.3,0,0.5-0.2,0.7c-0.2,0.2-0.4,0.3-0.7,0.3H11.1v5.2h15.7c0.4,0,0.7,0.2,0.8,0.6
				c0.1,0.3,0,0.7-0.2,1c-4.2,3.7-6.6,9.1-6.6,14.8c0,10.6,8.2,19.3,18.4,19.3c10.1,0,18.4-8.7,18.4-19.3c0-5.7-2.4-11.1-6.6-14.8
				c-0.3-0.2-0.4-0.6-0.2-1c0.1-0.3,0.4-0.6,0.8-0.6h16.1c0.5,0,0.9,0.4,0.9,0.9v40C68.4,52.3,68,52.6,67.5,52.6L67.5,52.6z"/>
			<path class="st112" d="M67.6,12.6c-0.5,0-0.9-0.4-0.9-0.9V4.8c0-0.5,0.4-0.9,0.9-0.9c0.5,0,0.9,0.4,0.9,0.9v6.9
				C68.4,12.2,68,12.6,67.6,12.6L67.6,12.6z"/>
			<path class="st112" d="M11.1,10.9h15.4c1.1-0.9,2.2-1.7,3.4-2.3l-0.6-2.8H11.1V10.9L11.1,10.9z M26.8,12.6H10.2
				c-0.5,0-0.9-0.4-0.9-0.9V4.8C9.4,4.4,9.8,4,10.2,4h19.6c0.4,0,0.7,0.3,0.8,0.7l0.9,4.2c0.1,0.4-0.1,0.8-0.5,1
				c-1.4,0.7-2.7,1.6-3.9,2.6C27.2,12.5,27,12.6,26.8,12.6L26.8,12.6z"/>
			<path class="st112" d="M51.7,10.9h14.9V5.7h-18l-0.6,2.7C49.4,9.1,50.6,9.9,51.7,10.9L51.7,10.9z M67.5,12.6H51.4
				c-0.2,0-0.4-0.1-0.6-0.2c-1.3-1.1-2.7-2-4.1-2.7c-0.4-0.2-0.6-0.6-0.5-1l0.9-4C47.2,4.3,47.6,4,48,4h19.5c0.5,0,0.9,0.4,0.9,0.9
				v6.9C68.4,12.2,68,12.6,67.5,12.6L67.5,12.6z"/>
			<path class="st112" d="M28.4-5.4l3.2,14.2c0.1,0.4-0.1,0.8-0.5,1c-1.4,0.7-2.7,1.6-3.9,2.6c-4.2,3.7-6.6,9.1-6.6,14.8
				c0,10.6,8.2,19.3,18.4,19.3c10.1,0,18.4-8.7,18.4-19.3c0-5.7-2.4-11.1-6.6-14.8c-1.3-1.1-2.7-2-4.1-2.7c-0.4-0.2-0.6-0.6-0.5-1
				l3.2-14l-0.1,0.1c-0.5,0.6-1.2,1.4-2.6,1.4s-2.1-0.8-2.6-1.4c-0.5-0.6-0.7-0.8-1.3-0.8c-0.6,0-0.8,0.3-1.3,0.8
				c-0.5,0.6-1.2,1.4-2.6,1.4c-1.4,0-2.1-0.8-2.6-1.4c-0.5-0.6-0.7-0.8-1.3-0.8c-0.6,0-0.8,0.3-1.3,0.8c-0.5,0.6-1.2,1.4-2.6,1.4
				c-1.4,0-2.1-0.8-2.6-1.4L28.4-5.4L28.4-5.4z M39.1,48.2C28,48.2,19,38.8,19,27.2c0-6.2,2.6-12.1,7.2-16.1c1.1-1,2.4-1.9,3.6-2.5
				l-3.4-15c0-0.1,0-0.1,0-0.2l0-0.3c0-0.2,0.1-0.5,0.2-0.6c0.2-0.2,0.4-0.3,0.6-0.3c1.4,0,2.1,0.8,2.6,1.4c0.5,0.6,0.7,0.8,1.3,0.8
				c0.6,0,0.8-0.3,1.3-0.8C33-7,33.7-7.8,35.1-7.8s2.1,0.8,2.6,1.4c0.5,0.6,0.7,0.8,1.3,0.8c0.6,0,0.8-0.3,1.3-0.8
				c0.5-0.6,1.2-1.4,2.6-1.4c1.4,0,2.1,0.8,2.6,1.4c0.5,0.6,0.7,0.8,1.3,0.8c0.6,0,0.8-0.3,1.3-0.8c0.5-0.6,1.2-1.4,2.6-1.4
				c0.2,0,0.5,0.1,0.6,0.3c0.2,0.2,0.2,0.4,0.2,0.7l0,0.3l0,0.1L48.1,8.4c1.4,0.7,2.7,1.6,3.9,2.7c4.6,4,7.2,9.9,7.2,16.1
				C59.2,38.8,50.2,48.2,39.1,48.2L39.1,48.2z"/>
			<path class="st112" d="M49.6,9.6H29.2c-0.5,0-0.9-0.4-0.9-0.9c0-0.5,0.4-0.9,0.9-0.9h20.4c0.5,0,0.9,0.4,0.9,0.9
				C50.5,9.3,50.1,9.6,49.6,9.6L49.6,9.6z"/>
			<path class="st112" d="M84.8,79.4h48.1V43.9H84.8V79.4L84.8,79.4z M133.8,81.1H84c-0.5,0-0.9-0.4-0.9-0.9V43
				c0-0.5,0.4-0.9,0.9-0.9h49.8c0.5,0,0.9,0.4,0.9,0.9v37.3C134.6,80.7,134.3,81.1,133.8,81.1L133.8,81.1z M82.1,40.1
				c-0.6,0-1,0.5-1,1v41.1c0,0.6,0.5,1,1,1h53.6c0.6,0,1-0.5,1-1V41.1c0-0.6-0.5-1-1-1H82.1L82.1,40.1z M135.7,84.9H82.1
				c-1.5,0-2.8-1.2-2.8-2.8V41.1c0-1.5,1.2-2.8,2.8-2.8h53.6c1.5,0,2.8,1.2,2.8,2.8v41.1C138.4,83.7,137.2,84.9,135.7,84.9
				L135.7,84.9z"/>
			<path class="st112" d="M105,90.2h7.5v-5.3H105V90.2L105,90.2z M113.4,91.9h-9.2c-0.5,0-0.9-0.4-0.9-0.9v-7c0-0.5,0.4-0.9,0.9-0.9
				h9.2c0.5,0,0.9,0.4,0.9,0.9v7C114.2,91.6,113.8,91.9,113.4,91.9L113.4,91.9z"/>
			<path class="st112" d="M94.9,95.1h27.6c-0.4-1.8-2-3.1-3.9-3.1H98.8C96.9,91.9,95.3,93.3,94.9,95.1L94.9,95.1z M123.5,96.8H94
				c-0.5,0-0.9-0.4-0.9-0.9c0-3.1,2.6-5.7,5.7-5.7h19.8c3.1,0,5.7,2.6,5.7,5.7C124.4,96.4,124,96.8,123.5,96.8L123.5,96.8z"/>
			<path class="st112" d="M117.2,70.7c0-0.5,0.4-0.9,0.9-0.9c0.5,0,0.9,0.4,0.9,0.9c0,0.5-0.4,0.9-0.9,0.9
				C117.6,71.6,117.2,71.2,117.2,70.7L117.2,70.7z"/>
			<path class="st112" d="M103.9,72.2c-0.5,0-0.9-0.4-0.9-0.9c0-8.6,7-15.7,15.7-15.7c0.5,0,0.9,0.4,0.9,0.9c0,0.5-0.4,0.9-0.9,0.9
				c-7.7,0-14,6.3-14,14C104.8,71.8,104.4,72.2,103.9,72.2L103.9,72.2z"/>
			<path class="st112" d="M99.1,72.2c-0.5,0-0.9-0.4-0.9-0.9c0-11.3,9.2-20.6,20.6-20.6c0.5,0,0.9,0.4,0.9,0.9
				c0,0.5-0.4,0.9-0.9,0.9c-10.4,0-18.8,8.5-18.8,18.8C99.9,71.8,99.5,72.2,99.1,72.2L99.1,72.2z"/>
			<path class="st112" d="M108.8,72.2c-0.5,0-0.9-0.4-0.9-0.9c0-6,4.8-10.8,10.8-10.8c0.5,0,0.9,0.4,0.9,0.9c0,0.5-0.4,0.9-0.9,0.9
				c-5,0-9.1,4.1-9.1,9.1C109.7,71.8,109.3,72.2,108.8,72.2L108.8,72.2z"/>
			<path class="st112" d="M103.9,72.2c-0.5,0-0.9-0.4-0.9-0.9c0-8.6,7-15.7,15.7-15.7c0.5,0,0.9,0.4,0.9,0.9c0,0.5-0.4,0.9-0.9,0.9
				c-7.7,0-14,6.3-14,14C104.8,71.8,104.4,72.2,103.9,72.2L103.9,72.2z"/>
			<path class="st112" d="M108.8,72.2c-0.5,0-0.9-0.4-0.9-0.9c0-6,4.8-10.8,10.8-10.8c0.5,0,0.9,0.4,0.9,0.9c0,0.5-0.4,0.9-0.9,0.9
				c-5,0-9.1,4.1-9.1,9.1C109.7,71.8,109.3,72.2,108.8,72.2L108.8,72.2z"/>
			<path class="st112" d="M113.7,72.2c-0.5,0-0.9-0.4-0.9-0.9c0-3.3,2.7-5.9,5.9-5.9c0.5,0,0.9,0.4,0.9,0.9c0,0.5-0.4,0.9-0.9,0.9
				c-2.3,0-4.2,1.9-4.2,4.2C114.6,71.8,114.2,72.2,113.7,72.2L113.7,72.2z"/>
			<path class="st112" d="M13,124.3h55.6V91.5L40.8,69.3L13,91.5V124.3L13,124.3z M69.5,126H12.2c-0.5,0-0.9-0.4-0.9-0.9v-34
				c0-0.3,0.1-0.5,0.3-0.7l28.6-22.9c0.3-0.3,0.8-0.3,1.1,0L70,90.4c0.2,0.2,0.3,0.4,0.3,0.7v34C70.3,125.6,69.9,126,69.5,126
				L69.5,126z"/>
			<path class="st112" d="M69.5,126c-0.1,0-0.3,0-0.4-0.1l-57.3-34c-0.4-0.2-0.5-0.8-0.3-1.2c0.2-0.4,0.8-0.5,1.2-0.3l57.3,34
				c0.4,0.2,0.5,0.8,0.3,1.2C70,125.9,69.8,126,69.5,126L69.5,126z"/>
			<path class="st112" d="M12.2,126c-0.3,0-0.6-0.2-0.7-0.4c-0.2-0.4-0.1-0.9,0.3-1.2l57.3-34c0.4-0.2,0.9-0.1,1.2,0.3
				c0.2,0.4,0.1,0.9-0.3,1.2l-57.3,34C12.5,126,12.3,126,12.2,126L12.2,126z"/>
			<path class="st112" d="M56,100c-0.5,0-0.9-0.4-0.9-0.9V86.8H26.5v11.6c0,0.5-0.4,0.9-0.9,0.9c-0.5,0-0.9-0.4-0.9-0.9V85.9
				c0-0.5,0.4-0.9,0.9-0.9H56c0.5,0,0.9,0.4,0.9,0.9v13.2C56.8,99.6,56.5,100,56,100L56,100z"/>
			<path class="st112" d="M50.9,91.5H31.1c-0.5,0-0.9-0.4-0.9-0.9c0-0.5,0.4-0.9,0.9-0.9h19.8c0.5,0,0.9,0.4,0.9,0.9
				C51.8,91.1,51.4,91.5,50.9,91.5L50.9,91.5z"/>
			<path class="st112" d="M50.7,97.4H30.9c-0.5,0-0.9-0.4-0.9-0.9c0-0.5,0.4-0.9,0.9-0.9h19.8c0.5,0,0.9,0.4,0.9,0.9
				C51.6,97,51.2,97.4,50.7,97.4L50.7,97.4z"/>
			<path class="st112" d="M155.5,69.3c-0.2,0-0.4-0.1-0.6-0.3c-0.2-0.2-0.3-0.4-0.3-0.6c0-0.2,0.1-0.4,0.3-0.6
				c0.3-0.3,0.9-0.3,1.2,0c0.2,0.2,0.3,0.4,0.3,0.6c0,0.2-0.1,0.4-0.3,0.6C155.9,69.2,155.7,69.3,155.5,69.3L155.5,69.3z"/>
			<path class="st112" d="M159.8,68.4c0-0.5,0.4-0.9,0.9-0.9c0.5,0,0.9,0.4,0.9,0.9c0,0.5-0.4,0.9-0.9,0.9
				C160.2,69.3,159.8,68.9,159.8,68.4L159.8,68.4z"/>
			<path class="st112" d="M165.8,69.3c-0.2,0-0.4-0.1-0.6-0.3c-0.2-0.2-0.3-0.4-0.3-0.6c0-0.2,0.1-0.4,0.3-0.6
				c0.3-0.3,0.9-0.3,1.2,0c0.2,0.2,0.3,0.4,0.3,0.6c0,0.2-0.1,0.4-0.3,0.6C166.3,69.2,166,69.3,165.8,69.3L165.8,69.3z"/>
			<path class="st112" d="M194.5,123.3h-43c-0.5,0-0.9-0.4-0.9-0.9V64.2c0-0.5,0.4-0.9,0.9-0.9h43c0.5,0,0.9,0.4,0.9,0.9v20.3
				c0,0.5-0.4,0.9-0.9,0.9c-0.5,0-0.9-0.4-0.9-0.9V65h-41.3v56.5h41.3v-5.2c0-0.5,0.4-0.9,0.9-0.9c0.5,0,0.9,0.4,0.9,0.9v6
				C195.4,122.9,195,123.3,194.5,123.3L194.5,123.3z"/>
			<path class="st112" d="M152.4,71.7h41.3v-6.7h-41.3V71.7L152.4,71.7z M194.5,73.5h-43c-0.5,0-0.9-0.4-0.9-0.9v-8.4
				c0-0.5,0.4-0.9,0.9-0.9h43c0.5,0,0.9,0.4,0.9,0.9v8.4C195.4,73.1,195,73.5,194.5,73.5L194.5,73.5z"/>
			<path class="st112" d="M209.4,117.2h-49.6c-0.5,0-0.9-0.4-0.9-0.9V95.7c0-0.5,0.4-0.9,0.9-0.9c0.5,0,0.9,0.4,0.9,0.9v19.8h47.9
				V85.4c0-0.5,0.4-0.9,0.9-0.9c0.5,0,0.9,0.4,0.9,0.9v31C210.2,116.9,209.9,117.2,209.4,117.2L209.4,117.2z"/>
			<path class="st112" d="M167.8,105.3c-0.2,0-0.5-0.1-0.6-0.3l-8-8.7c-0.3-0.3-0.3-0.9,0.1-1.2c0.4-0.3,0.9-0.3,1.2,0.1l6.6,7.2
				l0.7-12c0-0.4,0.3-0.7,0.6-0.8c0.3-0.1,0.7,0,0.9,0.3l6.6,8.6l1.4-10.6c0-0.3,0.3-0.6,0.6-0.7c0.3-0.1,0.6,0,0.9,0.2l6,5.8
				l2.1-7.9c0.1-0.3,0.3-0.5,0.6-0.6c0.3-0.1,0.6,0,0.8,0.2l4.4,4.3l3.4-13.3c0.1-0.3,0.4-0.6,0.7-0.6c0.3,0,0.7,0.1,0.9,0.4
				l4.9,8.8l0.9-18.2c0-0.5,0.4-0.8,0.9-0.8c0.5,0,0.8,0.4,0.8,0.9l-1,21.3c0,0.4-0.3,0.7-0.7,0.8c-0.4,0.1-0.8-0.1-0.9-0.4
				l-5.3-9.6L194,91c-0.1,0.3-0.3,0.5-0.6,0.6c-0.3,0.1-0.6,0-0.8-0.2l-4.4-4.3l-2.1,7.9c-0.1,0.3-0.3,0.5-0.6,0.6
				c-0.3,0.1-0.6,0-0.8-0.2l-5.9-5.6l-1.4,11c0,0.3-0.3,0.6-0.6,0.7c-0.3,0.1-0.7,0-0.9-0.3l-6.5-8.4l-0.7,11.8
				c0,0.3-0.2,0.6-0.6,0.8C167.9,105.3,167.9,105.3,167.8,105.3L167.8,105.3z"/>
			<path class="st112" d="M167.8,109.8c-0.5,0-0.9-0.4-0.9-0.9v-4.4c0-0.5,0.4-0.9,0.9-0.9c0.5,0,0.9,0.4,0.9,0.9v4.4
				C168.6,109.4,168.2,109.8,167.8,109.8L167.8,109.8z"/>
			<path class="st112" d="M176.4,107.6c-0.5,0-0.9-0.4-0.9-0.9v-6.1c0-0.5,0.4-0.9,0.9-0.9c0.5,0,0.9,0.4,0.9,0.9v6.1
				C177.3,107.2,176.9,107.6,176.4,107.6L176.4,107.6z"/>
			<path class="st112" d="M185.2,104.1c-0.5,0-0.9-0.4-0.9-0.9v-8.6c0-0.5,0.4-0.9,0.9-0.9c0.5,0,0.9,0.4,0.9,0.9v8.6
				C186,103.7,185.7,104.1,185.2,104.1L185.2,104.1z"/>
			<path class="st112" d="M203.3,95.5c-0.5,0-0.9-0.4-0.9-0.9V87c0-0.5,0.4-0.9,0.9-0.9c0.5,0,0.9,0.4,0.9,0.9v7.7
				C204.2,95.1,203.8,95.5,203.3,95.5L203.3,95.5z"/>
			<path class="st112" d="M203.1,95.6c-0.8,0-1.5,0.6-1.5,1.5c0,0.8,0.7,1.5,1.5,1.5c0.8,0,1.5-0.7,1.5-1.5
				C204.5,96.2,203.9,95.6,203.1,95.6L203.1,95.6z M203.1,100.2c-1.7,0-3.2-1.4-3.2-3.2c0-1.7,1.4-3.2,3.2-3.2
				c1.7,0,3.2,1.4,3.2,3.2C206.3,98.8,204.8,100.2,203.1,100.2L203.1,100.2z"/>
			<path class="st112" d="M209.4,81.5c-0.8,0-1.5,0.7-1.5,1.5c0,0.8,0.7,1.5,1.5,1.5c0.8,0,1.5-0.7,1.5-1.5
				C210.8,82.2,210.2,81.5,209.4,81.5L209.4,81.5z M209.4,86.1c-1.7,0-3.2-1.4-3.2-3.2c0-1.7,1.4-3.2,3.2-3.2c1.7,0,3.2,1.4,3.2,3.2
				C212.5,84.7,211.1,86.1,209.4,86.1L209.4,86.1z"/>
			<path class="st112" d="M193.3,99.8c-0.8,0-1.5,0.7-1.5,1.5c0,0.8,0.7,1.5,1.5,1.5c0.8,0,1.5-0.7,1.5-1.5
				C194.7,100.4,194.1,99.8,193.3,99.8L193.3,99.8z M193.3,104.4c-1.7,0-3.2-1.4-3.2-3.2c0-1.7,1.4-3.2,3.2-3.2s3.2,1.4,3.2,3.2
				C196.5,103,195,104.4,193.3,104.4L193.3,104.4z"/>
			<path class="st112" d="M185.2,104.2c-0.8,0-1.5,0.7-1.5,1.5c0,0.8,0.7,1.5,1.5,1.5c0.8,0,1.5-0.7,1.5-1.5
				C186.6,104.9,186,104.2,185.2,104.2L185.2,104.2z M185.2,108.9c-1.7,0-3.2-1.4-3.2-3.2c0-1.7,1.4-3.2,3.2-3.2
				c1.7,0,3.2,1.4,3.2,3.2C188.4,107.4,186.9,108.9,185.2,108.9L185.2,108.9z"/>
			<path class="st112" d="M176.7,107.8c-0.8,0-1.5,0.7-1.5,1.5c0,0.8,0.7,1.5,1.5,1.5c0.8,0,1.5-0.7,1.5-1.5
				C178.1,108.4,177.5,107.8,176.7,107.8L176.7,107.8z M176.7,112.4c-1.7,0-3.2-1.4-3.2-3.2c0-1.7,1.4-3.2,3.2-3.2
				c1.7,0,3.2,1.4,3.2,3.2C179.8,111,178.4,112.4,176.7,112.4L176.7,112.4z"/>
			<path class="st112" d="M167.8,109.8c-0.8,0-1.5,0.7-1.5,1.5c0,0.8,0.7,1.5,1.5,1.5c0.8,0,1.5-0.6,1.5-1.5
				C169.2,110.5,168.6,109.8,167.8,109.8L167.8,109.8z M167.8,114.4c-1.7,0-3.2-1.4-3.2-3.2c0-1.7,1.4-3.2,3.2-3.2
				c1.7,0,3.2,1.4,3.2,3.2C170.9,113,169.5,114.4,167.8,114.4L167.8,114.4z"/>
			<path class="st112" d="M193.3,99.8c-0.5,0-0.9-0.4-0.9-0.9v-8.1c0-0.5,0.4-0.9,0.9-0.9c0.5,0,0.9,0.4,0.9,0.9v8.1
				C194.1,99.4,193.8,99.8,193.3,99.8L193.3,99.8z"/>
			<path class="st112" d="M159.8,96.6c-0.5,0-0.9-0.4-0.9-0.9V83.9c0-0.5,0.4-0.9,0.9-0.9c0.5,0,0.9,0.4,0.9,0.9v11.8
				C160.6,96.2,160.2,96.6,159.8,96.6L159.8,96.6z"/>
			<path class="st112" d="M162.8,86.9c-0.2,0-0.4-0.1-0.6-0.3l-2.5-2.5l-2.5,2.5c-0.3,0.3-0.9,0.3-1.2,0c-0.3-0.3-0.3-0.9,0-1.2
				l3.1-3.1c0.3-0.3,0.9-0.3,1.2,0l3.1,3.1c0.3,0.3,0.3,0.9,0,1.2C163.3,86.8,163.1,86.9,162.8,86.9L162.8,86.9z"/>
			<path class="st112" d="M207.5,69.5c-0.2,0-0.4-0.1-0.6-0.3l-2.5-2.5l-2.5,2.5c-0.3,0.3-0.9,0.3-1.2,0c-0.3-0.3-0.3-0.9,0-1.2
				l3.1-3.1c0.2-0.2,0.4-0.3,0.6-0.3c0.2,0,0.4,0.1,0.6,0.3l3.1,3.1c0.3,0.3,0.3,0.9,0,1.2C207.9,69.5,207.7,69.5,207.5,69.5
				L207.5,69.5z"/>
			<path class="st112" d="M291.9,2.6c-1.1,0-1.9,0.9-1.9,1.9v3.9c0,1.1,0.9,1.9,1.9,1.9h13.5c1.1,0,1.9-0.9,1.9-1.9V4.5
				c0-1.1-0.9-1.9-1.9-1.9H291.9L291.9,2.6z M305.4,12.1h-13.5c-2,0-3.7-1.6-3.7-3.7V4.5c0-2,1.6-3.7,3.7-3.7h13.5
				c2,0,3.7,1.6,3.7,3.7v3.9C309.1,10.4,307.4,12.1,305.4,12.1L305.4,12.1z"/>
			<path class="st112" d="M292.7,42.3c-1.5,0-2.7,1.2-2.7,2.7v10.9c0,1.5,1.2,2.7,2.7,2.7h12c1.5,0,2.7-1.2,2.7-2.7V45
				c0-1.5-1.2-2.7-2.7-2.7H292.7L292.7,42.3z M304.7,60.3h-12c-2.4,0-4.4-2-4.4-4.4V45c0-2.4,2-4.4,4.4-4.4h12c2.4,0,4.4,2,4.4,4.4
				v10.9C309.1,58.4,307.2,60.3,304.7,60.3L304.7,60.3z"/>
			<path class="st112" d="M315.3,42.6c-1.1,0-1.9,0.9-1.9,1.9v8.6c0,1.1,0.9,1.9,1.9,1.9h9.5c1.1,0,1.9-0.9,1.9-1.9v-8.6
				c0-1.1-0.9-1.9-1.9-1.9H315.3L315.3,42.6z M324.8,56.8h-9.5c-2,0-3.6-1.6-3.6-3.7v-8.6c0-2,1.6-3.6,3.6-3.6h9.5
				c2,0,3.7,1.6,3.7,3.6v8.6C328.4,55.2,326.8,56.8,324.8,56.8L324.8,56.8z"/>
			<path class="st112" d="M272.6,42.6c-1.1,0-1.9,0.9-1.9,1.9v8.6c0,1.1,0.9,1.9,1.9,1.9h9.5c1.1,0,1.9-0.9,1.9-1.9v-8.6
				c0-1.1-0.9-1.9-1.9-1.9H272.6L272.6,42.6z M282,56.8h-9.5c-2,0-3.7-1.6-3.7-3.7v-8.6c0-2,1.6-3.6,3.7-3.6h9.5
				c2,0,3.7,1.6,3.7,3.6v8.6C285.7,55.2,284,56.8,282,56.8L282,56.8z"/>
			<path class="st112" d="M288,22.7c-0.2,0-0.4,0.2-0.4,0.4v3.3c0,0.2,0.2,0.4,0.4,0.4h21.2c0.2,0,0.4-0.2,0.4-0.4V23
				c0-0.2-0.2-0.4-0.4-0.4H288L288,22.7z M309.3,28.4H288c-1.2,0-2.1-0.9-2.1-2.1V23c0-1.2,0.9-2.1,2.1-2.1h21.2
				c1.2,0,2.1,0.9,2.1,2.1v3.3C311.4,27.4,310.4,28.4,309.3,28.4L309.3,28.4z"/>
			<path class="st112" d="M298.7,22.2c-0.5,0-0.9-0.4-0.9-0.9v-9.6c0-0.5,0.4-0.9,0.9-0.9c0.5,0,0.9,0.4,0.9,0.9v9.6
				C299.5,21.8,299.1,22.2,298.7,22.2L298.7,22.2z"/>
			<path class="st112" d="M320.1,42.3c-0.5,0-0.9-0.4-0.9-0.9v-3.4c0-0.9-0.8-1.7-1.7-1.7h-37.7c-0.9,0-1.7,0.8-1.7,1.7v3.4
				c0,0.5-0.4,0.9-0.9,0.9c-0.5,0-0.9-0.4-0.9-0.9v-3.4c0-1.9,1.5-3.4,3.4-3.4h37.7c1.9,0,3.4,1.5,3.4,3.4v3.4
				C320.9,41.9,320.5,42.3,320.1,42.3L320.1,42.3z"/>
			<path class="st112" d="M298.7,36.4c-0.5,0-0.9-0.4-0.9-0.9v-8c0-0.5,0.4-0.9,0.9-0.9c0.5,0,0.9,0.4,0.9,0.9v8
				C299.5,36,299.1,36.4,298.7,36.4L298.7,36.4z"/>
			<path class="st112" d="M172.4,27.8h-1.9c-1.9,0-3.5-1.6-3.5-3.5c0-0.5,0.4-0.9,0.9-0.9c0.5,0,0.9,0.4,0.9,0.9
				c0,1,0.8,1.8,1.8,1.8h1.9c1,0,1.8-0.8,1.8-1.8v-1.9c0-1-0.8-1.8-1.8-1.8h-1.9c-1.9,0-3.5-1.6-3.5-3.5v-1.9c0-1.9,1.6-3.5,3.5-3.5
				h1.9c1.9,0,3.5,1.6,3.5,3.5v0.1c0,0.5-0.4,0.9-0.9,0.9s-0.9-0.4-0.9-0.9v-0.1c0-1-0.8-1.8-1.8-1.8h-1.9c-1,0-1.8,0.8-1.8,1.8v1.9
				c0,1,0.8,1.8,1.8,1.8h1.9c1.9,0,3.5,1.6,3.5,3.5v1.9C175.9,26.3,174.3,27.8,172.4,27.8L172.4,27.8z"/>
			<path class="st112" d="M171.5,13.4c-0.5,0-0.9-0.4-0.9-0.9V9.7c0-0.5,0.4-0.9,0.9-0.9c0.5,0,0.9,0.4,0.9,0.9v2.8
				C172.4,13,172,13.4,171.5,13.4L171.5,13.4z"/>
			<path class="st112" d="M171.5,30.6c-0.5,0-0.9-0.4-0.9-0.9V27c0-0.5,0.4-0.9,0.9-0.9c0.5,0,0.9,0.4,0.9,0.9v2.8
				C172.4,30.3,172,30.6,171.5,30.6L171.5,30.6z"/>
			<path class="st112" d="M171.5,7.2c-6.3,0-11.5,4.5-12.5,10.7c-0.1,0.7-0.2,1.4-0.2,2c0,7,5.7,12.7,12.7,12.7
				c2.3,0,4.6-0.6,6.6-1.9l-1.4-3.4c-0.1-0.3-0.1-0.7,0.2-0.9c0.2-0.2,0.6-0.3,0.9-0.2l3.6,1.5c1.8-2.2,2.7-5,2.7-7.8
				C184.2,12.8,178.5,7.2,171.5,7.2L171.5,7.2z M171.5,34.2c-7.9,0-14.4-6.5-14.4-14.4c0-0.7,0.1-1.4,0.2-2.2
				c1.1-7,7.1-12.2,14.2-12.2c7.9,0,14.4,6.5,14.4,14.4c0,3.5-1.3,6.8-3.5,9.4c-0.2,0.3-0.6,0.4-1,0.2l-2.3-0.9l0.9,2.1
				c0.2,0.4,0,0.8-0.3,1C177.2,33.4,174.4,34.2,171.5,34.2L171.5,34.2z"/>
			<path class="st112" d="M187,39c0.2,0,0.4,0.1,0.6,0.3l7.7,7.7l2.1-2.1l-7.7-7.7c-0.3-0.3-0.3-0.9,0-1.2l2.1-2.1l-12.8-5.2
				l5.2,12.8l2.1-2.1C186.6,39,186.8,39,187,39L187,39z M195.3,49c-0.2,0-0.4-0.1-0.6-0.3L187,41l-2.5,2.4c-0.2,0.2-0.5,0.3-0.8,0.2
				c-0.3-0.1-0.5-0.3-0.6-0.5l-6.5-15.9c-0.1-0.3-0.1-0.7,0.2-0.9c0.2-0.2,0.6-0.3,0.9-0.2l15.9,6.5c0.3,0.1,0.5,0.3,0.5,0.6
				c0.1,0.3,0,0.6-0.2,0.8l-2.5,2.4l7.7,7.7c0.3,0.3,0.3,0.9,0,1.2l-3.3,3.3C195.8,48.9,195.6,49,195.3,49L195.3,49z"/>
			<path class="st112" d="M171.5,3.5c-0.5,0-0.9-0.4-0.9-0.9v-7.1c0-0.5,0.4-0.9,0.9-0.9s0.9,0.4,0.9,0.9v7.1
				C172.3,3.1,172,3.5,171.5,3.5L171.5,3.5z"/>
			<path class="st112" d="M171.5,45c-0.5,0-0.9-0.4-0.9-0.9V37c0-0.5,0.4-0.9,0.9-0.9c0.5,0,0.9,0.4,0.9,0.9v7.1
				C172.4,44.6,172,45,171.5,45L171.5,45z"/>
			<path class="st112" d="M159.4,8.6c-0.2,0-0.4-0.1-0.6-0.3l-5-5c-0.3-0.3-0.3-0.9,0-1.2c0.3-0.3,0.9-0.3,1.2,0l5,5
				c0.3,0.3,0.3,0.9,0,1.2C159.8,8.5,159.6,8.6,159.4,8.6L159.4,8.6z"/>
			<path class="st112" d="M154.3,20.7h-7.1c-0.5,0-0.9-0.4-0.9-0.9c0-0.5,0.4-0.9,0.9-0.9h7.1c0.5,0,0.9,0.4,0.9,0.9
				C155.2,20.3,154.8,20.7,154.3,20.7L154.3,20.7z"/>
			<path class="st112" d="M195.8,20.7h-7.1c-0.5,0-0.9-0.4-0.9-0.9c0-0.5,0.4-0.9,0.9-0.9h7.1c0.5,0,0.9,0.4,0.9,0.9
				C196.6,20.3,196.2,20.7,195.8,20.7L195.8,20.7z"/>
			<path class="st112" d="M154.3,37.9c-0.2,0-0.4-0.1-0.6-0.3c-0.3-0.3-0.3-0.9,0-1.2l5-5c0.3-0.3,0.9-0.3,1.2,0
				c0.3,0.3,0.3,0.9,0,1.2l-5,5C154.8,37.8,154.6,37.9,154.3,37.9L154.3,37.9z"/>
			<path class="st112" d="M183.6,8.6c-0.2,0-0.4-0.1-0.6-0.3c-0.3-0.3-0.3-0.9,0-1.2l5-5c0.3-0.3,0.9-0.3,1.2,0
				c0.3,0.3,0.3,0.9,0,1.2l-5,5C184.1,8.5,183.8,8.6,183.6,8.6L183.6,8.6z"/>
			<path class="st112" d="M171.5,45.2c-0.8,0-1.5,0.7-1.5,1.5c0,0.8,0.7,1.5,1.5,1.5c0.8,0,1.5-0.7,1.5-1.5
				C173,45.8,172.3,45.2,171.5,45.2L171.5,45.2z M171.5,49.9c-1.8,0-3.2-1.4-3.2-3.2s1.4-3.2,3.2-3.2c1.8,0,3.2,1.5,3.2,3.2
				S173.3,49.9,171.5,49.9L171.5,49.9z"/>
			<path class="st112" d="M152.6-0.6c-0.4,0-0.8,0.1-1.1,0.4c-0.6,0.6-0.6,1.5,0,2.1c0.6,0.6,1.5,0.6,2.1,0c0.6-0.6,0.6-1.5,0-2.1
				C153.3-0.4,153-0.6,152.6-0.6L152.6-0.6z M152.6,4.2c-0.8,0-1.7-0.3-2.3-0.9c-0.6-0.6-0.9-1.4-0.9-2.3c0-0.9,0.3-1.7,0.9-2.3
				c0.6-0.6,1.4-1,2.3-1c0.9,0,1.7,0.3,2.3,1c1.3,1.3,1.3,3.3,0,4.6C154.2,3.9,153.4,4.2,152.6,4.2L152.6,4.2z"/>
			<path class="st112" d="M144.7,18.4c-0.8,0-1.5,0.7-1.5,1.5c0,0.8,0.7,1.5,1.5,1.5c0.8,0,1.5-0.7,1.5-1.5
				C146.2,19,145.6,18.4,144.7,18.4L144.7,18.4z M144.7,23.1c-1.8,0-3.2-1.5-3.2-3.2c0-1.8,1.4-3.2,3.2-3.2c1.8,0,3.2,1.5,3.2,3.2
				C148,21.7,146.5,23.1,144.7,23.1L144.7,23.1z"/>
			<path class="st112" d="M198.3,18.4c-0.8,0-1.5,0.7-1.5,1.5c0,0.8,0.7,1.5,1.5,1.5s1.5-0.7,1.5-1.5
				C199.8,19.1,199.1,18.4,198.3,18.4L198.3,18.4z M198.3,23.1c-1.8,0-3.2-1.4-3.2-3.2c0-1.8,1.4-3.2,3.2-3.2c1.8,0,3.2,1.5,3.2,3.2
				C201.5,21.7,200.1,23.1,198.3,23.1L198.3,23.1z"/>
			<path class="st112" d="M150.9,37.1L150.9,37.1L150.9,37.1L150.9,37.1z M152.6,37.3c-0.4,0-0.8,0.1-1.1,0.4l0,0
				c-0.3,0.3-0.4,0.7-0.4,1.1c0,0.4,0.2,0.8,0.4,1.1c0.6,0.6,1.5,0.6,2.1,0c0.6-0.6,0.6-1.5,0-2.1C153.3,37.4,152.9,37.3,152.6,37.3
				L152.6,37.3z M152.6,42c-0.9,0-1.7-0.3-2.3-0.9c-0.6-0.6-0.9-1.4-0.9-2.3c0-0.9,0.3-1.7,0.9-2.3l0,0c0.6-0.6,1.4-0.9,2.3-0.9
				c0.9,0,1.7,0.3,2.3,0.9c1.3,1.3,1.3,3.3,0,4.6C154.2,41.7,153.4,42,152.6,42L152.6,42z"/>
			<path class="st112" d="M188.8-0.7L188.8-0.7L188.8-0.7L188.8-0.7z M190.4-0.5c-0.4,0-0.8,0.2-1.1,0.4l0,0
				c-0.3,0.3-0.4,0.7-0.4,1.1c0,0.4,0.2,0.8,0.4,1.1c0.6,0.6,1.6,0.6,2.1,0c0.3-0.3,0.4-0.7,0.4-1.1c0-0.4-0.2-0.8-0.4-1.1
				C191.2-0.4,190.8-0.5,190.4-0.5L190.4-0.5z M190.4,4.2c-0.9,0-1.7-0.3-2.3-0.9c-0.6-0.6-0.9-1.4-0.9-2.3c0-0.9,0.3-1.7,0.9-2.3
				l0,0c0.6-0.6,1.4-0.9,2.3-0.9c0.9,0,1.7,0.3,2.3,0.9c0.6,0.6,0.9,1.4,0.9,2.3c0,0.9-0.3,1.7-0.9,2.3
				C192.1,3.9,191.3,4.2,190.4,4.2L190.4,4.2z"/>
			<path class="st112" d="M394.1,69.7c-0.6,0-1.2,0.3-1.7,0.8c-0.5,0.5-0.7,1.2-0.6,1.9c0.3,2.6,3.7,5.1,5.4,6
				c1.2-0.7,5.1-3.2,5.4-6c0.1-0.7-0.1-1.4-0.6-1.9c-0.4-0.5-1.1-0.8-1.7-0.8c-1.2,0-2.3,1.2-2.3,2.8c0,0.5-0.4,0.9-0.9,0.9
				c-0.5,0-0.9-0.4-0.9-0.9C396.3,70.9,395.3,69.7,394.1,69.7L394.1,69.7z M397.2,80.2c-0.1,0-0.3,0-0.4-0.1
				c-0.3-0.1-6.2-3.3-6.7-7.6c-0.1-1.2,0.2-2.3,1-3.2c0.8-0.9,1.9-1.4,2.9-1.4c1.3,0,2.4,0.7,3.1,1.7c0.7-1,1.9-1.7,3.1-1.7
				c1.1,0,2.2,0.5,2.9,1.4c0.8,0.9,1.2,2.1,1,3.2c-0.5,4.3-6.5,7.5-6.7,7.6C397.5,80.2,397.3,80.2,397.2,80.2L397.2,80.2z"/>
			<path class="st112" d="M350.7,79.8h5V53.8c0-0.5,0.4-0.9,0.9-0.9h32.8v-5.9h-38.7V79.8L350.7,79.8z M356.5,81.5h-6.7
				c-0.5,0-0.9-0.4-0.9-0.9V46.2c0-0.5,0.4-0.9,0.9-0.9h40.4c0.5,0,0.9,0.4,0.9,0.9v7.6c0,0.5-0.4,0.9-0.9,0.9h-32.8v25.9
				C357.4,81.1,357,81.5,356.5,81.5L356.5,81.5z"/>
			<path class="st112" d="M357.4,90.4h7.6V62.1c0-0.5,0.4-0.9,0.9-0.9h33.6v-6.6h-42.1V90.4L357.4,90.4z M365.9,92.2h-9.4
				c-0.5,0-0.9-0.4-0.9-0.9V53.8c0-0.5,0.4-0.9,0.9-0.9h43.8c0.5,0,0.9,0.4,0.9,0.9v8.3c0,0.5-0.4,0.9-0.9,0.9h-33.6v28.3
				C366.8,91.8,366.4,92.2,365.9,92.2L365.9,92.2z"/>
			<path class="st112" d="M366.8,103.5h40.5V63h-40.5V103.5L366.8,103.5z M408.1,105.2h-42.2c-0.5,0-0.9-0.4-0.9-0.9V62.1
				c0-0.5,0.4-0.9,0.9-0.9h42.2c0.5,0,0.9,0.4,0.9,0.9v42.2C409,104.9,408.6,105.2,408.1,105.2L408.1,105.2z"/>
			<path class="st112" d="M372.8,90.2h12.5v-2.2h-12.5V90.2L372.8,90.2z M386.1,92H372c-0.5,0-0.9-0.4-0.9-0.9v-3.9
				c0-0.5,0.4-0.9,0.9-0.9h14.2c0.5,0,0.9,0.4,0.9,0.9v3.9C387,91.6,386.6,92,386.1,92L386.1,92z"/>
			<path class="st112" d="M372.8,99.1h12.5v-2.2h-12.5V99.1L372.8,99.1z M386.1,100.8H372c-0.5,0-0.9-0.4-0.9-0.9V96
				c0-0.5,0.4-0.9,0.9-0.9h14.2c0.5,0,0.9,0.4,0.9,0.9v3.9C387,100.4,386.6,100.8,386.1,100.8L386.1,100.8z"/>
			<path class="st112" d="M391,90.3h12.5v-2.2H391V90.3L391,90.3z M404.3,92h-14.2c-0.5,0-0.9-0.4-0.9-0.9v-3.9
				c0-0.5,0.4-0.9,0.9-0.9h14.2c0.5,0,0.9,0.4,0.9,0.9v3.9C405.2,91.6,404.8,92,404.3,92L404.3,92z"/>
			<path class="st112" d="M391,99.1h12.5v-2.2H391V99.1L391,99.1z M404.3,100.8h-14.2c-0.5,0-0.9-0.4-0.9-0.9V96
				c0-0.5,0.4-0.9,0.9-0.9h14.2c0.5,0,0.9,0.4,0.9,0.9v3.9C405.2,100.4,404.8,100.8,404.3,100.8L404.3,100.8z"/>
			<path class="st112" d="M378.8,78.2c0.1,0,0.3,0,0.4,0.1l3.4,1.8l-0.7-3.8c0-0.3,0-0.6,0.2-0.8l2.8-2.7l-3.8-0.6
				c-0.3,0-0.5-0.2-0.6-0.5l-1.7-3.5l-1.7,3.5c-0.1,0.3-0.4,0.4-0.6,0.5l-3.8,0.6l2.8,2.7c0.2,0.2,0.3,0.5,0.2,0.8l-0.7,3.8l3.4-1.8
				C378.5,78.3,378.6,78.2,378.8,78.2L378.8,78.2z M373.8,82.6c-0.2,0-0.4-0.1-0.5-0.2c-0.3-0.2-0.4-0.5-0.3-0.8l0.9-5.1l-3.7-3.6
				c-0.2-0.2-0.3-0.6-0.2-0.9c0.1-0.3,0.4-0.5,0.7-0.6l5.1-0.7l2.3-4.6c0.1-0.3,0.4-0.5,0.8-0.5c0.3,0,0.6,0.2,0.8,0.5l2.3,4.6
				l5.1,0.7c0.3,0.1,0.6,0.3,0.7,0.6c0.1,0.3,0,0.7-0.2,0.9l-3.7,3.6l0.9,5.1c0.1,0.3-0.1,0.6-0.3,0.8c-0.3,0.2-0.6,0.2-0.9,0.1
				l-4.6-2.4l-4.6,2.4C374.1,82.5,373.9,82.6,373.8,82.6L373.8,82.6z"/>
			<path class="st112" d="M458.4,93.2L458.4,93.2L458.4,93.2L458.4,93.2z M441,96H457l-0.3-2.7l0-0.1c0-0.6-0.5-1.2-1.2-1.2h-4.8
				c-0.5,0-0.9-0.4-0.9-0.9v-2.4c0-0.3,0.2-0.6,0.4-0.7c1.3-0.8,2.2-2.6,2.2-4.7c0-0.3,0-0.6-0.1-0.9c-0.1-0.5-0.2-0.9-0.3-1.3
				c-0.6-1.7-1.8-2.8-3.1-2.8c-1.3,0-2.5,1.1-3.1,2.8c-0.2,0.6-0.3,1.1-0.4,1.7c0,0.2,0,0.3,0,0.5c0,2.1,0.9,3.9,2.2,4.7
				c0.3,0.1,0.4,0.4,0.4,0.7v2.4c0,0.5-0.4,0.9-0.9,0.9h-4.8c-0.6,0-1.2,0.5-1.2,1.2l0,0.1L441,96L441,96z M458,97.7h-18
				c-0.2,0-0.5-0.1-0.6-0.3c-0.2-0.2-0.2-0.4-0.2-0.7l0.4-3.6c0-1.6,1.3-2.8,2.9-2.8h4v-1.1c-1.6-1.2-2.7-3.4-2.7-5.9
				c0-0.2,0-0.4,0-0.6c0.1-0.7,0.2-1.5,0.4-2.2c0.8-2.4,2.7-4,4.7-4c2,0,3.9,1.6,4.7,4c0.2,0.5,0.3,1.1,0.4,1.7
				c0.1,0.4,0.1,0.8,0.1,1.1c0,2.4-1,4.6-2.6,5.8v1.1h4c1.6,0,2.9,1.3,2.9,2.8l0.4,3.6c0,0.2-0.1,0.5-0.2,0.7
				C458.5,97.6,458.2,97.7,458,97.7L458,97.7z"/>
			<path class="st112" d="M431.9,70.5c-2.2,0-4.1,1.8-4.1,4.1v26c0,2.2,1.8,4.1,4.1,4.1h47.4c2.2,0,4.1-1.8,4.1-4.1v-26
				c0-2.2-1.8-4.1-4.1-4.1H431.9L431.9,70.5z M479.3,106.4h-47.4c-3.2,0-5.8-2.6-5.8-5.8v-26c0-3.2,2.6-5.8,5.8-5.8h47.4
				c3.2,0,5.8,2.6,5.8,5.8v26C485.1,103.8,482.5,106.4,479.3,106.4L479.3,106.4z"/>
			<path class="st112" d="M446.7,68.8h19.4V65h-19.4V68.8L446.7,68.8z M466.9,70.5h-21.1c-0.5,0-0.9-0.4-0.9-0.9v-5.5
				c0-0.5,0.4-0.9,0.9-0.9h21.1c0.5,0,0.9,0.4,0.9,0.9v5.5C467.8,70.1,467.4,70.5,466.9,70.5L466.9,70.5z"/>
			<path class="st112" d="M434.4,99.8h29.6V74.9h-29.6V99.8L434.4,99.8z M464.9,101.5h-31.4c-0.5,0-0.9-0.4-0.9-0.9V74
				c0-0.5,0.4-0.9,0.9-0.9h31.4c0.5,0,0.9,0.4,0.9,0.9v26.7C465.8,101.2,465.4,101.5,464.9,101.5L464.9,101.5z"/>
			<path class="st112" d="M474.3,74.5c-1.6,0-2.9,1.3-2.9,2.9c0,1.6,1.3,2.9,2.9,2.9c1.6,0,2.9-1.3,2.9-2.9
				C477.2,75.8,475.9,74.5,474.3,74.5L474.3,74.5z M474.3,82.1c-2.6,0-4.6-2.1-4.6-4.6c0-2.6,2.1-4.6,4.6-4.6c2.6,0,4.6,2.1,4.6,4.6
				C478.9,80,476.9,82.1,474.3,82.1L474.3,82.1z"/>
			<path class="st112" d="M469.1,89.8h2.8V87h-2.8V89.8L469.1,89.8z M472.8,91.5h-4.5c-0.5,0-0.9-0.4-0.9-0.9v-4.5
				c0-0.5,0.4-0.9,0.9-0.9h4.5c0.5,0,0.9,0.4,0.9,0.9v4.5C473.6,91.1,473.2,91.5,472.8,91.5L472.8,91.5z"/>
			<path class="st112" d="M469.1,97.4h2.8v-2.8h-2.8V97.4L469.1,97.4z M472.8,99.1h-4.5c-0.5,0-0.9-0.4-0.9-0.9v-4.5
				c0-0.5,0.4-0.9,0.9-0.9h4.5c0.5,0,0.9,0.4,0.9,0.9v4.5C473.6,98.7,473.2,99.1,472.8,99.1L472.8,99.1z"/>
			<path class="st112" d="M476.7,89.8h2.8V87h-2.8V89.8L476.7,89.8z M480.3,91.5h-4.5c-0.5,0-0.9-0.4-0.9-0.9v-4.5
				c0-0.5,0.4-0.9,0.9-0.9h4.5c0.5,0,0.9,0.4,0.9,0.9v4.5C481.2,91.1,480.8,91.5,480.3,91.5L480.3,91.5z"/>
			<path class="st112" d="M476.7,97.4h2.8v-2.8h-2.8V97.4L476.7,97.4z M480.3,99.1h-4.5c-0.5,0-0.9-0.4-0.9-0.9v-4.5
				c0-0.5,0.4-0.9,0.9-0.9h4.5c0.5,0,0.9,0.4,0.9,0.9v4.5C481.2,98.7,480.8,99.1,480.3,99.1L480.3,99.1z"/>
			<path class="st112" d="M470.1,120.6h5.3l-8.1-14.2H462L470.1,120.6L470.1,120.6z M477,122.3h-7.3c-0.3,0-0.6-0.2-0.7-0.4
				l-9.1-15.9c-0.2-0.3-0.2-0.6,0-0.9c0.2-0.3,0.4-0.4,0.7-0.4h7.3c0.3,0,0.6,0.2,0.7,0.4l9.1,15.9c0.2,0.3,0.1,0.6,0,0.9
				C477.5,122.2,477.3,122.3,477,122.3L477,122.3z"/>
			<path class="st112" d="M436.7,120.6h5.3l8.1-14.2h-5.3L436.7,120.6L436.7,120.6z M442.5,122.3h-7.3c-0.3,0-0.6-0.2-0.7-0.4
				c-0.2-0.3-0.2-0.6,0-0.9l9.1-15.9c0.2-0.3,0.4-0.4,0.7-0.4h7.3c0.3,0,0.6,0.2,0.7,0.4c0.2,0.3,0.2,0.6,0,0.9l-9.1,15.9
				C443.1,122.1,442.8,122.3,442.5,122.3L442.5,122.3z"/>
			<path class="st112" d="M274.9,85.3L274.9,85.3L274.9,85.3L274.9,85.3z M240,48c-0.1,0-0.2,0-0.3,0l-12,1.6
				c-0.8,0.1-1.5,0.8-1.6,1.6l-1.6,12c-0.1,0.7,0.2,1.5,0.7,2l32.6,32.6c0.5,0.5,1.1,0.7,1.7,0.7c0.6,0,1.2-0.2,1.7-0.7l13.1-13.1
				c0.9-0.9,0.9-2.4,0-3.4l-32.6-32.6C241.2,48.3,240.6,48,240,48L240,48z M259.5,100.2c-1.1,0-2.1-0.4-2.9-1.2L224,66.4
				c-0.9-0.9-1.3-2.2-1.2-3.4l1.6-12c0.2-1.6,1.5-2.9,3.1-3.1l12-1.6c1.3-0.2,2.5,0.3,3.4,1.2l32.6,32.6c1.6,1.6,1.6,4.2,0,5.8
				L262.4,99C261.6,99.8,260.6,100.2,259.5,100.2L259.5,100.2z"/>
			<path class="st112" d="M232.6,54c-0.6,0-1.2,0.2-1.6,0.7c-0.9,0.9-0.9,2.3,0,3.2c0.9,0.9,2.3,0.9,3.2,0c0.9-0.9,0.9-2.3,0-3.2
				C233.7,54.2,233.2,54,232.6,54L232.6,54z M232.6,60.2c-1.1,0-2.1-0.4-2.8-1.2c-1.5-1.5-1.5-4.1,0-5.6c1.5-1.5,4.1-1.5,5.6,0
				c1.5,1.5,1.5,4.1,0,5.6C234.6,59.8,233.7,60.2,232.6,60.2L232.6,60.2z"/>
			<path class="st112" d="M243.1,74.9c-0.2,0-0.4-0.1-0.6-0.3c-0.3-0.3-0.3-0.9,0-1.2l7.2-7.2c0.3-0.3,0.9-0.3,1.2,0
				c0.3,0.3,0.3,0.9,0,1.2l-7.2,7.2C243.6,74.8,243.4,74.9,243.1,74.9L243.1,74.9z"/>
			<path class="st112" d="M248.5,80c-0.2,0-0.4-0.1-0.6-0.3c-0.3-0.3-0.3-0.9,0-1.2l7.2-7.2c0.3-0.3,0.9-0.3,1.2,0
				c0.3,0.3,0.3,0.9,0,1.2l-7.2,7.2C248.9,79.9,248.7,80,248.5,80L248.5,80z"/>
			<path class="st112" d="M253.8,85.2c-0.2,0-0.4-0.1-0.6-0.3c-0.3-0.3-0.3-0.9,0-1.2l7.2-7.2c0.3-0.3,0.9-0.3,1.2,0
				c0.3,0.3,0.3,0.9,0,1.2l-7.2,7.2C254.2,85.1,254,85.2,253.8,85.2L253.8,85.2z"/>
			<path class="st112" d="M232.3,56.8c-0.2,0-0.4-0.1-0.6-0.3L218,42.8c-0.3-0.3-0.3-0.9,0-1.2c0.3-0.3,0.9-0.3,1.2,0l13.7,13.7
				c0.3,0.3,0.3,0.9,0,1.2C232.7,56.7,232.5,56.8,232.3,56.8L232.3,56.8z"/>
			<path class="st112" d="M394.9-2.5c-4.3,0-8.3,1.7-11.3,4.7c-3,3-4.7,7-4.7,11.3c0,4.3,1.7,8.3,4.7,11.3c4.9,4.9,12.3,6.1,18.4,3
				c1.5-0.8,2.9-1.8,4.1-3c1.2-1.2,2.2-2.6,3-4.1c3.1-6.2,1.9-13.6-3-18.4C403.2-0.8,399.1-2.5,394.9-2.5L394.9-2.5z M394.9,31.1
				c-4.6,0-9.1-1.8-12.5-5.2c-6.9-6.9-6.9-18.1,0-25c3.3-3.3,7.8-5.2,12.5-5.2c4.7,0,9.2,1.8,12.5,5.2c5.4,5.4,6.7,13.6,3.3,20.4
				c-0.8,1.7-2,3.2-3.3,4.6c-1.3,1.3-2.9,2.4-4.6,3.3C400.3,30.5,397.6,31.1,394.9,31.1L394.9,31.1z"/>
			<path class="st112" d="M406.4,31.2l17.4,17.4c0.8,0.8,1.9,1.3,3.1,1.3c1.2,0,2.3-0.5,3.1-1.3c1.7-1.7,1.7-4.5,0-6.3l-17.4-17.4
				c-0.8,1.3-1.7,2.4-2.8,3.5C408.8,29.4,407.6,30.4,406.4,31.2L406.4,31.2z M426.9,51.6c-1.6,0-3.2-0.6-4.3-1.8l-18.2-18.2
				c-0.2-0.2-0.3-0.5-0.2-0.7c0-0.3,0.2-0.5,0.4-0.6c1.5-0.9,2.9-1.9,4.1-3.1c1.2-1.2,2.3-2.6,3.1-4.1c0.1-0.2,0.4-0.4,0.6-0.4
				c0.3,0,0.5,0.1,0.7,0.2l18.2,18.2c2.4,2.4,2.4,6.3,0,8.7C430.1,51,428.5,51.6,426.9,51.6L426.9,51.6z"/>
			<path class="st112" d="M394.9-2.5c-4.3,0-8.3,1.7-11.3,4.7c-6.2,6.2-6.2,16.3,0,22.5c4.9,4.9,12.3,6.1,18.4,3
				c1.5-0.8,2.9-1.8,4.1-3c1.2-1.2,2.2-2.6,3-4.1c3.1-6.2,1.9-13.6-3-18.4C403.2-0.8,399.1-2.5,394.9-2.5L394.9-2.5z M394.9,31.1
				c-4.6,0-9.1-1.8-12.5-5.2c-6.9-6.9-6.9-18.1,0-25c3.3-3.3,7.8-5.2,12.5-5.2c4.7,0,9.2,1.8,12.5,5.2c5.4,5.4,6.7,13.6,3.3,20.4
				c-0.8,1.7-2,3.2-3.3,4.6c-1.3,1.3-2.9,2.4-4.6,3.3C400.3,30.5,397.6,31.1,394.9,31.1L394.9,31.1z M394.9-6c-5,0-9.9,1.9-13.7,5.7
				c-7.6,7.6-7.6,19.9,0,27.4c6.2,6.2,15.8,7.5,23.4,3.1c1.5-0.9,2.9-1.9,4.1-3.1c1.2-1.2,2.3-2.6,3.1-4.1
				c4.4-7.6,3.1-17.2-3.1-23.4C404.8-4.1,399.9-6,394.9-6L394.9-6z M394.9,34.6c-5.5,0-10.9-2.1-15-6.2c-8.2-8.2-8.2-21.6,0-29.9
				c8.2-8.2,21.6-8.2,29.9,0c6.7,6.7,8.1,17.2,3.4,25.5c-0.9,1.6-2.1,3.1-3.4,4.4c-1.3,1.3-2.8,2.4-4.4,3.4
				C402.1,33.6,398.5,34.6,394.9,34.6L394.9,34.6z"/>
			<path class="st112" d="M412.4,31.8c-0.1,0-0.2,0-0.3-0.1c-0.1,0-0.2-0.1-0.3-0.2c-0.2-0.2-0.3-0.4-0.3-0.6c0-0.2,0.1-0.4,0.3-0.6
				c0.3-0.3,0.9-0.3,1.2,0c0.2,0.2,0.3,0.4,0.3,0.6c0,0.2-0.1,0.4-0.3,0.6C412.8,31.7,412.6,31.8,412.4,31.8L412.4,31.8z"/>
		</g>
		<g style="clip-path:url(#SVGID_1_);">
			<path class="st14" d="M104.8,76.2l0-19.9l-8.4,17.1h-2.9l-8.4-17.1v19.9h-4.2V49.6h5.3L95,67.2l8.7-17.7h5.3v26.6H104.8z"/>
			<path class="st14" d="M119.8,70.2l-2.5,6h-4.7l11.7-26.6h4.6l11.6,26.6h-4.8l-2.5-6H119.8z M126.5,54.4l-5,11.8h10L126.5,54.4z"
				/>
			<path class="st14" d="M156.1,68.1c-0.4,0-0.8,0-1.2,0h-6.3v8h-4.5V49.6h10.8c6.8,0,10.7,3.3,10.7,9.1c0,4.3-2,7.3-5.5,8.6l6,8.9
				h-5.1L156.1,68.1z M154.8,64.1c4.1,0,6.5-1.7,6.5-5.4c0-3.5-2.4-5.2-6.5-5.2h-6.3v10.5H154.8z"/>
			<path class="st14" d="M180.5,64.4l-4.5,5v6.8h-4.5V49.6h4.5v13.8l12.7-13.8h5.3l-10.3,11.4l11,15.2h-5.4L180.5,64.4z"/>
			<path class="st14" d="M203.3,53.6v7.2h13v4h-13v7.3h15v4h-19.5V49.6h19v4H203.3z"/>
			<path class="st14" d="M233.5,53.6v22.6H229V53.6h-8.4v-4h21.3v4H233.5z"/>
			<path class="st14" d="M245.7,76.2V49.6h4.5v26.6H245.7z"/>
			<path class="st14" d="M275.9,76.2l-14.2-19.1v19.1h-4.5V49.6h4.4l14.2,19.1V49.6h4.4v26.6H275.9z"/>
			<path class="st14" d="M309.4,63.1v9.8c-2.7,2.1-6.7,3.5-10.3,3.5c-7.9,0-14-5.9-14-13.5s6.2-13.4,14.2-13.4
				c3.8,0,7.6,1.4,10.2,3.7l-2.5,3.3c-2.1-1.9-4.9-3-7.7-3c-5.4,0-9.7,4.1-9.7,9.4c0,5.3,4.3,9.5,9.7,9.5c2,0,4.2-0.7,6.1-1.8v-7.4
				H309.4z"/>
			<path class="st14" d="M340.6,72.8c-2.4,2.2-5.1,3.5-8,3.5c-4.7,0-8.4-3.2-8.4-7.4c0-3.8,2.7-5.8,5.7-7.4
				c-1.7-2.4-2.5-4.3-2.5-6.2c0-3.5,2.8-6,6.9-6c4,0,6.7,2.3,6.7,5.6c0,3.6-3.2,5.5-6.5,7.3c1.4,1.6,3.3,3.5,5.6,5.8
				c0.9-1.4,1.7-3,2.4-4.8l2.8,2.1c-0.8,1.9-1.7,3.6-2.8,5.1l4.3,4.2l-2.2,2.3L340.6,72.8z M338.2,70.5c-2.7-2.7-4.8-4.8-6.5-6.7
				c-2.2,1.3-3.9,2.7-3.9,4.8c0,2.7,2.2,4.5,4.9,4.5C334.7,73,336.6,72.1,338.2,70.5z M332.9,60.1c2.6-1.3,4.7-2.7,4.7-5.1
				c0-1.7-1.3-2.9-3.2-2.9c-2.1,0-3.5,1.4-3.5,3.2C330.9,56.7,331.5,58.2,332.9,60.1z"/>
			<path class="st14" d="M378.6,52.1l-1.9,4c-2.9-1.7-5.8-2.5-7.8-2.5c-2.6,0-4.3,1-4.3,2.8c0,5.8,14.4,2.7,14.3,12.3
				c0,4.7-4.2,7.7-10,7.7c-4.2,0-8.1-1.7-10.9-4.2l1.9-3.9c2.7,2.5,6.2,3.9,9,3.9c3.1,0,5-1.2,5-3.2c0-5.9-14.4-2.6-14.4-12.1
				c0-4.6,3.9-7.4,9.7-7.4C372.8,49.4,376.2,50.5,378.6,52.1z"/>
			<path class="st14" d="M388.7,53.6v7.2h13v4h-13v7.3h15v4h-19.5V49.6h19v4H388.7z"/>
			<path class="st14" d="M435.1,62.9c0,7.6-6.2,13.5-14.1,13.5s-14.1-5.9-14.1-13.5c0-7.6,6.2-13.4,14.1-13.4S435.1,55.3,435.1,62.9
				z M411.5,62.9c0,5.3,4.4,9.5,9.6,9.5s9.5-4.2,9.5-9.5s-4.3-9.4-9.5-9.4C415.8,53.5,411.5,57.6,411.5,62.9z"/>
		</g>
	</g>
</g>
</svg>
