<?xml version="1.0" encoding="utf-8"?>
<!-- Generator: Adobe Illustrator 22.0.1, SVG Export Plug-In . SVG Version: 6.00 Build 0)  -->
<svg version="1.1" xmlns="http://www.w3.org/2000/svg" xmlns:xlink="http://www.w3.org/1999/xlink" x="0px" y="0px"
	 viewBox="0 0 400 400" style="enable-background:new 0 0 400 400;" xml:space="preserve">
<style type="text/css">
	.st0{fill:#80E4FF;}
	.st1{display:none;}
	.st2{display:inline;}
	.st3{fill:none;stroke:#80E4FF;stroke-width:20;stroke-linecap:round;stroke-linejoin:round;stroke-miterlimit:10;}
	.st4{fill:none;stroke:#33CCFF;stroke-width:20;stroke-linecap:round;stroke-linejoin:round;stroke-miterlimit:10;}
	.st5{fill:none;stroke:#000000;stroke-miterlimit:10;}
	.st6{fill:none;stroke:#80E4FF;stroke-width:10;stroke-linecap:round;stroke-linejoin:round;stroke-miterlimit:10;}
	.st7{fill:#33CCFF;}
	.st8{fill:none;stroke:#80E4FF;stroke-width:20;stroke-linecap:round;stroke-miterlimit:10;}
	.st9{fill:none;stroke:#33CCFF;stroke-width:10;stroke-linecap:round;stroke-linejoin:round;stroke-miterlimit:10;}
	.st10{fill:none;stroke:#000000;stroke-width:20;stroke-linecap:round;stroke-linejoin:round;stroke-miterlimit:10;}
	.st11{fill:none;stroke:#B3B3B3;stroke-width:20;stroke-linecap:round;stroke-miterlimit:10;}
	.st12{fill:none;stroke:#B3B3B3;stroke-width:20;stroke-linecap:round;stroke-linejoin:bevel;stroke-miterlimit:10;}
	.st13{fill:none;stroke:#33CCFF;stroke-width:20;stroke-miterlimit:10;}
	.st14{fill:none;stroke:#80E4FF;stroke-width:15.4098;stroke-linecap:round;stroke-linejoin:round;stroke-miterlimit:10;}
	.st15{fill:none;stroke:#80E4FF;stroke-width:14.2609;stroke-linecap:round;stroke-linejoin:round;stroke-miterlimit:10;}
	.st16{fill:#80E4FF;stroke:#33CCFF;stroke-width:20;stroke-miterlimit:10;}
	.st17{fill:none;}
	.st18{fill:none;stroke:#33CCFF;stroke-width:20;stroke-linecap:round;stroke-miterlimit:10;}
	.st19{fill:none;stroke:#33CCFF;stroke-width:17.3894;stroke-linecap:round;stroke-miterlimit:10;}
</style>
<g id="FILL">
</g>
<g id="Inspo" class="st1">
</g>
<g id="Lighter_Lines">
</g>
<g id="Heavier_Lines">
</g>
<g id="Palette">
	<path class="st18" d="M219,263c13,7,47.6,11,55,2l35-34c6.1-7.3,22-10,29.7-1.1l1.2,0.9c8.9,6.6,10.4,19.4,3.3,28L302,308
		c-2.2,2.6-4.9,4.7-8,6.2l-80.5,39c-9.3,4.5-20.1,5.2-29.9,1.9L69.9,317"/>
	<path class="st18" d="M35.4,266.6c0,0,40.8-43.6,103.5-28.5s103.4,35.1,103.4,35.1s18.8,13.2,7.5,30.7
		c-11.3,17.5-76.5-7.5-76.5-7.5"/>
	<circle class="st13" cx="206.9" cy="131.2" r="92.8"/>
	<g>
		<path class="st7" d="M232,158c-2,1.5-3.9,3.2-5.7,4.9c0,0,0,0-0.1,0.1c-0.4,0.4-0.8,0.8-1.2,1.2c-0.9,0.9-1.7,1.8-2.5,2.7
			c-0.9,1.2-1.8,2.4-2.8,3.5c-7.6,8.9-17.7,15.5-29.2,18.9c5.2,1.5,10.9,2.2,17,2.3c0.1,0,0.3,0,0.4,0c0.6,0,1.3,0,1.9,0
			c6.5-0.2,12.4-1.2,17.9-3.2c6-2.2,11.2-5.3,15.7-9.5c4.5-4.1,8.1-9.1,10.8-15c2.4-5.2,4-11,4.8-17.4
			C248.9,148,239.7,152.1,232,158z"/>
		<path class="st7" d="M252.6,93.5c-1.5-2.6-3.2-5.1-5.1-7.3c-1.9-2.2-3.9-4.1-6.1-5.9c-4.5-3.5-9.6-6.2-15.4-8.1
			c-5.7-1.9-11.8-2.8-18.2-2.8c-8.9,0-17,1.6-24.1,4.7c-3.5,1.6-6.8,3.4-9.8,5.6c0,0,0,0,0,0c-0.2,0.1-0.3,0.3-0.5,0.4
			c-0.2,0.1-0.4,0.3-0.6,0.4c-0.4,0.3-0.8,0.6-1.2,1c-0.2,0.2-0.4,0.3-0.6,0.5c-0.4,0.3-0.8,0.7-1.2,1.1c-0.2,0.1-0.3,0.3-0.5,0.4
			c-0.5,0.5-1.1,1-1.6,1.6c0,0-0.1,0.1-0.1,0.1c-0.6,0.7-1.3,1.3-1.9,2c-0.5,0.6-1,1.2-1.5,1.7c-0.2,0.2-0.3,0.4-0.5,0.6l0,0v0
			c-4,5-7.1,10.7-9.3,17.2c-2.6,7.5-3.9,15.5-3.9,24.3c0,8.5,1.3,16.4,3.9,23.8c2.6,7.4,6.4,13.7,11.3,19.2c2.5,2.8,5.3,5.3,8.4,7.4
			c13-0.2,24.9-4.3,34.7-11.4c-0.3,0-0.7,0-1,0c-5.8,0-10.7-1.1-14.7-3.3c-4-2.2-7.3-5.2-9.8-8.9c-2.5-3.7-4.3-7.9-5.5-12.5
			c-1.1-4.6-1.7-9.4-1.7-14.3c0-5.1,0.6-10.1,1.7-14.9c0.6-2.7,1.5-5.2,2.6-7.5c0.2-0.5,0.4-0.9,0.6-1.4c0,0,0-0.1,0-0.1
			c0.2-0.4,0.4-0.8,0.6-1.2c0.1-0.1,0.1-0.2,0.2-0.4c0.2-0.3,0.4-0.6,0.5-0.9c0.3-0.4,0.5-0.9,0.8-1.3c2.5-3.8,5.8-6.8,9.8-9
			c4-2.2,8.9-3.3,14.7-3.3c0.3,0,0.5,0,0.8,0v0c2.9,0.1,5.6,0.6,8.3,1.5c2.9,1,5.5,2.5,7.8,4.3c2.3,1.9,4.2,4,5.7,6.5l0,0
			c0,0,0,0,0,0.1c3,4.9,8.3,8,14,8h13.7C257.4,104.7,255.6,98.7,252.6,93.5z"/>
	</g>
</g>
</svg>
