<?xml version="1.0" encoding="utf-8"?>
<!-- Generator: Adobe Illustrator 22.0.1, SVG Export Plug-In . SVG Version: 6.00 Build 0)  -->
<svg version="1.1" id="Layer_1" xmlns="http://www.w3.org/2000/svg" xmlns:xlink="http://www.w3.org/1999/xlink" x="0px" y="0px"
	 viewBox="0 0 400 400" style="enable-background:new 0 0 400 400;" xml:space="preserve">
<style type="text/css">
	.st0{fill:none;stroke:#8DD7F2;stroke-width:14.2609;stroke-linecap:round;stroke-linejoin:round;stroke-miterlimit:10;}
	.st1{fill:none;stroke:#47C8F5;stroke-width:20;stroke-linecap:round;stroke-miterlimit:10;}
	.st2{fill:none;stroke:#8DD7F2;stroke-width:15.4098;stroke-linecap:round;stroke-linejoin:round;stroke-miterlimit:10;}
	.st3{fill:#47C8F5;}
	.st4{fill:none;stroke:#47C8F5;stroke-width:20;stroke-miterlimit:10;}
	.st5{fill:none;stroke:#47C8F5;stroke-width:15;stroke-linecap:round;stroke-miterlimit:10;}
	.st6{fill:none;stroke:#47C8F5;stroke-width:10;stroke-linecap:round;stroke-miterlimit:10;}
	.st7{fill:none;stroke:#47C8F5;stroke-width:20;stroke-linecap:round;stroke-linejoin:round;stroke-miterlimit:10;}
	.st8{fill:none;stroke:#47C8F5;stroke-width:22.4476;stroke-linecap:round;stroke-linejoin:round;stroke-miterlimit:10;}
	.st9{fill:none;stroke:#47C8F5;stroke-miterlimit:10;}
	.st10{fill:none;stroke:#47C8F5;stroke-width:10;stroke-linecap:round;stroke-linejoin:round;stroke-miterlimit:10;}
</style>
<g>
	<path class="st6" d="M341.7,105l21.8-31.2c7.5,2.1,15,1,20-3.9l-38.4-39.5c-5,4.9-6.4,12.3-4.5,19.9l-31.8,20.9
		c-9.8-4.5-18.8-4.8-23.9,0.1l55.9,57.6C346,124,345.9,114.9,341.7,105z"/>
	<line class="st6" x1="276.6" y1="135.4" x2="312.4" y2="100.6"/>
</g>
<g>
	<path class="st7" d="M50.1,130.5c-45.3,5.4-38.4,62.9-38.4,62.9l86.2-10.3"/>
	<g>
		<path class="st7" d="M329,351.5c37.3-4.5,48-26.9,44.4-56.6l-153.6,18.4c3.5,29.5-7,51.9-44,56.5L329,351.5z"/>
		<path class="st7" d="M175.4,369.9c-37.3,4.5-40.8-25.2-40.8-25.2L115,181c0,0-2.5-58-59.5-51.2l153.6-18.4
			c57.1-6.8,59.5,51.2,59.5,51.2l17.1,142.6"/>
		<line class="st7" x1="156.6" y1="200.8" x2="236.5" y2="191.2"/>
		<line class="st7" x1="161.8" y1="244.5" x2="241.7" y2="235"/>
		<line class="st7" x1="167" y1="288.3" x2="220.2" y2="282"/>
	</g>
</g>
</svg>
