<?xml version="1.0" encoding="utf-8"?>
<!-- Generator: Adobe Illustrator 22.1.0, SVG Export Plug-In . SVG Version: 6.00 Build 0)  -->
<svg version="1.1" id="Layer_1" xmlns="http://www.w3.org/2000/svg" xmlns:xlink="http://www.w3.org/1999/xlink" x="0px" y="0px"
	 viewBox="0 0 451 189.6" style="enable-background:new 0 0 451 189.6;" xml:space="preserve">
<style type="text/css">
	.st0{fill:url(#SVGID_1_);}
	.st1{fill:url(#SVGID_2_);}
	.st2{fill:#0786C1;}
	.st3{fill:#46C8F5;}
	.st4{fill:#FFFFFF;}
</style>
<g>
	<linearGradient id="SVGID_1_" gradientUnits="userSpaceOnUse" x1="290.8948" y1="75.0882" x2="451.0268" y2="75.0882">
		<stop  offset="0" style="stop-color:#0678BE"/>
		<stop  offset="0.9949" style="stop-color:#46C8F5"/>
	</linearGradient>
	<polygon class="st0" points="349.5,110.1 451,110.1 425.8,75.1 451,40 290.9,40 349.5,110.1 	"/>
	<linearGradient id="SVGID_2_" gradientUnits="userSpaceOnUse" x1="172.9259" y1="75.0882" x2="0" y2="75.0882">
		<stop  offset="0" style="stop-color:#0678BE"/>
		<stop  offset="0.9949" style="stop-color:#46C8F5"/>
	</linearGradient>
	<polygon class="st1" points="101.5,110.1 0,110.1 25.2,75.1 0,40 172.9,40 101.5,110.1 	"/>
	<polygon class="st2" points="334.9,110.1 368.1,129.9 368.1,59.8 286.9,40 329.5,104.5 	"/>
	<polygon class="st2" points="133.3,110.1 82.7,129.9 82.7,59.8 170.6,40 144,110.1 	"/>
	<polygon class="st3" points="225.7,8.4 240.7,0 252.4,12.6 269.3,9.3 276.5,24.9 293.6,26.9 295.6,44 311.2,51.2 307.9,68.1 
		320.5,79.8 312.1,94.8 320.5,109.8 307.9,121.5 311.2,138.4 295.6,145.6 293.6,162.7 276.5,164.7 269.3,180.3 252.4,177 
		240.7,189.6 225.7,181.2 210.7,189.6 199,177 182.1,180.3 174.9,164.7 157.8,162.7 155.8,145.6 140.2,138.4 143.6,121.5 
		130.9,109.8 139.3,94.8 130.9,79.8 143.6,68.1 140.2,51.2 155.8,44 157.8,26.9 174.9,24.9 182.1,9.3 199,12.6 210.7,0 225.7,8.4 	
		"/>
	<path class="st4" d="M293.9,94.8c0,37.7-30.5,68.2-68.2,68.2c-37.7,0-68.2-30.5-68.2-68.2c0-37.7,30.5-68.2,68.2-68.2
		C263.4,26.6,293.9,57.2,293.9,94.8L293.9,94.8z"/>
	<polygon class="st3" points="368.7,129.4 82.8,129.4 82.8,59.3 368.7,59.3 368.7,129.4 	"/>
	<g>
		<path class="st4" d="M119.4,75.4c9.5,0,15,4.7,15,12.9c0,8.5-5.5,13.5-15,13.5h-8.7v11.4h-6.4V75.4H119.4z M110.7,96.1h8.4
			c5.8,0,9.1-2.5,9.1-7.6c0-5-3.3-7.3-9.1-7.3h-8.4V96.1z"/>
		<path class="st4" d="M140.7,113.2V75.4h6.4v37.8H140.7z"/>
		<path class="st4" d="M193.9,94.3c0,10.8-8.7,19.2-20,19.2c-11.3,0-20-8.4-20-19.2c0-10.9,8.7-19.1,20-19.1
			C185.2,75.2,193.9,83.5,193.9,94.3z M160.3,94.3c0,7.5,6.2,13.4,13.6,13.4s13.4-5.9,13.4-13.4s-6-13.3-13.4-13.3
			C166.5,81,160.3,86.8,160.3,94.3z"/>
		<path class="st4" d="M227.2,113.2l-20.1-27.1v27.1h-6.4V75.4h6.3l20.3,27.2V75.4h6.3v37.8H227.2z"/>
		<path class="st4" d="M249.9,81.1v10.2h18.5V97h-18.5v10.4h21.3v5.7h-27.6V75.4h27v5.7H249.9z"/>
		<path class="st4" d="M285.3,81.1v10.2h18.5V97h-18.5v10.4h21.3v5.7h-27.6V75.4h27v5.7H285.3z"/>
		<path class="st4" d="M331.4,101.7c-0.5,0.1-1.1,0.1-1.7,0.1h-9v11.4h-6.4V75.4h15.3c9.7,0,15.2,4.7,15.2,12.9
			c0,6-2.8,10.3-7.8,12.3l8.5,12.6h-7.2L331.4,101.7z M329.7,96.1c5.8,0,9.2-2.5,9.2-7.6c0-5-3.3-7.3-9.2-7.3h-9v15H329.7z"/>
	</g>
</g>
</svg>
