<?xml version="1.0" encoding="utf-8"?>
<!-- Generator: Adobe Illustrator 22.1.0, SVG Export Plug-In . SVG Version: 6.00 Build 0)  -->
<svg version="1.1" xmlns="http://www.w3.org/2000/svg" xmlns:xlink="http://www.w3.org/1999/xlink" x="0px" y="0px"
	 viewBox="0 0 1200 1012.7" style="enable-background:new 0 0 1200 1012.7;" xml:space="preserve">
<style type="text/css">
	.st0{display:none;}
	.st1{display:inline;}
	.st2{display:inline;fill:url(#SVGID_1_);}
	.st3{display:inline;opacity:0.71;fill:none;stroke:#FFFFFF;stroke-width:3;stroke-miterlimit:10;}
	.st4{display:inline;opacity:0.71;fill:none;stroke:#FFFFFF;stroke-width:1.3287;stroke-miterlimit:10;}
	.st5{display:inline;fill:url(#SVGID_2_);}
	.st6{display:inline;fill:url(#SVGID_3_);}
	.st7{display:inline;fill:#485F64;}
	.st8{display:inline;fill:#F2F2F2;}
	.st9{opacity:0.3;}
	.st10{fill:#BC835C;}
	.st11{fill:#33CCFF;}
	.st12{fill:#FBC198;}
	.st13{fill:none;stroke:#CDD3D3;stroke-width:4.3015;stroke-miterlimit:10;}
	.st14{fill:#FFFFFF;}
	.st15{fill:url(#SVGID_4_);}
	.st16{opacity:0.1;fill:#33CCFF;}
	.st17{fill:#DD5050;}
	.st18{fill:#C5F3FF;}
	.st19{fill:#DEE0E0;}
	.st20{fill:#E2C59C;}
	.st21{fill:#3C5256;}
	.st22{fill:#485F64;}
	.st23{fill:url(#SVGID_5_);}
	.st24{fill:#FFC600;}
	.st25{fill:#AF734A;}
	.st26{fill:#D3D3D3;}
	.st27{fill:#F2B58C;}
	.st28{fill:#194866;}
	.st29{fill:#0078BF;}
	.st30{fill:url(#SVGID_6_);}
	.st31{fill:#FFC2E9;}
	.st32{fill:#F9A4D8;}
	.st33{fill:#C3C9C9;}
	.st34{fill:#4EDCCA;}
	.st35{fill:#006BA0;}
	.st36{fill:#FFDB7C;}
	.st37{fill:#C1C6C6;}
	.st38{fill:url(#SVGID_7_);}
	.st39{fill:#FF6666;}
	.st40{fill:#F59267;}
</style>
<g id="Layer_7" class="st0">
</g>
<g id="Layer_2">
</g>
<g id="Layer_4" class="st0">
	<circle class="st4" cx="461" cy="387" r="49.4"/>
	<circle class="st4" cx="538" cy="449" r="49.4"/>
	<circle class="st4" cx="551" cy="350" r="49.4"/>
	<circle class="st4" cx="474" cy="290" r="49.4"/>
	<circle class="st4" cx="74" cy="394" r="49.4"/>
	<circle class="st4" cx="151" cy="456" r="49.4"/>
	<circle class="st4" cx="164" cy="357" r="49.4"/>
	<circle class="st4" cx="86" cy="295" r="49.4"/>
	<circle class="st4" cx="59" cy="493" r="49.4"/>
</g>
<g id="Layer_5" class="st0">
	<circle class="st7" cx="1022" cy="773" r="324"/>
</g>
<g id="Layer_10">
</g>
<g id="Layer_6" class="st9">
</g>
<g id="Layer_12">
</g>
<g id="Layer_9">
</g>
<g id="Layer_1">
</g>
<g id="Layer_8">
</g>
<g id="Layer_11" class="st0">
</g>
<g id="Layer_3">
	<g>
		<polygon class="st16" points="1123.1,842.8 897.1,6 396.3,6 76.9,842.8 		"/>
	</g>
	<path class="st17" d="M771.5,284.3c-1.2-1.7-2.7-3.2-4.5-4.5c0.3-1.5,0.5-2.9,0.5-4.4c0-16.7-18.6-30.2-41.5-30.2
		c-22.9,0-41.5,13.5-41.5,30.2c0,13.9,12.9,25.6,30.4,29.1c-0.6,1.7-1,3.5-1,5.4c0,11.2,12.5,20.3,27.9,20.3
		c7.7,0,14.6-2.3,19.7-5.9c2.2,0.4,4.4,0.6,6.7,0.6c15.4,0,27.9-9.1,27.9-20.3C796,294,785.3,285.5,771.5,284.3z"/>
	<ellipse class="st18" cx="600" cy="842.8" rx="523.1" ry="116.2"/>
	<path class="st19" d="M401.3,828.8c1.1,1.2,0.3,4.4,0.3,4.4s-19.2,1.9-25.4,0.6c-1.6-0.3-4.3-1.6-6.9-2.9l-1.6-1.8
		c-0.8-0.4-1.2,0.3-1.8-0.1c-1.7-1-2.9-1.7-2.9-1.8c-1.7-8,0.6-11.2,0.6-11.2s16.4-4.9,19.4-1.5
		C390.2,822.5,398.9,826.1,401.3,828.8L401.3,828.8z"/>
	<path class="st19" d="M496.6,809.4l2.7,12.9h14.6c0,0,0.8-1.8,2-1.8c1,0,2.4,1.8,3.8,1.8c3.1,0,6.5,0,7.8,0c2.7,0,29.3,0,29.3,0
		s0.7-2.7-0.1-3.7c-0.4-0.5-2.9-1.3-4.5-1.7c-7.5-1.9-29.1-7.9-32.9-14.4C514.9,794.6,496.6,809.4,496.6,809.4L496.6,809.4z"/>
	<path class="st10" d="M508.9,413.5l98.6,25.9c0,0-56.5-45.9-89.3-48.3C485.3,388.6,508.9,413.5,508.9,413.5L508.9,413.5z"/>
	<path class="st20" d="M594.2,430.9c0,0,0.6-8.8,9.6-8.8c9.1,0,29.2,10.3,29.2,10.3s-4.8,0.8-11.4,1.2c-6.6,0.4-14.5,0.3-14.5,0.3
		L594.2,430.9L594.2,430.9z"/>
	<path class="st20" d="M586.3,430.8c2.9,6.4,25.3,32.4,25.3,32.4l5.4-0.3l-6.8-11.1l17.2,12.1l2.9-1.8l-15.6-15.5l13.9,9l3.5-1.8
		l-25.8-22.5L586.3,430.8L586.3,430.8z"/>
	<path class="st21" d="M416.6,579.5c0,0,4.7-3.6,60.8,74.9c30,41.9,37.1-5,40-4c2.9,1-47.5-127.4-47.5-128.4c0-2-5.7-28.3-5.7-28.3
		l-35.2-2L416.6,579.5L416.6,579.5z"/>
	<path class="st22" d="M448,489.2c0,0-32.1,180.9-37.5,191.2c-5.4,10.3-22.8,29-30.1,18.7c-7.2-10.3-12.9-82.9-19.2-143.7
		c-6.3-60.8,3.8-68.5,3.8-68.5L448,489.2L448,489.2z"/>
	<path class="st10" d="M274.9,263.9l-62.7-64.4c0,0,22.9,68.8,38.6,84C266.4,298.9,274.9,263.9,274.9,263.9L274.9,263.9z"/>
	<linearGradient id="SVGID_1_" gradientUnits="userSpaceOnUse" x1="308.7995" y1="478.4108" x2="412.7098" y2="298.4329">
		<stop  offset="0" style="stop-color:#FFC600"/>
		<stop  offset="1" style="stop-color:#FF6666"/>
	</linearGradient>
	<polygon style="fill:url(#SVGID_1_);" points="516,380.3 515.2,381.4 503.5,377.3 460.7,327.1 460.7,326.1 363.8,320.8 
		315.2,292.3 290.8,263.5 273.6,250.7 239.5,278.8 254.4,300 261.1,294.8 270.1,287.9 260.1,300.5 277.3,322.9 295.4,330.5 
		347.9,376.5 351.7,503.2 470.6,517.8 464,389.8 468.6,396.8 491.9,411.7 494.7,411.9 500,413.5 499.7,414.9 519.5,419.3 
		530.4,389.5 	"/>
	<path class="st10" d="M223.8,216c0,0,4.7-13.1,2.3-16.4c-2.4-3.3-12.1-14.7-12.1-14.7l-2.8-2.7c0,0-5.1,1.1,1.6,8.7
		c6.6,7.6,1.1,5.5,1.1,5.5l-9-4.9l-11.5-5.2l-4.8-2.9c0,0-2.6-1.8-3.6-1.8c-3,0.1-1.8,2.1-1.8,2.1l17.5,12.6l-19.7-7.7
		c0,0-2.7-0.6-3.5,0.4c-0.8,1,0,1.4,0,1.4l19.9,13.5l-10.6-3c0,0-2.7-0.6-3.5,0.5c-1,1.1-1.3,1.4-1.3,1.4l39.3,16.5L223.8,216
		L223.8,216z"/>
	<polygon class="st22" points="413.1,684.7 393.5,816.7 375.3,821.6 353,818.6 361.8,706.7 371.2,637 419.9,619.3 413.1,684.7 	"/>
	<polygon class="st21" points="517.2,649.9 525.3,808.2 493.6,809.4 472.6,647.4 517.2,649.9 	"/>
	<path class="st10" d="M197.9,198.9l-14.2-4.7c0,0-3-1.4-4.9-1.2c-2.1,0.2-2,1.8-2,1.8l20.6,9L197.9,198.9L197.9,198.9z"/>
	<path class="st24" d="M393.3,339.8c15.6,3.2,30.2-2.8,32.2-10.6c0.5-1.8,0.2-3.6-0.7-5.3l-57.7-3.6
		C366,328,378.2,336.7,393.3,339.8L393.3,339.8z"/>
	<path class="st10" d="M413.2,296.5c0,0-4,23.1,6.9,28.5c5.3,2.7-3.6,10.5-13.2,11.1c-13,0.8-34-8.2-34.9-13.4
		c-0.5-2.5,2.3-0.9,4.9-5.4c3.6-6.4,1.4-32.2,1.1-35.3C377.7,278.9,412.9,286.4,413.2,296.5L413.2,296.5z"/>
	<path class="st25" d="M416.4,322.3c-6.2-7.1-3.3-25.7-3.3-25.7c-0.2-8.4-24.4-14.9-32.6-15.2c0,5.3,0.1,10.6,0.5,14.2
		c1.1,9.8,9.4,14.5,14.6,18.1C400.5,316.9,411.2,323.3,416.4,322.3L416.4,322.3z"/>
	<path class="st10" d="M421.2,251v45.8c0,0,0,10.9-4.6,12.4c-4.6,1.6-16.9,0.8-22-2.8c-5.1-3.6-13.4-8.3-14.6-18.1
		c-1.1-9.8,0-33.4,0-33.4s3.7-7.8,19.7-3.1C415.8,256.4,421.2,251,421.2,251L421.2,251z"/>
	<path class="st22" d="M419.5,239.8c2.2,0.5,5.9,2.1,6.8,5.5c0.9,3.5-2.7,8.8-6.1,9.5c-3.4,0.7-25.1,0.9-27.8,0
		c-2.7-0.9-7.7-1.8-10-5.6c-1.5-2.4,6.7-7.7,11.6-6.4C406.4,246.2,411.2,237.8,419.5,239.8L419.5,239.8z"/>
	<path class="st22" d="M388,249.6v19.8l-1.7,10.5h-2.6H379c0,0-7.7-27.2-0.4-30.3C385.8,246.4,387.6,248,388,249.6L388,249.6z"/>
	<path class="st10" d="M383.4,281.8c0,1.7-1.5,3.1-3.4,3.1h-2c-1.9,0-3.4-1.4-3.4-3.1v-7.2c0-1.7,1.5-3.1,3.4-3.1h2
		c1.9,0,3.4,1.4,3.4,3.1V281.8L383.4,281.8z"/>
	<polygon class="st26" points="907.3,343.2 838.4,434.5 727.5,429.4 743.3,413.3 819.9,401.4 857.4,314.3 907.3,343.2 	"/>
	<path class="st27" d="M699.5,847c0,0-2.4-1.9-9.5-5.6c-4.2-2.1-7.6-3.1-8.6-5.2c-1.7-3.3,0.1-12.3-1.3-12.5
		c-6.8-0.6-10.4,15.6-9,18.3c1.8,3.6,24.8,6.9,26.6,7.4C699.3,849.9,700.1,846.8,699.5,847L699.5,847z"/>
	<path class="st27" d="M721.8,681.6c-3.1-1.5,1.2-13.1-5.5-5.8c-11,12-22,40.2-24.9,55.7c-4.6,24.6-10.9,63.9-14.9,80.3
		c-6.7,27.3-7.3,30.6,5.4,28.9c1.4-21.3,8.8-49.6,16.1-65.6C722.9,720.5,731.2,686.3,721.8,681.6L721.8,681.6z"/>
	<path class="st28" d="M699.5,847c-4.1,4.4-18.4-3.3-22.5-4.7c-7.2-2.4-6.3-5.2-6.3-5.1c-0.9,2.5-2.2,5.9,1.7,8.1
		c3.6,2,8.1,2.7,11.7,4.4c3.7,1.7,25,9,26.7,6.4C713,852.7,699.5,846.9,699.5,847L699.5,847z"/>
	<path class="st27" d="M749.6,519.3c-5.3-1.9-18.2,5.6-23.6,16.1c-10.6,20.5-11.9,49.3-13.5,83.2c-2,39.7,5.9,73.9,12.1,96.5
		c9.4-14.8,15.8-23.2,24.4-57.2C768,582.6,766.1,525.2,749.6,519.3L749.6,519.3z"/>
	<path class="st27" d="M729.7,665c-2.8-1.8-13.1,2.2-17.8,8.4c-9.2,12.2-9.7,30.3-16,52c-7.3,25.5-10.2,66.3-10.1,81.5
		c7.4-10.7,14.6-35.3,23.3-49.8C761.8,669.7,738.2,670.3,729.7,665L729.7,665z"/>
	<path class="st12" d="M707.3,444.9c-8.1-1.4-15.6,3.9-24.3,22.5c-7.6,16.1-25.8,56.3-24.3,109.5c1.5,56.4,15.5,97.4,20.7,111.4
		c2.4,6.6,22.1-6.3,24.8-0.9c-7.1-22.3-3.4-63.7-0.3-89.8C719.1,465.4,732.2,449.3,707.3,444.9L707.3,444.9z"/>
	<path class="st12" d="M751.4,514.6c-5.3-1.6-5.8,2.3-10.7,12c-9.6,18.9-16.8,47.4-17,78.4c-0.3,29,2.4,55.3,7,75.1
		c1.2,5,7.2,5.6,8.7,1.3c4.7-13.7,8.2-29.4,11.6-46.3C765,565.6,767.9,519.6,751.4,514.6L751.4,514.6z"/>
	<path class="st12" d="M676.3,674.8c-0.7-4.5-1.3-9-2-13.5c0.9-7.3,10.9-9.2,13.2-9.8c8.4-2.1,22.4,11.7,28.2,102.3
		c0.3,4.6,7.6,94.5,6.7,93c-2.3-4-2.2,4.2-5.4-4.8C704.7,808,684.4,728.2,676.3,674.8L676.3,674.8z"/>
	<path class="st28" d="M730.8,853.9c2,11,1,20.3-2.2,20.8c-3.2,0.5-7.4-8.1-9.4-19.1c-2-11-1-20.3,2.2-20.8
		C724.6,834.4,728.8,842.9,730.8,853.9L730.8,853.9z"/>
	<path class="st12" d="M726.9,846.2c2.4,7.9,0.9,15.6-2.3,16c-3.2,0.4-4.4-4.2-6.1-12.9c-2-10.3-2.7-14.8-4.9-21.1
		c-1.8-5.2,1-8.9,6-0.3c1.3,2.2-0.2,3.7,4.2,9.2C725.1,838.6,725.8,842.7,726.9,846.2L726.9,846.2z"/>
	<path class="st29" d="M666.8,422.8c0,0,3,3.9-19.9,18.7c-22.9,14.8-56.5,30.6-56.5,30.6l45.7-36.8c0,0,11.1-9.4,17.9-12.8
		C660.1,419.4,661.7,422.1,666.8,422.8L666.8,422.8z"/>
	<path class="st29" d="M744.6,438.7c-5.9,11.2-37.5,11.2-43.4,0l-33.6-81c-5.9-11.2,0.5-20.4,14.3-20.4h77.7
		c13.7,0,20.2,9.2,14.3,20.4L744.6,438.7L744.6,438.7z"/>
	<linearGradient id="SVGID_2_" gradientUnits="userSpaceOnUse" x1="652.0479" y1="515.6593" x2="774.6964" y2="515.6593">
		<stop  offset="0" style="stop-color:#33CCFF"/>
		<stop  offset="1" style="stop-color:#4EDCCA"/>
	</linearGradient>
	<path style="fill:url(#SVGID_2_);" d="M773.6,598.3c0.7-2.5,1-5.1,1.1-7.5c-0.6-24.7,4.9-60.7-26-139.2c-1.5-4.1-3.4-7.7-5.5-10.8
		c-14.7-2.6-29.8-5.3-45.2-7.7c-5.6,4.4-10.4,10.8-13.7,19.3c-31.9,77.1-28.7,112.5-32.3,135.7C691.5,591.1,732,594.8,773.6,598.3
		L773.6,598.3z"/>
	<path class="st29" d="M692.7,438.2c18,2.6,36.1,6.7,54.4,9.4c-0.4-0.9-0.8-1.7-1.3-2.5c-17.2-2.5-34.3-6.3-51.2-8.9
		C693.9,436.8,693.3,437.5,692.7,438.2L692.7,438.2z"/>
	<path class="st29" d="M753.4,464c-0.3-0.8-0.6-1.6-0.9-2.4c-22.7-2.7-45.2-8.1-67.6-10.7l-0.6,1.4l-0.3,0.8
		C707,455.7,730.1,461.3,753.4,464L753.4,464z"/>
	<path class="st29" d="M759,480.3c-0.3-0.8-0.5-1.6-0.8-2.4c-26.7-2.5-53.2-9.3-79.5-11.6c-0.3,0.7-0.5,1.5-0.8,2.2
		C704.7,470.8,731.8,477.8,759,480.3L759,480.3z"/>
	<path class="st29" d="M763.9,496.4c-0.2-0.8-0.4-1.6-0.7-2.4c-30.3-2.2-60.4-10.3-90.2-12.1c-0.3,0.7-0.5,1.5-0.8,2.2
		C702.6,485.9,733.1,494.2,763.9,496.4L763.9,496.4z"/>
	<path class="st29" d="M768,512.3c-0.2-0.8-0.4-1.6-0.6-2.4c-33.4-1.8-66.6-11.2-99.5-12.4c-0.2,0.8-0.4,1.5-0.7,2.3
		C700.5,500.9,734.1,510.6,768,512.3L768,512.3z"/>
	<path class="st29" d="M770.7,525.8c-36-1.3-71.8-12-107.3-12.4c-0.2,0.8-0.4,1.5-0.6,2.3c35.8,0.4,71.9,11.2,108.3,12.5
		C771,527.4,770.9,526.6,770.7,525.8L770.7,525.8z"/>
	<path class="st29" d="M773.3,544c-0.1-0.8-0.2-1.5-0.3-2.3c-38.1-1-75.8-12.6-113.4-12.4c-0.2,0.8-0.3,1.5-0.5,2.3
		C697,531.3,735,543,773.3,544L773.3,544z"/>
	<path class="st29" d="M774.5,559.8c0-0.8-0.1-1.6-0.1-2.3c-39.4-0.9-78.6-13-117.6-12.4c-0.1,0.8-0.2,1.5-0.3,2.3
		C695.5,546.7,734.9,558.9,774.5,559.8L774.5,559.8z"/>
	<path class="st29" d="M774.7,575.6c0-0.8,0-1.5,0-2.3c-40.2-0.9-80.2-13.3-119.9-12.3c-0.1,0.8-0.2,1.5-0.2,2.3
		C694.4,562.2,734.4,574.6,774.7,575.6L774.7,575.6z"/>
	<path class="st29" d="M653.3,576.7c-0.1,0.8-0.1,1.5-0.2,2.3c40.3-1.1,80.8,11.3,121.5,12.4l0-0.6c0-0.6,0-1.2,0-1.8
		C734,588,693.5,575.6,653.3,576.7L653.3,576.7z"/>
	<path class="st29" d="M667.8,342.9c-12.2,17.7-14.4,85.7-14.4,85.7s7.5,5.2,13.7-4.8c2.5-4.1,9.1-28.4,13.6-59.7
		C684.3,338.2,670.8,338.6,667.8,342.9L667.8,342.9z"/>
	<path class="st29" d="M775.5,345.9l7.8,90.5c-1.6,1-4.4,10.8-8.4,4.1c-4.9-8.3-12.3-34.1-17.5-72.9
		C753.5,337.7,770.6,342.8,775.5,345.9L775.5,345.9z"/>
	<path class="st29" d="M778.8,513.9c5-13.8,7.5-36.3,6.1-61.6c-0.4-7.5-1.2-14.7-2.2-21.5c-2.6,2.5-5.5-1.4-7.4,4.1
		c-4.9,13.9-6.8,44.2-5.3,69.1c0.2,3.9,0.5,7.8,0.9,11.5C773.5,515.1,776.1,514.6,778.8,513.9L778.8,513.9z"/>
	<path class="st31" d="M777.9,512.2c0,0,3.5,21.5,5,26.8c1.5,5.2-0.2,8.3-0.2,8.3l-7.8,7l-12,5.3c0,0-1.2-3,8-7.2
		c4.6-2.1,5.1-6.3,5.1-6.3s0-9.6-2.8-6.1c-4,5.1-4.6,9.4-7.6,11.8c-2.9,2.4,0.6-5.4,0.6-5.4s1.7-11.4,3.8-15.1
		c2.1-3.6,1.8-18.4,1.8-18.4s0.8-1.9,3.2-1.9C777.3,511.1,777.9,512.2,777.9,512.2L777.9,512.2z"/>
	<path class="st12" d="M753.4,337.2c-9.1-1.4-21.8-1.8-34.2-1.6c-8.4,0.2-30.9,1-32.7,1.8c-4.2,19.3,17,25.4,35.2,23.1
		C740.3,358.3,755.4,336.5,753.4,337.2L753.4,337.2z"/>
	<path class="st12" d="M645.5,240.7c0,0,11.2-25.1,11.5-27.7c0.3-2.6-1.7-3.7-3.6-9.1c-1.9-5.4-2-6.5-3.2-10.9
		c-1.2-4.4-1.2-4.9-1.2-4.9s2.8-0.3,3.7,1.3c0.8,1.4,1.9,5.1,2.6,6.3c0.8,1.2-0.8-3.1-1.1-9.8c-0.3-6.7,0.4-13.3,0.9-16.2
		c0.3-1.8,0.4-2,0.5-2c0.9-0.1,1.7-0.1,2,0.7c0.2,0.7,0.3,3.2,0.5,3.1c0.4-0.6,1.4-4.7,1.5-5.4c0.1-0.7,0.2-1.7,0.4-2.4
		c0.3-1.3,2-0.9,3,1.2c0,0,1.2,0.4,1.5,1l0.4,0.9l0.4,1.2c0.6,1.4,0.9,2.8,1.2,4.2c0.1,0.6,0.3,5.6,0.7,5.5l0.8-4
		c0.8,0.1,1.8,0.7,1.8,1.4c0,1.3,0.1,3.2,0.1,8.5c-0.1,5.8-0.6,7.1,1.4,14.3c1.7,6.3,1.5,9.2-0.7,13.7c-1.9,4-3.4,3.6-5.2,9.8
		c-3.2,11-3.5,25.1-5,27.9C657.9,253.6,645.5,240.7,645.5,240.7L645.5,240.7z"/>
	<path class="st32" d="M641.7,237l-7.9,30.9c0,0-39.1,59.9-36.1,68.2c3.6,9.8,14.8,22.5,14.8,22.5l46.1-73.3l14.5-33.6L641.7,237
		L641.7,237z"/>
	<path class="st22" d="M602.4,313.6c0,21.8-20,39.5-44.6,39.5c-24.7,0-44.6-17.7-44.6-39.5c0-21.8,20-39.5,44.6-39.5
		C582.5,274,602.4,291.7,602.4,313.6L602.4,313.6z"/>
	<path class="st22" d="M582,345.7c0,18.7-17.1,33.8-38.2,33.8c-21.1,0-38.2-15.1-38.2-33.8c0-18.7,17.1-33.8,38.2-33.8
		C565,311.9,582,327,582,345.7L582,345.7z"/>
	<path class="st22" d="M618.1,271.3c0,17.8-14.9,32.2-33.4,32.2c-18.4,0-33.4-14.4-33.4-32.2c0-17.8,14.9-32.2,33.4-32.2
		C603.1,239.1,618.1,253.5,618.1,271.3L618.1,271.3z"/>
	<path class="st32" d="M558.9,326.3c0,0,45.9,1.1,47-0.9c1.1-2.1,5.8-6.8-0.4-9.9c-6.2-3.2-19.1-4.5-26.5-4.3
		c-7.4,0.2-25.1,0.6-25.1,2.6C553.8,320.7,556.8,324.9,558.9,326.3L558.9,326.3z"/>
	<path class="st12" d="M541.8,323.4c0,0,15.8,27.8,34.3,31.6c18.5,3.8,44.2,0.2,46.9-6.5c2.7-6.7-3.8-19.9-8.1-23.2
		c-4.2-3.4-18-6.7-21.7-12.9c-3-5.1-2.1-14.4,0-21.6c2.1-7.2,8.5-7.7,2.1-11c-6.4-3.4-3.7-6.7-10.1-5.7c-6.4,1-10.1-1.2-10.1,4.3
		c0,10.1,0.9,24.2-5.3,30.7C563,316.2,552.9,314.8,541.8,323.4L541.8,323.4z"/>
	<path class="st12" d="M548.9,779.2c0,0,2.7,27.9,1.8,34.1c-1,7-2.2,7.2-2.2,7.2s16.3,18,22.3,20.8c6,2.9,5.2,0.4,4.8-1.1
		c-0.4-1.4-9.7-12-11.9-17.6c-7.5-18.5,2-41,1.6-42.8C564.8,778.2,548.9,779.2,548.9,779.2L548.9,779.2z"/>
	<path class="st19" d="M544.4,493.1l11.2,158.7c0,0-8.7,36.2-9.9,48.4c-1.9,20.9,0.3,83.9,0.3,83.9l23.3,1
		c0,0,16.4-142.4,18.5-154.8c2.1-12.5,26-114.1,12.2-139C586.3,466.2,544.4,493.1,544.4,493.1L544.4,493.1z"/>
	<path class="st22" d="M549,818.3c0,0-2.5,2.7-2,5.3c0.4,2.2,2.3,8.5,2.3,8.5l4.4,1.8V831c0,0,7.9,8.6,11.9,11.1
		c4,2.5,12.3,8.8,17.1,7.2c1.3-0.4,1.6-1.8,1.6-1.8s-7.5-7.5-8.7-8.6c-1.2-1.1-4,1.1-7.2-0.7c-3.2-1.8-12.3-9.6-14.7-12.2
		C550.5,822.6,549,818.3,549,818.3L549,818.3z"/>
	<path class="st12" d="M592.3,768.7c0,0,1.1,26.7,1,34.2c-0.1,4.9-1,8.3-1,8.3s16.3,18,22.3,20.8c6,2.9,5.2,0.4,4.8-1.1
		c-0.4-1.4-9.2-12.2-11.9-17.6c-8.3-16.5,2-41,1.6-42.8C608.5,768.8,592.3,768.7,592.3,768.7L592.3,768.7z"/>
	<path class="st19" d="M599.2,485.9l-2.6,148.6l-5.3,142.4l23.3,1c0,0,16.4-143.8,18.5-156.3s26-112.6,12.2-137.6
		C631.6,459.1,599.2,485.9,599.2,485.9L599.2,485.9z"/>
	<path class="st33" d="M617.2,495l-18.5,21.6l-1.6,88.7c6.6-12.1,11.4-20.9,13-23.4c2.5-4.2,12.6-19.1,24.1-37.6
		c0.1-6.4,0.2-12.8,0.2-19.2C628.7,513.9,623,503.7,617.2,495L617.2,495z"/>
	<path class="st22" d="M591.8,809.1c0,0-1.6,2.5-1.1,5.2c0.4,2.2,2.3,8.5,2.3,8.5l4.4,1.8v-2.9c0,0,8,8.6,11.9,11.1
		c4,2.5,12.3,8.8,17.1,7.2c1.3-0.4,1.6-1.8,1.6-1.8s-7.6-7.6-8.8-8.6c-1.2-1.1-4,1.1-7.2-0.7c-3.2-1.8-12.3-9.6-14.7-12.2
		C594.2,813.3,591.8,809.1,591.8,809.1L591.8,809.1z"/>
	<path class="st34" d="M642.6,490.1h-85.5l12.3-65.5l-2.8-76.8c0,0,15.9,5.5,29.8,6.3c9.1,0.5,28.6-6.3,28.6-6.3L642.6,490.1
		L642.6,490.1z"/>
	<path class="st31" d="M596.4,493.6c0,0-16.9-116.5-21.7-125.1c-4.8-8.6-8.5-28.8-8.5-28.8l-1.1-18.7l-8.5-6.2
		c0,0-20.7,8.1-24.4,12.9c-3.7,4.8,6.9,27.8,9.5,35c2.7,7.2,13.8,30.7,14.3,35.9c0.5,5.3-0.1,17.4-2.6,23
		c-20.1,44.6-20.3,74.1-19.6,73.8C549.7,489.3,596.4,493.6,596.4,493.6L596.4,493.6z"/>
	<path class="st12" d="M531.9,413.2c0,0,6.4,0.7,3,31.8c-3.4,31-16,75.9-16,75.9l1-72.2C520,448.7,521.7,421.1,531.9,413.2
		L531.9,413.2z"/>
	<path class="st32" d="M544.1,374l-9.1,83.8v5l-27.4-1.4c0,0,7.9-66.9,9.1-70.1c1.2-3.2,4-31.3,3.6-36.3c-0.4-5,9.7-38.8,20.4-24.8
		C556.1,350.3,544.1,374,544.1,374L544.1,374z"/>
	<path class="st12" d="M523.9,496.7c-1.1,14.8,5.8,21.6,7.7,27.6c1.9,6,4.9,12.1,4.9,12c-6.1-3.7-5.9-8.5-7.8-11
		c-1.9-2.5-0.9-1.8-1.7,3.4c-0.5,3,4.4,8.6,7.1,12.5c2.3,3.4,2.3,5.5,2.3,5.5s-5.1-4.1-9-9.3c-4.7-6.2-8.6-13.7-9.1-15.5
		c-1-3.2-0.6-13.1,0.9-20.1C520.9,494,524.7,486,523.9,496.7L523.9,496.7z"/>
	<path class="st27" d="M518.9,523.7c0,0,1.8,9,3.1,11.1c0.9,1.4,6.6,7.6,6.6,7.6s-0.4-4.3-2.5-6.8
		C524,532.9,518.9,523.7,518.9,523.7L518.9,523.7z"/>
	<path class="st31" d="M605.9,316.7c0,0,9.8,7.2,17.1,15.3c3.3,3.8,11,30.7,12.6,52.3c1.6,21.6,0,27.3,3.2,42.7
		c3.2,15.3,7.9,17.9,11.1,36.9c2.5,14.9,3.2,28.3,3.2,28.3s-6.9,3.4-13.8-1c-6.9-4.3-17.5-55.6-18.5-68.5
		c-1.1-12.9-2.3-47.2-3.7-56.1c-4.2-26.9-21.1-44.7-23.4-47.1C587.6,313.5,604.8,317.7,605.9,316.7L605.9,316.7z"/>
	<path class="st32" d="M556.2,312.7l9,8.3c0,0-2.2-1.3-3.9,2.9c-1.2,3-2.8,6.8-2.8,6.8l-8.7-13.1
		C549.8,317.6,553.4,311.3,556.2,312.7L556.2,312.7z"/>
	<path class="st32" d="M596.7,310.5c0,0-0.5,1.4-1.3,2.3c-1.6,1.8-3.4,4.8-3.4,4.8s2.7-2.1,4.6,0c2.3,2.6,5.3,9,5.3,9
		s3.1-9.9,0.9-12.3C598.8,310.2,596.7,310.5,596.7,310.5L596.7,310.5z"/>
	<path class="st22" d="M982.4,831.2c0.9,1.3,0.3,4.4,0.3,4.4s-19.2,1.9-25.4,0.6c-1.6-0.3-4.3-1.6-6.9-2.9l-1.6-1.8
		c-0.8-0.4-1.2,0.3-1.8-0.1c-1.7-1-2.9-1.7-2.9-1.8c-1.7-8,0.6-11.2,0.6-11.2s12.3-4.9,15.4-1.5C967.2,825,979.7,827.4,982.4,831.2
		L982.4,831.2z"/>
	<path class="st22" d="M862.9,820.4l-2.7,13h-14.6c0,0-0.8-1.8-2-1.8c-1,0-2.4,1.8-3.8,1.8c-3.1,0-6.5,0-7.8,0c-2.7,0-29.3,0-29.3,0
		s-0.7-2.7,0.1-3.7c0.4-0.5,2.8-1.3,4.5-1.7c7.5-1.9,29.1-7.9,32.9-14.4C844.6,805.6,862.9,820.4,862.9,820.4L862.9,820.4z"/>
	<path class="st35" d="M944.4,483.1c0,0-30.6,118.7-53,155c-22.5,36.2-40.5,30-40.5,30l28.9-221.2l46.4-3.7
		C926.1,443.1,955.1,444.4,944.4,483.1L944.4,483.1z"/>
	<path class="st29" d="M903.4,444.9l-23.7,1.9l-27.4,209.7c23.9-42.8,57.7-170.2,57.7-170.2C917.2,461.3,910.4,450,903.4,444.9
		L903.4,444.9z"/>
	<polygon class="st29" points="933.6,550.2 870.7,520 875.8,485.1 925.4,473.2 954.8,477.8 933.6,550.2 	"/>
	<path class="st35" d="M893.7,588.1c0,0,5.4,2.5-7.5,90c-12.9,87.5-23.6,142.5-23.6,142.5l-25.7-4.5l13.9-148L893.7,588.1
		L893.7,588.1z"/>
	<path class="st29" d="M907.1,443.6c0,0,16,196.6,18.7,206.6c9.1,33.7,32.7,13.5,35.9,2.2c3.2-11.2,8.6-94.3,7.5-154.9
		c-1.1-60.6-1.1-60.6-1.1-60.6L907.1,443.6L907.1,443.6z"/>
	<path class="st29" d="M940.8,619c0,0-31.3-27.8-10.7,59.9c8.4,35.9,8.9,90.6,12.6,139.6c0.2,3,20.3,0.7,20.3,0.7
		s5.2-97.8,7.3-128.5C972.5,660,956.9,597,940.8,619L940.8,619z"/>
	<path class="st12" d="M1009.9,264.7l-6.3-7.6c0,0-20.4-8.9-21.8-13.3c-1.4-4.5-8.4-10.8-8.4-10.8s-0.7-3.8,7.7-0.6
		c8.4,3.2,8.4,3.2,8.4,3.2s15.5,1.3,17.6,4.5c2.1,3.2,9.8,25.4,9.8,25.4L1009.9,264.7L1009.9,264.7z"/>
	<path class="st12" d="M1021.9,255.8l-4.2-9.5c0,0-0.7-6.4-4.2-13.4c-3.5-7-10.5-8.3-18.3-6.4c-7.7,1.9-10.5,5.1-10.5,5.1
		s-1.4,9.5,6.3,12.7c7.7,3.2,19,19.1,21.8,17.2C1015.6,259.7,1021.9,255.8,1021.9,255.8L1021.9,255.8z"/>
	<polygon class="st12" points="983.9,235.7 979.7,221.3 976.4,207.7 979.7,208.2 983.5,217.5 996.6,228.9 992.4,231.2 983.9,235.7 	
		"/>
	<polygon class="st12" points="989.1,216.6 990,204.3 993.3,203.9 994.7,216.2 1000.8,228.1 992.4,231.2 989.1,216.6 	"/>
	<polygon class="st12" points="998.9,204.8 997.5,214.5 995.6,220.9 998.5,227.7 1006,227.2 1002.7,220 1002.2,206.9 998.9,204.8 	
		"/>
	<polygon class="st12" points="1008.8,208.2 1003.1,225.1 1005.5,229.8 1010.6,229.8 1010.2,221.3 1010.6,210.7 1008.8,208.2 	"/>
	<path class="st19" d="M1065.8,309.8c-20.3-25.4-40.3-56-40.3-56l-22.2,7.6l24.9,43.2l-105.9-2.3c-17.1-2.3-39.3-0.5-65.8,12.3
		l9.2,190l108.8-15.3l-10.7-145.2l96.1-10C1059.8,334.2,1081.4,329.4,1065.8,309.8z"/>
	<path class="st12" d="M916,301.7c0,7.6-6.8,13.8-15.3,13.8h-5.9c-8.4,0-15.3-6.2-15.3-13.8v-26.1c0-7.6,6.9-13.8,15.3-13.8h5.9
		c8.5,0,15.3,6.2,15.3,13.8V301.7L916,301.7z"/>
	<path class="st14" d="M802.4,830.2c-0.3,1.2,0.1,3.1,0.1,3.1s26.6,0,29.3,0c1.4,0,4.8,0,7.8,0c1.4,0,2.8-1.8,3.8-1.8
		c1.2,0,2,1.8,2,1.8h14.6l0.7-3.1H802.4L802.4,830.2z"/>
	<path class="st14" d="M982.9,832.9c-5.9,0.7-18.4,2.1-20.7,1.7c-9.4-1.5-15-6-18.8-8.7c0.1,1.1,0.3,2.3,0.6,3.7
		c0,0.1,1.2,0.9,2.9,1.8c0.7,0.4,1.1-0.3,1.8,0.1l1.6,1.8c2.6,1.3,5.3,2.6,6.9,2.9c6.2,1.3,25.4-0.6,25.4-0.6S983,834.2,982.9,832.9
		L982.9,832.9z"/>
	<path class="st14" d="M829.5,824.5c-0.3,0.4-1.2-0.1-2.3-0.8c-2.7-1.8-2.4-1.6-1.7-1.9c0.5-0.2,1.1-0.4,2.6,0.7
		C829.1,823.2,829.8,824.1,829.5,824.5L829.5,824.5z"/>
	<path class="st14" d="M833.4,822.9c-0.3,0.4-1.2-0.1-2.3-0.8c-2.7-1.8-2.4-1.6-1.7-1.9c0.5-0.2,1-0.4,2.6,0.7
		C833.1,821.6,833.7,822.5,833.4,822.9L833.4,822.9z"/>
	<path class="st14" d="M837,821.1c-0.3,0.4-1.2-0.1-2.3-0.8c-2.7-1.8-2.4-1.6-1.7-1.9c0.5-0.2,1-0.4,2.6,0.7
		C836.7,819.8,837.4,820.8,837,821.1L837,821.1z"/>
	<path class="st14" d="M972.5,825.4c0.1,0.3-0.7,0.5-1.8,0.5c-2.2-0.1-4.4,0-6.6,0.3c-1.1,0.1-2,0-2.1-0.3c0-0.4,0.8-0.8,1.9-1
		c2.2-0.3,4.4-0.3,6.5-0.2C971.5,824.6,972.4,825,972.5,825.4L972.5,825.4z"/>
	<path class="st14" d="M968.8,823c0.1,0.4-0.7,0.6-1.8,0.7c-2.2,0.1-4.3,0.3-6.5,0.8c-1.1,0.2-2,0.2-2-0.2c0-0.4,0.8-0.9,1.9-1.1
		c2.2-0.4,4.3-0.7,6.4-0.7C967.8,822.3,968.7,822.6,968.8,823L968.8,823z"/>
	<path class="st14" d="M965.2,820.8c0.1,0.4-0.8,0.7-1.8,0.8c-2.1,0.2-4.3,0.7-6.4,1.3c-1,0.3-1.9,0.3-2-0.1c0-0.4,0.8-1,1.9-1.3
		c2.1-0.6,4.3-1,6.4-1.2C964.3,820.2,965.1,820.5,965.2,820.8L965.2,820.8z"/>
	<path class="st12" d="M869,289.6c0,3.7,3.3,6.6,7.3,6.6h32.9c4,0,7.3-3,7.3-6.6v-44.1c0-3.7-3.3-6.6-7.3-6.6h-32.9
		c-4,0-7.3,3-7.3,6.6V289.6L869,289.6z"/>
	<path class="st22" d="M869,254.6c0,0-4.4-4.3-5.2-6.9c-0.4-1.3,1-6.4,4.7-8.3c3.7-1.9,6.7,1.7,6.7,1.7s-5.8,2.9-6.2,4.1
		C868.7,246.2,869,254.6,869,254.6L869,254.6z"/>
	<path class="st22" d="M920,265.3c0,0,5-17,4.1-21.9c-0.9-5-1.5-8.4-8.2-9c-10-0.8-10.2,1.1-15.1-1.7c-4.9-2.8-13.7-9.4-16.7-10.1
		c-5-1.1-12.9,0.4-13.2,9c-0.2,6.3-4.6,7.9-4.5,8.1c0.4,0.8,2.2,1.5,5.4,2.9c9.2,4.1,14.6,5,21.7,3.3c7-1.7,20.1-5.2,21.6-0.5
		c1.5,4.7,0.9,19,1.5,20.1C917.2,266.7,918.8,266.1,920,265.3L920,265.3z"/>
	<path class="st12" d="M909.6,278.6c0,1.2,1.1,2.2,2.4,2.2h7.1c1.4,0,2.4-1,2.4-2.2v-11.8c0-1.2-1.1-2.2-2.4-2.2H912
		c-1.3,0-2.4,1-2.4,2.2V278.6L909.6,278.6z"/>
	<path class="st12" d="M867.2,278.6c0,1.2,1.1,2.2,2.4,2.2h7.1c1.3,0,2.4-1,2.4-2.2v-11.8c0-1.2-1.1-2.2-2.4-2.2h-7.1
		c-1.3,0-2.4,1-2.4,2.2V278.6L867.2,278.6z"/>
	<path class="st22" d="M916.8,269.2c0,0,0,17.4,0,23.2c0,5.2-2.3,16.7-35,16.7c-19.4,0-18.7-12.9-18.7-17.1c0-3.2,4-12.9,6.1-14.7
		v7.2c0,0,4-7,13.2-7c14.8,0,18.2,7.9,24.8,7.7C912.3,285.1,916,277.6,916.8,269.2L916.8,269.2z"/>
	<path class="st27" d="M213.1,515.6l-3.5,0.5c-0.1,0.6-0.2,1-0.2,1l-0.2,10.3l2.6,5.9c0,0,2.6,3.1,3.5,4.2c0.4,0.5,1,0,1.2-0.7
		c0.2-0.6-0.7-1.8-0.7-1.8s-1.3-1.5-1.8-2.7c-0.4-0.9-0.4-1.5-0.8-2.8c-0.2-0.6-0.6-1.7-0.6-2.1c0.1-2.5,0.8-5.5,1.3-7.6
		L213.1,515.6L213.1,515.6z"/>
	<path class="st27" d="M321.4,608.2c-3.1-1.7-13.5,8.8-17.9,18.1c-8.7,18.2-10.9,28.3-14.3,48.5c-5.3,31.9-12.2,83-17.4,104.2
		c-9.5,39-9.2,39.3,3.8,36.1c-0.2-26.7,16.2-63.1,24-84.2C326.5,658.7,330.8,613.4,321.4,608.2L321.4,608.2z"/>
	<path class="st12" d="M260,625.4c1.1-5.1,2.3-10.2,3.5-15.1c4-7.2,7.5-11,10.2-10.5c10.1,2.2,19.2,43.4-12.5,141.4
		c-1.6,4.9-18.4,77.6-18.2,75.5c0.3-5.1-5.8,3.1-5.5-2.4C240.5,761.5,244.6,694.2,260,625.4L260,625.4z"/>
	<path class="st19" d="M237.5,835.7c-5.5,10-12.3,17.1-15.2,15.8c-2.9-1.3-0.9-10.5,4.6-20.5c5.5-10,12.3-17.1,15.2-15.8
		C245,816.5,242.9,825.7,237.5,835.7L237.5,835.7z"/>
	<path class="st12" d="M239.1,829.8c-2.8,7.8-8.8,13.5-11.7,12.2c-2.9-1.3-1.8-8,2.5-15.2c5.6-9.1,7.7-11.7,8.2-18.3
		C238.6,802.3,249.7,800.3,239.1,829.8L239.1,829.8z"/>
	<path class="st36" d="M328,298.5c0,15.8-14.2,28.6-31.6,28.6l-7.9-13.6c-17.5,0-31.6-23.8-31.6-39.6v-10.7
		c0-15.8,14.2-28.6,31.6-28.6h7.9c17.5,0,31.6,12.8,31.6,28.6V298.5L328,298.5z"/>
	<path class="st36" d="M261.9,262.7c-1.7,0-3.4,0.1-5.1,0.3c0.3,1.9,0.6,3.8,0.6,5.8c0,19-16.1,34.7-37,37
		c3.2,17.8,20.5,31.5,41.5,31.5c23.2,0,42.1-16.7,42.1-37.3C304,279.4,285.2,262.7,261.9,262.7L261.9,262.7z"/>
	<path class="st12" d="M315.4,245.4c0,2.6-0.3,5.3-0.8,8.1c-3.2,18.4-15.5,32.3-29,34.1c-0.4,8.3-2.3,15.8-4.5,22.2
		c-2.5,7.2-11.9,14.9-11.9,14.9c-2.3,12.8,46,31.7,44.9,29.6c-1.1-2.1-13.1-17.2-16.9-31.1c-2.7-9.7,0.8-17.6,4.9-23.1
		c7.5-8,18.5-7.9,18.5-7.9c1.1,0,2-0.4,2.7-1.1c0.6-1.9,1-3.9,1-6v-23.6C324.1,254.9,320.7,249.1,315.4,245.4L315.4,245.4z"/>
	<path class="st19" d="M308,434c-5.3,11.8-38.1,15.5-43.5,3.7L234,348.5c-5.3-11.8,0.5-21.5,13-21.5h26.9l12.2,5.5l10.4-5.5h21
		c12.5,0,18.3,9.7,13,21.5L308,434L308,434z"/>
	<path class="st14" d="M271.5,464.2c-8.9-1.3-8.9,3.3-15,14.9c-12,22.7-18.3,56.3-13.2,91.9c6,41.7,18.7,78,33.6,100.8
		c8.5-19.6,12.5-43.2,15.7-69.3C302.5,521.3,298.7,468.2,271.5,464.2L271.5,464.2z"/>
	<path class="st19" d="M233.8,423c0,0-7-0.6-12.3,26.1c-2.2,11.4-3.5,24.5-4.1,35.8c-0.9,15.2,8.8-0.5,8.8-0.5l10.2-29.3
		C236.5,455,242.5,431.5,233.8,423L233.8,423z"/>
	<path class="st19" d="M234.1,332.6c-12.8,24.2-7.5,111.8-7.5,111.8s9.2,32.7,23.1-85.5C253.7,325.1,237.3,326.6,234.1,332.6
		L234.1,332.6z"/>
	<path class="st19" d="M332.2,336.6l9.9,98.8c0,0-18.3-2.4-30.7-76.2C306.2,327.6,325.9,333.3,332.2,336.6L332.2,336.6z"/>
	<path class="st12" d="M214.3,540.6c-0.9-1-3.5-4.2-3.5-4.2l-2.6-5.9l0.2-10.3c0,0,1.7-10.9,4-14.8c2.3-3.9,5.1-20.2,5.9-22.1
		c0.9-1.9,7.6-1.8,7.6-1.8s-1,14.4-3,21.1c-2,6.7-3.8,17.5-4.4,20.1c-0.5,2-1.3,3.8-2,5.2c-0.8,1.7-1.5,1.6-1.4,0
		c0.2-2.3,0.4-5.3,0.6-6.4c0.4-1.9-2.2-1.3-2.2-1.3s-2,5.8-2.1,10.2c0,0.4,0.4,1.4,0.6,2.1c0.4,1.3,0.4,2,0.8,2.8
		c0.6,1.2,1.8,2.7,1.8,2.7s0.9,1.3,0.7,1.8C215.3,540.6,214.7,541.1,214.3,540.6L214.3,540.6z"/>
	<polygon class="st37" points="284.8,331 278.7,338.1 263.8,327.9 269.3,320.6 284.8,331 	"/>
	<polygon class="st37" points="298,321.6 288.9,330.3 295.2,337.2 303.6,326.4 298,321.6 	"/>
	<path class="st37" d="M286.4,436.6c1.8-0.4,3.6-0.9,5.3-1.3c9-35,8.3-71.7-2.1-104.7c-1.7-0.4-3.7,0.4-5.4,0.1
		C294.7,364.3,295.7,400.7,286.4,436.6L286.4,436.6z"/>
	<linearGradient id="SVGID_3_" gradientUnits="userSpaceOnUse" x1="228.4672" y1="684.9859" x2="361.525" y2="454.523">
		<stop  offset="0" style="stop-color:#33CCFF"/>
		<stop  offset="1" style="stop-color:#0078BF"/>
	</linearGradient>
	<path style="fill:url(#SVGID_3_);" d="M344.9,672.5c0.6-2.8,1-6,1-9.4c-0.7-19.1,0.1-38.6-3.3-75c-3.4-35.3-11.1-87.6-27.6-148
		c-1.6-6.2-3.6-11.5-5.8-15.8c-15-1.9-30.3,7.4-45.9,11.4c-5.7,9.6-10.7,21.1-14.2,35c-16.9,62.6-25.4,98.8-29.9,129.1
		c-4.5,29.4-5.1,53-7.4,68.7C254.8,733.1,299.1,612.7,344.9,672.5L344.9,672.5z"/>
	<path class="st27" d="M349,524.3c0,0-1.6,11.8-2.9,14c-0.9,1.5-6.5,8-6.5,8s0.2-4.4,2.3-7.1C344,536.4,349,524.3,349,524.3
		L349,524.3z"/>
	<path class="st12" d="M331.1,414.2c0,0-6.5,1-1.8,32.6c4.7,31.6,19.4,77.2,19.4,77.2l-3.9-73.9
		C344.8,450.1,341.9,421.9,331.1,414.2L331.1,414.2z"/>
	<path class="st12" d="M342.7,499.3c1.8,15.1-5.1,22.3-6.8,28.5c-1.7,6.2-4.6,12.5-4.5,12.5c6.1-3.9,5.7-8.8,7.6-11.5
		c1.8-2.6,0.8-1.9,1.9,3.4c0.6,3-4.2,8.9-6.8,13c-2.2,3.6-2.2,5.7-2.2,5.7s5-4.4,8.9-9.8c4.6-6.5,8.2-14.3,8.7-16.2
		c0.9-3.3,0.1-13.5-1.7-20.6C345.7,496.5,341.4,488.5,342.7,499.3L342.7,499.3z"/>
	<path class="st19" d="M348,484.7c2.3-15.2-1.9-39-8.7-65c-2-7.7-4.3-15.1-6.8-22c-7.7,10.9-7.2,42.5,2.2,78.2c1.1,4,2.2,8,3.4,11.8
		C340.7,486.9,345.4,485.9,348,484.7L348,484.7z"/>
	<path class="st27" d="M295.8,814.5c0,0-2.9-1.1-11-2.5c-4.7-0.8-8.3-0.8-10-2.4c-2.8-2.6-1.3-9.1-2.6-8.8c-6.7,1.4-9,15.5-5.1,17.3
		c3.9,1.8,26-0.6,27.8-0.7C296.6,817.3,296.4,814.2,295.8,814.5L295.8,814.5z"/>
	<path class="st19" d="M291.2,813.3c1.3,4.8-14.9,2.8-19.1,1.6c-4-1.2-6.6-1.6-6.6-1.6l-0.5,0l-0.1,0.3c0,2.6-1.3,6.1,3.3,6.1h29
		C321,819.7,291.2,813.2,291.2,813.3L291.2,813.3z"/>
	<path class="st12" d="M289.5,292.8c0,0,34.7,33.7,34.6-7.8L289.5,292.8z"/>
	<path class="st12" d="M609.6,266.7c-4.7-2.8-9.3-8-12.4-14.6c-0.6-0.1-1.1-0.3-1.7-0.3c-1.2,5.9-6.4,12.9-14.4,18.5
		c-2,1.3-4,2.5-6,3.5v5.6c0,6.5,1.8,14.8,8.5,16.9l4.9,5.3C616.6,318.6,609.6,266.7,609.6,266.7z"/>
	<path class="st12" d="M740,277c0,0,1.6,37.9-18.9,36.2S693,299,698.6,256L740,277z"/>
	<path class="st39" d="M821.5,282.6c-5.1,5.3-12.7,8.1-20.4,7.3c0,0,0,0,0,0c-1-0.1-2-0.3-2.9-0.5c-0.1,0-0.2-0.1-0.3-0.1
		c-0.4-0.1-0.8-0.2-1.1-0.3c-0.5-0.2-1.1-0.3-1.6-0.5c-0.4-0.2-0.8-0.3-1.2-0.5c-0.2-0.1-0.5-0.2-0.7-0.3c-0.2-0.1-0.3-0.1-0.5-0.2
		c-0.3-0.1-0.6-0.3-0.8-0.4c-0.1,0-0.2-0.1-0.3-0.1c-0.3-0.2-0.6-0.3-0.9-0.5c0,0-0.1,0-0.1-0.1c-1.4-0.8-2.6-1.8-3.7-2.8
		c0,0,0,0,0,0c-3-2.8-5-6.2-6-9.9c0,0,0,0-0.1,0c-2.1-5.8-6.9-10.8-13.6-13.2c-1.2-9.7-12-20.2-27.7-25.8c-19.6-7-39.5-3.7-44.3,7.4
		c-4.8,11.1,7.2,25.8,26.8,32.7c6.8,2.4,13.6,3.6,19.8,3.7c6.4,2.4,11,7.1,13.1,12.7c-2.1,10,3.7,20.2,14.5,24
		c6.6,2.4,13.8,1.8,19.7-1.1c2,1.5,4.2,2.8,6.8,3.7c12.1,4.3,25.9-1.2,30.7-12.3C830,297.3,827.7,288.4,821.5,282.6z"/>
	<path class="st12" d="M711.2,311.3c0,0,0.2,27.2-13.3,28h37.5c0,0-9.3-8.4-7.4-27.4L711.2,311.3z"/>
	<polygon class="st25" points="413.9,287.6 417.7,270.7 421.5,288 	"/>
	<path class="st14" d="M879.4,283.7c0,0-5.5,0.6-2.1,4.2c3.4,3.6,14.2,1.1,15-0.4c0.7-1.5,1.6-3.7-0.7-3.6
		C889.2,284.1,879.3,284.2,879.4,283.7z"/>
	<polygon class="st40" points="714.3,291.8 718.7,274.9 722.6,292 	"/>
	<polygon class="st40" points="880.7,275.5 884.8,261 889.1,275.7 	"/>
	<polygon class="st40" points="600.6,288.5 602.7,274.3 606.2,287.6 	"/>
	<polygon class="st40" points="319.6,283.9 321.7,269.7 325.2,283.1 	"/>
	<path class="st14" d="M711,297h15c0,0-3,5-7,5S711,297,711,297z"/>
	<path class="st14" d="M596.9,293.7l9.2-0.7c0.5,0,0.8,0.4,0.8,0.8c-0.2,1.5-1.9,4.1-2.9,4.1c-1.7,0-4.7,0.5-7.5-3.3
		C596.2,294.3,596.4,293.8,596.9,293.7z"/>
	<path class="st14" d="M405,291l15,1c0,0-1,6-2,6S408,297,405,291z"/>
	<path class="st14" d="M314,289c0,0-1.4,0.6-0.7,1.3c0.7,0.7,6.4,4.2,8.1,2.9c1.6-1.3,1.6-4.3,1.6-4.3H314z"/>
</g>
</svg>
