<?xml version="1.0" encoding="utf-8"?>
<!-- Generator: Adobe Illustrator 22.0.1, SVG Export Plug-In . SVG Version: 6.00 Build 0)  -->
<svg version="1.1" id="Layer_1" xmlns="http://www.w3.org/2000/svg" xmlns:xlink="http://www.w3.org/1999/xlink" x="0px" y="0px"
	 viewBox="0 0 400 400" style="enable-background:new 0 0 400 400;" xml:space="preserve">
<style type="text/css">
	.st0{fill:none;stroke:#8DD7F2;stroke-width:14.2609;stroke-linecap:round;stroke-linejoin:round;stroke-miterlimit:10;}
	.st1{fill:none;stroke:#47C8F5;stroke-width:20;stroke-linecap:round;stroke-miterlimit:10;}
	.st2{fill:none;stroke:#8DD7F2;stroke-width:15.4098;stroke-linecap:round;stroke-linejoin:round;stroke-miterlimit:10;}
	.st3{fill:#47C8F5;}
	.st4{fill:none;stroke:#47C8F5;stroke-width:20;stroke-miterlimit:10;}
	.st5{fill:none;stroke:#47C8F5;stroke-width:15;stroke-linecap:round;stroke-miterlimit:10;}
	.st6{fill:none;stroke:#47C8F5;stroke-width:10;stroke-linecap:round;stroke-miterlimit:10;}
	.st7{fill:none;stroke:#47C8F5;stroke-width:20;stroke-linecap:round;stroke-linejoin:round;stroke-miterlimit:10;}
	.st8{fill:none;stroke:#47C8F5;stroke-width:22.4476;stroke-linecap:round;stroke-linejoin:round;stroke-miterlimit:10;}
	.st9{fill:none;stroke:#47C8F5;stroke-miterlimit:10;}
	.st10{fill:none;stroke:#47C8F5;stroke-width:10;stroke-linecap:round;stroke-linejoin:round;stroke-miterlimit:10;}
	.st11{fill:none;stroke:#47C8F5;stroke-width:14;stroke-miterlimit:10;}
	.st12{fill:#8DD7F2;}
</style>
<g>
	<g>
		<path class="st4" d="M193.4,54.6v70.8c0,6.6,5.4,12,12,12h75.8"/>
		<path class="st4" d="M193.4,54.6L50.4,53.8c-6.6,0-12,5.5-12,12.3v269.4c0,6.7,5.4,12.3,12,12.3h58.9h93.8h58.9
			c6.6,0,12-5.5,12-12.3v-74v-25.4v-102L193.4,54.6z"/>
	</g>
	<path class="st12" d="M332.8,168.9v-38.2l63.3,63.7l-63.3,63.7v-38.2c0,0-56.2-13.6-94.6,50.9c0,0-9.6-49.2,33.3-84.9
		C271.5,185.8,291,167.7,332.8,168.9z"/>
	<g>
		<path class="st3" d="M175.9,228.4c-2,1.5-3.9,3.2-5.7,4.9c0,0,0,0-0.1,0.1c-0.4,0.4-0.8,0.8-1.2,1.2c-0.9,0.9-1.7,1.8-2.5,2.8
			c-0.9,1.2-1.8,2.4-2.8,3.5c-7.6,8.9-17.8,15.6-29.4,19c5.3,1.5,10.9,2.2,17,2.3c0.1,0,0.3,0,0.4,0c0.6,0,1.3,0,1.9,0
			c6.5-0.2,12.5-1.3,18-3.2c6-2.2,11.3-5.4,15.8-9.5c4.5-4.2,8.1-9.2,10.8-15.1c2.4-5.3,4-11.1,4.8-17.5
			C192.9,218.4,183.7,222.5,175.9,228.4z"/>
		<path class="st3" d="M196.7,163.6c-1.5-2.7-3.2-5.1-5.1-7.3c-1.9-2.2-3.9-4.1-6.2-5.9c-4.5-3.6-9.7-6.3-15.4-8.1
			c-5.7-1.9-11.8-2.8-18.3-2.8c-9,0-17,1.6-24.2,4.8c-3.6,1.6-6.8,3.5-9.8,5.6c0,0,0,0,0,0c-0.2,0.1-0.3,0.3-0.5,0.4
			c-0.2,0.1-0.4,0.3-0.6,0.4c-0.4,0.3-0.8,0.6-1.2,1c-0.2,0.2-0.4,0.3-0.6,0.5c-0.4,0.3-0.8,0.7-1.2,1.1c-0.2,0.2-0.3,0.3-0.5,0.4
			c-0.6,0.5-1.1,1-1.6,1.6c0,0-0.1,0.1-0.1,0.1c-0.7,0.7-1.3,1.3-1.9,2c-0.5,0.6-1,1.2-1.5,1.8c-0.2,0.2-0.3,0.4-0.5,0.6l0,0v0
			c-4,5-7.1,10.8-9.4,17.2c-2.6,7.5-3.9,15.6-3.9,24.4c0,8.5,1.3,16.5,3.9,23.9c2.6,7.4,6.4,13.8,11.3,19.3c2.5,2.8,5.3,5.3,8.4,7.5
			c13-0.2,25.1-4.4,34.9-11.4c-0.3,0-0.7,0-1,0c-5.8,0-10.7-1.1-14.8-3.4c-4.1-2.2-7.3-5.2-9.9-8.9c-2.5-3.7-4.4-7.9-5.5-12.6
			c-1.1-4.7-1.7-9.4-1.7-14.4c0-5.1,0.6-10.1,1.7-14.9c0.6-2.7,1.5-5.2,2.6-7.6c0.2-0.5,0.4-0.9,0.6-1.4c0,0,0-0.1,0-0.1
			c0.2-0.4,0.4-0.8,0.6-1.2c0.1-0.1,0.1-0.2,0.2-0.4c0.2-0.3,0.4-0.6,0.5-0.9c0.3-0.4,0.6-0.9,0.8-1.3c2.5-3.8,5.8-6.8,9.9-9
			c4-2.2,9-3.4,14.8-3.4c0.3,0,0.5,0,0.8,0v0c2.9,0.1,5.7,0.6,8.3,1.5c2.9,1,5.5,2.5,7.8,4.3c2.3,1.9,4.2,4,5.7,6.5l0,0
			c0,0,0,0,0,0.1c3,4.9,8.3,8.1,14.1,8.1h13.8C201.5,174.9,199.6,168.8,196.7,163.6z"/>
	</g>
</g>
</svg>
