<?xml version="1.0" encoding="utf-8"?>
<!-- Generator: Adobe Illustrator 22.0.1, SVG Export Plug-In . SVG Version: 6.00 Build 0)  -->
<svg version="1.1" id="Layer_1" xmlns="http://www.w3.org/2000/svg" xmlns:xlink="http://www.w3.org/1999/xlink" x="0px" y="0px"
	 viewBox="0 0 410.4 410.4" style="enable-background:new 0 0 410.4 410.4;" xml:space="preserve">
<style type="text/css">
	.st0{fill:url(#SVGID_1_);}
	.st1{fill:url(#SVGID_2_);}
	.st2{fill:url(#SVGID_3_);}
	.st3{fill:url(#SVGID_4_);}
	.st4{fill:url(#SVGID_5_);}
	.st5{fill:url(#SVGID_6_);}
	.st6{fill:#FFFFFF;}
	.st7{fill:#33CCFF;}
	.st8{fill:#0099CC;}
	.st9{fill:#33CAFF;}
	.st10{opacity:5.000000e-02;fill:#F8F9F9;}
	.st11{fill:#00FFCA;}
	.st12{fill:#F5F5F5;}
	.st13{fill:#F2F2F2;}
	.st14{opacity:0.9;fill:#00FFFF;}
	.st15{fill:#15EBD6;}
	.st16{fill:#FFDB15;}
	.st17{fill:#FF99FF;}
	.st18{fill:#3366FF;}
	.st19{fill:#D1D1D1;}
	.st20{opacity:0.3;fill:#15EBD6;}
	.st21{fill:#333333;}
	.st22{fill:#FF6666;}
	.st23{opacity:0.1;fill:#485F64;}
	.st24{opacity:0.2;fill:#485F64;}
	.st25{opacity:5.000000e-02;fill:#485F64;}
	.st26{fill:#485F64;}
	.st27{opacity:0.95;fill:#485F64;}
	.st28{opacity:0.9;fill:#485F64;}
	.st29{opacity:0.7;fill:#485F64;}
	.st30{opacity:0.6;fill:#485F64;}
	.st31{opacity:0.8;fill:#485F64;}
	.st32{opacity:0.3;fill:#485F64;}
	.st33{opacity:0.5;fill:#485F64;}
	.st34{opacity:0.4;fill:#485F64;}
	.st35{fill:url(#SVGID_7_);}
	.st36{fill:url(#SVGID_8_);}
	.st37{fill:url(#SVGID_9_);}
	.st38{fill:url(#SVGID_10_);}
	.st39{fill:url(#SVGID_11_);}
	.st40{fill:url(#SVGID_12_);}
	.st41{fill:url(#SVGID_13_);}
	.st42{fill:url(#SVGID_14_);}
	.st43{fill:#9C9C9C;}
	.st44{fill:#221F1F;}
	.st45{fill:#06BC65;}
	.st46{fill:#1E1E1E;}
	.st47{fill:#FFFF5A;}
	.st48{fill:#F05A2A;}
	.st49{fill:#D661AA;}
	.st50{fill:#F7EA2F;}
	.st51{fill:#26A7DF;}
	.st52{fill:#EFE92B;}
	.st53{fill:#F9A0DC;}
	.st54{fill:#FF3951;}
	.st55{fill:#00FFCC;}
	.st56{clip-path:url(#SVGID_16_);}
	.st57{clip-path:url(#SVGID_18_);}
	.st58{fill:#FFC600;}
	.st59{clip-path:url(#SVGID_20_);}
	.st60{clip-path:url(#SVGID_22_);}
	.st61{clip-path:url(#SVGID_24_);}
	.st62{clip-path:url(#SVGID_26_);}
	.st63{fill:#0078BF;}
	.st64{clip-path:url(#SVGID_28_);}
	.st65{clip-path:url(#SVGID_30_);}
	.st66{clip-path:url(#SVGID_32_);}
	.st67{clip-path:url(#SVGID_34_);}
	.st68{clip-path:url(#SVGID_36_);}
	.st69{clip-path:url(#SVGID_38_);}
</style>
<path class="st6" d="M162.6,20.2l-0.4,0.2c0.3,0.3,0.7,0.5,1,0.8L162.6,20.2z"/>
<path class="st6" d="M168.8,47.7l-0.3,0.2c0.3,0.2,0.6,0.4,0.9,0.7L168.8,47.7z"/>
<g>
	<circle class="st6" cx="205.2" cy="205.2" r="183.2"/>
	<path class="st7" d="M205.2,0C91.9,0,0,91.9,0,205.2c0,113.3,91.9,205.2,205.2,205.2c113.3,0,205.2-91.9,205.2-205.2
		C410.4,91.9,318.5,0,205.2,0z M108.3,313.4c-12.2-13.5-21.5-29.4-28-47.7c-6.5-18.3-9.7-38-9.7-59.1c0-21.7,3.2-41.8,9.7-60.3
		c5.6-16,13.3-30.2,23.1-42.7l0,0c0,0,0,0,0,0c0.4-0.5,0.8-1,1.2-1.5c1.2-1.5,2.4-2.9,3.6-4.3c1.5-1.7,3.1-3.4,4.7-5.1
		c0.1-0.1,0.2-0.2,0.3-0.3c1.3-1.3,2.7-2.6,4-3.9c0.4-0.4,0.8-0.7,1.2-1.1c1-0.9,2-1.8,3-2.6c0.5-0.4,0.9-0.8,1.4-1.2
		c1-0.8,2-1.6,3-2.4c0.5-0.4,1-0.7,1.5-1.1c0.4-0.3,0.8-0.6,1.2-0.9c0,0,0,0,0.1,0c7.4-5.4,15.5-10,24.4-13.9
		c17.7-7.8,37.7-11.8,59.9-11.8c16,0,31.1,2.3,45.3,6.9c14.2,4.6,26.9,11.3,38.2,20.1c5.6,4.4,10.6,9.2,15.2,14.6
		c4.7,5.5,8.9,11.5,12.6,18.1c7.3,13,11.9,27.9,13.8,44.7h-34c-14.3,0-27.4-7.7-34.9-19.9c0-0.1-0.1-0.1-0.1-0.2l0,0
		c-3.8-6.1-8.5-11.4-14.2-16c-5.7-4.6-12.1-8.2-19.3-10.8c-6.6-2.4-13.4-3.6-20.5-3.8v0c-0.7,0-1.3,0-2,0c-14.4,0-26.5,2.8-36.5,8.3
		c-10,5.5-18.1,13-24.4,22.3c-0.7,1.1-1.4,2.2-2.1,3.3c-0.5,0.8-0.9,1.5-1.3,2.3c-0.2,0.3-0.4,0.6-0.5,0.9c-0.6,1-1.1,2-1.6,3.1
		c0,0.1-0.1,0.1-0.1,0.2c-0.6,1.1-1.1,2.2-1.6,3.4c-2.6,5.8-4.8,12.1-6.4,18.7c-2.8,11.9-4.3,24.2-4.3,36.9c0,12.2,1.4,24,4.3,35.5
		c2.8,11.5,7.4,21.9,13.6,31.1c6.2,9.2,14.3,16.6,24.4,22.1c10,5.6,22.2,8.3,36.5,8.3c0.8,0,1.7,0,2.5,0
		c-24.4,17.5-54.2,27.9-86.4,28.3C121.5,326.5,114.5,320.3,108.3,313.4z M327.9,287.8c-6.8,14.6-15.7,27.1-26.8,37.4
		c-11.1,10.3-24.1,18.1-39,23.5c-13.6,4.9-28.4,7.6-44.5,8c-1.5,0-3.1,0.1-4.7,0.1c-0.3,0-0.6,0-0.9,0c-15.1-0.1-29.1-1.9-42.1-5.6
		c28.6-8.4,53.7-24.9,72.6-46.9c2.4-2.8,4.8-5.8,7-8.8c2-2.3,4.1-4.6,6.2-6.8c1-0.9,2-1.9,2.9-2.9c0-0.1,0.1-0.1,0.1-0.2
		c4.5-4.3,9.2-8.4,14.1-12.2c19.2-14.6,42-24.8,66.9-28.9C337.9,260.4,334,274.8,327.9,287.8z"/>
</g>
</svg>
