<?xml version="1.0" encoding="utf-8"?>
<!-- Generator: Adobe Illustrator 22.0.1, SVG Export Plug-In . SVG Version: 6.00 Build 0)  -->
<svg version="1.1" xmlns="http://www.w3.org/2000/svg" xmlns:xlink="http://www.w3.org/1999/xlink" x="0px" y="0px"
	 viewBox="0 0 400 400" style="enable-background:new 0 0 400 400;" xml:space="preserve">
<style type="text/css">
	.st0{fill:#80E4FF;}
	.st1{display:none;}
	.st2{display:inline;}
	.st3{fill:none;stroke:#80E4FF;stroke-width:20;stroke-linecap:round;stroke-linejoin:round;stroke-miterlimit:10;}
	.st4{fill:none;stroke:#DCE0E6;stroke-width:20;stroke-linecap:round;stroke-linejoin:round;stroke-miterlimit:10;}
	.st5{fill:none;stroke:#000000;stroke-miterlimit:10;}
	.st6{fill:none;stroke:#80E4FF;stroke-width:10;stroke-linecap:round;stroke-linejoin:round;stroke-miterlimit:10;}
	.st7{fill:#DCE0E6;}
	.st8{fill:none;stroke:#80E4FF;stroke-width:20;stroke-linecap:round;stroke-miterlimit:10;}
	.st9{fill:none;stroke:#DCE0E6;stroke-width:10;stroke-linecap:round;stroke-linejoin:round;stroke-miterlimit:10;}
	.st10{fill:none;stroke:#000000;stroke-width:20;stroke-linecap:round;stroke-linejoin:round;stroke-miterlimit:10;}
	.st11{fill:none;stroke:#B3B3B3;stroke-width:20;stroke-linecap:round;stroke-miterlimit:10;}
	.st12{fill:none;stroke:#B3B3B3;stroke-width:20;stroke-linecap:round;stroke-linejoin:bevel;stroke-miterlimit:10;}
	.st13{fill:none;stroke:#DCE0E6;stroke-width:20;stroke-miterlimit:10;}
	.st14{fill:none;stroke:#80E4FF;stroke-width:15.4098;stroke-linecap:round;stroke-linejoin:round;stroke-miterlimit:10;}
	.st15{fill:none;stroke:#80E4FF;stroke-width:14.2609;stroke-linecap:round;stroke-linejoin:round;stroke-miterlimit:10;}
	.st16{fill:#80E4FF;stroke:#DCE0E6;stroke-width:20;stroke-miterlimit:10;}
	.st17{fill:none;}
	.st18{fill:none;stroke:#DCE0E6;stroke-width:20;stroke-linecap:round;stroke-miterlimit:10;}
	.st19{fill:none;stroke:#DCE0E6;stroke-width:21.6558;stroke-miterlimit:10;}
	.st20{fill:none;stroke:#DCE0E6;stroke-width:17.3894;stroke-linecap:round;stroke-miterlimit:10;}
</style>
<g id="FILL">
</g>
<g id="Inspo" class="st1">
</g>
<g id="Lighter_Lines">
</g>
<g id="Heavier_Lines">
</g>
<g id="Palette">
	<rect x="40.5" y="67.3" class="st17" width="274.8" height="280.9"/>
	<line class="st4" x1="229.5" y1="235.5" x2="323.5" y2="329.5"/>
	<circle class="st19" cx="153.5" cy="153.3" r="100.4"/>
	<g>
		<path class="st7" d="M180.7,182.3c-2.2,1.6-4.2,3.4-6.2,5.3c0,0,0,0-0.1,0.1c-0.4,0.4-0.8,0.9-1.3,1.3c-0.9,1-1.8,2-2.7,3
			c-1,1.3-2,2.6-3,3.8c-8.2,9.6-19.2,16.8-31.6,20.4c5.7,1.6,11.8,2.4,18.4,2.4c0.1,0,0.3,0,0.4,0c0.7,0,1.4,0,2,0
			c7-0.2,13.5-1.3,19.4-3.5c6.5-2.4,12.1-5.8,17-10.3c4.8-4.5,8.7-9.9,11.7-16.3c2.6-5.7,4.4-11.9,5.2-18.8
			C199,171.5,189.1,175.9,180.7,182.3z"/>
		<path class="st7" d="M203.1,112.5c-1.6-2.9-3.4-5.5-5.5-7.9c-2-2.3-4.2-4.5-6.6-6.4c-4.9-3.8-10.4-6.7-16.6-8.8
			c-6.2-2-12.8-3-19.7-3c-9.7,0-18.4,1.7-26.1,5.1c-3.8,1.7-7.4,3.7-10.6,6.1c0,0,0,0,0,0c-0.2,0.1-0.4,0.3-0.5,0.4
			c-0.2,0.2-0.4,0.3-0.6,0.5c-0.4,0.3-0.9,0.7-1.3,1c-0.2,0.2-0.4,0.3-0.6,0.5c-0.4,0.4-0.9,0.8-1.3,1.1c-0.2,0.2-0.4,0.3-0.5,0.5
			c-0.6,0.5-1.2,1.1-1.8,1.7c0,0-0.1,0.1-0.1,0.1c-0.7,0.7-1.4,1.4-2.1,2.2c-0.5,0.6-1.1,1.3-1.6,1.9c-0.2,0.2-0.4,0.4-0.5,0.7l0,0
			v0c-4.3,5.4-7.6,11.6-10.1,18.6c-2.8,8.1-4.2,16.8-4.2,26.3c0,9.2,1.4,17.8,4.2,25.7c2.8,8,6.9,14.9,12.2,20.8
			c2.7,3,5.8,5.7,9.1,8.1c14-0.2,27-4.7,37.6-12.3c-0.4,0-0.7,0-1.1,0c-6.3,0-11.6-1.2-15.9-3.6c-4.4-2.4-7.9-5.6-10.6-9.6
			c-2.7-4-4.7-8.5-5.9-13.5c-1.2-5-1.9-10.2-1.9-15.5c0-5.5,0.6-10.9,1.9-16.1c0.7-2.9,1.6-5.6,2.8-8.2c0.2-0.5,0.5-1,0.7-1.5
			c0,0,0-0.1,0-0.1c0.2-0.5,0.5-0.9,0.7-1.3c0.1-0.1,0.2-0.3,0.2-0.4c0.2-0.3,0.4-0.7,0.6-1c0.3-0.5,0.6-1,0.9-1.4
			c2.7-4.1,6.2-7.3,10.6-9.7c4.4-2.4,9.7-3.6,15.9-3.6c0.3,0,0.6,0,0.9,0v0c3.1,0.1,6.1,0.6,8.9,1.7c3.1,1.1,5.9,2.7,8.4,4.7
			c2.5,2,4.5,4.3,6.2,7l0,0c0,0,0,0.1,0,0.1c3.3,5.3,9,8.7,15.2,8.7h14.8C208.2,124.6,206.2,118.2,203.1,112.5z"/>
	</g>
</g>
</svg>
