<svg width="17px" height="16px" viewBox="0 0 17 16" version="1.1" xmlns="http://www.w3.org/2000/svg" xmlns:xlink="http://www.w3.org/1999/xlink">
    <defs></defs>
    <g id="Symbols" stroke="none" stroke-width="1" fill="none" fill-rule="evenodd">
        <g id="search-bar-header" transform="translate(-338.000000, -16.000000)" fill="#000000" fill-rule="nonzero">
            <g id="search-love">
                <path d="M354.618634,31.4313333 L349.173568,25.994 C350.126254,24.932 350.711085,23.5346667 350.711085,22 C350.711085,18.692 348.015257,16 344.702552,16 C341.389848,16 338.694019,18.692 338.694019,22 C338.694019,25.308 341.389848,28 344.702552,28 C346.238734,28 347.638054,27.416 348.701564,26.4653333 L354.14663,31.9026667 C354.212057,31.9673333 354.297511,32 354.382966,32 C354.468421,32 354.553875,31.9673333 354.618634,31.9026667 C354.748819,31.7726667 354.748819,31.5613333 354.618634,31.4313333 Z M348.496607,25.7486667 C348.464561,25.772 348.461891,25.7813333 348.455882,25.7893333 C347.490511,26.7426667 346.164628,27.3333333 344.702552,27.3333333 C341.757704,27.3333333 339.361634,24.9406667 339.361634,22 C339.361634,19.0593333 341.757704,16.6666667 344.702552,16.6666667 C347.647401,16.6666667 350.04347,19.0593333 350.04347,22 C350.04347,23.46 349.451963,24.784 348.496607,25.7486667 Z" id="Shape"></path>
            </g>
        </g>
    </g>
</svg>