<svg xmlns="http://www.w3.org/2000/svg" xmlns:xlink="http://www.w3.org/1999/xlink" viewBox="0 0 62 38"><defs><style>.cls-1{fill:none;}.cls-2{clip-path:url(#clip-path);}.cls-3{fill:#9b9b9b;}.cls-4{clip-path:url(#clip-path-2);}.cls-5{clip-path:url(#clip-path-3);}.cls-6{clip-path:url(#clip-path-4);}.cls-7{clip-path:url(#clip-path-5);}.cls-8{clip-path:url(#clip-path-6);}.cls-9{clip-path:url(#clip-path-7);}.cls-10{clip-path:url(#clip-path-8);}.cls-11{clip-path:url(#clip-path-9);}.cls-12{clip-path:url(#clip-path-10);}.cls-13{fill:#979797;}</style><clipPath id="clip-path"><rect class="cls-1" x="1" y="1" width="60" height="36" rx="2" ry="2"/></clipPath><clipPath id="clip-path-2"><rect class="cls-1" x="5" y="5" width="16" height="8"/></clipPath><clipPath id="clip-path-3"><rect class="cls-1" x="5" y="15" width="16" height="8"/></clipPath><clipPath id="clip-path-4"><rect class="cls-1" x="5" y="25" width="16" height="8"/></clipPath><clipPath id="clip-path-5"><rect class="cls-1" x="23" y="5" width="16" height="8"/></clipPath><clipPath id="clip-path-6"><rect class="cls-1" x="23" y="15" width="16" height="8"/></clipPath><clipPath id="clip-path-7"><rect class="cls-1" x="23" y="25" width="16" height="8"/></clipPath><clipPath id="clip-path-8"><rect class="cls-1" x="41" y="5" width="16" height="8"/></clipPath><clipPath id="clip-path-9"><rect class="cls-1" x="41" y="15" width="16" height="8"/></clipPath><clipPath id="clip-path-10"><rect class="cls-1" x="41" y="25" width="16" height="8"/></clipPath></defs><title>Short-unselected</title><g id="Layer_2" data-name="Layer 2"><g id="Layer_1-2" data-name="Layer 1"><g class="cls-2"><path class="cls-3" d="M59,38H3a3,3,0,0,1-3-3V3A3,3,0,0,1,3,0H59a3,3,0,0,1,3,3V35A3,3,0,0,1,59,38ZM3,2A1,1,0,0,0,2,3V35a1,1,0,0,0,1,1H59a1,1,0,0,0,1-1V3a1,1,0,0,0-1-1Z"/></g><g class="cls-4"><path class="cls-3" d="M22,14H4V4H22ZM6,12H20V6H6Z"/></g><g class="cls-5"><path class="cls-3" d="M22,24H4V14H22ZM6,22H20V16H6Z"/></g><g class="cls-6"><path class="cls-3" d="M22,34H4V24H22ZM6,32H20V26H6Z"/></g><g class="cls-7"><path class="cls-3" d="M40,14H22V4H40ZM24,12H38V6H24Z"/></g><g class="cls-8"><path class="cls-3" d="M40,24H22V14H40ZM24,22H38V16H24Z"/></g><g class="cls-9"><path class="cls-3" d="M40,34H22V24H40ZM24,32H38V26H24Z"/></g><g class="cls-10"><path class="cls-3" d="M58,14H40V4H58ZM42,12H56V6H42Z"/></g><g class="cls-11"><path class="cls-3" d="M58,24H40V14H58ZM42,22H56V16H42Z"/></g><g class="cls-12"><path class="cls-3" d="M58,34H40V24H58ZM42,32H56V26H42Z"/></g><path class="cls-13" d="M9,10.5A1.5,1.5,0,1,1,10.5,9,1.5,1.5,0,0,1,9,10.5Zm0-2a.5.5,0,1,0,.5.5A.5.5,0,0,0,9,8.5Z"/><path class="cls-13" d="M27,10.5A1.5,1.5,0,1,1,28.5,9,1.5,1.5,0,0,1,27,10.5Zm0-2a.5.5,0,1,0,.5.5A.5.5,0,0,0,27,8.5Z"/><path class="cls-13" d="M9,20.5A1.5,1.5,0,1,1,10.5,19,1.5,1.5,0,0,1,9,20.5Zm0-2a.5.5,0,1,0,.5.5A.5.5,0,0,0,9,18.5Z"/><path class="cls-13" d="M27,20.5A1.5,1.5,0,1,1,28.5,19,1.5,1.5,0,0,1,27,20.5Zm0-2a.5.5,0,1,0,.5.5A.5.5,0,0,0,27,18.5Z"/><path class="cls-13" d="M9,30.5A1.5,1.5,0,1,1,10.5,29,1.5,1.5,0,0,1,9,30.5Zm0-2a.5.5,0,1,0,.5.5A.5.5,0,0,0,9,28.5Z"/><path class="cls-13" d="M27,30.5A1.5,1.5,0,1,1,28.5,29,1.5,1.5,0,0,1,27,30.5Zm0-2a.5.5,0,1,0,.5.5A.5.5,0,0,0,27,28.5Z"/><path class="cls-13" d="M45,10.5A1.5,1.5,0,1,1,46.5,9,1.5,1.5,0,0,1,45,10.5Zm0-2a.5.5,0,1,0,.5.5A.5.5,0,0,0,45,8.5Z"/><path class="cls-13" d="M45,20.5A1.5,1.5,0,1,1,46.5,19,1.5,1.5,0,0,1,45,20.5Zm0-2a.5.5,0,1,0,.5.5A.5.5,0,0,0,45,18.5Z"/><path class="cls-13" d="M45,30.5A1.5,1.5,0,1,1,46.5,29,1.5,1.5,0,0,1,45,30.5Zm0-2a.5.5,0,1,0,.5.5A.5.5,0,0,0,45,28.5Z"/></g></g></svg>