<?xml version="1.0" encoding="utf-8"?>
<!-- Generator: Adobe Illustrator 22.0.1, SVG Export Plug-In . SVG Version: 6.00 Build 0)  -->
<svg version="1.1" xmlns="http://www.w3.org/2000/svg" xmlns:xlink="http://www.w3.org/1999/xlink" x="0px" y="0px"
	 viewBox="0 0 513.8 118.3" style="enable-background:new 0 0 513.8 118.3;" xml:space="preserve">
<style type="text/css">
	.st0{display:none;}
	.st1{display:inline;fill:#33CCFF;}
	.st2{display:none;opacity:0.5;}
	.st3{display:inline;}
	.st4{opacity:0.5;fill:#33CCFF;}
	.st5{display:inline;opacity:0.5;}
	.st6{fill:#33CCFF;}
	.st7{fill:url(#SVGID_1_);}
	.st8{fill:url(#SVGID_2_);}
	.st9{fill:url(#SVGID_3_);}
	.st10{fill:url(#SVGID_4_);}
	.st11{fill:url(#SVGID_5_);}
	.st12{fill:url(#SVGID_6_);}
	.st13{fill:url(#SVGID_7_);}
	.st14{fill:#FFFFFF;}
	.st15{fill:#0099CC;}
	.st16{fill:#33CAFF;}
	.st17{opacity:5.000000e-02;fill:#F8F9F9;}
	.st18{fill:#00FFCA;}
	.st19{fill:#F5F5F5;}
	.st20{fill:#F2F2F2;}
	.st21{opacity:0.9;fill:#00FFFF;}
	.st22{fill:#15EBD6;}
	.st23{fill:#FFDB15;}
	.st24{fill:#FF99FF;}
	.st25{fill:#3366FF;}
	.st26{fill:#D1D1D1;}
	.st27{opacity:0.3;fill:#15EBD6;}
	.st28{fill:#919D9D;}
	.st29{fill:#FF6666;}
	.st30{opacity:0.1;fill:#33CCFF;}
	.st31{opacity:0.2;fill:#33CCFF;}
	.st32{opacity:5.000000e-02;fill:#33CCFF;}
	.st33{opacity:0.95;fill:#33CCFF;}
	.st34{opacity:0.9;fill:#33CCFF;}
	.st35{opacity:0.7;fill:#33CCFF;}
	.st36{opacity:0.6;fill:#33CCFF;}
	.st37{opacity:0.8;fill:#33CCFF;}
	.st38{opacity:0.3;fill:#33CCFF;}
	.st39{opacity:0.4;fill:#33CCFF;}
	.st40{fill:url(#SVGID_8_);}
	.st41{fill:url(#SVGID_9_);}
	.st42{fill:url(#SVGID_10_);}
	.st43{fill:url(#SVGID_11_);}
	.st44{fill:url(#SVGID_12_);}
	.st45{fill:url(#SVGID_13_);}
	.st46{fill:url(#SVGID_14_);}
	.st47{fill:url(#SVGID_15_);}
	.st48{fill:url(#SVGID_16_);}
	.st49{fill:url(#SVGID_17_);}
	.st50{fill:url(#SVGID_18_);}
	.st51{fill:url(#SVGID_19_);}
	.st52{fill:url(#SVGID_20_);}
	.st53{fill:url(#SVGID_21_);}
	.st54{fill:url(#SVGID_22_);}
	.st55{fill:url(#SVGID_23_);}
	.st56{fill:url(#SVGID_24_);}
	.st57{fill:#485F64;}
	.st58{fill:#9C9C9C;}
	.st59{fill:#221F1F;}
	.st60{fill:#06BC65;}
	.st61{fill:#1E1E1E;}
	.st62{fill:#FFFF5A;}
	.st63{fill:#F05A2A;}
	.st64{fill:#D661AA;}
	.st65{fill:#F7EA2F;}
	.st66{fill:#26A7DF;}
	.st67{fill:#EFE92B;}
	.st68{fill:#F9A0DC;}
	.st69{fill:#FF3951;}
	.st70{fill:#4EDCCA;}
	.st71{fill:#FFC600;}
	.st72{clip-path:url(#SVGID_26_);}
	.st73{clip-path:url(#SVGID_28_);}
	.st74{fill:#0078BF;}
	.st75{clip-path:url(#SVGID_30_);}
	.st76{clip-path:url(#SVGID_32_);}
	.st77{fill:#F9A4D8;}
	.st78{clip-path:url(#SVGID_34_);}
	.st79{clip-path:url(#SVGID_36_);}
	.st80{fill:url(#SVGID_37_);}
	.st81{fill:url(#SVGID_38_);}
	.st82{clip-path:url(#SVGID_40_);}
	.st83{clip-path:url(#SVGID_42_);}
	.st84{clip-path:url(#SVGID_44_);}
	.st85{clip-path:url(#SVGID_46_);}
	.st86{clip-path:url(#SVGID_48_);}
	.st87{clip-path:url(#SVGID_50_);}
	.st88{fill:url(#SVGID_51_);}
	.st89{fill:url(#SVGID_52_);}
	.st90{fill:url(#SVGID_53_);}
	.st91{fill:url(#SVGID_54_);}
	.st92{fill:url(#SVGID_55_);}
	.st93{fill:url(#SVGID_56_);}
	.st94{fill:url(#SVGID_57_);}
	.st95{fill:url(#SVGID_58_);}
	.st96{fill:#363636;}
	.st97{fill:#474747;}
	.st98{fill:#444444;}
	.st99{fill:#5E5E5E;}
	.st100{clip-path:url(#SVGID_60_);fill:url(#SVGID_61_);}
	.st101{clip-path:url(#SVGID_60_);}
	.st102{opacity:0.5;fill:#009DC1;}
	.st103{clip-path:url(#SVGID_63_);fill:url(#SVGID_64_);}
	.st104{opacity:0.5;clip-path:url(#SVGID_63_);}
	.st105{clip-path:url(#SVGID_63_);}
	.st106{clip-path:url(#SVGID_66_);fill:url(#SVGID_67_);}
	.st107{opacity:0.77;clip-path:url(#SVGID_66_);}
	.st108{fill:#038478;}
	.st109{clip-path:url(#SVGID_66_);}
	.st110{clip-path:url(#SVGID_69_);fill:url(#SVGID_70_);}
	.st111{opacity:0.5;clip-path:url(#SVGID_69_);}
	.st112{fill:#EA3D3D;}
	.st113{clip-path:url(#SVGID_69_);}
	.st114{clip-path:url(#SVGID_72_);fill:url(#SVGID_73_);}
	.st115{clip-path:url(#SVGID_72_);}
	.st116{opacity:0.47;}
	.st117{fill:#29B29E;}
	.st118{opacity:0.3;}
	.st119{clip-path:url(#SVGID_75_);fill:url(#SVGID_76_);}
	.st120{opacity:0.5;clip-path:url(#SVGID_75_);}
	.st121{clip-path:url(#SVGID_75_);}
</style>
<g id="Layer_3" class="st0">
</g>
<g id="Layer_2" class="st2">
</g>
<g id="Layer_1">
	<g>
		<defs>
			<rect id="SVGID_71_" width="513.8" height="118.3"/>
		</defs>
		<clipPath id="SVGID_1_">
			<use xlink:href="#SVGID_71_"  style="overflow:visible;"/>
		</clipPath>
		<linearGradient id="SVGID_2_" gradientUnits="userSpaceOnUse" x1="0" y1="59.1443" x2="513.7979" y2="59.1443">
			<stop  offset="0" style="stop-color:#FFC600"/>
			<stop  offset="1" style="stop-color:#4EDCCA"/>
		</linearGradient>
		<rect style="clip-path:url(#SVGID_1_);fill:url(#SVGID_2_);" width="513.8" height="118.3"/>
		<g style="clip-path:url(#SVGID_1_);">
			<g class="st116">
				<path class="st117" d="M487.5,95.3c-0.6,0.6-0.6,1.5,0,2.1c0.3,0.3,0.7,0.4,1.1,0.4c0.4,0,0.8-0.1,1.1-0.4
					c0.6-0.6,0.6-1.5,0-2.1C489,94.7,488.1,94.7,487.5,95.3z"/>
				<path class="st117" d="M507.6,115.5c-0.6,0.6-0.6,1.5,0,2.1c0.3,0.3,0.7,0.4,1.1,0.4c0.4,0,0.8-0.1,1.1-0.4
					c0.6-0.6,0.6-1.5,0-2.1C509.2,114.9,508.2,114.9,507.6,115.5z"/>
				<path class="st117" d="M548.2,70.6l-16.9-16.9c-0.6-0.6-1.5-0.6-2.1,0l-9.5,9.5c0,0,0,0,0,0c0,0,0,0,0,0l-9.2,9.2c0,0,0,0,0,0
					c0,0,0,0,0,0l-7.2,7.2c-0.6,0.6-0.6,1.5,0,2.1l7.4,7.4l-2.3,2.3l-18.8-18.8c-0.6-0.6-1.5-0.6-2.1,0l-3.1,3.1l-2.3-2.3
					c-0.6-0.6-1.5-0.6-2.1,0l-0.4,0.4l-3.2-3.2c-0.6-0.6-1.5-0.6-2.1,0l-11,10.9c-0.3,0.3-0.4,0.7-0.4,1.1s0.2,0.8,0.4,1.1l3.2,3.2
					l-0.9,0.9c-0.6,0.6-0.6,1.5,0,2.1l2.3,2.3l-2.9,2.9c-0.3,0.3-0.4,0.7-0.4,1.1s0.2,0.8,0.4,1.1l18.8,18.8l-2.3,2.3l-7.4-7.4
					c-0.6-0.6-1.5-0.6-2.1,0l-17.8,17.8c0,0,0,0,0,0s0,0,0,0l-8.1,8.1c-0.6,0.6-0.6,1.5,0,2.1l8.4,8.4c0,0,0,0,0,0c0,0,0,0,0,0
					l8.4,8.5c0.3,0.3,0.7,0.4,1.1,0.4c0.4,0,0.8-0.2,1.1-0.4l8.1-8.1c0,0,0,0,0,0c0,0,0,0,0,0l17.8-17.8c0.3-0.3,0.4-0.7,0.4-1.1
					s-0.1-0.8-0.4-1.1l-7.4-7.4l2.3-2.3l18.8,18.8c0.3,0.3,0.7,0.4,1.1,0.4c0.4,0,0.8-0.2,1.1-0.4l2.8-2.8l2,2
					c0.3,0.3,0.7,0.4,1.1,0.4c0.4,0,0.8-0.2,1.1-0.4l0.8-0.8l2.6,2.6c0.3,0.3,0.7,0.4,1.1,0.4c0.4,0,0.8-0.1,1.1-0.4l10.9-10.9
					c0.6-0.6,0.6-1.5,0-2.1l-2.6-2.6l0.5-0.5c0.6-0.6,0.6-1.5,0-2.1l-2-2l3.2-3.2c0.6-0.6,0.6-1.5,0-2.1l-18.8-18.8l2.3-2.3l7.4,7.4
					c0.3,0.3,0.7,0.4,1.1,0.4c0.4,0,0.8-0.1,1.1-0.4l16.4-16.4c0,0,0,0,0,0c0,0,0,0,0,0l9.5-9.5C548.8,72.1,548.8,71.2,548.2,70.6z
					 M473.1,114l6.3,6.3l-6.5,6.5l-6.3-6.3L473.1,114z M472.2,144.5l-6.3-6.3l7.1-7.1l6.3,6.3L472.2,144.5z M463.8,136l-6.3-6.3
					l7.1-7.1l6.3,6.3L463.8,136z M455.3,131.8l6.3,6.3l-6,6l-6.3-6.3L455.3,131.8z M464.1,152.6l-6.3-6.3l6-6l6.3,6.3L464.1,152.6z
					 M481.4,135.3l-6.3-6.3l6.5-6.5l6.3,6.3L481.4,135.3z M468.6,84.8l-2.1-2.1l8.8-8.8l2.1,2.1l-4.5,4.5L468.6,84.8z M468.8,88.9
					l11.5-11.5l0.3-0.3l0,0l0.3-0.4l1.2,1.2l-12.2,12.2L468.8,88.9z M525.6,124.3l1.6,1.5l-8.8,8.8l-1.5-1.5l2.4-2.4L525.6,124.3z
					 M525,120.7l-0.4,0.4c0,0,0,0,0,0l-5.5,5.5l-6.2,6.2l-1-1l11.8-11.8l0.4-0.4L525,120.7z M522.9,116.5
					C522.9,116.5,522.9,116.5,522.9,116.5l-7,7l-10.2,10.2l-6.3-6.3c0,0,0.1,0,0.1,0l0.3-0.1l0.3-0.1l0.2-0.2l0.2-0.2
					c0.1-0.1,0.1-0.2,0.1-0.3c0-0.1,0.1-0.2,0.1-0.3c0-0.1,0-0.2,0-0.3c0-0.4-0.2-0.8-0.4-1.1l-0.2-0.2l-0.3-0.1l-0.3-0.1
					c-0.2,0-0.4,0-0.6,0l-0.3,0.1l-0.3,0.1l-0.2,0.2c-0.2,0.2-0.4,0.6-0.4,0.9L487.1,115c0,0,0-0.1-0.1-0.1c0,0-0.1,0-0.1-0.1
					l-7.6-7.6c0,0,0.1,0,0.1,0c0.1,0,0.2-0.1,0.3-0.1c0.1,0,0.2-0.1,0.3-0.1l0.2-0.2l0.2-0.2c0-0.1,0.1-0.2,0.1-0.3l0.1-0.3
					c0-0.1,0-0.2,0-0.3c0-0.4-0.2-0.8-0.4-1.1c-0.6-0.6-1.6-0.6-2.1,0c-0.2,0.2-0.4,0.6-0.4,0.9l-9.4-9.4l2.5-2.5
					c0.2-0.1,0.3-0.2,0.5-0.3L485.5,79c0.1-0.1,0.2-0.3,0.3-0.4l2.8-2.8l9.7,9.7l-0.1,0c-0.2,0-0.4,0-0.6,0c-0.1,0-0.2,0.1-0.3,0.1
					l-0.3,0.1l-0.2,0.2l-0.2,0.2l-0.1,0.2c0,0.1-0.1,0.2-0.1,0.3c0,0.1,0,0.2,0,0.3c0,0.4,0.2,0.8,0.4,1.1l0.2,0.2l0.3,0.1
					c0.1,0,0.2,0.1,0.3,0.1c0.1,0,0.2,0,0.3,0c0.1,0,0.2,0,0.3,0l0.3-0.1c0.1,0,0.2-0.1,0.3-0.1L499,88c0.3-0.3,0.4-0.7,0.4-1.1
					c0-0.1,0-0.3-0.1-0.4l8,8c0,0,0,0,0,0c0,0,0,0,0,0l11.1,11.1c-0.5-0.1-1.1,0-1.5,0.3c-0.3,0.3-0.4,0.7-0.4,1.1
					c0,0.4,0.2,0.8,0.4,1.1c0.3,0.3,0.7,0.4,1.1,0.4c0.4,0,0.8-0.2,1.1-0.4c0.3-0.3,0.4-0.7,0.4-1.1c0-0.1,0-0.3-0.1-0.4l6.6,6.6
					L522.9,116.5z M530.2,56.9l6.3,6.3l-7.4,7.4l-6.3-6.3L530.2,56.9z M528.4,88.3l-6.3-6.3l7.1-7.1l6.3,6.3L528.4,88.3z M520,79.8
					l-6.3-6.3l7.1-7.1l6.3,6.3L520,79.8z M511.5,75.6l6.3,6.3l-5,5l-6.3-6.3L511.5,75.6z M521.2,95.5l-6.3-6.3l5-5l6.3,6.3
					L521.2,95.5z M537.6,79.1l-6.3-6.3l7.4-7.4l6.3,6.3L537.6,79.1z"/>
			</g>
			<g class="st118">
				<path class="st117" d="M468.7-6.8c-15.6,0-28.2,12.7-28.2,28.2s12.7,28.2,28.2,28.2c15.6,0,28.2-12.7,28.2-28.2
					S484.2-6.8,468.7-6.8L468.7-6.8z M468.7,51.9c-16.8,0-30.4-13.7-30.4-30.5C438.2,4.7,451.9-9,468.7-9
					c16.8,0,30.5,13.7,30.5,30.5C499.1,38.2,485.5,51.9,468.7,51.9L468.7,51.9z M468.7-14c-19.6,0-35.5,15.9-35.5,35.5
					c0,19.6,15.9,35.5,35.5,35.5c19.6,0,35.5-15.9,35.5-35.5C504.1,1.9,488.2-14,468.7-14L468.7-14z M468.7,59.2
					c-20.8,0-37.7-16.9-37.7-37.7c0-20.8,16.9-37.7,37.7-37.7s37.7,16.9,37.7,37.7C506.4,42.2,489.5,59.2,468.7,59.2L468.7,59.2z"/>
				<path class="st117" d="M450.8,10.2c-2.1,3.4-3.2,7.2-3.2,11.2c0,11.6,9.5,21.1,21.1,21.1c11.6,0,21.1-9.5,21.1-21.1
					c0-4-1.1-7.9-3.2-11.2l-4.3,3c1.5,2.5,2.3,5.3,2.3,8.2c0,8.8-7.1,15.9-15.9,15.9c-8.8,0-15.9-7.1-15.9-15.9
					c0-2.9,0.8-5.7,2.3-8.2L450.8,10.2L450.8,10.2z M468.7,44.8c-12.9,0-23.3-10.5-23.3-23.3c0-4.8,1.5-9.5,4.3-13.5
					c0.2-0.2,0.4-0.4,0.7-0.5c0.3-0.1,0.6,0,0.8,0.2l6.1,4.3c0.2,0.2,0.4,0.4,0.5,0.7c0.1,0.3,0,0.6-0.2,0.8c-1.6,2.3-2.5,5-2.5,7.9
					c0,7.5,6.1,13.7,13.7,13.7c7.5,0,13.7-6.1,13.7-13.7c0-2.8-0.9-5.5-2.5-7.9c-0.2-0.2-0.2-0.5-0.2-0.8c0.1-0.3,0.2-0.6,0.5-0.7
					l6.1-4.3c0.2-0.2,0.5-0.2,0.8-0.2c0.3,0,0.6,0.2,0.7,0.5c2.8,4,4.3,8.6,4.3,13.5C492,34.3,481.5,44.8,468.7,44.8L468.7,44.8z"/>
				<path class="st117" d="M466.1,20.3h5.2v-17h-5.2V20.3L466.1,20.3z M472.4,22.6h-7.4c-0.6,0-1.1-0.5-1.1-1.1V2.3
					c0-0.6,0.5-1.1,1.1-1.1h7.4c0.6,0,1.1,0.5,1.1,1.1v19.2C473.5,22.1,473,22.6,472.4,22.6L472.4,22.6z"/>
				<path class="st117" d="M308.3,90.6c-0.6,0-1.1-0.5-1.1-1.1V53.4H268v12.9c0,0.6-0.5,1.1-1.1,1.1H254V89c0,0.6-0.5,1.1-1.1,1.1
					c-0.6,0-1.1-0.5-1.1-1.1V66.3c0-0.6,0.5-1.1,1.1-1.1h12.9V52.3c0-0.6,0.5-1.1,1.1-1.1h41.5c0.6,0,1.1,0.5,1.1,1.1v37.3
					C309.5,90.1,309,90.6,308.3,90.6L308.3,90.6z"/>
				<path class="st117" d="M255.6,65.2h10.2V55L255.6,65.2L255.6,65.2z M266.9,67.4h-14c-0.4,0-0.9-0.3-1-0.7
					c-0.2-0.4-0.1-0.9,0.2-1.2l14-14.1c0.3-0.3,0.8-0.4,1.2-0.2c0.4,0.2,0.7,0.6,0.7,1v14.1C268,66.9,267.5,67.4,266.9,67.4
					L266.9,67.4z"/>
				<path class="st117" d="M318.5,126.8h-74.9c-0.6,0-1.1-0.5-1.1-1.1V83.1c0-0.4,0.2-0.8,0.5-1l9.3-5.7c0.5-0.3,1.2-0.2,1.5,0.4
					c0.3,0.5,0.2,1.2-0.4,1.5l-8.7,5.3v40.8h72.6V83.8l-9.6-5.9c-0.5-0.3-0.7-1-0.4-1.5c0.3-0.5,1-0.7,1.5-0.4l10.2,6.2
					c0.3,0.2,0.5,0.6,0.5,1v42.5C319.6,126.3,319.1,126.8,318.5,126.8L318.5,126.8z"/>
				<path class="st117" d="M318.5,126.8c-0.2,0-0.4,0-0.6-0.1l-74.9-42.5c-0.5-0.3-0.7-1-0.4-1.5c0.3-0.5,1-0.7,1.5-0.4l74.9,42.5
					c0.5,0.3,0.7,1,0.4,1.5C319.3,126.6,318.9,126.8,318.5,126.8L318.5,126.8z"/>
				<path class="st117" d="M243.6,126.8c-0.4,0-0.8-0.2-1-0.6c-0.3-0.5-0.1-1.2,0.4-1.5l74.9-42.5c0.5-0.3,1.2-0.1,1.5,0.4
					c0.3,0.5,0.1,1.2-0.4,1.5l-74.9,42.5C244,126.7,243.8,126.8,243.6,126.8L243.6,126.8z"/>
				<path class="st117" d="M269,77.1h23V74h-23V77.1L269,77.1z M293.2,79.4h-25.3c-0.6,0-1.1-0.5-1.1-1.1v-5.3
					c0-0.6,0.5-1.1,1.1-1.1h25.3c0.6,0,1.1,0.5,1.1,1.1v5.3C294.3,78.9,293.8,79.4,293.2,79.4L293.2,79.4z"/>
				<path class="st117" d="M269,86.5h23.1v-3.1H269V86.5L269,86.5z M293.2,88.7h-25.3c-0.6,0-1.1-0.5-1.1-1.1v-5.3
					c0-0.6,0.5-1.1,1.1-1.1h25.3c0.6,0,1.1,0.5,1.1,1.1v5.3C294.3,88.2,293.8,88.7,293.2,88.7L293.2,88.7z"/>
				<path class="st117" d="M27.3,61.5c-0.3,0-0.6,0.3-0.6,0.6v42.1c0,0.3,0.3,0.6,0.6,0.6h54.4c0.3,0,0.6-0.3,0.6-0.6V62.1
					c0-0.3-0.3-0.6-0.6-0.6H27.3L27.3,61.5z M81.6,107.4H27.3c-1.8,0-3.3-1.5-3.3-3.3V62.1c0-1.8,1.5-3.3,3.3-3.3h54.4
					c1.8,0,3.3,1.5,3.3,3.3v42.1C84.9,106,83.4,107.4,81.6,107.4L81.6,107.4z"/>
				<path class="st117" d="M31.2,100.4h46.4V65.9H31.2V100.4L31.2,100.4z M79,103H29.9c-0.7,0-1.3-0.6-1.3-1.3V64.6
					c0-0.7,0.6-1.3,1.3-1.3H79c0.7,0,1.3,0.6,1.3,1.3v37.1C80.3,102.4,79.7,103,79,103L79,103z"/>
				<path class="st117" d="M49.7,112.3h9.5v-4.9h-9.5V112.3L49.7,112.3z M60.5,115H48.4c-0.7,0-1.3-0.6-1.3-1.3v-7.5
					c0-0.7,0.6-1.3,1.3-1.3h12.1c0.7,0,1.3,0.6,1.3,1.3v7.5C61.8,114.4,61.2,115,60.5,115L60.5,115z"/>
				<path class="st117" d="M42.9,117.6h23c-0.6-1.5-2-2.6-3.7-2.6H46.6C44.9,115,43.5,116.1,42.9,117.6L42.9,117.6z M67.5,120.3
					H41.4c-0.7,0-1.3-0.6-1.3-1.3c0-3.6,3-6.6,6.6-6.6h15.6c3.6,0,6.6,3,6.6,6.6C68.8,119.7,68.2,120.3,67.5,120.3L67.5,120.3z"/>
				<path class="st117" d="M52.9,96.1c0.6,0,1.3,0,1.9,0l-0.3-1.9c-0.1-0.7,0.4-1.4,1.1-1.5c1.1-0.2,2.2-0.6,3.2-1.2
					c0.3-0.2,0.7-0.2,1-0.1c0.3,0.1,0.6,0.3,0.8,0.6l1,1.7c0.5-0.4,1-0.8,1.4-1.2l-1.5-1.2c-0.3-0.2-0.4-0.6-0.5-0.9
					c0-0.4,0.1-0.7,0.3-1c0.7-0.9,1.3-1.8,1.7-2.9c0.2-0.7,1-1,1.7-0.8l1.8,0.7c0.2-0.6,0.3-1.3,0.3-1.9l-1.9,0
					c-0.3,0-0.7-0.1-1-0.4c-0.2-0.3-0.4-0.6-0.4-0.9c0-1.1-0.2-2.3-0.6-3.4c-0.1-0.3-0.1-0.7,0-1c0.2-0.3,0.4-0.6,0.7-0.7l1.8-0.7
					c-0.3-0.6-0.6-1.1-1-1.6l-1.5,1.3c-0.3,0.2-0.6,0.3-1,0.3c-0.3,0-0.7-0.2-0.9-0.5c-0.7-0.9-1.6-1.6-2.6-2.2
					c-0.6-0.4-0.9-1.2-0.5-1.8l1-1.7c-0.6-0.3-1.2-0.5-1.8-0.6L57,72.3c-0.1,0.3-0.2,0.7-0.5,0.9c-0.3,0.2-0.6,0.3-1,0.2
					c-1.2-0.2-2.2-0.2-3.4,0c-0.3,0.1-0.7,0-1-0.2c-0.3-0.2-0.5-0.5-0.6-0.9l-0.3-1.9c-0.6,0.2-1.2,0.4-1.8,0.7l1,1.7
					c0.4,0.6,0.2,1.5-0.5,1.8c-1,0.6-1.9,1.3-2.6,2.2c-0.5,0.6-1.3,0.6-1.9,0.2L43,75.7c-0.4,0.5-0.7,1.1-1,1.6l1.8,0.7
					c0.3,0.1,0.6,0.4,0.8,0.7c0.2,0.3,0.2,0.7,0,1c-0.4,1.1-0.6,2.2-0.6,3.3l0,0.1c0,0.7-0.6,1.3-1.3,1.3l-1.9,0
					c0.1,0.6,0.2,1.3,0.3,1.9l1.8-0.7c0.7-0.3,1.5,0.1,1.7,0.8c0.4,1.1,1,2.1,1.7,2.9c0.5,0.6,0.4,1.4-0.2,1.9l-1.5,1.2
					c0.5,0.4,0.9,0.8,1.4,1.2l1-1.7c0.2-0.3,0.5-0.5,0.8-0.6c0.3-0.1,0.7,0,1,0.1c1,0.6,2.1,1,3.2,1.2c0.7,0.1,1.2,0.8,1.1,1.5
					L52.9,96.1L52.9,96.1z M53.8,98.8c-0.9,0-1.8-0.1-2.7-0.2c-0.3-0.1-0.7-0.3-0.9-0.5c-0.2-0.3-0.3-0.6-0.2-1l0.4-2
					c-0.5-0.2-1.1-0.3-1.6-0.6l-1,1.8c-0.2,0.3-0.5,0.5-0.8,0.6c-0.3,0.1-0.7,0-1-0.1c-1.6-0.9-3-2.1-4.2-3.5
					c-0.5-0.6-0.4-1.4,0.2-1.9l1.6-1.3c-0.3-0.5-0.6-0.9-0.8-1.4l-2,0.7c-0.7,0.3-1.5-0.1-1.7-0.8c-0.6-1.7-1-3.5-1-5.4
					c0-0.7,0.6-1.3,1.3-1.3l2.1,0c0.1-0.5,0.2-1.1,0.3-1.6l-2-0.7c-0.7-0.3-1-1-0.8-1.7c0.6-1.7,1.5-3.3,2.7-4.7
					c0.5-0.6,1.3-0.6,1.9-0.2l1.6,1.3c0.4-0.4,0.8-0.7,1.3-1.1l-1-1.8c-0.4-0.6-0.2-1.5,0.5-1.8c1.6-0.9,3.3-1.6,5.1-1.9
					c0.3-0.1,0.7,0,1,0.2c0.3,0.2,0.5,0.5,0.6,0.9l0.4,2c0.6,0,1.1,0,1.7,0l0.4-2c0.1-0.7,0.8-1.2,1.5-1.1c1.8,0.3,3.5,0.9,5.1,1.9
					c0.3,0.2,0.5,0.5,0.6,0.8c0.1,0.3,0,0.7-0.1,1l-1,1.8c0.5,0.3,0.9,0.7,1.3,1.1l1.6-1.3c0.6-0.5,1.4-0.4,1.9,0.2
					c1.2,1.4,2.1,3,2.8,4.7c0.3,0.7-0.1,1.5-0.8,1.7L65.9,80c0.1,0.5,0.2,1.1,0.3,1.7l2.1,0c0.4,0,0.7,0.1,1,0.4
					c0.3,0.3,0.4,0.6,0.4,0.9c0,1.9-0.3,3.7-1,5.4c-0.1,0.3-0.4,0.6-0.7,0.8c-0.3,0.2-0.7,0.2-1,0l-2-0.7c-0.2,0.5-0.5,1-0.8,1.4
					l1.6,1.3c0.3,0.2,0.4,0.6,0.5,0.9c0,0.4-0.1,0.7-0.3,1c-1.2,1.4-2.6,2.6-4.2,3.5c-0.3,0.2-0.7,0.2-1,0.1
					c-0.3-0.1-0.6-0.3-0.8-0.6l-1-1.8c-0.5,0.2-1,0.4-1.6,0.6l0.4,2c0.1,0.3,0,0.7-0.2,1c-0.2,0.3-0.5,0.5-0.9,0.5
					C55.7,98.7,54.8,98.8,53.8,98.8L53.8,98.8z"/>
				<path class="st117" d="M-6,74.1h22.3V38.9H-6V74.1L-6,74.1z M17.6,76.8H-7.4c-0.7,0-1.3-0.6-1.3-1.3V37.6c0-0.7,0.6-1.3,1.3-1.3
					h24.9c0.7,0,1.3,0.6,1.3,1.3v37.8C18.9,76.2,18.3,76.8,17.6,76.8L17.6,76.8z"/>
				<path class="st117" d="M-6,36.3h22.3v-2.2c0-1-0.8-1.8-1.8-1.8H-4.2c-1,0-1.8,0.8-1.8,1.8V36.3L-6,36.3z M17.6,38.9H-7.4
					c-0.7,0-1.3-0.6-1.3-1.3v-3.5c0-2.5,2-4.5,4.5-4.5h18.7c2.5,0,4.5,2,4.5,4.5v3.5C18.9,38.3,18.3,38.9,17.6,38.9L17.6,38.9z"/>
				<path class="st117" d="M-6,76.8v2c0,1,0.8,1.8,1.8,1.8h18.7c1,0,1.8-0.8,1.8-1.8v-2H-6L-6,76.8z M14.4,83.3H-4.2
					c-2.5,0-4.5-2-4.5-4.5v-3.4c0-0.7,0.6-1.3,1.3-1.3h24.9c0.7,0,1.3,0.6,1.3,1.3v3.4C18.9,81.2,16.9,83.3,14.4,83.3L14.4,83.3z"/>
				<path class="st117" d="M7.1,35.6h-4c-0.7,0-1.3-0.6-1.3-1.3c0-0.7,0.6-1.3,1.3-1.3h4c0.7,0,1.3,0.6,1.3,1.3
					C8.4,35,7.8,35.6,7.1,35.6L7.1,35.6z"/>
				<path class="st117" d="M7.1,80h-4c-0.7,0-1.3-0.6-1.3-1.3c0-0.7,0.6-1.3,1.3-1.3h4c0.7,0,1.3,0.6,1.3,1.3
					C8.4,79.4,7.8,80,7.1,80L7.1,80z"/>
				<path class="st117" d="M23.3,105.2H-0.4c-0.7,0-1.3-0.6-1.3-1.3V84c0-0.7,0.6-1.3,1.3-1.3c0.7,0,1.3,0.6,1.3,1.3v18.5h22.4
					c0.7,0,1.3,0.6,1.3,1.3C24.6,104.6,24,105.2,23.3,105.2L23.3,105.2z"/>
				<path class="st117" d="M4.2,89.5c-0.4,0-0.7-0.1-1-0.4l-3.6-4L-4,89c-0.5,0.5-1.3,0.6-1.9,0.1c-0.5-0.5-0.6-1.3-0.1-1.9l4.6-5.1
					c0.5-0.6,1.5-0.6,2,0l4.6,5.1c0.5,0.5,0.4,1.4-0.1,1.9C4.8,89.4,4.5,89.5,4.2,89.5L4.2,89.5z"/>
				<path class="st117" d="M18.5,109.8c-0.4,0-0.7-0.2-1-0.4c-0.5-0.5-0.4-1.4,0.1-1.9l4-3.6l-4-3.6C17,99.8,17,99,17.5,98.4
					c0.5-0.5,1.3-0.6,1.9-0.1l5.1,4.6c0.3,0.3,0.4,0.6,0.4,1s-0.2,0.7-0.4,1l-5.1,4.6C19.1,109.7,18.8,109.8,18.5,109.8L18.5,109.8z
					"/>
				<path class="st117" d="M53.9,60c-0.7,0-1.3-0.6-1.3-1.3V40.2H18.7c-0.7,0-1.3-0.6-1.3-1.3c0-0.7,0.6-1.3,1.3-1.3h35.3
					c0.7,0,1.3,0.6,1.3,1.3v19.9C55.3,59.4,54.7,60,53.9,60L53.9,60z"/>
				<path class="st117" d="M53.9,61.1c-0.4,0-0.7-0.2-1-0.4l-4.6-5.1c-0.5-0.5-0.4-1.4,0.1-1.9c0.5-0.5,1.4-0.4,1.9,0.1l3.6,4l3.6-4
					c0.5-0.5,1.3-0.6,1.9-0.1c0.5,0.5,0.6,1.3,0.1,1.9l-4.6,5.1C54.7,60.9,54.3,61.1,53.9,61.1L53.9,61.1z"/>
				<path class="st117" d="M23.5,44.8c-0.3,0-0.6-0.1-0.9-0.3l-5.1-4.6c-0.3-0.3-0.4-0.6-0.4-1c0-0.4,0.2-0.7,0.4-1l5.1-4.6
					c0.6-0.5,1.4-0.4,1.9,0.1c0.5,0.5,0.4,1.4-0.1,1.9l-4,3.6l4,3.6c0.6,0.5,0.6,1.3,0.1,1.9C24.2,44.6,23.8,44.8,23.5,44.8
					L23.5,44.8z"/>
				<path class="st117" d="M0,64.8h10.2V49.6H0V64.8L0,64.8z M11.5,67.4H-1.3c-0.7,0-1.3-0.6-1.3-1.3V48.2c0-0.7,0.6-1.3,1.3-1.3
					h12.9c0.7,0,1.3,0.6,1.3,1.3v17.9C12.9,66.8,12.3,67.4,11.5,67.4L11.5,67.4z"/>
				<path class="st117" d="M371.7,10.1c-2.9,0-5.7,1.1-7.8,3.2c-2.1,2.1-3.2,4.8-3.2,7.8c0,2.9,1.1,5.7,3.2,7.8s4.8,3.2,7.8,3.2
					c2.9,0,5.7-1.1,7.8-3.2s3.2-4.8,3.2-7.8c0-2.9-1.1-5.7-3.2-7.8C377.4,11.3,374.6,10.1,371.7,10.1L371.7,10.1z M371.7,34.3
					c-3.4,0-6.8-1.3-9.4-3.9c-2.5-2.5-3.9-5.8-3.9-9.4s1.4-6.9,3.9-9.4c5.2-5.2,13.6-5.2,18.7,0c5.2,5.2,5.2,13.6,0,18.7
					C378.5,33.1,375.1,34.3,371.7,34.3L371.7,34.3z"/>
				<path class="st117" d="M356.9,44.2l15.3,4.1c0.4-1,1-1.9,1.8-2.7c1.5-1.5,3.5-2.3,5.7-2.3c1.8,0,3.5,0.6,5,1.7l11-11
					c-2.5-3.1-2.3-7.7,0.6-10.6c0.8-0.8,1.8-1.4,2.8-1.8L395,6.9c-2.5,0.4-5.1-0.4-6.9-2.2c-1.9-1.9-2.7-4.7-2.2-7.3l-15.2-4.1
					c-0.4,1-1,1.9-1.7,2.7c-1.5,1.5-3.5,2.3-5.7,2.3c-1.8,0-3.5-0.6-4.9-1.7L347.1,7.9c1.1,1.4,1.7,3.1,1.7,4.9
					c0,2.1-0.8,4.1-2.3,5.7c-0.7,0.7-1.5,1.3-2.5,1.7l4.1,15.3c2.4-0.3,4.8,0.6,6.5,2.3C356.3,39.4,357.2,41.8,356.9,44.2
					L356.9,44.2z M372.9,50.8c-0.1,0-0.2,0-0.3,0l-17.3-4.7c-0.6-0.2-0.9-0.8-0.8-1.3c0.5-2-0.1-4-1.5-5.5c-1.4-1.4-3.5-2-5.5-1.5
					c-0.6,0.1-1.2-0.2-1.3-0.8l-4.6-17.2c-0.2-0.6,0.2-1.2,0.8-1.4c1-0.3,1.8-0.8,2.5-1.5c1.1-1.1,1.7-2.5,1.7-4.1
					c0-1.5-0.6-3-1.7-4.1l-0.1-0.1c-0.2-0.2-0.3-0.5-0.3-0.8c0-0.3,0.1-0.6,0.3-0.8l12.8-12.8c0.2-0.2,0.5-0.3,0.8-0.3
					c0.3,0,0.6,0.1,0.8,0.4l0.1,0.1c1.1,1.1,2.5,1.7,4.1,1.7c1.5,0,3-0.6,4.1-1.7c0.7-0.7,1.3-1.7,1.5-2.7c0.1-0.3,0.3-0.5,0.5-0.7
					c0.3-0.2,0.6-0.2,0.9-0.1l17.4,4.7c0.3,0.1,0.6,0.3,0.7,0.6c0.1,0.3,0.2,0.6,0.1,0.9c-0.8,2.1-0.3,4.5,1.3,6.1
					c1.5,1.5,3.8,2.1,5.8,1.4c0.3-0.1,0.6-0.1,0.9,0.1c0.3,0.1,0.5,0.4,0.5,0.7l4.5,16.8c0.1,0.3,0,0.6-0.1,0.9
					c-0.2,0.3-0.4,0.4-0.7,0.5c-1.1,0.2-2.1,0.8-2.8,1.5c-2.2,2.2-2.2,5.9,0,8.1l0.1,0.1c0.2,0.2,0.4,0.5,0.4,0.8
					c0,0.3-0.1,0.6-0.3,0.8l-12.5,12.5c-0.2,0.2-0.5,0.3-0.8,0.3c-0.3,0-0.6-0.1-0.8-0.3l-0.1-0.1c-1.1-1.1-2.5-1.7-4.1-1.7
					c-1.5,0-3,0.6-4.1,1.7c-0.7,0.7-1.3,1.7-1.5,2.7c-0.1,0.3-0.3,0.6-0.5,0.7C373.3,50.7,373.1,50.8,372.9,50.8L372.9,50.8z"/>
				<path class="st117" d="M340.8,7.1c-1.5,0-2.9,0.6-4.1,1.7c-1.1,1.1-1.7,2.5-1.7,4.1c0,1.5,0.6,3,1.7,4.1c1.5,1.5,3.6,2,5.6,1.5
					c1-0.3,1.8-0.8,2.5-1.5c1.1-1.1,1.7-2.5,1.7-4.1c0-1.5-0.6-3-1.7-4.1l-0.1-0.1l0,0C343.7,7.6,342.2,7.1,340.8,7.1L340.8,7.1z
					 M340.8,20.8c-2.1,0-4.1-0.8-5.7-2.3c-1.5-1.5-2.3-3.5-2.3-5.7c0-2.1,0.8-4.1,2.3-5.7c3.1-3.1,8.1-3.1,11.2-0.1l0.1,0.1
					c1.5,1.5,2.3,3.5,2.3,5.7c0,2.1-0.8,4.1-2.3,5.7c-1,1-2.2,1.7-3.5,2C342.2,20.7,341.5,20.8,340.8,20.8L340.8,20.8z"/>
				<path class="st117" d="M340.7,11c-0.4,0-0.9,0.2-1.2,0.5c-0.3,0.3-0.5,0.7-0.5,1.2c0,0.4,0.2,0.9,0.5,1.2
					c0.4,0.4,1.1,0.6,1.6,0.4c0.3-0.1,0.5-0.2,0.7-0.4c0.3-0.3,0.5-0.7,0.5-1.2c0-0.5-0.2-0.9-0.5-1.2l0,0
					C341.5,11.2,341.1,11,340.7,11L340.7,11z M340.7,16.6c-1,0-2-0.4-2.8-1.1s-1.2-1.7-1.2-2.8c0-1,0.4-2,1.2-2.8
					c1.5-1.5,3.9-1.5,5.5-0.1l0.1,0.1c0.8,0.8,1.2,1.7,1.2,2.8c0,1-0.4,2-1.2,2.8c-0.5,0.5-1.1,0.8-1.7,1
					C341.4,16.6,341,16.6,340.7,16.6L340.7,16.6z"/>
				<path class="st117" d="M348.9,41.7c-0.4,0-0.9,0.2-1.2,0.5c-0.7,0.7-0.7,1.7,0,2.4c0.4,0.4,1.1,0.6,1.6,0.4
					c0.3-0.1,0.5-0.2,0.7-0.4c0.7-0.7,0.7-1.7,0-2.4l0,0C349.8,41.8,349.4,41.7,348.9,41.7L348.9,41.7z M348.9,47.3
					c-1,0-2-0.4-2.8-1.1c-1.5-1.5-1.5-4,0-5.5c1.5-1.5,3.9-1.5,5.5-0.1l0.1,0.1c1.5,1.5,1.5,4,0,5.6c-0.5,0.5-1.1,0.8-1.7,1
					C349.6,47.2,349.3,47.3,348.9,47.3L348.9,47.3z"/>
				<path class="st117" d="M379.6,49.6c-0.4,0-0.9,0.2-1.2,0.5c-0.7,0.7-0.7,1.7,0,2.4c0.4,0.4,1.1,0.6,1.6,0.4
					c0.3-0.1,0.5-0.2,0.7-0.4c0.7-0.7,0.7-1.7,0-2.4l0,0C380.5,49.8,380,49.6,379.6,49.6L379.6,49.6z M379.6,55.2
					c-1,0-2-0.4-2.8-1.1c-1.5-1.5-1.5-4,0-5.5c1.5-1.5,3.9-1.5,5.5-0.1l0,0.1c1.6,1.5,1.6,4,0,5.6c-0.5,0.5-1.1,0.8-1.7,1
					C380.3,55.2,380,55.2,379.6,55.2L379.6,55.2z"/>
				<path class="st117" d="M401.8,27.4c-0.4,0-0.9,0.2-1.2,0.5c-0.7,0.7-0.7,1.7,0,2.4c0.4,0.4,1.1,0.6,1.6,0.4
					c0.3-0.1,0.5-0.2,0.7-0.4c0.7-0.7,0.7-1.7,0-2.4l0.8-0.8l-0.8,0.8C402.6,27.6,402.2,27.4,401.8,27.4L401.8,27.4z M401.8,33
					c-1,0-2-0.4-2.8-1.1c-1.5-1.5-1.5-4,0-5.5c1.5-1.5,4-1.5,5.5-0.1l0.1,0.1c1.5,1.5,1.5,4,0,5.6c-0.5,0.5-1.1,0.8-1.7,1
					C402.5,33,402.2,33,401.8,33L401.8,33z"/>
				<path class="st117" d="M393.8-2.6c-0.4,0-0.9,0.2-1.2,0.5c-0.3,0.3-0.5,0.7-0.5,1.2c0,0.4,0.2,0.9,0.5,1.2
					c0.4,0.4,1.1,0.6,1.6,0.4c0.3-0.1,0.5-0.2,0.7-0.4c0.3-0.3,0.5-0.7,0.5-1.2c0-0.5-0.2-0.9-0.5-1.2l0,0
					C394.6-2.5,394.2-2.6,393.8-2.6L393.8-2.6z M393.8,3c-1,0-2-0.4-2.8-1.1c-0.7-0.7-1.2-1.7-1.2-2.8c0-1.1,0.4-2,1.2-2.8
					c1.5-1.5,3.9-1.5,5.5-0.1l0.1,0.1c0.7,0.7,1.1,1.7,1.1,2.8c0,1-0.4,2-1.2,2.8c-0.5,0.5-1.1,0.8-1.7,1C394.5,2.9,394.1,3,393.8,3
					L393.8,3z"/>
				<path class="st117" d="M388.9-5.8L388.9-5.8L388.9-5.8L388.9-5.8z M393.8-6.7c-1.5,0-3,0.6-4.1,1.7l0,0c-0.6,0.6-1,1.3-1.3,2
					c-0.8,2.1-0.3,4.5,1.3,6.1c1.5,1.5,3.8,2.1,5.8,1.4c0.9-0.3,1.7-0.8,2.3-1.4c2.2-2.2,2.2-5.9,0-8.1
					C396.7-6.1,395.3-6.7,393.8-6.7L393.8-6.7z M393.7,7c-2.1,0-4.1-0.8-5.6-2.3c-2.2-2.2-2.9-5.5-1.8-8.5c0.4-1.1,1-2,1.8-2.8l0,0
					c1.5-1.5,3.5-2.3,5.7-2.3c2.1,0,4.1,0.8,5.7,2.3c3.1,3.1,3.1,8.2,0,11.3c-0.9,0.9-2,1.6-3.2,2C395.4,6.9,394.6,7,393.7,7
					L393.7,7z"/>
				<path class="st117" d="M347.3,36.7L347.3,36.7L347.3,36.7L347.3,36.7z M349,37.6c-0.5,0-1,0.1-1.4,0.2c-1,0.3-1.9,0.8-2.7,1.5
					c-1.1,1.1-1.7,2.5-1.7,4.1c0,1.5,0.6,3,1.7,4.1c2.2,2.2,5.9,2.2,8.1,0c0.7-0.7,1.3-1.6,1.5-2.7c0.5-2-0.1-4-1.5-5.5
					C351.9,38.2,350.5,37.6,349,37.6L349,37.6z M348.9,51.3c-2,0-4.1-0.8-5.7-2.3c-1.5-1.5-2.3-3.5-2.3-5.7c0-2.1,0.8-4.1,2.3-5.6
					c1-1,2.3-1.7,3.7-2.1c2.7-0.7,5.6,0.1,7.6,2.1c2,2,2.8,4.8,2.1,7.6c-0.4,1.4-1.1,2.7-2.1,3.7C353,50.6,351,51.3,348.9,51.3
					L348.9,51.3z"/>
				<path class="st117" d="M375.5,47.2c-0.7,0.7-1.3,1.7-1.5,2.7c-0.5,2,0.1,4,1.5,5.4c1.1,1.1,2.5,1.7,4.1,1.7c1.5,0,3-0.6,4.1-1.7
					c2.2-2.2,2.3-5.7,0.1-8l-0.1-0.1c-1.1-1.1-2.5-1.7-4.1-1.7C378.1,45.5,376.6,46.1,375.5,47.2L375.5,47.2z M379.6,59.3
					c-2.1,0-4.1-0.8-5.7-2.3c-2-2-2.8-4.8-2.1-7.5c0.3-1.4,1.1-2.8,2.1-3.8c1.5-1.5,3.5-2.3,5.7-2.3c2.1,0,4.1,0.8,5.7,2.3l0.1,0.1
					c3,3.2,3,8.1-0.1,11.2C383.8,58.4,381.8,59.3,379.6,59.3L379.6,59.3z"/>
				<path class="st117" d="M400.3,22.4L400.3,22.4L400.3,22.4L400.3,22.4z M401.8,23.3c-0.4,0-0.8,0-1.3,0.1
					c-1.1,0.2-2.1,0.8-2.8,1.5c-2.2,2.2-2.2,5.9,0,8.1l0.1,0.1c2.3,2.2,5.8,2.1,8-0.1c1.1-1.1,1.7-2.5,1.7-4.1c0-1.5-0.6-3-1.7-4.1
					C404.8,23.9,403.3,23.3,401.8,23.3L401.8,23.3z M401.8,37.1c-2,0-3.9-0.7-5.5-2.2l-0.1-0.1c-3.1-3.1-3.1-8.2,0-11.3
					c1.1-1.1,2.4-1.8,3.9-2.2c2.7-0.6,5.4,0.2,7.4,2.2c1.5,1.5,2.3,3.5,2.3,5.7c0,2.1-0.8,4.1-2.3,5.7
					C405.9,36.3,403.9,37.1,401.8,37.1L401.8,37.1z"/>
				<path class="st117" d="M395.2,28.3c-0.1,0-0.2,0-0.3,0l-11.7-3.1c-0.6-0.2-0.9-0.8-0.8-1.4c0.2-0.6,0.8-0.9,1.4-0.8l11.7,3.1
					c0.6,0.2,0.9,0.8,0.8,1.4C396.1,28,395.7,28.3,395.2,28.3L395.2,28.3z"/>
				<path class="st117" d="M360,18.9c-0.1,0-0.2,0-0.3,0l-12.6-3.4c-0.6-0.2-0.9-0.8-0.8-1.4c0.2-0.6,0.8-0.9,1.4-0.8l12.6,3.4
					c0.6,0.2,0.9,0.8,0.8,1.4C361,18.6,360.5,18.9,360,18.9L360,18.9z"/>
				<path class="st117" d="M377.8,45.8c-0.5,0-0.9-0.3-1.1-0.8l-3.2-11.8c-0.2-0.6,0.2-1.2,0.8-1.4c0.6-0.2,1.2,0.2,1.4,0.8
					l3.2,11.8c0.2,0.6-0.2,1.2-0.8,1.4C378,45.7,377.9,45.8,377.8,45.8L377.8,45.8z"/>
				<path class="st117" d="M368.4,10.6c-0.5,0-0.9-0.3-1.1-0.8l-3.2-12.1c-0.2-0.6,0.2-1.2,0.8-1.4c0.6-0.2,1.2,0.2,1.4,0.8
					l3.2,12.1c0.2,0.6-0.2,1.2-0.8,1.4C368.6,10.5,368.5,10.6,368.4,10.6L368.4,10.6z"/>
				<path class="st117" d="M380,13.4c-0.3,0-0.6-0.1-0.8-0.3c-0.4-0.4-0.4-1.1,0-1.6l8.7-8.7c0.4-0.4,1.1-0.4,1.6,0
					c0.4,0.4,0.4,1.1,0,1.6l-8.7,8.7C380.6,13.3,380.3,13.4,380,13.4L380,13.4z"/>
				<path class="st117" d="M353.8,39.6c-0.3,0-0.6-0.1-0.8-0.3c-0.4-0.4-0.4-1.1,0-1.6l9.1-9.1c0.4-0.4,1.1-0.4,1.6,0
					c0.4,0.4,0.4,1.1,0,1.6l-9.1,9.1C354.4,39.5,354.1,39.6,353.8,39.6L353.8,39.6z"/>
				<path class="st117" d="M370.8,27.4L370.8,27.4c-0.5,0-0.9-0.3-1-0.7l-2.6-6.2c-0.2-0.6,0-1.2,0.6-1.5c0.6-0.2,1.2,0,1.5,0.6
					l1.7,4.1l4.1-7.5c0.3-0.5,1-0.7,1.5-0.5c0.5,0.3,0.7,1,0.5,1.5l-5.2,9.6C371.6,27.2,371.2,27.4,370.8,27.4L370.8,27.4z"/>
				<path class="st117" d="M315.9,31L315.9,31c-0.6,0-1.1-0.5-1.1-1.1l0-0.3c0-0.3,0-0.7,0-1c0-23.2-18.9-42.1-42.1-42.1
					c-0.6,0-1.1-0.5-1.1-1.1c0-0.6,0.5-1.1,1.1-1.1c24.4,0,44.3,19.9,44.3,44.3c0,0.4,0,0.7,0,1.1l0,0.3C317,30.6,316.5,31,315.9,31
					L315.9,31z"/>
				<path class="st117" d="M307.6,31.1L307.6,31.1c-0.7,0-1.1-0.5-1.1-1.2c0-0.4,0-0.9,0-1.3c0-18.6-15.2-33.8-33.8-33.9
					c-0.6,0-1.1-0.5-1.1-1.1c0-0.6,0.5-1.1,1.1-1.1l0,0c19.9,0,36,16.2,36,36.1c0,0.5,0,1,0,1.4C308.7,30.6,308.2,31.1,307.6,31.1
					L307.6,31.1z"/>
				<path class="st117" d="M307.6,31.1L307.6,31.1c-0.7,0-1.1-0.5-1.1-1.2c0-0.4,0-0.9,0-1.3c0-18.6-15.2-33.8-33.8-33.9
					c-0.6,0-1.1-0.5-1.1-1.1c0-0.6,0.5-1.1,1.1-1.1l0,0c19.9,0,36,16.2,36,36.1c0,0.5,0,1,0,1.4C308.7,30.6,308.2,31.1,307.6,31.1
					L307.6,31.1z"/>
				<path class="st117" d="M299.5,31.1L299.5,31.1c-0.7,0-1.1-0.6-1.1-1.2c0-0.4,0-0.9,0-1.3c0-14.2-11.5-25.7-25.7-25.7
					c-0.6,0-1.1-0.5-1.1-1.1c0-0.6,0.5-1.1,1.1-1.1c15.4,0,27.9,12.5,27.9,27.9c0,0.5,0,1,0,1.5C300.6,30.6,300.1,31.1,299.5,31.1
					L299.5,31.1z"/>
				<path class="st117" d="M299.5,31.1L299.5,31.1c-0.7,0-1.1-0.6-1.1-1.2c0-0.4,0-0.9,0-1.3c0-14.2-11.5-25.7-25.7-25.7
					c-0.6,0-1.1-0.5-1.1-1.1c0-0.6,0.5-1.1,1.1-1.1c15.4,0,27.9,12.5,27.9,27.9c0,0.5,0,1,0,1.5C300.6,30.6,300.1,31.1,299.5,31.1
					L299.5,31.1z"/>
				<path class="st117" d="M291.3,31.2L291.3,31.2c-0.7-0.1-1.2-0.6-1.1-1.2c0-0.5,0.1-0.9,0.1-1.4c0-9.7-7.9-17.5-17.5-17.5
					c-0.6,0-1.1-0.5-1.1-1.1s0.5-1.1,1.1-1.1c10.9,0,19.8,8.9,19.8,19.7c0,0.5,0,1-0.1,1.6C292.3,30.7,291.9,31.2,291.3,31.2
					L291.3,31.2z"/>
				<path class="st117" d="M276,21.3c-2,0-3.7,1.6-3.7,3.7c0,2,1.6,3.7,3.7,3.7c2,0,3.7-1.6,3.7-3.7C279.6,23,278,21.3,276,21.3
					L276,21.3z M276,30.9c-3.3,0-5.9-2.6-5.9-5.9c0-3.2,2.6-5.9,5.9-5.9c3.2,0,5.9,2.6,5.9,5.9C281.9,28.2,279.2,30.9,276,30.9
					L276,30.9z"/>
				<path class="st117" d="M132.8,122.3h61.8V83.1l-30.9-22.9l-30.9,22.9V122.3L132.8,122.3z M195.7,124.5h-64
					c-0.6,0-1.1-0.5-1.1-1.1V82.5c0-0.3,0.2-0.7,0.5-0.9l32-23.7c0.4-0.3,0.9-0.3,1.3,0l32,23.7c0.3,0.2,0.5,0.5,0.5,0.9v40.9
					C196.8,124,196.3,124.5,195.7,124.5L195.7,124.5z"/>
				<path class="st117" d="M163.1,107.7L163.1,107.7c-0.5,0-0.9-0.3-1.1-0.8l-4.4-12.9c-0.2-0.6,0.1-1.2,0.7-1.4
					c0.6-0.2,1.2,0.1,1.4,0.7l3.5,10.2l7.5-17.1c0.3-0.6,0.9-0.8,1.5-0.6c0.6,0.2,0.8,0.9,0.6,1.5l-8.7,19.7
					C163.9,107.5,163.5,107.7,163.1,107.7L163.1,107.7z"/>
				<path class="st117" d="M163.7,78.3c-10.1,0-18.4,8.3-18.4,18.4c0,2.1,0.4,4.3,1.1,6.3c2.7,7.2,9.6,12.1,17.3,12.1
					c10.1,0,18.4-8.3,18.4-18.4S173.8,78.3,163.7,78.3L163.7,78.3L163.7,78.3z M163.7,117.4c-8.6,0-16.4-5.4-19.3-13.5
					c-0.8-2.3-1.3-4.7-1.3-7.1c0-11.4,9.2-20.6,20.6-20.6l0,0c11.4,0,20.6,9.3,20.6,20.6C184.3,108.1,175,117.4,163.7,117.4
					L163.7,117.4z"/>
				<path class="st117" d="M367.1,108.8c-4.2,0-7.7,3.6-7.7,8s3.4,8,7.7,8h55.7c4.2,0,7.7-3.6,7.7-8c0-3.8-2.6-7.1-6.1-7.9
					c-0.6-0.1-0.9-0.6-0.9-1.2l0-0.1c0-0.2,0.1-0.3,0.2-0.5c1.3-2.1,2-4.5,2-7c0-6.9-5.4-12.5-12-12.5c-3,0-5.9,1.2-8.2,3.4
					c-0.3,0.3-0.8,0.4-1.2,0.3c-0.4-0.1-0.7-0.5-0.7-0.9c-0.7-5.7-5.3-10-10.8-10c-4.3,0-8.2,2.6-10,6.7c-0.2,0.5-0.7,0.8-1.3,0.6
					c-0.8-0.2-1.7-0.3-2.5-0.3c-6.6,0-11.9,5.6-11.9,12.5c0,2.5,0.7,5,2.1,7.1c0.2,0.3,0.2,0.8,0.1,1.1c-0.2,0.4-0.6,0.6-1,0.6
					H367.1L367.1,108.8z M422.8,127.1h-55.7c-5.5,0-9.9-4.6-9.9-10.3c0-5.5,4.2-10,9.4-10.3c-1-2-1.5-4.3-1.5-6.6
					c0-8.1,6.3-14.7,14.1-14.7c0.7,0,1.4,0.1,2.1,0.2c2.3-4.4,6.8-7.3,11.6-7.3c6,0,11.1,4.2,12.7,10c2.4-1.8,5.2-2.7,8.2-2.7
					c7.8,0,14.2,6.6,14.2,14.7c0,2.5-0.6,4.9-1.7,7c3.8,1.5,6.4,5.3,6.4,9.6C432.7,122.5,428.3,127.1,422.8,127.1L422.8,127.1z"/>
				<path class="st117" d="M395,99.8c-14.4,0-26.2,11.8-26.2,26.2c0,6.7,2.5,13.1,7.1,18c5,5.3,11.8,8.2,19.1,8.2
					c7.3,0,14.1-2.9,19.1-8.3c4.6-4.9,7.1-11.3,7.1-18C421.3,111.5,409.5,99.8,395,99.8L395,99.8z M395,154.4
					c-7.9,0-15.3-3.2-20.7-9c-5-5.3-7.7-12.2-7.7-19.5c0-15.7,12.8-28.4,28.4-28.4c15.7,0,28.4,12.8,28.4,28.4
					c0,7.3-2.7,14.2-7.7,19.5C410.3,151.3,403,154.4,395,154.4L395,154.4z"/>
				<path class="st117" d="M394.8,154.4c-8.2,0-14.6-12.5-14.6-28.4c0-15.9,6.4-28.4,14.6-28.4c0.6,0,1.1,0.5,1.1,1.1
					c0,0.6-0.5,1.1-1.1,1.1c-6.7,0-12.4,12-12.4,26.2c0,14.2,5.7,26.2,12.4,26.2c0.6,0,1.1,0.5,1.1,1.1
					C395.9,153.9,395.4,154.4,394.8,154.4L394.8,154.4z"/>
				<path class="st117" d="M395,154.4c-0.6,0-1.1-0.5-1.1-1.1c0-0.6,0.5-1.1,1.1-1.1c6.7,0,12.4-12,12.4-26.2
					c0-14.2-5.7-26.2-12.4-26.2c-0.6,0-1.1-0.5-1.1-1.1c0-0.6,0.5-1.1,1.1-1.1c8.2,0,14.6,12.5,14.6,28.4
					C409.7,141.9,403.2,154.4,395,154.4L395,154.4z"/>
				<path class="st117" d="M395,154.4c-0.6,0-1.1-0.5-1.1-1.1V98.7c0-0.6,0.5-1.1,1.1-1.1c0.6,0,1.1,0.5,1.1,1.1v54.7
					C396.2,153.9,395.7,154.4,395,154.4L395,154.4z"/>
				<path class="st117" d="M393.5,85.7c-0.9,0-1.6,0.7-1.6,1.6c0,0.9,0.7,1.6,1.6,1.6c0.9,0,1.6-0.7,1.6-1.6
					C395.1,86.4,394.4,85.7,393.5,85.7L393.5,85.7z M393.5,91.2c-2.1,0-3.8-1.7-3.8-3.8c0-2.1,1.7-3.8,3.8-3.8
					c2.1,0,3.8,1.7,3.8,3.8C397.4,89.4,395.6,91.2,393.5,91.2L393.5,91.2z"/>
				<path class="st117" d="M416.9,95c-0.9,0-1.6,0.7-1.6,1.6c0,0.9,0.7,1.6,1.6,1.6c0.9,0,1.6-0.7,1.6-1.6
					C418.5,95.7,417.8,95,416.9,95L416.9,95z M416.9,100.5c-2.1,0-3.8-1.7-3.8-3.8s1.7-3.8,3.8-3.8c2.1,0,3.8,1.7,3.8,3.8
					S419,100.5,416.9,100.5L416.9,100.5z"/>
				<path class="st117" d="M211.6,25.6c-4.8,0-8.6-3.9-8.6-8.6c0-0.6,0.5-1.1,1.1-1.1c0.6,0,1.1,0.5,1.1,1.1c0,3.5,2.9,6.4,6.4,6.4
					c3.5,0,6.4-2.9,6.4-6.4c0-3.5-2.9-6.4-6.4-6.4c-0.6,0-1.1-0.5-1.1-1.1c0-0.6,0.5-1.1,1.1-1.1c4.8,0,8.6,3.9,8.6,8.6
					S216.4,25.6,211.6,25.6L211.6,25.6z"/>
				<path class="st117" d="M210.5,17c0-0.6,0.5-1.1,1.1-1.1c0.6,0,1.1,0.5,1.1,1.1c0,0.6-0.5,1.1-1.1,1.1
					C211,18.1,210.5,17.6,210.5,17L210.5,17z"/>
				<path class="st117" d="M209.6,35.2c1.4,0.2,2.8,0.2,4.2,0l-0.6-3.3c-0.1-0.6,0.3-1.2,0.9-1.3c1.6-0.3,3.1-0.8,4.5-1.7
					c0.3-0.1,0.6-0.2,0.8-0.1c0.3,0.1,0.5,0.3,0.7,0.5l1.7,2.9c1.2-0.8,2.2-1.7,3.2-2.7l-2.6-2.2c-0.5-0.4-0.5-1.1-0.1-1.6
					c1-1.2,1.8-2.6,2.4-4.2c0.2-0.6,0.9-0.9,1.4-0.7l3.2,1.2c0.3-1.1,0.6-2.3,0.7-3.5c0-0.2,0-0.5,0.1-0.7l-3.4,0h0
					c-0.3,0-0.6-0.1-0.8-0.3c-0.2-0.2-0.3-0.5-0.3-0.8c0-1.6-0.3-3.2-0.9-4.8c-0.1-0.3-0.1-0.6,0-0.9c0.1-0.3,0.3-0.5,0.6-0.6
					l3.2-1.2c-0.6-1.3-1.3-2.5-2.1-3.6L223.9,8c-0.5,0.4-1.2,0.3-1.6-0.1c-1-1.2-2.3-2.3-3.7-3.1c-0.5-0.3-0.7-1-0.4-1.5l1.7-2.9
					c-1.3-0.6-2.6-1.1-3.9-1.4l-0.6,3.3c-0.1,0.3-0.2,0.6-0.5,0.7c-0.2,0.2-0.5,0.2-0.8,0.2c-1.7-0.3-3.1-0.3-4.8,0
					c-0.3,0.1-0.6,0-0.8-0.2c-0.2-0.2-0.4-0.4-0.5-0.7l-0.6-3.3c-1.4,0.3-2.7,0.8-3.9,1.4l1.7,2.9c0.3,0.5,0.1,1.2-0.4,1.5
					c-1.4,0.8-2.7,1.9-3.7,3.1c-0.4,0.5-1.1,0.5-1.6,0.1l-2.6-2.2c-0.8,1.1-1.5,2.3-2.1,3.6l3.2,1.2c0.3,0.1,0.5,0.3,0.6,0.6
					c0.1,0.3,0.1,0.6,0,0.9c-0.6,1.5-0.8,3.1-0.8,4.7c0,0.6-0.5,1.1-1.1,1.1l-3.4,0c0,0.2,0,0.4,0,0.6c0.1,1.2,0.3,2.4,0.7,3.5
					l3.2-1.2c0.6-0.2,1.2,0.1,1.4,0.7c0.6,1.5,1.4,2.9,2.4,4.2c0.2,0.2,0.3,0.5,0.3,0.8c0,0.3-0.2,0.6-0.4,0.8l-2.6,2.2
					c1,1,2,1.9,3.2,2.7l1.7-2.9c0.1-0.3,0.4-0.4,0.7-0.5c0.3-0.1,0.6,0,0.8,0.1c1.4,0.8,2.9,1.4,4.5,1.7c0.6,0.1,1,0.7,0.9,1.3
					L209.6,35.2L209.6,35.2z M211.6,37.5c-1.2,0-2.4-0.1-3.6-0.3c-0.3,0-0.6-0.2-0.7-0.5c-0.2-0.2-0.2-0.5-0.2-0.8l0.6-3.4
					c-1.1-0.3-2.2-0.7-3.2-1.2l-1.7,3c-0.1,0.3-0.4,0.4-0.7,0.5c-0.3,0.1-0.6,0-0.8-0.1c-2.1-1.2-3.9-2.8-5.5-4.6
					c-0.2-0.2-0.3-0.5-0.3-0.8c0-0.3,0.2-0.6,0.4-0.8l2.6-2.2c-0.7-0.9-1.2-1.9-1.7-2.9l-3.3,1.2c-0.6,0.2-1.2-0.1-1.4-0.7
					c-0.6-1.7-1-3.4-1.2-5.2c-0.1-0.7-0.1-1.3-0.1-1.9c0-0.3,0.1-0.6,0.3-0.8c0.2-0.2,0.5-0.3,0.8-0.3l3.4,0
					c0.1-1.1,0.3-2.2,0.6-3.3l-3.3-1.2c-0.3-0.1-0.5-0.3-0.6-0.6c-0.1-0.3-0.1-0.6,0-0.8c0.8-2.3,2-4.4,3.6-6.2
					c0.4-0.5,1.1-0.5,1.6-0.1l2.7,2.2c0.8-0.8,1.7-1.5,2.6-2.2l-1.7-3c-0.3-0.5-0.1-1.2,0.4-1.5c2.1-1.2,4.4-2.1,6.7-2.5
					c0.3-0.1,0.6,0,0.8,0.2c0.2,0.2,0.4,0.4,0.5,0.7l0.6,3.4c1.2-0.1,2.2-0.1,3.4,0l0.6-3.4c0.1-0.6,0.7-1,1.3-0.9
					c2.4,0.4,4.7,1.2,6.8,2.4c0.5,0.3,0.7,1,0.4,1.5l-1.7,3c0.9,0.6,1.8,1.4,2.6,2.2l2.6-2.2c0.2-0.2,0.5-0.3,0.8-0.3
					c0.3,0,0.6,0.2,0.8,0.4c1.6,1.8,2.8,3.9,3.6,6.2c0.2,0.6-0.1,1.2-0.7,1.4l-3.2,1.2c0.3,1.1,0.5,2.2,0.6,3.4l3.4,0
					c0.3,0,0.6,0.1,0.8,0.3c0.2,0.2,0.3,0.5,0.3,0.8c0,0.7,0,1.3-0.1,2c-0.2,1.8-0.6,3.5-1.1,5.1c-0.2,0.6-0.9,0.9-1.4,0.7l-3.3-1.2
					c-0.5,1-1,2-1.7,2.9l2.7,2.2c0.5,0.4,0.5,1.1,0.1,1.6c-1.6,1.8-3.4,3.4-5.5,4.6c-0.5,0.3-1.2,0.1-1.5-0.4l-1.7-3
					c-1,0.5-2.1,0.9-3.2,1.2l0.6,3.4c0.1,0.3,0,0.6-0.2,0.8c-0.2,0.2-0.4,0.4-0.7,0.5C214.1,37.4,212.9,37.5,211.6,37.5L211.6,37.5z
					"/>
				<path class="st117" d="M178.1,40.4l7.4,11.8l7.4-11.8h-3.7c-0.6,0-1.1-0.5-1.1-1.1V19.8h-2.7c-0.9,0-1.7-0.1-2.5-0.3v19.7
					c0,0.6-0.5,1.1-1.1,1.1H178.1L178.1,40.4z M185.5,55.4c-0.4,0-0.7-0.2-0.9-0.5l-9.4-15c-0.2-0.3-0.2-0.8,0-1.1
					c0.2-0.4,0.6-0.6,1-0.6h4.6V18c0-0.4,0.2-0.7,0.5-0.9c0.3-0.2,0.7-0.3,1-0.1c1.1,0.4,2.2,0.6,3.3,0.6h3.8c0.6,0,1.1,0.5,1.1,1.1
					v19.4h4.6c0.4,0,0.8,0.2,1,0.6c0.2,0.4,0.2,0.8,0,1.1l-9.4,15C186.3,55.2,185.9,55.4,185.5,55.4L185.5,55.4z"/>
				<path class="st117" d="M230.4,40.3l7.4,11.8l7.4-11.8h-3.7c-0.6,0-1.1-0.5-1.1-1.1V19.5c-0.8,0.2-1.7,0.3-2.5,0.3h-2.7v19.3
					c0,0.6-0.5,1.1-1.1,1.1H230.4L230.4,40.3z M237.8,55.3L237.8,55.3c-0.4,0-0.7-0.2-0.9-0.5l-9.4-15c-0.2-0.3-0.2-0.8,0-1.1
					c0.2-0.4,0.6-0.6,1-0.6h4.6V18.7c0-0.6,0.5-1.1,1.1-1.1h3.8c1.1,0,2.2-0.2,3.3-0.6c0.3-0.1,0.7-0.1,1,0.1
					c0.3,0.2,0.5,0.6,0.5,0.9v20h4.6c0.4,0,0.8,0.2,1,0.6c0.2,0.4,0.2,0.8,0,1.1l-9.4,15C238.5,55.1,238.1,55.3,237.8,55.3
					L237.8,55.3z"/>
				<path class="st117" d="M232.3,17.6h5.5c1.1,0,2.2-0.2,3.3-0.6c3.7-1.4,6.2-4.9,6.2-8.9c0-5.2-4.2-9.5-9.5-9.5h-5.4
					c-0.3,0-0.6-0.1-0.8-0.3c-0.2-0.2-0.3-0.5-0.3-0.8l0-0.2c0-0.1,0-0.1,0-0.2c0-6-4.9-10.8-10.8-10.8c-2.4,0-4.7,0.8-6.7,2.3
					c-0.3,0.2-0.6,0.3-0.9,0.2c-0.3-0.1-0.6-0.2-0.8-0.5c-2.4-3.8-6.5-6.2-11-6.2c-7.2,0-13,5.8-13,13c0,0.7,0.1,1.5,0.2,2.3
					c0.1,0.3,0,0.7-0.2,0.9c-0.2,0.2-0.5,0.4-0.9,0.4h-1.8c-5.2,0-9.5,4.2-9.5,9.5c0,3.9,2.5,7.5,6.2,8.9c1.1,0.4,2.2,0.6,3.3,0.6
					h5.5c0-0.2,0-0.5,0-0.7c0-0.3,0.1-0.6,0.3-0.8c0.2-0.2,0.5-0.3,0.8-0.3l3.4,0c0.1-1.1,0.3-2.2,0.6-3.3l-3.3-1.2
					c-0.3-0.1-0.5-0.3-0.6-0.6c-0.1-0.3-0.1-0.6,0-0.8c0.8-2.3,2-4.4,3.6-6.2c0.4-0.5,1.1-0.5,1.6-0.1l2.7,2.2
					c0.8-0.8,1.7-1.5,2.6-2.2l-1.7-3c-0.1-0.3-0.2-0.6-0.1-0.8c0.1-0.3,0.3-0.5,0.5-0.7c2.1-1.2,4.4-2.1,6.7-2.5
					c0.6-0.1,1.2,0.3,1.3,0.9l0.6,3.4c1.2-0.1,2.2-0.1,3.4,0l0.6-3.4c0.1-0.6,0.7-1,1.3-0.9c2.4,0.4,4.7,1.2,6.8,2.4
					c0.3,0.1,0.4,0.4,0.5,0.7c0.1,0.3,0,0.6-0.1,0.8l-1.7,3c0.9,0.6,1.8,1.4,2.6,2.2l2.6-2.2c0.5-0.4,1.2-0.3,1.6,0.1
					c1.6,1.8,2.8,3.9,3.6,6.2c0.2,0.6-0.1,1.2-0.7,1.4l-3.2,1.2c0.3,1.1,0.5,2.2,0.6,3.4l3.4,0c0.3,0,0.6,0.1,0.8,0.3
					c0.2,0.2,0.3,0.5,0.3,0.8C232.3,17,232.3,17.3,232.3,17.6L232.3,17.6z M237.8,19.8h-6.7c-0.3,0-0.6-0.1-0.8-0.4
					c-0.2-0.2-0.3-0.5-0.3-0.9c0-0.2,0-0.5,0.1-0.7l-3.4,0h0c-0.3,0-0.6-0.1-0.8-0.3c-0.2-0.2-0.3-0.5-0.3-0.8
					c0-1.6-0.3-3.2-0.9-4.8c-0.1-0.3-0.1-0.6,0-0.9c0.1-0.3,0.3-0.5,0.6-0.6l3.2-1.2c-0.6-1.3-1.3-2.5-2.1-3.6L223.9,8
					c-0.5,0.4-1.2,0.3-1.6-0.1c-1-1.2-2.3-2.3-3.7-3.1c-0.5-0.3-0.7-1-0.4-1.5l1.7-2.9c-1.3-0.6-2.6-1.1-3.9-1.4l-0.6,3.3
					c-0.1,0.3-0.2,0.6-0.5,0.7c-0.2,0.2-0.5,0.2-0.8,0.2c-1.7-0.3-3.1-0.3-4.8,0c-0.3,0.1-0.6,0-0.8-0.2c-0.2-0.2-0.4-0.4-0.5-0.7
					l-0.6-3.3c-1.4,0.3-2.7,0.8-3.9,1.4l1.7,2.9c0.3,0.5,0.1,1.2-0.4,1.5c-1.4,0.8-2.7,1.9-3.7,3.1c-0.4,0.5-1.1,0.5-1.6,0.1
					l-2.6-2.2c-0.8,1.1-1.5,2.3-2.1,3.6l3.2,1.2c0.3,0.1,0.5,0.3,0.6,0.6c0.1,0.3,0.1,0.6,0,0.9c-0.6,1.5-0.8,3.1-0.8,4.7
					c0,0.6-0.5,1.1-1.1,1.1l-3.4,0c0,0.2,0,0.4,0,0.6c0,0.3-0.1,0.6-0.3,0.9c-0.2,0.2-0.5,0.4-0.8,0.4h-6.7c-1.4,0-2.7-0.2-4.1-0.7
					c-4.6-1.7-7.6-6.1-7.6-11c0-6.4,5.2-11.7,11.7-11.7h0.6c0-0.5-0.1-0.9-0.1-1.3c0-8.4,6.8-15.2,15.2-15.2c4.9,0,9.4,2.3,12.3,6.2
					c2.1-1.4,4.5-2.1,7.1-2.1c7,0,12.7,5.5,13.1,12.4h4.3c6.4,0,11.7,5.2,11.7,11.7c0,4.9-3.1,9.3-7.6,11
					C240.6,19.6,239.2,19.8,237.8,19.8L237.8,19.8z"/>
				<path class="st117" d="M89.2,42.2h52.1V-1.7H89.2V42.2L89.2,42.2z M142.1,43.8H88.4c-0.4,0-0.8-0.4-0.8-0.8V-2.5
					c0-0.4,0.4-0.8,0.8-0.8h53.7c0.4,0,0.8,0.4,0.8,0.8V43C142.9,43.5,142.5,43.8,142.1,43.8L142.1,43.8z"/>
				<path class="st117" d="M115.4,26.9c-3.8,0-6.9-3.1-6.9-6.9c0-0.4,0.4-0.8,0.8-0.8c0.4,0,0.8,0.4,0.8,0.8c0,2.9,2.4,5.3,5.3,5.3
					c2.9,0,5.3-2.4,5.3-5.3c0-2.9-2.4-5.3-5.3-5.3c-0.4,0-0.8-0.4-0.8-0.8s0.4-0.8,0.8-0.8c3.8,0,6.9,3.1,6.9,6.9
					C122.3,23.8,119.2,26.9,115.4,26.9L115.4,26.9z"/>
				<path class="st117" d="M113.6,34.9c1.2,0.1,2.5,0.1,3.7,0l-0.5-2.8c-0.1-0.4,0.2-0.9,0.7-0.9c1.3-0.2,2.6-0.7,3.7-1.4
					c0.2-0.1,0.4-0.1,0.6-0.1c0.2,0.1,0.4,0.2,0.5,0.4l1.4,2.5c1-0.7,2-1.5,2.8-2.4l-2.2-1.8c-0.3-0.3-0.4-0.8-0.1-1.1
					c0.9-1,1.5-2.2,2-3.4c0.2-0.4,0.6-0.6,1-0.5l2.7,1c0.4-1.2,0.6-2.4,0.6-3.7l-2.9,0c-0.2,0-0.4-0.1-0.6-0.2
					c-0.2-0.2-0.2-0.4-0.2-0.6c0-1.3-0.2-2.7-0.7-3.9c-0.1-0.2-0.1-0.4,0-0.6c0.1-0.2,0.3-0.3,0.5-0.4l2.7-1
					c-0.5-1.1-1.1-2.2-1.8-3.2l-2.2,1.9c-0.3,0.3-0.9,0.2-1.1-0.1c-0.9-1-1.9-1.9-3.1-2.5c-0.4-0.2-0.5-0.7-0.3-1.1l1.4-2.5
					c-1.1-0.6-2.3-1-3.5-1.2l-0.5,2.8c0,0.2-0.2,0.4-0.3,0.5c-0.2,0.1-0.4,0.2-0.6,0.1c-1.4-0.3-2.6-0.2-4,0c-0.2,0-0.4,0-0.6-0.1
					c-0.2-0.1-0.3-0.3-0.3-0.5l-0.5-2.8c-1.2,0.3-2.4,0.7-3.4,1.3l1.5,2.5c0.2,0.4,0.1,0.9-0.3,1.1c-1.2,0.7-2.2,1.5-3.1,2.6
					c-0.3,0.3-0.8,0.4-1.1,0.1l-2.2-1.8c-0.7,1-1.3,2-1.8,3.2l2.7,1c0.2,0.1,0.4,0.2,0.5,0.4c0.1,0.2,0.1,0.4,0,0.6
					c-0.5,1.3-0.7,2.6-0.7,3.9c0,0.4-0.4,0.8-0.8,0.8l-2.9,0c0.1,1.2,0.3,2.4,0.6,3.6l2.7-1c0.4-0.2,0.9,0.1,1,0.5
					c0.5,1.3,1.1,2.4,2,3.4c0.1,0.2,0.2,0.4,0.2,0.6c0,0.2-0.1,0.4-0.3,0.6l-2.2,1.9c0.8,0.9,1.8,1.7,2.8,2.4l1.4-2.5
					c0.1-0.2,0.3-0.3,0.5-0.4c0.2-0.1,0.4,0,0.6,0.1c1.2,0.7,2.4,1.1,3.7,1.4c0.4,0.1,0.7,0.5,0.7,0.9L113.6,34.9L113.6,34.9z
					 M115.4,36.6c-1,0-1.9-0.1-2.9-0.3c-0.2,0-0.4-0.2-0.5-0.3c-0.1-0.2-0.2-0.4-0.1-0.6l0.5-2.9c-1-0.2-1.9-0.6-2.8-1l-1.5,2.5
					c-0.2,0.4-0.7,0.5-1.1,0.3c-1.7-1-3.2-2.2-4.5-3.7c-0.3-0.3-0.2-0.9,0.1-1.1l2.2-1.9c-0.6-0.8-1.1-1.6-1.5-2.5l-2.7,1
					c-0.4,0.2-0.9-0.1-1-0.5c-0.7-1.8-1-3.8-1-5.7c0-0.4,0.4-0.8,0.8-0.8l2.9,0c0.1-1,0.2-1.9,0.5-2.9l-2.8-1
					c-0.2-0.1-0.4-0.2-0.5-0.4c-0.1-0.2-0.1-0.4,0-0.6c0.7-1.8,1.6-3.5,2.9-5.1c0.1-0.2,0.3-0.3,0.6-0.3c0.2,0,0.4,0,0.6,0.2
					l2.2,1.9c0.7-0.7,1.4-1.3,2.3-1.9l-1.5-2.5c-0.1-0.2-0.1-0.4-0.1-0.6c0.1-0.2,0.2-0.4,0.4-0.5c1.7-1,3.5-1.7,5.5-2
					c0.2,0,0.4,0,0.6,0.1c0.2,0.1,0.3,0.3,0.3,0.5l0.5,2.9c1-0.1,1.9-0.1,2.9,0l0.5-2.9c0.1-0.4,0.5-0.7,0.9-0.7
					c1.9,0.3,3.8,1,5.5,2c0.4,0.2,0.5,0.7,0.3,1.1l-1.5,2.5c0.8,0.5,1.6,1.2,2.3,1.9l2.2-1.9c0.3-0.3,0.9-0.2,1.1,0.1
					c1.3,1.5,2.3,3.2,2.9,5c0.2,0.4-0.1,0.9-0.5,1l-2.7,1c0.3,1,0.5,1.9,0.5,2.9l2.9,0c0.2,0,0.4,0.1,0.6,0.2
					c0.2,0.2,0.2,0.4,0.2,0.6c0,2-0.3,4-1,5.8c-0.1,0.2-0.2,0.4-0.4,0.5c-0.2,0.1-0.4,0.1-0.6,0l-2.7-1c-0.4,0.9-0.9,1.8-1.5,2.5
					l2.2,1.9c0.3,0.3,0.4,0.8,0.1,1.1c-1.3,1.5-2.8,2.8-4.5,3.7c-0.2,0.1-0.4,0.1-0.6,0.1c-0.2-0.1-0.4-0.2-0.5-0.4l-1.5-2.5
					c-0.9,0.4-1.8,0.8-2.8,1l0.5,2.9c0,0.2,0,0.4-0.1,0.6c-0.1,0.2-0.3,0.3-0.5,0.3C117.3,36.6,116.4,36.6,115.4,36.6L115.4,36.6z"
					/>
				<path class="st117" d="M114.6,20c0-0.4,0.4-0.8,0.8-0.8c0.4,0,0.8,0.4,0.8,0.8c0,0.4-0.4,0.8-0.8,0.8
					C114.9,20.8,114.6,20.4,114.6,20L114.6,20z"/>
			</g>
		</g>
		<g style="clip-path:url(#SVGID_1_);">
			<path class="st14" d="M36.7,52.1l-1.9,4c-2.9-1.7-5.8-2.5-7.8-2.5c-2.6,0-4.3,1-4.3,2.8c0,5.8,14.4,2.7,14.3,12.3
				c0,4.7-4.2,7.7-10,7.7c-4.2,0-8.1-1.7-10.9-4.2l1.9-3.9c2.7,2.5,6.2,3.9,9,3.9c3.1,0,5-1.2,5-3.2c0-5.9-14.4-2.6-14.4-12.1
				c0-4.6,3.9-7.4,9.7-7.4C30.9,49.4,34.2,50.5,36.7,52.1z"/>
			<path class="st14" d="M68.3,62.9c0,7.6-6.2,13.5-14.1,13.5s-14.1-5.9-14.1-13.5c0-7.6,6.2-13.4,14.1-13.4S68.3,55.3,68.3,62.9z
				 M44.7,62.9c0,5.3,4.4,9.5,9.6,9.5s9.5-4.2,9.5-9.5s-4.3-9.4-9.5-9.4C49,53.5,44.7,57.6,44.7,62.9z"/>
			<path class="st14" d="M77.6,53.6v7.7h12.1v4H77.6v10.9h-4.5V49.6h17.9l0,4H77.6z"/>
			<path class="st14" d="M104.7,53.6v22.6h-4.5V53.6h-8.4v-4h21.3v4H104.7z"/>
			<path class="st14" d="M139.7,76.2l-6.3-20.7L127,76.2h-4.6l-8.8-26.6h4.8l6.5,21.6l6.4-21.6l4.4,0l6.5,21.6l6.4-21.6h4.6
				l-8.9,26.6H139.7z"/>
			<path class="st14" d="M158.2,70.2l-2.5,6H151l11.7-26.6h4.6l11.6,26.6h-4.8l-2.5-6H158.2z M164.9,54.4l-5,11.8h10L164.9,54.4z"/>
			<path class="st14" d="M194.5,68.1c-0.4,0-0.8,0-1.2,0H187v8h-4.5V49.6h10.8c6.8,0,10.7,3.3,10.7,9.1c0,4.3-2,7.3-5.5,8.6l6,8.9
				h-5.1L194.5,68.1z M193.3,64.1c4.1,0,6.5-1.7,6.5-5.4c0-3.5-2.4-5.2-6.5-5.2H187v10.5H193.3z"/>
			<path class="st14" d="M214.4,53.6v7.2h13v4h-13v7.3h15v4H210V49.6h19v4H214.4z"/>
			<path class="st14" d="M255.6,49.6c8,0,13.8,5.6,13.8,13.3c0,7.7-5.8,13.3-13.9,13.3h-10.8V49.6H255.6z M249.2,72.1h6.5
				c5.2,0,9.1-3.8,9.1-9.2c0-5.4-4.1-9.3-9.3-9.3h-6.3V72.1z"/>
			<path class="st14" d="M278.6,53.6v7.2h13v4h-13v7.3h15v4h-19.5V49.6h19v4H278.6z"/>
			<path class="st14" d="M306.3,76.2l-10.6-26.6h4.8l8.2,21.6l8.3-21.6h4.7l-10.8,26.6H306.3z"/>
			<path class="st14" d="M329.8,53.6v7.2h13v4h-13v7.3h15v4h-19.5V49.6h19v4H329.8z"/>
			<path class="st14" d="M366.2,72.1v4.1h-16V49.6h4.5v22.5H366.2z"/>
			<path class="st14" d="M396.5,62.9c0,7.6-6.2,13.5-14.1,13.5s-14.1-5.9-14.1-13.5c0-7.6,6.2-13.4,14.1-13.4S396.5,55.3,396.5,62.9
				z M372.9,62.9c0,5.3,4.4,9.5,9.6,9.5s9.5-4.2,9.5-9.5s-4.3-9.4-9.5-9.4C377.2,53.5,372.9,57.6,372.9,62.9z"/>
			<path class="st14" d="M411.9,49.6c6.7,0,10.5,3.3,10.5,9.1c0,6-3.8,9.5-10.5,9.5h-6.1v8h-4.5V49.6H411.9z M405.8,64.1h5.9
				c4.1,0,6.4-1.7,6.4-5.4c0-3.5-2.3-5.2-6.4-5.2h-5.9V64.1z"/>
			<path class="st14" d="M431.3,53.6v7.2h13v4h-13v7.3h15v4h-19.5V49.6h19v4H431.3z"/>
			<path class="st14" d="M463.8,68.1c-0.4,0-0.8,0-1.2,0h-6.3v8h-4.5V49.6h10.8c6.8,0,10.7,3.3,10.7,9.1c0,4.3-2,7.3-5.5,8.6l6,8.9
				h-5.1L463.8,68.1z M462.6,64.1c4.1,0,6.5-1.7,6.5-5.4c0-3.5-2.4-5.2-6.5-5.2h-6.3v10.5H462.6z"/>
			<path class="st14" d="M497.3,52.1l-1.9,4c-2.9-1.7-5.8-2.5-7.8-2.5c-2.6,0-4.3,1-4.3,2.8c0,5.8,14.4,2.7,14.3,12.3
				c0,4.7-4.2,7.7-10,7.7c-4.2,0-8.1-1.7-10.9-4.2l1.9-3.9c2.7,2.5,6.2,3.9,9,3.9c3.1,0,5-1.2,5-3.2c0-5.9-14.4-2.6-14.4-12.1
				c0-4.6,3.9-7.4,9.7-7.4C491.5,49.4,494.8,50.5,497.3,52.1z"/>
		</g>
	</g>
</g>
</svg>
