<svg width="296" height="56" viewBox="0 0 296 56" fill="none" xmlns="http://www.w3.org/2000/svg">
<circle cx="28" cy="28" r="26.5" fill="#0A0E11" stroke="#FAFAFB" stroke-width="3"/>
<path d="M22.226 17.3935L18.6976 15.3611L28.2956 9.79999L37.9214 15.3611L34.3927 17.3935L28.2952 13.893L22.226 17.3935ZM40.4337 20.8939V24.9869L43.9624 22.9545V18.8615L40.4337 16.8008L36.9054 18.8332L40.4337 20.8939ZM24.7665 18.8615L28.2952 20.8939L31.8239 18.8615L28.2952 16.8008L24.7665 18.8615ZM37.9214 22.3619L34.3931 20.3295L28.2956 23.8299L22.2263 20.3295L18.6976 22.3619V26.4553L24.7665 29.9557V36.9565L28.2952 38.9889L31.8243 36.9565V29.9557L37.9214 26.4553V22.3619ZM40.4337 34.9238L34.3648 38.4242V42.5172L43.9907 36.9562V25.8623L40.4337 27.923V34.9238ZM34.3648 35.5164L37.8935 33.484V29.3627L34.3648 31.3951V35.5164ZM24.7669 39.8918V43.9849L28.2959 46.0176L31.8246 43.9849V39.8918L28.2959 41.9246L24.7669 39.8918ZM12.6001 22.9545L16.1291 24.9869V20.8939L19.6575 18.8615L16.1571 16.8008L12.6284 18.8332V22.9545H12.6001ZM16.1571 27.923L12.6284 25.8906V36.9844L22.2542 42.5455V38.4525L16.1571 34.9238V27.923ZM22.2263 31.4234L18.698 29.391V33.484L22.2263 35.5164V31.4234Z" fill="#FCBA00"/>
<circle cx="68" cy="28" r="26.5" fill="#34CCFF" stroke="#FAFAFB" stroke-width="3"/>
<path d="M74.6913 38.191L74.6751 38.2098C74.557 38.3357 74.433 38.453 74.3076 38.5688C74.0404 38.8395 73.7806 39.1174 73.5311 39.4026C73.2536 39.7703 72.9638 40.1274 72.6617 40.4739C70.2731 43.209 67.1239 45.2041 63.5996 46.2152C65.3124 46.6747 67.0805 46.905 68.8562 46.8999H68.9742C69.1706 46.8999 69.3625 46.8999 69.5558 46.8883C71.4502 46.8586 73.3272 46.5276 75.1135 45.9083C76.9146 45.278 78.5678 44.2981 79.9745 43.0275C81.3814 41.7352 82.5149 40.1836 83.3106 38.4617C84.0855 36.786 84.588 35.0017 84.8 33.1735C80.9862 33.7932 77.4571 35.5466 74.6913 38.1953V38.191Z" fill="white"/>
<path d="M68.978 40.396C67.187 40.396 65.6674 40.0583 64.4196 39.3827C63.2024 38.7291 62.1623 37.7994 61.3862 36.6713C60.5951 35.5135 60.0207 34.2267 59.6901 32.8712C59.3342 31.4501 59.1557 29.9918 59.1587 28.5283C59.1547 27.0066 59.333 25.4898 59.6901 24.0088C59.8774 23.2212 60.1409 22.4529 60.4769 21.7143C60.5418 21.5696 60.6082 21.4378 60.6776 21.3018C60.681 21.2942 60.6848 21.287 60.6894 21.2801C60.7544 21.1527 60.8208 21.0282 60.8887 20.9037L60.9551 20.7922C61.0097 20.6967 61.0644 20.6011 61.1219 20.5027C61.2061 20.368 61.2917 20.2334 61.3803 20.1017C62.1535 18.9649 63.1965 18.029 64.4196 17.3743C65.6685 16.6987 67.1878 16.361 68.978 16.361H69.226C71.036 16.4073 72.7817 17.034 74.1947 18.1445C74.8924 18.6969 75.4912 19.3599 75.966 20.106L75.9793 20.1277C76.8982 21.625 78.5491 22.5493 80.331 22.5641H84.5764C84.3383 20.5114 83.764 18.6902 82.8537 17.1007C82.4057 16.3148 81.8802 15.5739 81.2846 14.8888C80.714 14.2324 80.0775 13.6338 79.3848 13.1024C77.9584 12.0132 76.3466 11.1801 74.6242 10.6414C72.7988 10.0725 70.8934 9.78861 68.978 9.80034C66.2087 9.80034 63.7185 10.2828 61.5072 11.248C60.4366 11.7083 59.4183 12.278 58.4693 12.9475H58.4604C58.4088 12.9837 58.3586 13.0228 58.3128 13.0604L58.1298 13.1965C58.0014 13.292 57.8744 13.3905 57.7504 13.486L57.5733 13.6308C57.4463 13.7364 57.3223 13.8436 57.1983 13.9521L57.0433 14.0882C56.8736 14.2417 56.7053 14.398 56.5415 14.5601L56.5046 14.5949C56.3038 14.7947 56.1075 15.0017 55.9141 15.213C55.7576 15.3867 55.6071 15.5648 55.4594 15.7443C55.4078 15.8066 55.3561 15.8674 55.3118 15.9296C54.0617 17.498 53.086 19.259 52.4245 21.1411C51.5927 23.5166 51.1789 26.0138 51.2008 28.5255C51.1798 30.9848 51.5908 33.4294 52.4156 35.752C53.1769 37.9047 54.365 39.8883 55.9111 41.5889C56.6905 42.4363 57.5652 43.1949 58.518 43.8501C62.3865 43.8093 66.1498 42.6011 69.2939 40.3902C69.1861 40.3931 69.0842 40.396 68.978 40.396Z" fill="white"/>
<circle cx="108" cy="28" r="26.5" fill="#F0B90B" stroke="#FAFAFB" stroke-width="3"/>
<path d="M108.35 9.10001L113.12 13.9698L101.11 25.9438L96.3406 21.1885L108.35 9.10001Z" fill="white"/>
<path d="M115.591 16.3188L120.36 21.1885L101.11 40.3813L96.3406 35.626L115.591 16.3188Z" fill="white"/>
<path d="M93.8695 23.5375L98.6389 28.4073L93.8695 33.1625L89.1001 28.4073L93.8695 23.5375Z" fill="white"/>
<path d="M122.831 23.5375L127.6 28.4073L108.35 47.6L103.581 42.8448L122.831 23.5375Z" fill="white"/>
<circle cx="148" cy="28" r="26.5" fill="#28A17C" stroke="#FAFAFB" stroke-width="3"/>
<path fill-rule="evenodd" clip-rule="evenodd" d="M151.418 29.1566C151.227 29.1709 150.241 29.2294 148.041 29.2294C146.29 29.2294 145.048 29.1772 144.612 29.1566C137.849 28.8605 132.8 27.6889 132.8 26.2861C132.8 24.8833 137.849 23.7132 144.612 23.4124V27.9897C145.054 28.0214 146.321 28.0958 148.071 28.0958C150.171 28.0958 151.222 28.0087 151.412 27.9913V23.4156C158.161 23.7148 163.198 24.8864 163.198 26.2861C163.198 27.6857 158.162 28.8574 151.412 29.155L151.418 29.1566ZM151.418 22.9421V18.8461H160.837V12.6H135.193V18.8461H144.61V22.9406C136.956 23.2905 131.2 24.7994 131.2 26.6075C131.2 28.4156 136.956 29.9229 144.61 30.2744V43.4H151.417V30.2697C159.053 29.9198 164.8 28.4125 164.8 26.6059C164.8 24.7994 159.058 23.2921 151.417 22.9406L151.418 22.9421Z" fill="white"/>
<circle cx="188" cy="28" r="26.5" fill="#3CD6E2" stroke="#FAFAFB" stroke-width="3"/>
<g clip-path="url(#clip0_413_622)">
<path fill-rule="evenodd" clip-rule="evenodd" d="M176.668 15.8594C176.126 13.0725 178.291 10.5 181.104 10.5C183.592 10.5 185.648 12.5366 185.648 15.0019V20.5756C186.297 20.5756 186.947 20.4684 187.596 20.4684C188.245 20.4684 188.786 20.4684 189.435 20.5756V15.0019C189.435 12.5366 191.491 10.5 193.98 10.5C196.793 10.5 198.957 13.0725 198.524 15.8594L197.334 22.3978C201.554 24.22 204.8 27.4356 204.8 31.4016V33.8669C204.8 37.1897 202.636 39.9766 199.498 41.7987C196.36 43.7281 192.249 44.8 187.596 44.8C182.943 44.8 178.832 43.7281 175.694 41.7987C172.664 39.9766 170.5 37.1897 170.5 33.8669V31.4016C170.5 27.4356 173.638 24.22 177.858 22.3978L176.668 15.8594ZM195.711 23.2553L197.118 15.5378C197.442 13.6084 196.036 11.7862 193.98 11.7862C192.249 11.7862 190.842 13.1797 190.842 14.8947V21.9691C190.409 21.8619 189.868 21.8619 189.435 21.8619C188.786 21.8619 188.245 21.7547 187.596 21.7547C186.947 21.7547 186.297 21.7547 185.648 21.8619C185.215 21.8619 184.674 21.9691 184.242 21.9691V15.0019C184.242 13.2869 182.835 11.8934 181.104 11.8934C179.156 11.8934 177.641 13.7156 178.074 15.645L179.481 23.3625C174.936 25.0775 171.907 28.0788 171.907 31.5087V33.9741C171.907 39.2262 178.94 43.5137 187.596 43.5137C196.252 43.5137 203.285 39.2262 203.285 33.9741V31.5087C203.393 27.9716 200.364 24.9703 195.711 23.2553Z" fill="#633001"/>
<path d="M203.393 33.8669C203.393 39.119 196.36 43.4065 187.704 43.4065C179.048 43.4065 172.015 39.119 172.015 33.8669V31.4016H203.502V33.8669H203.393Z" fill="#FEDC90"/>
<path fill-rule="evenodd" clip-rule="evenodd" d="M178.074 15.645C177.641 13.7156 179.156 11.8934 181.104 11.8934C182.835 11.8934 184.242 13.2869 184.242 15.0019V22.0762C185.324 21.9691 186.406 21.8619 187.596 21.8619C188.678 21.8619 189.76 21.9691 190.842 22.0762V15.0019C190.842 13.2869 192.249 11.8934 193.98 11.8934C195.928 11.8934 197.442 13.7156 197.118 15.645L195.711 23.3625C200.256 25.0775 203.393 28.0787 203.393 31.5087C203.393 36.7609 196.36 41.0484 187.704 41.0484C179.048 41.0484 172.015 36.7609 172.015 31.5087C172.015 28.0787 175.045 25.0775 179.589 23.3625L178.074 15.645Z" fill="#D1884F"/>
<path d="M183.268 30.7584C183.268 32.1519 182.51 33.3309 181.537 33.3309C180.563 33.3309 179.805 32.1519 179.805 30.7584C179.805 29.365 180.563 28.1859 181.537 28.1859C182.51 28.1859 183.268 29.365 183.268 30.7584Z" fill="#633001"/>
<path d="M195.278 30.7584C195.278 32.1519 194.521 33.3309 193.547 33.3309C192.573 33.3309 191.816 32.1519 191.816 30.7584C191.816 29.365 192.573 28.1859 193.547 28.1859C194.521 28.1859 195.278 29.365 195.278 30.7584Z" fill="#633001"/>
</g>
<circle cx="228" cy="28" r="26.5" fill="#FFC600" stroke="#FAFAFB" stroke-width="3"/>
<path d="M212.283 23.4182L207.7 28.0016L212.283 32.585L216.869 28.0016L212.283 23.4182ZM228 16.87L235.858 24.7259L240.441 20.1425L228 7.70001L215.558 20.1425L220.141 24.7259L228 16.87ZM243.714 23.4182L239.131 28.0016L243.714 32.585L248.3 28.0016L243.714 23.4182ZM228 39.1332L220.141 31.2741L215.558 35.8575L228 48.3L240.441 35.8575L235.858 31.2741L228 39.1332ZM228 32.585L232.583 28.0016L228 23.4182L223.417 28.0016L228 32.585Z" fill="white"/>
<circle cx="268" cy="28" r="26.5" fill="#ECEDED" stroke="#FAFAFB" stroke-width="3"/>
<path d="M260.648 37.288C259.48 37.288 258.32 37.136 257.168 36.832C256.032 36.512 255.056 36.064 254.24 35.488L255.776 32.512C256.416 32.976 257.152 33.344 257.984 33.616C258.832 33.888 259.688 34.024 260.552 34.024C261.528 34.024 262.296 33.832 262.856 33.448C263.416 33.064 263.696 32.528 263.696 31.84C263.696 31.408 263.584 31.024 263.36 30.688C263.136 30.352 262.736 30.096 262.16 29.92C261.6 29.744 260.808 29.656 259.784 29.656H255.488L256.352 20.2H266.6V23.32H257.744L259.76 21.544L259.16 28.288L257.144 26.512H260.696C262.36 26.512 263.696 26.744 264.704 27.208C265.728 27.656 266.472 28.272 266.936 29.056C267.4 29.84 267.632 30.728 267.632 31.72C267.632 32.712 267.384 33.632 266.888 34.48C266.392 35.312 265.624 35.992 264.584 36.52C263.56 37.032 262.248 37.288 260.648 37.288ZM273.913 34.144V23.056H277.009V34.144H273.913ZM269.761 30.064V27.136H281.185V30.064H269.761Z" fill="black"/>
<defs>
<clipPath id="clip0_413_622">
<rect width="34.3" height="34.3" fill="white" transform="translate(170.5 10.5)"/>
</clipPath>
</defs>
</svg>
