<?xml version="1.0" encoding="utf-8"?>
<!-- Generator: Adobe Illustrator 22.0.1, SVG Export Plug-In . SVG Version: 6.00 Build 0)  -->
<svg version="1.1" xmlns="http://www.w3.org/2000/svg" xmlns:xlink="http://www.w3.org/1999/xlink" x="0px" y="0px"
	 viewBox="0 0 400 400" style="enable-background:new 0 0 400 400;" xml:space="preserve">
<style type="text/css">
	.st0{fill:#80E4FF;}
	.st1{display:none;}
	.st2{display:inline;}
	.st3{fill:none;stroke:#80E4FF;stroke-width:20;stroke-linecap:round;stroke-linejoin:round;stroke-miterlimit:10;}
	.st4{fill:none;stroke:#33CCFF;stroke-width:20;stroke-linecap:round;stroke-linejoin:round;stroke-miterlimit:10;}
	.st5{fill:none;stroke:#000000;stroke-miterlimit:10;}
	.st6{fill:none;stroke:#80E4FF;stroke-width:10;stroke-linecap:round;stroke-linejoin:round;stroke-miterlimit:10;}
	.st7{fill:#33CCFF;}
	.st8{fill:none;stroke:#80E4FF;stroke-width:20;stroke-linecap:round;stroke-miterlimit:10;}
	.st9{fill:none;stroke:#33CCFF;stroke-width:10;stroke-linecap:round;stroke-linejoin:round;stroke-miterlimit:10;}
	.st10{fill:none;stroke:#000000;stroke-width:20;stroke-linecap:round;stroke-linejoin:round;stroke-miterlimit:10;}
	.st11{fill:none;stroke:#B3B3B3;stroke-width:20;stroke-linecap:round;stroke-miterlimit:10;}
	.st12{fill:none;stroke:#B3B3B3;stroke-width:20;stroke-linecap:round;stroke-linejoin:bevel;stroke-miterlimit:10;}
	.st13{fill:none;stroke:#33CCFF;stroke-width:20;stroke-miterlimit:10;}
	.st14{fill:none;stroke:#80E4FF;stroke-width:15.4098;stroke-linecap:round;stroke-linejoin:round;stroke-miterlimit:10;}
	.st15{fill:none;stroke:#80E4FF;stroke-width:14.2609;stroke-linecap:round;stroke-linejoin:round;stroke-miterlimit:10;}
	.st16{fill:#80E4FF;stroke:#33CCFF;stroke-width:20;stroke-miterlimit:10;}
	.st17{fill:none;}
	.st18{fill:none;stroke:#33CCFF;stroke-width:20;stroke-linecap:round;stroke-miterlimit:10;}
	.st19{fill:none;stroke:#33CCFF;stroke-width:21.6558;stroke-miterlimit:10;}
	.st20{fill:none;stroke:#33CCFF;stroke-width:17.3894;stroke-linecap:round;stroke-miterlimit:10;}
</style>
<g id="FILL">
</g>
<g id="Inspo" class="st1">
</g>
<g id="Lighter_Lines">
</g>
<g id="Heavier_Lines">
</g>
<g id="Palette">
	<g>
		<path class="st7" d="M294.4,292.3c-0.9,0.7-1.8,1.5-2.7,2.3c0,0,0,0,0,0c-0.2,0.2-0.4,0.4-0.6,0.6c-0.4,0.4-0.8,0.8-1.2,1.3
			c-0.4,0.6-0.9,1.1-1.3,1.6c-3.5,4.1-8.3,7.2-13.6,8.8c2.4,0.7,5.1,1,7.9,1c0.1,0,0.1,0,0.2,0c0.3,0,0.6,0,0.9,0
			c3-0.1,5.8-0.6,8.3-1.5c2.8-1,5.2-2.5,7.3-4.4c2.1-1.9,3.8-4.3,5-7c1.1-2.4,1.9-5.1,2.2-8.1C302.3,287.7,298.1,289.6,294.4,292.3z
			"/>
		<path class="st7" d="M304.1,262.3c-0.7-1.2-1.5-2.4-2.4-3.4c-0.9-1-1.8-1.9-2.9-2.7c-2.1-1.6-4.5-2.9-7.2-3.8
			c-2.7-0.9-5.5-1.3-8.5-1.3c-4.2,0-7.9,0.7-11.2,2.2c-1.7,0.7-3.2,1.6-4.6,2.6c0,0,0,0,0,0c-0.1,0.1-0.2,0.1-0.2,0.2
			c-0.1,0.1-0.2,0.1-0.3,0.2c-0.2,0.1-0.4,0.3-0.6,0.5c-0.1,0.1-0.2,0.1-0.3,0.2c-0.2,0.2-0.4,0.3-0.6,0.5c-0.1,0.1-0.2,0.1-0.2,0.2
			c-0.3,0.2-0.5,0.5-0.8,0.7c0,0,0,0-0.1,0.1c-0.3,0.3-0.6,0.6-0.9,0.9c-0.2,0.3-0.5,0.5-0.7,0.8c-0.1,0.1-0.2,0.2-0.2,0.3l0,0v0
			c-1.8,2.3-3.3,5-4.3,8c-1.2,3.5-1.8,7.3-1.8,11.3c0,4,0.6,7.7,1.8,11.1c1.2,3.4,3,6.4,5.3,9c1.2,1.3,2.5,2.5,3.9,3.5
			c6-0.1,11.6-2,16.2-5.3c-0.2,0-0.3,0-0.5,0c-2.7,0-5-0.5-6.9-1.6c-1.9-1-3.4-2.4-4.6-4.2c-1.2-1.7-2-3.7-2.6-5.8
			c-0.5-2.2-0.8-4.4-0.8-6.7c0-2.4,0.3-4.7,0.8-6.9c0.3-1.2,0.7-2.4,1.2-3.5c0.1-0.2,0.2-0.4,0.3-0.6c0,0,0,0,0,0
			c0.1-0.2,0.2-0.4,0.3-0.6c0-0.1,0.1-0.1,0.1-0.2c0.1-0.1,0.2-0.3,0.3-0.4c0.1-0.2,0.3-0.4,0.4-0.6c1.2-1.8,2.7-3.1,4.6-4.2
			c1.9-1,4.2-1.6,6.9-1.6c0.1,0,0.2,0,0.4,0v0c1.3,0,2.6,0.3,3.9,0.7c1.3,0.5,2.6,1.2,3.6,2c1.1,0.9,2,1.9,2.7,3l0,0c0,0,0,0,0,0
			c1.4,2.3,3.9,3.7,6.5,3.7h6.4C306.3,267.5,305.4,264.7,304.1,262.3z"/>
	</g>
	<path class="st20" d="M75.6,287.6c-9.6,9.6-9.6,25.1,0,34.6c4.8,4.8,11.1,7.2,17.3,7.2c6.3,0,12.6-2.4,17.4-7.2l80.5-80.6
		L156.2,207L75.6,287.6z M75.6,287.6"/>
	<path class="st20" d="M276.9,138.3l35.1-18.1l18.4-35.5l-17.1-17.1l-35.5,18.4l-18.1,35.1l-42.7,42.7l17.3,17.3L276.9,138.3z
		 M276.9,138.3"/>
	<g>
		<path class="st20" d="M263.4,233.3c5.9-2.4,12.3-3.8,19.1-3.8c27.6,0,50,22.4,50,50s-22.4,50-50,50c-27.6,0-50-22.4-50-50
			c0-5.8,1-11.3,2.8-16.5c0,0,0,0,0,0L134.7,162.5c-5.3,1.9-10.9,3.2-16.9,3.2l-3.4-0.3c-25.5-1.8-45.8-22.8-45.8-48.8
			c0-7.5,1.8-14.6,4.9-21l32.6,32.6c1.7,1.8,3.7,2.9,5.9,3.7c1.8,0.7,3.7,1.1,5.7,1.1c4.1,0,8.3-1.6,11.5-4.8
			c4.7-4.6,5.8-11.4,3.7-17.3c-0.7-2.1-1.9-4.2-3.7-5.8L96.7,72.4c6.4-3,13.5-4.9,21.1-4.9c26,0,47,20.2,48.7,45.8l0.3,3.3
			c0,6-1.2,11.7-3.2,17L263.4,233.3z"/>
	</g>
</g>
</svg>
