<svg width="300" height="400" xmlns="http://www.w3.org/2000/svg"><style>.st0{fill:#5C58CA}</style><title>background</title><path fill="none" id="canvas_background" d="M-1-1h302v402H-1z"/><g><title>Layer 1</title><path stroke="null" id="svg_1" d="M248.382 299.219c0-1.168-1.167-2.336-2.335-2.336h-.584-.584c-4.087 0-7.006.584-9.926 1.752-3.503 1.168-7.006 3.503-9.926 6.422v-5.254c0-1.168-1.167-2.336-2.335-2.336h-9.342c-1.168 0-2.335 1.168-2.335 2.336v64.225c0 1.168 1.167 2.336 2.335 2.336h9.342c1.168 0 2.335-1.168 2.335-2.336v-33.28c0-7.007 1.752-11.094 5.84-14.597 3.502-2.92 8.757-6.423 15.18-7.007 1.168 0 2.335-1.167 2.335-2.335v-7.59zm-119.11 4.087c-5.838-4.671-14.012-6.423-23.938-6.423H86.066c-1.168 0-2.335 1.168-2.335 2.336V386.215c0 1.168 1.167 2.336 2.335 2.336h9.342c1.168 0 2.336-1.168 2.336-2.336v-18.683c0-1.168 1.167-2.336 2.335-2.336h5.255c9.926 0 17.516-2.335 23.939-7.006 6.422-4.671 9.342-11.678 9.342-20.436v-14.013c0-8.174-2.92-15.18-9.342-20.435zm-4.67 35.032c0 4.671-1.752 8.174-4.671 10.51-2.92 2.335-8.175 3.503-14.013 3.503h-4.671c-1.168 0-2.336-1.168-2.336-2.336v-37.367c0-1.168 1.168-2.336 2.336-2.336h4.67c6.423 0 11.094 1.168 14.014 3.503 2.919 2.336 4.67 5.84 4.67 10.51v14.013zm129.035 9.342c0 6.423 1.168 11.677 4.087 14.597 2.92 2.92 7.007 4.67 12.845 4.67h11.678c1.168 0 2.335-1.167 2.335-2.335v-8.174c0-1.168-1.167-2.335-2.335-2.335h-11.094c-1.751 0-2.335-.584-2.92-1.168-.583-.584-.583-1.752-.583-3.503v-36.784c0-1.168 1.168-2.336 2.335-2.336h13.43c1.167 0 2.335-1.167 2.335-2.335v-8.174c0-1.168-1.168-2.336-2.335-2.336h-13.43c-1.167 0-2.335-1.168-2.335-2.335v-18.684c0-1.168-1.168-2.336-2.335-2.336h-9.342c-1.168 0-2.336 1.168-2.336 2.336v71.232zm-79.99 19.268c-16.932 0-30.945-14.013-30.945-30.945v-9.926c0-16.933 14.013-30.945 30.945-30.945 16.932 0 30.945 14.012 30.945 30.945v9.926c0 16.932-14.013 30.945-30.945 30.945zm0-57.22c-8.758 0-16.349 7.59-16.349 16.349v9.926c0 8.758 7.59 16.348 16.349 16.348 8.758 0 16.348-7.59 16.348-16.348v-9.926c0-8.758-7.59-16.349-16.348-16.349zm-158.23-10.51c0-1.167 1.168-2.335 2.336-2.335h9.342c1.168 0 2.336 1.168 2.336 2.336v36.784c0 8.758 7.59 16.348 16.348 16.348s16.348-7.59 16.348-16.348v-36.784c0-1.168 1.168-2.336 2.336-2.336h9.342c1.168 0 2.335 1.168 2.335 2.336v36.784c0 16.932-14.013 30.945-30.945 30.945-16.932 0-30.945-14.013-30.945-30.945v-36.784h1.168zm268.581-94.586L159.634 14.874c-4.087-5.84-14.013-5.84-17.516 0L17.169 204.632c-1.751 2.919-2.335 6.422-1.167 9.925 1.167 2.92 4.087 5.84 7.006 6.423l124.365 46.71c1.167 0 1.751.584 2.919.584 1.168 0 1.752 0 2.92-.584l124.364-46.71c3.503-.584 5.839-3.503 7.006-6.423 1.752-3.503 1.168-7.006-.584-9.925zM150.292 98.367c23.355 0 42.039 18.684 42.039 42.039s-18.684 42.038-42.04 42.038c-23.354 0-42.038-18.683-42.038-42.038 0-23.355 19.268-42.039 42.039-42.039zm0 127.284c-42.039 0-86.413-12.261-86.413-34.448 0-13.43 15.765-23.355 37.952-29.194 1.167 2.92 2.919 6.423 5.254 9.342-21.603 5.255-33.28 13.429-33.28 19.852 0 2.919 2.335 6.422 7.006 9.341 0-.583.584-1.751 1.168-2.335 4.671-5.839 18.684-11.094 39.12-13.429 8.174 5.839 18.683 8.758 29.193 8.758 11.093 0 21.02-3.503 29.193-8.758 19.852 2.335 33.865 7.59 39.12 13.429.584.584 1.168 1.752 1.168 2.335 4.67-2.919 7.006-6.422 7.006-9.341 0-6.423-12.261-14.597-33.28-19.852 1.751-2.92 3.503-5.839 5.254-9.342 21.603 5.839 37.952 15.18 37.952 29.194 0 22.187-44.374 34.448-86.413 34.448z" class="st0"/></g></svg>