<?xml version="1.0" encoding="UTF-8"?>
<svg width="227px" height="216px" viewBox="0 0 227 216" version="1.1" xmlns="http://www.w3.org/2000/svg" xmlns:xlink="http://www.w3.org/1999/xlink">
    <!-- Generator: Sketch 50.2 (55047) - http://www.bohemiancoding.com/sketch -->
    <title>uPort</title>
    <desc>Created with Sketch.</desc>
    <defs>
        <polygon id="path-1" points="0.678501516 0.808886856 47.8109089 0.808886856 47.8109089 78.8172078 0.678501516 78.8172078"></polygon>
        <polygon id="path-3" points="3.98474153e-05 0.571838722 103.892348 0.571838722 103.892348 101.128205 3.98474153e-05 101.128205"></polygon>
    </defs>
    <g id="CanWork---Approved-Pages" stroke="none" stroke-width="1" fill="none" fill-rule="evenodd">
        <g id="Log-In" transform="translate(-361.000000, -285.000000)">
            <g id="Group" transform="translate(265.000000, 238.000000)">
                <g id="uPort" transform="translate(96.000000, 47.000000)">
                    <g id="Group-22" transform="translate(0.000000, 118.800000)">
                        <path d="M196.442308,19.6113281 C196.420094,18.5659035 195.716031,17.6873245 194.77052,17.5268149 L194.730922,17.5268149 L194.413177,17.5268149 C194.183318,17.5109751 193.951527,17.5109751 193.721669,17.5268149 C193.600944,17.5268149 193.48022,17.5352628 193.360462,17.5500466 C190.630165,17.6271334 187.922081,18.1076063 185.310577,18.9777374 C182.248047,20.1361523 179.491674,22.0981713 177.282905,24.6906129 L177.282905,19.9735307 C177.282905,19.9735307 177.260692,19.9397392 177.252,19.9397392 C177.237513,18.7665405 176.366367,17.8214345 175.293371,17.8172106 L167.856765,17.8172106 C166.777008,17.8214345 165.899102,18.7728764 165.884615,19.954523 L165.884615,76.6608841 C165.887513,77.8509784 166.769282,78.8140363 167.856765,78.8172043 L175.257637,78.8172043 C176.349949,78.8193162 177.236547,77.8541465 177.238479,76.6608841 L177.238479,47.1482326 C177.238479,40.8366141 178.802098,37.2526031 181.901327,34.3391422 C184.73593,31.6833415 188.911054,28.8364076 194.348468,28.3654386 C194.395792,28.3686065 194.444082,28.3686065 194.492372,28.3654386 C195.554744,28.3316471 196.400778,27.3812611 196.40271,26.2186223 L196.40271,19.6113281 L196.442308,19.6113281 Z" id="Fill-1" fill="#5C50CA" fill-rule="nonzero"></path>
                        <g id="Group-5" transform="translate(56.750000, 17.514935)">
                            <g id="Fill-3-Clipped">
                                <mask id="mask-2" fill="white">
                                    <use xlink:href="#path-1"></use>
                                </mask>
                                <g id="path-1"></g>
                                <path d="M35.339191,35.7047003 C35.339191,39.6586969 33.9854573,42.6598137 31.3229442,44.6231705 C28.6614528,46.5865273 24.5113653,47.6252978 19.072932,47.6252978 L14.8635866,47.6252978 C13.7254287,47.6050882 12.814085,46.6875753 12.814085,45.5619036 L12.814085,13.995612 C12.814085,12.8588254 13.7458624,11.9372703 14.8952589,11.9372703 L14.9003673,11.9372703 L19.072932,11.9372703 C24.5113653,11.9372703 28.6287589,12.9477473 31.3229442,14.9343452 C34.0171296,16.9199325 35.339191,19.8988188 35.339191,23.8528154 L35.339191,35.7047003 Z M39.673182,6.47564202 C34.6066423,2.71363604 27.7541959,0.808886856 19.2987245,0.808886856 L2.75967541,0.808886856 C1.61027893,0.808886856 0.678501516,1.73145238 0.678501516,2.86823903 L0.678501516,2.87228094 L0.678501516,76.7543189 C0.678501516,77.8921162 1.60925724,78.8146817 2.75967541,78.8177131 L10.746193,78.8177131 C11.8966112,78.8126605 12.8273669,77.8911056 12.8324753,76.7543189 L12.8324753,76.6168941 L12.8324753,60.8938717 C12.833497,59.8682374 13.5977179,59.0002375 14.6234905,58.8577605 L19.3171149,58.8577605 C27.6346586,58.8577605 34.4503244,56.8438797 39.5812302,52.8676527 C45.0380537,48.7226759 47.8109089,42.9518416 47.8109089,35.7047003 L47.8109089,23.8619097 C47.8058006,16.391453 45.0656395,10.542812 39.673182,6.47564202 Z" id="Fill-3" fill="#5C50CA" fill-rule="nonzero" mask="url(#mask-2)"></path>
                            </g>
                        </g>
                        <path d="M200.807692,62.6970522 C200.807692,68.189006 201.875627,72.2901862 203.976259,74.8923762 C206.151283,77.4985745 209.78285,78.8172043 214.741749,78.8172043 L224.475523,78.8172043 C225.577718,78.8192084 226.472395,77.9073897 226.474353,76.7801416 L226.474353,76.7761333 L226.474353,76.7260336 L226.474353,69.8693577 L226.474353,69.8202599 C226.474353,68.6920095 225.581633,67.7781866 224.480417,67.7781866 L224.475523,67.7781866 L215.165596,67.7781866 C213.956704,67.7781866 213.149146,67.4084494 212.712575,66.6579524 C212.461008,66.129899 212.332777,65.1228905 212.332777,63.6770067 L212.332777,32.7783779 C212.336693,31.7613495 213.069858,30.9006327 214.053612,30.7593509 L225.00117,30.7593509 L225.022705,30.7593509 C226.117069,30.7473269 226.997063,29.8375123 227,28.7172779 L227,21.6852522 C227,20.5590059 226.110217,19.6441812 225.00998,19.6391712 L214.053612,19.6391712 C213.067901,19.4978894 212.333757,18.6351687 212.332777,17.6161362 L212.332777,2.03706301 C212.33082,0.911818674 211.438101,0 210.338842,0 L202.837846,0 C201.73565,0.00300600073 200.840974,0.913822646 200.834122,2.04207302 L200.834122,62.6970522 L200.807692,62.6970522 Z" id="Fill-6" fill="#5C50CA" fill-rule="nonzero"></path>
                        <path d="M135.328978,30.1523879 C127.659871,30.1625431 121.445932,36.3724589 121.43577,44.0366019 L121.43577,52.6421335 C121.43577,60.3103385 127.655806,66.5263473 135.328978,66.5263473 C143.002151,66.5263473 149.222187,60.3103385 149.222187,52.6421335 L149.222187,44.0366019 C149.212025,36.3724589 142.998086,30.1625431 135.328978,30.1523879 M135.328978,78.8172078 C120.869758,78.8029905 109.15219,67.091993 109.136947,52.6421335 L109.136947,44.0366019 C108.945906,29.5816646 120.516127,17.7081838 134.980429,17.5172657 C149.44473,17.3263476 161.324886,28.8890788 161.516944,43.3440158 C161.519993,43.5755549 161.519993,43.8060782 161.516944,44.0366019 L161.516944,52.6421335 C161.501702,67.0909776 149.786167,78.7999438 135.328978,78.8172078" id="Fill-8" fill="#5C50CA" fill-rule="nonzero"></path>
                        <path d="M0,19.5147836 C0.00508174423,18.4103057 0.932009179,17.5169058 2.07542302,17.5149423 L10.2256769,17.5149423 C11.3690907,17.5119971 12.2990674,18.4053969 12.3010999,19.5098748 C12.3010999,19.5118383 12.3010999,19.5128201 12.3010999,19.5147836 L12.3010999,49.7980942 C12.3010999,57.2113496 18.5222876,63.220691 26.1968813,63.220691 C33.871475,63.220691 40.0926627,57.2113496 40.0926627,49.7980942 L40.0926627,19.5147836 C40.0946953,18.4161963 41.0124755,17.5237781 42.1497913,17.5149423 L50.3000451,17.5149423 C51.4465078,17.5139606 52.3775007,18.4083422 52.3846154,19.5147836 L52.3846154,49.7980942 C52.0024609,63.7714573 39.9656165,74.7995462 25.499653,74.4294236 C11.5723644,74.0740272 0.367925092,63.2521075 0,49.7980942 L0,19.5147836 Z" id="Fill-10" fill="#5C50CA" fill-rule="nonzero"></path>
                    </g>
                    <g id="Group-14" transform="translate(60.931579, 0.000000)">
                        <g id="Fill-12-Clipped">
                            <mask id="mask-4" fill="white">
                                <use xlink:href="#path-3"></use>
                            </mask>
                            <g id="path-3"></g>
                            <path d="M51.9437005,84.4713578 C35.8775056,84.4713578 18.8008773,79.7554814 18.8008773,70.9996361 C18.8008773,65.7358101 24.9703206,61.931119 33.3794051,59.7320968 C33.9339732,60.9745289 34.608613,62.1591737 35.3921312,63.2674562 C27.1702771,65.2219135 22.4956239,68.4332502 22.4956239,70.9996361 C22.4956239,72.1409404 23.4358458,73.4132981 25.1972356,74.6443792 C25.3173073,74.2966222 25.4953796,73.9715671 25.7243297,73.6857252 C27.5233691,71.339138 32.9795055,69.4094469 40.6712129,68.447697 C47.499015,73.0737962 56.4005966,73.0737962 63.228399,68.447697 C70.8916147,69.4053191 76.3385933,71.3246911 78.159001,73.6578635 C78.3981268,73.9509286 78.5833222,74.2863027 78.7044111,74.6464431 C80.4678364,73.415362 81.406023,72.1326848 81.406023,70.9996361 C81.406023,68.4332502 76.7293347,65.2219135 68.5105333,63.2653923 C69.2950692,62.1581417 69.9686913,60.9734969 70.5202065,59.7300329 C78.9333613,61.9290556 85.1038223,65.7358101 85.1038223,70.9996361 C85.1078924,79.7554814 68.0190536,84.4713578 51.9437005,84.4713578 Z M51.9437005,34.8937712 C60.8564752,34.8948032 68.0821421,42.2235023 68.080107,51.2620934 C68.0790895,60.3017168 60.8524051,67.6283519 51.9396305,67.62732 C43.0299082,67.626288 35.8062767,60.3027487 35.803224,51.2662212 C35.8072942,42.2276299 43.0309257,34.9009947 51.9437005,34.8937712 Z M103.225481,76.4151548 L55.3626893,2.32326573 C53.8526359,-0.0119702773 50.0469757,-0.0119702773 48.5460804,2.32326573 L0.670060762,76.4151548 C-0.56627003,78.3242077 -0.0432461389,80.8895621 1.8402504,82.1443771 C2.21064086,82.391006 2.6186809,82.5746882 3.04808962,82.6881993 L50.9047757,100.9955 C51.5824683,101.17299 52.2927222,101.17299 52.9704148,100.9955 L100.843382,82.6881993 C103.024005,82.1103237 104.328512,79.849386 103.75868,77.6390123 C103.646749,77.2066377 103.466642,76.7949017 103.225481,76.4213465 L103.225481,76.4151548 Z" id="Fill-12" fill="#5C50CA" fill-rule="nonzero" mask="url(#mask-4)"></path>
                        </g>
                    </g>
                </g>
            </g>
        </g>
    </g>
</svg>