<?xml version="1.0" encoding="UTF-8"?>
<svg width="326px" height="122px" viewBox="0 0 326 122" version="1.1" xmlns="http://www.w3.org/2000/svg" xmlns:xlink="http://www.w3.org/1999/xlink">
    <!-- Generator: Sketch 47 (45396) - http://www.bohemiancoding.com/sketch -->
    <title>simple to integrate</title>
    <desc>Created with Sketch.</desc>
    <defs>
        <polygon id="path-1" points="8 12.010922 8 0.124978723 0.0817345319 0.124978723 0.0817345319 23.8968653 8 23.8968653"></polygon>
    </defs>
    <g id="Latest-Designs" stroke="none" stroke-width="1" fill="none" fill-rule="evenodd">
        <g id="simple-to-integrate">
            <g transform="translate(6.000000, 0.000000)">
                <g transform="translate(1.000000, 0.000000)">
                    <g id="Page-1" transform="translate(0.000000, 81.000000)">
                        <path d="M21.8779593,14.5695358 C21.8779593,16.068107 21.883082,17.5666783 21.8747575,19.0651246 C21.8724523,19.4774379 22.0023145,19.7977928 22.468999,19.7698055 C23.7151131,19.6950893 24.986713,19.7052097 26.1954309,19.4464519 C27.3492071,19.1995638 28.192031,18.3806846 28.2846251,17.1644855 C28.4012962,15.6330541 28.4097488,14.0901279 28.3834946,12.5534489 C28.3662052,11.5444059 27.9643238,10.6488115 27.0345408,10.0988106 C25.6460137,9.27718275 24.0828,9.27680792 22.535595,9.3170397 C22.1302557,9.32765989 21.8549068,9.62902339 21.8663049,10.1366685 C21.8990907,11.6137495 21.8779593,13.09183 21.8779593,14.5695358 L21.8779593,14.5695358 Z M18.5479018,29 C18.0239703,28.7187524 17.9991249,28.2545876 18.0000214,27.7364473 C18.0112915,20.8459431 18.0119318,13.9555638 18.0016863,7.06505965 C18.0005337,6.22456532 18.0534263,5.98579846 19.0915559,6.00241594 C20.9047608,6.03140281 22.7201429,5.96918099 24.5321951,6.02240688 C26.280597,6.07363368 27.957152,6.41635346 29.4203435,7.46088038 C31.0327358,8.61198402 31.8841404,10.1786495 31.9650802,12.0820374 C32.0391042,13.8242483 31.9864677,15.5767046 31.8910561,17.3195402 C31.7809165,19.3318788 30.6454543,20.7484872 28.9103716,21.7520327 C27.1372524,22.7775682 25.195594,23.065188 23.1708187,23.0350766 C21.5939016,23.0114623 21.5936454,23.0309535 21.5936454,24.5675075 C21.5936454,25.5459394 21.5627807,26.5254957 21.6047875,27.5021784 C21.6312978,28.1170249 21.5453633,28.6410376 20.9812181,29 L18.5479018,29 Z" id="Fill-1" fill="#5C58CA"></path>
                        <path d="M0,6.67228246 C0.96164871,5.63277152 2.21864534,6.12978368 3.3592772,6.0524307 C3.52167355,6.04138027 3.78371929,6.26380221 3.85533827,6.43778216 C3.9648883,6.70312086 3.98006073,7.02011387 3.98096078,7.31552001 C3.98931847,10.1191157 3.98481818,12.9229684 3.98700404,15.7265641 C3.98841842,17.5032412 4.67927796,18.911014 6.28665468,19.7499468 C8.52278688,20.9173086 11.2279784,19.8634064 12.0798199,17.410469 C12.2903051,16.8044945 12.3525378,16.1228375 12.3592239,15.4745887 C12.388283,12.6497916 12.3705389,9.82435203 12.3725962,6.99929795 C12.3732391,6.14623082 12.4872894,6.03354218 13.3301304,6.03032985 C13.9511711,6.02801697 14.5725975,6.04215123 15.193381,6.02660354 C15.693428,6.0138827 15.9628028,6.23244984 15.9616456,6.73344528 C15.9535451,10.1787366 16.0956258,13.6339219 15.8792259,17.0663639 C15.7025572,19.8691886 13.5651743,22.4696364 10.6277676,23.544226 C6.72485482,24.9717868 2.48904877,22.8817145 0.911116828,19.5581063 C0.59763915,18.8979076 0.455429834,18.1572722 0.22514332,17.4565981 C0.168053866,17.2824897 0.0759906923,17.1198171 0,16.9517479 L0,6.67228246 Z" id="Fill-3" fill="#5C58CA"></path>
                        <g id="Group-7" transform="translate(61.000000, 0.000000)">
                            <mask id="mask-2" fill="white">
                                <use xlink:href="#path-1"></use>
                            </mask>
                            <g id="Clip-6"></g>
                            <path d="M8,9.06382979 C7.54289231,9.15829787 7.08886154,9.30702128 6.62793846,9.33497872 C5.872,9.38068085 5.11138462,9.33931915 4.35310769,9.35119149 C3.83126154,9.3593617 3.53243077,9.57982979 3.53550769,10.1957872 C3.55126154,13.3639149 3.53993846,16.5321702 3.54523077,19.7002979 C3.54633846,20.3978298 3.70116923,20.5451489 4.39556923,20.5512766 C5.19495385,20.5585532 5.99470769,20.5650638 6.79396923,20.5501277 C7.33144615,20.5399149 7.60086154,20.8113191 7.61661538,21.3445532 C7.63409231,21.9390638 7.63729231,22.535617 7.61033846,23.129617 C7.58756923,23.6301702 7.32455385,23.8870213 6.81267692,23.8757872 C5.72664615,23.8521702 4.62486154,23.9691064 3.55716923,23.8180851 C1.65304615,23.5488511 0.216615385,22.6530638 0.146215385,20.2591915 C0.0359384615,16.499234 0.101661538,12.7335319 0.0966153846,8.97025532 C0.0931692308,6.33357447 0.0944,3.69689362 0.0973538462,1.06034043 C0.0983384615,0.274468085 0.234584615,0.136851064 0.996923077,0.12893617 C1.50929231,0.123446809 2.02190769,0.123702128 2.53427692,0.12906383 C3.22707692,0.136085106 3.53501538,0.447191489 3.53956923,1.17255319 C3.54793846,2.5332766 3.57156923,3.89514894 3.52947692,5.25446809 C3.51015385,5.87655319 3.76750769,6.10634043 4.30313846,6.11451064 C5.08196923,6.1266383 5.86424615,6.08042553 6.63852308,6.14412766 C7.09895385,6.18204255 7.54658462,6.38297872 8,6.5106383 L8,9.06382979 Z" id="Fill-5" fill="#5C58CA" mask="url(#mask-2)"></path>
                        </g>
                        <path d="M45.2552231,14.9958503 C45.2552231,14.7039175 45.2373135,14.4107329 45.2579289,14.1203024 C45.4314849,11.6905757 43.2316908,9.39429683 40.4625244,9.71952893 C39.0700816,9.8828961 37.325244,11.2519255 37.0214243,12.5907851 C36.6807544,14.0917601 36.6502178,15.5983684 36.9752973,17.1094834 C37.2938055,18.5900531 38.6957829,19.9784863 40.1536797,20.2372449 C41.8628269,20.5405695 43.5657894,19.8280132 44.4933545,18.5070551 C45.2540635,17.423574 45.3231251,16.2316822 45.2552231,14.9958503 M33,14.9674332 C33.1248521,13.8992247 33.1449522,12.807231 33.3956872,11.76769 C33.9626113,9.41695541 35.5030986,7.75824663 37.7134581,6.74461908 C42.0923023,4.73651737 46.9060029,6.98860575 48.5293384,11.1212317 C48.776208,11.7497885 48.9366218,12.4495758 48.9469295,13.1191934 C48.9717968,14.7213183 49.1161048,16.3715145 48.7889638,17.9179318 C48.2215244,20.5997823 46.4703733,22.5003496 43.8045418,23.4878133 C39.6967904,25.0094439 35.5389178,22.9949577 33.7435724,19.3709607 C33.0577232,17.9866587 33.0318251,16.4834304 33,14.9674332" id="Fill-8" fill="#5C58CA"></path>
                        <path d="M53.7360403,7.85067291 C54.4736775,7.42037785 55.0773564,7.02916701 55.7195567,6.70223618 C56.8057521,6.1491577 57.987118,5.90654061 59.2216674,6.0326425 C59.4699901,6.05796121 59.7605664,6.31692484 59.8945247,6.53852495 C60.0228848,6.7511529 59.9942271,7.05485443 59.9979592,7.31910304 C60.0186195,8.85678411 59.9113195,8.80565508 58.3030198,9.22525728 C55.7244885,9.89780071 53.7011178,11.4329007 53.7307086,14.1453205 C53.7594997,16.7854713 53.7377731,19.4261138 53.7364402,22.0665104 C53.735907,22.9216927 53.6601972,22.9938387 52.7624764,22.9981404 C52.0965502,23.001336 51.430624,22.9913806 50.7648311,22.9998611 C50.234596,23.006621 50.004401,22.7665849 50.0045343,22.2906916 C50.0066669,17.1532071 50.0093328,12.0157226 50.0000023,6.87823804 C49.9990693,6.40062405 50.2772494,6.18750448 50.7187121,6.168454 C51.4931379,6.13539219 52.2715625,6.13600673 53.0459882,6.16722493 C53.5045123,6.18566088 53.7704296,6.43208807 53.7395059,6.89605946 C53.7207117,7.17923564 53.7360403,7.46425541 53.7360403,7.85067291" id="Fill-10" fill="#5C58CA"></path>
                    </g>
                    <g id="Group-9" transform="translate(95.000000, 47.000000)" fill="#626069">
                        <rect id="Rectangle" x="0" y="12" width="26" height="2" rx="1"></rect>
                        <g id="Group" transform="translate(15.686292, 12.788276) rotate(-45.000000) translate(-15.686292, -12.788276) translate(7.186292, 4.288276)">
                            <rect id="Rectangle-Copy" transform="translate(15.572114, 8.871537) rotate(-270.000000) translate(-15.572114, -8.871537) " x="7.57211383" y="7.87153698" width="16" height="2" rx="1"></rect>
                            <rect id="Rectangle-Copy" x="0.572113832" y="14.871537" width="16" height="2" rx="1"></rect>
                        </g>
                    </g>
                    <g id="Group-14" transform="translate(148.000000, 0.000000)">
                        <text id="Your-App" font-family="Avenir-Heavy, Avenir" font-size="16" font-weight="600" fill="#4A4A4A">
                            <tspan x="51" y="45">Your App</tspan>
                        </text>
                        <g id="Group-2" transform="translate(19.000000, 69.000000)">
                            <rect id="Rectangle-4" fill="#5C58CA" x="0" y="0" width="132" height="33" rx="6"></rect>
                            <text id="Login-with-uPort" font-family="Avenir-Heavy, Avenir" font-size="12" font-weight="600" fill="#FFFFFF">
                                <tspan x="19.332" y="20">Login with uPort</tspan>
                            </text>
                        </g>
                        <g id="Group-4">
                            <rect id="Rectangle-4-Copy" stroke="#3B395A" stroke-width="2" x="1" y="1" width="169" height="120" rx="4"></rect>
                            <rect id="Rectangle-5-Copy-2" fill="#3B395A" x="2" y="18" width="169" height="2"></rect>
                            <circle id="Oval-3" stroke="#3B395A" stroke-width="2" cx="11" cy="11" r="2"></circle>
                            <circle id="Oval-3-Copy" stroke="#3B395A" stroke-width="2" cx="21" cy="11" r="2"></circle>
                            <circle id="Oval-3-Copy-2" stroke="#3B395A" stroke-width="2" cx="31" cy="11" r="2"></circle>
                        </g>
                    </g>
                </g>
                <g id="uPort-Logo-Symbol" transform="translate(0.000000, 9.000000)" fill-rule="nonzero" fill="#5C58CA">
                    <path d="M70.4902261,52.0090545 L38.2059108,1.48062936 C36.9410789,-0.49354312 34.0589211,-0.49354312 32.7940892,1.48062936 L0.509773854,52.0090545 C-0.57881096,53.7026867 0.146912249,55.9781802 2.01305764,56.7262877 L34.297373,69.7662164 C35.0645661,70.0779279 35.9250665,70.0779279 36.702627,69.7662164 L68.9869424,56.7262877 C70.8530878,55.9781802 71.578811,53.713077 70.4902261,52.0090545 Z M35.5,24.6719608 C41.4405628,24.6719608 46.251071,29.4930978 46.251071,35.4467864 C46.251071,41.400475 41.4405628,46.221612 35.5,46.221612 C29.5594372,46.221612 24.748929,41.400475 24.748929,35.4467864 C24.748929,29.4930978 29.5698046,24.6719608 35.5,24.6719608 Z M50.885332,55.4170996 C47.7750897,56.8094107 42.60172,57.7549354 36.6611571,57.8692296 C36.6507897,57.8692296 36.6507897,57.8692296 36.6404222,57.8692296 C36.2671931,57.87962 35.8835966,57.87962 35.5,57.87962 C35.5,57.87962 35.4896325,57.87962 35.4896325,57.87962 C35.4896325,57.87962 35.4792651,57.87962 35.4792651,57.87962 C35.0956685,57.87962 34.7224394,57.87962 34.3388429,57.8692296 C34.3284754,57.8692296 34.3284754,57.8692296 34.3181079,57.8692296 C28.3879126,57.7549354 23.2041753,56.8094107 20.093933,55.4170996 C15.7188588,53.7546386 12.9818456,51.4064123 12.9818456,48.7880362 C12.9818456,45.6189699 17.0044256,42.8343476 23.0901331,41.2134481 C23.3700549,41.8264806 23.6914466,42.408342 24.0543082,42.9694226 C18.2485226,44.4344664 14.9309308,46.8658156 14.9309308,48.7984266 C14.9309308,49.7231706 15.6877564,50.7622087 17.1081004,51.7492949 C17.864926,49.7023898 22.3747774,47.9983672 28.5434247,47.2502598 C30.5754497,48.455544 32.9496013,49.16209 35.4792651,49.16209 C38.0089288,49.16209 40.372713,48.455544 42.4151054,47.2502598 C48.5837527,47.9983672 53.0936041,49.7023898 53.8504297,51.7492949 C55.2707737,50.7622087 56.0275993,49.7231706 56.0275993,48.7984266 C56.0275993,46.8658156 52.720375,44.4344664 46.9042219,42.9694226 C47.2670835,42.408342 47.5884752,41.8264806 47.868397,41.2134481 C53.9541045,42.844738 57.9766845,45.6293602 57.9766845,48.7880362 C57.9974195,51.4064123 55.2604062,53.7546386 50.885332,55.4170996 Z" id="Shape"></path>
                </g>
            </g>
        </g>
    </g>
</svg>