<?xml version="1.0" encoding="utf-8"?>
<!-- Generator: Adobe Illustrator 22.0.1, SVG Export Plug-In . SVG Version: 6.00 Build 0)  -->
<svg version="1.1" xmlns="http://www.w3.org/2000/svg" xmlns:xlink="http://www.w3.org/1999/xlink" x="0px" y="0px"
	 viewBox="0 0 513.8 118.3" style="enable-background:new 0 0 513.8 118.3;" xml:space="preserve">
<style type="text/css">
	.st0{display:none;}
	.st1{display:inline;fill:#33CCFF;}
	.st2{display:none;opacity:0.5;}
	.st3{display:inline;}
	.st4{opacity:0.5;fill:#33CCFF;}
	.st5{display:inline;opacity:0.5;}
	.st6{fill:#33CCFF;}
	.st7{fill:url(#SVGID_1_);}
	.st8{fill:url(#SVGID_2_);}
	.st9{fill:url(#SVGID_3_);}
	.st10{fill:url(#SVGID_4_);}
	.st11{fill:url(#SVGID_5_);}
	.st12{fill:url(#SVGID_6_);}
	.st13{fill:url(#SVGID_7_);}
	.st14{fill:#FFFFFF;}
	.st15{fill:#0099CC;}
	.st16{fill:#33CAFF;}
	.st17{opacity:5.000000e-02;fill:#F8F9F9;}
	.st18{fill:#00FFCA;}
	.st19{fill:#F5F5F5;}
	.st20{fill:#F2F2F2;}
	.st21{opacity:0.9;fill:#00FFFF;}
	.st22{fill:#15EBD6;}
	.st23{fill:#FFDB15;}
	.st24{fill:#FF99FF;}
	.st25{fill:#3366FF;}
	.st26{fill:#D1D1D1;}
	.st27{opacity:0.3;fill:#15EBD6;}
	.st28{fill:#919D9D;}
	.st29{fill:#FF6666;}
	.st30{opacity:0.1;fill:#33CCFF;}
	.st31{opacity:0.2;fill:#33CCFF;}
	.st32{opacity:5.000000e-02;fill:#33CCFF;}
	.st33{opacity:0.95;fill:#33CCFF;}
	.st34{opacity:0.9;fill:#33CCFF;}
	.st35{opacity:0.7;fill:#33CCFF;}
	.st36{opacity:0.6;fill:#33CCFF;}
	.st37{opacity:0.8;fill:#33CCFF;}
	.st38{opacity:0.3;fill:#33CCFF;}
	.st39{opacity:0.4;fill:#33CCFF;}
	.st40{fill:url(#SVGID_8_);}
	.st41{fill:url(#SVGID_9_);}
	.st42{fill:url(#SVGID_10_);}
	.st43{fill:url(#SVGID_11_);}
	.st44{fill:url(#SVGID_12_);}
	.st45{fill:url(#SVGID_13_);}
	.st46{fill:url(#SVGID_14_);}
	.st47{fill:url(#SVGID_15_);}
	.st48{fill:url(#SVGID_16_);}
	.st49{fill:url(#SVGID_17_);}
	.st50{fill:url(#SVGID_18_);}
	.st51{fill:url(#SVGID_19_);}
	.st52{fill:url(#SVGID_20_);}
	.st53{fill:url(#SVGID_21_);}
	.st54{fill:url(#SVGID_22_);}
	.st55{fill:url(#SVGID_23_);}
	.st56{fill:url(#SVGID_24_);}
	.st57{fill:#485F64;}
	.st58{fill:#9C9C9C;}
	.st59{fill:#221F1F;}
	.st60{fill:#06BC65;}
	.st61{fill:#1E1E1E;}
	.st62{fill:#FFFF5A;}
	.st63{fill:#F05A2A;}
	.st64{fill:#D661AA;}
	.st65{fill:#F7EA2F;}
	.st66{fill:#26A7DF;}
	.st67{fill:#EFE92B;}
	.st68{fill:#F9A0DC;}
	.st69{fill:#FF3951;}
	.st70{fill:#4EDCCA;}
	.st71{fill:#FFC600;}
	.st72{clip-path:url(#SVGID_26_);}
	.st73{clip-path:url(#SVGID_28_);}
	.st74{fill:#0078BF;}
	.st75{clip-path:url(#SVGID_30_);}
	.st76{clip-path:url(#SVGID_32_);}
	.st77{fill:#F9A4D8;}
	.st78{clip-path:url(#SVGID_34_);}
	.st79{clip-path:url(#SVGID_36_);}
	.st80{fill:url(#SVGID_37_);}
	.st81{fill:url(#SVGID_38_);}
	.st82{clip-path:url(#SVGID_40_);}
	.st83{clip-path:url(#SVGID_42_);}
	.st84{clip-path:url(#SVGID_44_);}
	.st85{clip-path:url(#SVGID_46_);}
	.st86{clip-path:url(#SVGID_48_);}
	.st87{clip-path:url(#SVGID_50_);}
	.st88{fill:url(#SVGID_51_);}
	.st89{fill:url(#SVGID_52_);}
	.st90{fill:url(#SVGID_53_);}
	.st91{fill:url(#SVGID_54_);}
	.st92{fill:url(#SVGID_55_);}
	.st93{fill:url(#SVGID_56_);}
	.st94{fill:url(#SVGID_57_);}
	.st95{fill:url(#SVGID_58_);}
	.st96{fill:#363636;}
	.st97{fill:#474747;}
	.st98{fill:#444444;}
	.st99{fill:#5E5E5E;}
	.st100{clip-path:url(#SVGID_60_);fill:url(#SVGID_61_);}
	.st101{clip-path:url(#SVGID_60_);}
	.st102{opacity:0.5;fill:#009DC1;}
	.st103{clip-path:url(#SVGID_63_);fill:url(#SVGID_64_);}
	.st104{opacity:0.5;clip-path:url(#SVGID_63_);}
	.st105{clip-path:url(#SVGID_63_);}
	.st106{clip-path:url(#SVGID_66_);fill:url(#SVGID_67_);}
	.st107{opacity:0.77;clip-path:url(#SVGID_66_);}
	.st108{fill:#038478;}
	.st109{clip-path:url(#SVGID_66_);}
	.st110{clip-path:url(#SVGID_69_);fill:url(#SVGID_70_);}
	.st111{opacity:0.5;clip-path:url(#SVGID_69_);}
	.st112{fill:#EA3D3D;}
	.st113{clip-path:url(#SVGID_69_);}
	.st114{clip-path:url(#SVGID_72_);fill:url(#SVGID_73_);}
	.st115{clip-path:url(#SVGID_72_);}
	.st116{opacity:0.47;}
	.st117{fill:#29B29E;}
	.st118{opacity:0.3;}
	.st119{clip-path:url(#SVGID_75_);fill:url(#SVGID_76_);}
	.st120{opacity:0.5;clip-path:url(#SVGID_75_);}
	.st121{clip-path:url(#SVGID_75_);}
</style>
<g id="Layer_3" class="st0">
</g>
<g id="Layer_2" class="st2">
</g>
<g id="Layer_1">
	<g>
		<defs>
			<rect id="SVGID_74_" width="513.8" height="118.3"/>
		</defs>
		<clipPath id="SVGID_1_">
			<use xlink:href="#SVGID_74_"  style="overflow:visible;"/>
		</clipPath>
		<linearGradient id="SVGID_2_" gradientUnits="userSpaceOnUse" x1="0" y1="59.1443" x2="513.7979" y2="59.1443">
			<stop  offset="0" style="stop-color:#FF6666"/>
			<stop  offset="1" style="stop-color:#F9A4D8"/>
		</linearGradient>
		<rect style="clip-path:url(#SVGID_1_);fill:url(#SVGID_2_);" width="513.8" height="118.3"/>
		<g style="opacity:0.5;clip-path:url(#SVGID_1_);">
			<path class="st29" d="M21.4,32.6c-2.3,0-4.1,1.9-4.1,4.1s1.9,4.1,4.1,4.1c2.3,0,4.2-1.9,4.2-4.1S23.7,32.6,21.4,32.6z M21.4,38.9
				c-1.2,0-2.2-1-2.2-2.2c0-1.2,1-2.2,2.2-2.2c1.2,0,2.2,1,2.2,2.2C23.6,37.9,22.6,38.9,21.4,38.9z"/>
			<path class="st29" d="M-5.1-7.6c-0.5,0-1,0.4-1,1c0,0.5,0.4,1,1,1h5v1.5c0,0.5,0.4,1,1,1h5.3c3.1,0,5.7-2.3,6.2-5.3h10
				c3,0,5.5,2.4,5.5,5.5V9c-1.4-1.3-3.3-2.2-5.4-2.2c-0.9,0-1.7,0.2-2.6,0.4c-0.3-4-3.6-7.2-7.7-7.2c-4.3,0-7.7,3.5-7.7,7.7v36
				c0,4.3,3.5,7.7,7.7,7.7c4.1,0,7.4-3.2,7.7-7.2c0.8,0.3,1.7,0.4,2.6,0.4c4.3,0,7.7-3.5,7.7-7.7c0-1.6-0.5-3.1-1.4-4.4
				c2.6-1.3,4.3-4,4.3-6.9c0-2.9-1.7-5.6-4.3-6.9c0.8-1.3,1.3-2.7,1.3-4.3c0-0.9-0.2-1.7-0.4-2.5v-15c0-4.1-3.3-7.4-7.4-7.4h-10
				c-0.5-3-3-5.3-6.2-5.3H0.8c-0.5,0-1,0.4-1,1v1h-5c-0.5,0-1,0.4-1,1c0,0.5,0.4,1,1,1h5v4.1H-5.1z M31.1,25.7
				c0,2.6-1.8,4.9-4.3,5.6c-0.3,0.1-0.6,0.4-0.7,0.7c-0.1,0.3,0,0.7,0.3,0.9c1.1,1.1,1.7,2.6,1.7,4.1c0,3.2-2.6,5.8-5.8,5.8
				c-1.1,0-2.2-0.3-3.1-0.9c-0.3-0.2-0.7-0.2-1.1,0c-0.3,0.2-0.5,0.6-0.4,1c0.1,0.3,0.1,0.6,0.1,0.9c0,3.2-2.6,5.8-5.8,5.8
				c-3.2,0-5.8-2.6-5.8-5.8v-36C6.3,4.6,8.9,2,12.1,2c3.2,0,5.8,2.6,5.8,5.8c0,0.3,0,0.6-0.1,0.9c-0.1,0.4,0.1,0.8,0.4,1
				c0.3,0.2,0.7,0.2,1.1,0c0.9-0.6,2-0.9,3.1-0.9c2.5,0,4.6,1.6,5.4,3.8c0,0,0,0,0,0c0.2,0.6,0.3,1.3,0.3,1.9c0,1.5-0.6,2.9-1.6,4
				c-0.2,0.2-0.3,0.6-0.2,0.9c0.1,0.3,0.3,0.6,0.7,0.7C29.4,20.9,31.1,23.2,31.1,25.7z M1.8-13.7h4.3c2.4,0,4.3,1.9,4.3,4.3
				c0,2.4-1.9,4.3-4.3,4.3H1.8V-13.7z"/>
			<path class="st29" d="M505-12.4c-19.6,0-35.5,15.9-35.5,35.5c0,19.6,15.9,35.5,35.5,35.5c19.6,0,35.5-15.9,35.5-35.5
				C540.5,3.6,524.6-12.4,505-12.4z M505,56.6c-18.4,0-33.4-15-33.4-33.4c0-18.4,15-33.4,33.4-33.4c18.4,0,33.4,15,33.4,33.4
				C538.4,41.6,523.4,56.6,505,56.6z"/>
			<path class="st29" d="M479.2,11.9c0.1,0.1,0.3,0.1,0.5,0.1c0.4,0,0.8-0.2,1-0.6c0.2-0.5,0-1.2-0.5-1.4c-0.5-0.3-1.2,0-1.4,0.5
				C478.5,11,478.7,11.6,479.2,11.9z"/>
			<path class="st29" d="M483.8,41.4c-0.4,0.4-0.5,1.1-0.1,1.5c0.2,0.2,0.5,0.3,0.8,0.3c0.3,0,0.5-0.1,0.7-0.3
				c0.4-0.4,0.5-1.1,0.1-1.5C484.9,41.1,484.2,41,483.8,41.4z"/>
			<path class="st29" d="M491.5,46.5c-0.5-0.3-1.2-0.1-1.4,0.4c-0.3,0.5-0.1,1.2,0.4,1.4c0.2,0.1,0.3,0.1,0.5,0.1
				c0.4,0,0.7-0.2,0.9-0.5C492.2,47.5,492.1,46.8,491.5,46.5z"/>
			<path class="st29" d="M499.1,49.4L499.1,49.4c-0.6-0.1-1.1,0.2-1.3,0.8c-0.1,0.6,0.2,1.1,0.8,1.3c0.1,0,0.2,0,0.2,0
				c0.5,0,0.9-0.3,1-0.8C500,50.1,499.6,49.6,499.1,49.4z"/>
			<path class="st29" d="M477.1,26.3c-0.6,0.1-1,0.6-0.9,1.2c0.1,0.5,0.5,0.9,1,0.9l0.2,0c0.6-0.1,1-0.6,0.9-1.2
				C478.2,26.6,477.7,26.2,477.1,26.3z"/>
			<path class="st29" d="M479.3,34.4c-0.5,0.3-0.7,0.9-0.5,1.4c0.2,0.4,0.6,0.6,1,0.6c0.2,0,0.3,0,0.5-0.1c0.5-0.3,0.7-0.9,0.5-1.4
				C480.4,34.3,479.8,34.1,479.3,34.4z"/>
			<path class="st29" d="M507.1,50c-0.6,0-1,0.6-1,1.1c0,0.5,0.5,1,1.1,1h0.1c0.6,0,1-0.6,1-1.1C508.2,50.4,507.7,50,507.1,50z"/>
			<path class="st29" d="M484.4,5.1c0.3,0,0.6-0.1,0.8-0.3c0.4-0.4,0.4-1.1-0.1-1.5c-0.4-0.4-1.1-0.4-1.5,0.1
				c-0.4,0.4-0.4,1.1,0.1,1.5C483.9,5,484.1,5.1,484.4,5.1z"/>
			<path class="st29" d="M477.1,20l0.2,0c0.5,0,1-0.4,1-0.9c0.1-0.6-0.3-1.1-0.9-1.2c-0.6-0.1-1.1,0.3-1.2,0.9
				C476.1,19.4,476.5,19.9,477.1,20z"/>
			<path class="st29" d="M518.6,8.4c-0.2,0.1-5.1,1.4-9.1,5.4c-0.3,0.3-0.6,0.7-0.9,1c0-0.2,0-0.5,0-0.7c0-5.6-2.5-10-2.6-10.2
				c-0.2-0.3-0.5-0.5-0.9-0.5s-0.7,0.2-0.9,0.5C504,4,501.5,8.5,501.5,14c0,1.7,0.1,3.3,0.3,4.8c-1.3,1-2.1,2.6-2.1,4.3
				c0,3,2.4,5.4,5.4,5.4c3,0,5.4-2.4,5.4-5.4c0-0.3,0-0.5-0.1-0.8c1.3-1,2.7-2.1,4.1-3.5c3.9-3.9,5.3-8.9,5.4-9.1
				c0.1-0.4,0-0.8-0.3-1C519.3,8.4,518.9,8.3,518.6,8.4z M505.1,6.9c0.6,1.7,1.4,4.3,1.4,7.1c0,1.2-0.1,2.3-0.2,3.4
				c-0.1,0.1-0.2,0.3-0.3,0.4c0,0-0.1,0-0.1,0c-0.3,0-0.6-0.1-0.9-0.1c-0.1,0-0.1,0-0.2,0c-0.3,0-0.6,0.1-0.9,0.1c0,0-0.1,0-0.1,0
				c-0.1-1.2-0.2-2.5-0.2-3.8C503.7,11.2,504.4,8.6,505.1,6.9z M505.1,26.3c-1.8,0-3.2-1.5-3.2-3.2c0-1.2,0.6-2.3,1.7-2.8
				c0.2-0.1,0.5-0.2,0.7-0.3c0.1,0,0.2,0,0.3-0.1c0.2,0,0.3-0.1,0.5-0.1c0.1,0,0.3,0,0.4,0c0,0,0.1,0,0.1,0c0.2,0,0.4,0.1,0.6,0.1
				c0,0,0,0,0,0c0.2,0.1,0.3,0.1,0.5,0.2c0.7,0.4,1.3,1.1,1.6,1.9v0c0.1,0.3,0.1,0.6,0.1,1C508.3,24.9,506.9,26.3,505.1,26.3z
				 M513,17.3c-1.1,1.1-2.3,2.1-3.4,3c-0.1-0.1-0.1-0.1-0.2-0.2c-0.1-0.2-0.2-0.3-0.4-0.5c-0.1-0.1-0.2-0.2-0.3-0.3
				c-0.2-0.1-0.3-0.3-0.5-0.4c-0.1,0-0.1-0.1-0.2-0.2c0-0.1,0.1-0.1,0.1-0.2c0,0,0,0,0,0c0.8-1.1,1.8-2.1,2.8-3.2
				c2-2,4.4-3.3,6.1-4.1C516.3,12.9,515,15.2,513,17.3z"/>
			<path class="st29" d="M507.8,40.8c-1.7,0-3,1.2-3.4,2.7c-11-0.3-19.8-9.4-19.8-20.4c0-6.5,3.1-12.5,8.2-16.4v2.7
				c0,0.6,0.5,1.1,1.1,1.1c0.6,0,1.1-0.5,1.1-1.1V4.3c0-0.6-0.5-1.1-1.1-1.1h-5.1c-0.6,0-1.1,0.5-1.1,1.1c0,0.6,0.5,1.1,1.1,1.1h2.4
				c-5.4,4.3-8.6,10.8-8.6,17.7c0,12.3,9.9,22.3,22.1,22.6c0.5,1.3,1.8,2.2,3.2,2.2c1.9,0,3.5-1.6,3.5-3.5S509.8,40.8,507.8,40.8z
				 M507.8,45.7c-0.8,0-1.4-0.6-1.4-1.4s0.6-1.4,1.4-1.4c0.8,0,1.4,0.6,1.4,1.4S508.6,45.7,507.8,45.7z"/>
			<path class="st29" d="M257.3,33.1c0-2-1.6-3.7-3.7-3.7c-2,0-3.7,1.6-3.7,3.7c0,2,1.6,3.7,3.7,3.7
				C255.7,36.7,257.3,35.1,257.3,33.1z M253.6,34.8c-0.9,0-1.7-0.8-1.7-1.7c0-0.9,0.8-1.7,1.7-1.7c0.9,0,1.7,0.8,1.7,1.7
				C255.3,34,254.6,34.8,253.6,34.8z"/>
			<path class="st29" d="M287.9,45.9c0-1.2-0.9-2.3-2-2.6c0.6-1,0.5-2.4-0.4-3.3c-0.9-0.9-2.2-1-3.3-0.4c-0.3-1.2-1.3-2-2.6-2
				c-1.2,0-2.3,0.9-2.6,2c-1-0.6-2.4-0.5-3.3,0.4c-0.9,0.9-1,2.2-0.4,3.3c-1.2,0.3-2,1.3-2,2.6c0,1.2,0.9,2.3,2,2.6
				c-0.6,1-0.5,2.4,0.4,3.3c0.9,0.9,2.2,1,3.3,0.4c0.2,0.8,0.8,1.5,1.6,1.8v2.9l-2.3-2.3c-0.4-0.4-1-0.4-1.4,0c-0.4,0.4-0.4,1,0,1.4
				l3.6,3.6v2.1l-2.3-2.3c-0.4-0.4-1-0.4-1.4,0c-0.4,0.4-0.4,1,0,1.4l3.6,3.6v3.3h-23.8v-6.5c2.3-0.1,7.6-0.6,11.1-4.1
				c4.5-4.5,4.1-11.9,4.1-12.2c0-0.5-0.4-0.9-0.9-0.9c-0.3,0-7.7-0.4-12.2,4.1c-0.9,0.9-1.5,1.8-2.1,2.8v-5.5
				c1.5-0.4,2.6-1.8,2.6-3.4v0l0,0c1.4,1.4,3.7,1.4,5.1,0c1.4-1.4,1.4-3.7,0-5.1l0,0h0c2,0,3.6-1.6,3.6-3.6c0-2-1.6-3.6-3.6-3.6h0
				l0,0c1.4-1.4,1.4-3.7,0-5.1c-1.4-1.4-3.7-1.4-5.1,0l0,0v0c0-2-1.6-3.6-3.6-3.6c-2,0-3.6,1.6-3.6,3.6v0l0,0
				c-0.7-0.7-1.6-1.1-2.5-1.1c-1,0-1.9,0.4-2.5,1.1c-0.7,0.7-1.1,1.6-1.1,2.5c0,1,0.4,1.9,1.1,2.5l0,0h0c-2,0-3.6,1.6-3.6,3.6
				c0,2,1.6,3.6,3.6,3.6h0l0,0c-0.7,0.7-1.1,1.6-1.1,2.5s0.4,1.9,1.1,2.5c0.7,0.7,1.6,1.1,2.5,1.1c1,0,1.9-0.4,2.5-1.1l0,0v0
				c0,1.6,1.1,3,2.6,3.4v5.9c-0.6-1.1-1.3-2.3-2.3-3.2c-4.5-4.5-11.9-4.1-12.2-4.1c-0.5,0-0.9,0.4-0.9,0.9c0,0.3-0.4,7.7,4.1,12.2
				c3.6,3.6,9.2,4.1,11.3,4.1v6.5h-24.5v-2.9l3.6-3.6c0.4-0.4,0.4-1,0-1.4c-0.4-0.4-1-0.4-1.4,0l-2.3,2.3v-2l3.6-3.6
				c0.4-0.4,0.4-1,0-1.4c-0.4-0.4-1-0.4-1.4,0l-2.3,2.3V54c0.8-0.3,1.4-1,1.6-1.8c1,0.6,2.4,0.5,3.3-0.4c0.9-0.9,1-2.2,0.4-3.3
				c1.2-0.3,2-1.3,2-2.6s-0.9-2.3-2-2.6c0.6-1,0.5-2.4-0.4-3.3c-0.9-0.9-2.2-1-3.3-0.4c-0.3-1.2-1.3-2-2.6-2c-1.2,0-2.3,0.9-2.6,2
				c-1-0.6-2.4-0.5-3.3,0.4c-0.9,0.9-1,2.2-0.4,3.3c-1.2,0.3-2,1.3-2,2.6s0.9,2.3,2,2.6c-0.6,1-0.5,2.4,0.4,3.3
				c0.9,0.9,2.2,1,3.3,0.4c0.2,0.8,0.8,1.5,1.6,1.8v3.3l-2.3-2.3c-0.4-0.4-1-0.4-1.4,0c-0.4,0.4-0.4,1,0,1.4l3.6,3.6v2.1l-2.3-2.3
				c-0.4-0.4-1-0.4-1.4,0c-0.4,0.4-0.4,1,0,1.4l3.6,3.6v2.9h-5c-0.3,0-0.6,0.2-0.8,0.4c-0.2,0.3-0.2,0.6-0.1,0.9l7.4,18.6
				c0.1,0.4,0.5,0.6,0.9,0.6h49.9c0.4,0,0.8-0.2,0.9-0.6l7.4-18.6c0.1-0.3,0.1-0.6-0.1-0.9c-0.2-0.3-0.5-0.4-0.8-0.4h-5.6v-3.3
				l3.6-3.6c0.4-0.4,0.4-1,0-1.4c-0.4-0.4-1-0.4-1.4,0l-2.3,2.3v-2.1l3.6-3.6c0.4-0.4,0.4-1,0-1.4c-0.4-0.4-1-0.4-1.4,0l-2.3,2.3V54
				c0.8-0.3,1.4-1,1.6-1.8c1,0.6,2.4,0.5,3.3-0.4c0.9-0.9,1-2.2,0.4-3.3C287,48.2,287.9,47.2,287.9,45.9z M258.3,49.4
				c3-3,7.8-3.5,9.8-3.5c-0.1,2-0.5,6.8-3.5,9.8c-3,3-7.7,3.5-9.7,3.5v-1.5C255.1,55.4,255.9,51.9,258.3,49.4z M252.2,42v-2.4
				c0-0.4-0.2-0.8-0.6-0.9c-0.1-0.1-0.2-0.1-0.4-0.1c-0.3,0-0.5,0.1-0.7,0.3l-1.7,1.7c-0.6,0.6-1.7,0.6-2.3,0
				c-0.3-0.3-0.5-0.7-0.5-1.2c0-0.4,0.2-0.9,0.5-1.2l1.7-1.7c0.3-0.3,0.4-0.7,0.2-1.1c-0.1-0.4-0.5-0.6-0.9-0.6h-2.4
				c-0.9,0-1.6-0.7-1.6-1.6c0-0.9,0.7-1.6,1.6-1.6h2.4c0.4,0,0.8-0.2,0.9-0.6c0.1-0.4,0.1-0.8-0.2-1.1l-1.7-1.7
				c-0.3-0.3-0.5-0.7-0.5-1.2c0-0.4,0.2-0.9,0.5-1.2c0.6-0.6,1.7-0.6,2.3,0l1.7,1.7c0.3,0.3,0.7,0.4,1.1,0.2
				c0.4-0.2,0.6-0.5,0.6-0.9v-2.4c0-0.9,0.7-1.6,1.6-1.6c0.9,0,1.6,0.7,1.6,1.6v2.4c0,0.4,0.2,0.8,0.6,0.9c0.4,0.2,0.8,0.1,1.1-0.2
				l1.7-1.7c0.6-0.6,1.7-0.6,2.3,0c0.6,0.6,0.6,1.7,0,2.3l-1.7,1.7c-0.3,0.3-0.4,0.7-0.2,1.1c0.1,0.4,0.5,0.6,0.9,0.6h2.4
				c0.9,0,1.6,0.7,1.6,1.6c0,0.9-0.7,1.6-1.6,1.6h-2.4c-0.4,0-0.7,0.2-0.9,0.6c-0.1,0.4-0.1,0.8,0.2,1.1l1.7,1.7
				c0.6,0.6,0.6,1.7,0,2.3c-0.6,0.6-1.7,0.6-2.3,0l-1.7-1.7c-0.3-0.3-0.7-0.4-1.1-0.2c-0.4,0.2-0.6,0.5-0.6,0.9V42
				c0,0.9-0.7,1.6-1.6,1.6C253,43.6,252.2,42.9,252.2,42z M243,55.7c-3-3-3.5-7.8-3.5-9.8c2,0.1,6.8,0.5,9.8,3.5s3.5,7.8,3.5,9.8
				C250.8,59.2,246,58.7,243,55.7z M226.1,49.1c-0.1-0.1-0.2-0.1-0.4-0.1c-0.3,0-0.5,0.1-0.7,0.3l-1.1,1.1c-0.3,0.3-0.7,0.3-1,0
				c-0.3-0.3-0.3-0.7,0-1l1.1-1.1c0.3-0.3,0.4-0.7,0.2-1.1c-0.2-0.4-0.5-0.6-0.9-0.6h-1.5c-0.4,0-0.7-0.3-0.7-0.7
				c0-0.4,0.3-0.7,0.7-0.7h1.5c0.4,0,0.7-0.2,0.9-0.6c0.1-0.4,0.1-0.8-0.2-1.1l-1.1-1.1c-0.3-0.3-0.3-0.7,0-1c0.3-0.3,0.7-0.3,1,0
				l1.1,1.1c0.3,0.3,0.7,0.4,1.1,0.2c0.4-0.2,0.6-0.5,0.6-0.9v-1.5c0-0.4,0.3-0.7,0.7-0.7c0.4,0,0.7,0.3,0.7,0.7v1.5
				c0,0.4,0.2,0.8,0.6,0.9c0.4,0.2,0.8,0.1,1.1-0.2l1.1-1.1c0.3-0.3,0.7-0.3,1,0c0.3,0.3,0.3,0.7,0,1l-1.1,1.1
				c-0.3,0.3-0.4,0.7-0.2,1.1c0.2,0.4,0.5,0.6,0.9,0.6h1.5c0.4,0,0.7,0.3,0.7,0.7c0,0.4-0.3,0.7-0.7,0.7h-1.5
				c-0.4,0-0.7,0.2-0.9,0.6c-0.1,0.4-0.1,0.8,0.2,1.1l1.1,1.1c0.3,0.3,0.3,0.7,0,1c-0.3,0.3-0.7,0.3-1,0l-1.1-1.1
				c-0.3-0.3-0.7-0.4-1.1-0.2c-0.4,0.2-0.6,0.5-0.6,0.9v1.5c0,0.4-0.3,0.7-0.7,0.7c-0.4,0-0.7-0.3-0.7-0.7V50
				C226.7,49.6,226.5,49.2,226.1,49.1z M278.1,86.3h-48.5l-6.7-16.6h61.9L278.1,86.3z M285.2,46.6h-1.5c-0.4,0-0.7,0.2-0.9,0.6
				c-0.1,0.4-0.1,0.8,0.2,1.1l1.1,1.1c0.3,0.3,0.3,0.7,0,1c-0.3,0.3-0.7,0.3-1,0l-1.1-1.1c-0.3-0.3-0.7-0.4-1.1-0.2
				c-0.4,0.2-0.6,0.5-0.6,0.9v1.5c0,0.4-0.3,0.7-0.7,0.7c-0.4,0-0.7-0.3-0.7-0.7V50c0-0.4-0.2-0.8-0.6-0.9c-0.1-0.1-0.2-0.1-0.4-0.1
				c-0.3,0-0.5,0.1-0.7,0.3l-1.1,1.1c-0.3,0.3-0.7,0.3-1,0c-0.3-0.3-0.3-0.7,0-1l1.1-1.1c0.3-0.3,0.4-0.7,0.2-1.1
				c-0.1-0.4-0.5-0.6-0.9-0.6H274c-0.4,0-0.7-0.3-0.7-0.7c0-0.4,0.3-0.7,0.7-0.7h1.5c0.4,0,0.8-0.2,0.9-0.6c0.1-0.4,0.1-0.8-0.2-1.1
				l-1.1-1.1c-0.3-0.3-0.3-0.7,0-1c0.3-0.3,0.7-0.3,1,0l1.1,1.1c0.3,0.3,0.7,0.4,1.1,0.2c0.4-0.2,0.6-0.5,0.6-0.9v-1.5
				c0-0.4,0.3-0.7,0.7-0.7c0.4,0,0.7,0.3,0.7,0.7v1.5c0,0.4,0.2,0.8,0.6,0.9c0.4,0.2,0.8,0.1,1.1-0.2l1.1-1.1c0.3-0.3,0.7-0.3,1,0
				c0.3,0.3,0.3,0.7,0,1l-1.1,1.1c-0.3,0.3-0.4,0.7-0.2,1.1c0.2,0.4,0.5,0.6,0.9,0.6h1.5c0.4,0,0.7,0.3,0.7,0.7
				C285.9,46.3,285.6,46.6,285.2,46.6z"/>
			<path class="st29" d="M279.5,43.1c-1.5,0-2.7,1.2-2.7,2.7c0,1.5,1.2,2.7,2.7,2.7c1.5,0,2.7-1.2,2.7-2.7
				C282.2,44.3,281,43.1,279.5,43.1z M279.5,46.5c-0.4,0-0.8-0.3-0.8-0.8s0.3-0.8,0.8-0.8c0.4,0,0.7,0.3,0.7,0.8
				S279.9,46.5,279.5,46.5z"/>
			<path class="st29" d="M230,45.8c0-1.5-1.2-2.7-2.7-2.7c-1.5,0-2.7,1.2-2.7,2.7c0,1.5,1.2,2.7,2.7,2.7
				C228.8,48.5,230,47.3,230,45.8z M226.6,45.8c0-0.4,0.3-0.8,0.7-0.8c0.4,0,0.8,0.3,0.8,0.8s-0.3,0.8-0.8,0.8
				C226.9,46.5,226.6,46.2,226.6,45.8z"/>
			<path class="st29" d="M525.7,111c-1.6-1.6-4.2-1.8-6-0.6l-3.9-3.9c-6.3-6.3-15.7-7.6-23.2-3.9c3.7-7.6,2.4-17-3.9-23.2l-3.9-3.9
				c1.2-1.9,1.1-4.4-0.6-6l-0.3-0.3c-1.9-1.9-4.9-1.9-6.7,0l-27.4,27.4c-1.9,1.9-1.9,4.9,0,6.7l0.3,0.3c0.9,0.9,2.1,1.4,3.4,1.4
				c0.9,0,1.9-0.3,2.7-0.8l3.9,3.9c4,4,9.2,5.9,14.4,5.9c3,0,6.1-0.7,8.9-2.1c-2,4.1-2.5,8.6-1.6,13c-0.2,0.4-0.1,0.9,0.3,1.2
				c0,0,0,0,0,0c0.9,3.3,2.6,6.4,5.2,9l3.9,3.9c-1.2,1.9-1.1,4.4,0.6,6l0.3,0.3c0.9,0.9,2.1,1.4,3.4,1.4c1.2,0,2.4-0.5,3.4-1.4
				l27.4-27.4c1.9-1.9,1.9-4.9,0-6.7L525.7,111z M460.6,105.6l-2.8-2.8l9.5-9.5l16-16l3.8,3.8c-1.1,1-1.8,1.3-2.6,1.7
				c-0.9,0.4-2,0.9-3.4,2.3c-1.5,1.5-1.9,2.5-2.3,3.4c-0.4,0.9-0.7,1.6-1.9,2.8c-1.2,1.2-1.9,1.5-2.8,1.9c-0.9,0.4-2,0.9-3.5,2.3
				c-1.4,1.5-1.9,2.5-2.3,3.4c-0.4,0.9-0.7,1.6-1.9,2.8c-1.2,1.2-1.9,1.5-2.8,1.9C462.8,104,461.9,104.4,460.6,105.6z M451.7,102.2
				l-0.3-0.3c-1-1-1-2.6,0-3.5l27.4-27.4c0.5-0.5,1.1-0.7,1.8-0.7c0.6,0,1.3,0.2,1.8,0.7l0.3,0.3c1,1,1,2.6,0,3.5l-14,14L455.4,102
				c0,0,0,0,0,0l-0.1,0.1C454.3,103.1,452.7,103.1,451.7,102.2z M462.2,107.2c0.9-0.9,1.6-1.2,2.4-1.5c0.9-0.4,2-0.9,3.4-2.3
				c1.5-1.5,1.9-2.5,2.3-3.4c0.4-0.9,0.7-1.6,1.9-2.8c1.1-1.2,1.9-1.5,2.8-1.9c0.9-0.4,2-0.9,3.4-2.3c1.5-1.5,1.9-2.5,2.3-3.4
				c0.4-0.9,0.7-1.6,1.9-2.8c1.2-1.2,1.9-1.5,2.8-1.9c0.9-0.4,1.9-0.8,3.2-2.1c5.5,7.1,5,17.3-1.5,23.8
				C480.3,113.4,469.3,113.6,462.2,107.2z M501.5,102.9c1.2,0,2.4,0.1,3.5,0.3c-0.4,0.2-0.7,0.4-1.1,0.5c-0.9,0.4-1.9,0.8-3.2,2.1
				c-1.3,1.3-1.7,2.3-2.1,3.2c-0.3,0.8-0.6,1.5-1.6,2.5c-1,1-1.7,1.3-2.5,1.6c-0.9,0.4-1.9,0.8-3.2,2.1c-1.3,1.3-1.7,2.3-2.1,3.2
				c-0.3,0.8-0.6,1.5-1.6,2.5c-1,1-1.7,1.3-2.5,1.6c-0.5,0.2-0.9,0.4-1.5,0.7c-0.7-5.4,1-11,5.1-15.1
				C492.2,104.7,496.8,102.9,501.5,102.9z M484.1,125.7c0.7-0.6,1.2-0.8,1.8-1c0.9-0.4,1.9-0.8,3.2-2.1c1.3-1.3,1.7-2.3,2.1-3.2
				c0.3-0.8,0.6-1.5,1.6-2.5c1-1,1.7-1.3,2.5-1.6c0.9-0.4,1.9-0.8,3.2-2.1c1.3-1.3,1.7-2.3,2.1-3.2c0.3-0.8,0.6-1.5,1.6-2.5
				c1-1,1.7-1.3,2.5-1.6c0.8-0.3,1.8-0.7,3-1.9c2.4,0.9,4.6,2.2,6.5,4.2l3.8,3.8l-13.8,13.8l-11.7,11.7l-3.8-3.8
				C486.4,131.4,484.9,128.6,484.1,125.7z M524.4,116.5L497,143.9c-1,1-2.6,1-3.5,0l-0.3-0.3c-1-1-1-2.6,0-3.5l9.1-9.1l18.2-18.2
				c0,0,0,0,0,0l0.1-0.1c0.5-0.5,1.1-0.7,1.8-0.7c0.6,0,1.3,0.2,1.8,0.7l0.3,0.3C525.3,113.9,525.3,115.5,524.4,116.5z"/>
			<path class="st29" d="M118.4,67.2c0,0,0-0.1,0-0.1c0-0.1-0.1-0.2-0.2-0.3l-6.4-6.3l3.4-3.4c0.4-0.4,0.4-1,0-1.4
				c-0.4-0.4-1-0.4-1.4,0l-2.2,2.2V43c0-4.9-3.9-8.8-8.8-8.8H87.9l2.2-2.2c0.4-0.4,0.4-1,0-1.4c-0.4-0.4-1-0.4-1.4,0l-3.1,3.1l-6-6
				c-0.1-0.1-0.2-0.1-0.3-0.2c0,0-0.1,0-0.1,0c-0.1,0-0.2-0.1-0.3-0.1c0,0,0,0,0,0H53.6c-0.5,0-1,0.4-1,1v32.5c0,0.5,0.4,1,1,1h4.8
				c-0.1,0-0.1,0.1-0.2,0.1l-3.8,3.8c-0.4,0.4-0.4,1,0,1.4c0.4,0.4,1,0.4,1.4,0L58,65v14.4c0,4.9,3.9,8.8,8.8,8.8h14.5l-2.1,2.1
				c-0.4,0.4-0.4,1,0,1.4c0.2,0.2,0.4,0.3,0.7,0.3c0.2,0,0.5-0.1,0.7-0.3l3.8-3.8c0.1-0.1,0.2-0.2,0.2-0.3v5.8c0,0.5,0.4,1,1,1h31.9
				c0.5,0,1-0.4,1-1V67.5c0,0,0-0.1,0-0.1C118.5,67.4,118.5,67.3,118.4,67.2z M111.8,63.2l3.3,3.3h-3.3V63.2z M109.8,43v14.9
				l-2.2-2.2c-0.4-0.4-1-0.4-1.4,0c-0.4,0.4-0.4,1,0,1.4l2.8,2.8H86.6V37.5l2.1,2.1c0.2,0.2,0.4,0.3,0.7,0.3c0.2,0,0.5-0.1,0.7-0.3
				c0.4-0.4,0.4-1,0-1.4l-2.2-2.2H103C106.7,36.1,109.8,39.2,109.8,43z M79.9,30.7l3.3,3.3h-3.3V30.7z M54.6,29.3h23.3V35
				c0,0.5,0.4,1,1,1h5.7v23.9h-30V29.3z M84.4,86.5l-3.8-3.8c-0.4-0.4-1-0.4-1.4,0c-0.4,0.4-0.4,1,0,1.4l2.1,2.1H66.8
				c-3.8,0-6.8-3.1-6.8-6.9V65l2.1,2.1c0.2,0.2,0.4,0.3,0.7,0.3c0.2,0,0.5-0.1,0.7-0.3c0.4-0.4,0.4-1,0-1.4l-3.8-3.8
				c-0.1-0.1-0.1-0.1-0.2-0.1h25.1v25C84.6,86.7,84.5,86.6,84.4,86.5z M116.6,92.4h-30V61.8h23.3v5.7c0,0.5,0.4,1,1,1h5.7V92.4z"/>
			<path class="st29" d="M69.8,35.8c-5.7,0-10.3,4.6-10.3,10.3c0,5.7,4.6,10.3,10.3,10.3c5.7,0,10.3-4.6,10.3-10.3
				C80.1,40.5,75.5,35.8,69.8,35.8z M69.8,54.5c-4.6,0-8.3-3.7-8.3-8.3s3.7-8.3,8.3-8.3c4.6,0,8.3,3.7,8.3,8.3S74.4,54.5,69.8,54.5z
				"/>
			<path class="st29" d="M101,73c-2.8,0-5.1,2.3-5.1,5.1c0,2.8,2.3,5.1,5.1,5.1c2.8,0,5.1-2.3,5.1-5.1C106.1,75.3,103.8,73,101,73z
				 M101,81.2c-1.7,0-3.1-1.4-3.1-3.1c0-1.7,1.4-3.1,3.1-3.1c1.7,0,3.1,1.4,3.1,3.1C104.1,79.8,102.7,81.2,101,81.2z"/>
			<path class="st29" d="M68.3,48.8c-0.5-0.3-1.1-0.1-1.3,0.4c-0.3,0.5-0.1,1.1,0.4,1.3c0.2,0.1,0.3,0.1,0.5,0.1
				c0.3,0,0.7-0.2,0.9-0.5C68.9,49.7,68.7,49.1,68.3,48.8z"/>
			<path class="st29" d="M67.7,43.6c0.2,0,0.3,0,0.5-0.1h0c0.5-0.3,0.6-0.9,0.3-1.3c-0.3-0.5-0.9-0.6-1.3-0.3
				c-0.5,0.3-0.6,0.9-0.3,1.3C67.1,43.4,67.4,43.6,67.7,43.6z"/>
			<path class="st29" d="M73.9,45.1c-0.5,0-1,0.4-1,1v0c0,0.5,0.4,1,1,1s1-0.4,1-1v0v0C74.9,45.5,74.4,45.1,73.9,45.1z"/>
			<path class="st29" d="M93.7,84c-0.4,0.4-0.4,1,0,1.4c0.2,0.2,0.4,0.3,0.7,0.3c0.2,0,0.5-0.1,0.7-0.3c0.4-0.4,0.4-1,0-1.4
				C94.7,83.6,94.1,83.6,93.7,84z"/>
			<path class="st29" d="M101,86.4c-0.5,0-1,0.4-1,1c0,0.5,0.4,1,1,1c0.5,0,1-0.4,1-1C102,86.9,101.5,86.4,101,86.4z"/>
			<path class="st29" d="M106.9,84c-0.4,0.4-0.4,1,0,1.4c0.2,0.2,0.4,0.3,0.7,0.3c0.2,0,0.5-0.1,0.7-0.3c0.4-0.4,0.4-1,0-1.4
				C107.9,83.6,107.3,83.6,106.9,84z"/>
			<path class="st29" d="M94.4,72.5c0.3,0,0.5-0.1,0.7-0.3c0.4-0.4,0.4-1,0-1.4c-0.4-0.4-1-0.4-1.4,0c-0.4,0.4-0.4,1,0,1.4
				C93.9,72.4,94.1,72.5,94.4,72.5z"/>
			<path class="st29" d="M109.3,78.1L109.3,78.1c0,0.6,0.4,1,1,1c0.5,0,1-0.4,1-1v0v0c0-0.5-0.4-1-1-1
				C109.8,77.1,109.3,77.5,109.3,78.1z"/>
			<path class="st29" d="M91.7,77.1c-0.5,0-1,0.4-1,1c0,0.5,0.4,1,1,1c0.5,0,1-0.4,1-1C92.6,77.6,92.2,77.1,91.7,77.1z"/>
			<path class="st29" d="M101,69.7c0.5,0,1-0.4,1-1c0-0.5-0.4-1-1-1c-0.5,0-1,0.4-1,1C100,69.3,100.4,69.7,101,69.7z"/>
			<path class="st29" d="M107.6,72.4c0.3,0,0.5-0.1,0.7-0.3c0.4-0.4,0.4-1,0-1.4c-0.4-0.4-1-0.4-1.4,0c-0.4,0.4-0.4,1,0,1.4
				C107.1,72.4,107.3,72.4,107.6,72.4z"/>
			<path class="st29" d="M74.2,68.1c-0.5,0-1,0.4-1,1s0.4,1,1,1c1.2,0,2.2,1,2.2,2.2c0,1.2-1,2.2-2.2,2.2c-1.2,0-2.2-1-2.2-2.2
				c0-0.5-0.4-1-1-1c-0.5,0-1,0.4-1,1c0,2.3,1.9,4.2,4.2,4.2s4.2-1.9,4.2-4.2S76.5,68.1,74.2,68.1z"/>
			<path class="st29" d="M77.2,64.8c-1.9-0.8-4.2-0.8-6.1,0c-3,1.2-5,4.2-5,7.4c0,4.4,3.6,8,8,8c4.4,0,8-3.6,8-8
				C82.2,69,80.2,66.1,77.2,64.8z M74.2,78.3c-3.3,0-6.1-2.7-6.1-6.1c0-2.5,1.5-4.7,3.8-5.6c0.7-0.3,1.5-0.5,2.3-0.5
				c0.8,0,1.6,0.2,2.3,0.5c2.3,0.9,3.7,3.1,3.7,5.6C80.2,75.6,77.5,78.3,74.2,78.3z"/>
			<path class="st29" d="M96.4,53.8c2.3,0,4.2-1.9,4.2-4.2s-1.9-4.2-4.2-4.2c-0.5,0-1,0.4-1,1c0,0.5,0.4,1,1,1c1.2,0,2.2,1,2.2,2.2
				c0,1.2-1,2.2-2.2,2.2c-1.2,0-2.2-1-2.2-2.2c0-0.5-0.4-1-1-1c-0.5,0-1,0.4-1,1C92.3,52,94.1,53.8,96.4,53.8z"/>
			<path class="st29" d="M96.4,57.7c4.4,0,8-3.6,8-8c0-3.3-1.9-6.2-5-7.4c-2-0.8-4.2-0.8-6.1,0c-3,1.2-5,4.1-5,7.4
				C88.4,54.1,92,57.7,96.4,57.7z M94.1,44.1c0.7-0.3,1.5-0.5,2.3-0.5s1.6,0.2,2.3,0.5c2.3,0.9,3.8,3.1,3.8,5.6
				c0,3.3-2.7,6.1-6.1,6.1c-3.3,0-6.1-2.7-6.1-6.1C90.4,47.2,91.8,45,94.1,44.1z"/>
			<path class="st29" d="M188.9,57.9c0.5,0,1-0.4,1-1c0-4-3.3-7.3-7.3-7.3h-11.4V3.7l15.7-4.5l-6.8,23.2h-2.7c-0.5,0-1,0.4-1,1
				c0,5.1,4.1,9.2,9.2,9.2h5.2c5.1,0,9.2-4.1,9.2-9.2c0-0.5-0.4-1-1-1h-2.7l-7-23.9c0.7-0.2,1.2-0.6,1.6-1.3
				c0.4-0.6,0.4-1.4,0.2-2.1c-0.4-1.4-1.9-2.3-3.3-1.9l-16.6,4.7v-3.6c0-2.3-1.8-4.1-4.1-4.1c-2.3,0-4.1,1.8-4.1,4.1v6l-20.1,5.7
				c-0.7,0.2-1.3,0.7-1.6,1.3c-0.4,0.6-0.4,1.4-0.2,2.1c0.3,1.2,1.4,2,2.6,2c0.2,0,0.5,0,0.7-0.1l-6.7,23H135c-0.5,0-1,0.4-1,1
				c0,5.1,4.1,9.2,9.2,9.2h5.2c5.1,0,9.2-4.1,9.2-9.2c0-0.5-0.4-1-1-1h-2.7l-6.9-23.7L163,6.1v43.6h-12c-4,0-7.3,3.3-7.3,7.3
				c0,0.5,0.4,1,1,1H188.9z M190.8,30.7h-5.2c-3.7,0-6.7-2.7-7.2-6.3h2.4h4.4h5.8h4.4h2.4C197.5,27.9,194.4,30.7,190.8,30.7z
				 M190.1,22.5h-3.9v-3.8h3.9V22.5z M192.1,22.5v-4.8c0-0.5-0.4-1-1-1h-5.8c-0.5,0-1,0.4-1,1v4.8h-2.2l6-20.8l6,20.8H192.1z
				 M188.4-4.8c0.2-0.1,0.4,0,0.6,0.1c0.2,0.1,0.3,0.3,0.4,0.4c0.1,0.2,0,0.4-0.1,0.6c-0.1,0.2-0.3,0.3-0.4,0.4l-17.5,5V0.1
				L188.4-4.8z M148.3,42.6h-5.2c-3.6,0-6.7-2.7-7.2-6.2h2.4h4.4h5.8h4.4h2.4C155,39.9,152,42.6,148.3,42.6z M147.7,34.4h-3.9v-3.9
				h3.9V34.4z M149.6,34.4v-4.8c0-0.5-0.4-1-1-1h-5.8c-0.5,0-1,0.4-1,1v4.8h-2.2l6-20.8l6,20.8H149.6z M143.9,9.5
				c-0.4,0.1-0.8-0.1-0.9-0.5c-0.1-0.4,0.1-0.8,0.5-0.9L163,2.5V4L143.9,9.5z M165,4.8V1.2v-6.7c0-1.2,1-2.2,2.2-2.2
				c1.2,0,2.2,1,2.2,2.2v4.9V3v46.7H165V4.8z M151,51.6H164h6.3h12.4c2.6,0,4.8,1.9,5.2,4.3h-42C146.3,53.5,148.4,51.6,151,51.6z"/>
			<path class="st29" d="M357.4,0.9C357.4,0.8,357.4,0.8,357.4,0.9c-0.1-0.2-0.1-0.3-0.2-0.4c0,0,0,0,0,0L347-9.7c0,0,0,0,0,0
				c-0.1-0.1-0.2-0.1-0.3-0.2c0,0-0.1,0-0.1,0c-0.1,0-0.2,0-0.3-0.1c0,0,0,0-0.1,0h-38.5c-0.5,0-1,0.4-1,1v64.9c0,0.5,0.4,1,1,1
				h48.6c0.5,0,1-0.4,1-1V1.2c0,0,0,0,0-0.1C357.5,1,357.4,0.9,357.4,0.9z M354.1,0.2h-6.8v-6.8L354.1,0.2z M355.5,54.9h-46.7V-8
				h36.5v9.2c0,0.5,0.4,1,1,1h9.2V54.9z"/>
			<path class="st29" d="M372.6,5.2h-3.7v-6.4c0-0.5-0.4-1-1-1h-0.6V-9c0-0.5-0.4-1-1-1h-3.8c-0.5,0-1,0.4-1,1v6.8h-0.6
				c-0.5,0-1,0.4-1,1V46c0,0.3,0.1,0.5,0.3,0.7l3.2,8.9c0.1,0.4,0.5,0.7,0.9,0.7c0.4,0,0.8-0.3,0.9-0.7l3.2-8.9
				c0.2-0.2,0.3-0.4,0.3-0.7V7.2h2.7v12.6c0,0.5,0.4,1,1,1s1-0.4,1-1V6.2C373.6,5.7,373.1,5.2,372.6,5.2z M362.1-0.2h0.6h3.8h0.6v45
				h-4.9V-0.2z M363.6-8h1.8v5.8h-1.8V-8z M364.5,52.4l-1.9-5.4h3.9L364.5,52.4z"/>
			<path class="st29" d="M324.5,2.5c-0.5-0.2-1.1,0-1.3,0.5l-1.8,3.9l-0.6-1.7c-0.2-0.5-0.7-0.8-1.3-0.6c-0.5,0.2-0.8,0.7-0.6,1.2
				l1.4,3.9c0.1,0.4,0.5,0.6,0.9,0.6h0c0.4,0,0.7-0.2,0.9-0.6l2.8-6C325.2,3.4,325,2.8,324.5,2.5z"/>
			<path class="st29" d="M325.6-0.1L325.6-0.1c-1.2-0.8-2.6-1.2-4.1-1.2c-4.2,0-7.7,3.4-7.7,7.7c0,1.7,0.5,3.2,1.5,4.6
				c1.5,2,3.7,3.1,6.1,3.1c4.2,0,7.7-3.4,7.7-7.7C329.2,3.8,327.9,1.4,325.6-0.1z M321.6,12.1c-1.8,0-3.5-0.8-4.6-2.3
				c-0.7-1-1.1-2.2-1.1-3.4c0-3.1,2.6-5.7,5.7-5.7c1.1,0,2.1,0.3,3,0.9c1.7,1.1,2.7,2.9,2.7,4.8C327.3,9.6,324.7,12.1,321.6,12.1z"
				/>
			<path class="st29" d="M324.5,20.7c-0.5-0.2-1.1,0-1.3,0.5l-1.8,3.9l-0.6-1.7c-0.2-0.5-0.7-0.8-1.3-0.6c-0.5,0.2-0.8,0.7-0.6,1.2
				l1.4,3.9c0.1,0.4,0.5,0.6,0.9,0.6h0c0.4,0,0.7-0.2,0.9-0.6l2.8-6C325.2,21.5,325,21,324.5,20.7z"/>
			<path class="st29" d="M325.6,18.1L325.6,18.1c-1.2-0.8-2.6-1.2-4.1-1.2c-4.2,0-7.7,3.4-7.7,7.7c0,1.7,0.5,3.2,1.5,4.6
				c1.5,2,3.7,3.1,6.1,3.1c4.2,0,7.7-3.4,7.7-7.7C329.2,22,327.9,19.5,325.6,18.1z M321.6,30.3c-1.8,0-3.5-0.8-4.6-2.3
				c-0.7-1-1.1-2.2-1.1-3.4c0-3.1,2.6-5.7,5.7-5.7c1.1,0,2.1,0.3,3,0.9c1.7,1.1,2.7,2.9,2.7,4.8C327.3,27.7,324.7,30.3,321.6,30.3z"
				/>
			<path class="st29" d="M324.5,38.9c-0.5-0.2-1.1,0-1.3,0.5l-1.8,3.9l-0.6-1.7c-0.2-0.5-0.7-0.8-1.3-0.6c-0.5,0.2-0.8,0.7-0.6,1.2
				l1.4,3.9c0.1,0.4,0.5,0.6,0.9,0.6h0c0.4,0,0.7-0.2,0.9-0.6l2.8-6C325.2,39.7,325,39.1,324.5,38.9z"/>
			<path class="st29" d="M325.6,36.3c-1.2-0.8-2.6-1.2-4.1-1.2c-4.2,0-7.7,3.4-7.7,7.7c0,1.7,0.5,3.2,1.5,4.6c1.5,2,3.7,3.1,6.1,3.1
				c4.2,0,7.7-3.4,7.7-7.6C329.2,40.1,327.9,37.7,325.6,36.3z M321.6,48.5c-1.8,0-3.5-0.8-4.6-2.3c-0.7-1-1.1-2.2-1.1-3.4
				c0-3.1,2.6-5.7,5.7-5.7c1.1,0,2.1,0.3,3,0.9c1.7,1.1,2.7,2.9,2.7,4.8C327.3,45.9,324.7,48.5,321.6,48.5z"/>
			<path class="st29" d="M13.8,97.6c-0.5-0.2-1.1,0-1.3,0.5L8,107.6l-2-5.4c-0.2-0.5-0.7-0.8-1.3-0.6c-0.5,0.2-0.8,0.7-0.6,1.3
				l2.8,7.6c0.1,0.4,0.5,0.6,0.9,0.6h0c0.4,0,0.7-0.2,0.9-0.6l5.5-11.6C14.4,98.4,14.2,97.8,13.8,97.6z"/>
			<path class="st29" d="M15.8,92.5c-2.2-1.4-4.8-2.2-7.4-2.2c-7.7,0-13.9,6.3-13.9,13.9c0,3,1,5.9,2.8,8.3
				c2.7,3.6,6.7,5.6,11.2,5.6c7.7,0,13.9-6.3,13.9-13.9C22.3,99.5,19.9,95.1,15.8,92.5z M8.4,116.3c-3.8,0-7.3-1.8-9.6-4.8
				c-1.6-2.1-2.4-4.6-2.4-7.2c0-6.6,5.4-12,12-12c2.3,0,4.5,0.6,6.4,1.9c3.5,2.2,5.6,6,5.6,10.1C20.4,110.9,15,116.3,8.4,116.3z"/>
			<path class="st29" d="M331.2,4.8v4.7c0,0.5,0.4,1,1,1h16.9c0.5,0,1-0.4,1-1V4.8c0-0.5-0.4-1-1-1h-16.9
				C331.7,3.8,331.2,4.2,331.2,4.8z M333.2,5.7h14.9v2.7h-14.9V5.7z"/>
			<path class="st29" d="M349.1,21h-16.9c-0.5,0-1,0.4-1,1v4.7c0,0.5,0.4,1,1,1h16.9c0.5,0,1-0.4,1-1V22
				C350.1,21.5,349.6,21,349.1,21z M348.1,25.7h-14.9V23h14.9V25.7z"/>
			<path class="st29" d="M349.1,38.3h-16.9c-0.5,0-1,0.4-1,1v4.7c0,0.5,0.4,1,1,1h16.9c0.5,0,1-0.4,1-1v-4.7
				C350.1,38.7,349.6,38.3,349.1,38.3z M348.1,42.9h-14.9v-2.7h14.9V42.9z"/>
			<path class="st29" d="M347.3,114.2h-16.5v-6.6c5.7-3.4,9.3-10.6,9.3-18.4c0-1.1-0.1-2.3-0.3-3.5c-0.2-1.8-0.7-3.5-1.3-5.2
				c-2.7-7.2-8.6-11.8-15-11.8c-6.4,0-12.3,4.7-15,11.8c-0.8,2.1-1.3,4.4-1.5,6.7c-0.1,0.7-0.1,1.3-0.1,2c0,8,3.8,15.3,9.6,18.6v6.4
				h-16.5c-4.5,0-8.3,3.4-8.3,7.6l-1.5,12.1c0,0.3,0.1,0.6,0.2,0.8c0.2,0.2,0.4,0.3,0.7,0.3H356c0.3,0,0.5-0.1,0.7-0.3
				c0.2-0.2,0.3-0.5,0.2-0.8l-1.4-12.1C355.5,117.7,351.8,114.2,347.3,114.2z M333,116.2l-3.8,6.5l-3.8-6.5H333z M308.8,89.3
				c0-0.6,0-1.2,0.1-1.8c0.2-2.1,0.6-4.2,1.4-6.2c2.4-6.4,7.6-10.6,13.2-10.6c5.6,0,10.8,4.2,13.2,10.6c0.6,1.5,1,3.1,1.2,4.7
				c0.2,1.2,0.2,2.2,0.2,3.2c0,7.4-3.4,14-8.8,17c-0.3,0.2-0.5,0.5-0.5,0.9v7.2h-5h-5.4v-7c0-0.4-0.2-0.7-0.5-0.9
				C312.4,103.6,308.8,96.8,308.8,89.3z M322.1,116.2l-3.8,6.5l-3.8-6.5H322.1z M292.3,133.1l1.3-11.1l0-0.1c0-3.2,2.8-5.7,6.3-5.7
				h12.4l5.2,9c0.2,0.3,0.5,0.5,0.8,0.5c0.3,0,0.7-0.2,0.8-0.5l4.6-8l4.6,8c0.2,0.3,0.5,0.5,0.8,0.5c0.3,0,0.7-0.2,0.8-0.5l5.2-9h12
				c3.5,0,6.3,2.6,6.3,5.7l0,0.1l1.3,11.1H292.3z"/>
			<path class="st29" d="M319.8,98.9c0,0.5,0.4,1,1,1h5.5c0.5,0,1-0.4,1-1v-5.5h5.5c0.5,0,1-0.4,1-1v-5.5c0-0.5-0.4-1-1-1h-5.5v-5.5
				c0-0.5-0.4-1-1-1h-5.5c-0.5,0-1,0.4-1,1v5.5h-5.5c-0.5,0-1,0.4-1,1v5.5c0,0.5,0.4,1,1,1h5.5V98.9z M315.2,91.4v-3.6h5.5
				c0.5,0,1-0.4,1-1v-5.5h3.6v5.5c0,0.5,0.4,1,1,1h5.5v3.6h-5.5c-0.5,0-1,0.4-1,1v5.5h-3.6v-5.5c0-0.5-0.4-1-1-1H315.2z"/>
			<path class="st29" d="M415.8,58.2c0.1,0.4,0.5,0.6,0.8,0.6h0c0.4,0,0.7-0.2,0.9-0.5l2.5-5.3c0.2-0.5,0-1-0.4-1.3
				c-0.5-0.2-1,0-1.3,0.5l-1.6,3.3l-0.5-1.4c-0.2-0.5-0.7-0.7-1.2-0.6c-0.5,0.2-0.7,0.7-0.6,1.2L415.8,58.2z"/>
			<path class="st29" d="M416.6,64.3c5,0,9.1-4.1,9.1-9.1s-4.1-9.1-9.1-9.1c-5,0-9.1,4.1-9.1,9.1S411.6,64.3,416.6,64.3z M416.6,48
				c4,0,7.2,3.2,7.2,7.2s-3.2,7.2-7.2,7.2c-4,0-7.2-3.2-7.2-7.2S412.6,48,416.6,48z"/>
			<path class="st29" d="M416.6,65.9c-0.5,0-0.9,0.4-0.9,0.9v4c0,0.5,0.4,0.9,0.9,0.9c0.5,0,0.9-0.4,0.9-0.9v-4
				C417.5,66.3,417.1,65.9,416.6,65.9z"/>
			<path class="st29" d="M416.6,44.5c0.5,0,0.9-0.4,0.9-0.9v-4c0-0.5-0.4-0.9-0.9-0.9s-0.9,0.4-0.9,0.9v4
				C415.7,44.1,416.1,44.5,416.6,44.5z"/>
			<path class="st29" d="M425.5,62.8c-0.4-0.4-1-0.4-1.3,0c-0.4,0.4-0.4,1,0,1.3L427,67c0.2,0.2,0.4,0.3,0.7,0.3s0.5-0.1,0.7-0.3
				c0.4-0.4,0.4-1,0-1.3L425.5,62.8z"/>
			<path class="st29" d="M407.7,47.6c0.2,0.2,0.4,0.3,0.7,0.3c0.2,0,0.5-0.1,0.7-0.3c0.4-0.4,0.4-1,0-1.3l-2.8-2.8
				c-0.4-0.4-1-0.4-1.3,0c-0.4,0.4-0.4,1,0,1.3L407.7,47.6z"/>
			<path class="st29" d="M427.3,55.2c0,0.5,0.4,0.9,0.9,0.9h4c0.5,0,0.9-0.4,0.9-0.9s-0.4-0.9-0.9-0.9h-4
				C427.7,54.3,427.3,54.7,427.3,55.2z"/>
			<path class="st29" d="M400.9,56.1h4c0.5,0,0.9-0.4,0.9-0.9s-0.4-0.9-0.9-0.9h-4c-0.5,0-0.9,0.4-0.9,0.9S400.4,56.1,400.9,56.1z"
				/>
			<path class="st29" d="M424.8,47.9c0.2,0,0.5-0.1,0.7-0.3l2.8-2.8c0.4-0.4,0.4-1,0-1.3c-0.4-0.4-1-0.4-1.3,0l-2.8,2.8
				c-0.4,0.4-0.4,1,0,1.3C424.4,47.8,424.6,47.9,424.8,47.9z"/>
			<path class="st29" d="M407.7,62.8l-2.8,2.8c-0.4,0.4-0.4,1,0,1.3c0.2,0.2,0.4,0.3,0.7,0.3c0.2,0,0.5-0.1,0.7-0.3l2.8-2.8
				c0.4-0.4,0.4-1,0-1.3C408.6,62.4,408,62.4,407.7,62.8z"/>
			<path class="st29" d="M395.4,62.2c1.2,2.7,2.7,5.3,4.4,7.7c4.4,6.5,10.1,12.1,17,16.6c0.2,0.1,0.3,0.2,0.5,0.2
				c0.2,0,0.4-0.1,0.5-0.2c9.9-6.6,17.5-15.4,22-25.6c0.1-0.2,0.2-0.4,0.3-0.6l0.2-0.5c2.6-6.4,4-13,4-19.7v-5.6
				c0-0.5-0.4-0.9-0.9-0.9h-52c-0.5,0-0.9,0.4-0.9,0.9V40c0,6.7,1.3,13.3,4,19.7C394.7,60.7,395,61.5,395.4,62.2z M392.3,35.4h50.1
				V40c0,6.4-1.3,12.8-3.8,19l-0.2,0.5c-0.1,0.2-0.2,0.4-0.2,0.6c-4.2,9.7-11.4,18.1-20.8,24.4c-6.4-4.3-11.8-9.6-15.9-15.7
				c-1.6-2.4-3.1-4.9-4.3-7.5c-0.3-0.7-0.7-1.5-1-2.3c-2.5-6.2-3.8-12.5-3.8-19V35.4z"/>
			<path class="st29" d="M450.4,28.8c0-0.5-0.4-0.9-0.9-0.9h-64.3c-0.5,0-0.9,0.4-0.9,0.9V40c0,7.4,1.5,14.7,4.4,21.7
				c0.4,1,0.8,1.8,1.2,2.7c1.4,2.9,3,5.8,4.8,8.5c5.3,7.7,12.2,14.3,20.5,19.4l1.7,1.1c0.2,0.1,0.3,0.1,0.5,0.1
				c0.2,0,0.3-0.1,0.5-0.1l1.7-1.1c11.8-7.3,20.8-17.5,26-29.3c0.1-0.3,0.2-0.6,0.4-0.9l0.2-0.4c2.9-7,4.4-14.3,4.4-21.7V28.8z
				 M448.5,40c0,7.1-1.4,14.2-4.2,21l-0.2,0.4c-0.1,0.3-0.2,0.6-0.3,0.8c-5,11.5-13.8,21.3-25.3,28.5l-1.2,0.8l-1.2-0.8
				c-8.1-5-14.8-11.4-19.9-18.9c-1.8-2.6-3.4-5.4-4.7-8.2c-0.4-0.8-0.7-1.6-1.1-2.6c-2.8-6.8-4.2-13.9-4.2-21V29.7h62.4V40z"/>
			<path class="st29" d="M212.5,136.3l-5.1-0.7l-1.5-1.5l2.6,0.4c0.5,0.1,1-0.3,1.1-0.8s-0.3-1-0.8-1.1l-5.2-0.7l-5.3-5.2l13.2-13.2
				c0.3-0.3,0.4-0.7,0.2-1.1c-0.2-0.4-0.5-0.6-0.9-0.6l-7.2,0.5c-5.1,0.3-9.9,2.6-13.7,6l-4.4-4.4l3.1,1.1c0.5,0.2,1.1-0.1,1.2-0.6
				c0.2-0.5-0.1-1.1-0.6-1.2l-7.1-2.4c-0.4-0.1-0.7,0-1,0.2c-0.3,0.3-0.4,0.7-0.2,1l2.4,7.1c0.1,0.4,0.5,0.7,0.9,0.7
				c0.1,0,0.2,0,0.3-0.1c0.5-0.2,0.8-0.7,0.6-1.2l-1.1-3.1l4.4,4.4c-3.6,3.8-6,8.8-6.3,14l-0.5,7.2c0,0,0,0,0,0c0,0,0,0,0,0.1
				c0,0.1,0,0.1,0,0.2c0,0,0,0,0,0c0,0,0,0.1,0,0.1c0,0,0,0.1,0,0.1c0,0,0,0,0,0.1c0,0.1,0.1,0.1,0.1,0.2c0,0,0,0,0,0
				c0.1,0.1,0.2,0.1,0.3,0.2c0,0,0,0,0,0c0,0,0,0,0,0c0.1,0,0.2,0.1,0.4,0.1c0.3,0,0.5-0.1,0.7-0.3l13.6-13.6l5.3,5.3l0.7,5.2
				c0.1,0.5,0.5,0.8,1,0.8l0.1,0c0.5-0.1,0.9-0.6,0.8-1.1l-0.4-2.6l1.5,1.5l0.7,5.2c0.1,0.5,0.5,0.8,1,0.8l0.1,0
				c0.5-0.1,0.9-0.6,0.8-1.1l-0.4-2.6l2.3,2.3c0.2,0.2,0.4,0.3,0.7,0.3c0.3,0,0.5-0.1,0.7-0.3c0.4-0.4,0.4-1,0-1.4l-2.3-2.3l2.6,0.4
				c0.5,0.1,1-0.3,1.1-0.8C213.4,136.9,213,136.4,212.5,136.3z M183.9,138.3l0.3-4.6c0.3-4.8,2.5-9.3,5.8-12.8l5.7,5.7L183.9,138.3z
				 M191.3,119.5c3.4-3.1,7.8-5.1,12.4-5.4l4.6-0.3L197,125.2L191.3,119.5z"/>
			<path class="st29" d="M163.9,80.8c-7,0-12.7,5.7-12.7,12.7s5.7,12.7,12.7,12.7c7,0,12.7-5.7,12.7-12.7S170.9,80.8,163.9,80.8z
				 M163.9,104.3c-5.9,0-10.8-4.8-10.8-10.8c0-5.9,4.8-10.8,10.8-10.8c5.9,0,10.8,4.8,10.8,10.8C174.6,99.5,169.8,104.3,163.9,104.3
				z"/>
			<path class="st29" d="M183.6,93.5c0-10.9-8.8-19.7-19.7-19.7c-10.9,0-19.7,8.8-19.7,19.7s8.8,19.7,19.7,19.7
				C174.7,113.2,183.6,104.4,183.6,93.5z M163.9,111.3c-9.8,0-17.8-8-17.8-17.8s8-17.8,17.8-17.8c9.8,0,17.8,8,17.8,17.8
				S173.7,111.3,163.9,111.3z"/>
			<path class="st29" d="M163.9,86.7c-3.8,0-6.8,3.1-6.8,6.8c0,3.8,3.1,6.8,6.8,6.8c3.7,0,6.8-3.1,6.8-6.8
				C170.7,89.8,167.6,86.7,163.9,86.7z M163.9,98.4c-2.7,0-4.9-2.2-4.9-4.9s2.2-4.8,4.9-4.8c2.7,0,4.8,2.2,4.8,4.8
				S166.6,98.4,163.9,98.4z"/>
			<path class="st29" d="M186.7,92.8c-0.4,0.4-0.3,1,0.1,1.4c0.2,0.2,0.4,0.2,0.7,0.2c0.3,0,0.5-0.1,0.7-0.3c0.4-0.4,0.3-1-0.1-1.4
				C187.7,92.4,187.1,92.4,186.7,92.8z"/>
			<path class="st29" d="M204.1,109.2c0.3,0,0.5-0.1,0.7-0.3c0.4-0.4,0.3-1-0.1-1.4c-0.4-0.4-1-0.3-1.4,0.1c-0.4,0.4-0.3,1,0.1,1.4
				C203.6,109.1,203.8,109.2,204.1,109.2z"/>
			<path class="st29" d="M192.3,97.7c-0.4,0.4-0.3,1,0.1,1.4c0.2,0.2,0.4,0.2,0.6,0.2c0.3,0,0.5-0.1,0.7-0.3c0.4-0.4,0.3-1-0.1-1.4
				S192.6,97.3,192.3,97.7z"/>
			<path class="st29" d="M197.8,102.6c-0.4,0.4-0.3,1,0.1,1.4c0.2,0.2,0.4,0.2,0.6,0.2c0.3,0,0.5-0.1,0.7-0.3c0.4-0.4,0.3-1-0.1-1.4
				C198.8,102.2,198.2,102.2,197.8,102.6z"/>
			<path class="st29" d="M161.4,116.2c-0.4,0.4-0.4,1-0.1,1.4c0.2,0.2,0.5,0.3,0.7,0.3c0.2,0,0.5-0.1,0.6-0.2c0.4-0.4,0.5-1,0.1-1.4
				C162.5,115.9,161.8,115.8,161.4,116.2z"/>
			<path class="st29" d="M163.9,92.6c-0.5,0-1,0.4-1,1s0.4,1,1,1c0.5,0,1-0.4,1-1S164.4,92.6,163.9,92.6z"/>
			<path class="st29" d="M22.2,75c-4.6,0-9.1,1.4-12.8,4v-6.4c1.2,1,3.1,2,5.2,2c3.8,0,6.8-3.5,6.9-3.6c0.3-0.4,0.3-0.9,0-1.3
				c-0.1-0.1-3.1-3.6-6.9-3.6c-2.1,0-3.9,1.1-5.2,2V65c0-0.5-0.4-1-1-1c-0.5,0-1,0.4-1,1v14c-3.8-2.6-8.2-4-12.8-4
				c-6.3,0-11.8,2.6-15.4,7.2c-4.3,5.5-5.5,13.4-3.4,21.6c4.1,15.9,14.3,28.3,23.4,28.3c3.2,0,6.3-1.5,9.2-4.5c2.9,3,6,4.5,9.2,4.5
				c9,0,19.3-12.4,23.4-28.3c2.1-8.2,0.9-16.1-3.4-21.6C34,77.5,28.5,75,22.2,75z M14.6,68c2,0,3.9,1.4,4.8,2.3
				c-0.9,0.9-2.7,2.3-4.8,2.3c-2,0-3.9-1.4-4.8-2.3C10.7,69.4,12.5,68,14.6,68z M39.1,103.3c-3.8,14.8-13.4,26.8-21.5,26.8
				c-2.9,0-5.8-1.6-8.5-4.6c-0.2-0.2-0.5-0.3-0.7-0.3c-0.3,0-0.5,0.1-0.7,0.3c-2.7,3.1-5.5,4.6-8.5,4.6c-8,0-17.7-12-21.5-26.8
				c-2-7.7-0.9-14.9,3-19.9c3.2-4.1,8.1-6.4,13.9-6.4c4.8,0,9.5,1.7,13.2,4.7c0,0,0.1,0.1,0.1,0.1c0,0,0.1,0.1,0.1,0.1
				c0.1,0,0.2,0.1,0.3,0.1c0,0,0,0,0,0s0,0,0,0c0.1,0,0.2,0,0.3-0.1c0,0,0.1,0,0.1-0.1c0,0,0.1,0,0.1-0.1c3.7-3,8.4-4.7,13.2-4.7
				c5.7,0,10.6,2.3,13.9,6.4C39.9,88.4,41,95.6,39.1,103.3z"/>
		</g>
		<g style="clip-path:url(#SVGID_1_);">
			<path class="st14" d="M65,76.2L54.4,49.6h4.8l8.2,21.6l8.3-21.6h4.7L69.6,76.2H65z"/>
			<path class="st14" d="M84,76.2V49.6h4.5v26.6H84z"/>
			<path class="st14" d="M107.4,68.1c-0.4,0-0.8,0-1.2,0h-6.3v8h-4.5V49.6h10.8c6.8,0,10.7,3.3,10.7,9.1c0,4.3-2,7.3-5.5,8.6l6,8.9
				h-5.1L107.4,68.1z M106.2,64.1c4.1,0,6.5-1.7,6.5-5.4c0-3.5-2.4-5.2-6.5-5.2h-6.3v10.5H106.2z"/>
			<path class="st14" d="M132.6,53.6v22.6h-4.5V53.6h-8.4v-4h21.3v4H132.6z"/>
			<path class="st14" d="M167.5,65.1c0,7-4.4,11.2-11.6,11.2c-7.2,0-11.6-4.3-11.6-11.2V49.6h4.5v15.6c0,4.5,2.8,7.2,7.1,7.2
				c4.3,0,7-2.7,7-7.2V49.6h4.5V65.1z"/>
			<path class="st14" d="M176.9,70.2l-2.5,6h-4.7l11.7-26.6h4.6l11.6,26.6h-4.8l-2.5-6H176.9z M183.6,54.4l-5,11.8h10L183.6,54.4z"
				/>
			<path class="st14" d="M217.2,72.1v4.1h-16V49.6h4.5v22.5H217.2z"/>
			<path class="st14" d="M235.1,70.2l-2.5,6h-4.7l11.7-26.6h4.6l11.6,26.6H251l-2.5-6H235.1z M241.8,54.4l-5,11.8h10L241.8,54.4z"/>
			<path class="st14" d="M277.2,52.1l-1.9,4c-2.9-1.7-5.8-2.5-7.8-2.5c-2.6,0-4.3,1-4.3,2.8c0,5.8,14.4,2.7,14.3,12.3
				c0,4.7-4.2,7.7-10,7.7c-4.2,0-8.1-1.7-10.9-4.2l1.9-3.9c2.7,2.5,6.2,3.9,9,3.9c3.1,0,5-1.2,5-3.2c0-5.9-14.4-2.6-14.4-12.1
				c0-4.6,3.9-7.4,9.7-7.4C271.3,49.4,274.7,50.5,277.2,52.1z"/>
			<path class="st14" d="M300.8,52.1l-1.9,4c-2.9-1.7-5.8-2.5-7.8-2.5c-2.6,0-4.3,1-4.3,2.8c0,5.8,14.4,2.7,14.3,12.3
				c0,4.7-4.2,7.7-10,7.7c-4.2,0-8.1-1.7-10.9-4.2l1.9-3.9c2.7,2.5,6.2,3.9,9,3.9c3.1,0,5-1.2,5-3.2c0-5.9-14.4-2.6-14.4-12.1
				c0-4.6,3.9-7.4,9.7-7.4C295,49.4,298.4,50.5,300.8,52.1z"/>
			<path class="st14" d="M306.4,76.2V49.6h4.5v26.6H306.4z"/>
			<path class="st14" d="M335.9,52.1l-1.9,4c-2.9-1.7-5.8-2.5-7.8-2.5c-2.6,0-4.3,1-4.3,2.8c0,5.8,14.4,2.7,14.3,12.3
				c0,4.7-4.2,7.7-10,7.7c-4.2,0-8.1-1.7-10.9-4.2l1.9-3.9c2.7,2.5,6.2,3.9,9,3.9c3.1,0,5-1.2,5-3.2c0-5.9-14.4-2.6-14.4-12.1
				c0-4.6,3.9-7.4,9.7-7.4C330.1,49.4,333.5,50.5,335.9,52.1z"/>
			<path class="st14" d="M351.3,53.6v22.6h-4.5V53.6h-8.4v-4h21.3v4H351.3z"/>
			<path class="st14" d="M364.7,70.2l-2.5,6h-4.7l11.7-26.6h4.6l11.6,26.6h-4.8l-2.5-6H364.7z M371.4,54.4l-5,11.8h10L371.4,54.4z"
				/>
			<path class="st14" d="M407.6,76.2l-14.2-19.1v19.1h-4.5V49.6h4.4l14.2,19.1V49.6h4.4v26.6H407.6z"/>
			<path class="st14" d="M428.8,53.6v22.6h-4.5V53.6h-8.4v-4h21.3v4H428.8z"/>
			<path class="st14" d="M459.1,52.1l-1.9,4c-2.9-1.7-5.8-2.5-7.8-2.5c-2.6,0-4.3,1-4.3,2.8c0,5.8,14.4,2.7,14.3,12.3
				c0,4.7-4.2,7.7-10,7.7c-4.2,0-8.1-1.7-10.9-4.2l1.9-3.9c2.7,2.5,6.2,3.9,9,3.9c3.1,0,5-1.2,5-3.2c0-5.9-14.4-2.6-14.4-12.1
				c0-4.6,3.9-7.4,9.7-7.4C453.2,49.4,456.6,50.5,459.1,52.1z"/>
		</g>
	</g>
</g>
</svg>
