<?xml version="1.0" encoding="utf-8"?>
<!-- Generator: Adobe Illustrator 22.1.0, SVG Export Plug-In . SVG Version: 6.00 Build 0)  -->
<svg version="1.1" id="Layer_1" xmlns="http://www.w3.org/2000/svg" xmlns:xlink="http://www.w3.org/1999/xlink" x="0px" y="0px"
	 viewBox="0 0 1704.5 1280" style="enable-background:new 0 0 1704.5 1280;" xml:space="preserve">
<style type="text/css">
	.st0{fill:#F2F2F2;}
	.st1{opacity:8.000000e-02;fill:#999999;enable-background:new    ;}
	.st2{fill:none;stroke:#CDD3D3;stroke-width:3.74;stroke-linecap:round;stroke-miterlimit:10;}
	.st3{fill:#BC835C;}
	.st4{opacity:0.3;}
	.st5{fill:#33CCFF;}
	.st6{fill:#FBC198;}
	.st7{fill:none;stroke:#CDD3D3;stroke-width:9.35;stroke-miterlimit:10;}
	.st8{fill:#485F64;}
	.st9{fill:#FFC600;}
	.st10{fill:none;stroke:#DEE0E0;stroke-width:19.57;stroke-miterlimit:10;}
	.st11{fill:#F59267;}
	.st12{fill:#DEE0E0;}
	.st13{fill:url(#SVGID_1_);}
	.st14{fill:#0078BF;}
	.st15{fill:none;}
	.st16{fill:url(#SVGID_2_);}
	.st17{fill:#FFDB7C;}
	.st18{fill:#FFFFFF;}
	.st19{fill:#CDD3D3;}
	.st20{fill:url(#SVGID_3_);}
	.st21{fill:url(#SVGID_4_);}
	.st22{fill:url(#SVGID_5_);}
	.st23{fill:#BCBCBC;}
	.st24{fill:#AF734A;}
</style>
<title>CanYa_Working_Together</title>
<g>
	<g id="Layer_1_1_">
		<ellipse class="st0" cx="852.2" cy="1049.9" rx="852.2" ry="229.4"/>
		<ellipse class="st1" cx="861.1" cy="958.5" rx="543.7" ry="35.9"/>
		<path class="st2" d="M511,811.7c0,0,84.9,54.2,177.3-17.5"/>
		<path class="st2" d="M800.2,798.7c0,0,126.1,169.6,219.7-45.7"/>
		<path class="st2" d="M1048.2,794.3c0,0,97,121.3,207.2-0.2"/>
		<path class="st3" d="M1521.2,625.1l-61.7,24.3l-58,3.7l5.6-24.3c24.3,0,54.2-11.2,54.2-11.2c29-29,59.9-31.8,59.9-31.8V625.1z"/>
		<g class="st4">
			<path class="st5" d="M1047.8,610.4c-1.7-2.2-3.5-4.3-5.6-6.2c-0.6-0.7-1.3-1.3-2-2s-1.3-1.3-2-2s-1.3-1.3-2-2s-1.3-1.3-2-2
				s-1.3-1.3-2-2s-1.3-1.3-2-2s-1.3-1.3-2-2c-6-6.2-13.2-11.1-21.2-14.3c-10.5-4.5-24-6.7-40.4-6.7c-13.2,0.1-26.2,3.1-38,8.9
				c-5.7,2.7-11,6.2-15.7,10.5c-6.4,5.9-11.6,12.9-15.5,20.7c-5.3,10.4-11.7,20.1-19.1,29.1c9.4-14.5,16.3-30.4,20.6-47.1h-0.3
				l0.2-0.2l-15.7-15.7l-0.2,0.1H839v76.3l-0.1,0.1l0.1,0.1l0,0l0,0l2,2l0,0l0,0l2,2l0,0l0,0l2,2l0,0l0,0l2,2l0,0l0,0l2,2l0,0l2,2
				l0,0l0,0l0.8,0.8c-4,3.1-8.2,6-12.6,8.7v93.2c0,9.1,3.8,17.7,10.5,23.8c0.6,0.7,1.3,1.3,2,2s1.3,1.3,2,2s1.3,1.3,2,2s1.3,1.3,2,2
				s1.3,1.3,2,2s1.3,1.3,2,2s1.3,1.3,2,2c6.1,6.7,14.8,10.5,23.8,10.5h29v-117c0-22.7,3.7-39.1,11.2-49c7.5-9.9,19.6-14.9,36.3-14.9
				c6-0.1,12,0.9,17.7,3c4,8.8,5.9,20.9,5.9,36.2v94.6c0,8.9,3.7,17.3,10.2,23.3c0.6,0.7,1.3,1.3,2,2s1.3,1.3,2,2s1.3,1.3,2,2
				s1.3,1.3,2,2c0.7,0.7,1.3,1.3,2,2s1.3,1.3,2,2s1.3,1.3,2,2c6,6.5,14.4,10.3,23.3,10.2h29.8V677.2c0.1-12.7-1.1-25.4-3.7-37.8
				C1058.3,628,1053.9,618.4,1047.8,610.4z"/>
			<path class="st5" d="M1270.2,564.7l35.2-58.6l0,0l0.2-0.1l-13.9-13.6l0,0l0,0l-2-1.9l0,0h-0.1l0,0h-0.1h-57.2
				c-11.5,0-22.2,6.1-28.1,16l-35.7,60.3l-23.7,40l-49.7-84.5c-1.6-2.8-3.7-5.3-6.1-7.5c-0.6-0.7-1.3-1.3-2-2s-1.3-1.3-2-2
				s-1.3-1.3-2-2s-1.3-1.3-2-2s-1.3-1.3-2-2s-1.3-1.3-2-2s-1.3-1.3-2-2c-6.2-6.7-14.9-10.6-24.1-10.6h-56.7l97.6,162l-0.1,0.4
				l12,11.5l0,0l0,0l1.8,1.8l0.1,0.2v-0.1l1.7,1.7l0.2,0.4c6.2-16.3,15.1-31.6,26.2-45.1c-15.2,23.8-23.9,51.1-25.1,79.3v63.9
				c0,9,3.8,17.7,10.5,23.8c0.6,0.7,1.3,1.3,2,2s1.3,1.3,2,2s1.3,1.3,2,2s1.3,1.3,2,2s1.3,1.3,2,2s1.3,1.3,2,2s1.3,1.3,2,2
				c6.1,6.7,14.7,10.5,23.8,10.5h35.5V703.3c0-5.8,1.6-11.4,4.5-16.4l73-121.8L1270.2,564.7z"/>
			<path class="st5" d="M1457.4,704.7l0.2-0.2l-15.6-15.7l-0.1,0.1l0,0l0,0c-2.2,0.6-4.4,1.2-6.6,1.8c3.5-2.2,6.8-4.7,9.8-7.5
				c6-5.6,10.4-12,11.9-19.4c0-0.1,0-0.2,0-0.2s0.1-0.5,0.1-0.7c0.3-1.7,0.5-3.5,0.4-5.3v-9c0-13.5-3-24.4-9-32.6
				c-2.1-2.8-4.4-5.5-6.9-7.9c-0.6-0.7-1.3-1.3-2-2s-1.3-1.3-2-2s-1.3-1.3-2-2s-1.3-1.3-2-2s-1.3-1.3-2-2s-1.3-1.3-2-2s-1.3-1.3-2-2
				c-5.3-5.5-11.5-10-18.4-13.3c-9.9-4.6-20.4-7.7-31.3-9.1c-5.8-0.8-11.5-1.4-17.2-1.8l-4.3-0.3c-4.2-0.2-8.5-0.3-12.7-0.3
				c-3,0-6.1,0.1-9.1,0.2c-9.3,0.5-18.5,1.6-27.7,3.4c-11.6,2.2-22.8,6.4-33,12.3c-9.7,5.7-18,13.5-24.2,22.9
				c-6.3,9.5-9.9,21.5-10.8,35.9h0.1l-0.1,0.1l15.7,15.7v-0.1v0.1h38.3c11.8,0,22.2-6.8,27.7-17.1c1.8-3.4,4.3-6.4,7.4-8.8
				c6-4.5,14.1-7.1,24.1-7.6c1.4-0.1,2.8-0.1,4.2-0.1c2.7,0,5.4,0.1,7.9,0.3s5.1,0.5,7.6,0.8c2.4,0.4,4.9,1,7.2,1.8
				c1.1,3.8,1.6,7.7,1.5,11.6c0.3,6.3-1.6,11.2-5.6,14.5c-4,3.3-9.5,5.8-16.4,7.6c-7.8,1.9-15.8,3.2-23.8,3.9
				c-8.9,0.9-18,2-27.2,3.5c-9.2,1.4-18.4,3.4-27.4,5.8c-5.7,1.5-11.2,3.6-16.4,6.3c-2.7,1.4-5.3,2.9-7.8,4.7
				c-13,9.1-21.5,23.3-23.2,39.1l0,0c0,0,0,0.1,0,0.1l0.1-0.1l1.9,1.9c0,0,0,0.1,0,0.1l0.1-0.1l1.9,1.9c0,0,0,0.1,0,0.1l0,0l1.9,2
				v0.1l0,0l1.9,2l0,0l0,0l2,2l0,0l0,0l1.7,1.8c-12.6,12.7-12.5,33.1,0.2,45.7c0.3,0.3,0.6,0.6,0.9,0.9c0.6,0.7,1.3,1.3,2,2
				s1.3,1.3,2,2s1.3,1.3,2,2s1.3,1.3,2,2s1.3,1.3,2,2s1.3,1.3,2,2s1.3,1.3,2,2c8.7,9.4,22.1,12.9,34.2,8.7l12,12h0.1
				c5,0.8,10,1.2,15,1.3c1,0,2,0,3,0c2.6,0,5.2-0.1,7.8-0.2l2.6-0.2c2.7-0.2,5.3-0.5,8-0.8c7.6-1,15.1-2.6,22.4-4.9
				c12.1-3.6,23.2-10.1,32.3-18.9c0.3,0.3,0.7,0.7,1.1,1c0.6,0.7,1.3,1.3,2,2c0.7,0.7,1.3,1.3,2,2s1.3,1.3,2,2s1.3,1.3,2,2
				c0.8,0.9,1.7,1.7,2.6,2.5l0.4,0.4l0.7,0.6c0.4,0.3,0.8,0.6,1.2,0.9l0.1,0.1c5.4,3.9,11.8,5.9,18.4,6h28.4V704.6l0,0L1457.4,704.7
				z M1392.8,710.9l-0.9,0.6c-6.7,4.7-11.3,11.6-13.1,19.6l-0.2,0.7c-0.1,0.2-0.1,0.4-0.2,0.6c-0.1,0.4-0.2,0.8-0.3,1.2
				c-0.2,0.7-0.4,1.4-0.7,2.1c-0.4,1.1-0.8,2.2-1.3,3.3l-0.1,0.3c-0.6,1.4-1.3,2.7-2.1,4.1c-3.2,5.6-8.1,10.4-14.7,14.5
				c-4.9,2.8-10.3,4.6-15.8,5.2c-1.9,0.3-3.8,0.5-5.9,0.6s-4.2,0.2-6.5,0.2h-0.1c-1,0-2.1,0-3.1-0.1c-0.7,0-1.3-0.1-2-0.1
				c-0.1,0-0.1,0-0.2,0c-0.5,0-1-0.1-1.4-0.1s-0.9-0.1-1.4-0.1l-2.4-0.3c-0.6-0.1-1.2-0.2-1.7-0.3l-1.7-0.3
				c-0.3-0.1-0.6-0.2-0.9-0.2l0,0c-0.1,2.7-0.4,5.4-1,8c-1.3-6.9-4.8-13.1-9.9-17.8c-0.6-0.7-1.3-1.3-2-2s-1.3-1.3-2-2s-1.3-1.3-2-2
				s-1.3-1.3-2-2s-1.3-1.3-2-2s-1.3-1.3-2-2s-1.3-1.3-2-2c-5-5.4-11.7-9-18.9-10.1c13.9-3.2,28.5-0.2,39.9,8.3c0-0.1,0-0.1,0.1-0.2
				c1.9-3.6,4.7-6.8,8-9.3c3.5-2.6,7.5-4.5,11.7-5.8c4.5-1.4,9-2.6,13.6-3.5c4.9-0.9,9.8-1.6,14.7-2.2c9.7-1.5,19.3-3.6,28.7-6.2
				c3.3-0.9,6.7-1.9,10.2-3C1397,708.1,1394.8,709.5,1392.8,710.9L1392.8,710.9z"/>
			<path class="st5" d="M578.4,686.2l-1.4,0.4c-32,5.6-61.5,20.7-84.7,43.4l-0.1,0.2c-1,1.1-2.1,2.1-3.1,3.1
				c-2.3,2.4-4.5,4.8-6.6,7.2c-2.4,3.2-4.8,6.3-7.4,9.3c-4.3,5-8.8,9.7-13.7,14.1L450.2,753l0,0l-2-1.9l0,0h-0.1l-2-1.9h0H446
				c-0.8,0-1.7,0-2.5,0c-15.3,0-28.2-3-38.9-8.9c-3-1.6-5.8-3.5-8.5-5.5c-0.6-0.8-1.1-1.6-1.7-2.4c-6.7-10.1-11.7-21.2-14.5-33
				c-3-12.4-4.6-25.1-4.5-37.8c0-13.3,1.5-26.5,4.6-39.4c1.6-6.8,3.9-13.5,6.8-19.9c0.5-1.2,1.1-2.4,1.7-3.6l0.1-0.2
				c0.6-1.1,1.1-2.2,1.7-3.3c0.2-0.3,0.4-0.7,0.6-1c0.5-0.8,0.9-1.7,1.4-2.5c0.7-1.2,1.4-2.3,2.2-3.5c6.6-9.9,15.5-18,26-23.7
				c10.7-5.9,23.6-8.9,38.9-8.9c0.7,0,1.4,0,2.1,0l0,0c14.1,0.4,27.8,5,39.3,13.2c0.9,1.2,1.7,2.4,2.5,3.7l0,0l0.1,0.2
				c2.1,3.4,4.7,6.6,7.6,9.3c0.6,0.7,1.3,1.3,2,2s1.3,1.3,2,2s1.3,1.3,2,2s1.3,1.3,2,2s1.3,1.3,2,2s1.3,1.3,2,2s1.3,1.3,2,2
				c8.1,8.8,19.5,13.8,31.5,13.8h36.2c-2-17.8-6.9-33.7-14.7-47.5c-3.8-6.8-8.3-13.3-13.4-19.2c-2.2-2.6-4.6-5.1-7-7.5
				c-0.7-0.7-1.3-1.3-2-2s-1.3-1.3-2-2s-1.3-1.3-2-2s-1.3-1.3-2-2s-1.3-1.3-2-2s-1.3-1.3-2-2s-1.3-1.3-2-2c-3.5-3.6-7.2-6.9-11.1-10
				c-12.2-9.5-25.9-16.7-40.6-21.4c-15.6-5-31.8-7.4-48.2-7.3c-23.6,0-44.8,4.2-63.7,12.5c-9.1,4-17.8,9-25.9,14.9h-0.1l-1.3,1
				l-1.6,1.2c-1.1,0.8-2.2,1.7-3.2,2.6l-1.5,1.2c-1.1,0.9-2.1,1.8-3.2,2.8l-1.3,1.2c-1.5,1.3-2.9,2.7-4.3,4.1l-0.3,0.3
				c-1.7,1.7-3.4,3.5-5,5.4c-1.3,1.5-2.6,3.1-3.9,4.6l-1.3,1.6l0,0c-10.7,13.7-19,29-24.6,45.4c-6.9,19.7-10.4,41.1-10.4,64.2
				c0,22.5,3.5,43.4,10.4,62.8c6.5,18.7,16.6,36,29.8,50.8c1.8,2,3.7,4,5.6,5.9c0.6,0.7,1.3,1.3,2,2s1.3,1.3,2,2s1.3,1.3,2,2
				s1.3,1.3,2,2s1.3,1.3,2,2s1.3,1.3,2,2s1.3,1.3,2,2c5.7,5.8,11.9,11.1,18.5,15.8c29.9-0.3,59.1-9,84.4-25
				C438,783.8,418.8,794,398,800l0.3,0.1H398l15.6,15.7h0.1c14.6,4,29.7,6,44.8,6h1c1.7,0,3.3,0,5-0.1c16.1-0.3,32.1-3.2,47.3-8.6
				c15.4-5.5,29.5-14,41.5-25c12-11.2,21.7-24.7,28.5-39.7c6.6-14.5,10.8-29.9,12.7-45.7l0.2-0.2L578.4,686.2z M415.9,814.7h0.2
				c-0.8,0.3-1.6,0.5-2.5,0.8L415.9,814.7z"/>
			<path class="st5" d="M810.8,692.8L810.8,692.8l-2-1.9l0,0l0,0l-1.9-1.9v-0.1h-0.1l-0.1-0.1l-0.2,0.1c-2.1,0.6-4.2,1.1-6.3,1.8
				c3.4-2.2,6.5-4.6,9.5-7.2c8.1-6,12.8-15.5,12.8-25.5v-9.3c0.1-7.6-1.1-15.1-3.5-22.3c-1.3-3.7-3.2-7.2-5.5-10.4
				c-2.1-2.8-4.4-5.5-6.9-7.9c-0.6-0.7-1.3-1.3-2-2s-1.3-1.3-2-2s-1.3-1.3-2-2s-1.3-1.3-2-2s-1.3-1.3-2-2s-1.3-1.3-2-2s-1.3-1.3-2-2
				c-5.3-5.5-11.5-10-18.4-13.3c-9.9-4.6-20.4-7.7-31.2-9.1c-5.8-0.8-11.5-1.4-17.2-1.8l-4.3-0.3c-4.2-0.2-8.5-0.3-12.7-0.3
				c-3,0-6.1,0.1-9.1,0.2c-9.3,0.5-18.5,1.6-27.7,3.4c-11.6,2.2-22.8,6.4-33,12.3c-9.7,5.7-18,13.5-24.2,22.9
				c-6.3,9.5-9.9,21.5-10.8,35.9l0,0l0,0h0.1l0,0l1.8,1.9l0,0l0,0l0,0l0,0l1.9,1.9l0,0l0,0l0,0l0,0l1.9,1.9l0,0l0,0l0,0h0.2l1.9,1.9
				l0,0l0,0l0,0h0.1l1.9,1.9l0,0l0,0l0,0l0,0l1.9,1.9l0,0l0,0l0,0l0,0l1.9,1.9l0,0l0,0l0,0h0l1.9,1.9l0,0l0,0l0,0h38.6
				c11.5-0.1,22.1-6.6,27.3-16.9c1.8-3.6,4.4-6.6,7.6-9.1c6-4.5,14.1-7.1,24.1-7.6c1.4-0.1,2.8-0.1,4.2-0.1c2.7,0,5.4,0.1,7.9,0.3
				s5.1,0.5,7.6,0.8c2.4,0.4,4.9,1,7.2,1.8c1.1,3.9,1.7,8,1.6,12c0.3,6.3-1.6,11.2-5.6,14.5c-4,3.3-9.5,5.8-16.4,7.5
				c-7.8,1.9-15.8,3.2-23.8,3.9c-8.9,0.9-18,2-27.2,3.5c-9.2,1.4-18.4,3.4-27.4,5.8c-5.7,1.5-11.2,3.6-16.5,6.3
				c-2.7,1.4-5.3,2.9-7.8,4.7c-7.2,5.1-13.1,11.8-17.3,19.7c-0.9,1.6-1.7,3.3-2.3,5v0.1c-0.3,0.8-0.6,1.7-0.9,2.5l-0.1,0.3
				c-0.3,0.8-0.5,1.6-0.7,2.4c0,0.1-0.1,0.3-0.1,0.4c-0.2,0.8-0.4,1.7-0.6,2.6c0,0.1,0,0.2-0.1,0.3c-0.4,1.9-0.8,3.9-1,5.9l0,0
				c-0.2,1.2-0.3,2.4-0.4,3.7c-0.2,2.6-0.3,5.3-0.3,8c0,11.5,1.9,21.5,5.8,29.8c3,6.6,7.3,12.5,12.5,17.5c0.6,0.7,1.3,1.3,2,2
				s1.3,1.3,2,2s1.3,1.3,2,2s1.3,1.3,2,2s1.3,1.3,2,2s1.3,1.3,2,2s1.3,1.3,2,2c1.8,1.9,3.7,3.6,5.7,5.2c7.2,5.6,15.4,9.7,24.2,12.1
				c8.7,2.4,17.6,3.7,26.6,3.8c1,0,2,0,3,0c2.6,0,5.2-0.1,7.8-0.2l2.6-0.2c2.7-0.2,5.3-0.5,8-0.8c7.6-1,15.1-2.6,22.4-4.9
				c12.1-3.6,23.2-10.1,32.3-18.9c0.3,0.3,0.7,0.7,1.1,1c0.6,0.7,1.3,1.3,2,2c0.7,0.7,1.3,1.3,2,2s1.3,1.3,2,2s1.3,1.3,2,2
				c6,6.6,14.5,10.4,23.5,10.4h28V704.6l0,0l0.1-0.1L810.8,692.8z M757.7,710.9l-0.9,0.6c-7.4,5.2-12.3,13.2-13.5,22.1
				c0.1-0.6,0.2-1.2,0.3-1.9c-1.1,4-2.7,7.9-4.7,11.5c-3.2,5.6-8.1,10.4-14.7,14.5c-4.9,2.8-10.3,4.6-15.8,5.2
				c-1.9,0.3-3.8,0.5-5.9,0.6s-4.2,0.2-6.5,0.2h-0.1c-1,0-2.1,0-3.1-0.1c-0.7,0-1.3-0.1-2-0.1c-0.1,0-0.1,0-0.2,0
				c-0.5,0-1-0.1-1.4-0.1s-0.9-0.1-1.4-0.1l-2.4-0.3c-0.6-0.1-1.2-0.2-1.7-0.3l-1.7-0.3c-2.1-0.4-4.2-1-6.3-1.7
				c-0.9-3.2-1.4-6.5-1.3-9.8c0-5.8,1-10.5,3-14.3l0,0c1.9-3.6,4.7-6.8,8-9.3c3.5-2.6,7.5-4.5,11.7-5.8c4.5-1.4,9-2.6,13.6-3.5
				c4.9-0.9,9.8-1.6,14.7-2.2c9.7-1.5,19.3-3.6,28.7-6.2l0.3-0.1c3.2-0.9,6.5-1.8,9.9-2.9C761.9,708.1,759.8,709.5,757.7,710.9
				L757.7,710.9z"/>
		</g>
		<path class="st5" d="M1047.8,610.4c-6-7.9-14.3-14.1-24.8-18.6c-10.5-4.5-24-6.7-40.4-6.7c-13.2,0.1-26.2,3.1-38,8.9
			c-5.7,2.7-11,6.2-15.7,10.5c-6.4,5.9-11.6,12.9-15.5,20.6c-13.4,26.2-33.7,48.3-58.7,63.8v93.2c0,17.9,14.5,32.3,32.3,32.3h0h29
			v-117c0-22.7,3.7-39.1,11.2-49c7.5-9.9,19.6-14.9,36.3-14.9c14.7,0,24.9,4.5,30.7,13.6c5.8,9.1,8.7,22.8,8.6,41.2v94.6
			c0,17.4,14.1,31.5,31.5,31.5h29.8V677.2c0.1-12.7-1.1-25.4-3.7-37.8C1058.1,628,1053.9,618.4,1047.8,610.4z"/>
		<path class="st5" d="M854.7,591.2v76.5c21.6-20.9,36.9-47.4,44.3-76.5H854.7z"/>
		<path class="st5" d="M1146.5,609.6l-51.4-87.3c-5.9-10-16.6-16.1-28.2-16.1H1010l97.7,162.2
			C1116.1,646.1,1129.4,626.1,1146.5,609.6z"/>
		<path class="st5" d="M1270.2,564.7l35.2-58.6H1248c-11.5,0-22.2,6.1-28.1,16l-35.7,60.3l-27,45.5l0,0
			c-19.9,26.1-31.4,57.6-32.8,90.4v64c0,17.8,14.5,32.3,32.3,32.3h35.5V703.3c0-5.8,1.6-11.4,4.5-16.4L1270,565L1270.2,564.7z"/>
		<path class="st5" d="M1457.2,662.9c0,0.2-0.1,0.5-0.1,0.7C1457.1,663.4,1457.1,663.2,1457.2,662.9z"/>
		<circle class="st5" cx="1283.1" cy="776.2" r="32.3"/>
		<path class="st5" d="M1391.8,754.6c0.8-1.8,1.4-3.6,2-5.4C1393.2,751.1,1392.5,752.9,1391.8,754.6z"/>
		<path class="st5" d="M1399.1,793.2c0-0.1,0-0.2,0-0.3l0,0V793.2c1.9,5.2,5,9.8,9.2,13.4C1404.1,802.9,1401,798.3,1399.1,793.2z"/>
		<path class="st5" d="M1410.8,808.6l-0.1-0.1L1410.8,808.6z"/>
		<path class="st5" d="M1409.4,807.5l-0.7-0.6L1409.4,807.5z"/>
		<path class="st5" d="M1334.3,778.5c0.6,0.1,1.2,0.2,1.7,0.3l2.4,0.3c0.4,0,0.9,0.1,1.4,0.1s1,0.1,1.4,0.1c0.1,0,0.1,0,0.2,0
			c0.7,0,1.3,0.1,2,0.1c1.1,0,2.1,0.1,3.1,0.1h0.1c2.3,0,4.4-0.1,6.5-0.2c2.1-0.1,4-0.3,5.9-0.6c6.4-0.9,11.7-2.7,15.8-5.2
			c6.6-4,11.5-8.8,14.7-14.5c0.8-1.4,1.4-2.8,2.1-4.1c-0.6,1.4-1.3,2.8-2.1,4.1c-3.2,5.6-8.1,10.4-14.7,14.5
			c-4.2,2.6-9.5,4.3-15.8,5.2c-1.9,0.3-3.8,0.5-5.9,0.6s-4.2,0.2-6.5,0.2h-0.1c-1,0-2.1,0-3.1-0.1c-0.7,0-1.3-0.1-2-0.1
			c-0.1,0-0.1,0-0.2,0c-0.5,0-1-0.1-1.4-0.1s-0.9-0.1-1.4-0.1l-2.4-0.3C1335.4,778.7,1334.8,778.6,1334.3,778.5l-1.8-0.3
			c-0.3-0.1-0.6-0.2-0.9-0.2l0,0c0.3,0.1,0.6,0.2,1,0.2L1334.3,778.5z"/>
		<path class="st5" d="M1457.6,736v78.5h-28.3c-6.7,0-13.1-2.1-18.6-5.9c5.4,3.9,11.8,5.9,18.4,6h28.4v-110l0,0L1457.6,736
			L1457.6,736z"/>
		<path class="st5" d="M1393.8,749.2l0.3-1.2L1393.8,749.2z"/>
		<path class="st5" d="M1391.6,754.9l0.1-0.3L1391.6,754.9z"/>
		<path class="st5" d="M1410.7,808.5c-0.4-0.3-0.8-0.6-1.2-0.9C1409.9,807.8,1410.2,808.2,1410.7,808.5z"/>
		<path class="st5" d="M1408.7,807l-0.4-0.4L1408.7,807z"/>
		<path class="st5" d="M508,745.7l-0.1,0.2c-1,1.1-2.1,2.1-3.1,3.1c-2.3,2.4-4.5,4.8-6.6,7.3c-2.4,3.2-4.8,6.3-7.4,9.3
			c-20.4,23.8-47.2,41.1-77.3,49.9c14.6,4,29.7,6,44.8,6h1c1.7,0,3.3,0,5-0.1c16.1-0.3,32.1-3.2,47.3-8.6c15.4-5.5,29.5-14,41.5-25
			c12-11.2,21.7-24.7,28.5-39.7c6.6-14.6,10.9-30.1,12.7-46C561.7,707.5,531.6,722.7,508,745.7z"/>
		<path class="st5" d="M459.3,764.8c-15.3,0-28.2-3-38.9-8.9c-10.4-5.7-19.3-13.7-25.9-23.5c-6.7-10.1-11.7-21.2-14.5-33
			c-3-12.4-4.6-25.1-4.5-37.8c-0.1-13.2,1.5-26.5,4.5-39.4c1.6-6.8,3.9-13.5,6.8-19.9c0.5-1.2,1.1-2.4,1.7-3.6l0.1-0.2
			c0.6-1.1,1.1-2.2,1.7-3.3c0.2-0.3,0.4-0.7,0.6-1c0.5-0.8,0.9-1.7,1.4-2.5c0.7-1.2,1.4-2.3,2.2-3.5c6.6-9.9,15.5-18,26-23.7
			c10.7-5.9,23.6-8.9,38.9-8.9c0.7,0,1.4,0,2.1,0l0,0c15.4,0.4,30.3,5.8,42.4,15.5c6,4.8,11.1,10.6,15.1,17.1l0,0l0.1,0.2
			c7.8,13,21.9,21.1,37.1,21.2h36.2c-2-17.8-6.9-33.7-14.7-47.5c-3.8-6.8-8.3-13.3-13.4-19.2c-4.9-5.7-10.3-10.9-16.2-15.5
			c-12.2-9.5-25.9-16.7-40.6-21.4c-15.6-5-31.8-7.4-48.1-7.3c-23.6,0-44.9,4.2-63.7,12.5c-9.1,4-17.8,9-25.9,14.8h-0.1
			c-0.4,0.3-0.9,0.7-1.3,1l-1.6,1.2c-1.1,0.8-2.2,1.7-3.2,2.6l-1.5,1.2c-1.1,0.9-2.1,1.8-3.2,2.8l-1.3,1.2c-1.5,1.3-2.9,2.7-4.3,4.1
			l-0.3,0.3c-1.7,1.7-3.4,3.5-5,5.4c-1.3,1.5-2.6,3.1-3.9,4.6c-0.4,0.5-0.9,1.1-1.3,1.6l0,0c-10.7,13.7-19,29-24.6,45.4
			c-6.9,19.7-10.4,41.1-10.4,64.2c0,22.5,3.5,43.4,10.4,62.8c6.5,18.7,16.6,36,29.8,50.8c6.6,7.4,14.1,14,22.2,19.7
			c33-0.4,65.1-10.9,91.9-30.1C461.1,764.8,460.2,764.8,459.3,764.8z"/>
		<path class="st5" d="M1457.6,657.7c0,1.8-0.1,3.5-0.4,5.3C1457.5,661.2,1457.6,659.5,1457.6,657.7z"/>
		<path class="st5" d="M1457.1,663.6c0,0.1,0,0.2,0,0.2S1457.1,663.7,1457.1,663.6z"/>
		<path class="st5" d="M1448.6,616c-6.1-8.2-14.1-14.8-23.3-19.2c-10-4.7-20.6-7.9-31.5-9.3c-5.8-0.8-11.5-1.4-17.2-1.8
			c-1.4-0.1-2.8-0.2-4.3-0.3c-4.2-0.2-8.5-0.3-12.7-0.3c-3,0-6.1,0.1-9.1,0.2c-9.3,0.5-18.5,1.6-27.7,3.5
			c-11.6,2.2-22.8,6.4-33,12.3c-9.7,5.7-18,13.5-24.2,22.9c-6.3,9.5-9.9,21.5-10.8,35.9h38.3c11.8,0,22.2-6.8,27.7-17.1
			c1.8-3.4,4.3-6.4,7.4-8.8c6-4.5,14.1-7.1,24.1-7.6c1.4-0.1,2.8-0.1,4.2-0.1c2.7,0,5.4,0.1,7.9,0.3s5.1,0.5,7.6,0.8
			c4.4,0.6,8.7,2.1,12.5,4.3c3.6,2.2,6.6,5.3,8.6,9.1c2.1,3.9,3.2,9.1,3.2,15.8c0.3,6.3-1.6,11.2-5.6,14.5s-9.5,5.8-16.4,7.6
			c-7.8,1.9-15.7,3.2-23.8,3.9c-8.9,0.9-18,2-27.2,3.5c-9.2,1.4-18.4,3.4-27.4,5.8c-5.7,1.5-11.2,3.6-16.4,6.3
			c-2.7,1.4-5.3,2.9-7.8,4.7c-13,9.1-21.5,23.5-23.2,39.3c16.9-17.4,44.1-19.5,63.6-5c0-0.1,0-0.1,0.1-0.2c1.9-3.6,4.7-6.8,8-9.3
			c3.5-2.6,7.5-4.5,11.7-5.8c4.5-1.4,9-2.6,13.6-3.5c4.9-0.9,9.8-1.6,14.7-2.2c9.7-1.5,19.3-3.6,28.7-6.2
			c18.7-5.1,42.1-13.6,56.2-26.6c6-5.6,10.4-12,11.9-19.4c0-0.1,0-0.2,0-0.2s0.1-0.5,0.1-0.7c0.3-1.7,0.4-3.5,0.4-5.3v-9
			C1457.6,635.1,1454.6,624.2,1448.6,616z"/>
		<path class="st5" d="M617.2,727.4L617.2,727.4L617.2,727.4z"/>
		<path class="st5" d="M616.2,730.2c0-0.1,0.1-0.2,0.1-0.3C616.2,730,616.2,730.1,616.2,730.2z"/>
		<path class="st5" d="M614.6,736c0-0.1,0-0.2,0.1-0.3C614.7,735.8,614.6,735.9,614.6,736z"/>
		<path class="st5" d="M615.3,733.1l0.1-0.4L615.3,733.1z"/>
		<path class="st5" d="M615.4,732.7c0.2-0.8,0.5-1.6,0.7-2.4C615.9,731,615.7,731.8,615.4,732.7z"/>
		<path class="st5" d="M614.7,735.7c0.2-0.9,0.4-1.7,0.6-2.6C615.1,733.9,614.9,734.8,614.7,735.7z"/>
		<path class="st5" d="M613.6,741.9L613.6,741.9c0.3-2,0.6-4,1-5.9C614.2,737.9,613.9,739.8,613.6,741.9z"/>
		<path class="st5" d="M616.3,729.9c0.3-0.9,0.6-1.7,0.9-2.5C616.8,728.2,616.5,729.1,616.3,729.9z"/>
		<path class="st5" d="M685.2,727.5c3.5-2.5,7.5-4.5,11.7-5.8c4.5-1.4,9-2.6,13.6-3.5c4.9-0.9,9.8-1.6,14.7-2.2
			c9.7-1.5,19.3-3.6,28.7-6.2l0.3-0.1c18.5-5,41.5-13.4,55.6-26.3c8.1-6,12.8-15.5,12.8-25.5v-9.3c0.1-7.6-1.1-15.1-3.5-22.3
			c-1.3-3.7-3.2-7.2-5.5-10.4c-6.1-8.2-14.1-14.8-23.3-19.2c-10-4.7-20.6-7.9-31.5-9.3c-5.8-0.8-11.5-1.4-17.2-1.8
			c-1.4-0.1-2.8-0.2-4.3-0.3c-4.2-0.2-8.5-0.3-12.7-0.3c-3,0-6.1,0.1-9.1,0.2c-9.3,0.5-18.5,1.6-27.7,3.5
			c-11.6,2.2-22.8,6.4-33,12.3c-9.7,5.7-18,13.5-24.2,22.9c-6.3,9.5-9.9,21.5-10.8,35.9l0,0l0,0h38.6c11.5-0.1,22.1-6.6,27.3-16.9
			c1.8-3.6,4.4-6.6,7.6-9.1c6-4.5,14.1-7.1,24.1-7.6c1.4-0.1,2.8-0.1,4.2-0.1c2.7,0,5.4,0.1,7.9,0.3s5.1,0.5,7.6,0.8
			c4.4,0.6,8.7,2.1,12.5,4.3c3.6,2.2,6.6,5.3,8.6,9.1c0.6,1,1,2.1,1.4,3.2c1.3,4.1,1.9,8.3,1.8,12.6c0.3,6.3-1.6,11.2-5.6,14.5
			s-9.5,5.8-16.4,7.6c-7.8,1.9-15.7,3.2-23.8,3.9c-8.9,0.9-18,2-27.2,3.5c-9.2,1.5-18.4,3.4-27.4,5.9c-5.7,1.5-11.2,3.6-16.4,6.3
			c-2.7,1.4-5.3,2.9-7.8,4.7c-7.2,5.1-13.1,11.8-17.3,19.7c-0.9,1.6-1.7,3.3-2.3,5.1v0c-0.3,0.8-0.6,1.7-0.9,2.5
			c0,0.1-0.1,0.2-0.1,0.3c-0.3,0.8-0.5,1.6-0.7,2.4l-0.1,0.4c-0.2,0.8-0.4,1.7-0.6,2.6c0,0.1,0,0.2-0.1,0.3c-0.4,1.9-0.8,3.9-1,5.9
			c-0.2,1.2-0.3,2.4-0.4,3.7c-0.2,2.6-0.3,5.3-0.3,8c0,11.5,1.9,21.5,5.8,29.8c3.7,8.1,9.3,15.2,16.2,20.7
			c7.2,5.6,15.4,9.7,24.2,12.1c8.7,2.4,17.6,3.7,26.6,3.8c1,0,2,0,3,0c2.6,0,5.2-0.1,7.8-0.2l2.6-0.2c2.7-0.2,5.3-0.5,8-0.8
			c7.6-1,15.1-2.6,22.4-4.9c13.1-3.9,24.9-11.2,34.4-21l0.1-0.1l0,0c0,0.1,0,0.2,0,0.3c4.6,12.7,16.6,21.2,30.1,21.3h28.5V704.6
			c-17.5,4.5-34.1,11.9-49.2,22l-0.9,0.6c-7.4,5.2-12.3,13.2-13.5,22.1c0.1-0.6,0.2-1.3,0.3-1.9c-1.1,4-2.7,7.9-4.7,11.5
			c-3.2,5.6-8.1,10.4-14.7,14.5c-4.2,2.6-9.5,4.3-15.8,5.2c-1.9,0.3-3.8,0.5-5.9,0.6s-4.2,0.2-6.5,0.2h-0.1c-1,0-2.1,0-3.1-0.1
			c-0.7,0-1.3-0.1-2-0.1c-0.1,0-0.1,0-0.2,0c-0.5,0-1-0.1-1.4-0.1s-0.9-0.1-1.4-0.1l-2.4-0.3c-0.6-0.1-1.2-0.2-1.7-0.3l-1.7-0.3
			c-4.3-0.7-8.4-2.3-12.1-4.6c-3.5-2.2-6.3-5.2-8.2-8.9c-2-3.7-3-8.3-3-13.8c0-5.8,1-10.5,3-14.3l0,0
			C679.1,733.1,681.9,729.9,685.2,727.5z"/>
		<path class="st5" d="M1408.5,726.6l-0.9,0.6c-6.7,4.6-11.3,11.6-13.1,19.6l0,0l-0.2,0.7c0,0.2-0.1,0.4-0.2,0.6l-0.3,1.2
			c-0.6,1.8-1.2,3.6-2,5.4l-0.1,0.3c-0.6,1.4-1.3,2.8-2.1,4.1c-3.2,5.6-8.1,10.4-14.7,14.5c-4.2,2.6-9.5,4.3-15.8,5.2
			c-1.9,0.3-3.8,0.5-5.9,0.6s-4.2,0.2-6.5,0.2h-0.1c-1,0-2.1,0-3.1-0.1c-0.7,0-1.3-0.1-2-0.1c-0.1,0-0.1,0-0.2,0
			c-0.5,0-1-0.1-1.4-0.1s-0.9-0.1-1.4-0.1l-2.4-0.3c-0.6-0.1-1.2-0.2-1.7-0.3l-1.7-0.3c-0.3-0.1-0.6-0.2-1-0.2
			c-0.8,17.2-10.7,32.7-26,40.7c5,0.8,10,1.2,15.1,1.4c1,0,2,0,3,0c2.6,0,5.2-0.1,7.8-0.2l2.6-0.2c2.7-0.2,5.3-0.5,8-0.8
			c7.6-1,15.1-2.6,22.4-4.9c13.1-3.9,24.9-11.2,34.4-21l0.1-0.1l0.1-0.1l0,0l0,0c0,0.1,0,0.2,0,0.3c1.9,5.2,5,9.8,9.2,13.4l0.4,0.4
			l0.7,0.6c0.4,0.3,0.8,0.6,1.2,0.9l0.1,0.1c5.4,3.9,11.9,5.9,18.6,5.9h28.3V704.6C1440.1,709.1,1423.5,716.6,1408.5,726.6z"/>
		<path class="st6" d="M1132.4,855.2c0,0-7.5-18.7,3.8-18.7s26.2,0,26.2,7.5s-13.1,24.3-13.1,24.3L1132.4,855.2"/>
		<path class="st6" d="M1022.3,814c0,0-3.7-18.7,0-22.5c3.7-3.7,8.2,21.8,8.2,21.8l22.5,1.2l-8.3,10.6L1022.3,814"/>
		<path class="st6" d="M489.2,1053.1"/>
		<path class="st6" d="M343.5,585.6c0,0,7.9-0.9,1.8,5l0,0l11-3.5c2.1-0.7,4.4,0.5,5.1,2.6c0.1,0.2,0.1,0.4,0.2,0.7l0.5,3.6
			c0.6,4.2-1.3,8.3-4.8,10.7l-7.3,4.9l-19.6-2.2L343.5,585.6"/>
		<polygon class="st6" points="920,233.7 961.4,246.4 1019.9,205 1011.2,187.6 963.8,212 928.2,204.9 		"/>
		<path class="st7" d="M996.8,275.2l28.4,0.8c2.6,0.1,4.8-2,4.9-4.6c0-0.1,0-0.1,0-0.2l-0.6-61.5c0-2.6-2.1-4.7-4.8-4.7h-24.1
			c-2.6,0-4.8,2.1-4.8,4.7c0,0,0,0,0,0.1C996.1,226.6,996.8,280.9,996.8,275.2z"/>
		<path class="st6" d="M215.2,522.5c0,0,4.4,30.5-19.2,26.2l-11.3-6.7L215.2,522.5z"/>
		
			<ellipse transform="matrix(0.5338 -0.8456 0.8456 0.5338 -387.8532 1517.4139)" class="st8" cx="1182.2" cy="1110.4" rx="13.1" ry="10.9"/>
		<polyline class="st2" points="452.3,485.5 1015.2,276.1 1409,580.2 		"/>
		
			<ellipse transform="matrix(0.5338 -0.8456 0.8456 0.5338 -463.3796 1422.2632)" class="st8" cx="1058.1" cy="1131.4" rx="13.1" ry="10.9"/>
		<polygon class="st9" points="1023,885.4 902.6,916.4 932.2,943.8 1047.1,908.3 		"/>
		<polygon class="st9" points="1059.9,937 939.5,968 969,995.3 1084,959.9 		"/>
		<polygon class="st9" points="1096.8,988.5 976.4,1019.5 1005.9,1046.9 1120.9,1011.4 		"/>
		<polygon class="st9" points="1142.7,1038.1 1022.3,1069.1 1051.8,1096.4 1166.8,1061 		"/>
		<polygon class="st9" points="1181.7,1078.1 1061.3,1109.1 1090.8,1136.5 1205.8,1101 		"/>
		<line class="st10" x1="1208.8" y1="1114.5" x2="1016.7" y2="885.2"/>
		<line class="st10" x1="1090.3" y1="1141.3" x2="898.2" y2="912"/>
		<ellipse class="st8" cx="563.2" cy="1044.4" rx="10.9" ry="13.1"/>
		<ellipse class="st8" cx="922" cy="966.1" rx="10.9" ry="13.1"/>
		<ellipse class="st8" cx="711.1" cy="877" rx="10.9" ry="13.1"/>
		<polygon class="st9" points="724.1,855.2 809.3,945.7 769.8,953.1 691.5,861.8 		"/>
		<polygon class="st9" points="665.4,879.2 750.6,969.6 711.1,977 632.8,885.7 		"/>
		<polygon class="st9" points="606.7,903.1 691.9,993.6 652.3,1000.9 574,909.6 		"/>
		<polygon class="st9" points="541.4,920.5 626.7,1011 587.1,1018.3 508.8,927 		"/>
		<polygon class="st9" points="487.1,933.5 572.3,1024 532.7,1031.4 454.4,940.1 		"/>
		<line class="st10" x1="444.7" y1="949.8" x2="729.5" y2="858.5"/>
		<path class="st6" d="M1034.4,951.1c0,0,10.7-10.2,10.7-21.4s-2.4-56.2-43.3-56.2s-31.5,74.9,0.3,74.9l1.9,9.4L1034.4,951.1z"/>
		<path class="st11" d="M972.1,918.5c0,0-15-37.4,7.5-46.7s50.5-28.1,50.5-28.1l-3.7,18.7l13.1,1.9l-5,24c0,0-23-14.7-28.7-9
			S972.1,918.5,972.1,918.5z"/>
		<polygon class="st8" points="1090,1128.1 1112.4,1174.8 1116.2,1189.8 1090,1199.2 1054.4,1150.5 1058.2,1131.8 		"/>
		<polygon class="st12" points="1573.2,986.6 1577.4,1016.1 1532.5,1051.7 1515.6,1042.3 1540,1004.9 1538.1,988 		"/>
		<polygon class="st12" points="1495.1,958.1 1489.4,986.2 1409,986.2 1409,973.1 1459.5,952.5 1467,943.1 		"/>
		<polygon class="st6" points="226.6,892.6 215.3,829 241.5,821.5 248.5,889.4 		"/>
		<polygon class="st6" points="187.3,872 186.4,934.7 211.6,930 217.4,864.8 		"/>
		<path class="st12" d="M208.6,683.7l21.7,107.9l-5.6,80.4l-41.2,1.9l1.9-74.8c0,0-35.5-54.3-33.7-108.5L208.6,683.7z"/>
		<polygon class="st12" points="220.9,675.6 227.9,731.5 244.8,830.7 209.7,832.8 200.4,787.9 185.4,683.7 		"/>
		<path class="st8" d="M176.1,472.5c0,0-22.7,1.5-28.3,23.9s18.9,35.1,7.7,44.5s-28.1,26.2-15,39.3s1.9,35.5,18.7,24.3
			s16.8-56.1,16.8-54.2l12.3-77.2"/>
		<path class="st6" d="M215.4,530.6c-0.1-0.9-0.2-1.7-0.2-2.6c2.2-22.9-4.2-70.5-45.3-49.4c-28.4,14.6-16.3,48.1,8,62.2
			C199.5,553.5,215.3,530.7,215.4,530.6z"/>
		<polygon class="st6" points="279,582 215.3,597 194.8,570.8 262.1,569 293.5,522.5 306.6,531.2 		"/>
		
			<linearGradient id="SVGID_1_" gradientUnits="userSpaceOnUse" x1="155.622" y1="354.9583" x2="225.1677" y2="475.4309" gradientTransform="matrix(1 0 0 -1 0 1053.3701)">
			<stop  offset="0" style="stop-color:#FFC600"/>
			<stop  offset="1" style="stop-color:#F9A4D8"/>
		</linearGradient>
		<path class="st13" d="M208.7,631.2c4.4-7.1,15.8-20.4,10.4-28.6c-7.5-11.2-22.4-41.2-22.4-41.2h-22.5l-9.3,18.6
			c-3.7,7.5-5.7,15.7-5.7,24l-7.5,92.1l71.1-9.4l-7.7-30.4L208.7,631.2z"/>
		<polygon class="st6" points="196.6,561.5 196.6,548.4 174.2,537.1 174.2,561.5 		"/>
		<polygon class="st12" points="213.2,924.2 245.3,960 247.1,971.2 228.4,978.7 187.3,954.4 185.4,931.9 		"/>
		<polygon class="st12" points="252.8,887 301.4,896.4 303.3,911.3 230.3,920.7 226.6,892.6 		"/>
		<polygon class="st8" points="1491.3,737.3 1476.3,853.3 1459.5,946.9 1498.8,965.6 1525,857.1 1530.6,757.9 		"/>
		<path class="st14" d="M1143.1,982.4c0,0-13.8-7.7-38.2-2.1s-29.9,7.5-29.9,7.5l17.9,46.6l38.3-26.1L1143.1,982.4z"/>
		<polyline class="st6" points="797.4,234.4 803,290.5 803,387.8 805.8,403.7 822.7,403.7 822.7,383.1 826.4,392.5 828.3,385 
			822.7,366.3 828.3,289.6 835,239.8 795.9,233.3 		"/>
		<line class="st15" x1="821.5" y1="196.6" x2="793.5" y2="213.5"/>
		<polygon class="st14" points="836.7,335.4 840.4,455.2 844.2,567.4 876,548.7 882.9,459.4 895.9,372.4 		"/>
		<polygon class="st14" points="909.7,329.8 952.5,448.6 952.5,546.4 928.5,552.9 917.7,446.4 836.7,335.4 		"/>
		<polygon class="st8" points="876,548.7 913.4,567.4 915.3,584.3 849.8,578.7 847.3,565.6 		"/>
		<polygon class="st8" points="951.6,546.5 989,565.2 990.9,582 925.4,576.4 928.2,551.2 		"/>
		<path class="st6" d="M709.1,872c1.5-1.1,37.4-26.2,58-1.9s5.6,48.6-16.8,56.1s-26.2-3.8-31.8,0c0,0-13.2-17.1-16.9-21.6
			S696,881.4,709.1,872z"/>
		<path class="st8" d="M609.9,943.1c0,0-72.9-22.4-91.7-22.4s-46.8,61.7-73,131l28.1,7.5l52.4-93.6c0,0,56.1,29.9,74.8,29.9
			s29.9-9.3,29.9-9.3S638,961.8,609.9,943.1z"/>
		<path class="st8" d="M600.6,937.5c0,0-78.6-28.1-106.6-20.6s-101,84.2-101,84.2l33.7,9.4l74.8-52.4l76.7,15L600.6,937.5z"/>
		<polygon class="st12" points="473.4,1059.1 473.4,1079.7 411.6,1098.4 409.7,1083.5 445.3,1051.7 		"/>
		<polygon class="st12" points="426.6,1010.5 422.8,1031.1 351.7,1034.8 349.9,1018 392.9,1001.1 		"/>
		<path class="st14" d="M1179.8,1111.2l-56.1-97.3c0,0-11.2-33.7,7.5-33.7s29.9,15,29.9,15l41.2,106.6L1179.8,1111.2z"/>
		<polygon class="st8" points="1179.8,1111.2 1183.5,1131.8 1265.8,1139.3 1258.4,1122.4 1202.2,1101.9 		"/>
		
			<linearGradient id="SVGID_2_" gradientUnits="userSpaceOnUse" x1="961.5063" y1="138.7599" x2="1153.6199" y2="138.7599" gradientTransform="matrix(1 0 0 -1 0 1053.3701)">
			<stop  offset="0" style="stop-color:#33CCFF"/>
			<stop  offset="1" style="stop-color:#0078BF"/>
		</linearGradient>
		<path class="st16" d="M1133,855.2l-18.7,65.2l-46.8,31.8c0,0-31.8,0-67.4-3.7c-2.5-0.3-4.9-0.3-7.4-0.2l31.7-63.4l22.4-61.7
			l-22.4-11.2L998.3,883c0,0-44.9,52.4-35.5,73c5.3,11.7,16.6,23.3,25.5,31.3l21.1,30.1l81.1-28.6l-3.3-9.8
			c7.6-5.7,37.5-28.7,44.1-41.7l22.4-71.1L1133,855.2z"/>
		<polygon class="st8" points="1577.1,753.6 1566.2,847.7 1575.5,986.2 1534.3,993.7 1511.9,845.8 1515.6,742.9 		"/>
		<path class="st6" d="M900.2,114.7c0,0-11.6-30.7-39.1-22.1s-31.7,48.4-16.3,64.4s44,27.9,52.3,4.5S900.2,114.7,900.2,114.7z"/>
		<path class="st17" d="M901.5,124.3l-3.1-13.4l-35.6,4c0,0-1.2,12.9-7.5,12.7l-0.5,8l-3.8,4.3l-3.5-7.8c0,0-3.3-7.3-6.6,2.1
			s7.1,14.1,7.1,14.1l4.4,15.2l-13.8-7.7l-5.9-32.8c-1-2.9-0.7-6.2,0.8-8.9l4.3-7.7c2.9-5.2,7.4-9.2,12.9-11.3l12.2-4.8l41.2,1.9
			l-1.9,20.6L901.5,124.3z"/>
		<path class="st8" d="M729.3,863.3l13.5-3.3l20.5,24c0,0-8.2,9.9-3.7,14.3l-7.8,8.6l-0.3,5.8l10.5-5.5c0,0,7.5-2.8,3.2,6.2
			c-2.2,5.1-7.7,8-13.2,6.9l-12.2,6.1l22-0.1l28.8-26.3l-1.1-12.8l-5.8-21.7l-31-26.6L735.3,852L729.3,863.3z"/>
		<polygon class="st11" points="890.6,136.4 895.4,152.6 887.3,153 		"/>
		<path class="st18" d="M893.7,160.4l-15-1.6c0,0,0.9,2.8,5.6,4.5S893.7,160.4,893.7,160.4z"/>
		<polygon class="st6" points="851.7,185.8 851.7,163.3 879.7,170.8 881.6,185.8 872.2,198.9 		"/>
		<path class="st6" d="M327.6,595.1l-68.9,16.5l-65.2-32.5c-4.7-2.6-10.5-1.3-13.6,3l0,0c-4.9,6.8-7,21.7,0.5,25.2l76.1,27.1
			l76.2-25H350v-10.6l-6.5-13.3L327.6,595.1z"/>
		<polygon class="st11" points="210.9,511.6 218.4,526.5 210.9,530.3 		"/>
		<path class="st8" d="M174.2,546.5c0,0,5.6-7.8,1.9-15.3c0,0-14-8-6.5-17.4s10.9,2.2,10.9,2.2l2.2-21.8c0,0-0.9-20.7-8.4-20.7
			s-24.3,24.3-24.3,24.3s7.5,43,13.1,41.2S174.2,546.5,174.2,546.5z"/>
		<path class="st8" d="M172.3,535.3c0,0,3.7,20.6,13.1,20.6s20.6,1.8,18.7,13.1s-16.8-3.4-29-2.6S157.3,540.9,172.3,535.3z"/>
		<path class="st19" d="M1007.7,206.9v-14.7l1-1.3l0,0c1-1.2,2-2.5,3-3.9s2-2.7,2.9-4.1c1.9-2.7,3.6-5.6,5.1-8.5
			c1.5-2.8,2.7-5.7,3.5-8.8c0.4-1.4,0.5-2.8,0.6-4.2c0-1.2-0.3-2.3-0.8-3.4c-0.1-0.2-0.3-0.5-0.4-0.7c-0.2-0.2-0.3-0.4-0.5-0.6
			c-0.4-0.4-0.9-0.8-1.4-1.1c-0.6-0.3-1.2-0.6-1.8-0.9c-0.7-0.3-1.5-0.5-2.3-0.8c-1.5-0.4-3-0.8-4.6-1c-1.4-0.2-2.9-0.3-4.3-0.1
			c-2.6,0.2-4.8,1.9-5.6,4.3c-0.9,2.9-1.1,5.9-0.5,8.9l-4.5,1c-0.2-0.9-0.4-1.9-0.5-2.9c-0.1-1-0.2-1.9-0.2-2.9c0-2,0.2-4,0.8-6
			c0.7-2.1,1.9-4,3.6-5.5c1.7-1.4,3.8-2.4,6-2.8c2-0.4,4-0.5,6-0.2c1.9,0.2,3.8,0.5,5.6,0.9c3.2,0.7,8.3,2.3,10.8,6.7
			c1.2,2,1.8,4.2,2,6.5c0.1,2.1,0,4.1-0.4,6.1c-0.8,3.7-2,7.3-3.6,10.7c-1.5,3.3-3.3,6.5-5.2,9.7c-0.9,1.5-1.9,3.1-2.9,4.6
			c-1,1.5-2,3-3.1,4.5l0,0l1-2.9v13.1L1007.7,206.9z"/>
		
			<linearGradient id="SVGID_3_" gradientUnits="userSpaceOnUse" x1="1498.7299" y1="454.5631" x2="1588.4357" y2="299.1876" gradientTransform="matrix(1 0 0 -1 0 1053.3701)">
			<stop  offset="0" style="stop-color:#FFC600"/>
			<stop  offset="1" style="stop-color:#FF6666"/>
		</linearGradient>
		<path class="st20" d="M1607.3,605.2l-20.6-17.5c0,0-13.1,7.5-20.6,1.9s-9.4-11.2-9.4-11.2l-35.6,7.5c0,0-9.3,69.2-16.8,101
			s-18.7,71.1-18.7,71.1l89.8,3.7c0,0,18.6-99.2,28.9-114.1L1607.3,605.2z"/>
		<path class="st3" d="M1614.8,632.6l-50.5,73l-80.4,39.3l-18.7,16.8l-22.4-28.1l33.7-5.6l67.4-52.4l37.4-52.4
			c0,0,9.4-22.5,16.8-20.6S1624.2,606.4,1614.8,632.6z"/>
		<polygon class="st11" points="714.7,870.2 722.2,877.7 738.2,868.4 		"/>
		<polygon class="st11" points="1028.2,916.6 1028.2,897.9 1039.5,914.8 		"/>
		
			<linearGradient id="SVGID_4_" gradientUnits="userSpaceOnUse" x1="795.54" y1="792.7651" x2="947.08" y2="792.7651" gradientTransform="matrix(1 0 0 -1 0 1053.3701)">
			<stop  offset="0" style="stop-color:#33CCFF"/>
			<stop  offset="1" style="stop-color:#4EDCCA"/>
		</linearGradient>
		<path class="st21" d="M881.6,185.8l39.7,10c3.3,0.8,6.6,1.9,9.7,3.4c4.1,1.9,10.3,4.8,16.1,7.2l-15,33.7l-20.6-7.5
			c0,0-5.6,35.5-5.6,37.4s3.8,59.9,3.8,59.9l-72,6.5l-4.6-60.8l-3.7-26.2l-33.7-3.7l0.7-13.1c0.7-14.9,9.9-28.1,23.5-34.1l31-13.6
			C850.7,184.9,867.6,196.1,881.6,185.8z"/>
		<line class="st2" x1="1012.4" y1="155.5" x2="1012.4" y2="0"/>
		<line class="st10" x1="530.6" y1="1035.7" x2="815.5" y2="944.4"/>
		<path class="st6" d="M673.5,911.3c-3.7-3.7-76.7-43-76.7-43L574,803.1l-14.6,3.5l10.3,74.8l67.4,41.3L673.5,911.3z"/>
		<path class="st6" d="M714.5,916.9L674.9,879c-0.9-0.9-1.5-2-1.6-3.3l-5.7-50.2c-0.1-0.5-0.1-1,0-1.5l3.1-18.5
			c0.5-2.9-1.5-5.7-4.4-6.2c-0.4-0.1-0.9-0.1-1.3-0.1l-11.7,1.1c-2.9,0.3-5.1,2.8-4.9,5.8c0,0,0,0,0,0l1.7,18.6l2.7,56.6
			c0.1,1.2,0.5,2.4,1.4,3.3l43.6,48.6c2,2.2,5.4,2.4,7.6,0.4c0.1-0.1,0.1-0.1,0.2-0.2l9-9C716.7,922.4,716.6,919,714.5,916.9
			C714.5,916.9,714.5,916.9,714.5,916.9z"/>
		<path class="st8" d="M180.4,507.3l37-4.3c0,0,2.2-32.6-41.9-30.7L180.4,507.3z"/>
		<path class="st6" d="M293.2,522.8l4.6-9c2.4-4.6,6.7-5.2,11-2.2l13,13c0,0,0,6.5-19.6,10.9"/>
		<polygon class="st3" points="543.6,818.3 584.9,785.6 589.3,792.2 548,822.6 		"/>
		<path class="st8" d="M582.8,787.8l6.5,4.3c0,0,8.7,0,8.7,6.5h2.2c0,0,2.2-13-4.3-13l-10.9-10.9l-4.3,2.2
			C580.6,777,587.1,783.5,582.8,787.8z"/>
		<path class="st6" d="M565,807.8c-3.2,1.9-7.1,1.7-10.1-0.5c-3.3-2.5-6.3-6.2-2.7-10.6c6.5-7.8,19.6-20.8,23.9-13
			s7.5,11.1,1.6,15.9C573.7,802.7,569.5,805.4,565,807.8z"/>
		<path class="st6" d="M650.2,817.5c0,0-9.9-7.4-9.3-8.8s9.3,0.8,9.3,0.8L650.2,817.5z"/>
		<path class="st14" d="M1073.1,976.5c0,0-37.4-1.9-50.5,15s-18.7,16.8-11.2,29.9s28.1,24.3,43,9.3L1073.1,976.5z"/>
		<path class="st14" d="M1091.8,1079.7l1.8-80.8c0-1.2-0.2-2.4-0.8-3.5c-2.7-5.3-4.3-20.4-19.8-18.8c-18.7,1.9-24.3,18.7-24.3,31.8
			s9.3,123.5,9.3,123.5l31.8,0.3L1091.8,1079.7z"/>
		
			<linearGradient id="SVGID_5_" gradientUnits="userSpaceOnUse" x1="593.08" y1="112.1301" x2="723.8496" y2="112.1301" gradientTransform="matrix(1 0 0 -1 0 1053.3701)">
			<stop  offset="0" style="stop-color:#0078BF"/>
			<stop  offset="1" style="stop-color:#F9A4D8"/>
		</linearGradient>
		<path class="st22" d="M722.2,930c-3.7-13.1-3.7-9.4-3.7-9.4l-0.9-2.4c-4.4-9.9-14.5-19.1-19.5-18.8l-21.8,12.2l6-0.1l0.6-0.3
			l-29.9-15c-9.3,5.6-28.9,19.8-28.9,19.8l6.5,4.2l-37.5,17.2c0,0,39.3,15,37.4,48.7l91.7-33.7C722.2,952.5,725.9,943.1,722.2,930z"
			/>
		<path class="st6" d="M1011.2,187.6c0,0,6.5-15.2,15.2-10.9c8.7,4.4,12.6,23.3,4.3,26.1c-6.5,2.2-13,6.5-15.2-2.2
			C1014.5,196.2,1013.1,191.8,1011.2,187.6z"/>
		
			<rect x="280.4" y="520.3" transform="matrix(0.9966 -8.298215e-02 8.298215e-02 0.9966 -42.3019 27.2401)" class="st3" width="52.4" height="4.3"/>
		<path class="st6" d="M300,513.8c0,0,14.1,9.8,7.6,12s-10.9-6.5-10.9-6.5"/>
		<path class="st12" d="M326.1,520.5c3.2,3.2,6.5,4.3,9.4,4.2l1.1-9.7C328.8,512.6,326.1,520.5,326.1,520.5z"/>
		<path class="st5" d="M347.9,517.8c0,0-2.7,0-10.9-2.7c-0.1,0-0.2-0.1-0.4-0.1l-1.1,9.7C342.5,524.5,347.9,517.8,347.9,517.8z"/>
		<path class="st5" d="M113,892.2"/>
		<path class="st12" d="M135.8,934.5c14.7,0,22.7-3,22.7-4.6h0.1v-6.1c-4.2,2.6-13.8,3.8-22.8,3.8s-18.7-1.2-22.8-3.8v6.1h0.1
			C113.1,931.5,121.1,934.5,135.8,934.5z"/>
		<path class="st12" d="M113,951.1v10.7h0.5c-0.3,0.3-0.4,0.7-0.5,1.1c0,3,10.2,5.4,22.8,5.4s22.8-2.4,22.8-5.4
			c0-0.4-0.2-0.8-0.4-1.1h0.4v-10.7c-4.2,2.6-13.8,3.8-22.8,3.8S117.2,953.7,113,951.1z"/>
		<path class="st12" d="M135.8,925.4c14.7,0,22.7-3,22.7-4.6h0.1v-13.4H113v13.4h0.1C113.1,922.4,121.1,925.4,135.8,925.4z"/>
		<path class="st12" d="M135.8,936.7c-9.1,0-18.7-1.2-22.8-3.8v6.1h0.1c0,1.5,8,4.5,22.7,4.5s22.7-3,22.7-4.5h0.1v-6.1
			C154.5,935.5,144.9,936.7,135.8,936.7z"/>
		<path class="st12" d="M113,942v6.1h0.1c0,1.6,8,4.6,22.7,4.6s22.7-3,22.7-4.6h0.1V942c-4.2,2.6-13.8,3.8-22.8,3.8
			S117.2,944.6,113,942z"/>
		<path class="st23" d="M158.7,923.8v-3h-0.1c0,1.5-8,4.6-22.7,4.6s-22.7-3-22.7-4.6H113v3c4.2,2.6,13.8,3.8,22.8,3.8
			S154.5,926.4,158.7,923.8z"/>
		<path class="st23" d="M158.7,932.9v-3h-0.1c0,1.6-8,4.6-22.7,4.6s-22.7-3-22.7-4.6H113v3c4.2,2.6,13.8,3.8,22.8,3.8
			S154.5,935.5,158.7,932.9z"/>
		<path class="st23" d="M135.8,943.6c-14.7,0-22.7-3-22.7-4.5H113v3c4.2,2.6,13.8,3.8,22.8,3.8s18.6-1.2,22.8-3.8v-3h-0.1
			C158.6,940.6,150.6,943.6,135.8,943.6z"/>
		<path class="st23" d="M135.8,952.7c-14.7,0-22.7-3-22.7-4.6H113v3c4.2,2.6,13.8,3.8,22.8,3.8s18.6-1.2,22.8-3.8v-3h-0.1
			C158.6,949.7,150.6,952.7,135.8,952.7z"/>
		<path class="st5" d="M134.3,916.1"/>
		<ellipse class="st5" cx="135.8" cy="908.5" rx="22.8" ry="5.4"/>
		<line class="st2" x1="961.2" y1="589.9" x2="1015.2" y2="278"/>
		<polyline class="st2" points="695.8,589.9 1015.2,276.1 1168.6,566.1 		"/>
		<path class="st3" d="M1554.2,506.4c0,0-16.1,53.5,1.1,65.3s41.1-4,51.1-21.6s18.6-40.2,2.5-52.6S1557.1,491.6,1554.2,506.4z"/>
		<polygon class="st24" points="1555.3,539.8 1566.4,518.8 1563.1,543.1 		"/>
		<path class="st3" d="M1585.2,565.1c0,0-3.1,25.1,3.5,25.1c0,0-29.8,15.5-35.3,0l5.5-27.6L1585.2,565.1z"/>
		<path class="st18" d="M1553.3,551.6c0,0,12.9,1,14.5,2.8s-5.5,5-10.6,3S1553.3,551.6,1553.3,551.6z"/>
		<path class="st8" d="M1590.7,510c0,0-40.8,4.4-39.7-17.7c0,0,4,2.5,14.2-2.6c0,0-8.6-4-8.6-9.5c0,0,37.5,3.3,48.5,5.5
			s23,22.8,14.3,39.7c-11.8,23.2-15.5,31.9-14.4,21.7l-12.1-11.7L1590.7,510z"/>
		<path class="st3" d="M1594,555.2c5.5,3.3,15.4-2.2,17.7-11s-11-4.4-11-4.4L1594,555.2z"/>
		<path class="st8" d="M1558.7,504.5c0,0-7.3,11.7-8.6,19.6l3.1-21.8L1558.7,504.5z"/>
		<path class="st18" d="M213.3,535.6c0,0-9.7-2.6-11.1-1.9s3.6,4.3,7.6,4.4S213.3,535.6,213.3,535.6z"/>
		<path class="st18" d="M716.8,884.4c0,0-6.8-7.3-8.4-7.5s0.7,5.6,4.1,7.8S716.8,884.4,716.8,884.4z"/>
	</g>
</g>
</svg>
