<?xml version="1.0" encoding="UTF-8" standalone="no"?>
<svg width="28px" height="28px" viewBox="0 0 28 28" version="1.1" xmlns="http://www.w3.org/2000/svg" xmlns:xlink="http://www.w3.org/1999/xlink">
    <!-- Generator: Sketch 50 (54983) - http://www.bohemiancoding.com/sketch -->
    <title>assistive-listening-systems - FontAwesome</title>
    <desc>Created with Sketch.</desc>
    <defs></defs>
    <g id="Page-1" stroke="none" stroke-width="1" fill="none" fill-rule="evenodd">
        <g id="CanExchange/Deposit" transform="translate(-808.000000, -542.000000)" fill="#323C47">
            <path d="M809.999828,568.999685 C809.999828,569.270496 809.900879,569.504849 809.702979,569.70275 C809.505078,569.90065 809.270726,569.999599 808.999914,569.999599 C808.729103,569.999599 808.49475,569.90065 808.29685,569.70275 C808.098949,569.504849 808,569.270496 808,568.999685 C808,568.728874 808.098949,568.494521 808.29685,568.29662 C808.49475,568.09872 808.729103,567.999771 808.999914,567.999771 C809.270726,567.999771 809.505078,568.09872 809.702979,568.29662 C809.900879,568.494521 809.999828,568.728874 809.999828,568.999685 Z M812.999571,565.999943 C812.999571,566.270754 812.900622,566.505107 812.702721,566.703007 C812.504821,566.900908 812.270468,566.999857 811.999657,566.999857 C811.728845,566.999857 811.494493,566.900908 811.296592,566.703007 C811.098691,566.505107 810.999742,566.270754 810.999742,565.999943 C810.999742,565.729131 811.098691,565.494779 811.296592,565.296878 C811.494493,565.098977 811.728845,565.000028 811.999657,565.000028 C812.270468,565.000028 812.504821,565.098977 812.702721,565.296878 C812.900622,565.494779 812.999571,565.729131 812.999571,565.999943 Z M813.702635,560.297307 L817.702292,564.296964 L816.296163,565.703093 L812.296506,561.703436 L813.702635,560.297307 Z M818.999056,560.000458 C818.999056,560.271269 818.900107,560.505622 818.702206,560.703522 C818.504305,560.901423 818.269953,561.000372 817.999141,561.000372 C817.72833,561.000372 817.493977,560.901423 817.296077,560.703522 C817.098176,560.505622 816.999227,560.271269 816.999227,560.000458 C816.999227,559.729646 817.098176,559.495294 817.296077,559.297393 C817.493977,559.099492 817.72833,559.000544 817.999141,559.000544 C818.269953,559.000544 818.504305,559.099492 818.702206,559.297393 C818.900107,559.495294 818.999056,559.729646 818.999056,560.000458 Z M830.044982,555.000887 C830.044982,555.615421 829.985092,556.180471 829.86531,556.696054 C829.745528,557.211637 829.550234,557.69857 829.279423,558.156866 C829.008611,558.615162 828.779467,558.966691 828.591982,559.211463 C828.404497,559.456235 828.128482,559.79214 827.763928,560.219189 C827.441037,560.583743 827.204081,560.864966 827.053052,561.062867 C826.902022,561.260767 826.72756,561.521159 826.529659,561.844049 C826.331758,562.16694 826.193751,562.500241 826.115632,562.843964 C826.037513,563.187686 825.998455,563.573065 825.998455,564.000114 C825.998455,565.65623 825.412573,567.070157 824.240793,568.241938 C823.069013,569.413718 821.655086,569.999599 819.99897,569.999599 C819.728158,569.999599 819.493806,569.90065 819.295905,569.70275 C819.098004,569.504849 818.999056,569.270496 818.999056,568.999685 C818.999056,568.728874 819.098004,568.494521 819.295905,568.29662 C819.493806,568.09872 819.728158,567.999771 819.99897,567.999771 C821.103047,567.999771 822.045665,567.609183 822.826852,566.827996 C823.608039,566.04681 823.998626,565.104192 823.998626,564.000114 C823.998626,563.406412 824.058516,562.856986 824.178298,562.351818 C824.29808,561.846651 824.49077,561.372738 824.756374,560.930065 C825.021977,560.487393 825.248518,560.141072 825.436003,559.891092 C825.623488,559.641112 825.894295,559.313019 826.248433,558.906802 C826.665066,558.427674 826.974932,558.05271 827.178041,557.781898 C827.381149,557.511087 827.576443,557.123103 827.763928,556.617936 C827.951413,556.112768 828.045154,555.573757 828.045154,555.000887 C828.045154,553.07396 827.360324,551.42568 825.990643,550.055999 C824.620962,548.686318 822.972682,548.001488 821.045755,548.001488 C819.118827,548.001488 817.470548,548.686318 816.100867,550.055999 C814.731186,551.42568 814.046356,553.07396 814.046356,555.000887 C814.046356,555.271698 813.947407,555.506051 813.749506,555.703952 C813.551606,555.901852 813.317253,556.000801 813.046442,556.000801 C812.77563,556.000801 812.541278,555.901852 812.343377,555.703952 C812.145476,555.506051 812.046528,555.271698 812.046528,555.000887 C812.046528,553.782236 812.283484,552.618285 812.757404,551.508999 C813.231324,550.399714 813.871888,549.441473 814.679114,548.634246 C815.48634,547.82702 816.444582,547.186456 817.553867,546.712536 C818.663152,546.238616 819.827103,546.00166 821.045755,546.00166 C822.264406,546.00166 823.428357,546.238616 824.537642,546.712536 C825.646928,547.186456 826.605169,547.82702 827.412396,548.634246 C828.219622,549.441473 828.860186,550.399714 829.334106,551.508999 C829.808026,552.618285 830.044982,553.782236 830.044982,555.000887 Z M821.998798,557.000715 C821.998798,557.271527 821.899849,557.505879 821.701948,557.70378 C821.504048,557.901681 821.269695,558.000629 820.998884,558.000629 C820.728072,558.000629 820.49372,557.901681 820.295819,557.70378 C820.097919,557.505879 819.99897,557.271527 819.99897,557.000715 C819.99897,556.729904 820.097919,556.495551 820.295819,556.297651 C820.49372,556.09975 820.728072,556.000801 820.998884,556.000801 C821.269695,556.000801 821.504048,556.09975 821.701948,556.297651 C821.899849,556.495551 821.998798,556.729904 821.998798,557.000715 Z M826.498412,555.000887 C826.498412,555.271698 826.399463,555.506051 826.201562,555.703952 C826.003661,555.901852 825.769309,556.000801 825.498497,556.000801 C825.227686,556.000801 824.993334,555.901852 824.795433,555.703952 C824.597532,555.506051 824.498583,555.271698 824.498583,555.000887 C824.498583,554.032215 824.15747,553.206774 823.475234,552.524537 C822.792997,551.842301 821.967556,551.501188 820.998884,551.501188 C820.040628,551.501188 819.21779,551.842301 818.530346,552.524537 C817.842901,553.206774 817.499184,554.032215 817.499184,555.000887 C817.499184,555.271698 817.400236,555.506051 817.202335,555.703952 C817.004434,555.901852 816.770082,556.000801 816.49927,556.000801 C816.228459,556.000801 815.994106,555.901852 815.796206,555.703952 C815.598305,555.506051 815.499356,555.271698 815.499356,555.000887 C815.499356,553.480177 816.035763,552.183426 817.108593,551.110596 C818.181423,550.037766 819.478173,549.501359 820.998884,549.501359 C822.519594,549.501359 823.816345,550.037766 824.889175,551.110596 C825.962005,552.183426 826.498412,553.480177 826.498412,555.000887 Z M832.654133,550.48565 C832.758291,550.746045 832.753083,551.001229 832.638509,551.251209 C832.523935,551.501189 832.336453,551.678255 832.076058,551.782413 C831.982315,551.824077 831.862535,551.844908 831.716714,551.844908 C831.518813,551.844908 831.333935,551.787622 831.162074,551.673048 C830.990213,551.558474 830.867828,551.402239 830.794918,551.204338 C830.086642,549.350321 828.920087,547.81401 827.295218,546.595359 C827.076486,546.428706 826.94629,546.209977 826.904627,545.939165 C826.862963,545.668354 826.925457,545.423585 827.092111,545.204853 C827.26918,544.986121 827.493117,544.855925 827.763928,544.814262 C828.034739,544.772598 828.279508,544.835092 828.49824,545.001746 C830.404336,546.428714 831.78962,548.256663 832.654133,550.48565 Z M835.935101,549.220133 C836.028844,549.480529 836.021032,549.735713 835.911666,549.985693 C835.8023,550.235672 835.617422,550.412739 835.357026,550.516897 C835.242452,550.55856 835.122672,550.579392 834.997682,550.579392 C834.539386,550.579392 834.226916,550.36587 834.060262,549.938822 C833.102006,547.459855 831.55528,545.413177 829.420036,543.798724 C829.190888,543.632071 829.058088,543.413342 829.021632,543.14253 C828.985177,542.871719 829.050275,542.626951 829.216928,542.408218 C829.383581,542.17907 829.60231,542.04627 829.873122,542.009815 C830.143933,541.97336 830.388701,542.038458 830.607434,542.205111 C833.055153,544.02788 834.831024,546.366197 835.935101,549.220133 Z" id="assistive-listening-systems---FontAwesome"></path>
        </g>
    </g>
</svg>