<svg xmlns="http://www.w3.org/2000/svg" viewBox="0 0 3173.07 497.47"><defs><style>.cls-1{fill:#3cf;}.cls-2{fill:#919d9d;}</style></defs><title>CANExchangeAsset 1</title><g id="Layer_2" data-name="Layer 2"><g id="Layer_1-2" data-name="Layer 1"><path class="cls-1" d="M1109.19,181.24q-13.59-17.79-37.22-27.83t-60.52-10a131.13,131.13,0,0,0-57,13.27A98.53,98.53,0,0,0,931,172.33a105.75,105.75,0,0,0-23.2,30.95,243.06,243.06,0,0,1-87.94,95.62V438.64a48.47,48.47,0,0,0,48.46,48.47h43.46V311.68q0-51.14,16.83-73.47T983,215.87q33,0,46,20.4t12.95,61.82V439.83a47.28,47.28,0,0,0,47.28,47.28h44.64V281.26q0-31.08-5.5-56.64T1109.19,181.24Z"/><path class="cls-1" d="M819.84,152.44V267.13a241.61,241.61,0,0,0,66.35-114.69Z"/><path class="cls-1" d="M300.25,383.94l-.21.24c-1.51,1.64-3.09,3.19-4.7,4.69q-5.13,5.28-9.93,10.87-5.3,7.18-11.11,14a242.05,242.05,0,0,1-115.77,74.83q31.1,8.75,67.18,8.92l1.5,0c2.51,0,5-.08,7.44-.15q38.39-1,70.89-12.8A181.43,181.43,0,0,0,367.68,447q26.55-24.59,42.73-59.55,14.4-31.12,19-68.93a241.77,241.77,0,0,0-129.21,65.45Z"/><path class="cls-1" d="M227.21,412.66q-34.32,0-58.25-13.27a111,111,0,0,1-38.85-35.27,152.88,152.88,0,0,1-21.68-49.53,235.27,235.27,0,0,1-6.8-56.64,253.11,253.11,0,0,1,6.8-58.91,166,166,0,0,1,10.14-29.85q1.23-2.73,2.55-5.38l.15-.3c.83-1.64,1.68-3.28,2.56-4.89.27-.49.56-1,.84-1.46.7-1.24,1.4-2.49,2.13-3.7,1.07-1.77,2.17-3.52,3.31-5.23A109.88,109.88,0,0,1,169,112.63q23.92-13.27,58.25-13.28c1.07,0,2.12,0,3.18.07h0a105.92,105.92,0,0,1,63.5,23.24,102.45,102.45,0,0,1,22.66,25.57h0l.18.29c12,19.45,32.76,31.75,55.61,31.75h54.25q-4.53-40.12-22-71.21a179.74,179.74,0,0,0-20.05-28.81A169.35,169.35,0,0,0,360.24,57a195.55,195.55,0,0,0-60.85-32,233.11,233.11,0,0,0-72.18-11q-53.09,0-95.48,18.77A215,215,0,0,0,92.89,54.92h-.1c-.66.48-1.3,1-2,1.47l-2.35,1.78c-1.64,1.25-3.25,2.53-4.85,3.83-.75.62-1.51,1.23-2.26,1.86-1.62,1.36-3.21,2.76-4.78,4.17-.66.59-1.34,1.17-2,1.77-2.18,2-4.32,4-6.41,6.16-.15.15-.32.29-.47.45q-3.87,3.91-7.52,8.06c-2,2.26-3.91,4.59-5.81,6.93-.65.81-1.31,1.6-2,2.42h0a234.16,234.16,0,0,0-36.9,68Q0,206.18,0,258q0,50.49,15.53,94.19T60.2,428.2a197,197,0,0,0,33.31,29.47A240.76,240.76,0,0,0,231.2,412.59C229.88,412.62,228.56,412.66,227.21,412.66Z"/><path class="cls-1" d="M463.81,356.52l0-.07Z"/><path class="cls-1" d="M462.28,360.8l.15-.47Z"/><path class="cls-1" d="M460,369.4c0-.17.08-.33.11-.5C460,369.07,460,369.23,460,369.4Z"/><path class="cls-1" d="M461,365.06c.05-.21.11-.41.17-.62C461.12,364.65,461.06,364.85,461,365.06Z"/><path class="cls-1" d="M461.18,364.44c.35-1.24.71-2.45,1.1-3.64C461.89,362,461.52,363.2,461.18,364.44Z"/><path class="cls-1" d="M460.06,368.9c.29-1.3.61-2.58.95-3.84C460.67,366.32,460.35,367.6,460.06,368.9Z"/><path class="cls-1" d="M458.41,378.27l0,0c.4-3.06.9-6,1.52-8.85C459.33,372.25,458.81,375.2,458.41,378.27Z"/><path class="cls-1" d="M462.43,360.33q.66-1.95,1.38-3.81Q463.09,358.38,462.43,360.33Z"/><path class="cls-1" d="M565.74,356.63a60.86,60.86,0,0,1,17.48-8.72,164.15,164.15,0,0,1,20.39-5.19q11-1.94,22-3.23a402.81,402.81,0,0,0,43-9.27l.42-.11c27.73-7.55,62.26-20.13,83.35-39.38a47.86,47.86,0,0,0,19.23-38.29v-13.9q0-19-5.3-33.36a62.35,62.35,0,0,0-8.29-15.56,93.43,93.43,0,0,0-35-28.81,156.52,156.52,0,0,0-47.23-13.91q-13-1.77-25.73-2.67c-2.13-.14-4.26-.28-6.39-.39q-9.56-.51-19-.51c-4.54,0-9.12.12-13.66.34a285.71,285.71,0,0,0-41.46,5.16,158,158,0,0,0-49.51,18.46,110.37,110.37,0,0,0-36.24,34.31Q469.6,223,467.67,255.34h0v0H525.5c17.32,0,32.87-9.93,40.9-25.28a39.72,39.72,0,0,1,11.33-13.57q13.59-10.19,36.1-11.44c2.08-.14,4.18-.2,6.37-.2,4.09,0,8.08.14,11.89.4s7.69.67,11.33,1.2a51.69,51.69,0,0,1,18.8,6.48,35.66,35.66,0,0,1,12.93,13.6,31.15,31.15,0,0,1,2.11,4.74Q680,239,680,250.15q.63,14.27-8.41,21.68T647,283.17A248.21,248.21,0,0,1,611.38,289q-20.07,1.94-40.79,5.16a384.23,384.23,0,0,0-41.09,8.76,121.64,121.64,0,0,0-24.66,9.52,106.18,106.18,0,0,0-11.61,7,84.2,84.2,0,0,0-25.89,29.45,70.25,70.25,0,0,0-3.5,7.59l0,.07q-.72,1.86-1.38,3.81l-.15.47c-.39,1.19-.75,2.4-1.1,3.64-.06.21-.12.41-.17.62-.34,1.26-.66,2.54-.95,3.84,0,.17-.08.33-.11.5-.62,2.84-1.12,5.79-1.52,8.85-.23,1.8-.44,3.63-.59,5.51-.34,3.87-.51,7.88-.51,12.06q0,25.92,8.73,44.69a84.45,84.45,0,0,0,24.29,31.08,102.42,102.42,0,0,0,36.24,18.12,162.88,162.88,0,0,0,39.83,5.75c1.52,0,3,.05,4.57.05,3.9,0,7.78-.11,11.62-.31l3.87-.25q6-.43,12-1.22a208.43,208.43,0,0,0,33.61-7.28A119.64,119.64,0,0,0,683.68,455l.14-.14.08-.08c0,.13,0,.26,0,.39a48.33,48.33,0,0,0,45.12,32h42.61V322.37a240.46,240.46,0,0,0-73.68,33l-1.39.94a48.37,48.37,0,0,0-20.26,33.17c.12-.95.25-1.89.41-2.8a72.92,72.92,0,0,1-7.1,17.28q-7.15,12.61-22,21.68c-6.26,3.84-14.18,6.42-23.71,7.81-2.82.42-5.76.74-8.86.94s-6.37.31-9.76.31h-.19c-1.57,0-3.15-.05-4.72-.11-1,0-2-.08-3-.17a.37.37,0,0,1-.25,0c-.72,0-1.44-.09-2.13-.14s-1.37-.1-2-.19l-3.53-.45c-.87-.12-1.74-.23-2.61-.39l-2.61-.45A52,52,0,0,1,566.09,426a34.74,34.74,0,0,1-12.32-13.3c-3-5.58-4.51-12.51-4.51-20.7,0-8.64,1.48-15.74,4.51-21.37v0A42,42,0,0,1,565.74,356.63Z"/><path class="cls-1" d="M1722.71,121.74c-.06.33-.1.66-.17,1C1722.61,122.4,1722.65,122.07,1722.71,121.74Z"/><path class="cls-1" d="M1723.38,113.81a48.59,48.59,0,0,1-.67,7.93A44,44,0,0,0,1723.38,113.81Z"/><path class="cls-1" d="M1722.54,122.73c0,.11,0,.23-.07.34C1722.49,123,1722.52,122.84,1722.54,122.73Z"/><path class="cls-2" d="M1417.94,263.31v35H1213.73V16.88h198.58v35H1253.93v86.43H1395v34.17h-141.1v90.85Z"/><path class="cls-2" d="M1608.49,298.28l-61.5-81.6-62.31,81.6h-43l84-108.94-80-104.12h43L1547.39,162l58.29-76.79h42.21l-80.4,104.12,84.82,108.94Z"/><path class="cls-2" d="M1722.06,286.63a103.06,103.06,0,0,1-40-38.8q-14.47-24.72-14.47-56.08t14.47-56.07a101.6,101.6,0,0,1,40-38.6q25.51-13.86,58.09-13.87,28.93,0,51.65,11.66A83.12,83.12,0,0,1,1867,128.64l-29.35,18.89a65.6,65.6,0,0,0-24.92-22.91,71.15,71.15,0,0,0-33-7.64q-20.9,0-37.58,9.25A65.82,65.82,0,0,0,1716,152.56q-9.45,17.08-9.45,39.19,0,22.53,9.45,39.6a65.7,65.7,0,0,0,26.13,26.33q16.66,9.26,37.58,9.25a71.15,71.15,0,0,0,33-7.64,65.6,65.6,0,0,0,24.92-22.91L1867,254.87a84.3,84.3,0,0,1-35.18,34q-22.71,11.87-51.65,11.86Q1747.59,300.7,1722.06,286.63Z"/><path class="cls-2" d="M2092.3,106.73q23.91,23.52,23.92,68.94V298.28h-38.59V180.1q0-31-14.87-46.64t-42.62-15.67q-31.35,0-49.44,18.29t-18.09,52.46V298.28H1914V0h38.59V115.37q12.06-15.27,31.56-23.71t43.61-8.45Q2068.38,83.21,2092.3,106.73Z"/><path class="cls-2" d="M2333.1,104.92q23.52,21.71,23.52,64.72V298.28H2320V270.14q-9.66,14.88-27.54,22.72t-42.41,7.84q-35.79,0-57.29-17.29T2171.3,238q0-28.12,20.5-45.22t65.12-17.09H2318V168q0-24.93-14.48-38.19t-42.61-13.27a112.88,112.88,0,0,0-37,6.23q-18.09,6.24-30.55,16.68l-16.08-28.94q16.47-13.26,39.39-20.3a164.86,164.86,0,0,1,48.64-7Q2309.58,83.21,2333.1,104.92ZM2294.71,261.1A56.37,56.37,0,0,0,2318,233.16V203.41h-59.5q-49.05,0-49,33,0,16.08,12.46,25.32t34.57,9.25Q2278.63,271,2294.71,261.1Z"/><path class="cls-2" d="M2606.46,106.73q23.91,23.52,23.92,68.94V298.28h-38.6V180.1q0-31-14.87-46.64t-42.61-15.67q-31.37,0-49.45,18.29t-18.09,52.46V298.28h-38.59V85.22h37v32.16q11.66-16.47,31.56-25.32t45.23-8.85Q2582.53,83.21,2606.46,106.73Z"/><path class="cls-2" d="M2907,85.22V269.34q0,55.88-27.74,82.61t-82.81,26.73a198.24,198.24,0,0,1-57.49-8.24q-27.35-8.24-44.22-23.51l18.49-29.75q14.88,12.85,36.79,20.3a139.66,139.66,0,0,0,45.22,7.44q37.39,0,55.28-17.69t17.89-53.87V256.48a85.38,85.38,0,0,1-33.57,24.72,111.77,111.77,0,0,1-43.22,8.24q-30.56,0-55.27-13.06a97.13,97.13,0,0,1-38.79-36.59q-14.09-23.5-14.07-53.66t14.07-53.67a95.75,95.75,0,0,1,38.79-36.38q24.72-12.87,55.27-12.87a113.06,113.06,0,0,1,44.83,8.85,83.33,83.33,0,0,1,34,26.13v-33Zm-73.37,161.61a65.37,65.37,0,0,0,26.13-24.72q9.45-15.88,9.45-36,0-31-20.5-50T2796,117q-32.57,0-53.07,19.1t-20.5,50q0,20.1,9.45,36A65.25,65.25,0,0,0,2758,246.83q16.68,8.85,38,8.84Q2816.89,255.67,2833.58,246.83Z"/><path class="cls-2" d="M3172.26,204.62H2999.4q3.61,28.14,24.73,45.22t52.46,17.09q38.19,0,61.5-25.73l21.31,24.92a93.3,93.3,0,0,1-36,25.73q-21.51,8.85-48,8.85-33.77,0-59.9-13.87a98.91,98.91,0,0,1-40.4-38.8q-14.26-24.92-14.27-56.28,0-30.94,13.87-55.87a99.36,99.36,0,0,1,38.19-38.8q24.32-13.86,54.87-13.87t54.47,13.87a97.41,97.41,0,0,1,37.39,38.8q13.47,24.93,13.47,57.08A109.9,109.9,0,0,1,3172.26,204.62Zm-151-72q-18.69,16.89-21.91,44.22h136.68q-3.21-26.92-21.91-44t-46.43-17.08Q3040,115.78,3021.31,132.66Z"/></g></g></svg>