<svg width="82" height="82" viewBox="0 0 82 82" fill="none"
  xmlns="http://www.w3.org/2000/svg">
  <g filter="url(#filter0_i_994_1583)">
    <rect x="1" y="1" width="80.0005" height="80" rx="8" fill="#3AC2FF"/>
    <path fill-rule="evenodd" clip-rule="evenodd" d="M17 55.0488C17 54.079 17.8588 53.2927 18.9183 53.2927H56.7656C57.825 53.2927 58.6839 54.079 58.6839 55.0488C58.6839 56.0187 57.825 56.8049 56.7656 56.8049H18.9183C17.8588 56.8049 17 56.0187 17 55.0488Z" fill="white"/>
    <path fill-rule="evenodd" clip-rule="evenodd" d="M17 45.6829C17 44.713 17.8306 43.9268 18.8553 43.9268H30.3025C31.3271 43.9268 32.1578 44.713 32.1578 45.6829C32.1578 46.6527 31.3271 47.439 30.3025 47.439H18.8553C17.8306 47.439 17 46.6527 17 45.6829Z" fill="white"/>
    <path fill-rule="evenodd" clip-rule="evenodd" d="M17 63.2439C17 62.274 17.8588 61.4878 18.9183 61.4878H56.7656C57.825 61.4878 58.6839 62.274 58.6839 63.2439C58.6839 64.2138 57.825 65 56.7656 65H18.9183C17.8588 65 17 64.2138 17 63.2439Z" fill="white"/>
    <path fill-rule="evenodd" clip-rule="evenodd" d="M56.5414 17C57.049 17 57.5358 17.194 57.8947 17.5394L64.4401 23.8383C65.1875 24.5576 65.1875 25.7238 64.4401 26.443L47.2345 43.0006C46.9034 43.3193 46.4623 43.5101 45.9949 43.5368L39.2389 43.9236C38.7025 43.9543 38.1773 43.7666 37.7918 43.4062C37.4063 43.0459 37.196 42.5462 37.2123 42.0293L37.4228 35.3436C37.4376 34.8747 37.6378 34.4288 37.9825 34.0971L55.1881 17.5394C55.547 17.194 56.0338 17 56.5414 17ZM41.2258 36.1853L41.1017 40.1269L45.0419 39.9013L60.3802 25.1407L56.5414 21.4465L41.2258 36.1853Z" fill="white"/>
    <rect x="1" y="1" width="80.0005" height="80" rx="8" stroke="url(#paint0_linear_994_1583)" stroke-linejoin="round"/>
  </g>
  <defs>
    <filter id="filter0_i_994_1583" x="0.5" y="0.5" width="81.0005" height="91" filterUnits="userSpaceOnUse" color-interpolation-filters="sRGB">
      <feFlood flood-opacity="0" result="BackgroundImageFix"/>
      <feBlend mode="normal" in="SourceGraphic" in2="BackgroundImageFix" result="shape"/>
      <feColorMatrix in="SourceAlpha" type="matrix" values="0 0 0 0 0 0 0 0 0 0 0 0 0 0 0 0 0 0 127 0" result="hardAlpha"/>
      <feOffset dy="10"/>
      <feGaussianBlur stdDeviation="7.5"/>
      <feComposite in2="hardAlpha" operator="arithmetic" k2="-1" k3="1"/>
      <feColorMatrix type="matrix" values="0 0 0 0 0.654167 0 0 0 0 0.892915 0 0 0 0 1 0 0 0 1 0"/>
      <feBlend mode="normal" in2="shape" result="effect1_innerShadow_994_1583"/>
    </filter>
    <linearGradient id="paint0_linear_994_1583" x1="41.0002" y1="1" x2="41.0002" y2="81" gradientUnits="userSpaceOnUse">
      <stop stop-color="#32CCFE"/>
      <stop offset="1" stop-color="#0078BF"/>
    </linearGradient>
  </defs>
</svg>
