<svg width="80" height="80" viewBox="0 0 80 80" fill="none"
    xmlns="http://www.w3.org/2000/svg">
    <g filter="url(#filter0_i_994_1627)">
        <rect width="80" height="80" rx="8" fill="url(#paint0_linear_994_1627)"/>
        <path fill-rule="evenodd" clip-rule="evenodd" d="M40.0117 23.7716C40.1137 23.0805 40.858 22.5902 41.6742 22.6766L44.2953 22.9541C45.1114 23.0405 45.6904 23.6708 45.5883 24.3619C45.4863 25.053 44.742 25.5433 43.9258 25.4569L41.3047 25.1794C40.4886 25.093 39.9096 24.4627 40.0117 23.7716Z" fill="#ECEDED"/>
        <path fill-rule="evenodd" clip-rule="evenodd" d="M40.9433 27.5048C41.0283 26.8136 41.6486 26.3234 42.3287 26.4098L44.513 26.6872C45.1931 26.7736 45.6756 27.4039 45.5905 28.0951C45.5055 28.7862 44.8853 29.2764 44.2051 29.19L42.0209 28.9126C41.3407 28.8262 40.8583 28.1959 40.9433 27.5048Z" fill="#ECEDED"/>
        <path fill-rule="evenodd" clip-rule="evenodd" d="M40.0118 31.104C40.1147 30.4129 40.8614 29.9231 41.6797 30.01L44.2929 30.2874C45.1111 30.3743 45.691 31.005 45.5882 31.696C45.4853 32.3871 44.7386 32.8769 43.9203 32.79L41.3071 32.5126C40.4889 32.4257 39.909 31.795 40.0118 31.104Z" fill="#ECEDED"/>
        <path fill-rule="evenodd" clip-rule="evenodd" d="M40.0089 34.4225C40.0901 33.4962 40.7076 32.8349 41.3882 32.9454L43.5725 33.3001C44.2531 33.4107 44.739 34.2512 44.6578 35.1775C44.5766 36.1038 43.959 36.7651 43.2784 36.6546L41.0942 36.2999C40.4136 36.1894 39.9277 35.3488 40.0089 34.4225Z" fill="#ECEDED"/>
        <path d="M45.481 40.3999C45.3426 40.3999 45.1903 40.3713 45.0519 40.2999C45.0103 40.2713 44.955 40.257 44.9134 40.2284C44.7196 40.257 44.4982 40.2284 44.3044 40.1284C43.7922 39.8711 43.5845 39.2281 43.8476 38.6993L47.4743 31.2255C47.4743 29.7822 48.1111 28.4532 49.3431 27.3814C50.2567 26.5955 51.1703 26.2096 51.2672 26.1811L53.0667 25.4666L52.6515 27.3957C52.5822 27.7101 52.5546 28.0531 52.5269 28.4103C52.4853 29.0248 52.43 29.6536 52.1531 30.2395C51.7932 30.9683 50.5335 31.9258 49.6753 32.5259L46.4223 39.7854C46.2423 40.1712 45.8686 40.3999 45.481 40.3999Z" fill="#ECEDED"/>
        <path fill-rule="evenodd" clip-rule="evenodd" d="M26 39.9513C26 39.1683 26.6465 38.5334 27.4439 38.5334H47.8894C48.6869 38.5334 49.3333 39.1683 49.3333 39.9513V54.0308C49.3333 57.3178 46.628 60.0001 43.269 60.0001H32.0788C28.7257 60.0001 26 57.3236 26 54.0308V39.9513ZM28.8878 41.3692V54.0308C28.8878 55.7574 30.3205 57.1644 32.0788 57.1644H43.269C45.0214 57.1644 46.4455 55.7632 46.4455 54.0308V41.3692H28.8878Z" fill="white"/>
        <path fill-rule="evenodd" clip-rule="evenodd" d="M46.5337 42.7242C46.5337 41.956 47.179 41.3333 47.9751 41.3333H50.2526C51.1775 41.3333 52.0672 41.6104 52.7558 42.1174C53.4437 42.6238 54.0004 43.4252 54.0004 44.4212V47.5787C54.0004 48.5746 53.4437 49.376 52.7558 49.8825C52.0672 50.3894 51.1775 50.6666 50.2526 50.6666H47.9751C47.179 50.6666 46.5337 50.0438 46.5337 49.2756C46.5337 48.5074 47.179 47.8847 47.9751 47.8847H50.2526C50.5961 47.8847 50.8596 47.7793 51.0071 47.6708C51.0802 47.6169 51.108 47.5782 51.1175 47.5605V44.4393C51.108 44.4216 51.0802 44.3829 51.0071 44.3291C50.8596 44.2205 50.5961 44.1152 50.2526 44.1152H47.9751C47.179 44.1152 46.5337 43.4924 46.5337 42.7242ZM51.1217 44.4502C51.1214 44.4502 51.1203 44.4479 51.1194 44.4431C51.1215 44.4477 51.122 44.4501 51.1217 44.4502ZM51.1217 47.5497C51.122 47.5497 51.1215 47.5522 51.1194 47.5568C51.1203 47.5519 51.1214 47.5496 51.1217 47.5497Z" fill="white"/>
        <path fill-rule="evenodd" clip-rule="evenodd" d="M36.8754 19.2527C36.9715 18.4681 37.6336 17.914 38.359 18.011L45.3646 18.9484C46.0938 19.046 46.6122 19.7645 46.5233 20.5542L44.3257 40.0658C44.2417 40.8124 43.6417 41.3637 42.9476 41.332L35.6757 41.0004C35.3021 40.9833 34.9522 40.7969 34.7118 40.4868C34.4713 40.1767 34.3623 39.7714 34.4115 39.3699L36.8754 19.2527ZM39.3424 21.0488L37.2436 38.1851L41.8306 38.3943L43.7182 21.6342L39.3424 21.0488Z" fill="white"/>
        <path fill-rule="evenodd" clip-rule="evenodd" d="M27.4195 22.7469C27.9407 22.5644 28.5198 22.6993 28.9082 23.0936L31.8299 26.0607C31.9665 26.1994 32.0736 26.3645 32.1448 26.5461L37.1003 39.1922C37.2701 39.6257 37.221 40.115 36.9683 40.5056C36.7157 40.8962 36.2907 41.1398 35.8278 41.1593L31.7316 41.3321C31.1093 41.3584 30.5415 40.9772 30.327 40.3891L26.0876 28.7656C26.0113 28.5565 25.9843 28.3325 26.0087 28.1111L26.467 23.9486C26.5278 23.3969 26.8983 22.9295 27.4195 22.7469ZM28.9839 27.2644L28.8928 28.0916L32.6562 38.4099L33.6977 38.366L29.5876 27.8775L28.9839 27.2644Z" fill="white"/>
        <rect x="0.5" y="0.5" width="79" height="79" rx="7.5" stroke="#F3B230" stroke-linejoin="round"/>
    </g>
    <defs>
        <filter id="filter0_i_994_1627" x="0" y="0" width="80" height="90" filterUnits="userSpaceOnUse" color-interpolation-filters="sRGB">
            <feFlood flood-opacity="0" result="BackgroundImageFix"/>
            <feBlend mode="normal" in="SourceGraphic" in2="BackgroundImageFix" result="shape"/>
            <feColorMatrix in="SourceAlpha" type="matrix" values="0 0 0 0 0 0 0 0 0 0 0 0 0 0 0 0 0 0 127 0" result="hardAlpha"/>
            <feOffset dy="10"/>
            <feGaussianBlur stdDeviation="7.5"/>
            <feComposite in2="hardAlpha" operator="arithmetic" k2="-1" k3="1"/>
            <feColorMatrix type="matrix" values="0 0 0 0 1 0 0 0 0 0.882417 0 0 0 0 0.654167 0 0 0 1 0"/>
            <feBlend mode="normal" in2="shape" result="effect1_innerShadow_994_1627"/>
        </filter>
        <linearGradient id="paint0_linear_994_1627" x1="40" y1="0" x2="40" y2="80" gradientUnits="userSpaceOnUse">
            <stop stop-color="#FFC600"/>
            <stop offset="1" stop-color="#FF6666"/>
        </linearGradient>
    </defs>
</svg>
