<svg width="80" height="80" viewBox="0 0 80 80" fill="none"
    xmlns="http://www.w3.org/2000/svg">
    <g filter="url(#filter0_i_994_1612)">
        <rect width="80" height="80" rx="8" fill="url(#paint0_linear_994_1612)"/>
        <path fill-rule="evenodd" clip-rule="evenodd" d="M20 29.189C20 28.2934 20.7446 27.5674 21.6632 27.5674H57.2557C58.1743 27.5674 58.9189 28.2934 58.9189 29.189C58.9189 30.0846 58.1743 30.8106 57.2557 30.8106H21.6632C20.7446 30.8106 20 30.0846 20 29.189Z" fill="#ECEDED"/>
        <path fill-rule="evenodd" clip-rule="evenodd" d="M20 38.9187C20 38.0231 20.7446 37.2971 21.6632 37.2971H57.2557C58.1743 37.2971 58.9189 38.0231 58.9189 38.9187C58.9189 39.8143 58.1743 40.5404 57.2557 40.5404H21.6632C20.7446 40.5404 20 39.8143 20 38.9187Z" fill="#ECEDED"/>
        <path fill-rule="evenodd" clip-rule="evenodd" d="M20 48.6485C20 47.7529 20.7446 47.0269 21.6632 47.0269H57.2557C58.1743 47.0269 58.9189 47.7529 58.9189 48.6485C58.9189 49.5441 58.1743 50.2701 57.2557 50.2701H21.6632C20.7446 50.2701 20 49.5441 20 48.6485Z" fill="#ECEDED"/>
        <path fill-rule="evenodd" clip-rule="evenodd" d="M25.9463 25.4053C26.8419 25.4053 27.568 26.1261 27.568 27.0154V31.3627C27.568 32.252 26.8419 32.9728 25.9463 32.9728C25.0507 32.9728 24.3247 32.252 24.3247 31.3627V27.0154C24.3247 26.1261 25.0507 25.4053 25.9463 25.4053Z" fill="white"/>
        <path fill-rule="evenodd" clip-rule="evenodd" d="M30.2701 25.4053C31.1657 25.4053 31.8917 26.1261 31.8917 27.0154V31.3627C31.8917 32.252 31.1657 32.9728 30.2701 32.9728C29.3745 32.9728 28.6484 32.252 28.6484 31.3627V27.0154C28.6484 26.1261 29.3745 25.4053 30.2701 25.4053Z" fill="white"/>
        <path fill-rule="evenodd" clip-rule="evenodd" d="M35.6758 25.4053C36.5714 25.4053 37.2974 26.1261 37.2974 27.0154V31.3627C37.2974 32.252 36.5714 32.9728 35.6758 32.9728C34.7802 32.9728 34.0542 32.252 34.0542 31.3627V27.0154C34.0542 26.1261 34.7802 25.4053 35.6758 25.4053Z" fill="white"/>
        <path fill-rule="evenodd" clip-rule="evenodd" d="M46.4864 35.135C47.382 35.135 48.108 35.8559 48.108 36.7451V41.0925C48.108 41.9817 47.382 42.7026 46.4864 42.7026C45.5908 42.7026 44.8647 41.9817 44.8647 41.0925V36.7451C44.8647 35.8559 45.5908 35.135 46.4864 35.135Z" fill="white"/>
        <path fill-rule="evenodd" clip-rule="evenodd" d="M51.8916 35.135C52.7872 35.135 53.5133 35.8559 53.5133 36.7451V41.0925C53.5133 41.9817 52.7872 42.7026 51.8916 42.7026C50.996 42.7026 50.27 41.9817 50.27 41.0925V36.7451C50.27 35.8559 50.996 35.135 51.8916 35.135Z" fill="white"/>
        <path fill-rule="evenodd" clip-rule="evenodd" d="M27.0269 43.7839C27.9225 43.7839 28.6485 44.5048 28.6485 45.3941V49.7414C28.6485 50.6306 27.9225 51.3515 27.0269 51.3515C26.1313 51.3515 25.4053 50.6306 25.4053 49.7414V45.3941C25.4053 44.5048 26.1313 43.7839 27.0269 43.7839Z" fill="white"/>
        <path fill-rule="evenodd" clip-rule="evenodd" d="M31.3516 43.7839C32.2472 43.7839 32.9732 44.5048 32.9732 45.3941V49.7414C32.9732 50.6306 32.2472 51.3515 31.3516 51.3515C30.456 51.3515 29.73 50.6306 29.73 49.7414V45.3941C29.73 44.5048 30.456 43.7839 31.3516 43.7839Z" fill="white"/>
        <path fill-rule="evenodd" clip-rule="evenodd" d="M41.0811 43.7839C41.9767 43.7839 42.7027 44.5048 42.7027 45.3941V49.7414C42.7027 50.6306 41.9767 51.3515 41.0811 51.3515C40.1855 51.3515 39.4595 50.6306 39.4595 49.7414V45.3941C39.4595 44.5048 40.1855 43.7839 41.0811 43.7839Z" fill="white"/>
        <path fill-rule="evenodd" clip-rule="evenodd" d="M21.6515 20C22.5636 20 23.3031 20.7194 23.3031 21.6069V55.7051H56.6969V21.6069C56.6969 20.7194 57.4364 20 58.3485 20C59.2606 20 60 20.7194 60 21.6069V57.312C60 58.1995 59.2606 58.9189 58.3485 58.9189H21.6515C20.7394 58.9189 20 58.1995 20 57.312V21.6069C20 20.7194 20.7394 20 21.6515 20Z" fill="white"/>
        <rect x="0.5" y="0.5" width="79" height="79" rx="7.5" stroke="#97DAA6" stroke-linejoin="round"/>
    </g>
    <defs>
        <filter id="filter0_i_994_1612" x="0" y="0" width="80" height="90" filterUnits="userSpaceOnUse" color-interpolation-filters="sRGB">
            <feFlood flood-opacity="0" result="BackgroundImageFix"/>
            <feBlend mode="normal" in="SourceGraphic" in2="BackgroundImageFix" result="shape"/>
            <feColorMatrix in="SourceAlpha" type="matrix" values="0 0 0 0 0 0 0 0 0 0 0 0 0 0 0 0 0 0 127 0" result="hardAlpha"/>
            <feOffset dy="10"/>
            <feGaussianBlur stdDeviation="7.5"/>
            <feComposite in2="hardAlpha" operator="arithmetic" k2="-1" k3="1"/>
            <feColorMatrix type="matrix" values="0 0 0 0 0.723333 0 0 0 0 1 0 0 0 0 0.654167 0 0 0 1 0"/>
            <feBlend mode="normal" in2="shape" result="effect1_innerShadow_994_1612"/>
        </filter>
        <linearGradient id="paint0_linear_994_1612" x1="40" y1="0" x2="40" y2="80" gradientUnits="userSpaceOnUse">
            <stop stop-color="#4FDCCB"/>
            <stop offset="1" stop-color="#FFC600"/>
        </linearGradient>
    </defs>
</svg>
