<svg width="80" height="80" viewBox="0 0 80 80" fill="none"
    xmlns="http://www.w3.org/2000/svg">
    <g filter="url(#filter0_i_994_1605)">
        <rect width="80" height="80" rx="8" fill="url(#paint0_linear_994_1605)"/>
        <path fill-rule="evenodd" clip-rule="evenodd" d="M48.9029 18.04C49.5858 18.2172 50 18.9313 49.8282 19.6352L44.0145 43.4479C43.9073 43.887 43.5883 44.2384 43.1703 44.3776C42.7523 44.5169 42.2941 44.4246 41.9578 44.1332L36.3854 39.3054L33.6716 49.9531C33.5769 50.3248 33.3291 50.6351 32.9935 50.8023C32.6578 50.9696 32.268 50.977 31.9266 50.8227L25.297 47.8264C24.6521 47.535 24.3586 46.7599 24.6413 46.0952C24.9241 45.4304 25.676 45.1279 26.3209 45.4193L31.5845 47.7982L34.431 36.6298C34.542 36.1942 34.8618 35.8475 35.2782 35.7112C35.6947 35.5749 36.1499 35.6679 36.4844 35.9577L42.039 40.7701L47.3554 18.9938C47.5273 18.2899 48.2201 17.8629 48.9029 18.04Z" fill="#ECEDED"/>
        <path fill-rule="evenodd" clip-rule="evenodd" d="M47.5776 18.1237C48.226 17.8699 49.0454 18.0185 49.4353 18.4607L52.1937 21.5897C52.5953 22.0452 52.3925 22.6419 51.7407 22.9226C51.0889 23.2032 50.235 23.0614 49.8334 22.6059L47.7725 20.2682L44.3305 21.6158C43.6626 21.8773 42.8179 21.7109 42.4437 21.2441C42.0695 20.7774 42.3076 20.187 42.9755 19.9255L47.5776 18.1237Z" fill="#ECEDED"/>
        <path fill-rule="evenodd" clip-rule="evenodd" d="M38.4667 28.1452C30.7834 28.1452 24.5451 34.3835 24.5451 42.0668C24.5451 49.75 30.7834 55.9883 38.4667 55.9883C46.1506 55.9883 52.3883 49.762 52.3883 42.0668C52.3883 38.626 51.1414 35.48 49.0776 33.0547C48.6222 32.5195 48.6868 31.7164 49.2221 31.2609C49.7573 30.8054 50.5604 30.8701 51.0159 31.4053C53.4569 34.2738 54.9333 37.9996 54.9333 42.0668C54.9333 51.169 47.5548 58.5334 38.4667 58.5334C29.3778 58.5334 22 51.1556 22 42.0668C22 32.9779 29.3778 25.6001 38.4667 25.6001C39.5701 25.6001 40.6452 25.7105 41.6908 25.9169C42.3803 26.053 42.829 26.7222 42.6929 27.4117C42.5568 28.1012 41.8875 28.5499 41.198 28.4138C40.3093 28.2384 39.3993 28.1452 38.4667 28.1452Z" fill="white"/>
        <path fill-rule="evenodd" clip-rule="evenodd" d="M50.6959 48.7817C51.1541 48.2635 51.8878 48.2741 52.3347 48.8055L59.6704 57.5277C59.8951 57.7948 60.0139 58.1583 59.9983 58.531C59.9828 58.9037 59.8343 59.2522 59.5884 59.4929L55.7177 63.2828C55.4801 63.5155 55.1718 63.6276 54.8621 63.5941C54.5525 63.5605 54.2675 63.3839 54.0712 63.1042L47.593 53.8713C47.1891 53.2956 47.2641 52.4491 47.7605 51.9806C48.257 51.5122 48.9869 51.5991 49.3908 52.1748L55.1242 60.3462L57.1418 58.3707L50.6754 50.6822C50.2285 50.1509 50.2377 49.3 50.6959 48.7817Z" fill="white"/>
        <rect x="0.5" y="0.5" width="79" height="79" rx="7.5" stroke="#FF9077" stroke-linejoin="round"/>
    </g>
    <defs>
        <filter id="filter0_i_994_1605" x="0" y="0" width="80" height="90" filterUnits="userSpaceOnUse" color-interpolation-filters="sRGB">
            <feFlood flood-opacity="0" result="BackgroundImageFix"/>
            <feBlend mode="normal" in="SourceGraphic" in2="BackgroundImageFix" result="shape"/>
            <feColorMatrix in="SourceAlpha" type="matrix" values="0 0 0 0 0 0 0 0 0 0 0 0 0 0 0 0 0 0 127 0" result="hardAlpha"/>
            <feOffset dy="10"/>
            <feGaussianBlur stdDeviation="7.5"/>
            <feComposite in2="hardAlpha" operator="arithmetic" k2="-1" k3="1"/>
            <feColorMatrix type="matrix" values="0 0 0 0 1 0 0 0 0 0.654167 0 0 0 0 0.799417 0 0 0 1 0"/>
            <feBlend mode="normal" in2="shape" result="effect1_innerShadow_994_1605"/>
        </filter>
        <linearGradient id="paint0_linear_994_1605" x1="40" y1="0" x2="40" y2="80" gradientUnits="userSpaceOnUse">
            <stop stop-color="#FF6666"/>
            <stop offset="1" stop-color="#F8A4D8"/>
        </linearGradient>
    </defs>
</svg>
