<svg width="80" height="80" viewBox="0 0 80 80" fill="none"
    xmlns="http://www.w3.org/2000/svg">
    <g filter="url(#filter0_i_994_1589)">
        <rect width="80" height="80" rx="8" fill="url(#paint0_linear_994_1589)"/>
        <path d="M21.9053 20.8577V30.3829H60.0063V20.8577H21.9053V20.8577ZM27.5067 27.6614C26.3267 27.6614 25.36 26.7361 25.36 25.6067C25.36 24.4773 26.3267 23.552 27.5067 23.552C28.6867 23.552 29.6534 24.4773 29.6534 25.6067C29.6534 26.7361 28.6867 27.6614 27.5067 27.6614Z" fill="#F6F6F6"/>
        <path fill-rule="evenodd" clip-rule="evenodd" d="M26.0095 20.871C24.2566 20.871 22.828 22.3126 22.828 24.1008V54.7628C22.828 56.5424 24.2481 57.9927 26.0095 57.9927H55.9016C57.6602 57.9927 59.0831 56.5453 59.0831 54.7485V24.1008C59.0831 22.3212 57.663 20.871 55.9016 20.871H26.0095ZM20 24.1008C20 20.7213 22.7004 18 26.0095 18H55.9016C59.2306 18 61.9111 20.7414 61.9111 24.1008V54.7485C61.9111 58.1194 59.2334 60.8636 55.9016 60.8636H26.0095C22.6805 60.8636 20 58.1223 20 54.7628V24.1008Z" fill="white"/>
        <path fill-rule="evenodd" clip-rule="evenodd" d="M29.1406 36.5256C29.7051 35.9553 30.6203 35.9553 31.1848 36.5256L37.6747 43.0816C38.2387 43.6514 38.2392 44.575 37.6758 45.1454L31.0413 51.862C30.4775 52.4329 29.5623 52.4339 28.9972 51.8643C28.4321 51.2947 28.4311 50.3702 28.995 49.7993L34.6096 44.1152L29.1406 38.5905C28.5762 38.0203 28.5762 37.0958 29.1406 36.5256Z" fill="white"/>
        <path fill-rule="evenodd" clip-rule="evenodd" d="M38.0981 51.8145C38.0981 51.0254 38.7509 50.3857 39.5561 50.3857H50.9281C51.7333 50.3857 52.386 51.0254 52.386 51.8145C52.386 52.6036 51.7333 53.2433 50.9281 53.2433H39.5561C38.7509 53.2433 38.0981 52.6036 38.0981 51.8145Z" fill="white"/>
        <path fill-rule="evenodd" clip-rule="evenodd" d="M27.6203 24.1844C26.8272 24.1844 26.1844 24.8272 26.1844 25.6203C26.1844 26.4133 26.8272 27.0562 27.6203 27.0562C28.4133 27.0562 29.0562 26.4133 29.0562 25.6203C29.0562 24.8272 28.4133 24.1844 27.6203 24.1844ZM24.7627 25.6203C24.7627 24.0421 26.0421 22.7627 27.6203 22.7627C29.1985 22.7627 30.4778 24.0421 30.4778 25.6203C30.4778 27.1985 29.1985 28.4778 27.6203 28.4778C26.0421 28.4778 24.7627 27.1985 24.7627 25.6203Z" fill="white"/>
        <rect x="0.5" y="0.5" width="79" height="79" rx="7.5" stroke="#97DAA6" stroke-linejoin="round"/>
    </g>
    <defs>
        <filter id="filter0_i_994_1589" x="0" y="0" width="80" height="90" filterUnits="userSpaceOnUse" color-interpolation-filters="sRGB">
            <feFlood flood-opacity="0" result="BackgroundImageFix"/>
            <feBlend mode="normal" in="SourceGraphic" in2="BackgroundImageFix" result="shape"/>
            <feColorMatrix in="SourceAlpha" type="matrix" values="0 0 0 0 0 0 0 0 0 0 0 0 0 0 0 0 0 0 127 0" result="hardAlpha"/>
            <feOffset dy="10"/>
            <feGaussianBlur stdDeviation="7.5"/>
            <feComposite in2="hardAlpha" operator="arithmetic" k2="-1" k3="1"/>
            <feColorMatrix type="matrix" values="0 0 0 0 0.654167 0 0 0 0 1 0 0 0 0 0.81325 0 0 0 1 0"/>
            <feBlend mode="normal" in2="shape" result="effect1_innerShadow_994_1589"/>
        </filter>
        <linearGradient id="paint0_linear_994_1589" x1="40" y1="0" x2="40" y2="80" gradientUnits="userSpaceOnUse">
            <stop stop-color="#4FDCCB"/>
            <stop offset="1" stop-color="#32CCFE"/>
        </linearGradient>
    </defs>
</svg>
