<svg width="80" height="80" viewBox="0 0 80 80" fill="none"
    xmlns="http://www.w3.org/2000/svg">
    <g filter="url(#filter0_i_994_1597)">
        <rect width="80" height="80" rx="8" fill="url(#paint0_linear_994_1597)"/>
        <path d="M35.1712 54.5472C35.1712 52.0601 33.0885 50.0488 30.5129 50.0488H22.6588C20.0832 50.0488 18.0005 52.0601 18.0005 54.5472V56.2821C18.0005 58.7693 20.0832 60.7805 22.6588 60.7805H30.497C33.0726 60.7805 35.1553 58.7693 35.1553 56.2821V54.5472H35.1712ZM22.325 56.6659C21.53 56.712 20.8464 56.1439 20.7987 55.3763C20.751 54.6086 21.3392 53.9485 22.1342 53.9024C22.9291 53.8564 23.6128 54.4244 23.6605 55.1921C23.7082 55.9444 23.1199 56.6045 22.325 56.6659ZM26.6336 56.6659C25.8386 56.712 25.155 56.1439 25.1073 55.3763C25.0596 54.6086 25.6478 53.9485 26.4428 53.9024C27.2377 53.8564 27.9214 54.4244 27.9691 55.1921C28.0167 55.9597 27.4285 56.6045 26.6336 56.6659ZM30.9421 56.6659C30.1472 56.712 29.4635 56.1439 29.4158 55.3763C29.3681 54.6086 29.9564 53.9485 30.7513 53.9024C31.5463 53.8564 32.2299 54.4244 32.2776 55.1921C32.3253 55.9444 31.7371 56.6045 30.9421 56.6659Z" fill="#ECEDED"/>
        <path fill-rule="evenodd" clip-rule="evenodd" d="M25.5127 36.4278C25.5127 27.4229 32.4183 20 41.0737 20C49.7279 20 56.6346 27.4052 56.6346 36.4278V45.1782C56.6346 46.0901 55.9089 46.8293 55.0137 46.8293C54.1185 46.8293 53.3928 46.0901 53.3928 45.1782V36.4278C53.3928 29.1051 47.8183 23.3021 41.0737 23.3021C34.3302 23.3021 28.7546 29.1204 28.7546 36.4278V45.1617C28.7546 46.0736 28.0288 46.8128 27.1336 46.8128C26.2384 46.8128 25.5127 46.0736 25.5127 45.1617V36.4278Z" fill="white"/>
        <path fill-rule="evenodd" clip-rule="evenodd" d="M55.0987 33.3965C55.2569 33.2175 55.6375 32.8779 56.2335 32.8779H57.7663C58.9556 32.8779 60.1389 33.1677 60.9799 34.1198C61.7921 35.0394 62.0005 36.2631 62.0005 37.4238V40.8254C62.0005 42.0008 61.7855 43.3811 61.203 44.5294C60.6007 45.7166 59.4871 46.8291 57.7663 46.8291H56.2335C55.6375 46.8291 55.2569 46.4896 55.0987 46.3106C54.9393 46.1302 54.8564 45.9528 54.8214 45.8724C54.7469 45.701 54.7119 45.5434 54.6969 45.4717C54.6615 45.3027 54.6394 45.1146 54.6238 44.9519C54.5907 44.6081 54.5656 44.1478 54.5463 43.6321C54.5074 42.5907 54.4883 41.2169 54.4883 39.8535C54.4883 38.4902 54.5074 37.1164 54.5463 36.075C54.5656 35.5592 54.5907 35.099 54.6238 34.7552C54.6394 34.5924 54.6615 34.4044 54.6969 34.2354C54.7119 34.1637 54.7469 34.0061 54.8214 33.8347C54.8564 33.7542 54.9393 33.5769 55.0987 33.3965ZM57.5865 43.694H57.7663C58.0033 43.694 58.248 43.5996 58.5145 43.0742C58.8008 42.5099 58.9652 41.6722 58.9652 40.8254V37.4238C58.9652 36.5624 58.7942 36.2969 58.7376 36.2329C58.7098 36.2014 58.5348 36.013 57.7663 36.013H57.5865C57.5841 36.0722 57.5816 36.1332 57.5793 36.196C57.5424 37.1826 57.5235 38.5128 57.5235 39.8535C57.5235 41.1942 57.5424 42.5245 57.5793 43.511C57.5816 43.5739 57.5841 43.6349 57.5865 43.694Z" fill="white"/>
        <path fill-rule="evenodd" clip-rule="evenodd" d="M23.971 36.3417C23.8315 36.4551 23.6153 36.7194 23.6153 37.4238V40.8254C23.6153 41.567 23.8627 42.3777 24.2729 42.9583C24.5897 43.4069 24.9075 43.6043 25.1922 43.6687C25.1946 43.6175 25.197 43.5649 25.1993 43.511C25.2415 42.5245 25.263 41.1942 25.263 39.8535C25.263 38.5128 25.2415 37.1826 25.1993 36.196C25.1967 36.1348 25.194 36.0753 25.1912 36.0176C24.4735 36.0471 24.1274 36.2146 23.971 36.3417ZM21.651 34.011C22.6886 33.1673 24.0559 32.8779 25.4191 32.8779H26.7373C27.4184 32.8779 27.8534 33.2175 28.0343 33.3965C28.2164 33.5769 28.3112 33.7542 28.3511 33.8347C28.4363 34.0061 28.4763 34.1637 28.4934 34.2354C28.5339 34.4044 28.5591 34.5924 28.577 34.7552C28.6148 35.099 28.6435 35.5592 28.6655 36.075C28.71 37.1164 28.7319 38.4902 28.7319 39.8535C28.7319 41.2169 28.71 42.5907 28.6655 43.6321C28.6435 44.1478 28.6148 44.6081 28.577 44.9519C28.5591 45.1146 28.5339 45.3027 28.4934 45.4717C28.4763 45.5434 28.4363 45.701 28.3511 45.8724C28.3112 45.9528 28.2164 46.1302 28.0343 46.3106C27.8534 46.4896 27.4184 46.8291 26.7373 46.8291H25.4191C23.5183 46.8291 22.1547 45.7858 21.3491 44.6453C20.5495 43.5134 20.1465 42.1059 20.1465 40.8254V37.4238C20.1465 36.1061 20.5807 34.8812 21.651 34.011Z" fill="white"/>
        <path fill-rule="evenodd" clip-rule="evenodd" d="M54.9706 35.0244C55.8895 35.0244 56.6345 35.7646 56.6345 36.6776V45.4227C56.6345 49.6555 55.8994 53.4869 53.9028 56.2971C51.8302 59.2141 48.5817 60.7805 44.189 60.7805H38.9812C38.0623 60.7805 37.3174 60.0404 37.3174 59.1274V57.5073C37.3174 56.5943 38.0623 55.8541 38.9812 55.8541H44.0393C44.9195 55.8541 45.6401 56.5333 45.6992 57.3929C48.3332 57.0944 50.0462 55.9922 51.1842 54.3903C52.6026 52.394 53.3068 49.3731 53.3068 45.4227V36.6776C53.3068 35.7646 54.0517 35.0244 54.9706 35.0244Z" fill="white"/>
        <rect x="0.5" y="0.5" width="79" height="79" rx="7.5" stroke="url(#paint1_linear_994_1597)" stroke-linejoin="round"/>
    </g>
    <defs>
        <filter id="filter0_i_994_1597" x="0" y="0" width="80" height="90" filterUnits="userSpaceOnUse" color-interpolation-filters="sRGB">
            <feFlood flood-opacity="0" result="BackgroundImageFix"/>
            <feBlend mode="normal" in="SourceGraphic" in2="BackgroundImageFix" result="shape"/>
            <feColorMatrix in="SourceAlpha" type="matrix" values="0 0 0 0 0 0 0 0 0 0 0 0 0 0 0 0 0 0 127 0" result="hardAlpha"/>
            <feOffset dy="10"/>
            <feGaussianBlur stdDeviation="7.5"/>
            <feComposite in2="hardAlpha" operator="arithmetic" k2="-1" k3="1"/>
            <feColorMatrix type="matrix" values="0 0 0 0 0.993083 0 0 0 0 0.654167 0 0 0 0 1 0 0 0 1 0"/>
            <feBlend mode="normal" in2="shape" result="effect1_innerShadow_994_1597"/>
        </filter>
        <linearGradient id="paint0_linear_994_1597" x1="40" y1="0" x2="40" y2="80" gradientUnits="userSpaceOnUse">
            <stop stop-color="#F8A4D8"/>
            <stop offset="1" stop-color="#32CCFE"/>
        </linearGradient>
        <linearGradient id="paint1_linear_994_1597" x1="40" y1="0" x2="40" y2="80" gradientUnits="userSpaceOnUse">
            <stop stop-color="#4FDCCB"/>
            <stop offset="1" stop-color="#32CCFE"/>
        </linearGradient>
    </defs>
</svg>
