<svg width="80" height="80" viewBox="0 0 80 80" fill="none"
  xmlns="http://www.w3.org/2000/svg">
  <g filter="url(#filter0_i_449_2194)">
    <rect width="80" height="80" rx="8" fill="#F8B200"/>
    <path d="M22.1255 35.2898C21.7349 34.8995 21.1019 34.8996 20.7115 35.29L16.707 39.2948C16.3165 39.6853 16.3165 40.3185 16.707 40.709L20.7115 44.7138C21.1019 45.1042 21.7349 45.1043 22.1255 44.714L26.1328 40.7092C26.5236 40.3187 26.5236 39.6852 26.1328 39.2946L22.1255 35.2898ZM39.293 27.5482C39.6835 27.1578 40.3165 27.1578 40.707 27.5482L48.5837 35.4223C48.9742 35.8127 49.6073 35.8126 49.9978 35.4221L54.0022 31.4174C54.3926 31.0269 54.3926 30.3938 54.0022 30.0033L40.7071 16.7072C40.3166 16.3166 39.6834 16.3166 39.2929 16.7072L25.9978 30.0033C25.6074 30.3938 25.6074 31.0269 25.9978 31.4174L30.0022 35.4221C30.3927 35.8126 31.0258 35.8127 31.4163 35.4223L39.293 27.5482ZM59.2849 35.2898C58.8944 34.8995 58.2614 34.8996 57.8709 35.29L53.8665 39.2948C53.476 39.6853 53.476 40.3185 53.8665 40.709L57.8709 44.7138C58.2614 45.1042 58.8944 45.1043 59.285 44.714L63.2922 40.7092C63.683 40.3187 63.683 39.6852 63.2922 39.2946L59.2849 35.2898ZM40.7071 52.4552C40.3166 52.8458 39.6834 52.8458 39.2929 52.4552L31.4163 44.578C31.0258 44.1875 30.3926 44.1875 30.002 44.578L25.9978 48.5826C25.6073 48.9731 25.6074 49.6062 25.9978 49.9967L39.2929 63.2928C39.6834 63.6834 40.3166 63.6834 40.7071 63.2928L54.0022 49.9967C54.3926 49.6062 54.3926 48.9731 54.0022 48.5826L49.9979 44.578C49.6074 44.1875 48.9742 44.1875 48.5837 44.578L40.7071 52.4552ZM39.2929 44.7135C39.6834 45.1041 40.3166 45.1041 40.7071 44.7135L44.7113 40.709C45.1018 40.3185 45.1018 39.6853 44.7113 39.2948L40.7071 35.2903C40.3166 34.8997 39.6834 34.8997 39.2929 35.2903L35.2887 39.2948C34.8982 39.6853 34.8982 40.3185 35.2887 40.709L39.2929 44.7135Z" fill="white"/>
    <rect x="0.5" y="0.5" width="79" height="79" rx="7.5" stroke="#F0A205"/>
  </g>
  <defs>
    <filter id="filter0_i_449_2194" x="0" y="0" width="80" height="90" filterUnits="userSpaceOnUse" color-interpolation-filters="sRGB">
      <feFlood flood-opacity="0" result="BackgroundImageFix"/>
      <feBlend mode="normal" in="SourceGraphic" in2="BackgroundImageFix" result="shape"/>
      <feColorMatrix in="SourceAlpha" type="matrix" values="0 0 0 0 0 0 0 0 0 0 0 0 0 0 0 0 0 0 127 0" result="hardAlpha"/>
      <feOffset dy="10"/>
      <feGaussianBlur stdDeviation="10"/>
      <feComposite in2="hardAlpha" operator="arithmetic" k2="-1" k3="1"/>
      <feColorMatrix type="matrix" values="0 0 0 0 1 0 0 0 0 0.950667 0 0 0 0 0.691667 0 0 0 1 0"/>
      <feBlend mode="normal" in2="shape" result="effect1_innerShadow_449_2194"/>
    </filter>
  </defs>
</svg>
