<svg width="80" height="80" viewBox="0 0 80 80" fill="none"
  xmlns="http://www.w3.org/2000/svg">
  <g filter="url(#filter0_i_449_2222)">
    <rect width="80" height="80" rx="8" fill="#4ED7BE"/>
    <path fill-rule="evenodd" clip-rule="evenodd" d="M23.7574 19.7574C24.8826 18.6321 26.4087 18 28 18H44C44.5304 18 45.0391 18.2107 45.4142 18.5858L57.4142 30.5858C57.7893 30.9609 58 31.4696 58 32V56C58 57.5913 57.3679 59.1174 56.2426 60.2426C55.1174 61.3679 53.5913 62 52 62H28C26.4087 62 24.8826 61.3679 23.7574 60.2426C22.6321 59.1174 22 57.5913 22 56V24C22 22.4087 22.6321 20.8826 23.7574 19.7574ZM28 22C27.4696 22 26.9609 22.2107 26.5858 22.5858C26.2107 22.9609 26 23.4696 26 24V56C26 56.5304 26.2107 57.0391 26.5858 57.4142C26.9609 57.7893 27.4696 58 28 58H52C52.5304 58 53.0391 57.7893 53.4142 57.4142C53.7893 57.0391 54 56.5304 54 56V32.8284L43.1716 22H28Z" fill="white"/>
    <path fill-rule="evenodd" clip-rule="evenodd" d="M30 50C30 48.8954 30.8954 48 32 48H48C49.1046 48 50 48.8954 50 50C50 51.1046 49.1046 52 48 52H32C30.8954 52 30 51.1046 30 50Z" fill="white"/>
    <path fill-rule="evenodd" clip-rule="evenodd" d="M30 42C30 40.8954 30.8954 40 32 40H48C49.1046 40 50 40.8954 50 42C50 43.1046 49.1046 44 48 44H32C30.8954 44 30 43.1046 30 42Z" fill="white"/>
    <path fill-rule="evenodd" clip-rule="evenodd" d="M30 34C30 32.8954 30.8954 32 32 32H36C37.1046 32 38 32.8954 38 34C38 35.1046 37.1046 36 36 36H32C30.8954 36 30 35.1046 30 34Z" fill="white"/>
    <path fill-rule="evenodd" clip-rule="evenodd" d="M44 18C45.1046 18 46 18.8954 46 20V30H56C57.1046 30 58 30.8954 58 32C58 33.1046 57.1046 34 56 34H44C42.8954 34 42 33.1046 42 32V20C42 18.8954 42.8954 18 44 18Z" fill="white"/>
  </g>
  <defs>
    <filter id="filter0_i_449_2222" x="0" y="0" width="80" height="90" filterUnits="userSpaceOnUse" color-interpolation-filters="sRGB">
      <feFlood flood-opacity="0" result="BackgroundImageFix"/>
      <feBlend mode="normal" in="SourceGraphic" in2="BackgroundImageFix" result="shape"/>
      <feColorMatrix in="SourceAlpha" type="matrix" values="0 0 0 0 0 0 0 0 0 0 0 0 0 0 0 0 0 0 127 0" result="hardAlpha"/>
      <feOffset dy="10"/>
      <feGaussianBlur stdDeviation="7.5"/>
      <feComposite in2="hardAlpha" operator="arithmetic" k2="-1" k3="1"/>
      <feColorMatrix type="matrix" values="0 0 0 0 0.4625 0 0 0 0 1 0 0 0 0 0.8065 0 0 0 1 0"/>
      <feBlend mode="normal" in2="shape" result="effect1_innerShadow_449_2222"/>
    </filter>
  </defs>
</svg>
