<svg width="80" height="80" viewBox="0 0 80 80" fill="none"
  xmlns="http://www.w3.org/2000/svg">
  <g filter="url(#filter0_i_449_2207)">
    <rect width="80" height="80" rx="8" fill="url(#paint0_linear_449_2207)"/>
    <path fill-rule="evenodd" clip-rule="evenodd" d="M40 16C41.1046 16 42 16.8954 42 18V62C42 63.1046 41.1046 64 40 64C38.8954 64 38 63.1046 38 62V18C38 16.8954 38.8954 16 40 16Z" fill="white"/>
    <path fill-rule="evenodd" clip-rule="evenodd" d="M28.636 26.636C30.3239 24.9482 32.6131 24 35 24H50C51.1046 24 52 24.8954 52 26C52 27.1046 51.1046 28 50 28H35C33.6739 28 32.4021 28.5268 31.4645 29.4645C30.5268 30.4021 30 31.6739 30 33C30 34.3261 30.5268 35.5979 31.4645 36.5355C32.4021 37.4732 33.6739 38 35 38H45C47.3869 38 49.6761 38.9482 51.364 40.636C53.0518 42.3239 54 44.6131 54 47C54 49.3869 53.0518 51.6761 51.364 53.364C49.6761 55.0518 47.3869 56 45 56H28C26.8954 56 26 55.1046 26 54C26 52.8954 26.8954 52 28 52H45C46.3261 52 47.5979 51.4732 48.5355 50.5355C49.4732 49.5979 50 48.3261 50 47C50 45.6739 49.4732 44.4021 48.5355 43.4645C47.5979 42.5268 46.3261 42 45 42H35C32.6131 42 30.3239 41.0518 28.636 39.364C26.9482 37.6761 26 35.3869 26 33C26 30.6131 26.9482 28.3239 28.636 26.636Z" fill="white"/>
  </g>
  <defs>
    <filter id="filter0_i_449_2207" x="0" y="0" width="80" height="90" filterUnits="userSpaceOnUse" color-interpolation-filters="sRGB">
      <feFlood flood-opacity="0" result="BackgroundImageFix"/>
      <feBlend mode="normal" in="SourceGraphic" in2="BackgroundImageFix" result="shape"/>
      <feColorMatrix in="SourceAlpha" type="matrix" values="0 0 0 0 0 0 0 0 0 0 0 0 0 0 0 0 0 0 127 0" result="hardAlpha"/>
      <feOffset dy="10"/>
      <feGaussianBlur stdDeviation="7.5"/>
      <feComposite in2="hardAlpha" operator="arithmetic" k2="-1" k3="1"/>
      <feColorMatrix type="matrix" values="0 0 0 0 1 0 0 0 0 0.882417 0 0 0 0 0.654167 0 0 0 1 0"/>
      <feBlend mode="normal" in2="shape" result="effect1_innerShadow_449_2207"/>
    </filter>
    <linearGradient id="paint0_linear_449_2207" x1="40" y1="0" x2="40" y2="80" gradientUnits="userSpaceOnUse">
      <stop stop-color="#FFC600"/>
      <stop offset="1" stop-color="#FF6666"/>
    </linearGradient>
  </defs>
</svg>
