<svg width="40" height="40" viewBox="0 0 40 40" fill="none"
  xmlns="http://www.w3.org/2000/svg">
  <path fill-rule="evenodd" clip-rule="evenodd" d="M3.33301 30C3.33301 29.0795 4.0792 28.3333 4.99967 28.3333H34.9997C35.9202 28.3333 36.6663 29.0795 36.6663 30C36.6663 30.9205 35.9202 31.6667 34.9997 31.6667H4.99967C4.0792 31.6667 3.33301 30.9205 3.33301 30Z" fill="#22262D"/>
  <path fill-rule="evenodd" clip-rule="evenodd" d="M3.33301 20C3.33301 19.0795 4.0792 18.3333 4.99967 18.3333H34.9997C35.9202 18.3333 36.6663 19.0795 36.6663 20C36.6663 20.9205 35.9202 21.6667 34.9997 21.6667H4.99967C4.0792 21.6667 3.33301 20.9205 3.33301 20Z" fill="#22262D"/>
  <path fill-rule="evenodd" clip-rule="evenodd" d="M3.33301 10C3.33301 9.07954 4.0792 8.33334 4.99967 8.33334H34.9997C35.9202 8.33334 36.6663 9.07954 36.6663 10C36.6663 10.9205 35.9202 11.6667 34.9997 11.6667H4.99967C4.0792 11.6667 3.33301 10.9205 3.33301 10Z" fill="#22262D"/>
</svg>
