<svg width="80" height="80" viewBox="0 0 80 80" fill="none"
  xmlns="http://www.w3.org/2000/svg">
  <g filter="url(#filter0_i_449_2215)">
    <rect width="80" height="80" rx="8" fill="#F8B200"/>
    <path d="M55.7398 33.2002C55.5907 32.8576 55.3488 32.5637 55.0412 32.3516C54.7337 32.1395 54.3729 32.0178 53.9998 32.0002H44.8398L47.3798 22.5202C47.4606 22.2235 47.4721 21.9122 47.4131 21.6105C47.3541 21.3087 47.2264 21.0246 47.0398 20.7802C46.8534 20.5382 46.6142 20.342 46.3403 20.2068C46.0664 20.0716 45.7652 20.0009 45.4598 20.0002H31.4598C31.0082 19.9847 30.5648 20.1226 30.2016 20.3913C29.8384 20.6601 29.577 21.0439 29.4598 21.4802L24.0998 41.4802C24.0189 41.7768 24.0075 42.0882 24.0664 42.3899C24.1254 42.6917 24.2531 42.9758 24.4398 43.2202C24.6281 43.4649 24.8706 43.6627 25.1482 43.798C25.4258 43.9333 25.7309 44.0025 26.0398 44.0002H33.7798L30.1598 57.4802C30.0411 57.9149 30.0728 58.3769 30.2496 58.7913C30.4263 59.2057 30.7379 59.5484 31.1337 59.7636C31.5295 59.9789 31.9864 60.0542 32.4304 59.9774C32.8743 59.9005 33.2793 59.676 33.5798 59.3402L55.3798 35.3402C55.6393 35.056 55.8114 34.7029 55.8752 34.3233C55.9391 33.9437 55.892 33.5537 55.7398 33.2002ZM36.1598 50.5602L38.2998 42.5602C38.3806 42.2635 38.3921 41.9522 38.3331 41.6505C38.2741 41.3487 38.1464 41.0646 37.9598 40.8202C37.7734 40.5782 37.5342 40.382 37.2603 40.2468C36.9864 40.1116 36.6852 40.0409 36.3798 40.0402H28.6998L32.9798 24.0002H42.8398L40.2998 33.4802C40.2182 33.7823 40.2087 34.0993 40.272 34.4058C40.3352 34.7123 40.4695 34.9996 40.6641 35.2447C40.8586 35.4898 41.1079 35.6859 41.392 35.8171C41.6761 35.9483 41.987 36.011 42.2998 36.0002H49.4398L36.1598 50.5602Z" fill="white"/>
    <rect x="0.5" y="0.5" width="79" height="79" rx="7.5" stroke="#F0A205"/>
  </g>
  <defs>
    <filter id="filter0_i_449_2215" x="0" y="0" width="80" height="90" filterUnits="userSpaceOnUse" color-interpolation-filters="sRGB">
      <feFlood flood-opacity="0" result="BackgroundImageFix"/>
      <feBlend mode="normal" in="SourceGraphic" in2="BackgroundImageFix" result="shape"/>
      <feColorMatrix in="SourceAlpha" type="matrix" values="0 0 0 0 0 0 0 0 0 0 0 0 0 0 0 0 0 0 127 0" result="hardAlpha"/>
      <feOffset dy="10"/>
      <feGaussianBlur stdDeviation="10"/>
      <feComposite in2="hardAlpha" operator="arithmetic" k2="-1" k3="1"/>
      <feColorMatrix type="matrix" values="0 0 0 0 1 0 0 0 0 0.944667 0 0 0 0 0.654167 0 0 0 1 0"/>
      <feBlend mode="normal" in2="shape" result="effect1_innerShadow_449_2215"/>
    </filter>
  </defs>
</svg>
