<svg width="80" height="80" viewBox="0 0 80 80" fill="none"
  xmlns="http://www.w3.org/2000/svg">
  <g filter="url(#filter0_i_449_2185)">
    <rect width="80" height="80" rx="8" fill="#F74C53"/>
    <path fill-rule="evenodd" clip-rule="evenodd" d="M18.9289 46.9289C20.8043 45.0536 23.3478 44 26 44H40C42.6522 44 45.1957 45.0536 47.0711 46.9289C48.9464 48.8043 50 51.3478 50 54V58C50 59.1046 49.1046 60 48 60C46.8954 60 46 59.1046 46 58V54C46 52.4087 45.3679 50.8826 44.2426 49.7574C43.1174 48.6321 41.5913 48 40 48H26C24.4087 48 22.8826 48.6321 21.7574 49.7574C20.6321 50.8826 20 52.4087 20 54V58C20 59.1046 19.1046 60 18 60C16.8954 60 16 59.1046 16 58V54C16 51.3478 17.0536 48.8043 18.9289 46.9289Z" fill="white"/>
    <path fill-rule="evenodd" clip-rule="evenodd" d="M63.4142 32.5858C64.1953 33.3668 64.1953 34.6332 63.4142 35.4142L55.4142 43.4142C54.6332 44.1953 53.3668 44.1953 52.5858 43.4142L48.5858 39.4142C47.8047 38.6332 47.8047 37.3668 48.5858 36.5858C49.3668 35.8047 50.6332 35.8047 51.4142 36.5858L54 39.1716L60.5858 32.5858C61.3668 31.8047 62.6332 31.8047 63.4142 32.5858Z" fill="white"/>
    <path fill-rule="evenodd" clip-rule="evenodd" d="M33 24C29.6863 24 27 26.6863 27 30C27 33.3137 29.6863 36 33 36C36.3137 36 39 33.3137 39 30C39 26.6863 36.3137 24 33 24ZM23 30C23 24.4772 27.4772 20 33 20C38.5228 20 43 24.4772 43 30C43 35.5228 38.5228 40 33 40C27.4772 40 23 35.5228 23 30Z" fill="white"/>
  </g>
  <defs>
    <filter id="filter0_i_449_2185" x="0" y="0" width="80" height="90" filterUnits="userSpaceOnUse" color-interpolation-filters="sRGB">
      <feFlood flood-opacity="0" result="BackgroundImageFix"/>
      <feBlend mode="normal" in="SourceGraphic" in2="BackgroundImageFix" result="shape"/>
      <feColorMatrix in="SourceAlpha" type="matrix" values="0 0 0 0 0 0 0 0 0 0 0 0 0 0 0 0 0 0 127 0" result="hardAlpha"/>
      <feOffset dy="10"/>
      <feGaussianBlur stdDeviation="7.5"/>
      <feComposite in2="hardAlpha" operator="arithmetic" k2="-1" k3="1"/>
      <feColorMatrix type="matrix" values="0 0 0 0 1 0 0 0 0 0.595833 0 0 0 0 0.612378 0 0 0 1 0"/>
      <feBlend mode="normal" in2="shape" result="effect1_innerShadow_449_2185"/>
    </filter>
  </defs>
</svg>
