<svg width="24" height="24" viewBox="0 0 24 24" fill="none"
  xmlns="http://www.w3.org/2000/svg">
  <path d="M9.71077 1.67437C10.4205 -0.558124 13.5795 -0.558124 14.2892 1.67437C14.7403 3.09329 16.3603 3.76432 17.6826 3.07995C19.763 2.00318 21.9968 4.23695 20.92 6.31741C20.2357 7.6397 20.9067 9.25969 22.3256 9.71077C24.5581 10.4205 24.5581 13.5795 22.3256 14.2892C20.9067 14.7403 20.2357 16.3603 20.92 17.6826C21.9968 19.763 19.763 21.9968 17.6826 20.92C16.3603 20.2357 14.7403 20.9067 14.2892 22.3256C13.5795 24.5581 10.4205 24.5581 9.71077 22.3256C9.25969 20.9067 7.6397 20.2357 6.31741 20.92C4.23695 21.9968 2.00318 19.763 3.07995 17.6826C3.76432 16.3603 3.09329 14.7403 1.67437 14.2892C-0.558124 13.5795 -0.558124 10.4205 1.67437 9.71077C3.09329 9.25969 3.76432 7.6397 3.07995 6.31741C2.00318 4.23695 4.23695 2.00318 6.31741 3.07995C7.6397 3.76432 9.25969 3.09329 9.71077 1.67437Z" fill="#3AC2FF"/>
  <path d="M17.3332 8L9.99984 15.3333L6.6665 12" stroke="white" stroke-width="2" stroke-linecap="round" stroke-linejoin="round"/>
</svg>
