<?xml version="1.0" encoding="utf-8"?>
<!-- Generator: Adobe Illustrator 22.1.0, SVG Export Plug-In . SVG Version: 6.00 Build 0)  -->
<svg version="1.1" id="Layer_1" xmlns="http://www.w3.org/2000/svg" xmlns:xlink="http://www.w3.org/1999/xlink" x="0px" y="0px"
	 viewBox="0 0 500 116.9" style="enable-background:new 0 0 500 116.9;" xml:space="preserve">
<style type="text/css">
	.st0{fill:#919D9D;}
	.st1{fill:#33CCFF;}
</style>
<g>
	<g>
		<path class="st0" d="M292.9,10.9v20.6h29.6v7.3h-29.6v23.9h-8.4V3.6h41.7v7.3H292.9z"/>
		<path class="st0" d="M377.1,17.9v44.7h-7.7v-6.8c-1.6,2.3-3.8,4.1-6.5,5.4s-5.6,1.9-8.7,1.9c-6,0-10.7-1.6-14.1-4.9
			s-5.1-8.1-5.1-14.6V17.9h8.1v24.8c0,4.3,1,7.6,3.1,9.8s5.1,3.3,8.9,3.3c4.3,0,7.6-1.3,10.1-3.9s3.7-6.2,3.7-11v-23H377.1z"/>
		<path class="st0" d="M430,22.4c3.3,3.3,5,8.1,5,14.5v25.7h-8.1V37.8c0-4.3-1-7.6-3.1-9.8s-5.1-3.3-8.9-3.3
			c-4.4,0-7.8,1.3-10.4,3.8c-2.5,2.6-3.8,6.2-3.8,11v23h-8.1V17.9h7.8v6.8c1.6-2.3,3.8-4.1,6.6-5.3c2.8-1.2,5.9-1.9,9.5-1.9
			C422.2,17.5,426.7,19.1,430,22.4z"/>
		<path class="st0" d="M492.5,0v62.6h-7.8v-7.1c-1.8,2.5-4.1,4.4-6.8,5.7c-2.8,1.3-5.8,1.9-9.1,1.9c-4.3,0-8.2-1-11.6-2.9
			s-6.1-4.6-8.1-8.1c-1.9-3.5-2.9-7.4-2.9-11.9s1-8.5,2.9-11.9s4.6-6.1,8.1-8c3.4-1.9,7.3-2.9,11.6-2.9c3.2,0,6.2,0.6,8.9,1.8
			c2.7,1.2,4.9,3,6.8,5.4V0H492.5z M477.1,54.1c2.3-1.3,4.1-3.2,5.4-5.6s1.9-5.1,1.9-8.2c0-3.1-0.6-5.8-1.9-8.2s-3.1-4.2-5.4-5.5
			s-4.9-1.9-7.7-1.9c-2.9,0-5.4,0.6-7.7,1.9c-2.3,1.3-4.1,3.1-5.4,5.5s-2,5.1-2,8.2s0.7,5.8,2,8.2s3.1,4.2,5.4,5.6
			c2.3,1.3,4.9,2,7.7,2C472.3,56.1,474.8,55.4,477.1,54.1z"/>
	</g>
	<path id="Fill-1-5_1_" class="st1" d="M258.5,43.4c-2.3-2.9-5.2-5.2-8.4-6.5c-4.5-1.6-9-2.6-13.9-2.3c-4.5,0-9,1-12.9,3.2
		c-1.9,1-3.9,2.3-5.5,3.6c-2.3,1.9-3.9,4.5-5.2,7.1c-4.5,9-11.3,16.8-20,22.3v32.3c0,6.1,4.8,11,11,11.3l0,0h10V73.8
		c0-7.8,1.3-13.6,3.9-17.1c2.9-3.6,7.8-5.5,12.3-5.2c4.2-0.3,8.1,1.3,10.3,4.8c2.3,4.5,3.2,9.4,2.9,14.2v32.9c0,5.8,4.8,11,10.7,11
		l0,0h10V66.7c0-4.5-0.3-8.7-1.3-13.2C262.4,49.6,260.8,46.3,258.5,43.4"/>
	<path id="Fill-3-4_1_" class="st1" d="M192.6,36.7v26.5c7.4-7.4,12.6-16.5,15.2-26.5L192.6,36.7L192.6,36.7z"/>
	<path id="Fill-5-4_1_" class="st1" d="M74.4,90.3L74.4,90.3l-1,1c-0.6,1-1.6,1.6-2.3,2.6s-1.6,2.3-2.6,3.2
		c-6.8,8.1-16.2,14.2-26.5,17.4c4.8,1.3,10,1.9,15.2,1.9h1.9c5.5,0,11-1,16.2-2.9s10-4.8,14.2-8.7c4.2-3.9,7.4-8.7,9.7-13.9
		c2.3-5.2,3.9-10.3,4.2-15.8c-8.7,1.6-17.1,5.2-24.2,10.7C77.6,87.4,76,88.7,74.4,90.3"/>
	<path id="Fill-7-3_1_" class="st1" d="M57.9,97.1c-4.5,0-9-1-13.2-3.2c-3.6-1.9-6.5-4.8-8.7-8.1c-2.3-3.6-3.9-7.4-4.8-11.6
		c-1-4.2-1.6-8.7-1.6-13.2s0.6-9,1.6-13.6c0.6-2.3,1.3-4.8,2.3-6.8l0.6-1.3l0,0l0.6-1L35,38l0.6-1l0.6-1.3c2.3-3.6,5.2-6.1,8.7-8.4
		c4.2-2.3,8.7-3.2,13.2-3.2h0.6c2.6,0,5.2,0.6,7.4,1.3c2.6,1,4.8,2.3,7.1,3.9c1.9,1.6,3.9,3.6,5.2,5.8l0,0l0,0
		c2.6,4.5,7.4,7.4,12.6,7.4h12.3c-0.6-5.8-2.3-11.3-4.8-16.2c-1.3-2.3-2.9-4.5-4.5-6.8c-1.6-1.9-3.6-3.9-5.5-5.5
		c-4.2-3.2-8.7-5.8-13.9-7.4C62,2.7,48.4,3.4,36.5,8.5c-3.2,1.3-6.1,3.2-8.7,5.2l0,0L27.5,14l-0.6,0.4l-1,1l-0.6,0.3l-1,1L24,17
		l-1.3,1.3l0,0c-0.6,0.6-1.3,1.3-1.6,1.9c-0.3,0.6-1,1-1.3,1.6l-0.3,0.6l0,0c-3.6,4.8-6.5,10-8.4,15.8c-2.3,7.2-3.6,14.9-3.6,22.4
		s1,14.9,3.6,22c2.3,6.5,5.8,12.6,10.3,17.8c2.3,2.6,4.8,4.8,7.4,6.8c11.3,0,22.3-3.9,31.3-10.3L57.9,97.1"/>
	<path id="Fill-25-2_1_" class="st1" d="M134.8,84.1c1.3-1,2.6-1.6,3.9-1.9c1.6-0.6,3.2-1,4.5-1.3c1.6-0.3,3.2-0.6,5.2-0.6
		c3.2-0.6,6.5-1.3,9.7-2.3l0,0c6.8-1.6,13.2-4.8,19.1-9c2.9-2.3,4.5-5.5,4.5-9v-3.2c0-2.6-0.3-5.2-1.3-7.8c-0.3-1.3-1-2.6-1.9-3.6
		c-1.9-2.9-4.8-5.2-8.1-6.8c-3.2-1.6-7.1-2.6-10.7-3.2c-1.9-0.3-3.9-0.6-5.8-0.6h-1.3c-1.3,0-2.9,0-4.2,0s-1.9,0-3.2,0
		c-3.2,0-6.5,0.6-9.4,1.3c-3.9,0.6-7.8,2.3-11.3,4.2c-3.2,1.9-6.1,4.8-8.4,8.1c-2.3,3.9-3.6,8.1-3.6,12.6h13.2
		c3.9,0,7.4-2.3,9.4-5.8c0.6-1.3,1.6-2.3,2.6-3.2c2.3-1.6,5.2-2.6,8.1-2.6h1.3c1,0,1.9,0,2.6,0l2.6,0.3c1.6,0.3,2.9,0.6,4.2,1.6
		c1.3,0.6,2.3,1.9,2.9,3.2l0.3,1c0.3,1.3,0.6,2.9,0.6,4.5c0.3,1.9-0.6,3.9-1.9,5.2c-1.6,1.3-3.6,2.3-5.5,2.6c-2.6,0.6-5.5,1-8.1,1.3
		c-2.9,0.3-6.1,0.6-9.4,1.3c-3.2,0.6-6.1,1.3-9.4,1.9c-1.9,0.6-3.9,1.3-5.5,2.3c-1,0.6-1.6,1-2.6,1.6c-2.6,1.9-4.5,4.2-5.8,6.8
		c-0.3,0.6-0.6,1.3-0.6,1.6l0,0l-0.3,1l0,0c0,0.3-0.3,0.6-0.3,1l0,0c0,0.3-0.3,0.6-0.3,1l0,0c0,0.6-0.3,1.3-0.3,1.9s0,1,0,1.3
		s0,1.9,0,2.9c0,3.6,0.6,7.1,1.9,10.3c1.3,2.9,2.9,5.5,5.5,7.4s5.2,3.2,8.4,4.2c2.9,1,6.1,1.3,9,1.3h1h2.6h1c1,0,1.9,0,2.9-0.3
		c2.6-0.3,5.2-1,7.8-1.6c4.5-1.3,8.4-3.9,11.6-7.4l0,0l0,0c1.6,4.5,5.5,7.4,10.3,7.4h9.7V76.7c-6.1,1.6-11.6,4.2-16.8,7.8l-0.3,0.3
		c-2.6,1.9-4.2,4.5-4.5,7.8V92c-0.3,1.3-1,2.6-1.6,3.9c-1.3,1.9-2.9,3.9-5.2,5.2c-1.6,1-3.6,1.6-5.5,1.9c-0.6,0-1.3,0.3-1.9,0.3
		h-2.3H141h-1h-0.6h-0.6c-1.6-0.3-2.9-0.6-4.2-1.6c-1.3-0.6-2.3-1.9-2.9-3.2c-0.6-1.6-1-3.2-1-4.8c0-1.6,0.3-3.6,1-4.8l0,0
		C132.5,86.4,133.5,85.1,134.8,84.1"/>
</g>
</svg>
