<?xml version="1.0" encoding="utf-8"?>
<!-- Generator: Adobe Illustrator 22.1.0, SVG Export Plug-In . SVG Version: 6.00 Build 0)  -->
<svg version="1.1" id="Layer_1" xmlns="http://www.w3.org/2000/svg" xmlns:xlink="http://www.w3.org/1999/xlink" x="0px" y="0px"
	 viewBox="0 0 169 45" style="enable-background:new 0 0 169 45;" xml:space="preserve">
<style type="text/css">
	.st0{fill:#33CCFF;}
	.st1{enable-background:new    ;}
	.st2{fill:#919D9D;}
</style>
<title>CanHire</title>
<path class="st0" d="M101.9,16c-0.9-1.1-2.1-2-3.4-2.6c-1.8-0.7-3.7-1-5.6-0.9c-1.8,0-3.6,0.4-5.2,1.2c-0.8,0.4-1.5,0.9-2.2,1.4
	c-0.9,0.8-1.6,1.8-2.1,2.8c-1.8,3.6-4.6,6.6-8.1,8.8v12.8c0,2.5,2,4.4,4.4,4.5h4V27.9c0-3.1,0.5-5.4,1.5-6.8c1-1.4,2.7-2.1,5-2
	c2,0,3.4,0.6,4.2,1.9c0.9,1.7,1.3,3.7,1.2,5.7v13c0,2.4,1.9,4.3,4.3,4.3h4.1V25.1c0-1.7-0.2-3.5-0.5-5.2
	C103.4,18.5,102.8,17.2,101.9,16z"/>
<path class="st0" d="M75.3,13.3v10.5c3-2.9,5.1-6.5,6.1-10.5H75.3z"/>
<path class="st0" d="M27.6,34.6L27.6,34.6c-0.1,0.2-0.3,0.3-0.4,0.4c-0.3,0.3-0.6,0.7-0.9,1s-0.7,0.9-1,1.3
	c-2.8,3.3-6.5,5.7-10.6,6.9c2,0.5,4.1,0.8,6.2,0.8h0.8c2.2,0,4.4-0.4,6.5-1.2c2.1-0.8,4.1-1.9,5.7-3.5c1.7-1.5,3-3.4,3.9-5.5
	c0.9-2,1.5-4.1,1.8-6.3C35,29.3,30.9,31.4,27.6,34.6L27.6,34.6z"/>
<path class="st0" d="M20.9,37.2c-1.9,0.1-3.7-0.4-5.4-1.2c-1.4-0.8-2.6-1.9-3.5-3.3c-0.9-1.4-1.6-2.9-2-4.6
	c-0.4-1.7-0.6-3.4-0.7-5.2c0-1.8,0.2-3.6,0.7-5.4c0.2-0.9,0.5-1.9,0.9-2.7l0.2-0.5l0,0l0.2-0.4l0.1-0.1l0.2-0.3l0.3-0.5
	c0.9-1.4,2.1-2.5,3.6-3.3c1.7-0.9,3.5-1.3,5.4-1.2h0.3c1,0,2,0.2,3,0.6c1,0.4,2,0.9,2.8,1.6c0.8,0.7,1.5,1.5,2.1,2.3l0,0l0,0
	c1.1,1.8,3,2.9,5.1,2.9h5c-0.2-2.3-0.9-4.5-2-6.5c-0.5-0.9-1.1-1.8-1.8-2.7c-0.7-0.8-1.4-1.5-2.3-2.1c-1.7-1.3-3.6-2.3-5.6-3
	c-2.1-0.7-4.4-1-6.6-1c-3,0-6,0.5-8.8,1.7c-1.3,0.5-2.5,1.2-3.6,2l0,0L8.4,4.4L8.1,4.6L7.7,5L7.5,5.2L7,5.5L6.8,5.7
	C6.6,5.9,6.4,6.1,6.2,6.3v0.1C6,6.6,5.8,6.8,5.5,7.1S5.2,7.5,5,7.7L4.8,7.9l0,0c-1.5,1.9-2.6,4-3.4,6.2C0.5,17,0,20,0,23
	c0,2.9,0.5,5.9,1.4,8.7c0.9,2.6,2.3,5,4.1,7c0.9,1,1.9,1.9,3.1,2.7c4.5,0,9-1.5,12.6-4.2L20.9,37.2z"/>
<path class="st0" d="M42.6,32L42.6,32z"/>
<path class="st0" d="M42.5,32.4L42.5,32.4z"/>
<path class="st0" d="M42.3,33.2L42.3,33.2z"/>
<path class="st0" d="M42.3,32.8L42.3,32.8L42.3,32.8z"/>
<path class="st0" d="M42.4,32.8c0-0.1,0.1-0.2,0.1-0.3C42.4,32.5,42.4,32.7,42.4,32.8z"/>
<path class="st0" d="M42.3,33.2c0-0.1,0-0.2,0.1-0.3C42.3,33,42.3,33.1,42.3,33.2z"/>
<path class="st0" d="M42.1,34L42.1,34c0-0.3,0.1-0.5,0.1-0.8C42.2,33.5,42.2,33.8,42.1,34z"/>
<path class="st0" d="M42.5,32.4l0.1-0.3L42.5,32.4z"/>
<path class="st0" d="M52,32.1c0.5-0.3,1-0.6,1.6-0.8c0.6-0.2,1.2-0.4,1.9-0.5c0.7-0.1,1.3-0.2,2-0.3c1.3-0.2,2.7-0.5,4-0.9l0,0
	c2.5-0.7,5.7-1.8,7.7-3.6c1.1-0.8,1.8-2.1,1.8-3.5v-1.3c0-1-0.1-2.1-0.5-3.1c-0.2-0.5-0.4-1-0.8-1.4c-0.8-1.1-1.9-2-3.2-2.6
	c-1.4-0.7-2.8-1.1-4.3-1.3c-0.8-0.1-1.6-0.2-2.4-0.2h-0.6c-0.6,0-1.2,0-1.7,0c-0.4,0-0.8,0-1.3,0c-1.3,0.1-2.6,0.2-3.8,0.5
	c-1.6,0.3-3.1,0.9-4.5,1.7c-1.3,0.8-2.5,1.9-3.3,3.1C43.6,19.3,43,21,43,22.8h5.3c1.6,0,3-0.9,3.7-2.3c0.2-0.5,0.6-0.9,1-1.3
	c1-0.7,2.1-1,3.3-1c0.2,0,0.4,0,0.6,0c0.4,0,0.7,0,1.1,0s0.7,0.1,1,0.1c0.6,0.1,1.2,0.3,1.7,0.6c0.5,0.3,1,0.7,1.3,1.3
	c0.1,0.1,0.1,0.3,0.2,0.4c0.2,0.6,0.3,1.1,0.3,1.7c0.1,0.8-0.2,1.5-0.8,2c-0.7,0.5-1.4,0.8-2.3,1c-1.1,0.3-2.2,0.4-3.3,0.5
	c-1.2,0.1-2.5,0.3-3.8,0.5c-1.3,0.2-2.5,0.5-3.8,0.8c-0.8,0.2-1.5,0.5-2.3,0.9c-0.4,0.2-0.7,0.4-1.1,0.6c-1,0.7-1.8,1.6-2.4,2.7
	c-0.1,0.2-0.2,0.5-0.3,0.7l0,0l-0.1,0.3l0,0c0,0.1-0.1,0.2-0.1,0.3v0.1c0,0.1-0.1,0.2-0.1,0.3l0,0c-0.1,0.3-0.1,0.5-0.1,0.8
	l-0.1,0.5c0,0.4,0,0.7,0,1.1c0,1.4,0.2,2.8,0.8,4.1c0.5,1.1,1.3,2.1,2.2,2.8c1,0.8,2.1,1.3,3.3,1.7c1.2,0.3,2.4,0.5,3.7,0.5h0.4
	c0.4,0,0.7,0,1.1,0h0.3l1.1-0.1c1-0.1,2-0.3,3-0.6c1.8-0.5,3.4-1.5,4.7-2.9l0,0l0,0c0.6,1.8,2.3,3,4.2,3h3.9V28.9
	c-2.4,0.6-4.7,1.6-6.8,3L64,32c-1,0.7-1.7,1.8-1.9,3c0-0.1,0-0.2,0-0.3c-0.2,0.6-0.4,1.1-0.7,1.6c-0.5,0.8-1.2,1.5-2,2
	c-0.7,0.4-1.4,0.6-2.2,0.7l-0.8,0.1c-0.3,0-0.6,0-0.9,0h-0.9h-0.2h-0.3h-0.2h-0.2c-0.6-0.1-1.1-0.4-1.6-0.7
	c-0.5-0.3-0.9-0.7-1.1-1.2c-0.3-0.6-0.4-1.2-0.4-1.9c0-0.7,0.1-1.4,0.4-2l0,0C51.1,32.8,51.5,32.4,52,32.1z"/>
<g class="st1">
	<path class="st2" d="M129.2,4.3v20h-2.9v-8.9h-11.5v8.9H112v-20h2.9v8.6h11.5V4.3H129.2z"/>
	<path class="st2" d="M134.9,5.7c-0.4-0.3-0.5-0.8-0.5-1.3s0.2-0.9,0.5-1.3c0.4-0.4,0.8-0.5,1.3-0.5c0.5,0,1,0.2,1.3,0.5
		c0.4,0.3,0.5,0.7,0.5,1.2c0,0.5-0.2,0.9-0.5,1.3c-0.4,0.4-0.8,0.5-1.3,0.5C135.7,6.2,135.2,6.1,134.9,5.7z M134.8,9.1h2.7v15.1
		h-2.7V9.1z"/>
</g>
<g class="st1">
	<path class="st2" d="M147.5,9.7c0.9-0.5,2.1-0.7,3.4-0.7v2.7c-0.2,0-0.4,0-0.6,0c-1.5,0-2.6,0.4-3.5,1.3s-1.3,2.1-1.3,3.8v7.5h-2.7
		V9.1h2.6v2.5C145.9,10.8,146.6,10.1,147.5,9.7z"/>
</g>
<g class="st1">
	<path class="st2" d="M167.8,17.6h-12.3c0.2,1.3,0.8,2.4,1.8,3.2c1,0.8,2.2,1.2,3.7,1.2c1.8,0,3.3-0.6,4.4-1.8l1.5,1.8
		c-0.7,0.8-1.5,1.4-2.6,1.8c-1,0.4-2.2,0.6-3.4,0.6c-1.6,0-3-0.3-4.3-1c-1.2-0.7-2.2-1.6-2.9-2.8s-1-2.5-1-4c0-1.5,0.3-2.8,1-4
		s1.6-2.1,2.7-2.8s2.5-1,3.9-1c1.4,0,2.7,0.3,3.9,1c1.1,0.7,2,1.6,2.7,2.8s1,2.5,1,4.1C167.8,17,167.8,17.3,167.8,17.6z M157,12.5
		c-0.9,0.8-1.4,1.8-1.6,3.1h9.7c-0.2-1.3-0.7-2.3-1.6-3.1s-2-1.2-3.3-1.2C159,11.3,157.9,11.7,157,12.5z"/>
</g>
</svg>
