<svg id="Layer_1" data-name="Layer 1" xmlns="http://www.w3.org/2000/svg" viewBox="0 0 1358.53 268.43"><defs><style>.cls-1{fill:#3cf;}.cls-2{fill:#919d9d;}</style></defs><title>CanInvoice </title><path class="cls-1" d="M245.83,193.72l0,0Z"/><path class="cls-1" d="M245,196a2.41,2.41,0,0,0,.08-.25A2.41,2.41,0,0,1,245,196Z"/><path class="cls-1" d="M243.79,200.54l.06-.26Z"/><path class="cls-1" d="M244.35,198.25l.09-.33Z"/><path class="cls-1" d="M244.44,197.92c.18-.66.38-1.3.58-1.93C244.82,196.62,244.62,197.26,244.44,197.92Z"/><path class="cls-1" d="M243.85,200.28c.15-.69.32-1.37.5-2C244.17,198.91,244,199.59,243.85,200.28Z"/><path class="cls-1" d="M243,205.25h0c.21-1.62.48-3.19.81-4.7C243.46,202.06,243.18,203.62,243,205.25Z"/><path class="cls-1" d="M245.1,195.74c.23-.69.48-1.36.73-2C245.58,194.38,245.33,195.05,245.1,195.74Z"/><path class="cls-1" d="M914.09,125.29l-.09.52Z"/><path class="cls-1" d="M914.44,121.09a25.51,25.51,0,0,1-.35,4.2A23.19,23.19,0,0,0,914.44,121.09Z"/><path class="cls-1" d="M914,125.81c0,.07,0,.13,0,.19S914,125.88,914,125.81Z"/><path class="cls-1" d="M587.91,100.82q-7.21-9.43-19.73-14.76T536.1,80.75a69.46,69.46,0,0,0-30.2,7,52,52,0,0,0-12.45,8.32,56,56,0,0,0-12.3,16.4,128.76,128.76,0,0,1-46.61,50.68v74.07a25.69,25.69,0,0,0,25.69,25.69h23V170q0-27.09,8.92-38.94T521,119.17q17.5,0,24.36,10.81t6.86,32.77v75.13a25.06,25.06,0,0,0,25.06,25.06h23.66V153.83a143.29,143.29,0,0,0-2.91-30A57.2,57.2,0,0,0,587.91,100.82Z"/><path class="cls-1" d="M434.54,85.55v60.79a128.09,128.09,0,0,0,35.17-60.79Z"/><path class="cls-1" d="M159.14,208.25l-.11.13c-.8.87-1.64,1.69-2.49,2.48-1.81,1.87-3.57,3.79-5.26,5.77q-2.82,3.81-5.89,7.4A128.29,128.29,0,0,1,84,263.69a133.86,133.86,0,0,0,35.61,4.73h.8c1.33,0,2.63-.05,3.94-.08A118.93,118.93,0,0,0,162,261.56a96.14,96.14,0,0,0,32.93-19.9,99.42,99.42,0,0,0,22.65-31.56,121.81,121.81,0,0,0,10.09-36.54A127.66,127.66,0,0,0,171.09,198,130.2,130.2,0,0,0,159.14,208.25Z"/><path class="cls-1" d="M120.43,223.48q-18.2,0-30.88-7A58.9,58.9,0,0,1,69,197.75,81.16,81.16,0,0,1,57.47,171.5a124.79,124.79,0,0,1-3.6-30,134.25,134.25,0,0,1,3.6-31.23,88.1,88.1,0,0,1,5.37-15.82c.44-1,.89-1.91,1.36-2.85a1.19,1.19,0,0,1,.08-.16c.44-.87.89-1.74,1.35-2.59l.45-.78c.37-.66.74-1.32,1.13-2,.57-.94,1.15-1.86,1.75-2.77A58.35,58.35,0,0,1,89.55,64.45q12.69-7,30.88-7c.56,0,1.12,0,1.68,0h0a56,56,0,0,1,33.66,12.32,54.33,54.33,0,0,1,12,13.55h0l.09.15a34.75,34.75,0,0,0,29.48,16.83h28.76Q223.7,79,214.44,62.56a95.44,95.44,0,0,0-10.63-15.27,88.94,88.94,0,0,0-12.87-12.35,103.84,103.84,0,0,0-32.25-17,123.44,123.44,0,0,0-38.26-5.83q-28.14,0-50.61,9.94A113.42,113.42,0,0,0,49.24,33.86h-.06c-.35.26-.69.53-1,.78l-1.24.94c-.87.67-1.73,1.35-2.57,2l-1.2,1c-.86.72-1.7,1.46-2.54,2.21l-1.05.94c-1.15,1.06-2.29,2.15-3.4,3.26l-.25.24q-2,2.09-4,4.27c-1.06,1.2-2.08,2.44-3.08,3.68-.35.43-.7.85-1,1.28h0a124.12,124.12,0,0,0-19.56,36,153.12,153.12,0,0,0-8.23,51A148,148,0,0,0,8.23,191.4a119.21,119.21,0,0,0,23.68,40.31,103.92,103.92,0,0,0,17.66,15.62,127.55,127.55,0,0,0,73-23.89C121.84,223.46,121.15,223.48,120.43,223.48Z"/><path class="cls-1" d="M299.86,193.78a32.11,32.11,0,0,1,9.26-4.62,85.59,85.59,0,0,1,10.81-2.75c3.88-.69,7.78-1.25,11.67-1.71a215.6,215.6,0,0,0,22.82-4.92l.22-.06c14.69-4,33-10.67,44.18-20.87A25.38,25.38,0,0,0,409,138.55v-7.36a50.93,50.93,0,0,0-2.81-17.68,33.49,33.49,0,0,0-4.39-8.25A49.61,49.61,0,0,0,383.27,90a83.22,83.22,0,0,0-25-7.38c-4.58-.62-9.13-1.1-13.63-1.41-1.13-.07-2.26-.15-3.39-.21-3.38-.18-6.74-.26-10.08-.26-2.41,0-4.84.06-7.25.17a151.79,151.79,0,0,0-22,2.74,83.64,83.64,0,0,0-26.24,9.78,58.5,58.5,0,0,0-19.21,18.19q-7.56,11.33-8.58,28.48h0v0h30.64a24.57,24.57,0,0,0,21.68-13.4,20.88,20.88,0,0,1,6-7.19q7.21-5.4,19.14-6.07c1.1-.07,2.21-.1,3.37-.1,2.17,0,4.29.07,6.31.21s4.07.35,6,.63a27.33,27.33,0,0,1,10,3.44,18.83,18.83,0,0,1,6.86,7.21,16,16,0,0,1,1.12,2.51,30.21,30.21,0,0,1,1.45,10c.22,5-1.27,8.86-4.46,11.49s-7.56,4.64-13,6a130.84,130.84,0,0,1-18.87,3.09q-10.64,1-21.62,2.74a202.94,202.94,0,0,0-21.78,4.64,65,65,0,0,0-13.07,5,58.25,58.25,0,0,0-6.15,3.7,44.74,44.74,0,0,0-13.73,15.61,37.88,37.88,0,0,0-1.85,4l0,0c-.25.66-.5,1.33-.73,2a2.41,2.41,0,0,1-.08.25c-.2.63-.4,1.27-.58,1.93l-.09.33c-.18.66-.35,1.34-.5,2l-.06.26c-.33,1.51-.6,3.08-.81,4.7-.12.95-.23,1.92-.31,2.92q-.27,3.08-.27,6.39,0,13.74,4.62,23.69a44.92,44.92,0,0,0,12.88,16.47,54.22,54.22,0,0,0,19.21,9.6,85.74,85.74,0,0,0,21.11,3.05c.81,0,1.61,0,2.42,0,2.07,0,4.12-.06,6.16-.16l2.05-.14q3.19-.22,6.36-.65A111.28,111.28,0,0,0,335,262.59a63.38,63.38,0,0,0,27.34-16.7l.08-.07,0,0a1.49,1.49,0,0,0,0,.21,25.62,25.62,0,0,0,23.91,17H409V175.62A127.43,127.43,0,0,0,370,193.1l-.74.49a25.65,25.65,0,0,0-10.74,17.58c.06-.5.13-1,.22-1.48a38.56,38.56,0,0,1-3.77,9.16,32.08,32.08,0,0,1-11.67,11.49,33.1,33.1,0,0,1-12.57,4.14c-1.49.22-3,.39-4.69.5s-3.37.16-5.17.16h-.11c-.83,0-1.66,0-2.49-.06-.54,0-1.06,0-1.59-.09a.23.23,0,0,1-.14,0c-.38,0-.76,0-1.13-.08s-.72-.05-1.08-.1l-1.88-.24c-.46-.06-.92-.12-1.38-.21s-.92-.14-1.38-.23a27.52,27.52,0,0,1-9.61-3.6,18.4,18.4,0,0,1-6.52-7.05,22.76,22.76,0,0,1-2.4-11,23.69,23.69,0,0,1,2.4-11.33v0A22.4,22.4,0,0,1,299.86,193.78Z"/><path class="cls-2" d="M631.81,162.61V7.11h17.77v155.5Z"/><path class="cls-2" d="M801.3,90.41v72.2H784V95.08c0-20.66-12.44-32.88-33.1-32.88-23.1.22-37.32,15.33-39.32,37.54v62.87H694.23V45.54h17.32V71.31c8.22-17.77,24-26.22,45.32-26.44C784.86,44.87,801.3,62.2,801.3,90.41Z"/><path class="cls-2" d="M861.27,162.61,814.85,45.54h18.43l37.32,99.07,37.1-99.07h17.55l-46,117.07Z"/><path class="cls-2" d="M1048.76,104c0,35.1-24.66,59.31-59.32,59.31S930.13,139.06,930.13,104c0-34.87,24.66-58.87,59.31-58.87S1048.76,69.09,1048.76,104Zm-101.3.22c0,25.77,17.55,43.54,42,43.54s42-17.77,42-43.54c0-25.54-17.55-43.31-42-43.31S947.46,78.64,947.46,104.18Z"/><path class="cls-2" d="M1099,12c0,6.88-4.89,12-11.33,12s-11.33-5.11-11.33-12,4.89-12,11.33-12S1099,5.11,1099,12Zm-19.77,150.61V45.54h17.1V162.61Z"/><path class="cls-2" d="M1229.8,62.42l-9.56,12.22c-8.88-8.44-20.65-13.55-34.87-13.55-24.21,0-41.54,17.55-41.54,43.09s17.33,43.32,41.54,43.32c15.33,0,28-5.33,36.21-15.1l10,10.66c-10.44,12.66-26.65,20.21-46.87,20.21-34,0-58-24.21-58-59.09s24.22-59.09,58-59.09C1203.58,44.87,1219.13,51.31,1229.8,62.42Z"/><path class="cls-2" d="M1358.41,110.85h-95.52c3.11,22.88,19.77,37.32,42.43,37.32,14.44,0,27.1-5.11,36.21-14.66l9.55,10.21c-11.11,12.44-27.54,19.55-47.09,19.55-34.43,0-58.2-24.21-58.2-59.09s24-59.09,58-59.09C1341.53,44.87,1360.19,71.08,1358.41,110.85Zm-15.55-14.22C1341.75,74.19,1326.65,60,1303.77,60c-22.22,0-38.21,14.44-40.88,36.65Z"/></svg>