<svg id="Layer_1" data-name="Layer 1" xmlns="http://www.w3.org/2000/svg" viewBox="0 0 1202.89 265.57"><defs><style>.cls-1{fill:#3cf;}.cls-2{fill:#919d9d;}</style></defs><title>CanShare </title><path class="cls-1" d="M587.91,98q-7.21-9.43-19.73-14.75T536.1,77.89a69.6,69.6,0,0,0-30.2,7,52,52,0,0,0-12.45,8.32,56.1,56.1,0,0,0-12.3,16.4,128.76,128.76,0,0,1-46.61,50.68v74.07a25.69,25.69,0,0,0,25.69,25.69h23v-93q0-27.1,8.92-38.95T521,116.32q17.5,0,24.36,10.8t6.86,32.77V235a25.06,25.06,0,0,0,25.06,25.06h23.66V151A143.29,143.29,0,0,0,598,121,57.2,57.2,0,0,0,587.91,98Z"/><path class="cls-1" d="M434.54,82.69v60.79a128,128,0,0,0,35.17-60.79Z"/><path class="cls-1" d="M159.14,205.39l-.11.13c-.8.87-1.64,1.69-2.49,2.49-1.81,1.86-3.57,3.79-5.26,5.76q-2.82,3.81-5.89,7.4A128.29,128.29,0,0,1,84,260.83a133.86,133.86,0,0,0,35.61,4.73h.8c1.33,0,2.63,0,3.94-.08A118.93,118.93,0,0,0,162,258.71a96.45,96.45,0,0,0,32.93-19.9,99.57,99.57,0,0,0,22.65-31.57,121.82,121.82,0,0,0,10.09-36.53,127.53,127.53,0,0,0-56.53,24.38A130.2,130.2,0,0,0,159.14,205.39Z"/><path class="cls-1" d="M120.43,220.62q-18.2,0-30.88-7A58.93,58.93,0,0,1,69,194.89a81.07,81.07,0,0,1-11.49-26.25,124.79,124.79,0,0,1-3.6-30,134.25,134.25,0,0,1,3.6-31.23,88.1,88.1,0,0,1,5.37-15.82c.44-1,.89-1.91,1.36-2.85,0,0,0-.1.08-.16.44-.87.89-1.74,1.35-2.59l.45-.78c.37-.65.74-1.31,1.13-2,.57-.94,1.15-1.86,1.75-2.77A58.35,58.35,0,0,1,89.55,61.59q12.69-7,30.88-7l1.68,0h0a56.17,56.17,0,0,1,33.66,12.32,54.5,54.5,0,0,1,12,13.55h0l.09.16a34.74,34.74,0,0,0,29.48,16.82h28.76Q223.7,76.17,214.44,59.7a95.44,95.44,0,0,0-10.63-15.27,88.94,88.94,0,0,0-12.87-12.35,103.84,103.84,0,0,0-32.25-17,123.44,123.44,0,0,0-38.26-5.83q-28.14,0-50.61,10A113.38,113.38,0,0,0,49.24,31h-.06l-1,.79-1.24.94c-.87.66-1.73,1.34-2.57,2l-1.2,1c-.86.72-1.7,1.47-2.54,2.21l-1.05.94C38.39,40,37.25,41,36.14,42.15c-.08.09-.17.16-.25.25q-2,2.07-4,4.27c-1.06,1.2-2.08,2.43-3.08,3.67-.35.43-.7.85-1,1.28h0A124.18,124.18,0,0,0,8.23,87.67a153.06,153.06,0,0,0-8.23,51,148,148,0,0,0,8.23,49.92,119.35,119.35,0,0,0,23.68,40.32,104.8,104.8,0,0,0,17.66,15.62,127.63,127.63,0,0,0,73-23.9C121.84,220.6,121.15,220.62,120.43,220.62Z"/><path class="cls-1" d="M245.83,190.86l0,0Z"/><path class="cls-1" d="M245,193.13a2.41,2.41,0,0,0,.08-.25A2.41,2.41,0,0,1,245,193.13Z"/><path class="cls-1" d="M243.79,197.69l.06-.26Z"/><path class="cls-1" d="M244.35,195.39l.09-.33Z"/><path class="cls-1" d="M244.44,195.06c.18-.65.38-1.3.58-1.93C244.82,193.76,244.62,194.4,244.44,195.06Z"/><path class="cls-1" d="M243.85,197.43c.15-.69.32-1.37.5-2C244.17,196.06,244,196.74,243.85,197.43Z"/><path class="cls-1" d="M243,202.39h0c.21-1.62.48-3.19.81-4.69C243.46,199.2,243.18,200.76,243,202.39Z"/><path class="cls-1" d="M245.1,192.88c.23-.69.48-1.36.73-2C245.58,191.52,245.33,192.19,245.1,192.88Z"/><path class="cls-1" d="M299.86,190.92a32.11,32.11,0,0,1,9.26-4.62,85.59,85.59,0,0,1,10.81-2.75c3.88-.69,7.78-1.25,11.67-1.71a212.58,212.58,0,0,0,22.82-4.92l.22-.06c14.69-4,33-10.66,44.18-20.87A25.38,25.38,0,0,0,409,135.69v-7.36a51,51,0,0,0-2.81-17.68,33.49,33.49,0,0,0-4.39-8.25,49.61,49.61,0,0,0-18.54-15.27,82.93,82.93,0,0,0-25-7.37q-6.87-.95-13.63-1.42c-1.13-.07-2.26-.15-3.39-.2q-5.07-.27-10.08-.27c-2.41,0-4.84.06-7.25.18a151.77,151.77,0,0,0-22,2.73,83.66,83.66,0,0,0-26.24,9.79,58.37,58.37,0,0,0-19.21,18.18q-7.56,11.32-8.58,28.48h0v0h30.64a24.55,24.55,0,0,0,21.68-13.4,21,21,0,0,1,6-7.19q7.21-5.4,19.14-6.07c1.1-.07,2.21-.1,3.37-.1,2.17,0,4.29.07,6.31.21s4.07.35,6,.64a27.33,27.33,0,0,1,10,3.43,18.83,18.83,0,0,1,6.86,7.21,16.43,16.43,0,0,1,1.12,2.51,30.21,30.21,0,0,1,1.45,10Q360.75,142,356,146c-3.2,2.63-7.56,4.64-13,6a132.15,132.15,0,0,1-18.87,3.1q-10.64,1-21.62,2.73a205.4,205.4,0,0,0-21.78,4.64,65,65,0,0,0-13.07,5.05,56.54,56.54,0,0,0-6.15,3.69A44.74,44.74,0,0,0,247.7,186.8a37.88,37.88,0,0,0-1.85,4l0,0c-.25.66-.5,1.33-.73,2a2.41,2.41,0,0,1-.08.25c-.2.63-.4,1.28-.58,1.93l-.09.33c-.18.67-.35,1.35-.5,2l-.06.26c-.33,1.5-.6,3.07-.81,4.69-.12,1-.23,1.93-.31,2.92q-.27,3.07-.27,6.39,0,13.74,4.62,23.69a44.92,44.92,0,0,0,12.88,16.47,54.41,54.41,0,0,0,19.21,9.61,86.22,86.22,0,0,0,21.11,3c.81,0,1.61,0,2.42,0,2.07,0,4.12-.06,6.16-.16l2.05-.13q3.19-.24,6.36-.65A111.31,111.31,0,0,0,335,259.73,63.38,63.38,0,0,0,362.37,243l.08-.07,0,0a1.36,1.36,0,0,0,0,.2,25.62,25.62,0,0,0,23.91,16.95H409V172.76A127.43,127.43,0,0,0,370,190.24l-.74.5a25.63,25.63,0,0,0-10.74,17.57c.06-.5.13-1,.22-1.48a38.56,38.56,0,0,1-3.77,9.16,32,32,0,0,1-11.67,11.49,32.93,32.93,0,0,1-12.57,4.14c-1.49.22-3,.39-4.69.5s-3.37.17-5.17.17h-.11c-.83,0-1.66,0-2.49-.06-.54,0-1.06,0-1.59-.09a.23.23,0,0,1-.14,0c-.38,0-.76-.05-1.13-.08s-.72,0-1.08-.09l-1.88-.24c-.46-.07-.92-.12-1.38-.21l-1.38-.24a27.52,27.52,0,0,1-9.61-3.6,18.33,18.33,0,0,1-6.52-7,22.73,22.73,0,0,1-2.4-11,23.69,23.69,0,0,1,2.4-11.33h0A22.33,22.33,0,0,1,299.86,190.92Z"/><path class="cls-1" d="M913.09,66.42,913,67Z"/><path class="cls-1" d="M913.44,62.22a25.51,25.51,0,0,1-.35,4.2A23.19,23.19,0,0,0,913.44,62.22Z"/><path class="cls-1" d="M913,67c0,.06,0,.12,0,.18S913,67,913,67Z"/><path class="cls-2" d="M724.49,22.26l-7.28,16.05a77.35,77.35,0,0,0-41.3-12.63C656.65,25.68,644,33,644,45.58c0,38.52,84.31,18.41,84.1,72.76,0,25-22,41.09-54.14,41.09a85.49,85.49,0,0,1-57.36-22.9l7.71-15.4c13.91,13.48,32.95,21.18,49.86,21.18,21.61,0,35.1-8.77,35.1-23.11.21-39.38-84.11-18.4-84.11-72.12C625.19,23.54,646,8.35,677,8.35,694.32,8.35,712.08,13.91,724.49,22.26Z"/><path class="cls-2" d="M865.3,89.24v69.55H848.61V93.73c0-19.9-12-31.67-31.89-31.67-24,.22-38.09,17.12-38.09,41.3v55.43H761.94V0h16.69V71.26c7.7-17.54,23.11-25.68,43.87-25.89C849.47,45.37,865.3,62.06,865.3,89.24Z"/><path class="cls-2" d="M972.51,141.46c-9,12.2-23.32,18.19-41.3,18.19-23.33,0-38.31-15-38.31-34.46,0-19.69,15.62-32.1,42.16-32.31h37V86.24c0-16.47-10.27-26.32-30.17-26.32-12.41,0-24,4.71-35.74,12.84l-7.06-12.2c14.55-9.63,26.75-15.19,46-15.19,27.82,0,43.23,14.77,43.44,38.95l.22,74.47H972.51Zm-.21-21.62V106.36H937.2c-18.83,0-28.68,5.78-28.68,18.19s10.06,20.54,25.9,20.54C953.47,145.09,968,135.46,972.3,119.84Z"/><path class="cls-2" d="M1042.7,71.05c7.49-16.48,21.4-25.47,40.45-25.68V62.28c-23.76-.43-38.52,14.33-40.45,36.59v59.92H1026V46h16.69Z"/><path class="cls-2" d="M1202.77,108.93h-92c3,22,19,35.95,40.88,35.95,13.91,0,26.11-4.92,34.88-14.12l9.2,9.84c-10.7,12-26.53,18.83-45.37,18.83-33.17,0-56.07-23.32-56.07-56.92s23.12-56.93,55.86-56.93C1186.51,45.37,1204.49,70.62,1202.77,108.93Zm-15-13.7c-1.07-21.61-15.62-35.31-37.66-35.31-21.4,0-36.81,13.91-39.38,35.31Z"/></svg>