<svg xmlns="http://www.w3.org/2000/svg" viewBox="0 0 1062.78 256.71"><defs><style>.cls-1{fill:#919d9d;}.cls-2{fill:#3cf;}</style></defs><title>CanSeek_logoAsset 1</title><g id="Layer_2" data-name="Layer 2"><g id="Layer_1-2" data-name="Layer 1"><path class="cls-1" d="M646.55,131.15q-13.29-4.43-20.88-11.48l6.69-14.1a55.36,55.36,0,0,0,18.53,10.58,68.09,68.09,0,0,0,23.23,4.07q15.72,0,23.5-5.34t7.77-14.19a13.94,13.94,0,0,0-4.25-10.57,28.3,28.3,0,0,0-10.48-6.24Q684.42,81.71,673,79a181.22,181.22,0,0,1-23-6.87,38,38,0,0,1-15-10.58q-6.24-7.14-6.24-19.25A32.56,32.56,0,0,1,634.08,24q5.32-8.13,16.18-13t26.93-4.88A85.2,85.2,0,0,1,699.25,9a58.92,58.92,0,0,1,18.62,8.31l-6,14.47a65.4,65.4,0,0,0-17-7.69,63.72,63.72,0,0,0-17.72-2.62q-15.36,0-23.05,5.61t-7.68,14.46a13.83,13.83,0,0,0,4.34,10.57,30.06,30.06,0,0,0,10.75,6.33A168.26,168.26,0,0,0,679,63.27a177,177,0,0,1,23,6.87,38.7,38.7,0,0,1,14.91,10.49q6.24,7.05,6.24,19a32.31,32.31,0,0,1-5.42,18.16q-5.43,8.24-16.46,13t-27.11,4.79A86.42,86.42,0,0,1,646.55,131.15Z"/><path class="cls-1" d="M833.2,92H755.46a30.13,30.13,0,0,0,11.12,20.34q9.49,7.68,23.59,7.68,17.18,0,27.66-11.57l9.58,11.21a42,42,0,0,1-16.18,11.57,56.31,56.31,0,0,1-21.6,4q-15.18,0-26.93-6.24a44.41,44.41,0,0,1-18.17-17.44,50,50,0,0,1-6.42-25.31,50.8,50.8,0,0,1,6.24-25.13,44.64,44.64,0,0,1,17.17-17.44,48.91,48.91,0,0,1,24.68-6.24,47.92,47.92,0,0,1,24.49,6.24A43.83,43.83,0,0,1,827.5,61.1a53.14,53.14,0,0,1,6.06,25.67A49.85,49.85,0,0,1,833.2,92ZM765.32,59.66q-8.42,7.59-9.86,19.88h61.47a30.85,30.85,0,0,0-9.85-19.79q-8.42-7.68-20.88-7.69T765.32,59.66Z"/><path class="cls-1" d="M943.83,92H866.1a30.05,30.05,0,0,0,11.12,20.34Q886.7,120,900.81,120q17.18,0,27.66-11.57l9.58,11.21a42,42,0,0,1-16.18,11.57,56.37,56.37,0,0,1-21.61,4q-15.18,0-26.93-6.24a44.47,44.47,0,0,1-18.17-17.44,50,50,0,0,1-6.42-25.31A50.8,50.8,0,0,1,855,61.1a44.71,44.71,0,0,1,17.17-17.44,48.91,48.91,0,0,1,24.68-6.24,47.89,47.89,0,0,1,24.49,6.24A43.85,43.85,0,0,1,938.14,61.1a53.25,53.25,0,0,1,6.05,25.67A49.85,49.85,0,0,1,943.83,92ZM876,59.66q-8.4,7.59-9.85,19.88h61.46a30.8,30.8,0,0,0-9.85-19.79q-8.4-7.68-20.88-7.69T876,59.66Z"/><path class="cls-1" d="M1005.48,89.48l-19.89,18.44v26.21H968.24V0h17.35V86.05l52.24-47.73h21l-40.31,39.59,44.29,56.22h-21.33Z"/><path class="cls-2" d="M587.91,89.1q-7.21-9.42-19.73-14.75T536.1,69a69.47,69.47,0,0,0-30.2,7,52,52,0,0,0-12.45,8.31,56.1,56.1,0,0,0-12.3,16.4,128.85,128.85,0,0,1-46.61,50.69v74.06a25.69,25.69,0,0,0,25.69,25.69h23v-93q0-27.11,8.92-38.94T521,107.46q17.5,0,24.36,10.81T552.22,151v75.12a25.06,25.06,0,0,0,25.06,25.06h23.66V142.11a143.29,143.29,0,0,0-2.91-30A57.32,57.32,0,0,0,587.91,89.1Z"/><path class="cls-2" d="M434.54,73.84v60.79a128.13,128.13,0,0,0,35.17-60.79Z"/><path class="cls-2" d="M159.14,196.54l-.11.13c-.8.87-1.64,1.69-2.49,2.48-1.81,1.87-3.57,3.79-5.26,5.77q-2.82,3.81-5.89,7.4A128.2,128.2,0,0,1,84,252a133.05,133.05,0,0,0,35.61,4.73h.8c1.33,0,2.63,0,3.94-.07A118.93,118.93,0,0,0,162,249.85,96.29,96.29,0,0,0,194.88,230a99.46,99.46,0,0,0,22.65-31.57,121.66,121.66,0,0,0,10.09-36.53,127.65,127.65,0,0,0-56.53,24.38A130.31,130.31,0,0,0,159.14,196.54Z"/><path class="cls-2" d="M120.43,211.76q-18.2,0-30.88-7A58.83,58.83,0,0,1,69,186a81,81,0,0,1-11.49-26.25,124.67,124.67,0,0,1-3.6-30,134.16,134.16,0,0,1,3.6-31.22,87.84,87.84,0,0,1,5.37-15.82c.44-1,.89-1.92,1.36-2.85a.8.8,0,0,1,.08-.16c.44-.88.89-1.74,1.35-2.59.15-.27.3-.52.45-.78.37-.66.74-1.32,1.13-2,.57-.94,1.15-1.87,1.75-2.77A58.35,58.35,0,0,1,89.55,52.74q12.69-7,30.88-7c.56,0,1.12,0,1.68,0h0a56.07,56.07,0,0,1,33.66,12.31,54.55,54.55,0,0,1,12,13.56h0l.09.15a34.75,34.75,0,0,0,29.48,16.83h28.76q-2.42-21.27-11.67-37.74a95,95,0,0,0-10.63-15.27,88.94,88.94,0,0,0-12.87-12.35,104.07,104.07,0,0,0-32.25-17A123.74,123.74,0,0,0,120.43.41q-28.14,0-50.61,10A112.83,112.83,0,0,0,49.24,22.15h-.06c-.35.25-.69.52-1,.78l-1.24.94c-.87.66-1.73,1.34-2.57,2l-1.2,1c-.86.72-1.7,1.46-2.54,2.21L39.54,30c-1.15,1.06-2.29,2.14-3.4,3.26l-.25.24c-1.36,1.38-2.69,2.81-4,4.27-1.06,1.2-2.08,2.43-3.08,3.68-.35.42-.7.85-1,1.28h0a124.12,124.12,0,0,0-19.56,36A153.1,153.1,0,0,0,0,129.76a147.9,147.9,0,0,0,8.23,49.92A119.25,119.25,0,0,0,31.91,220a103.92,103.92,0,0,0,17.66,15.62,127.49,127.49,0,0,0,73-23.9C121.84,211.74,121.15,211.76,120.43,211.76Z"/><path class="cls-2" d="M245.83,182l0,0Z"/><path class="cls-2" d="M245,184.28c0-.09.06-.17.08-.25C245.08,184.11,245.05,184.19,245,184.28Z"/><path class="cls-2" d="M243.79,188.83l.06-.26Z"/><path class="cls-2" d="M244.35,186.54l.09-.34Z"/><path class="cls-2" d="M244.44,186.2c.18-.65.38-1.29.58-1.92C244.82,184.91,244.62,185.55,244.44,186.2Z"/><path class="cls-2" d="M243.85,188.57c.15-.69.32-1.37.5-2C244.17,187.2,244,187.88,243.85,188.57Z"/><path class="cls-2" d="M243,193.53h0c.21-1.62.48-3.18.81-4.69C243.46,190.34,243.18,191.91,243,193.53Z"/><path class="cls-2" d="M245.1,184c.23-.69.48-1.36.73-2C245.58,182.67,245.33,183.34,245.1,184Z"/><path class="cls-2" d="M299.86,182.07a32.13,32.13,0,0,1,9.26-4.63,89.14,89.14,0,0,1,10.81-2.75c3.88-.68,7.78-1.25,11.67-1.71a213.84,213.84,0,0,0,22.82-4.91l.22-.06c14.69-4,33-10.67,44.18-20.88A25.36,25.36,0,0,0,409,126.84v-7.36a51,51,0,0,0-2.81-17.69,33.67,33.67,0,0,0-4.39-8.25,49.59,49.59,0,0,0-18.54-15.26,82.94,82.94,0,0,0-25-7.38c-4.58-.62-9.13-1.1-13.63-1.41q-1.69-.12-3.39-.21Q336.14,69,331.13,69c-2.41,0-4.84.06-7.25.18a150.41,150.41,0,0,0-22,2.74,83.4,83.4,0,0,0-26.24,9.78,58.58,58.58,0,0,0-19.21,18.18q-7.56,11.34-8.58,28.49h0v0h30.64A24.57,24.57,0,0,0,300.21,115a21,21,0,0,1,6-7.2q7.21-5.39,19.14-6.06c1.1-.08,2.21-.11,3.37-.11,2.17,0,4.29.08,6.31.21s4.07.36,6,.64a27.33,27.33,0,0,1,10,3.44,18.69,18.69,0,0,1,6.86,7.21,15.61,15.61,0,0,1,1.12,2.51,30.17,30.17,0,0,1,1.45,10c.22,5-1.27,8.86-4.46,11.49s-7.56,4.64-13,6a133.67,133.67,0,0,1-18.87,3.09c-7.09.68-14.3,1.61-21.62,2.74a205.35,205.35,0,0,0-21.78,4.63,65,65,0,0,0-13.07,5,58.25,58.25,0,0,0-6.15,3.7A44.65,44.65,0,0,0,247.7,178a37,37,0,0,0-1.85,4l0,0c-.25.66-.5,1.33-.73,2,0,.08,0,.16-.08.25-.2.63-.4,1.27-.58,1.92l-.09.34c-.18.66-.35,1.34-.5,2l-.06.26c-.33,1.51-.6,3.07-.81,4.69-.12,1-.23,1.93-.31,2.93-.18,2.05-.27,4.17-.27,6.39q0,13.74,4.62,23.68A45,45,0,0,0,259.9,243a54.39,54.39,0,0,0,19.21,9.6,86.22,86.22,0,0,0,21.11,3.05c.81,0,1.61,0,2.42,0q3.11,0,6.16-.17l2.05-.13q3.19-.23,6.36-.65A111.28,111.28,0,0,0,335,250.88a63.57,63.57,0,0,0,27.34-16.7l.08-.08,0,0a1.49,1.49,0,0,0,0,.21,25.63,25.63,0,0,0,23.91,16.95H409V163.9A127.43,127.43,0,0,0,370,181.38l-.74.5a25.63,25.63,0,0,0-10.74,17.58c.06-.5.13-1,.22-1.49a38.39,38.39,0,0,1-3.77,9.16,32,32,0,0,1-11.67,11.5,33.1,33.1,0,0,1-12.57,4.14c-1.49.22-3,.39-4.69.5s-3.37.16-5.17.16h-.11c-.83,0-1.66,0-2.49-.06-.54,0-1.06,0-1.59-.09a.23.23,0,0,1-.14,0l-1.13-.08c-.36,0-.72-.05-1.08-.1l-1.88-.24c-.46-.06-.92-.12-1.38-.21l-1.38-.24a27.32,27.32,0,0,1-9.61-3.59,18.4,18.4,0,0,1-6.52-7.05,22.76,22.76,0,0,1-2.4-11,23.66,23.66,0,0,1,2.4-11.33v0A22.2,22.2,0,0,1,299.86,182.07Z"/></g></g></svg>