<svg width="20" height="20" viewBox="0 0 20 20" fill="none" xmlns="http://www.w3.org/2000/svg">
<g id="fi:briefcase">
<path id="Vector" d="M16.666 5.83594H3.33268C2.41221 5.83594 1.66602 6.58213 1.66602 7.5026V15.8359C1.66602 16.7564 2.41221 17.5026 3.33268 17.5026H16.666C17.5865 17.5026 18.3327 16.7564 18.3327 15.8359V7.5026C18.3327 6.58213 17.5865 5.83594 16.666 5.83594Z" stroke="#64748B" stroke-width="1.66667" stroke-linecap="round" stroke-linejoin="round"/>
<path id="Vector_2" d="M13.3327 17.5V4.16667C13.3327 3.72464 13.1571 3.30072 12.8445 2.98816C12.532 2.67559 12.108 2.5 11.666 2.5H8.33268C7.89065 2.5 7.46673 2.67559 7.15417 2.98816C6.84161 3.30072 6.66602 3.72464 6.66602 4.16667V17.5" stroke="#64748B" stroke-width="1.66667" stroke-linecap="round" stroke-linejoin="round"/>
</g>
</svg>
