<svg width="20" height="20" viewBox="0 0 20 20" fill="none" xmlns="http://www.w3.org/2000/svg">
<g id="fi:settings" clip-path="url(#clip0_4362_17900)">
<path id="Vector" d="M10 12.5C11.3807 12.5 12.5 11.3807 12.5 10C12.5 8.61929 11.3807 7.5 10 7.5C8.61929 7.5 7.5 8.61929 7.5 10C7.5 11.3807 8.61929 12.5 10 12.5Z" stroke="#64748B" stroke-width="1.66667" stroke-linecap="round" stroke-linejoin="round"/>
<path id="Vector_2" d="M16.1663 12.5026C16.0554 12.754 16.0223 13.0328 16.0713 13.3031C16.1204 13.5734 16.2492 13.8229 16.4413 14.0193L16.4913 14.0693C16.6463 14.2241 16.7692 14.4079 16.8531 14.6102C16.937 14.8125 16.9802 15.0294 16.9802 15.2484C16.9802 15.4675 16.937 15.6843 16.8531 15.8867C16.7692 16.089 16.6463 16.2728 16.4913 16.4276C16.3366 16.5826 16.1527 16.7055 15.9504 16.7894C15.7481 16.8732 15.5312 16.9164 15.3122 16.9164C15.0931 16.9164 14.8763 16.8732 14.6739 16.7894C14.4716 16.7055 14.2878 16.5826 14.133 16.4276L14.083 16.3776C13.8866 16.1855 13.6372 16.0566 13.3668 16.0076C13.0965 15.9586 12.8177 15.9917 12.5663 16.1026C12.3199 16.2082 12.1097 16.3836 11.9616 16.6072C11.8135 16.8308 11.7341 17.0928 11.733 17.3609V17.5026C11.733 17.9446 11.5574 18.3686 11.2449 18.6811C10.9323 18.9937 10.5084 19.1693 10.0663 19.1693C9.62431 19.1693 9.20039 18.9937 8.88783 18.6811C8.57527 18.3686 8.39967 17.9446 8.39967 17.5026V17.4276C8.39322 17.1518 8.30394 16.8843 8.14343 16.6599C7.98293 16.4354 7.75862 16.2645 7.49967 16.1693C7.24833 16.0583 6.96951 16.0253 6.69918 16.0743C6.42886 16.1233 6.17941 16.2522 5.98301 16.4443L5.93301 16.4943C5.77822 16.6492 5.59441 16.7722 5.39208 16.856C5.18974 16.9399 4.97287 16.9831 4.75384 16.9831C4.53482 16.9831 4.31794 16.9399 4.11561 16.856C3.91328 16.7722 3.72946 16.6492 3.57467 16.4943C3.41971 16.3395 3.29678 16.1557 3.21291 15.9533C3.12903 15.751 3.08586 15.5341 3.08586 15.3151C3.08586 15.0961 3.12903 14.8792 3.21291 14.6769C3.29678 14.4745 3.41971 14.2907 3.57467 14.1359L3.62467 14.0859C3.81679 13.8895 3.94566 13.6401 3.99468 13.3698C4.04369 13.0994 4.0106 12.8206 3.89967 12.5693C3.79404 12.3228 3.61864 12.1126 3.39506 11.9645C3.17149 11.8165 2.9095 11.737 2.64134 11.7359H2.49967C2.05765 11.7359 1.63372 11.5603 1.32116 11.2478C1.0086 10.9352 0.833008 10.5113 0.833008 10.0693C0.833008 9.62724 1.0086 9.20332 1.32116 8.89076C1.63372 8.5782 2.05765 8.4026 2.49967 8.4026H2.57467C2.8505 8.39615 3.11801 8.30687 3.34242 8.14636C3.56684 7.98586 3.73777 7.76155 3.83301 7.5026C3.94394 7.25126 3.97703 6.97244 3.92801 6.70211C3.879 6.43178 3.75012 6.18234 3.55801 5.98594L3.50801 5.93594C3.35305 5.78115 3.23012 5.59733 3.14624 5.395C3.06237 5.19267 3.0192 4.9758 3.0192 4.75677C3.0192 4.53775 3.06237 4.32087 3.14624 4.11854C3.23012 3.91621 3.35305 3.73239 3.50801 3.5776C3.6628 3.42264 3.84661 3.29971 4.04894 3.21584C4.25127 3.13196 4.46815 3.08879 4.68717 3.08879C4.9062 3.08879 5.12308 3.13196 5.32541 3.21584C5.52774 3.29971 5.71155 3.42264 5.86634 3.5776L5.91634 3.6276C6.11274 3.81972 6.36219 3.94859 6.63252 3.99761C6.90285 4.04662 7.18166 4.01353 7.43301 3.9026H7.49967C7.74615 3.79697 7.95636 3.62157 8.10442 3.39799C8.25248 3.17442 8.33194 2.91243 8.33301 2.64427V2.5026C8.33301 2.06058 8.5086 1.63665 8.82116 1.32409C9.13372 1.01153 9.55765 0.835938 9.99967 0.835938C10.4417 0.835938 10.8656 1.01153 11.1782 1.32409C11.4907 1.63665 11.6663 2.06058 11.6663 2.5026V2.5776C11.6674 2.84576 11.7469 3.10775 11.8949 3.33133C12.043 3.5549 12.2532 3.7303 12.4997 3.83594C12.751 3.94687 13.0298 3.97996 13.3002 3.93094C13.5705 3.88193 13.8199 3.75305 14.0163 3.56094L14.0663 3.51094C14.2211 3.35598 14.4049 3.23305 14.6073 3.14917C14.8096 3.0653 15.0265 3.02213 15.2455 3.02213C15.4645 3.02213 15.6814 3.0653 15.8837 3.14917C16.0861 3.23305 16.2699 3.35598 16.4247 3.51094C16.5796 3.66573 16.7026 3.84954 16.7864 4.05187C16.8703 4.2542 16.9135 4.47108 16.9135 4.6901C16.9135 4.90913 16.8703 5.12601 16.7864 5.32834C16.7026 5.53067 16.5796 5.71448 16.4247 5.86927L16.3747 5.91927C16.1826 6.11567 16.0537 6.36512 16.0047 6.63545C15.9557 6.90578 15.9887 7.18459 16.0997 7.43594V7.5026C16.2053 7.74908 16.3807 7.95929 16.6043 8.10735C16.8279 8.25541 17.0899 8.33487 17.358 8.33594H17.4997C17.9417 8.33594 18.3656 8.51153 18.6782 8.82409C18.9907 9.13665 19.1663 9.56058 19.1663 10.0026C19.1663 10.4446 18.9907 10.8686 18.6782 11.1811C18.3656 11.4937 17.9417 11.6693 17.4997 11.6693H17.4247C17.1565 11.6703 16.8945 11.7498 16.671 11.8979C16.4474 12.0459 16.272 12.2561 16.1663 12.5026V12.5026Z" stroke="#64748B" stroke-width="1.66667" stroke-linecap="round" stroke-linejoin="round"/>
</g>
<defs>
<clipPath id="clip0_4362_17900">
<rect width="20" height="20" fill="white"/>
</clipPath>
</defs>
</svg>
