<svg width="20" height="20" viewBox="0 0 20 20" fill="none" xmlns="http://www.w3.org/2000/svg">
<g id="fi:user">
<path id="Vector (Stroke)" d="M3.72039 12.8845C4.50179 12.1031 5.5616 11.6641 6.66667 11.6641H8.35205C8.81228 11.6641 9.18538 12.0372 9.18538 12.4974C9.18538 12.9576 8.81228 13.3307 8.35205 13.3307H6.66667C6.00363 13.3307 5.36774 13.5941 4.8989 14.063C4.43006 14.5318 4.16667 15.1677 4.16667 15.8307V17.4974C4.16667 17.9576 3.79357 18.3307 3.33333 18.3307C2.8731 18.3307 2.5 17.9576 2.5 17.4974V15.8307C2.5 14.7257 2.93899 13.6659 3.72039 12.8845Z" fill="#64748B"/>
<path id="Vector" d="M9.99935 9.16667C11.8403 9.16667 13.3327 7.67428 13.3327 5.83333C13.3327 3.99238 11.8403 2.5 9.99935 2.5C8.1584 2.5 6.66602 3.99238 6.66602 5.83333C6.66602 7.67428 8.1584 9.16667 9.99935 9.16667Z" stroke="#64748B" stroke-width="1.66667" stroke-linecap="round" stroke-linejoin="round"/>
<path id="Vector_2" d="M10.675 12.672L11.925 13.922C12.0025 14.0001 12.0946 14.0621 12.1962 14.1044C12.2977 14.1467 12.4067 14.1685 12.5167 14.1685C12.6267 14.1685 12.7356 14.1467 12.8372 14.1044C12.9387 14.0621 13.0309 14.0001 13.1083 13.922C13.2348 13.7893 13.314 13.6185 13.3336 13.4362C13.3531 13.2539 13.3121 13.0703 13.2167 12.9137H16.2667C16.4877 12.9137 16.6997 12.8259 16.8559 12.6696C17.0122 12.5133 17.1 12.3014 17.1 12.0804C17.1 11.8593 17.0122 11.6474 16.8559 11.4911C16.6997 11.3348 16.4877 11.247 16.2667 11.247H13.2167C13.3121 11.0904 13.3531 10.9068 13.3336 10.7245C13.314 10.5422 13.2348 10.3714 13.1083 10.2387C13.0309 10.1606 12.9387 10.0986 12.8372 10.0563C12.7356 10.014 12.6267 9.99219 12.5167 9.99219C12.4067 9.99219 12.2977 10.014 12.1962 10.0563C12.0946 10.0986 12.0025 10.1606 11.925 10.2387L10.675 11.4887C10.5991 11.5679 10.5397 11.6614 10.5 11.7637C10.4167 11.9666 10.4167 12.1941 10.5 12.397C10.5397 12.4993 10.5991 12.5928 10.675 12.672ZM19.5333 15.9304C19.4937 15.8281 19.4342 15.7346 19.3583 15.6554L18.1083 14.4054C18.0309 14.3272 17.9387 14.2653 17.8372 14.2229C17.7356 14.1806 17.6267 14.1589 17.5167 14.1589C17.4067 14.1589 17.2977 14.1806 17.1962 14.2229C17.0946 14.2653 17.0025 14.3272 16.925 14.4054C16.7985 14.5381 16.7194 14.7088 16.6998 14.8911C16.6802 15.0734 16.7213 15.2571 16.8167 15.4137H13.7667C13.5457 15.4137 13.3337 15.5015 13.1774 15.6578C13.0211 15.814 12.9333 16.026 12.9333 16.247C12.9333 16.468 13.0211 16.68 13.1774 16.8363C13.3337 16.9926 13.5457 17.0804 13.7667 17.0804H16.8167C16.7213 17.2369 16.6802 17.4206 16.6998 17.6029C16.7194 17.7852 16.7985 17.9559 16.925 18.0887C17.0025 18.1668 17.0946 18.2288 17.1962 18.2711C17.2977 18.3134 17.4067 18.3352 17.5167 18.3352C17.6267 18.3352 17.7356 18.3134 17.8372 18.2711C17.9387 18.2288 18.0309 18.1668 18.1083 18.0887L19.3583 16.8387C19.4342 16.7594 19.4937 16.666 19.5333 16.5637C19.6167 16.3608 19.6167 16.1332 19.5333 15.9304Z" fill="#64748B"/>
</g>
</svg>
