<svg width="20" height="20" viewBox="0 0 20 20" fill="none" xmlns="http://www.w3.org/2000/svg">
<g id="u:wallet">
<path id="Vector" d="M15.8327 5.83333H14.9993V5C14.9993 4.33696 14.736 3.70107 14.2671 3.23223C13.7983 2.76339 13.1624 2.5 12.4993 2.5H4.16602C3.50297 2.5 2.86709 2.76339 2.39825 3.23223C1.92941 3.70107 1.66602 4.33696 1.66602 5V15C1.66602 15.663 1.92941 16.2989 2.39825 16.7678C2.86709 17.2366 3.50297 17.5 4.16602 17.5H15.8327C16.4957 17.5 17.1316 17.2366 17.6004 16.7678C18.0693 16.2989 18.3327 15.663 18.3327 15V8.33333C18.3327 7.67029 18.0693 7.03441 17.6004 6.56557C17.1316 6.09673 16.4957 5.83333 15.8327 5.83333ZM4.16602 4.16667H12.4993C12.7204 4.16667 12.9323 4.25446 13.0886 4.41074C13.2449 4.56702 13.3327 4.77899 13.3327 5V5.83333H4.16602C3.945 5.83333 3.73304 5.74554 3.57676 5.58926C3.42048 5.43298 3.33268 5.22101 3.33268 5C3.33268 4.77899 3.42048 4.56702 3.57676 4.41074C3.73304 4.25446 3.945 4.16667 4.16602 4.16667ZM16.666 12.5H15.8327C15.6117 12.5 15.3997 12.4122 15.2434 12.2559C15.0871 12.0996 14.9993 11.8877 14.9993 11.6667C14.9993 11.4457 15.0871 11.2337 15.2434 11.0774C15.3997 10.9211 15.6117 10.8333 15.8327 10.8333H16.666V12.5ZM16.666 9.16667H15.8327C15.1696 9.16667 14.5338 9.43006 14.0649 9.8989C13.5961 10.3677 13.3327 11.0036 13.3327 11.6667C13.3327 12.3297 13.5961 12.9656 14.0649 13.4344C14.5338 13.9033 15.1696 14.1667 15.8327 14.1667H16.666V15C16.666 15.221 16.5782 15.433 16.4219 15.5893C16.2657 15.7455 16.0537 15.8333 15.8327 15.8333H4.16602C3.945 15.8333 3.73304 15.7455 3.57676 15.5893C3.42048 15.433 3.33268 15.221 3.33268 15V7.35833C3.60041 7.45251 3.88221 7.50042 4.16602 7.5H15.8327C16.0537 7.5 16.2657 7.5878 16.4219 7.74408C16.5782 7.90036 16.666 8.11232 16.666 8.33333V9.16667Z" fill="#64748B"/>
</g>
</svg>
