<svg width="40" height="40" viewBox="0 0 40 40" fill="none"
  xmlns="http://www.w3.org/2000/svg">
  <path d="M34.8335 3.33301H5.16683C4.6806 3.33301 4.21428 3.52616 3.87047 3.86998C3.52665 4.2138 3.3335 4.68011 3.3335 5.16634V34.833C3.3335 35.0738 3.38092 35.3122 3.47305 35.5346C3.56518 35.757 3.70023 35.9591 3.87047 36.1294C4.04071 36.2996 4.24281 36.4347 4.46524 36.5268C4.68767 36.6189 4.92607 36.6663 5.16683 36.6663H21.1335V23.7497H16.8002V18.7497H21.1335V14.9997C21.0437 14.1193 21.1477 13.2299 21.438 12.3939C21.7284 11.5579 22.1981 10.7956 22.8143 10.1604C23.4304 9.52514 24.1781 9.03241 25.0049 8.71674C25.8316 8.40107 26.7174 8.27009 27.6002 8.33301C28.8974 8.32502 30.194 8.3918 31.4835 8.53301V13.033H28.8335C26.7335 13.033 26.3335 14.033 26.3335 15.483V18.6997H31.3335L30.6835 23.6997H26.3335V36.6663H34.8335C35.0743 36.6663 35.3127 36.6189 35.5351 36.5268C35.7575 36.4347 35.9596 36.2996 36.1299 36.1294C36.3001 35.9591 36.4351 35.757 36.5273 35.5346C36.6194 35.3122 36.6668 35.0738 36.6668 34.833V5.16634C36.6668 4.92558 36.6194 4.68719 36.5273 4.46475C36.4351 4.24232 36.3001 4.04022 36.1299 3.86998C35.9596 3.69974 35.7575 3.5647 35.5351 3.47256C35.3127 3.38043 35.0743 3.33301 34.8335 3.33301Z" fill="white"/>
</svg>
