<svg width="40" height="40" viewBox="0 0 40 40" fill="none"
  xmlns="http://www.w3.org/2000/svg">
  <path d="M20.0002 3.74414C16.0427 3.7443 12.2143 5.15266 9.20015 7.71722C6.18599 10.2818 4.18271 13.8352 3.54876 17.7416C2.91482 21.648 3.69157 25.6526 5.74004 29.0387C7.78851 32.4249 10.975 34.9716 14.7294 36.2233C15.5627 36.3692 15.8752 35.8692 15.8752 35.4316C15.8752 35.0358 15.8544 33.7233 15.8544 32.3275C11.6669 33.0983 10.5835 31.3067 10.2502 30.3692C9.88033 29.4574 9.294 28.6494 8.54187 28.015C7.95854 27.7025 7.12521 26.9316 8.52102 26.9108C9.054 26.9687 9.56519 27.1541 10.0113 27.4515C10.4573 27.7489 10.8251 28.1494 11.0835 28.6191C11.3115 29.0286 11.618 29.3891 11.9855 29.68C12.353 29.9708 12.7743 30.1862 13.2253 30.314C13.6762 30.4417 14.1479 30.4792 14.6133 30.4243C15.0788 30.3694 15.5288 30.2232 15.9377 29.9941C16.0098 29.1468 16.3874 28.3546 17.0002 27.765C13.2919 27.3484 9.41687 25.9108 9.41687 19.5359C9.39345 17.8794 10.0047 16.2768 11.1252 15.0567C10.6157 13.6171 10.6753 12.0372 11.2919 10.64C11.2919 10.64 12.6877 10.2025 15.8752 12.3484C18.6024 11.5983 21.4814 11.5983 24.2085 12.3484C27.396 10.1817 28.7919 10.64 28.7919 10.64C29.4085 12.0371 29.4682 13.6171 28.9585 15.0567C30.0824 16.2747 30.6942 17.8787 30.6669 19.5359C30.6669 25.9316 26.771 27.3484 23.0627 27.765C23.4605 28.1682 23.7668 28.6522 23.9609 29.1842C24.155 29.7162 24.2324 30.2838 24.1877 30.8484C24.1877 33.0776 24.1669 34.8692 24.1669 35.4317C24.1669 35.8692 24.4794 36.39 25.3127 36.2234C29.0605 34.9615 32.2378 32.4088 34.2776 29.0209C36.3173 25.633 37.0867 21.6305 36.4483 17.7279C35.81 13.8252 33.8055 10.2764 30.7927 7.71499C27.7798 5.15356 23.9547 3.7462 20.0002 3.74414Z" fill="white"/>
</svg>
