<?xml version="1.0" encoding="UTF-8" standalone="no"?>
<!DOCTYPE svg PUBLIC "-//W3C//DTD SVG 1.1//EN" "http://www.w3.org/Graphics/SVG/1.1/DTD/svg11.dtd">
<svg width="100%" height="100%" viewBox="0 0 40 40" version="1.1" xmlns="http://www.w3.org/2000/svg" xmlns:xlink="http://www.w3.org/1999/xlink" xml:space="preserve" xmlns:serif="http://www.serif.com/" style="fill-rule:evenodd;clip-rule:evenodd;stroke-linejoin:round;stroke-miterlimit:2;">
    <g>
        <g id="LOGO">
            <path d="M20,3.248C29.287,3.248 36.827,10.754 36.827,20C36.827,29.246 29.287,36.752 20,36.752C10.713,36.752 3.173,29.246 3.173,20C3.173,10.754 10.713,3.248 20,3.248ZM30.729,18.54L30.698,18.461L27.677,10.576C27.616,10.422 27.507,10.29 27.366,10.202C27.079,10.023 26.708,10.043 26.442,10.251C26.312,10.356 26.219,10.498 26.173,10.658L24.133,16.899L15.873,16.899L13.833,10.658C13.789,10.497 13.695,10.355 13.565,10.25C13.298,10.042 12.928,10.022 12.64,10.2C12.5,10.29 12.391,10.421 12.33,10.575L9.303,18.456L9.273,18.536C8.382,20.864 9.144,23.519 11.133,25.02L11.171,25.047L15.774,28.494L18.051,30.217L19.438,31.264C19.77,31.517 20.233,31.517 20.566,31.264L21.953,30.217L24.229,28.494L28.859,25.027L28.871,25.017C30.856,23.516 31.617,20.866 30.729,18.54Z" style="fill:white;"/>
        </g>
    </g>
</svg>
