<svg width="40" height="40" viewBox="0 0 40 40" fill="none"
  xmlns="http://www.w3.org/2000/svg">
  <path d="M20.0002 15.8663C19.1827 15.8663 18.3835 16.1088 17.7038 16.5629C17.0241 17.0171 16.4943 17.6626 16.1815 18.4179C15.8686 19.1732 15.7868 20.0043 15.9462 20.806C16.1057 21.6078 16.4994 22.3443 17.0775 22.9224C17.6555 23.5004 18.392 23.8941 19.1938 24.0536C19.9956 24.2131 20.8267 24.1312 21.5819 23.8184C22.3372 23.5055 22.9827 22.9758 23.4369 22.296C23.8911 21.6163 24.1335 20.8172 24.1335 19.9997C24.1335 19.4569 24.0266 18.9194 23.8189 18.4179C23.6111 17.9164 23.3067 17.4608 22.9229 17.077C22.5391 16.6932 22.0834 16.3887 21.5819 16.181C21.0804 15.9733 20.543 15.8663 20.0002 15.8663ZM36.5502 11.783C36.5414 10.4959 36.3044 9.22063 35.8502 8.01634C35.5156 7.13511 34.998 6.33483 34.3315 5.66832C33.665 5.0018 32.8647 4.4842 31.9835 4.14967C30.7792 3.69545 29.5039 3.45844 28.2168 3.44967C26.0668 3.33301 25.4335 3.33301 20.0002 3.33301C14.5668 3.33301 13.9335 3.33301 11.7835 3.44967C10.4964 3.45844 9.22111 3.69545 8.01683 4.14967C7.1356 4.4842 6.33532 5.0018 5.6688 5.66832C5.00229 6.33483 4.48469 7.13511 4.15016 8.01634C3.69594 9.22063 3.45893 10.4959 3.45016 11.783C3.3335 13.933 3.3335 14.5663 3.3335 19.9997C3.3335 25.433 3.3335 26.0663 3.45016 28.2163C3.4681 29.5079 3.70479 30.7872 4.15016 31.9997C4.48321 32.8769 5.00038 33.6725 5.66683 34.333C6.33049 35.0035 7.13248 35.5211 8.01683 35.8497C9.22111 36.3039 10.4964 36.5409 11.7835 36.5497C13.9335 36.6663 14.5668 36.6663 20.0002 36.6663C25.4335 36.6663 26.0668 36.6663 28.2168 36.5497C29.5039 36.5409 30.7792 36.3039 31.9835 35.8497C32.8678 35.5211 33.6698 35.0035 34.3335 34.333C34.9999 33.6725 35.5171 32.8769 35.8502 31.9997C36.304 30.7895 36.5409 29.5088 36.5502 28.2163C36.6668 26.0663 36.6668 25.433 36.6668 19.9997C36.6668 14.5663 36.6668 13.933 36.5502 11.783ZM32.3168 25.1163C32.2633 26.1448 32.0438 27.1579 31.6668 28.1163C31.3433 28.9158 30.8623 29.6421 30.2524 30.2519C29.6426 30.8618 28.9163 31.3428 28.1168 31.6663C27.1494 32.0223 26.1306 32.2193 25.1002 32.2497C23.7835 32.2497 23.4335 32.2497 20.0002 32.2497C16.5668 32.2497 16.2168 32.2497 14.9002 32.2497C13.8697 32.2193 12.851 32.0223 11.8835 31.6663C11.057 31.3592 10.3106 30.8692 9.70016 30.233C9.09627 29.6351 8.6299 28.9128 8.3335 28.1163C7.97609 27.1499 7.78451 26.13 7.76683 25.0997C7.76683 23.783 7.76683 23.433 7.76683 19.9997C7.76683 16.5663 7.76683 16.2163 7.76683 14.8997C7.78451 13.8694 7.97609 12.8495 8.3335 11.883C8.64063 11.0565 9.13062 10.3101 9.76683 9.69967C10.3674 9.09905 11.0889 8.63316 11.8835 8.33301C12.851 7.97702 13.8697 7.78002 14.9002 7.74967C16.2168 7.74967 16.5668 7.74967 20.0002 7.74967C23.4335 7.74967 23.7835 7.74967 25.1002 7.74967C26.1306 7.78002 27.1494 7.97702 28.1168 8.33301C28.9433 8.64014 29.6897 9.13013 30.3002 9.76634C30.9041 10.3643 31.3704 11.0866 31.6668 11.883C32.0228 12.8505 32.2198 13.8692 32.2502 14.8997C32.2502 16.2163 32.2502 16.5663 32.2502 19.9997C32.2502 23.433 32.3668 23.783 32.3168 25.0997V25.1163ZM29.6502 12.7163C29.4517 12.178 29.1389 11.6891 28.7331 11.2834C28.3274 10.8776 27.8385 10.5648 27.3002 10.3663C26.5609 10.1101 25.7824 9.98599 25.0002 9.99967C23.7002 9.99967 23.3335 9.99967 20.0002 9.99967C16.6668 9.99967 16.3002 9.99967 15.0002 9.99967C14.2139 10.0074 13.4353 10.1541 12.7002 10.433C12.17 10.6224 11.6863 10.9225 11.2811 11.3133C10.876 11.7042 10.5586 12.1767 10.3502 12.6997C10.1081 13.442 9.98988 14.219 10.0002 14.9997C10.0002 16.2997 10.0002 16.6663 10.0002 19.9997C10.0002 23.333 10.0002 23.6997 10.0002 24.9997C10.0167 25.785 10.1631 26.5622 10.4335 27.2997C10.6319 27.838 10.9448 28.3269 11.3505 28.7327C11.7562 29.1384 12.2451 29.4512 12.7835 29.6497C13.4946 29.9112 14.2429 30.0575 15.0002 30.083C16.3002 30.083 16.6668 30.083 20.0002 30.083C23.3335 30.083 23.7002 30.083 25.0002 30.083C25.7864 30.0753 26.565 29.9286 27.3002 29.6497C27.8385 29.4512 28.3274 29.1384 28.7331 28.7327C29.1389 28.3269 29.4517 27.838 29.6502 27.2997C29.9291 26.5646 30.0758 25.7859 30.0835 24.9997C30.0835 23.6997 30.0835 23.333 30.0835 19.9997C30.0835 16.6663 30.0835 16.2997 30.0835 14.9997C30.084 14.2127 29.937 13.4325 29.6502 12.6997V12.7163ZM20.0002 26.3663C19.1649 26.3663 18.3378 26.2015 17.5663 25.8814C16.7948 25.5612 16.094 25.092 15.5041 24.5006C14.9143 23.9092 14.4469 23.2072 14.1287 22.4348C13.8106 21.6625 13.648 20.835 13.6502 19.9997C13.6502 18.7398 14.024 17.5082 14.7243 16.4608C15.4246 15.4135 16.4199 14.5974 17.5843 14.1161C18.7486 13.6347 20.0296 13.5096 21.265 13.7566C22.5005 14.0036 23.6349 14.6116 24.5246 15.5037C25.4144 16.3957 26.0194 17.5317 26.2632 18.7678C26.507 20.004 26.3785 21.2846 25.8941 22.4477C25.4096 23.6107 24.591 24.6039 23.5418 25.3015C22.4926 25.999 21.2601 26.3696 20.0002 26.3663ZM26.6668 14.883C26.2984 14.844 25.9574 14.67 25.7096 14.3946C25.4618 14.1192 25.3247 13.7618 25.3247 13.3913C25.3247 13.0209 25.4618 12.6635 25.7096 12.3881C25.9574 12.1126 26.2984 11.9387 26.6668 11.8997C27.0353 11.9387 27.3762 12.1126 27.624 12.3881C27.8718 12.6635 28.0089 13.0209 28.0089 13.3913C28.0089 13.7618 27.8718 14.1192 27.624 14.3946C27.3762 14.67 27.0353 14.844 26.6668 14.883Z" fill="white"/>
</svg>
