<svg width="40" height="40" viewBox="0 0 40 40" fill="none"
  xmlns="http://www.w3.org/2000/svg">
  <path d="M34.1164 3.33324H5.88311C5.56574 3.32883 5.25061 3.38699 4.95571 3.50438C4.66082 3.62177 4.39194 3.79611 4.16443 4.01743C3.93692 4.23875 3.75524 4.50271 3.62976 4.79426C3.50428 5.0858 3.43745 5.3992 3.43311 5.71657V34.2832C3.43745 34.6006 3.50428 34.914 3.62976 35.2056C3.75524 35.4971 3.93692 35.7611 4.16443 35.9824C4.39194 36.2037 4.66082 36.378 4.95571 36.4954C5.25061 36.6128 5.56574 36.671 5.88311 36.6666H34.1164C34.4338 36.671 34.7489 36.6128 35.0438 36.4954C35.3387 36.378 35.6076 36.2037 35.8351 35.9824C36.0626 35.7611 36.2443 35.4971 36.3698 35.2056C36.4953 34.914 36.5621 34.6006 36.5664 34.2832V5.71657C36.5621 5.3992 36.4953 5.0858 36.3698 4.79426C36.2443 4.50271 36.0626 4.23875 35.8351 4.01743C35.6076 3.79611 35.3387 3.62177 35.0438 3.50438C34.7489 3.38699 34.4338 3.32883 34.1164 3.33324ZM13.4831 31.2332H8.48311V16.2332H13.4831V31.2332ZM10.9831 14.1332C10.2935 14.1332 9.63222 13.8593 9.14463 13.3717C8.65703 12.8841 8.38311 12.2228 8.38311 11.5332C8.38311 10.8437 8.65703 10.1824 9.14463 9.69476C9.63222 9.20717 10.2935 8.93324 10.9831 8.93324C11.3493 8.89172 11.7201 8.928 12.0712 9.03971C12.4224 9.15143 12.746 9.33606 13.0209 9.58151C13.2957 9.82696 13.5156 10.1277 13.6662 10.464C13.8168 10.8004 13.8946 11.1647 13.8946 11.5332C13.8946 11.9017 13.8168 12.2661 13.6662 12.6024C13.5156 12.9388 13.2957 13.2395 13.0209 13.485C12.746 13.7304 12.4224 13.9151 12.0712 14.0268C11.7201 14.1385 11.3493 14.1748 10.9831 14.1332ZM31.5164 31.2332H26.5164V23.1832C26.5164 21.1666 25.7998 19.8499 23.9831 19.8499C23.4209 19.854 22.8734 20.0304 22.4145 20.3552C21.9556 20.68 21.6072 21.1377 21.4164 21.6666C21.286 22.0583 21.2295 22.4709 21.2498 22.8832V31.2166H16.2498C16.2498 31.2166 16.2498 17.5832 16.2498 16.2166H21.2498V18.3332C21.704 17.5451 22.3646 16.8958 23.1605 16.4552C23.9564 16.0147 24.8574 15.7997 25.7664 15.8332C29.0998 15.8332 31.5164 17.9832 31.5164 22.5999V31.2332Z" fill="white"/>
</svg>
