<svg width="40" height="40" viewBox="0 0 40 40" fill="none"
  xmlns="http://www.w3.org/2000/svg">
  <path d="M19.9904 3.33301C16.694 3.33301 13.4717 4.31049 10.7309 6.14185C7.99008 7.9732 5.85387 10.5762 4.59241 13.6216C3.33095 16.6671 3.0009 20.0182 3.64398 23.2512C4.28707 26.4842 5.87442 29.4539 8.20529 31.7848C10.5362 34.1157 13.5059 35.703 16.7389 36.3461C19.9719 36.9892 23.323 36.6591 26.3685 35.3977C29.4139 34.1362 32.0169 32 33.8482 29.2592C35.6796 26.5184 36.6571 23.296 36.6571 19.9997C36.6572 17.8109 36.2263 15.6436 35.3888 13.6214C34.5513 11.5992 33.3236 9.76184 31.7759 8.21416C30.2282 6.66648 28.3909 5.43883 26.3687 4.60131C24.3465 3.7638 22.1792 3.33283 19.9904 3.33301ZM25.2896 28.5871C25.2272 28.7427 25.1323 28.8831 25.0112 28.999C24.8901 29.1148 24.7457 29.2035 24.5875 29.259C24.4294 29.3144 24.2612 29.3355 24.0942 29.3206C23.9273 29.3058 23.7655 29.2554 23.6196 29.173L19.0951 25.6573L16.1913 28.3363C16.1239 28.3861 16.0451 28.4182 15.9621 28.4295C15.8791 28.4408 15.7945 28.4311 15.7163 28.4012L16.2729 23.4205L16.2908 23.4346L16.3021 23.3363C16.3021 23.3363 24.4438 15.9238 24.7755 15.6079C25.1113 15.2929 25.0005 15.2246 25.0005 15.2246C25.0196 14.8404 24.3979 15.2246 24.3979 15.2246L13.6104 22.1647L9.11792 20.6347C9.11792 20.6347 8.42792 20.3872 8.36292 19.843C8.29459 19.303 9.14041 19.0097 9.14041 19.0097L27.0021 11.9138C27.0021 11.9138 28.4704 11.2596 28.4704 12.343L25.2896 28.5871Z" fill="white"/>
</svg>
