<svg width="40" height="40" viewBox="0 0 40 40" fill="none"
  xmlns="http://www.w3.org/2000/svg">
  <path d="M36.6668 9.66702C35.4141 10.2105 34.0892 10.5698 32.7335 10.7337C34.1638 9.87922 35.2356 8.53499 35.7502 6.95035C34.4061 7.75045 32.9348 8.31418 31.4002 8.61702C30.3744 7.50464 29.0084 6.76418 27.5165 6.51177C26.0246 6.25936 24.4911 6.50928 23.1565 7.22233C21.8219 7.93538 20.7617 9.07123 20.1422 10.4517C19.5227 11.8323 19.379 13.3793 19.7335 14.8503C17.0159 14.7129 14.3576 14.0053 11.9313 12.7735C9.50494 11.5416 7.36491 9.81317 5.65016 7.70035C5.04873 8.75063 4.73269 9.94005 4.7335 11.1503C4.73136 12.2743 5.00719 13.3814 5.53642 14.373C6.06565 15.3645 6.83186 16.2099 7.76683 16.8337C6.68012 16.8041 5.61664 16.5125 4.66683 15.9837V16.067C4.67497 17.6418 5.22682 19.1655 6.22902 20.3803C7.23122 21.5951 8.62226 22.4264 10.1668 22.7337C9.57226 22.9146 8.95495 23.01 8.3335 23.017C7.90331 23.012 7.4742 22.973 7.05016 22.9004C7.49001 24.255 8.3412 25.4389 9.48529 26.2873C10.6294 27.1356 12.0095 27.6063 13.4335 27.6337C11.0288 29.5258 8.05997 30.5584 5.00016 30.567C4.44305 30.5688 3.88639 30.5354 3.3335 30.467C6.45754 32.4841 10.0982 33.5549 13.8168 33.5504C16.383 33.577 18.9287 33.092 21.3054 32.1238C23.682 31.1556 25.8419 29.7235 27.6588 27.9112C29.4758 26.0989 30.9134 23.9427 31.8878 21.5685C32.8621 19.1944 33.3536 16.6499 33.3335 14.0837C33.3335 13.8003 33.3335 13.5003 33.3335 13.2003C34.6413 12.225 35.7693 11.0294 36.6668 9.66702Z" fill="white"/>
</svg>
