<svg width="526" height="259" viewBox="0 0 526 259" fill="none" xmlns="http://www.w3.org/2000/svg">
<path d="M171.963 34.128V42H147.579V7.536H171.627V15.408H156.651V20.352H170.235V28.224H156.651V34.128H171.963ZM210.229 42H201.157V7.536H215.269C224.581 7.536 229.909 11.712 229.909 19.056C229.909 23.472 227.269 27.12 222.613 29.088L231.061 42H220.261L213.205 30.528H210.229V42ZM210.229 15.024V23.04H214.885C218.917 23.04 220.789 21.792 220.789 19.056C220.789 16.32 218.917 15.024 214.885 15.024H210.229ZM268.213 42H259.141V7.536H273.253C282.565 7.536 287.893 11.712 287.893 19.056C287.893 23.472 285.253 27.12 280.597 29.088L289.045 42H278.245L271.189 30.528H268.213V42ZM268.213 15.024V23.04H272.869C276.901 23.04 278.773 21.792 278.773 19.056C278.773 16.32 276.901 15.024 272.869 15.024H268.213ZM332.87 42.72C322.934 42.72 315.11 35.184 315.11 24.72C315.11 14.256 322.934 6.816 332.87 6.816C342.854 6.816 350.678 14.256 350.678 24.72C350.678 35.184 342.854 42.72 332.87 42.72ZM332.87 34.608C338.294 34.608 341.318 30.144 341.318 24.72C341.318 19.296 338.294 14.928 332.87 14.928C327.446 14.928 324.422 19.296 324.422 24.72C324.422 30.144 327.446 34.608 332.87 34.608ZM388.448 42H379.376V7.536H393.488C402.8 7.536 408.128 11.712 408.128 19.056C408.128 23.472 405.488 27.12 400.832 29.088L409.28 42H398.48L391.424 30.528H388.448V42ZM388.448 15.024V23.04H393.104C397.136 23.04 399.008 21.792 399.008 19.056C399.008 16.32 397.136 15.024 393.104 15.024H388.448Z" fill="#E2E8F0"/>
<path d="M525.671 221.637H497.797V256.12H448.659V221.637H357.28V184.568L457.567 61.8672H497.797V178.534H525.671V221.637ZM410.728 178.534H448.659V130.833L410.728 178.534Z" fill="#E2E8F0"/>
<path d="M186.336 159.287C186.336 94.9195 214.785 59 264.497 59C314.21 59 342.658 94.9195 342.658 159.287C342.658 223.368 314.785 259 264.497 259C214.21 259 186.336 223.368 186.336 159.287ZM237.198 159.287C237.198 195.207 246.394 214.747 264.497 214.747C282.026 214.747 291.796 195.207 291.796 159.287C291.796 123.08 282.026 103.253 264.497 103.253C246.969 103.253 237.198 123.368 237.198 159.287Z" fill="#E2E8F0"/>
<path d="M168.72 221.637H140.846V256.12H91.7084V221.637H0.329102V184.568L100.616 61.8672H140.846V178.534H168.72V221.637ZM53.7774 178.534H91.7084V130.833L53.7774 178.534Z" fill="#E2E8F0"/>
<g clip-path="url(#clip0_5594_28405)">
<g clip-path="url(#clip1_5594_28405)">
<path d="M295.543 109.727C296.041 108.364 296.94 107.185 298.122 106.343C299.304 105.502 300.713 105.038 302.164 105.013H347.438C348.223 104.978 349.006 105.117 349.732 105.42C350.458 105.723 351.107 106.182 351.635 106.764C352.163 107.347 352.556 108.039 352.786 108.79C353.017 109.542 353.078 110.335 352.967 111.114L341.269 209.306C341.02 210.978 340.184 212.507 338.91 213.62C337.637 214.732 336.01 215.356 334.32 215.379H190.576C189.796 215.407 189.019 215.265 188.3 214.962C187.581 214.658 186.936 214.201 186.412 213.623C185.888 213.044 185.497 212.358 185.266 211.613C185.035 210.867 184.97 210.08 185.075 209.306L194.894 126.807C195.141 125.134 195.976 123.605 197.248 122.492C198.521 121.38 200.148 120.756 201.838 120.734H280.065C283.454 120.676 286.747 119.593 289.509 117.628C292.272 115.664 294.375 112.909 295.543 109.727Z" fill="#64748B"/>
<path d="M187.776 209.639C187.72 210.3 188.241 210.867 188.904 210.867H336.827C337.415 210.867 337.905 210.416 337.955 209.83L346.325 111.032C346.381 110.372 345.86 109.805 345.198 109.805H197.269C196.681 109.805 196.19 110.255 196.141 110.841L187.776 209.639Z" fill="#CBD5E1"/>
<path d="M187.672 210.867H337.867L344.064 109.805H196.229L187.672 210.867Z" fill="#CBD5E1"/>
<path d="M187.731 209.677C187.699 210.323 188.214 210.864 188.861 210.864H336.79C337.393 210.864 337.89 210.391 337.92 209.789L342.975 107.782C343.007 107.135 342.492 106.594 341.845 106.594H193.91C193.307 106.594 192.81 107.067 192.78 107.67L187.731 209.677Z" fill="#E2E8F0"/>
<path d="M187.672 210.864H337.867L339.91 106.594H192.833L187.672 210.864Z" fill="#CBD5E1"/>
<path d="M187.681 209.717C187.676 210.346 188.184 210.858 188.813 210.858H336.745C337.366 210.858 337.871 210.357 337.876 209.736L338.752 104.899C338.757 104.27 338.249 103.758 337.62 103.758H189.688C189.067 103.758 188.562 104.259 188.557 104.88L187.681 209.717Z" fill="#F1F5F9"/>
<path d="M187.649 209.754C187.662 210.37 188.165 210.863 188.781 210.863H336.701C337.339 210.863 337.851 210.336 337.833 209.698L334.82 106.888C334.803 106.276 334.301 105.789 333.689 105.789H186.71C186.076 105.789 185.566 106.31 185.578 106.944L187.649 209.754Z" fill="#E2E8F0"/>
<path d="M187.626 209.781C187.651 210.387 188.15 210.864 188.756 210.864H336.686C337.33 210.864 337.844 210.328 337.817 209.684L333.459 107.677C333.434 107.072 332.935 106.594 332.329 106.594H184.394C183.75 106.594 183.235 107.13 183.263 107.774L187.626 209.781Z" fill="#F8FAFC"/>
<path d="M187.599 209.8C187.64 210.393 188.133 210.854 188.728 210.854H336.654C337.31 210.854 337.829 210.298 337.783 209.644L330.843 109.21C330.802 108.617 330.309 108.156 329.714 108.156H181.788C181.132 108.156 180.614 108.712 180.659 109.366L187.599 209.8Z" fill="#F1F5F9"/>
<path d="M187.588 209.819C187.635 210.407 188.126 210.859 188.716 210.859H336.64C337.301 210.859 337.821 210.295 337.768 209.636L329.723 110.08C329.675 109.492 329.184 109.039 328.594 109.039H180.67C180.009 109.039 179.489 109.603 179.542 110.262L187.588 209.819Z" fill="white"/>
<path d="M262.888 116.113C262.897 115.458 263.036 114.813 263.299 114.213C263.561 113.614 263.941 113.074 264.416 112.623C264.89 112.173 265.451 111.823 266.063 111.593C266.675 111.364 267.328 111.259 267.981 111.285H313.255C316.69 111.285 320.046 114.07 320.691 117.51L338.586 209.189C339.259 212.625 337.018 215.415 333.577 215.415H189.834C186.398 215.415 183.043 212.625 182.397 209.189L167.689 133.611C167.016 130.176 169.262 127.386 172.697 127.386H250.925C257.693 127.386 262.645 122.711 262.888 116.113Z" fill="#CBD5E1"/>
<g filter="url(#filter0_dd_5594_28405)">
<path d="M240.418 153.531L252.017 167.703L268.402 169.989L260.666 181.014L268.398 196.589L252.018 189.232L240.419 196.589L238.029 181.014L223.129 169.989L238.028 167.703L240.418 153.531Z" fill="#F8FAFC"/>
</g>
</g>
</g>
<defs>
<filter id="filter0_dd_5594_28405" x="221.997" y="153.531" width="47.5371" height="44.1865" filterUnits="userSpaceOnUse" color-interpolation-filters="sRGB">
<feFlood flood-opacity="0" result="BackgroundImageFix"/>
<feColorMatrix in="SourceAlpha" type="matrix" values="0 0 0 0 0 0 0 0 0 0 0 0 0 0 0 0 0 0 127 0" result="hardAlpha"/>
<feOffset dx="-0.56592" dy="0.56592"/>
<feGaussianBlur stdDeviation="0.28296"/>
<feComposite in2="hardAlpha" operator="out"/>
<feColorMatrix type="matrix" values="0 0 0 0 0 0 0 0 0 0 0 0 0 0 0 0 0 0 0.25 0"/>
<feBlend mode="overlay" in2="BackgroundImageFix" result="effect1_dropShadow_5594_28405"/>
<feColorMatrix in="SourceAlpha" type="matrix" values="0 0 0 0 0 0 0 0 0 0 0 0 0 0 0 0 0 0 127 0" result="hardAlpha"/>
<feOffset dx="0.56592" dy="0.56592"/>
<feGaussianBlur stdDeviation="0.28296"/>
<feComposite in2="hardAlpha" operator="out"/>
<feColorMatrix type="matrix" values="0 0 0 0 1 0 0 0 0 1 0 0 0 0 1 0 0 0 0.25 0"/>
<feBlend mode="screen" in2="effect1_dropShadow_5594_28405" result="effect2_dropShadow_5594_28405"/>
<feBlend mode="normal" in="SourceGraphic" in2="effect2_dropShadow_5594_28405" result="shape"/>
</filter>
<clipPath id="clip0_5594_28405">
<rect width="185.441" height="139.08" fill="white" transform="translate(167.571 90.0391)"/>
</clipPath>
<clipPath id="clip1_5594_28405">
<rect width="185.441" height="111.622" fill="white" transform="translate(167.571 103.758)"/>
</clipPath>
</defs>
</svg>
