<svg width="16" height="16" viewBox="0 0 16 16" fill="none" xmlns="http://www.w3.org/2000/svg">
<g id="alert">
<path id="Icon" fill-rule="evenodd" clip-rule="evenodd" d="M8.22056 1.75715C8.12638 1.58095 7.87377 1.58095 7.77959 1.75716L1.69795 13.1357C1.60894 13.3023 1.72961 13.5036 1.91843 13.5036H14.0817C14.2706 13.5036 14.3912 13.3023 14.3022 13.1357L8.22056 1.75715ZM6.4567 1.05009C7.11596 -0.183363 8.8842 -0.183364 9.54346 1.05009L15.6251 12.4287C16.2482 13.5944 15.4035 15.0036 14.0817 15.0036H1.91843C0.596638 15.0036 -0.248009 13.5944 0.375058 12.4287L6.4567 1.05009ZM9.00008 11.0036C9.00008 11.5559 8.55237 12.0036 8.00008 12.0036C7.4478 12.0036 7.00008 11.5559 7.00008 11.0036C7.00008 10.4513 7.4478 10.0036 8.00008 10.0036C8.55237 10.0036 9.00008 10.4513 9.00008 11.0036ZM8.75008 5.75357C8.75008 5.33936 8.41429 5.00357 8.00008 5.00357C7.58587 5.00357 7.25008 5.33936 7.25008 5.75357V8.25357C7.25008 8.66778 7.58587 9.00357 8.00008 9.00357C8.41429 9.00357 8.75008 8.66778 8.75008 8.25357V5.75357Z" fill="#9A6700"/>
</g>
</svg>
