<svg width="24" height="24" viewBox="0 0 24 24" fill="none" xmlns="http://www.w3.org/2000/svg">
<g clip-path="url(#clip0_8025_58883)">
<path d="M6.96 4.8125C7.668 4.8125 8.3055 4.874 8.886 5C9.468 5.1215 9.96 5.3285 10.377 5.609C10.7895 5.891 11.1075 6.266 11.343 6.734C11.568 7.1975 11.6805 7.7795 11.6805 8.468C11.6805 9.2135 11.5125 9.8315 11.1735 10.3295C10.8315 10.826 10.335 11.2295 9.669 11.549C10.578 11.8115 11.2485 12.2705 11.6985 12.923C12.1485 13.58 12.3645 14.3675 12.3645 15.2945C12.3645 16.0445 12.219 16.6865 11.934 17.231C11.6558 17.7623 11.2559 18.2203 10.767 18.5675C10.2795 18.914 9.717 19.1675 9.0885 19.331C8.45838 19.4966 7.80953 19.5803 7.158 19.58H0V4.814H6.9615L6.96 4.8125ZM6.537 10.775C7.113 10.775 7.5915 10.6385 7.9665 10.3625C8.3415 10.091 8.52 9.641 8.52 9.0215C8.52 8.6795 8.4585 8.393 8.337 8.1725C8.21943 7.95859 8.04635 7.78033 7.836 7.6565C7.61588 7.52506 7.3724 7.43745 7.119 7.3985C6.84396 7.34746 6.56473 7.32235 6.285 7.3235H3.2475V10.7735H6.5385L6.537 10.775ZM6.7155 17.0615C7.035 17.0615 7.3395 17.033 7.6245 16.967C7.89689 16.9129 8.15619 16.8064 8.388 16.6535C8.604 16.508 8.787 16.316 8.9175 16.0625C9.0495 15.8135 9.1095 15.4955 9.1095 15.107C9.1095 14.348 8.8935 13.8035 8.4675 13.475C8.0415 13.151 7.4745 12.992 6.771 12.992H3.246V17.0555H6.7155V17.0615ZM16.995 17.0105C17.436 17.441 18.069 17.657 18.894 17.657C19.485 17.657 20.001 17.507 20.427 17.207C20.853 16.907 21.111 16.589 21.21 16.2605H23.7975C23.3805 17.549 22.752 18.464 21.8895 19.0175C21.0405 19.571 20.001 19.8515 18.795 19.8515C18.0168 19.862 17.2437 19.7251 16.5165 19.448C15.8651 19.1943 15.2766 18.8023 14.7915 18.299C14.3137 17.7835 13.9439 17.1776 13.704 16.517C13.4425 15.7861 13.3125 15.0147 13.32 14.2385C13.32 13.4375 13.452 12.692 13.713 12.002C13.98 11.3075 14.346 10.7135 14.8335 10.211C15.321 9.7085 15.8925 9.311 16.5675 9.02C17.2733 8.72165 18.0333 8.57302 18.7995 8.5835C19.704 8.5835 20.496 8.7575 21.1755 9.113C21.8505 9.464 22.4085 9.938 22.845 10.529C23.2815 11.12 23.5905 11.7995 23.7825 12.5585C23.9745 13.3175 24.0405 14.1095 23.988 14.9405H16.2675C16.2675 15.779 16.5495 16.5815 16.9935 17.0075L16.995 17.0105ZM20.3655 11.3945C20.019 11.0105 19.4235 10.799 18.7065 10.799C18.237 10.799 17.8485 10.8785 17.5395 11.0375C17.2532 11.1815 16.9995 11.3827 16.794 11.6285C16.6128 11.8505 16.479 12.1073 16.401 12.383C16.326 12.641 16.2795 12.8795 16.2645 13.0865H21.0465C20.976 12.3365 20.718 11.783 20.367 11.3945H20.3655ZM15.6645 6.0035H21.651V7.4615H15.6645V6.0035Z" fill="#1E293B"/>
</g>
<defs>
<clipPath id="clip0_8025_58883">
<rect width="24" height="24" fill="white"/>
</clipPath>
</defs>
</svg>
