<svg width="20" height="20" viewBox="0 0 20 20" fill="none" xmlns="http://www.w3.org/2000/svg">
<path fill-rule="evenodd" clip-rule="evenodd" d="M5.8335 3.33854C5.61248 3.33854 5.40052 3.42634 5.24424 3.58262C5.08796 3.7389 5.00016 3.95086 5.00016 4.17188V15.8859L9.5158 12.6604C9.80555 12.4535 10.1948 12.4535 10.4845 12.6604L15.0002 15.8859V4.17188C15.0002 3.95086 14.9124 3.7389 14.7561 3.58262C14.5998 3.42634 14.3878 3.33854 14.1668 3.33854H5.8335ZM4.06573 2.40411C4.53457 1.93527 5.17046 1.67188 5.8335 1.67188H14.1668C14.8299 1.67188 15.4658 1.93527 15.9346 2.40411C16.4034 2.87295 16.6668 3.50883 16.6668 4.17188V17.5052C16.6668 17.8174 16.4924 18.1033 16.2148 18.2462C15.9373 18.389 15.6031 18.3648 15.3491 18.1833L10.0002 14.3626L4.65119 18.1833C4.39718 18.3648 4.06307 18.389 3.78551 18.2462C3.50795 18.1033 3.3335 17.8174 3.3335 17.5052V4.17188C3.3335 3.50883 3.59689 2.87295 4.06573 2.40411Z" fill="#334155"/>
</svg>
