<svg width="16" height="16" viewBox="0 0 16 16" fill="none" xmlns="http://www.w3.org/2000/svg">
<g id="Button: Dismiss">
<path id="Icon" fill-rule="evenodd" clip-rule="evenodd" d="M3.71983 3.71918C3.86045 3.57873 4.05108 3.49984 4.24983 3.49984C4.44858 3.49984 4.6392 3.57873 4.77983 3.71918L7.99983 6.93918L11.2198 3.71918C11.2885 3.64549 11.3713 3.58639 11.4633 3.5454C11.5553 3.50441 11.6546 3.48237 11.7553 3.48059C11.856 3.47881 11.956 3.49734 12.0494 3.53506C12.1428 3.57278 12.2276 3.62892 12.2988 3.70014C12.3701 3.77136 12.4262 3.8562 12.4639 3.94958C12.5016 4.04297 12.5202 4.143 12.5184 4.2437C12.5166 4.34441 12.4946 4.44372 12.4536 4.53572C12.4126 4.62772 12.3535 4.71052 12.2798 4.77918L9.05983 7.99918L12.2798 11.2192C12.3535 11.2879 12.4126 11.3707 12.4536 11.4627C12.4946 11.5547 12.5166 11.654 12.5184 11.7547C12.5202 11.8554 12.5016 11.9554 12.4639 12.0488C12.4262 12.1422 12.3701 12.227 12.2988 12.2982C12.2276 12.3695 12.1428 12.4256 12.0494 12.4633C11.956 12.501 11.856 12.5196 11.7553 12.5178C11.6546 12.516 11.5553 12.494 11.4633 12.453C11.3713 12.412 11.2885 12.3529 11.2198 12.2792L7.99983 9.05918L4.77983 12.2792C4.63765 12.4117 4.4496 12.4838 4.2553 12.4804C4.061 12.4769 3.87562 12.3982 3.7382 12.2608C3.60079 12.1234 3.52208 11.938 3.51865 11.7437C3.51522 11.5494 3.58735 11.3614 3.71983 11.2192L6.93983 7.99918L3.71983 4.77918C3.57938 4.63856 3.50049 4.44793 3.50049 4.24918C3.50049 4.05043 3.57938 3.85981 3.71983 3.71918Z" fill="#636C76"/>
</g>
</svg>
