<svg width="36" height="40" viewBox="0 0 36 40" fill="none" xmlns="http://www.w3.org/2000/svg">
<path d="M18.9056 40.0022C17.0284 40.0077 15.1592 39.7594 13.3485 39.2642C17.0746 38.174 20.4041 36.023 22.9295 33.0743C23.249 32.7008 23.5553 32.3157 23.8488 31.9193C24.1125 31.6118 24.3872 31.3122 24.6697 31.0203L24.6697 31.0203C24.8024 30.8955 24.9335 30.769 25.0584 30.6332L25.0584 30.6332L25.0751 30.6135V30.6175H25.0754H25.0756H25.0757C27.9998 27.7619 31.7311 25.8716 35.7633 25.2034C35.5392 27.1744 35.0079 29.0981 34.1885 30.9046C33.3473 32.7611 32.1488 34.4339 30.6612 35.8272C29.174 37.197 27.4259 38.2535 25.5217 38.9331C23.633 39.6008 21.6483 39.9577 19.6454 39.9897L19.6454 39.9897C19.4409 40.0022 19.238 40.0022 19.0305 40.0022H18.9056Z" fill="#3AC2FF" stroke="#334155" stroke-width="0.00048591"/>
<path d="M10.4823 11.9714L10.4823 11.9714C10.4105 12.1057 10.3403 12.2399 10.2716 12.3773L10.2718 12.3774L10.2716 12.3772C10.2668 12.3847 10.2627 12.3925 10.2591 12.4007C10.1858 12.5474 10.1155 12.6894 10.0469 12.8455C9.69163 13.6418 9.41302 14.4701 9.21496 15.3194C8.8374 16.9161 8.64886 18.5515 8.65307 20.1922C8.64995 21.77 8.83865 23.3423 9.21496 24.8746C9.56458 26.336 10.1719 27.7234 11.0083 28.9717C11.829 30.1881 12.9288 31.1904 14.2158 31.8951C15.5352 32.6236 17.1419 32.9877 19.0356 32.9877C19.1425 32.9877 19.2451 32.9849 19.3529 32.9819L19.3688 32.9815C16.0447 35.3648 12.066 36.6672 7.97601 36.7112C6.96857 36.0048 6.04384 35.187 5.21978 34.2734C3.58504 32.44 2.32878 30.3012 1.5239 27.9804C0.651747 25.4763 0.217231 22.8406 0.23915 20.1891C0.216294 17.4811 0.653776 14.7888 1.53327 12.2276C2.23264 10.1985 3.26431 8.2998 4.58611 6.60887L4.58612 6.60886C4.62718 6.55001 4.67423 6.49236 4.72204 6.4338C4.72874 6.42559 4.73547 6.41735 4.74219 6.40909C4.89827 6.21556 5.05746 6.02358 5.2229 5.83629C5.42736 5.60842 5.63494 5.38523 5.8472 5.16985L5.88622 5.1324L5.88622 5.13239C6.05947 4.95759 6.23739 4.78903 6.41688 4.62359L6.58076 4.47687C6.71186 4.35982 6.84297 4.24432 6.97719 4.13039L7.16448 3.97431C7.1819 3.96062 7.19939 3.94687 7.21692 3.93309C7.33129 3.84314 7.44786 3.75148 7.5656 3.66216L7.75913 3.51545L7.75914 3.51544C7.8075 3.47488 7.86054 3.43276 7.91514 3.39375H7.92443V3.39381L7.92457 3.39371C8.92798 2.67186 10.0046 2.0577 11.1366 1.56138C13.4746 0.520822 16.1076 0.000619156 19.0356 0.000619161C21.0609 -0.012023 23.0755 0.294042 25.0055 0.907421C26.8266 1.48818 28.5308 2.38639 30.039 3.56071C30.7714 4.13366 31.4444 4.77903 32.0477 5.48668C32.6774 6.22538 33.233 7.02417 33.7067 7.87151C34.6692 9.58514 35.2763 11.5485 35.5281 13.7615H31.0396C29.1556 13.7456 27.4101 12.7491 26.4386 11.1349L26.4246 11.1114C25.9224 10.307 25.2894 9.59213 24.5516 8.99652C23.0575 7.79921 21.2117 7.12353 19.2978 7.07359H19.0356C17.1428 7.07359 15.5363 7.43772 14.2158 8.16616C12.9225 8.87197 11.8196 9.88104 11.0021 11.1068C10.9084 11.2488 10.8179 11.3939 10.7289 11.5391C10.6682 11.645 10.6105 11.7479 10.5529 11.8507L10.5526 11.8513L10.4823 11.9714ZM35.5284 13.7618V13.7615L10.553 11.8515L10.553 11.8514C10.6108 11.7484 10.6685 11.6454 10.7294 11.5393C10.8183 11.3942 10.9088 11.249 11.0025 11.107C11.82 9.88137 12.9228 8.87236 14.216 8.16659C15.5364 7.4382 17.1429 7.07407 19.0356 7.07407H19.2978C21.2116 7.12402 23.0573 7.79966 24.5513 8.9969C25.289 9.59248 25.9221 10.3073 26.4241 11.1117L26.4382 11.1351C27.4098 12.7495 29.1555 13.7461 31.0396 13.762H35.5284V13.7618Z" fill="#3AC2FF" stroke="#334155" stroke-width="0.00048591"/>
</svg>
