<svg width="16" height="16" viewBox="0 0 16 16" fill="none" xmlns="http://www.w3.org/2000/svg">
<path d="M5.6 10.872L8 8.472L10.4 10.872L10.872 10.4L8.472 8L10.872 5.6L10.4 5.128L8 7.528L5.6 5.128L5.128 5.6L7.528 8L5.128 10.4L5.6 10.872ZM8.002 14C7.17267 14 6.39267 13.8427 5.662 13.528C4.93178 13.2129 4.29644 12.7853 3.756 12.2453C3.21556 11.7058 2.78778 11.0711 2.47267 10.3413C2.15756 9.61156 2 8.83178 2 8.002C2 7.17267 2.15733 6.39267 2.472 5.662C2.78711 4.93178 3.21467 4.29644 3.75467 3.756C4.29422 3.21556 4.92889 2.78778 5.65867 2.47267C6.38844 2.15756 7.16822 2 7.998 2C8.82733 2 9.60733 2.15733 10.338 2.472C11.0682 2.78711 11.7036 3.21467 12.244 3.75467C12.7844 4.29422 13.2122 4.92889 13.5273 5.65867C13.8424 6.38844 14 7.16822 14 7.998C14 8.82733 13.8427 9.60733 13.528 10.338C13.2129 11.0682 12.7853 11.7036 12.2453 12.244C11.7058 12.7844 11.0711 13.2122 10.3413 13.5273C9.61156 13.8424 8.83178 14 8.002 14Z" fill="#94A3B8"/>
</svg>
