<svg width="48" height="49" viewBox="0 0 48 49" fill="none" xmlns="http://www.w3.org/2000/svg">
<rect y="0.285156" width="48" height="48" rx="24" fill="#81E1A6"/>
<path fill-rule="evenodd" clip-rule="evenodd" d="M12 31.3077C12 30.8228 12.4294 30.4297 12.9591 30.4297H31.8827C32.4124 30.4297 32.8419 30.8228 32.8419 31.3077C32.8419 31.7927 32.4124 32.1858 31.8827 32.1858H12.9591C12.4294 32.1858 12 31.7927 12 31.3077Z" fill="white"/>
<path fill-rule="evenodd" clip-rule="evenodd" d="M12 26.6281C12 26.1431 12.4153 25.75 12.9276 25.75H18.6512C19.1635 25.75 19.5789 26.1431 19.5789 26.6281C19.5789 27.113 19.1635 27.5061 18.6512 27.5061H12.9276C12.4153 27.5061 12 27.113 12 26.6281Z" fill="white"/>
<path fill-rule="evenodd" clip-rule="evenodd" d="M12 35.4054C12 34.9205 12.4294 34.5273 12.9591 34.5273H31.8827C32.4124 34.5273 32.8419 34.9205 32.8419 35.4054C32.8419 35.8903 32.4124 36.2834 31.8827 36.2834H12.9591C12.4294 36.2834 12 35.8903 12 35.4054Z" fill="white"/>
<path fill-rule="evenodd" clip-rule="evenodd" d="M31.7704 12.2852C32.0242 12.2852 32.2676 12.3822 32.4471 12.5549L35.7198 15.7043C36.0935 16.064 36.0935 16.647 35.7198 17.0067L27.117 25.2855C26.9514 25.4448 26.7309 25.5402 26.4972 25.5536L23.1192 25.747C22.851 25.7623 22.5884 25.6684 22.3957 25.4883C22.2029 25.3081 22.0978 25.0583 22.1059 24.7998L22.2112 21.457C22.2186 21.2225 22.3186 20.9996 22.491 20.8337L31.0938 12.5549C31.2732 12.3822 31.5166 12.2852 31.7704 12.2852ZM24.1127 21.8778L24.0506 23.8486L26.0207 23.7358L33.6898 16.3555L31.7704 14.5084L24.1127 21.8778Z" fill="white"/>
</svg>
