<svg width="20" height="20" viewBox="0 0 20 20" fill="none" xmlns="http://www.w3.org/2000/svg">
<g id="Delete">
<path id="Vector" d="M2.5 5H4.16667H17.5" stroke="#D1242F" stroke-width="2" stroke-linecap="round" stroke-linejoin="round"/>
<path id="Vector_2" d="M6.66699 4.9974V3.33073C6.66699 2.8887 6.84259 2.46478 7.15515 2.15222C7.46771 1.83966 7.89163 1.66406 8.33366 1.66406H11.667C12.109 1.66406 12.5329 1.83966 12.8455 2.15222C13.1581 2.46478 13.3337 2.8887 13.3337 3.33073V4.9974M15.8337 4.9974V16.6641C15.8337 17.1061 15.6581 17.53 15.3455 17.8426C15.0329 18.1551 14.609 18.3307 14.167 18.3307H5.83366C5.39163 18.3307 4.96771 18.1551 4.65515 17.8426C4.34259 17.53 4.16699 17.1061 4.16699 16.6641V4.9974H15.8337Z" stroke="#D1242F" stroke-width="2" stroke-linecap="round" stroke-linejoin="round"/>
<path id="Vector_3" d="M11.667 9.16406V14.1641" stroke="#D1242F" stroke-width="2" stroke-linecap="round" stroke-linejoin="round"/>
<path id="Vector_4" d="M8.33301 9.16406V14.1641" stroke="#D1242F" stroke-width="2" stroke-linecap="round" stroke-linejoin="round"/>
</g>
</svg>
