<svg width="48" height="49" viewBox="0 0 48 49" fill="none" xmlns="http://www.w3.org/2000/svg">
<rect y="0.285156" width="48" height="48" rx="24" fill="#3AC2FF"/>
<path fill-rule="evenodd" clip-rule="evenodd" d="M24.0058 16.1696C24.0568 15.824 24.429 15.5789 24.8371 15.6221L26.1476 15.7608C26.5557 15.804 26.8452 16.1192 26.7942 16.4648C26.7432 16.8103 26.371 17.0554 25.9629 17.0123L24.6524 16.8735C24.2443 16.8303 23.9548 16.5152 24.0058 16.1696Z" fill="#ECEDED"/>
<path fill-rule="evenodd" clip-rule="evenodd" d="M24.4717 18.0368C24.5142 17.6912 24.8243 17.4461 25.1644 17.4893L26.2565 17.628C26.5966 17.6712 26.8378 17.9864 26.7953 18.332C26.7528 18.6775 26.4426 18.9226 26.1026 18.8794L25.0104 18.7407C24.6704 18.6975 24.4291 18.3824 24.4717 18.0368Z" fill="#ECEDED"/>
<path fill-rule="evenodd" clip-rule="evenodd" d="M24.0059 19.8371C24.0573 19.4916 24.4307 19.2467 24.8398 19.2901L26.1464 19.4289C26.5556 19.4723 26.8455 19.7876 26.7941 20.1332C26.7427 20.4787 26.3693 20.7236 25.9602 20.6802L24.6536 20.5414C24.2444 20.498 23.9545 20.1827 24.0059 19.8371Z" fill="#ECEDED"/>
<path fill-rule="evenodd" clip-rule="evenodd" d="M24.0044 21.4985C24.045 21.0353 24.3538 20.7047 24.6941 20.7599L25.7863 20.9373C26.1266 20.9926 26.3695 21.4128 26.3289 21.876C26.2883 22.3391 25.9795 22.6698 25.6392 22.6145L24.5471 22.4372C24.2068 22.3819 23.9638 21.9617 24.0044 21.4985Z" fill="#ECEDED"/>
<path d="M26.74 24.4862C26.6708 24.4862 26.5947 24.4719 26.5254 24.4362C26.5047 24.4219 26.477 24.4147 26.4562 24.4005C26.3593 24.4147 26.2486 24.4005 26.1517 24.3504C25.8956 24.2218 25.7918 23.9003 25.9233 23.6359L27.7367 19.899C27.7367 19.1774 28.055 18.5129 28.671 17.977C29.1279 17.584 29.5847 17.3911 29.6331 17.3768L30.5329 17.0195L30.3252 17.9841C30.2906 18.1413 30.2768 18.3128 30.2629 18.4914C30.2422 18.7987 30.2145 19.1131 30.0761 19.406C29.8961 19.7704 29.2663 20.2491 28.8372 20.5492L27.2107 24.179C27.1207 24.3719 26.9338 24.4862 26.74 24.4862Z" fill="#ECEDED"/>
<path fill-rule="evenodd" clip-rule="evenodd" d="M17 24.2597C17 23.8682 17.3232 23.5508 17.7219 23.5508H27.9447C28.3434 23.5508 28.6667 23.8682 28.6667 24.2597V31.2995C28.6667 32.943 27.314 34.2841 25.6345 34.2841H20.0394C18.3628 34.2841 17 32.9458 17 31.2995V24.2597ZM18.4439 24.9687V31.2995C18.4439 32.1628 19.1603 32.8662 20.0394 32.8662H25.6345C26.5107 32.8662 27.2228 32.1657 27.2228 31.2995V24.9687H18.4439Z" fill="white"/>
<path fill-rule="evenodd" clip-rule="evenodd" d="M27.2666 25.6486C27.2666 25.2645 27.5893 24.9531 27.9873 24.9531H29.1261C29.5885 24.9531 30.0334 25.0917 30.3776 25.3452C30.7216 25.5984 30.9999 25.9991 30.9999 26.4971V28.0758C30.9999 28.5738 30.7216 28.9745 30.3776 29.2277C30.0334 29.4812 29.5885 29.6198 29.1261 29.6198H27.9873C27.5893 29.6198 27.2666 29.3084 27.2666 28.9243C27.2666 28.5402 27.5893 28.2288 27.9873 28.2288H29.1261C29.2978 28.2288 29.4296 28.1762 29.5033 28.1219C29.5399 28.095 29.5538 28.0756 29.5585 28.0668V26.5062C29.5538 26.4973 29.5399 26.4779 29.5033 26.451C29.4296 26.3968 29.2978 26.3441 29.1261 26.3441H27.9873C27.5893 26.3441 27.2666 26.0327 27.2666 25.6486ZM29.5606 26.5116C29.5605 26.5116 29.5599 26.5105 29.5594 26.508C29.5605 26.5103 29.5608 26.5115 29.5606 26.5116ZM29.5606 28.0613C29.5608 28.0614 29.5605 28.0626 29.5594 28.0649C29.5599 28.0625 29.5605 28.0613 29.5606 28.0613Z" fill="white"/>
<path fill-rule="evenodd" clip-rule="evenodd" d="M22.4379 13.9115C22.486 13.5192 22.8171 13.2421 23.1798 13.2907L26.6825 13.7594C27.0471 13.8081 27.3064 14.1674 27.2619 14.5622L26.1631 24.318C26.1211 24.6914 25.8211 24.967 25.4741 24.9512L21.8381 24.7853C21.6513 24.7768 21.4764 24.6836 21.3561 24.5286C21.2359 24.3735 21.1814 24.1708 21.206 23.9701L22.4379 13.9115ZM23.6715 14.8095L22.6221 23.3777L24.9155 23.4823L25.8594 15.1023L23.6715 14.8095Z" fill="white"/>
<path fill-rule="evenodd" clip-rule="evenodd" d="M17.7098 15.6573C17.9704 15.566 18.2599 15.6334 18.4541 15.8306L19.915 17.3142C19.9832 17.3835 20.0368 17.4661 20.0724 17.5569L22.5501 23.8799C22.6351 24.0967 22.6105 24.3413 22.4842 24.5366C22.3578 24.7319 22.1454 24.8537 21.9139 24.8635L19.8658 24.9499C19.5547 24.963 19.2707 24.7724 19.1635 24.4783L17.0438 18.6666C17.0057 18.5621 16.9922 18.4501 17.0044 18.3394L17.2335 16.2581C17.2639 15.9823 17.4491 15.7485 17.7098 15.6573ZM18.4919 17.916L18.4464 18.3296L20.3281 23.4888L20.8488 23.4668L18.7938 18.2226L18.4919 17.916Z" fill="white"/>
</svg>
