<svg width="20" height="20" viewBox="0 0 20 20" fill="none" xmlns="http://www.w3.org/2000/svg">
<g id="devicon:linkedin" clip-path="url(#clip0_4362_27909)">
<path id="Vector" d="M18.125 0.468822H1.875C1.5063 0.46507 1.15117 0.607735 0.887529 0.865514C0.623892 1.12329 0.473283 1.47513 0.46875 1.84382V18.1594C0.474103 18.5276 0.625072 18.8786 0.88862 19.1357C1.15217 19.3928 1.50683 19.5351 1.875 19.5313H18.125C18.4937 19.5342 18.8486 19.3911 19.1121 19.1332C19.3756 18.8752 19.5263 18.5235 19.5312 18.1548V1.83913C19.5247 1.47152 19.3733 1.12136 19.1099 0.864769C18.8466 0.608173 18.4927 0.465881 18.125 0.468822Z" fill="#0076B2"/>
<path id="Vector_2" d="M3.29067 7.61719H6.12036V16.7219H3.29067V7.61719ZM4.7063 3.08594C5.03085 3.08594 5.34811 3.1822 5.61794 3.36254C5.88778 3.54288 6.09806 3.79921 6.22219 4.09908C6.34632 4.39896 6.37872 4.72891 6.31528 5.04721C6.25185 5.3655 6.09544 5.65783 5.86584 5.88721C5.63624 6.1166 5.34376 6.27273 5.02541 6.33585C4.70706 6.39898 4.37713 6.36627 4.07738 6.24185C3.77762 6.11744 3.5215 5.90691 3.34141 5.63691C3.16132 5.3669 3.06537 5.04955 3.06567 4.725C3.06609 4.29015 3.23912 3.87325 3.54675 3.56591C3.85439 3.25857 4.27145 3.08594 4.7063 3.08594ZM7.89536 7.61719H10.6079V8.86719H10.6454C11.0235 8.15156 11.9454 7.39687 13.3219 7.39687C16.1875 7.39062 16.7188 9.27656 16.7188 11.7219V16.7219H13.8891V12.2922C13.8891 11.2375 13.8704 9.87969 12.4188 9.87969C10.9672 9.87969 10.7204 11.0297 10.7204 12.2234V16.7219H7.89536V7.61719Z" fill="white"/>
</g>
<defs>
<clipPath id="clip0_4362_27909">
<rect width="20" height="20" fill="white"/>
</clipPath>
</defs>
</svg>
