<svg width="24" height="24" viewBox="0 0 24 24" fill="none" xmlns="http://www.w3.org/2000/svg">
<g clip-path="url(#clip0_8025_58879)">
<path fill-rule="evenodd" clip-rule="evenodd" d="M12 2C17.523 2 22 6.477 22 12C22 17.523 17.523 22 12 22C6.477 22 2 17.523 2 12C2 6.477 6.477 2 12 2ZM13.617 13.984C11.068 14.7345 8.83952 16.3086 7.28 18.46C8.64891 19.4634 10.3027 20.003 12 20C13.0383 20.0007 14.0667 19.7993 15.028 19.407C14.7123 17.5623 14.2403 15.7477 13.617 13.983V13.984ZM15.595 13.581C16.127 15.124 16.555 16.716 16.869 18.349C18.3364 17.2243 19.3689 15.626 19.791 13.826C18.4173 13.5002 16.9972 13.4173 15.595 13.581ZM12.351 10.912C9.67531 11.8561 6.82287 12.1923 4.001 11.896L4 12C4 13.927 4.682 15.695 5.817 17.076C7.59311 14.7185 10.068 12.9816 12.889 12.113C12.7177 11.7095 12.5383 11.3094 12.351 10.913V10.912ZM18.488 7.319C17.1931 8.45036 15.7506 9.40071 14.2 10.144C14.434 10.644 14.6567 11.1497 14.868 11.661C16.568 11.401 18.318 11.455 19.998 11.822C19.9646 10.2023 19.4378 8.63137 18.488 7.319ZM8.574 4.77C7.52882 5.26673 6.60352 5.98376 5.86162 6.87187C5.11972 7.75997 4.5788 8.79811 4.276 9.915C6.69141 10.1594 9.13117 9.88669 11.433 9.115C10.5958 7.5937 9.63983 6.14086 8.574 4.77ZM12 4C11.5193 4 11.051 4.041 10.595 4.123C11.5963 5.46809 12.4996 6.88341 13.298 8.358C14.6802 7.70006 15.9671 6.85845 17.124 5.856C15.6872 4.65446 13.873 3.99735 12 4Z" fill="#1E293B"/>
</g>
<defs>
<clipPath id="clip0_8025_58879">
<rect width="24" height="24" fill="white"/>
</clipPath>
</defs>
</svg>
