<svg width="20" height="20" viewBox="0 0 20 20" fill="none" xmlns="http://www.w3.org/2000/svg">
<g id="external-link">
<path id="Vector (Stroke)" fill-rule="evenodd" clip-rule="evenodd" d="M4.1665 5.83073C3.94549 5.83073 3.73353 5.91853 3.57725 6.07481C3.42097 6.23109 3.33317 6.44305 3.33317 6.66406V15.8307C3.33317 16.0517 3.42097 16.2637 3.57725 16.42C3.73353 16.5763 3.94549 16.6641 4.1665 16.6641H13.3332C13.5542 16.6641 13.7661 16.5763 13.9224 16.42C14.0787 16.2637 14.1665 16.0517 14.1665 15.8307V10.8307C14.1665 10.3705 14.5396 9.9974 14.9998 9.9974C15.4601 9.9974 15.8332 10.3705 15.8332 10.8307V15.8307C15.8332 16.4938 15.5698 17.1297 15.1009 17.5985C14.6321 18.0673 13.9962 18.3307 13.3332 18.3307H4.1665C3.50346 18.3307 2.86758 18.0673 2.39874 17.5985C1.9299 17.1297 1.6665 16.4938 1.6665 15.8307V6.66406C1.6665 6.00102 1.9299 5.36514 2.39874 4.8963C2.86758 4.42745 3.50346 4.16406 4.1665 4.16406H9.1665C9.62674 4.16406 9.99984 4.53716 9.99984 4.9974C9.99984 5.45763 9.62674 5.83073 9.1665 5.83073H4.1665Z" fill="black"/>
<path id="Vector (Stroke)_2" fill-rule="evenodd" clip-rule="evenodd" d="M11.6665 2.4974C11.6665 2.03716 12.0396 1.66406 12.4998 1.66406H17.4998C17.9601 1.66406 18.3332 2.03716 18.3332 2.4974V7.4974C18.3332 7.95763 17.9601 8.33073 17.4998 8.33073C17.0396 8.33073 16.6665 7.95763 16.6665 7.4974V3.33073H12.4998C12.0396 3.33073 11.6665 2.95763 11.6665 2.4974Z" fill="black"/>
<path id="Vector (Stroke)_3" fill-rule="evenodd" clip-rule="evenodd" d="M18.0893 1.90814C18.4147 2.23358 18.4147 2.76121 18.0893 3.08665L8.92259 12.2533C8.59715 12.5788 8.06951 12.5788 7.74408 12.2533C7.41864 11.9279 7.41864 11.4002 7.74408 11.0748L16.9107 1.90814C17.2362 1.5827 17.7638 1.5827 18.0893 1.90814Z" fill="black"/>
</g>
</svg>
