<svg width="64" height="65" viewBox="0 0 64 65" fill="none" xmlns="http://www.w3.org/2000/svg">
<g filter="url(#filter0_dd_2856_3869)">
<rect x="8" y="4.28516" width="48" height="48" rx="8" fill="url(#paint0_linear_2856_3869)"/>
<rect x="8.5" y="4.78516" width="47" height="47" rx="7.5" stroke="#CBD5E1"/>
<g clip-path="url(#clip0_2856_3869)">
<path d="M29.5205 12.2852V16.2852H26.5205C23.8005 16.2852 21.5205 18.5652 21.5205 21.2852V23.2852C21.5205 26.0052 23.2805 28.2452 25.8805 28.9252L36.1205 31.5652C36.6805 31.7252 37.4805 32.7252 37.4805 33.3252V35.3252C37.4805 35.8852 37.0405 36.3252 36.4805 36.3252H26.4805C26.133 36.3238 25.7907 36.2416 25.4805 36.0852V32.3252H21.4805V36.3252C21.4805 37.6852 22.2805 38.8452 23.2405 39.4452C24.1605 40.0852 25.3205 40.3252 26.4805 40.3252H29.4805V44.3252H33.4805V40.3252H36.4805C39.2405 40.3252 41.4805 38.0852 41.4805 35.3252V33.3252C41.4805 30.6052 39.7205 28.3652 37.1205 27.6852L26.8805 25.0452C26.3205 24.8852 25.5205 23.8852 25.5205 23.2852V21.2852C25.5205 20.7252 25.9605 20.2852 26.5205 20.2852H36.5205C36.9605 20.2852 37.3605 20.4452 37.5205 20.5252V24.2852H41.5205V20.2852C41.5205 18.9252 40.7205 17.7652 39.7605 17.1652C38.8405 16.5252 37.6805 16.2852 36.5205 16.2852H33.5205V12.2852H29.5205Z" fill="url(#paint1_linear_2856_3869)"/>
</g>
</g>
<defs>
<filter id="filter0_dd_2856_3869" x="0" y="0.285156" width="64" height="64" filterUnits="userSpaceOnUse" color-interpolation-filters="sRGB">
<feFlood flood-opacity="0" result="BackgroundImageFix"/>
<feColorMatrix in="SourceAlpha" type="matrix" values="0 0 0 0 0 0 0 0 0 0 0 0 0 0 0 0 0 0 127 0" result="hardAlpha"/>
<feMorphology radius="2" operator="erode" in="SourceAlpha" result="effect1_dropShadow_2856_3869"/>
<feOffset dy="4"/>
<feGaussianBlur stdDeviation="5"/>
<feComposite in2="hardAlpha" operator="out"/>
<feColorMatrix type="matrix" values="0 0 0 0 0 0 0 0 0 0 0 0 0 0 0 0 0 0 0.05 0"/>
<feBlend mode="normal" in2="BackgroundImageFix" result="effect1_dropShadow_2856_3869"/>
<feColorMatrix in="SourceAlpha" type="matrix" values="0 0 0 0 0 0 0 0 0 0 0 0 0 0 0 0 0 0 127 0" result="hardAlpha"/>
<feMorphology radius="1" operator="erode" in="SourceAlpha" result="effect2_dropShadow_2856_3869"/>
<feOffset dy="2"/>
<feGaussianBlur stdDeviation="1"/>
<feComposite in2="hardAlpha" operator="out"/>
<feColorMatrix type="matrix" values="0 0 0 0 0 0 0 0 0 0 0 0 0 0 0 0 0 0 0.1 0"/>
<feBlend mode="normal" in2="effect1_dropShadow_2856_3869" result="effect2_dropShadow_2856_3869"/>
<feBlend mode="normal" in="SourceGraphic" in2="effect2_dropShadow_2856_3869" result="shape"/>
</filter>
<linearGradient id="paint0_linear_2856_3869" x1="32" y1="4.28516" x2="32" y2="52.2852" gradientUnits="userSpaceOnUse">
<stop stop-color="white"/>
<stop offset="1" stop-color="#DFE5EB"/>
</linearGradient>
<linearGradient id="paint1_linear_2856_3869" x1="31.5005" y1="12.2852" x2="31.5005" y2="44.3252" gradientUnits="userSpaceOnUse">
<stop stop-color="#0F172A"/>
<stop offset="1" stop-color="#0F172A" stop-opacity="0.5"/>
</linearGradient>
<clipPath id="clip0_2856_3869">
<rect width="32" height="32" fill="white" transform="translate(15.5 12.2852)"/>
</clipPath>
</defs>
</svg>
