<svg width="64" height="65" viewBox="0 0 64 65" fill="none" xmlns="http://www.w3.org/2000/svg">
<g filter="url(#filter0_dd_2856_3564)">
<rect x="8" y="4.14258" width="48" height="48" rx="8" fill="url(#paint0_linear_2856_3564)"/>
<rect x="8.5" y="4.64258" width="47" height="47" rx="7.5" stroke="#CBD5E1"/>
<path d="M26.6375 18.8518L23.5201 17.056L32.0002 12.1426L40.5048 17.056L37.3872 18.8518L31.9998 15.759L26.6375 18.8518ZM42.7245 21.9445V25.5609L45.8422 23.7652V20.1488L42.7245 18.3281L39.6072 20.1238L42.7245 21.9445ZM28.8822 20.1488L31.9998 21.9445L35.1175 20.1488L31.9998 18.3281L28.8822 20.1488ZM40.5048 23.2416L37.3875 21.4459L32.0002 24.5387L26.6378 21.4459L23.5201 23.2416V26.8583L28.8822 29.9511V36.1367L31.9998 37.9324L35.1178 36.1367V29.9511L40.5048 26.8583V23.2416ZM42.7245 34.3406L37.3625 37.4334V41.0498L45.8672 36.1363V26.3344L42.7245 28.1551V34.3406ZM37.3625 34.8642L40.4802 33.0685V29.4272L37.3625 31.2229V34.8642ZM28.8825 38.7301V42.3465L32.0005 44.1426L35.1182 42.3465V38.7301L32.0005 40.5262L28.8825 38.7301ZM18.1328 23.7652L21.2508 25.5609V21.9445L24.3682 20.1488L21.2755 18.3281L18.1578 20.1238V23.7652H18.1328ZM21.2755 28.1551L18.1578 26.3594V36.1613L26.6625 41.0748V37.4584L21.2755 34.3406V28.1551ZM26.6378 31.2478L23.5205 29.4521V33.0685L26.6378 34.8642V31.2478Z" fill="url(#paint1_linear_2856_3564)"/>
</g>
<defs>
<filter id="filter0_dd_2856_3564" x="0" y="0.142578" width="64" height="64" filterUnits="userSpaceOnUse" color-interpolation-filters="sRGB">
<feFlood flood-opacity="0" result="BackgroundImageFix"/>
<feColorMatrix in="SourceAlpha" type="matrix" values="0 0 0 0 0 0 0 0 0 0 0 0 0 0 0 0 0 0 127 0" result="hardAlpha"/>
<feMorphology radius="2" operator="erode" in="SourceAlpha" result="effect1_dropShadow_2856_3564"/>
<feOffset dy="4"/>
<feGaussianBlur stdDeviation="5"/>
<feComposite in2="hardAlpha" operator="out"/>
<feColorMatrix type="matrix" values="0 0 0 0 0 0 0 0 0 0 0 0 0 0 0 0 0 0 0.05 0"/>
<feBlend mode="normal" in2="BackgroundImageFix" result="effect1_dropShadow_2856_3564"/>
<feColorMatrix in="SourceAlpha" type="matrix" values="0 0 0 0 0 0 0 0 0 0 0 0 0 0 0 0 0 0 127 0" result="hardAlpha"/>
<feMorphology radius="1" operator="erode" in="SourceAlpha" result="effect2_dropShadow_2856_3564"/>
<feOffset dy="2"/>
<feGaussianBlur stdDeviation="1"/>
<feComposite in2="hardAlpha" operator="out"/>
<feColorMatrix type="matrix" values="0 0 0 0 0 0 0 0 0 0 0 0 0 0 0 0 0 0 0.1 0"/>
<feBlend mode="normal" in2="effect1_dropShadow_2856_3564" result="effect2_dropShadow_2856_3564"/>
<feBlend mode="normal" in="SourceGraphic" in2="effect2_dropShadow_2856_3564" result="shape"/>
</filter>
<linearGradient id="paint0_linear_2856_3564" x1="32" y1="4.14258" x2="32" y2="52.1426" gradientUnits="userSpaceOnUse">
<stop stop-color="white"/>
<stop offset="1" stop-color="#DFE5EB"/>
</linearGradient>
<linearGradient id="paint1_linear_2856_3564" x1="32" y1="12.1426" x2="32" y2="44.1426" gradientUnits="userSpaceOnUse">
<stop stop-color="#0F172A"/>
<stop offset="1" stop-color="#0F172A" stop-opacity="0.5"/>
</linearGradient>
</defs>
</svg>
