<svg width="16" height="16" viewBox="0 0 16 16" fill="none" xmlns="http://www.w3.org/2000/svg">
<g id="fi:alert-triangle">
<path id="Vector" d="M6.85977 2.57152L1.2131 11.9982C1.09668 12.1998 1.03508 12.4284 1.03443 12.6612C1.03378 12.894 1.0941 13.1229 1.20939 13.3252C1.32468 13.5275 1.49092 13.696 1.69157 13.8141C1.89223 13.9322 2.1203 13.9956 2.3531 13.9982H13.6464C13.8792 13.9956 14.1073 13.9322 14.308 13.8141C14.5086 13.696 14.6749 13.5275 14.7902 13.3252C14.9054 13.1229 14.9658 12.894 14.9651 12.6612C14.9645 12.4284 14.9029 12.1998 14.7864 11.9982L9.13977 2.57152C9.02092 2.37559 8.85358 2.2136 8.6539 2.10117C8.45422 1.98875 8.22893 1.92969 7.99977 1.92969C7.77061 1.92969 7.54532 1.98875 7.34564 2.10117C7.14596 2.2136 6.97862 2.37559 6.85977 2.57152V2.57152Z" stroke="#D1242F" stroke-width="1.33333" stroke-linecap="round" stroke-linejoin="round"/>
<path id="Vector_2" d="M7.99976 6V8.66667" stroke="#D1242F" stroke-width="1.33333" stroke-linecap="round" stroke-linejoin="round"/>
<path id="Vector_3" d="M7.99976 11.3359H8.00642" stroke="#D1242F" stroke-width="1.33333" stroke-linecap="round" stroke-linejoin="round"/>
</g>
</svg>
