<svg width="20" height="20" viewBox="0 0 20 20" fill="none" xmlns="http://www.w3.org/2000/svg">
<g clip-path="url(#clip0_8025_59326)">
<path d="M9.16797 3.33594H3.33464C2.89261 3.33594 2.46868 3.51153 2.15612 3.82409C1.84356 4.13665 1.66797 4.56058 1.66797 5.0026V16.6693C1.66797 17.1113 1.84356 17.5352 2.15612 17.8478C2.46868 18.1603 2.89261 18.3359 3.33464 18.3359H15.0013C15.4433 18.3359 15.8673 18.1603 16.1798 17.8478C16.4924 17.5352 16.668 17.1113 16.668 16.6693V10.8359" stroke="#0F172A" stroke-width="2" stroke-linecap="round" stroke-linejoin="round"/>
<path d="M15.418 2.08027C15.7495 1.74875 16.1991 1.5625 16.668 1.5625C17.1368 1.5625 17.5864 1.74875 17.918 2.08027C18.2495 2.41179 18.4357 2.86143 18.4357 3.33027C18.4357 3.79911 18.2495 4.24875 17.918 4.58027L10.0013 12.4969L6.66797 13.3303L7.5013 9.99693L15.418 2.08027Z" stroke="#0F172A" stroke-width="2" stroke-linecap="round" stroke-linejoin="round"/>
</g>
<defs>
<clipPath id="clip0_8025_59326">
<rect width="20" height="20" fill="white"/>
</clipPath>
</defs>
</svg>
