<svg width="20" height="20" viewBox="0 0 20 20" fill="none" xmlns="http://www.w3.org/2000/svg">
<g id="fi:edit" clip-path="url(#clip0_6611_6348)">
<path id="Vector" d="M9.16663 3.33594H3.33329C2.89127 3.33594 2.46734 3.51153 2.15478 3.82409C1.84222 4.13665 1.66663 4.56058 1.66663 5.0026V16.6693C1.66663 17.1113 1.84222 17.5352 2.15478 17.8478C2.46734 18.1603 2.89127 18.3359 3.33329 18.3359H15C15.442 18.3359 15.8659 18.1603 16.1785 17.8478C16.491 17.5352 16.6666 17.1113 16.6666 16.6693V10.8359" stroke="#0F172A" stroke-width="2" stroke-linecap="round" stroke-linejoin="round"/>
<path id="Vector_2" d="M15.4166 2.08027C15.7481 1.74875 16.1978 1.5625 16.6666 1.5625C17.1355 1.5625 17.5851 1.74875 17.9166 2.08027C18.2481 2.41179 18.4344 2.86143 18.4344 3.33027C18.4344 3.79911 18.2481 4.24875 17.9166 4.58027L9.99996 12.4969L6.66663 13.3303L7.49996 9.99693L15.4166 2.08027Z" stroke="#0F172A" stroke-width="2" stroke-linecap="round" stroke-linejoin="round"/>
</g>
<defs>
<clipPath id="clip0_6611_6348">
<rect width="20" height="20" fill="white"/>
</clipPath>
</defs>
</svg>
