<svg width="17" height="18" viewBox="0 0 17 18" fill="none" xmlns="http://www.w3.org/2000/svg">
<g id="fi:edit" clip-path="url(#clip0_4362_17888)">
<path id="Vector" d="M7.63867 3.44531H2.77756C2.4092 3.44531 2.05594 3.59164 1.79547 3.85211C1.535 4.11258 1.38867 4.46585 1.38867 4.8342V14.5564C1.38867 14.9248 1.535 15.278 1.79547 15.5385C2.05594 15.799 2.4092 15.9453 2.77756 15.9453H12.4998C12.8681 15.9453 13.2214 15.799 13.4819 15.5385C13.7423 15.278 13.8887 14.9248 13.8887 14.5564V9.69531" stroke="#64748B" stroke-width="1.66667" stroke-linecap="round" stroke-linejoin="round"/>
<path id="Vector_2" d="M12.8473 2.40022C13.1236 2.12396 13.4983 1.96875 13.889 1.96875C14.2797 1.96875 14.6544 2.12396 14.9307 2.40022C15.2069 2.67649 15.3621 3.05119 15.3621 3.44189C15.3621 3.83259 15.2069 4.20729 14.9307 4.48356L8.33344 11.0808L5.55566 11.7752L6.25011 8.99745L12.8473 2.40022Z" stroke="#64748B" stroke-width="1.66667" stroke-linecap="round" stroke-linejoin="round"/>
</g>
<defs>
<clipPath id="clip0_4362_17888">
<rect width="16.6667" height="16.6667" fill="white" transform="translate(0 0.664062)"/>
</clipPath>
</defs>
</svg>
