<svg width="20" height="20" viewBox="0 0 20 20" fill="none" xmlns="http://www.w3.org/2000/svg">
<path d="M10.0013 16.6667C10.4615 16.6667 10.8346 16.2936 10.8346 15.8333C10.8346 15.3731 10.4615 15 10.0013 15C9.54106 15 9.16797 15.3731 9.16797 15.8333C9.16797 16.2936 9.54106 16.6667 10.0013 16.6667Z" stroke="#334155" stroke-width="1.66667" stroke-linecap="round" stroke-linejoin="round"/>
<path d="M10.0013 10.8385C10.4615 10.8385 10.8346 10.4654 10.8346 10.0052C10.8346 9.54497 10.4615 9.17188 10.0013 9.17188C9.54106 9.17188 9.16797 9.54497 9.16797 10.0052C9.16797 10.4654 9.54106 10.8385 10.0013 10.8385Z" stroke="#334155" stroke-width="1.66667" stroke-linecap="round" stroke-linejoin="round"/>
<path d="M10.0013 5.0026C10.4615 5.0026 10.8346 4.62951 10.8346 4.16927C10.8346 3.70903 10.4615 3.33594 10.0013 3.33594C9.54106 3.33594 9.16797 3.70903 9.16797 4.16927C9.16797 4.62951 9.54106 5.0026 10.0013 5.0026Z" stroke="#334155" stroke-width="1.66667" stroke-linecap="round" stroke-linejoin="round"/>
</svg>
