<svg width="16" height="16" viewBox="0 0 16 16" fill="none" xmlns="http://www.w3.org/2000/svg">
<path fill-rule="evenodd" clip-rule="evenodd" d="M7.33301 2.66927C4.75568 2.66927 2.66634 4.75861 2.66634 7.33594C2.66634 9.91327 4.75568 12.0026 7.33301 12.0026C9.91034 12.0026 11.9997 9.91327 11.9997 7.33594C11.9997 4.75861 9.91034 2.66927 7.33301 2.66927ZM1.33301 7.33594C1.33301 4.02223 4.0193 1.33594 7.33301 1.33594C10.6467 1.33594 13.333 4.02223 13.333 7.33594C13.333 10.6496 10.6467 13.3359 7.33301 13.3359C4.0193 13.3359 1.33301 10.6496 1.33301 7.33594Z" fill="#334155"/>
<path fill-rule="evenodd" clip-rule="evenodd" d="M10.6289 10.6249C10.8892 10.3646 11.3113 10.3646 11.5717 10.6249L14.4717 13.525C14.732 13.7853 14.732 14.2074 14.4717 14.4678C14.2113 14.7281 13.7892 14.7281 13.5289 14.4678L10.6289 11.5678C10.3685 11.3074 10.3685 10.8853 10.6289 10.6249Z" fill="#334155"/>
</svg>
