<svg width="20" height="20" viewBox="0 0 20 20" fill="none" xmlns="http://www.w3.org/2000/svg">
<g id="fi:share-2">
<path id="Vector" d="M15.0002 18.3359C16.3809 18.3359 17.5002 17.2166 17.5002 15.8359C17.5002 14.4552 16.3809 13.3359 15.0002 13.3359C13.6195 13.3359 12.5002 14.4552 12.5002 15.8359C12.5002 17.2166 13.6195 18.3359 15.0002 18.3359Z" stroke="#334155" stroke-width="1.66667" stroke-linecap="round" stroke-linejoin="round"/>
<path id="Vector_2" d="M5.00018 12.5C6.38089 12.5 7.50018 11.3807 7.50018 10C7.50018 8.61929 6.38089 7.5 5.00018 7.5C3.61947 7.5 2.50018 8.61929 2.50018 10C2.50018 11.3807 3.61947 12.5 5.00018 12.5Z" stroke="#334155" stroke-width="1.66667" stroke-linecap="round" stroke-linejoin="round"/>
<path id="Vector_3" d="M7.15839 11.2578L12.8501 14.5745" stroke="#334155" stroke-width="1.66667" stroke-linecap="round" stroke-linejoin="round"/>
<path id="Vector_4" d="M15.0002 6.66406C16.3809 6.66406 17.5002 5.54477 17.5002 4.16406C17.5002 2.78335 16.3809 1.66406 15.0002 1.66406C13.6195 1.66406 12.5002 2.78335 12.5002 4.16406C12.5002 5.54477 13.6195 6.66406 15.0002 6.66406Z" stroke="#334155" stroke-width="1.66667" stroke-linecap="round" stroke-linejoin="round"/>
<path id="Vector_5" d="M12.8417 5.42188L7.15839 8.73854" stroke="#334155" stroke-width="1.66667" stroke-linecap="round" stroke-linejoin="round"/>
</g>
</svg>
