<svg width="16" height="16" viewBox="0 0 16 16" fill="none" xmlns="http://www.w3.org/2000/svg">
<path d="M10.668 14V12.6667C10.668 11.9594 10.387 11.2811 9.88692 10.781C9.38682 10.281 8.70855 10 8.0013 10H3.33464C2.62739 10 1.94911 10.281 1.44902 10.781C0.94892 11.2811 0.667969 11.9594 0.667969 12.6667V14" stroke="#64748B" stroke-width="1.33333" stroke-linecap="round" stroke-linejoin="round"/>
<path d="M11.334 7.33333L12.6673 8.66667L15.334 6" stroke="#64748B" stroke-width="1.33333" stroke-linecap="round" stroke-linejoin="round"/>
<path d="M5.66862 7.33333C7.14138 7.33333 8.33529 6.13943 8.33529 4.66667C8.33529 3.19391 7.14138 2 5.66862 2C4.19586 2 3.00195 3.19391 3.00195 4.66667C3.00195 6.13943 4.19586 7.33333 5.66862 7.33333Z" stroke="#64748B" stroke-width="1.33333" stroke-linecap="round" stroke-linejoin="round"/>
</svg>
