<svg width="24" height="24" viewBox="0 0 24 24" fill="none" xmlns="http://www.w3.org/2000/svg">
<g id="fi:users">
<path id="Vector" d="M23 21.0028V19.0028C22.9993 18.1165 22.7044 17.2556 22.1614 16.5551C21.6184 15.8547 20.8581 15.3544 20 15.1328" stroke="#64748B" stroke-width="2" stroke-linecap="round" stroke-linejoin="round"/>
<path id="Vector_2" d="M17 21V19C17 17.9391 16.5786 16.9217 15.8284 16.1716C15.0783 15.4214 14.0609 15 13 15H5C3.93913 15 2.92172 15.4214 2.17157 16.1716C1.42143 16.9217 1 17.9391 1 19V21" stroke="#64748B" stroke-width="2" stroke-linecap="round" stroke-linejoin="round"/>
<path id="Vector_3" d="M16 3.13281C16.8604 3.35311 17.623 3.85351 18.1676 4.55512C18.7122 5.25673 19.0078 6.11964 19.0078 7.00781C19.0078 7.89598 18.7122 8.75889 18.1676 9.4605C17.623 10.1621 16.8604 10.6625 16 10.8828" stroke="#64748B" stroke-width="2" stroke-linecap="round" stroke-linejoin="round"/>
<path id="Vector_4" d="M9 11C11.2091 11 13 9.20914 13 7C13 4.79086 11.2091 3 9 3C6.79086 3 5 4.79086 5 7C5 9.20914 6.79086 11 9 11Z" stroke="#64748B" stroke-width="2" stroke-linecap="round" stroke-linejoin="round"/>
</g>
</svg>
