<svg width="16" height="16" viewBox="0 0 16 16" fill="none" xmlns="http://www.w3.org/2000/svg">
<path fill-rule="evenodd" clip-rule="evenodd" d="M2 3C2 2.73478 2.10536 2.48043 2.29289 2.29289C2.48043 2.10536 2.73478 2 3 2H13C13.2652 2 13.5196 2.10536 13.7071 2.29289C13.8946 2.48043 14 2.73478 14 3V4.39067C13.9999 4.74426 13.8594 5.08334 13.6093 5.33333L10 8.94267V13.892C10 14.017 9.96808 14.14 9.90721 14.2492C9.84634 14.3584 9.75857 14.4502 9.65223 14.5159C9.54589 14.5816 9.42451 14.6191 9.29962 14.6247C9.17473 14.6303 9.05048 14.6039 8.93867 14.548L6.46067 13.3093C6.32225 13.2401 6.20583 13.1337 6.12447 13.0021C6.0431 12.8705 6.00001 12.7188 6 12.564V8.94267L2.39067 5.33333C2.1406 5.08334 2.00008 4.74426 2 4.39067V3Z" fill="#334155"/>
</svg>
