<svg width="48" height="49" viewBox="0 0 48 49" fill="none" xmlns="http://www.w3.org/2000/svg">
<rect y="0.285156" width="48" height="48" rx="24" fill="#F74C53"/>
<path fill-rule="evenodd" clip-rule="evenodd" d="M14 18.8811C14 18.4333 14.3723 18.0703 14.8316 18.0703H32.6279C33.0871 18.0703 33.4595 18.4333 33.4595 18.8811C33.4595 19.3289 33.0871 19.6919 32.6279 19.6919H14.8316C14.3723 19.6919 14 19.3289 14 18.8811Z" fill="#ECEDED"/>
<path fill-rule="evenodd" clip-rule="evenodd" d="M14 23.7444C14 23.2966 14.3723 22.9336 14.8316 22.9336H32.6279C33.0871 22.9336 33.4595 23.2966 33.4595 23.7444C33.4595 24.1922 33.0871 24.5552 32.6279 24.5552H14.8316C14.3723 24.5552 14 24.1922 14 23.7444Z" fill="#ECEDED"/>
<path fill-rule="evenodd" clip-rule="evenodd" d="M14 28.6116C14 28.1638 14.3723 27.8008 14.8316 27.8008H32.6279C33.0871 27.8008 33.4595 28.1638 33.4595 28.6116C33.4595 29.0594 33.0871 29.4224 32.6279 29.4224H14.8316C14.3723 29.4224 14 29.0594 14 28.6116Z" fill="#ECEDED"/>
<path fill-rule="evenodd" clip-rule="evenodd" d="M16.9729 16.9883C17.4207 16.9883 17.7837 17.3487 17.7837 17.7933V19.967C17.7837 20.4116 17.4207 20.7721 16.9729 20.7721C16.5251 20.7721 16.1621 20.4116 16.1621 19.967V17.7933C16.1621 17.3487 16.5251 16.9883 16.9729 16.9883Z" fill="white"/>
<path fill-rule="evenodd" clip-rule="evenodd" d="M19.135 16.9883C19.5828 16.9883 19.9458 17.3487 19.9458 17.7933V19.967C19.9458 20.4116 19.5828 20.7721 19.135 20.7721C18.6872 20.7721 18.3242 20.4116 18.3242 19.967V17.7933C18.3242 17.3487 18.6872 16.9883 19.135 16.9883Z" fill="white"/>
<path fill-rule="evenodd" clip-rule="evenodd" d="M21.8382 16.9883C22.286 16.9883 22.649 17.3487 22.649 17.7933V19.967C22.649 20.4116 22.286 20.7721 21.8382 20.7721C21.3904 20.7721 21.0273 20.4116 21.0273 19.967V17.7933C21.0273 17.3487 21.3904 16.9883 21.8382 16.9883Z" fill="white"/>
<path fill-rule="evenodd" clip-rule="evenodd" d="M27.2434 21.8516C27.6912 21.8516 28.0542 22.212 28.0542 22.6566V24.8303C28.0542 25.2749 27.6912 25.6353 27.2434 25.6353C26.7956 25.6353 26.4326 25.2749 26.4326 24.8303V22.6566C26.4326 22.212 26.7956 21.8516 27.2434 21.8516Z" fill="white"/>
<path fill-rule="evenodd" clip-rule="evenodd" d="M29.9456 21.8516C30.3934 21.8516 30.7564 22.212 30.7564 22.6566V24.8303C30.7564 25.2749 30.3934 25.6353 29.9456 25.6353C29.4978 25.6353 29.1348 25.2749 29.1348 24.8303V22.6566C29.1348 22.212 29.4978 21.8516 29.9456 21.8516Z" fill="white"/>
<path fill-rule="evenodd" clip-rule="evenodd" d="M17.513 26.1758C17.9608 26.1758 18.3238 26.5362 18.3238 26.9808V29.1545C18.3238 29.5991 17.9608 29.9596 17.513 29.9596C17.0652 29.9596 16.7021 29.5991 16.7021 29.1545V26.9808C16.7021 26.5362 17.0652 26.1758 17.513 26.1758Z" fill="white"/>
<path fill-rule="evenodd" clip-rule="evenodd" d="M19.676 26.1758C20.1238 26.1758 20.4869 26.5362 20.4869 26.9808V29.1545C20.4869 29.5991 20.1238 29.9596 19.676 29.9596C19.2282 29.9596 18.8652 29.5991 18.8652 29.1545V26.9808C18.8652 26.5362 19.2282 26.1758 19.676 26.1758Z" fill="white"/>
<path fill-rule="evenodd" clip-rule="evenodd" d="M24.5403 26.1758C24.9881 26.1758 25.3511 26.5362 25.3511 26.9808V29.1545C25.3511 29.5991 24.9881 29.9596 24.5403 29.9596C24.0925 29.9596 23.7295 29.5991 23.7295 29.1545V26.9808C23.7295 26.5362 24.0925 26.1758 24.5403 26.1758Z" fill="white"/>
<path fill-rule="evenodd" clip-rule="evenodd" d="M14.8258 14.2852C15.2818 14.2852 15.6515 14.6449 15.6515 15.0886V32.1377H32.3485V15.0886C32.3485 14.6449 32.7182 14.2852 33.1742 14.2852C33.6303 14.2852 34 14.6449 34 15.0886V32.9412C34 33.3849 33.6303 33.7446 33.1742 33.7446H14.8258C14.3697 33.7446 14 33.3849 14 32.9412V15.0886C14 14.6449 14.3697 14.2852 14.8258 14.2852Z" fill="white"/>
</svg>
