<svg width="32" height="32" viewBox="0 0 32 32" fill="none" xmlns="http://www.w3.org/2000/svg">
<rect width="32" height="32" rx="4" fill="#3AC2FF"/>
<path d="M13.2132 16.858C13.7247 16.858 14.2152 17.0612 14.5769 17.4228C14.9386 17.7845 15.1417 18.2751 15.1417 18.7866V23.5008C15.1417 24.0123 14.9386 24.5029 14.5769 24.8645C14.2152 25.2262 13.7247 25.4294 13.2132 25.4294H8.49888C7.9874 25.4294 7.49686 25.2262 7.13518 24.8645C6.7735 24.5029 6.57031 24.0123 6.57031 23.5008V18.7866C6.57031 18.2751 6.7735 17.7845 7.13518 17.4228C7.49686 17.0612 7.9874 16.858 8.49888 16.858H13.2132ZM23.4989 16.858C24.0104 16.858 24.5009 17.0612 24.8626 17.4228C25.2243 17.7845 25.4275 18.2751 25.4275 18.7866V23.5008C25.4275 24.0123 25.2243 24.5029 24.8626 24.8645C24.5009 25.2262 24.0104 25.4294 23.4989 25.4294H18.7846C18.2731 25.4294 17.7826 25.2262 17.4209 24.8645C17.0592 24.5029 16.856 24.0123 16.856 23.5008V18.7866C16.856 18.2751 17.0592 17.7845 17.4209 17.4228C17.7826 17.0612 18.2731 16.858 18.7846 16.858H23.4989ZM13.2132 6.57227C13.7247 6.57227 14.2152 6.77545 14.5769 7.13713C14.9386 7.49881 15.1417 7.98935 15.1417 8.50084V13.2151C15.1417 13.7266 14.9386 14.2172 14.5769 14.5788C14.2152 14.9405 13.7247 15.1437 13.2132 15.1437H8.49888C7.9874 15.1437 7.49686 14.9405 7.13518 14.5788C6.7735 14.2172 6.57031 13.7266 6.57031 13.2151V8.50084C6.57031 7.98935 6.7735 7.49881 7.13518 7.13713C7.49686 6.77545 7.9874 6.57227 8.49888 6.57227H13.2132ZM23.4989 6.57227C24.0104 6.57227 24.5009 6.77545 24.8626 7.13713C25.2243 7.49881 25.4275 7.98935 25.4275 8.50084V13.2151C25.4275 13.7266 25.2243 14.2172 24.8626 14.5788C24.5009 14.9405 24.0104 15.1437 23.4989 15.1437H18.7846C18.2731 15.1437 17.7826 14.9405 17.4209 14.5788C17.0592 14.2172 16.856 13.7266 16.856 13.2151V8.50084C16.856 7.98935 17.0592 7.49881 17.4209 7.13713C17.7826 6.77545 18.2731 6.57227 18.7846 6.57227H23.4989Z" fill="#EBF9FF"/>
</svg>
