<svg width="40" height="40" viewBox="0 0 40 40" fill="none" xmlns="http://www.w3.org/2000/svg">
<g id="x">
<path id="Vector (Stroke)" fill-rule="evenodd" clip-rule="evenodd" d="M31.1782 8.82214C31.8291 9.47301 31.8291 10.5283 31.1782 11.1792L11.1782 31.1792C10.5273 31.83 9.47204 31.83 8.82116 31.1792C8.17029 30.5283 8.17029 29.473 8.82116 28.8221L28.8212 8.82214C29.472 8.17127 30.5273 8.17127 31.1782 8.82214Z" fill="black"/>
<path id="Vector (Stroke)_2" fill-rule="evenodd" clip-rule="evenodd" d="M8.82116 8.82214C9.47204 8.17127 10.5273 8.17127 11.1782 8.82214L31.1782 28.8221C31.8291 29.473 31.8291 30.5283 31.1782 31.1792C30.5273 31.83 29.472 31.83 28.8212 31.1792L8.82116 11.1792C8.17029 10.5283 8.17029 9.47301 8.82116 8.82214Z" fill="black"/>
</g>
</svg>
