<svg width="24" height="25" viewBox="0 0 24 25" fill="none" xmlns="http://www.w3.org/2000/svg">
<path fill-rule="evenodd" clip-rule="evenodd" d="M16 3.52734H8C5.23858 3.52734 3 5.76592 3 8.52734V16.5273C3 19.2887 5.23858 21.5273 8 21.5273H16C18.7614 21.5273 21 19.2887 21 16.5273V8.52734C21 5.76592 18.7614 3.52734 16 3.52734ZM19.25 16.5273C19.2445 18.3199 17.7926 19.7718 16 19.7773H8C6.20735 19.7718 4.75549 18.3199 4.75 16.5273V8.52734C4.75549 6.73469 6.20735 5.28283 8 5.27734H16C17.7926 5.28283 19.2445 6.73469 19.25 8.52734V16.5273ZM16.75 8.77734C17.3023 8.77734 17.75 8.32962 17.75 7.77734C17.75 7.22506 17.3023 6.77734 16.75 6.77734C16.1977 6.77734 15.75 7.22506 15.75 7.77734C15.75 8.32962 16.1977 8.77734 16.75 8.77734ZM12 8.02734C9.51472 8.02734 7.5 10.0421 7.5 12.5273C7.5 15.0126 9.51472 17.0273 12 17.0273C14.4853 17.0273 16.5 15.0126 16.5 12.5273C16.5027 11.333 16.0294 10.1869 15.1849 9.34242C14.3404 8.49793 13.1943 8.02468 12 8.02734ZM9.25 12.5273C9.25 14.0461 10.4812 15.2773 12 15.2773C13.5188 15.2773 14.75 14.0461 14.75 12.5273C14.75 11.0085 13.5188 9.77734 12 9.77734C10.4812 9.77734 9.25 11.0085 9.25 12.5273Z" fill="#334155"/>
</svg>
