<svg width="24" height="24" viewBox="0 0 24 24" fill="none" xmlns="http://www.w3.org/2000/svg">
<g id="ion:attach-outline">
<path id="Vector (Stroke)" fill-rule="evenodd" clip-rule="evenodd" d="M9.19062 3.23378C9.67111 3.03305 10.1867 2.92969 10.7074 2.92969C11.2281 2.92969 11.7437 3.03305 12.2241 3.23378C12.7046 3.43451 13.1405 3.72862 13.5065 4.09906C13.8724 4.4695 14.1612 4.90889 14.3561 5.39177C14.5504 5.87326 14.6475 6.38843 14.6418 6.90759L14.6357 15.7475L14.6356 15.7531C14.6248 16.4431 14.343 17.101 13.8513 17.585C13.3596 18.0691 12.6972 18.3404 12.0072 18.3404C11.3172 18.3404 10.6549 18.0691 10.1632 17.585C9.67142 17.101 9.3897 16.443 9.3788 15.7531L9.37871 15.7472V8.99832C9.37871 8.58411 9.7145 8.24832 10.1287 8.24832C10.5429 8.24832 10.8787 8.58411 10.8787 8.99832V15.7346C10.8847 16.029 11.0055 16.3094 11.2154 16.516C11.4266 16.7239 11.711 16.8404 12.0072 16.8404C12.3035 16.8404 12.5879 16.7239 12.799 16.516C13.009 16.3094 13.1298 16.0288 13.1357 15.7344L13.1418 6.8982L13.1419 6.89391C13.1458 6.57172 13.0857 6.25196 12.9651 5.95317C12.8445 5.65437 12.6658 5.38248 12.4394 5.15327C12.2129 4.92405 11.9432 4.74206 11.6459 4.61785C11.3486 4.49365 11.0296 4.42969 10.7074 4.42969C10.3852 4.42969 10.0662 4.49365 9.76885 4.61785C9.47154 4.74206 9.20184 4.92405 8.97539 5.15327C8.74893 5.38248 8.57023 5.65437 8.44964 5.95317C8.32905 6.25196 8.26897 6.57172 8.27287 6.89391L8.27293 6.89846V15.8063L8.27285 15.8117C8.2657 16.3056 8.35681 16.796 8.54089 17.2544C8.72496 17.7128 8.99832 18.1301 9.34508 18.4819C9.69184 18.8337 10.1051 19.1131 10.5608 19.3038C11.0165 19.4944 11.5055 19.5926 11.9995 19.5926C12.4935 19.5926 12.9825 19.4944 13.4382 19.3038C13.8939 19.1131 14.3071 18.8337 14.6539 18.4819C15.0007 18.1301 15.274 17.7128 15.4581 17.2544C15.6422 16.796 15.7333 16.3056 15.7261 15.8117L15.7261 15.8063V7.48614C15.7261 7.07192 16.0618 6.73614 16.4761 6.73614C16.8903 6.73614 17.2261 7.07192 17.2261 7.48614V15.7956C17.2353 16.4864 17.1075 17.1722 16.8501 17.8134C16.5919 18.4563 16.2085 19.0414 15.7222 19.5348C15.2359 20.0282 14.6563 20.4201 14.0172 20.6875C13.3782 20.9549 12.6923 21.0926 11.9995 21.0926C11.3067 21.0926 10.6208 20.9549 9.98174 20.6875C9.34265 20.4201 8.7631 20.0282 8.27678 19.5348C7.79046 19.0414 7.40708 18.4563 7.14892 17.8134C6.89146 17.1722 6.76368 16.4864 6.77293 15.7956V6.90732C6.76726 6.38825 6.86436 5.87318 7.05866 5.39177C7.25354 4.90889 7.54234 4.4695 7.90831 4.09906C8.27428 3.72862 8.71014 3.43451 9.19062 3.23378Z" fill="#2988B3"/>
</g>
</svg>
