<svg width="16" height="16" viewBox="0 0 16 16" fill="none" xmlns="http://www.w3.org/2000/svg">
<path d="M9.33529 7.33203H6.66862C6.315 7.33203 5.97586 7.19156 5.72581 6.94151C5.47576 6.69146 5.33529 6.35232 5.33529 5.9987C5.33529 5.64508 5.47576 5.30594 5.72581 5.05589C5.97586 4.80584 6.315 4.66536 6.66862 4.66536H10.002C10.1788 4.66536 10.3483 4.7356 10.4734 4.86063C10.5984 4.98565 10.6686 5.15522 10.6686 5.33203C10.6686 5.50884 10.7389 5.67841 10.8639 5.80344C10.9889 5.92846 11.1585 5.9987 11.3353 5.9987C11.5121 5.9987 11.6817 5.92846 11.8067 5.80344C11.9317 5.67841 12.002 5.50884 12.002 5.33203C12.002 4.8016 11.7912 4.29289 11.4162 3.91782C11.0411 3.54274 10.5324 3.33203 10.002 3.33203H8.66862V1.9987C8.66862 1.82189 8.59838 1.65232 8.47336 1.52729C8.34833 1.40227 8.17876 1.33203 8.00195 1.33203C7.82514 1.33203 7.65557 1.40227 7.53055 1.52729C7.40552 1.65232 7.33529 1.82189 7.33529 1.9987V3.33203H6.66862C5.96138 3.33203 5.2831 3.61298 4.783 4.11308C4.2829 4.61318 4.00195 5.29145 4.00195 5.9987C4.00195 6.70594 4.2829 7.38422 4.783 7.88432C5.2831 8.38441 5.96138 8.66536 6.66862 8.66536H9.33529C9.68891 8.66536 10.028 8.80584 10.2781 9.05589C10.5281 9.30594 10.6686 9.64508 10.6686 9.9987C10.6686 10.3523 10.5281 10.6915 10.2781 10.9415C10.028 11.1916 9.68891 11.332 9.33529 11.332H6.00195C5.82514 11.332 5.65557 11.2618 5.53055 11.1368C5.40552 11.0117 5.33529 10.8422 5.33529 10.6654C5.33529 10.4886 5.26505 10.319 5.14002 10.194C5.015 10.0689 4.84543 9.9987 4.66862 9.9987C4.49181 9.9987 4.32224 10.0689 4.19722 10.194C4.07219 10.319 4.00195 10.4886 4.00195 10.6654C4.00195 11.1958 4.21267 11.7045 4.58774 12.0796C4.96281 12.4547 5.47152 12.6654 6.00195 12.6654H7.33529V13.9987C7.33529 14.1755 7.40552 14.3451 7.53055 14.4701C7.65557 14.5951 7.82514 14.6654 8.00195 14.6654C8.17876 14.6654 8.34833 14.5951 8.47336 14.4701C8.59838 14.3451 8.66862 14.1755 8.66862 13.9987V12.6654H9.33529C10.0425 12.6654 10.7208 12.3844 11.2209 11.8843C11.721 11.3842 12.002 10.7059 12.002 9.9987C12.002 9.29145 11.721 8.61318 11.2209 8.11308C10.7208 7.61298 10.0425 7.33203 9.33529 7.33203Z" fill="#64748B"/>
</svg>
