<svg width="16" height="16" viewBox="0 0 16 16" fill="none" xmlns="http://www.w3.org/2000/svg">
<path d="M7.33269 1.33203C6.01414 1.33203 4.72521 1.72302 3.62888 2.45557C2.53256 3.18811 1.67807 4.2293 1.17349 5.44747C0.668904 6.66565 0.536882 8.00609 0.794117 9.2993C1.05135 10.5925 1.68629 11.7804 2.61864 12.7127C3.55099 13.6451 4.73888 14.28 6.03208 14.5373C7.32529 14.7945 8.66573 14.6625 9.88391 14.1579C11.1021 13.6533 12.1433 12.7988 12.8758 11.7025C13.6084 10.6062 13.9994 9.31724 13.9994 7.9987C13.9994 7.12322 13.8269 6.25631 13.4919 5.44747C13.1569 4.63864 12.6658 3.90371 12.0467 3.28465C11.4277 2.6656 10.6927 2.17453 9.88391 1.8395C9.07507 1.50447 8.20816 1.33203 7.33269 1.33203ZM7.33269 13.332C6.27785 13.332 5.24671 13.0192 4.36964 12.4332C3.49258 11.8472 2.809 11.0142 2.40533 10.0397C2.00166 9.06514 1.89604 7.99278 2.10183 6.95822C2.30762 5.92365 2.81557 4.97334 3.56145 4.22746C4.30733 3.48158 5.25764 2.97363 6.2922 2.76784C7.32677 2.56206 8.39912 2.66767 9.37366 3.07134C10.3482 3.47501 11.1812 4.15859 11.7672 5.03566C12.3532 5.91272 12.666 6.94386 12.666 7.9987C12.666 9.41319 12.1041 10.7697 11.1039 11.7699C10.1037 12.7701 8.74717 13.332 7.33269 13.332ZM9.39935 8.4187L7.99935 7.61203V4.66536C7.99935 4.48855 7.92911 4.31898 7.80409 4.19396C7.67907 4.06894 7.5095 3.9987 7.33269 3.9987C7.15587 3.9987 6.98631 4.06894 6.86128 4.19396C6.73626 4.31898 6.66602 4.48855 6.66602 4.66536V7.9987C6.66602 7.9987 6.66602 8.05203 6.66602 8.0787C6.66997 8.12463 6.68122 8.16964 6.69935 8.21203C6.71308 8.25158 6.73096 8.28957 6.75269 8.32536C6.77093 8.36326 6.79328 8.39903 6.81935 8.43203L6.92602 8.5187L6.98602 8.5787L8.71935 9.5787C8.82095 9.63628 8.9359 9.66617 9.05269 9.66536C9.2003 9.6664 9.34408 9.61841 9.46148 9.52892C9.57888 9.43944 9.66326 9.31352 9.70139 9.17092C9.73952 9.02831 9.72924 8.87708 9.67216 8.74095C9.61509 8.60482 9.51445 8.49147 9.38602 8.4187H9.39935Z" fill="#64748B"/>
</svg>
