<svg width="12" height="14" viewBox="0 0 12 14" fill="none" xmlns="http://www.w3.org/2000/svg">
<path d="M11.6399 5.42151C11.5463 4.44745 11.2021 3.51423 10.6407 2.71272C10.0793 1.91121 9.31999 1.26873 8.43658 0.847837C7.55318 0.426945 6.57584 0.241988 5.59973 0.310977C4.62362 0.379966 3.68201 0.700548 2.86659 1.24151C2.16605 1.70994 1.57796 2.32771 1.14455 3.05044C0.711143 3.77316 0.443184 4.58291 0.359921 5.42151C0.278242 6.25461 0.383037 7.09545 0.666701 7.88302C0.950365 8.6706 1.40579 9.38515 1.99992 9.97484L5.53325 13.5148C5.59523 13.5773 5.66896 13.6269 5.7502 13.6608C5.83144 13.6946 5.91858 13.712 6.00659 13.712C6.09459 13.712 6.18173 13.6946 6.26297 13.6608C6.34421 13.6269 6.41794 13.5773 6.47992 13.5148L9.99992 9.97484C10.5941 9.38515 11.0495 8.6706 11.3331 7.88302C11.6168 7.09545 11.7216 6.25461 11.6399 5.42151ZM9.06659 9.03484L5.99992 12.1015L2.93325 9.03484C2.48131 8.58288 2.13512 8.03639 1.91957 7.43468C1.70401 6.83297 1.62444 6.19097 1.68659 5.55484C1.74913 4.90891 1.95443 4.28495 2.28763 3.72807C2.62084 3.17119 3.07362 2.69531 3.61325 2.33484C4.32055 1.865 5.15079 1.61437 5.99992 1.61437C6.84905 1.61437 7.67929 1.865 8.38659 2.33484C8.92458 2.69392 9.37637 3.1677 9.70949 3.72213C10.0426 4.27657 10.2488 4.89791 10.3133 5.54151C10.3774 6.17979 10.2989 6.82436 10.0832 7.42854C9.86763 8.03272 9.52036 8.5814 9.06659 9.03484ZM5.99992 3.00151C5.40658 3.00151 4.82656 3.17745 4.33321 3.5071C3.83986 3.83674 3.45534 4.30528 3.22828 4.85346C3.00122 5.40164 2.94181 6.00484 3.05756 6.58678C3.17332 7.16872 3.45904 7.70327 3.8786 8.12283C4.29816 8.54239 4.83271 8.82811 5.41465 8.94386C5.99659 9.05962 6.59979 9.00021 7.14797 8.77315C7.69615 8.54608 8.16468 8.16157 8.49433 7.66822C8.82397 7.17487 8.99992 6.59485 8.99992 6.00151C8.99816 5.2064 8.68152 4.44436 8.1193 3.88213C7.55707 3.31991 6.79503 3.00327 5.99992 3.00151ZM5.99992 7.66817C5.67028 7.66817 5.34805 7.57043 5.07397 7.38729C4.79989 7.20416 4.58627 6.94386 4.46012 6.63931C4.33398 6.33477 4.30097 5.99966 4.36528 5.67636C4.42959 5.35306 4.58832 5.05608 4.82141 4.823C5.0545 4.58991 5.35147 4.43117 5.67477 4.36687C5.99807 4.30256 6.33318 4.33556 6.63773 4.46171C6.94227 4.58785 7.20257 4.80148 7.3857 5.07556C7.56884 5.34964 7.66659 5.67187 7.66659 6.00151C7.66659 6.44354 7.49099 6.86746 7.17843 7.18002C6.86587 7.49258 6.44195 7.66817 5.99992 7.66817Z" fill="#64748B"/>
</svg>
