<svg width="24" height="25" viewBox="0 0 24 25" fill="none" xmlns="http://www.w3.org/2000/svg">
<path fill-rule="evenodd" clip-rule="evenodd" d="M4.5 3.52734C3.67157 3.52734 3 4.19891 3 5.02734V20.0273C3 20.8557 3.67157 21.5273 4.5 21.5273H19.5C20.3284 21.5273 21 20.8557 21 20.0273V5.02734C21 4.19891 20.3284 3.52734 19.5 3.52734H4.5ZM8.52076 7.53006C8.52639 8.48631 7.81061 9.07553 6.96123 9.07131C6.16107 9.06709 5.46357 8.43006 5.46779 7.53147C5.47201 6.68631 6.13998 6.00709 7.00764 6.02678C7.88795 6.04647 8.52639 6.69194 8.52076 7.53006ZM12.2797 10.2891H9.75971H9.7583V18.8489H12.4217V18.6492C12.4217 18.2693 12.4214 17.8893 12.4211 17.5092C12.4203 16.4954 12.4194 15.4805 12.4246 14.467C12.426 14.2209 12.4372 13.965 12.5005 13.7301C12.7381 12.8526 13.5271 12.2859 14.4074 12.4252C14.9727 12.5137 15.3467 12.8414 15.5042 13.3744C15.6013 13.7076 15.6449 14.0662 15.6491 14.4136C15.6605 15.4612 15.6589 16.5088 15.6573 17.5565C15.6567 17.9263 15.6561 18.2963 15.6561 18.6661V18.8475H18.328V18.6422C18.328 18.1902 18.3278 17.7383 18.3275 17.2864C18.327 16.1569 18.3264 15.0274 18.3294 13.8975C18.3308 13.387 18.276 12.8836 18.1508 12.39C17.9638 11.6559 17.5771 11.0484 16.9485 10.6097C16.5027 10.2975 16.0133 10.0964 15.4663 10.0739C15.404 10.0714 15.3412 10.068 15.2781 10.0646C14.9984 10.0494 14.7141 10.0341 14.4467 10.088C13.6817 10.2413 13.0096 10.5914 12.5019 11.2087C12.4429 11.2795 12.3852 11.3514 12.2991 11.4587L12.2797 11.483V10.2891ZM5.68164 18.8517H8.33242V10.2947H5.68164V18.8517Z" fill="#334155"/>
</svg>
