<svg width="32" height="32" viewBox="0 0 32 32" fill="none" xmlns="http://www.w3.org/2000/svg">
<rect width="32" height="32" rx="4" fill="#3AC2FF"/>
<path d="M8.1875 6.01953C7.60734 6.01953 7.05094 6.20391 6.6407 6.53209C6.23047 6.86028 6 7.3054 6 7.76953V10.2695C6 11.2355 6.98 12.0195 8.1875 12.0195H23.8125C24.3927 12.0195 24.9491 11.8352 25.3593 11.507C25.7695 11.1788 26 10.7337 26 10.2695V7.76953C26 7.3054 25.7695 6.86028 25.3593 6.53209C24.9491 6.20391 24.3927 6.01953 23.8125 6.01953H8.1875ZM8.1875 13.0195C7.60734 13.0195 7.05094 13.2039 6.6407 13.5321C6.23047 13.8603 6 14.3054 6 14.7695V17.2695C6 18.2355 6.98 19.0195 8.1875 19.0195H23.8125C24.3927 19.0195 24.9491 18.8352 25.3593 18.507C25.7695 18.1788 26 17.7337 26 17.2695V14.7695C26 14.3054 25.7695 13.8603 25.3593 13.5321C24.9491 13.2039 24.3927 13.0195 23.8125 13.0195H8.1875ZM8.1875 20.0195C7.60734 20.0195 7.05094 20.2039 6.6407 20.5321C6.23047 20.8603 6 21.3054 6 21.7695V24.2695C6 25.2355 6.98 26.0195 8.1875 26.0195H23.8125C24.3927 26.0195 24.9491 25.8352 25.3593 25.507C25.7695 25.1788 26 24.7337 26 24.2695V21.7695C26 21.3054 25.7695 20.8603 25.3593 20.5321C24.9491 20.2039 24.3927 20.0195 23.8125 20.0195H8.1875Z" fill="#EBF9FF"/>
</svg>
