<svg width="24" height="24" viewBox="0 0 24 24" fill="none" xmlns="http://www.w3.org/2000/svg">
<path d="M18.0009 4.47747C16.4096 2.88617 14.2513 1.99219 12.0009 1.99219C9.75047 1.99219 7.59221 2.88617 6.00091 4.47747C4.40961 6.06877 3.51563 8.22703 3.51563 10.4775C3.51562 12.7279 4.40961 14.8862 6.00091 16.4775L11.2709 21.7575C11.3639 21.8512 11.4745 21.9256 11.5963 21.9764C11.7182 22.0271 11.8489 22.0533 11.9809 22.0533C12.1129 22.0533 12.2436 22.0271 12.3655 21.9764C12.4873 21.9256 12.5979 21.8512 12.6909 21.7575L18.0009 16.4275C19.5856 14.8428 20.4758 12.6935 20.4758 10.4525C20.4758 8.21142 19.5856 6.06215 18.0009 4.47747ZM16.5709 14.9975L12.0009 19.5875L7.43091 14.9975C6.52805 14.0938 5.91338 12.9427 5.6646 11.6898C5.41582 10.4368 5.54409 9.13822 6.03321 7.95815C6.52233 6.77808 7.35032 5.76952 8.41254 5.05995C9.47475 4.35037 10.7235 3.97165 12.0009 3.97165C13.2783 3.97165 14.5271 4.35037 15.5893 5.05995C16.6515 5.76952 17.4795 6.77808 17.9686 7.95815C18.4577 9.13822 18.586 10.4368 18.3372 11.6898C18.0884 12.9427 17.4738 14.0938 16.5709 14.9975ZM9.00091 7.40747C8.19362 8.21724 7.7403 9.31404 7.7403 10.4575C7.7403 11.6009 8.19362 12.6977 9.00091 13.5075C9.60067 14.1083 10.3645 14.5185 11.1966 14.6869C12.0286 14.8552 12.8919 14.7741 13.678 14.4536C14.4641 14.1332 15.1381 13.5877 15.6154 12.8857C16.0927 12.1837 16.352 11.3563 16.3609 10.5075C16.3654 9.94067 16.2562 9.37873 16.0398 8.85486C15.8234 8.33099 15.5041 7.85582 15.1009 7.45747C14.7046 7.05205 14.232 6.72901 13.7103 6.50693C13.1887 6.28486 12.6282 6.16814 12.0613 6.1635C11.4944 6.15885 10.9321 6.26637 10.4069 6.47986C9.88165 6.69335 9.40383 7.0086 9.00091 7.40747ZM13.6909 12.0875C13.3119 12.4722 12.8111 12.7134 12.274 12.7697C11.7369 12.8261 11.197 12.6941 10.7464 12.3964C10.2959 12.0987 9.9627 11.6537 9.80391 11.1376C9.64512 10.6214 9.67056 10.0661 9.87586 9.56662C10.0812 9.06714 10.4536 8.65448 10.9295 8.39921C11.4054 8.14393 11.9552 8.06188 12.4848 8.16709C13.0145 8.27229 13.4912 8.55823 13.8334 8.976C14.1756 9.39377 14.3621 9.91744 14.3609 10.4575C14.3464 11.0747 14.0874 11.661 13.6409 12.0875H13.6909Z" fill="#94A3B8"/>
</svg>
