<svg width="20" height="20" viewBox="0 0 20 20" fill="none" xmlns="http://www.w3.org/2000/svg">
<g id="logos:facebook" clip-path="url(#clip0_4362_27904)">
<path id="Vector" d="M20 10C20 4.47719 15.5228 0 10 0C4.47719 0 0 4.47719 0 10C0 14.9913 3.65687 19.1284 8.4375 19.8785V12.8906H5.89844V10H8.4375V7.79688C8.4375 5.29063 9.93047 3.90625 12.2147 3.90625C13.3088 3.90625 14.4531 4.10156 14.4531 4.10156V6.5625H13.1922C11.9499 6.5625 11.5625 7.33336 11.5625 8.12422V10H14.3359L13.8926 12.8906H11.5625V19.8785C16.3431 19.1284 20 14.9913 20 10Z" fill="#1877F2"/>
<path id="Vector_2" d="M13.8925 12.8906L14.3358 10H11.5624V8.12422C11.5624 7.33328 11.9498 6.5625 13.1921 6.5625H14.453V4.10156C14.453 4.10156 13.3086 3.90625 12.2145 3.90625C9.93035 3.90625 8.43738 5.29063 8.43738 7.79688V10H5.89832V12.8906H8.43738V19.8785C8.95427 19.9595 9.47668 20.0001 9.99988 20C10.5231 20.0002 11.0455 19.9595 11.5624 19.8785V12.8906H13.8925Z" fill="white"/>
</g>
<defs>
<clipPath id="clip0_4362_27904">
<rect width="20" height="20" fill="white"/>
</clipPath>
</defs>
</svg>
