<svg width="48" height="49" viewBox="0 0 48 49" fill="none" xmlns="http://www.w3.org/2000/svg">
<rect y="0.285156" width="48" height="48" rx="24" fill="#007AFC"/>
<g clip-path="url(#clip0_2856_3990)">
<path fill-rule="evenodd" clip-rule="evenodd" d="M28.4512 13.3052C28.7926 13.3937 28.9998 13.7508 28.9138 14.1028L26.007 26.0091C25.9534 26.2287 25.7939 26.4043 25.5849 26.474C25.3759 26.5436 25.1468 26.4974 24.9787 26.3518L22.1925 23.9379L20.8356 29.2617C20.7882 29.4475 20.6643 29.6027 20.4965 29.6863C20.3287 29.7699 20.1338 29.7737 19.963 29.6965L16.6482 28.1984C16.3258 28.0526 16.179 27.6651 16.3204 27.3327C16.4618 27.0004 16.8378 26.8491 17.1602 26.9948L19.792 28.1843L21.2153 22.6001C21.2708 22.3822 21.4306 22.2089 21.6389 22.1408C21.8471 22.0726 22.0747 22.1191 22.242 22.264L25.0192 24.6702L27.6775 13.782C27.7634 13.4301 28.1098 13.2166 28.4512 13.3052Z" fill="#ECEDED"/>
<path fill-rule="evenodd" clip-rule="evenodd" d="M27.7893 13.347C28.1135 13.2201 28.5232 13.2944 28.7181 13.5155L30.0974 15.08C30.2981 15.3077 30.1967 15.6061 29.8708 15.7464C29.5449 15.8868 29.118 15.8159 28.9172 15.5881L27.8867 14.4193L26.1658 15.0931C25.8318 15.2238 25.4094 15.1406 25.2223 14.9072C25.0353 14.6739 25.1543 14.3787 25.4882 14.2479L27.7893 13.347Z" fill="#ECEDED"/>
<path fill-rule="evenodd" clip-rule="evenodd" d="M23.2333 18.3585C19.3917 18.3585 16.2725 21.4777 16.2725 25.3193C16.2725 29.1609 19.3917 32.2801 23.2333 32.2801C27.0753 32.2801 30.1941 29.1669 30.1941 25.3193C30.1941 23.5989 29.5707 22.0259 28.5388 20.8133C28.3111 20.5456 28.3434 20.1441 28.611 19.9163C28.8787 19.6886 29.2802 19.7209 29.508 19.9886C30.7285 21.4228 31.4667 23.2857 31.4667 25.3193C31.4667 29.8704 27.7774 33.5526 23.2333 33.5526C18.6889 33.5526 15 29.8637 15 25.3193C15 20.7748 18.6889 17.0859 23.2333 17.0859C23.7851 17.0859 24.3226 17.1411 24.8454 17.2443C25.1902 17.3124 25.4145 17.647 25.3464 17.9918C25.2784 18.3365 24.9438 18.5608 24.599 18.4928C24.1547 18.4051 23.6996 18.3585 23.2333 18.3585Z" fill="white"/>
<path fill-rule="evenodd" clip-rule="evenodd" d="M29.3484 28.6753C29.5775 28.4162 29.9444 28.4215 30.1678 28.6872L33.8357 33.0483C33.948 33.1818 34.0074 33.3635 33.9996 33.5499C33.9919 33.7363 33.9176 33.9105 33.7947 34.0309L31.8594 35.9258C31.7405 36.0422 31.5864 36.0982 31.4316 36.0814C31.2767 36.0646 31.1342 35.9764 31.0361 35.8365L27.797 31.2201C27.595 30.9322 27.6325 30.509 27.8807 30.2747C28.129 30.0405 28.4939 30.084 28.6959 30.3718L31.5626 34.4575L32.5714 33.4698L29.3382 29.6255C29.1148 29.3599 29.1193 28.9344 29.3484 28.6753Z" fill="white"/>
</g>
<defs>
<clipPath id="clip0_2856_3990">
<rect width="24" height="24" fill="white" transform="translate(12 12.2852)"/>
</clipPath>
</defs>
</svg>
