<svg width="82" height="100" viewBox="0 0 82 100" fill="none" xmlns="http://www.w3.org/2000/svg">
<path d="M10.3381 84.8099L34.2976 38.5796C34.8066 37.5975 35.9662 37.1468 37.0049 37.5272L57.4408 45.0127C58.6357 45.4504 59.2103 46.8084 58.6924 47.9709L38.4501 93.4048C37.7424 94.9933 35.5575 95.1696 34.6043 93.7151L28.2566 84.0293C27.6937 83.1704 26.611 82.8158 25.649 83.1752L13.0587 87.88C11.1741 88.5842 9.41232 86.5962 10.3381 84.8099Z" fill="#CBD5E1"/>
<path d="M48.8148 93.0095L28.5069 44.963C28.0897 43.9761 28.6946 43.0108 29.8895 42.7567L51.1886 38.227C52.4517 37.9583 53.8995 38.5817 54.4078 39.613L76.8066 85.057C77.5689 86.6036 75.7984 87.9107 73.8317 87.2531L61.7131 83.2009C60.4999 82.7953 59.2127 83.1367 58.7401 83.9894L53.4147 93.5968C52.5646 95.1305 49.5486 94.7455 48.8148 93.0095Z" fill="#E2E8F0"/>
<path d="M38.6832 6.21474C39.4828 4.06959 42.517 4.06959 43.3167 6.21474L45.7051 12.6216C46.3137 14.2541 48.3745 14.762 49.672 13.5994L54.7642 9.03629C56.4692 7.50849 59.1559 8.91855 58.867 11.1896L58.0044 17.9726C57.7847 19.7008 59.3734 21.1083 61.0625 20.6818L67.6921 19.0079C69.9118 18.4475 71.6354 20.9445 70.3242 22.8213L66.4082 28.4264C65.4105 29.8546 66.1631 31.8391 67.857 32.2465L74.5051 33.8452C76.731 34.3805 77.0967 37.3926 75.0636 38.445L68.9913 41.5882C67.4441 42.3891 67.1883 44.4961 68.4988 45.644L73.6424 50.1491C75.3646 51.6575 74.2887 54.4945 71.9994 54.4816L65.1619 54.4429C63.4197 54.433 62.214 56.1798 62.841 57.8052L65.3018 64.1847C66.1257 66.3206 63.8546 68.3326 61.8335 67.2573L55.7972 64.0454C54.2592 63.2271 52.3799 64.2135 52.1797 65.9441L51.3939 72.7364C51.1308 75.0106 48.1848 75.7367 46.895 73.8453L43.0427 68.1961C42.0612 66.7568 39.9387 66.7568 38.9572 68.1961L35.1049 73.8453C33.8151 75.7367 30.869 75.0106 30.606 72.7364L29.8202 65.9441C29.62 64.2135 27.7407 63.2271 26.2027 64.0454L20.1663 67.2573C18.1453 68.3326 15.8741 66.3206 16.6981 64.1847L19.1589 57.8052C19.7859 56.1798 18.5802 54.433 16.838 54.4429L10.0005 54.4816C7.7112 54.4945 6.63527 51.6575 8.35744 50.1491L13.5011 45.644C14.8116 44.4961 14.5558 42.3891 13.0086 41.5882L6.9363 38.445C4.90319 37.3926 5.26892 34.3805 7.49481 33.8452L14.1429 32.2465C15.8368 31.8391 16.5894 29.8546 15.5916 28.4264L11.6756 22.8213C10.3645 20.9445 12.0881 18.4475 14.3078 19.0079L20.9374 20.6818C22.6265 21.1083 24.2152 19.7008 23.9954 17.9726L23.1328 11.1896C22.844 8.91855 25.5307 7.50849 27.2356 9.03629L32.3279 13.5994C33.6254 14.762 35.6862 14.2541 36.2947 12.6216L38.6832 6.21474Z" fill="#F1F5F9"/>
<circle cx="41" cy="40.2431" r="19.3681" fill="#F8FAFC"/>
</svg>
