<svg width="108" height="101" viewBox="0 0 108 101" fill="none" xmlns="http://www.w3.org/2000/svg">
<path d="M44.0822 0.578125L94.048 0.578125L100.869 7.70927L107.197 15.0863V86.8076H44.0822V0.578125Z" fill="#E2E8F0"/>
<path d="M94.0002 15.6601V0.578125L107.197 15.0044L94.0002 15.6601Z" fill="white"/>
<rect x="50.1477" y="6.15625" width="38.8525" height="7.21312" fill="#F1F5F9"/>
<rect x="50.1478" y="17.4688" width="51.6393" height="7.21312" fill="#F1F5F9"/>
<rect x="50.1478" y="28.7812" width="51.6393" height="7.21312" fill="#F1F5F9"/>
<rect x="50.1478" y="40.0938" width="51.6393" height="7.21312" fill="#F1F5F9"/>
<rect x="50.1477" y="51.3984" width="51.6393" height="7.21312" fill="#F1F5F9"/>
<rect x="50.1477" y="62.7109" width="51.6393" height="7.21312" fill="#F1F5F9"/>
<rect x="50.1477" y="74.0234" width="51.6393" height="7.21312" fill="#F1F5F9"/>
<rect x="0.803467" y="14.3516" width="62.9508" height="86.2295" fill="#E2E8F0"/>
<rect x="6.04932" y="30.7422" width="52.2951" height="63.9344" fill="#F1F5F9"/>
<rect x="17.033" y="19.9219" width="41.4754" height="7.21312" fill="#F1F5F9"/>
<circle cx="9.81981" cy="23.5284" r="3.60656" fill="#F1F5F9"/>
<circle cx="26.5412" cy="43.855" r="5.57377" fill="#E2E8F0"/>
<path d="M19.0002 53.614L6.62317 69.1878V94.5156H57.9346V59.5976L43.3445 39.5156L28.7543 69.1878L19.0002 53.614Z" fill="#CBD5E1"/>
</svg>
