<svg width="200" height="32" viewBox="0 0 200 32" fill="none" xmlns="http://www.w3.org/2000/svg">
<path d="M15.7895 0L20.6684 10.3935L31.5789 12.0704L23.6842 20.1561L25.5474 31.5789L15.7895 26.183L6.03158 31.5789L7.89474 20.1561L0 12.0704L10.9105 10.3935L15.7895 0Z" fill="#F1F5F9"/>
<path d="M57.8947 0L62.7736 10.3935L73.6842 12.0704L65.7894 20.1561L67.6526 31.5789L57.8947 26.183L48.1368 31.5789L50 20.1561L42.1052 12.0704L53.0157 10.3935L57.8947 0Z" fill="#F1F5F9"/>
<path d="M100 0L104.879 10.3935L115.79 12.0704L107.895 20.1561L109.758 31.5789L100 26.183L90.2422 31.5789L92.1053 20.1561L84.2106 12.0704L95.1211 10.3935L100 0Z" fill="#F1F5F9"/>
<path d="M142.105 0L146.984 10.3935L157.895 12.0704L150 20.1561L151.863 31.5789L142.105 26.183L132.347 31.5789L134.211 20.1561L126.316 12.0704L137.226 10.3935L142.105 0Z" fill="#F1F5F9"/>
<path d="M184.21 0L189.089 10.3935L200 12.0704L192.105 20.1561L193.968 31.5789L184.21 26.183L174.453 31.5789L176.316 20.1561L168.421 12.0704L179.332 10.3935L184.21 0Z" fill="#F1F5F9"/>
</svg>
