<svg width="124" height="101" viewBox="0 0 124 101" fill="none" xmlns="http://www.w3.org/2000/svg">
<g clip-path="url(#clip0_5596_31068)">
<path d="M34.956 23.9096C34.956 24.9114 34.3161 25.7236 33.5275 25.7236H23.5269C22.7377 25.7236 22.0984 24.9114 22.0984 23.9096V15.445C22.0984 14.4438 22.7377 13.6328 23.5269 13.6328H33.5275C34.3161 13.6328 34.956 14.4438 34.956 15.445V23.9096Z" fill="#CBD5E1"/>
<path d="M103.169 23.9096C103.169 24.9114 102.529 25.7236 101.74 25.7236H91.7403C90.9505 25.7236 90.3112 24.9114 90.3112 23.9096V15.445C90.3112 14.4438 90.9505 13.6328 91.7403 13.6328H101.74C102.529 13.6328 103.169 14.4438 103.169 15.445V23.9096Z" fill="#CBD5E1"/>
<path d="M42.4466 23.9451V10.3188C42.4466 9.13224 43.14 8.17017 43.9957 8.17017H81.5331C82.3881 8.17017 83.0809 9.13224 83.0809 10.3188V23.9451H88.3533V9.91831C88.3533 8.58062 87.6406 1.82812 83.0523 1.82812H42.9715C39.7326 1.82812 37.1748 6.39281 37.1748 9.91831V23.9451H42.4466Z" fill="#EFF3F8"/>
<path d="M122.953 98.102C122.953 99.4428 121.866 100.53 120.524 100.53H3.38443C2.04301 100.53 0.955322 99.4428 0.955322 98.102V19.2897C0.955322 17.9471 2.04301 16.8594 3.38443 16.8594H120.524C121.866 16.8594 122.953 17.9471 122.953 19.2897V98.102Z" fill="#E2E8F0"/>
<path d="M119.651 90.1654C119.651 91.3762 118.621 92.3569 117.353 92.3569H6.55607C5.28679 92.3569 4.25818 91.3762 4.25818 90.1654V19.0522C4.25818 17.8413 5.28679 16.8594 6.55607 16.8594H117.353C118.621 16.8594 119.651 17.8413 119.651 19.0522V90.1654Z" fill="#F1F5F9"/>
<path d="M121.866 36.608C122.575 36.0112 122.953 35.1464 122.953 34.2197V19.2897C122.953 17.9471 121.866 16.8594 120.524 16.8594H3.38443C2.04301 16.8594 0.955322 17.9471 0.955322 19.2897V34.2197C0.955322 35.1464 1.33373 36.0112 2.04266 36.608C8.01623 41.6369 37.4654 65.3352 61.9548 65.3352C86.4436 65.3352 115.892 41.6369 121.866 36.608Z" fill="#E2E8F0"/>
<path d="M72.8858 67.2571C72.8858 68.5985 71.7981 69.6875 70.4567 69.6875H53.4529C52.1109 69.6875 51.0232 68.5985 51.0232 67.2571V55.9219C51.0232 54.5793 52.1109 53.4922 53.4529 53.4922H70.4567C71.7981 53.4922 72.8858 54.5793 72.8858 55.9219V67.2571Z" fill="#CBD5E1"/>
<path d="M81.1631 8.41271C81.1631 9.49169 80.6015 10.3679 79.9099 10.3679H45.6164C44.9242 10.3679 44.3633 9.49169 44.3633 8.41271V2.53149C44.3633 1.45251 44.9242 0.578125 45.6164 0.578125H79.9099C80.6015 0.578125 81.1631 1.45251 81.1631 2.53149V8.41271Z" fill="#E2E8F0"/>
</g>
<defs>
<clipPath id="clip0_5596_31068">
<rect width="122.09" height="100" fill="white" transform="translate(0.9552 0.578125)"/>
</clipPath>
</defs>
</svg>
