<svg width="20" height="20" viewBox="0 0 20 20" fill="none" xmlns="http://www.w3.org/2000/svg">
<g id="refresh-cw">
<path id="Vector" d="M19.1665 3.33594V8.33594H14.1665" stroke="#22262D" stroke-width="1.66667" stroke-linecap="round" stroke-linejoin="round"/>
<path id="Vector_2" d="M0.833496 16.6641V11.6641H5.8335" stroke="#22262D" stroke-width="1.66667" stroke-linecap="round" stroke-linejoin="round"/>
<path id="Vector_3" d="M2.92516 7.49803C3.3478 6.30368 4.06611 5.23586 5.01305 4.39421C5.96 3.55256 7.10472 2.9645 8.3404 2.68491C9.57608 2.40532 10.8625 2.44331 12.0795 2.79534C13.2965 3.14737 14.4045 3.80196 15.3002 4.69803L19.1668 8.33136M0.833496 11.6647L4.70016 15.298C5.59579 16.1941 6.70381 16.8487 7.92084 17.2007C9.13787 17.5527 10.4242 17.5907 11.6599 17.3111C12.8956 17.0316 14.0403 16.4435 14.9873 15.6018C15.9342 14.7602 16.6525 13.6924 17.0752 12.498" stroke="#22262D" stroke-width="1.66667" stroke-linecap="round" stroke-linejoin="round"/>
</g>
</svg>
