<svg width="48" height="49" viewBox="0 0 48 49" fill="none" xmlns="http://www.w3.org/2000/svg">
<rect y="0.285156" width="48" height="48" rx="24" fill="#FFBF35"/>
<path d="M14.9521 14.7148V19.4775H34.0027V14.7148H14.9521ZM17.7529 18.1167C17.1629 18.1167 16.6795 17.6541 16.6795 17.0894C16.6795 16.5246 17.1629 16.062 17.7529 16.062C18.3429 16.062 18.8262 16.5246 18.8262 17.0894C18.8262 17.6541 18.3429 18.1167 17.7529 18.1167Z" fill="#F6F6F6"/>
<path fill-rule="evenodd" clip-rule="evenodd" d="M17.0048 14.7206C16.1283 14.7206 15.414 15.4415 15.414 16.3356V31.6666C15.414 32.5564 16.124 33.2815 17.0048 33.2815H31.9508C32.8301 33.2815 33.5416 32.5578 33.5416 31.6594V16.3356C33.5416 15.4458 32.8315 14.7206 31.9508 14.7206H17.0048ZM14 16.3356C14 14.6458 15.3502 13.2852 17.0048 13.2852H31.9508C33.6153 13.2852 34.9556 14.6558 34.9556 16.3356V31.6594C34.9556 33.3449 33.6167 34.717 31.9508 34.717H17.0048C15.3403 34.717 14 33.3463 14 31.6666V16.3356Z" fill="white"/>
<path fill-rule="evenodd" clip-rule="evenodd" d="M18.5701 22.5459C18.8523 22.2608 19.3099 22.2608 19.5921 22.5459L22.8371 25.8239C23.1191 26.1088 23.1193 26.5706 22.8376 26.8558L19.5204 30.2141C19.2385 30.4995 18.7809 30.5 18.4984 30.2152C18.2158 29.9304 18.2153 29.4682 18.4973 29.1828L21.3046 26.3407L18.5701 23.5783C18.2878 23.2932 18.2878 22.831 18.5701 22.5459Z" fill="white"/>
<path fill-rule="evenodd" clip-rule="evenodd" d="M23.0488 30.191C23.0488 29.7964 23.3752 29.4766 23.7778 29.4766H29.4638C29.8664 29.4766 30.1928 29.7964 30.1928 30.191C30.1928 30.5855 29.8664 30.9053 29.4638 30.9053H23.7778C23.3752 30.9053 23.0488 30.5855 23.0488 30.191Z" fill="white"/>
<path fill-rule="evenodd" clip-rule="evenodd" d="M17.8106 16.3749C17.4141 16.3749 17.0927 16.6963 17.0927 17.0929C17.0927 17.4894 17.4141 17.8108 17.8106 17.8108C18.2071 17.8108 18.5286 17.4894 18.5286 17.0929C18.5286 16.6963 18.2071 16.3749 17.8106 16.3749ZM16.3818 17.0929C16.3818 16.3038 17.0215 15.6641 17.8106 15.6641C18.5997 15.6641 19.2394 16.3038 19.2394 17.0929C19.2394 17.8819 18.5997 18.5216 17.8106 18.5216C17.0215 18.5216 16.3818 17.8819 16.3818 17.0929Z" fill="white"/>
</svg>
