<svg width="20" height="20" viewBox="0 0 20 20" fill="none" xmlns="http://www.w3.org/2000/svg">
<g id="Frame 1321316349">
<path id="Ellipse 178" d="M20 10C20 15.5228 15.5228 20 10 20C4.47715 20 0 15.5228 0 10C0 4.47715 4.47715 0 10 0C15.5228 0 20 4.47715 20 10ZM3.59758 10C3.59758 13.536 6.46404 16.4024 10 16.4024C13.536 16.4024 16.4024 13.536 16.4024 10C16.4024 6.46404 13.536 3.59758 10 3.59758C6.46404 3.59758 3.59758 6.46404 3.59758 10Z" fill="#CBD5E1"/>
<path id="Ellipse 177" d="M11.4405 18.0477C11.618 19.0395 10.9544 20.0052 9.94679 19.9999C8.95313 19.9946 7.96237 19.8412 7.00774 19.5418C5.47045 19.0597 4.07239 18.2134 2.93258 17.0747C1.79276 15.9361 0.944939 14.5389 0.461268 13.0021C-0.022403 11.4653 -0.127599 9.8344 0.154636 8.2482C0.43687 6.662 1.09818 5.16748 2.08227 3.89185C3.06636 2.61621 4.34409 1.59724 5.80672 0.921654C7.26934 0.24607 8.87354 -0.0661194 10.4828 0.0116601C11.4821 0.0599595 12.4649 0.257748 13.3994 0.59554C14.347 0.938057 14.6368 2.07341 14.1281 2.94312C13.6193 3.81282 12.5005 4.07542 11.5223 3.83391C11.1252 3.73585 10.7181 3.67606 10.3066 3.65618C9.28456 3.60678 8.26569 3.80505 7.33675 4.23413C6.4078 4.66321 5.59628 5.31039 4.97127 6.12057C4.34625 6.93076 3.92624 7.87996 3.74698 8.88739C3.56773 9.89482 3.63454 10.9306 3.94173 11.9067C4.24892 12.8828 4.7874 13.7701 5.51132 14.4933C6.23524 15.2165 7.12318 15.754 8.09955 16.0602C8.49262 16.1835 8.89533 16.2678 9.30194 16.3128C10.3034 16.4235 11.263 17.0559 11.4405 18.0477Z" fill="#13C353"/>
</g>
</svg>
