<svg width="20" height="20" viewBox="0 0 20 20" fill="none" xmlns="http://www.w3.org/2000/svg">
<path d="M9.27935 10.1024L8.78288 12.1151C9.39573 12.2691 11.286 12.8829 11.5653 11.7475C11.8574 10.5633 9.89219 10.2571 9.27935 10.1024ZM9.95654 7.35557L9.50645 9.18103C10.0168 9.30972 11.59 9.83441 11.845 8.80165C12.1105 7.72433 10.4669 7.4842 9.95658 7.35557H9.95654ZM9.99935 1.67188C8.35118 1.67187 6.74001 2.16062 5.3696 3.0763C3.99919 3.99197 2.93109 5.29346 2.30036 6.81618C1.66963 8.3389 1.5046 10.0145 1.82614 11.631C2.14769 13.2475 2.94136 14.7323 4.1068 15.8978C5.27223 17.0632 6.75709 17.8569 8.3736 18.1784C9.99011 18.5 11.6657 18.3349 13.1884 17.7042C14.7111 17.0735 16.0126 16.0054 16.9283 14.635C17.8439 13.2646 18.3327 11.6534 18.3327 10.0052C18.3327 8.91086 18.1171 7.82723 17.6983 6.81618C17.2796 5.80513 16.6657 4.88647 15.8919 4.11265C15.1181 3.33883 14.1994 2.725 13.1884 2.30621C12.1773 1.88742 11.0937 1.67188 9.99935 1.67188ZM13.631 8.81803C13.6135 9.13775 13.4908 9.44273 13.2821 9.68552C13.0733 9.92831 12.7901 10.0953 12.4766 10.1605C12.6827 10.2444 12.8691 10.3701 13.0242 10.5296C13.1793 10.6891 13.2996 10.879 13.3777 11.0873C13.4557 11.2956 13.4897 11.5178 13.4776 11.74C13.4655 11.9621 13.4075 12.1793 13.3073 12.3779C12.8194 13.7881 11.6601 13.9071 10.1186 13.612L9.74439 15.1284L8.84035 14.9006L9.20962 13.4045C8.97529 13.3456 8.73583 13.2831 8.48914 13.2154L8.1186 14.7185L7.21559 14.4906L7.58975 12.9714C7.37857 12.9167 7.16409 12.8586 6.94522 12.8032L5.76877 12.5065L6.21758 11.4599C6.21758 11.4599 6.88368 11.6391 6.87468 11.6258C6.91613 11.6391 6.95981 11.6439 7.00316 11.6402C7.04651 11.6364 7.08868 11.624 7.12722 11.6038C7.16576 11.5836 7.19991 11.556 7.22768 11.5225C7.25545 11.489 7.2763 11.4503 7.289 11.4087L8.30352 7.29383C8.31654 7.16775 8.27978 7.04159 8.20108 6.94224C8.12238 6.8429 8.00797 6.77824 7.88227 6.76206C7.89644 6.75244 7.2256 6.59696 7.2256 6.59696L7.46613 5.62039L8.71288 5.93523L8.71185 5.93996C8.89928 5.98706 9.0924 6.03187 9.28914 6.07719L9.65968 4.57563L10.5632 4.80348L10.2002 6.27561C10.4427 6.3316 10.6869 6.38811 10.9245 6.44803L11.285 4.98553L12.1891 5.21339L11.8188 6.71547C12.9602 7.11311 13.795 7.70922 13.631 8.81803Z" fill="#334155"/>
</svg>
