<svg width="20" height="20" viewBox="0 0 20 20" fill="none" xmlns="http://www.w3.org/2000/svg">
<g id="u:comment-message">
<path id="Vector" d="M10.0004 1.66406C8.90603 1.66406 7.82239 1.87961 6.81135 2.2984C5.8003 2.71719 4.88164 3.33102 4.10782 4.10484C2.54502 5.66764 1.66704 7.78726 1.66704 9.9974C1.65976 11.9217 2.32604 13.7878 3.55038 15.2724L1.88371 16.9391C1.76808 17.0562 1.68975 17.2051 1.6586 17.3667C1.62746 17.5284 1.64489 17.6956 1.70871 17.8474C1.77792 17.9973 1.89013 18.1233 2.03108 18.2094C2.17203 18.2954 2.33538 18.3377 2.50038 18.3307H10.0004C12.2105 18.3307 14.3301 17.4528 15.8929 15.89C17.4557 14.3271 18.3337 12.2075 18.3337 9.9974C18.3337 7.78726 17.4557 5.66764 15.8929 4.10484C14.3301 2.54204 12.2105 1.66406 10.0004 1.66406V1.66406ZM10.0004 16.6641H4.50871L5.28371 15.8891C5.43892 15.7329 5.52604 15.5217 5.52604 15.3016C5.52604 15.0814 5.43892 14.8702 5.28371 14.7141C4.19253 13.6241 3.51302 12.1895 3.36095 10.6547C3.20888 9.11994 3.59366 7.5799 4.44973 6.297C5.3058 5.01409 6.5802 4.06769 8.05581 3.61904C9.53141 3.17039 11.1169 3.24723 12.5422 3.83649C13.9675 4.42575 15.1444 5.49096 15.8724 6.85064C16.6004 8.21032 16.8344 9.78035 16.5346 11.2932C16.2349 12.8061 15.4198 14.1683 14.2283 15.1476C13.0369 16.1269 11.5427 16.6628 10.0004 16.6641V16.6641ZM14.167 9.16406H5.83371C5.6127 9.16406 5.40073 9.25186 5.24445 9.40814C5.08817 9.56442 5.00038 9.77638 5.00038 9.9974C5.00038 10.2184 5.08817 10.4304 5.24445 10.5867C5.40073 10.7429 5.6127 10.8307 5.83371 10.8307H14.167C14.3881 10.8307 14.6 10.7429 14.7563 10.5867C14.9126 10.4304 15.0004 10.2184 15.0004 9.9974C15.0004 9.77638 14.9126 9.56442 14.7563 9.40814C14.6 9.25186 14.3881 9.16406 14.167 9.16406ZM12.5004 12.4974H7.50038C7.27936 12.4974 7.0674 12.5852 6.91112 12.7415C6.75484 12.8978 6.66704 13.1097 6.66704 13.3307C6.66704 13.5517 6.75484 13.7637 6.91112 13.92C7.0674 14.0763 7.27936 14.1641 7.50038 14.1641H12.5004C12.7214 14.1641 12.9334 14.0763 13.0896 13.92C13.2459 13.7637 13.3337 13.5517 13.3337 13.3307C13.3337 13.1097 13.2459 12.8978 13.0896 12.7415C12.9334 12.5852 12.7214 12.4974 12.5004 12.4974ZM7.50038 7.4974H12.5004C12.7214 7.4974 12.9334 7.4096 13.0896 7.25332C13.2459 7.09704 13.3337 6.88508 13.3337 6.66406C13.3337 6.44305 13.2459 6.23109 13.0896 6.07481C12.9334 5.91853 12.7214 5.83073 12.5004 5.83073H7.50038C7.27936 5.83073 7.0674 5.91853 6.91112 6.07481C6.75484 6.23109 6.66704 6.44305 6.66704 6.66406C6.66704 6.88508 6.75484 7.09704 6.91112 7.25332C7.0674 7.4096 7.27936 7.4974 7.50038 7.4974V7.4974Z" fill="black"/>
</g>
</svg>
