<svg width="20" height="20" viewBox="0 0 20 20" fill="none" xmlns="http://www.w3.org/2000/svg">
<g id="u:link">
<path id="Vector" d="M8.33255 14.6262L6.85755 16.0596C6.47077 16.4463 5.94619 16.6636 5.39921 16.6636C4.85223 16.6636 4.32765 16.4463 3.94088 16.0596C3.55411 15.6728 3.33682 15.1482 3.33682 14.6012C3.33682 14.0542 3.55411 13.5297 3.94088 13.1429L7.72421 9.35122C8.09556 8.97867 8.5959 8.76312 9.12173 8.74916C9.64755 8.7352 10.1586 8.9239 10.5492 9.27622L10.6492 9.35955C10.8072 9.51426 11.0202 9.59986 11.2414 9.59751C11.4625 9.59517 11.6737 9.50508 11.8284 9.34705C11.9831 9.18903 12.0687 8.97602 12.0663 8.75488C12.064 8.53374 11.9739 8.32259 11.8159 8.16788C11.7688 8.10707 11.7188 8.04867 11.6659 7.99288C10.9545 7.37398 10.0345 7.04859 9.09219 7.08263C8.14988 7.11667 7.25574 7.5076 6.59088 8.17622L2.75755 11.9679C2.10618 12.6769 1.7539 13.6101 1.77427 14.5727C1.79465 15.5352 2.18611 16.4527 2.86691 17.1335C3.5477 17.8143 4.46518 18.2058 5.42775 18.2262C6.39032 18.2465 7.32355 17.8943 8.03255 17.2429L9.47421 15.8346C9.61656 15.6793 9.69481 15.4758 9.69322 15.2652C9.69163 15.0545 9.61032 14.8523 9.46564 14.6991C9.32096 14.546 9.12366 14.4534 8.91344 14.4398C8.70321 14.4263 8.49566 14.4929 8.33255 14.6262ZM17.2409 2.75955C16.5399 2.06289 15.5917 1.67188 14.6034 1.67188C13.6151 1.67188 12.6669 2.06289 11.9659 2.75955L10.5242 4.16788C10.3819 4.32318 10.3036 4.52662 10.3052 4.73727C10.3068 4.94793 10.3881 5.15017 10.5328 5.30329C10.6775 5.45641 10.8748 5.54906 11.085 5.56259C11.2952 5.57612 11.5028 5.50953 11.6659 5.37622L13.1075 3.94288C13.4943 3.55611 14.0189 3.33882 14.5659 3.33882C15.1129 3.33882 15.6374 3.55611 16.0242 3.94288C16.411 4.32966 16.6283 4.85424 16.6283 5.40122C16.6283 5.9482 16.411 6.47278 16.0242 6.85955L12.2409 10.6512C11.8695 11.0238 11.3692 11.2393 10.8434 11.2533C10.3175 11.2672 9.80647 11.0785 9.41588 10.7262L9.31588 10.6429C9.15786 10.4882 8.94484 10.4026 8.72371 10.4049C8.50257 10.4073 8.29142 10.4974 8.13671 10.6554C7.982 10.8134 7.89641 11.0264 7.89875 11.2476C7.90109 11.4687 7.99119 11.6798 8.14921 11.8346C8.20974 11.8965 8.27374 11.9549 8.34088 12.0096C9.05311 12.6266 9.97274 12.9508 10.9145 12.9167C11.8562 12.8827 12.75 12.493 13.4159 11.8262L17.2075 8.03455C17.9087 7.33795 18.3057 6.39224 18.3119 5.40393C18.3182 4.41561 17.9331 3.46496 17.2409 2.75955Z" fill="#64748B"/>
</g>
</svg>
