<svg width="36" height="36" viewBox="0 0 36 36" fill="none" xmlns="http://www.w3.org/2000/svg">
<circle cx="19.2252" cy="17.8824" r="9.57965" fill="#F1F5F9"/>
<path d="M16.8087 19.3837L14.6764 17.2881C14.4067 17.0185 14.0695 16.8837 13.6646 16.8837C13.2597 16.8837 12.9107 17.0307 12.6175 17.3249C12.3479 17.5945 12.2131 17.9376 12.2131 18.3543C12.2131 18.7709 12.3479 19.1141 12.6175 19.3837L15.7793 22.5454C16.0734 22.8396 16.4166 22.9866 16.8087 22.9866C17.2009 22.9866 17.544 22.8396 17.8381 22.5454L24.0881 16.2954C24.3822 16.0013 24.5229 15.6582 24.5102 15.266C24.4974 14.8739 24.3567 14.5307 24.0881 14.2366C23.794 13.9425 23.4445 13.7896 23.0396 13.7778C22.6347 13.766 22.2857 13.9067 21.9925 14.1999L16.8087 19.3837ZM12.6911 32.6925L10.5587 29.0896L6.51459 28.2072C6.14694 28.1337 5.85283 27.9435 5.63224 27.6366C5.41165 27.3298 5.32587 26.993 5.37489 26.6263L5.7793 22.4719L3.02194 19.3101C2.77685 19.0405 2.6543 18.7219 2.6543 18.3543C2.6543 17.9866 2.77685 17.668 3.02194 17.3984L5.7793 14.2366L5.37489 10.0822C5.32587 9.71456 5.41165 9.3773 5.63224 9.07044C5.85283 8.76358 6.14694 8.57387 6.51459 8.50132L10.5587 7.61897L12.6911 4.01603C12.8871 3.6974 13.1567 3.48269 13.4999 3.37191C13.843 3.26113 14.1862 3.27975 14.5293 3.42779L18.3528 5.04544L22.1764 3.42779C22.5195 3.28073 22.8626 3.26211 23.2058 3.37191C23.5489 3.48171 23.8185 3.69642 24.0146 4.01603L26.1469 7.61897L30.1911 8.50132C30.5587 8.57485 30.8528 8.76505 31.0734 9.07191C31.294 9.37877 31.3798 9.71554 31.3308 10.0822L30.9264 14.2366L33.6837 17.3984C33.9288 17.668 34.0514 17.9866 34.0514 18.3543C34.0514 18.7219 33.9288 19.0405 33.6837 19.3101L30.9264 22.4719L31.3308 26.6263C31.3798 26.994 31.294 27.3312 31.0734 27.6381C30.8528 27.945 30.5587 28.1347 30.1911 28.2072L26.1469 29.0896L24.0146 32.6925C23.8185 33.0111 23.5489 33.2258 23.2058 33.3366C22.8626 33.4474 22.5195 33.4288 22.1764 33.2807L18.3528 31.6631L14.5293 33.2807C14.1862 33.4278 13.843 33.4464 13.4999 33.3366C13.1567 33.2268 12.8871 33.0121 12.6911 32.6925Z" fill="#3AC2FF"/>
</svg>
