<svg width="48" height="49" viewBox="0 0 48 49" fill="none" xmlns="http://www.w3.org/2000/svg">
<rect y="0.285156" width="48" height="48" rx="24" fill="#F18FD1"/>
<path d="M21.5854 31.5578C21.5854 30.3142 20.544 29.3086 19.2562 29.3086H15.3292C14.0414 29.3086 13 30.3142 13 31.5578V32.4252C13 33.6688 14.0414 34.6744 15.3292 34.6744H19.2482C20.536 34.6744 21.5774 33.6688 21.5774 32.4252V31.5578H21.5854ZM15.1622 32.6172C14.7648 32.6402 14.4229 32.3562 14.3991 31.9723C14.3752 31.5885 14.6694 31.2584 15.0668 31.2354C15.4643 31.2124 15.8061 31.4964 15.83 31.8802C15.8538 32.2564 15.5597 32.5864 15.1622 32.6172ZM17.3165 32.6172C16.9191 32.6402 16.5772 32.3562 16.5534 31.9723C16.5295 31.5885 16.8237 31.2584 17.2211 31.2354C17.6186 31.2124 17.9604 31.4964 17.9843 31.8802C18.0081 32.264 17.714 32.5864 17.3165 32.6172ZM19.4708 32.6172C19.0734 32.6402 18.7315 32.3562 18.7077 31.9723C18.6838 31.5885 18.978 31.2584 19.3754 31.2354C19.7729 31.2124 20.1147 31.4964 20.1386 31.8802C20.1624 32.2564 19.8683 32.5864 19.4708 32.6172Z" fill="#ECEDED"/>
<path fill-rule="evenodd" clip-rule="evenodd" d="M16.7559 22.499C16.7559 17.9966 20.2087 14.2852 24.5363 14.2852C28.8635 14.2852 32.3168 17.9878 32.3168 22.499V26.8743C32.3168 27.3302 31.954 27.6998 31.5064 27.6998C31.0588 27.6998 30.6959 27.3302 30.6959 26.8743V22.499C30.6959 18.8377 27.9087 15.9362 24.5363 15.9362C21.1646 15.9362 18.3768 18.8454 18.3768 22.499V26.866C18.3768 27.3219 18.0139 27.6915 17.5663 27.6915C17.1187 27.6915 16.7559 27.3219 16.7559 26.866V22.499Z" fill="white"/>
<path fill-rule="evenodd" clip-rule="evenodd" d="M31.5493 20.9819C31.6284 20.8924 31.8188 20.7227 32.1168 20.7227H32.8832C33.4778 20.7227 34.0694 20.8675 34.4899 21.3436C34.8961 21.8034 35.0002 22.4152 35.0002 22.9956V24.6964C35.0002 25.2841 34.8928 25.9743 34.6015 26.5484C34.3003 27.142 33.7435 27.6983 32.8832 27.6983H32.1168C31.8188 27.6983 31.6284 27.5285 31.5493 27.439C31.4696 27.3488 31.4282 27.2601 31.4107 27.2199C31.3735 27.1342 31.356 27.0554 31.3485 27.0195C31.3307 26.935 31.3197 26.841 31.3119 26.7596C31.2953 26.5877 31.2828 26.3576 31.2732 26.0997C31.2537 25.579 31.2441 24.8921 31.2441 24.2105C31.2441 23.5288 31.2537 22.8419 31.2732 22.3212C31.2828 22.0633 31.2953 21.8332 31.3119 21.6613C31.3197 21.5799 31.3307 21.4859 31.3485 21.4014C31.356 21.3655 31.3735 21.2868 31.4107 21.201C31.4282 21.1608 31.4696 21.0721 31.5493 20.9819ZM32.7933 26.1307H32.8832C33.0017 26.1307 33.124 26.0835 33.2573 25.8208C33.4004 25.5387 33.4826 25.1198 33.4826 24.6964V22.9956C33.4826 22.5649 33.3971 22.4322 33.3688 22.4001C33.3549 22.3844 33.2674 22.2902 32.8832 22.2902H32.7933C32.792 22.3198 32.7908 22.3503 32.7896 22.3817C32.7712 22.875 32.7618 23.5401 32.7618 24.2105C32.7618 24.8808 32.7712 25.5459 32.7896 26.0392C32.7908 26.0706 32.792 26.1011 32.7933 26.1307Z" fill="white"/>
<path fill-rule="evenodd" clip-rule="evenodd" d="M15.9855 22.4545C15.9158 22.5112 15.8077 22.6434 15.8077 22.9956V24.6964C15.8077 25.0672 15.9314 25.4725 16.1364 25.7628C16.2949 25.9871 16.4538 26.0859 16.5961 26.118C16.5973 26.0924 16.5985 26.0662 16.5996 26.0392C16.6207 25.5459 16.6315 24.8808 16.6315 24.2105C16.6315 23.5401 16.6207 22.875 16.5996 22.3817C16.5983 22.3511 16.597 22.3214 16.5956 22.2925C16.2367 22.3072 16.0637 22.391 15.9855 22.4545ZM14.8255 21.2892C15.3443 20.8673 16.0279 20.7227 16.7096 20.7227H17.3686C17.7092 20.7227 17.9267 20.8924 18.0171 20.9819C18.1082 21.0721 18.1556 21.1608 18.1756 21.201C18.2181 21.2868 18.2381 21.3655 18.2467 21.4014C18.2669 21.4859 18.2796 21.5799 18.2885 21.6613C18.3074 21.8332 18.3217 22.0633 18.3328 22.3212C18.355 22.8419 18.3659 23.5288 18.3659 24.2105C18.3659 24.8921 18.355 25.579 18.3328 26.0997C18.3217 26.3576 18.3074 26.5877 18.2885 26.7596C18.2796 26.841 18.2669 26.935 18.2467 27.0195C18.2381 27.0554 18.2181 27.1342 18.1756 27.2199C18.1556 27.2601 18.1082 27.3488 18.0171 27.439C17.9267 27.5285 17.7092 27.6983 17.3686 27.6983H16.7096C15.7592 27.6983 15.0774 27.1766 14.6746 26.6064C14.2747 26.0404 14.0732 25.3367 14.0732 24.6964V22.9956C14.0732 22.3367 14.2903 21.7243 14.8255 21.2892Z" fill="white"/>
<path fill-rule="evenodd" clip-rule="evenodd" d="M31.4848 21.7969C31.9443 21.7969 32.3167 22.1669 32.3167 22.6235V26.996C32.3167 29.1124 31.9492 31.0281 30.9509 32.4332C29.9146 33.8917 28.2904 34.6749 26.094 34.6749H23.4901C23.0307 34.6749 22.6582 34.3049 22.6582 33.8483V33.0383C22.6582 32.5818 23.0307 32.2117 23.4901 32.2117H26.0191C26.4593 32.2117 26.8195 32.5513 26.8491 32.9811C28.1661 32.8319 29.0226 32.2807 29.5916 31.4798C30.3008 30.4817 30.6529 28.9712 30.6529 26.996V22.6235C30.6529 22.1669 31.0254 21.7969 31.4848 21.7969Z" fill="white"/>
</svg>
