<svg width="24" height="24" viewBox="0 0 24 24" fill="none" xmlns="http://www.w3.org/2000/svg">
<path d="M18.9993 7H17.9993V6C17.9993 5.20435 17.6832 4.44129 17.1206 3.87868C16.558 3.31607 15.7949 3 14.9993 3H4.99927C4.20362 3 3.44056 3.31607 2.87795 3.87868C2.31534 4.44129 1.99927 5.20435 1.99927 6V18C1.99927 18.7956 2.31534 19.5587 2.87795 20.1213C3.44056 20.6839 4.20362 21 4.99927 21H18.9993C19.7949 21 20.558 20.6839 21.1206 20.1213C21.6832 19.5587 21.9993 18.7956 21.9993 18V10C21.9993 9.20435 21.6832 8.44129 21.1206 7.87868C20.558 7.31607 19.7949 7 18.9993 7ZM4.99927 5H14.9993C15.2645 5 15.5188 5.10536 15.7064 5.29289C15.8939 5.48043 15.9993 5.73478 15.9993 6V7H4.99927C4.73405 7 4.4797 6.89464 4.29216 6.70711C4.10462 6.51957 3.99927 6.26522 3.99927 6C3.99927 5.73478 4.10462 5.48043 4.29216 5.29289C4.4797 5.10536 4.73405 5 4.99927 5ZM19.9993 15H18.9993C18.7341 15 18.4797 14.8946 18.2922 14.7071C18.1046 14.5196 17.9993 14.2652 17.9993 14C17.9993 13.7348 18.1046 13.4804 18.2922 13.2929C18.4797 13.1054 18.7341 13 18.9993 13H19.9993V15ZM19.9993 11H18.9993C18.2036 11 17.4406 11.3161 16.8779 11.8787C16.3153 12.4413 15.9993 13.2044 15.9993 14C15.9993 14.7956 16.3153 15.5587 16.8779 16.1213C17.4406 16.6839 18.2036 17 18.9993 17H19.9993V18C19.9993 18.2652 19.8939 18.5196 19.7064 18.7071C19.5188 18.8946 19.2645 19 18.9993 19H4.99927C4.73405 19 4.4797 18.8946 4.29216 18.7071C4.10462 18.5196 3.99927 18.2652 3.99927 18V8.83C4.32054 8.94302 4.6587 9.00051 4.99927 9H18.9993C19.2645 9 19.5188 9.10536 19.7064 9.29289C19.8939 9.48043 19.9993 9.73478 19.9993 10V11Z" fill="#64748B"/>
</svg>
