<svg width="24" height="25" viewBox="0 0 24 25" fill="none" xmlns="http://www.w3.org/2000/svg">
<path d="M21.5933 7.48816C21.4794 7.06557 21.2568 6.68017 20.9477 6.37033C20.6386 6.06049 20.2537 5.83702 19.8313 5.72216C18.2653 5.29216 12.0003 5.28516 12.0003 5.28516C12.0003 5.28516 5.73633 5.27816 4.16933 5.68916C3.74725 5.80931 3.36315 6.03594 3.0539 6.3473C2.74464 6.65866 2.52062 7.04428 2.40333 7.46716C1.99033 9.03316 1.98633 12.2812 1.98633 12.2812C1.98633 12.2812 1.98233 15.5452 2.39233 17.0952C2.62233 17.9522 3.29733 18.6292 4.15533 18.8602C5.73733 19.2902 11.9853 19.2972 11.9853 19.2972C11.9853 19.2972 18.2503 19.3042 19.8163 18.8942C20.2388 18.7795 20.6241 18.5565 20.934 18.2473C21.2439 17.9381 21.4677 17.5534 21.5833 17.1312C21.9973 15.5662 22.0003 12.3192 22.0003 12.3192C22.0003 12.3192 22.0203 9.05416 21.5933 7.48816ZM9.99633 15.2902L10.0013 9.29016L15.2083 12.2952L9.99633 15.2902Z" fill="#334155"/>
</svg>
