<?xml version="1.0" encoding="UTF-8"?>
<svg width="199px" height="294px" viewBox="0 0 199 294" version="1.1" xmlns="http://www.w3.org/2000/svg" xmlns:xlink="http://www.w3.org/1999/xlink">
    <!-- Generator: Sketch 52.3 (67297) - http://www.bohemiancoding.com/sketch -->
    <title>creatives</title>
    <desc>Created with Sketch.</desc>
    <g id="Page-1" stroke="none" stroke-width="1" fill="none" fill-rule="evenodd">
        <g id="creatives" fill="#FFFFFF" fill-rule="nonzero">
            <g id="Heavier_Lines">
                <path d="M171.8,162.2 L165.9,162.2 L165.9,152.4 C165.9,146.9 161.4,142.4 155.9,142.4 L148.9,142.4 L169.1,98.8 C175.3,94.6 184.4,87.9 187,82.8 C189.1,78.8 189.4,74.3 189.7,70 C189.9,67.5 190.1,65.1 190.6,62.9 L193.6,49.4 L180.6,54.4 C179.9,54.7 173.3,57.3 166.7,62.8 C157.8,70.3 153.2,79.5 153.2,89.7 L136.8,122.4 L149.6,17.8 C150.3,12.3 146.4,7.3 140.9,6.7 L88.3,0.3 C82.9,-0.4 77.9,3.5 77.2,8.9 L63.7,110.6 L43.3,58.6 C42.8,57.3 42,56.2 41.1,55.2 L20.7,34.6 C18,31.9 13.9,30.9 10.3,32.2 C6.7,33.5 4.1,36.7 3.7,40.5 L0.5,69.4 C0.3,70.9 0.5,72.5 1.1,73.9 L26.3,142.4 L14.5,142.4 C9,142.4 4.5,146.9 4.5,152.4 L4.5,251.7 C4.5,274.9 23.4,293.8 46.6,293.8 L124.1,293.8 C147.3,293.8 166.2,274.9 166.2,251.7 L166.2,229.2 L172.1,229.2 C186.7,229.2 198.1,219.5 198.1,207 L198.1,184.3 C197.8,172 186.4,162.2 171.8,162.2 Z M95.7,21.3 L128.6,25.3 L127.8,32.2 L118.4,31.1 C112.9,30.4 107.9,34.3 107.3,39.8 C106.6,45.3 110.5,50.3 116,50.9 L125.4,52 L124.9,56.3 L115.5,55.2 C110,54.5 105,58.4 104.4,63.9 C103.7,69.4 107.6,74.4 113.1,75 L122.5,76.1 L121.8,81.5 L112.4,80.4 C106.9,79.7 101.9,83.6 101.3,89.1 C100.6,94.6 104.5,99.6 110,100.2 L119.4,101.3 L118.9,105.6 L109.5,104.5 C104,103.8 99,107.7 98.4,113.2 C97.7,118.7 101.6,123.7 107.1,124.3 L116.5,125.4 L114.6,141.3 L80.1,139.8 L95.7,21.3 Z M20.5,69.3 L21.1,63.6 L25.3,67.8 L53.9,140.6 L46.7,140.9 L20.5,69.3 Z M145.9,251.8 C145.9,264 136,273.9 123.8,273.9 L46.3,273.9 C34.1,273.9 24.2,264 24.2,251.8 L24.2,162.5 L145.8,162.5 L145.8,251.8 L145.9,251.8 Z M177.8,206.9 C177.5,207.6 175.3,209.2 171.8,209.2 L165.9,209.2 L165.9,182.2 L171.8,182.2 C175.3,182.2 177.5,183.8 177.8,184.5 L177.8,206.9 Z" id="Shape"></path>
            </g>
        </g>
    </g>
</svg>