<?xml version="1.0" encoding="UTF-8"?>
<svg width="253px" height="270px" viewBox="0 0 253 270" version="1.1" xmlns="http://www.w3.org/2000/svg" xmlns:xlink="http://www.w3.org/1999/xlink">
    <!-- Generator: Sketch 52.3 (67297) - http://www.bohemiancoding.com/sketch -->
    <title>writer</title>
    <desc>Created with Sketch.</desc>
    <g id="Page-1" stroke="none" stroke-width="1" fill="none" fill-rule="evenodd">
        <g id="writer" fill="#FFFFFF">
            <g id="Heavier_Lines">
                <g id="Group">
                    <path d="M10.1,220.4 C4.6,220.4 0.1,215.9 0.1,210.4 C0.1,204.9 4.6,200.4 10.1,200.4 L207.4,200.4 C212.9,200.4 217.4,204.9 217.4,210.4 C217.4,215.9 212.9,220.4 207.4,220.4 L10.1,220.4 Z" id="Path"></path>
                    <path d="M10.1,170.8 C4.6,170.8 0.1,166.3 0.1,160.8 C0.1,155.3 4.6,150.8 10.1,150.8 L71.9,150.8 C77.4,150.8 81.9,155.3 81.9,160.8 C81.9,166.3 77.4,170.8 71.9,170.8 L10.1,170.8 Z" id="Path"></path>
                    <path d="M10.1,270 C4.6,270 0.1,265.5 0.1,260 C0.1,254.5 4.6,250 10.1,250 L207.4,250 C212.9,250 217.4,254.5 217.4,260 C217.4,265.5 212.9,270 207.4,270 L10.1,270 Z" id="Path"></path>
                    <path d="M116.7,146.2 C114.1,146.2 111.6,145.2 109.7,143.4 C107.7,141.4 106.6,138.7 106.7,135.9 L107.8,99.6 C107.9,97.1 108.9,94.6 110.7,92.8 L200.6,2.9 C202.5,1 205,-5.68434189e-14 207.7,-5.68434189e-14 C210.4,-5.68434189e-14 212.9,1.1 214.8,2.9 L249.1,37.2 C253,41.1 253,47.4 249.1,51.3 L159.2,141.2 C157.5,142.9 155.1,144 152.7,144.1 L117.3,146.1 C117.1,146.1 116.9,146.2 116.7,146.2 Z M127.6,104.1 L127,125.5 L147.7,124.3 L227.8,44.2 L207.7,24.1 L127.6,104.1 Z" id="Shape" fill-rule="nonzero"></path>
                </g>
            </g>
        </g>
    </g>
</svg>