<svg xmlns="http://www.w3.org/2000/svg" viewBox="0 0 34 45"><defs><linearGradient id="a" x1="105.801%" x2="17.988%" y1="0%" y2="93.466%"><stop offset="0%" stop-color="#7C47AB"/><stop offset="100%" stop-color="#6FBBE1"/></linearGradient></defs><path fill="url(#a)" d="M18.933 16.975A16.826 16.826 0 0 0 17 16.864C7.827 16.864.39 24.282.39 33.432.39 42.582 7.828 50 17 50c9.05 0 16.41-7.22 16.605-16.2a2.41 2.41 0 0 0 .004-.14V7.373a2.373 2.373 0 0 0-4.745 0v26.1C28.84 39.981 23.54 45.254 17 45.254c-6.555 0-11.864-5.295-11.864-11.822 0-6.527 5.31-11.823 11.864-11.823.715 0 1.415.063 2.095.184l-3.545 3.544a2.373 2.373 0 1 0 3.356 3.356l7.55-7.55c.463-.464.695-1.071.695-1.678s-.232-1.215-.695-1.678l-7.55-7.55a2.373 2.373 0 1 0-3.356 3.356l3.383 3.382z" transform="translate(0 -5)"/></svg>