<?xml version="1.0" encoding="UTF-8"?>
<svg width="100px" height="63px" viewBox="0 0 100 63" version="1.1" xmlns="http://www.w3.org/2000/svg" xmlns:xlink="http://www.w3.org/1999/xlink">
    <!-- Generator: Sketch 54.1 (76490) - https://sketchapp.com -->
    <title>qr-code</title>
    <desc>Created with Sketch.</desc>
    <g id="qr-code" stroke="none" stroke-width="1" fill="none" fill-rule="evenodd">
        <g id="qrcode_hover" transform="translate(22.000000, 4.000000)" fill-rule="nonzero">
            <path d="M24.821965,26.2687277 C24.119893,26.2687277 23.550751,25.6995859 23.550751,24.9975138 L23.550751,12.2853746 L12.109826,12.2853746 L12.109826,23.7262999 L18.465896,23.7262999 C19.167968,23.7262999 19.73711,24.2954417 19.73711,24.9975138 C19.73711,25.6995859 19.167968,26.2687277 18.465896,26.2687277 L10.838612,26.2687277 C10.13654,26.2687277 9.567398,25.6995859 9.567398,24.9975138 L9.567398,11.0141606 C9.567398,10.3120886 10.13654,9.7429467 10.838612,9.7429467 L24.821965,9.7429467 C25.524037,9.7429467 26.093179,10.3120886 26.093179,11.0141606 L26.093179,24.9975138 C26.093179,25.6995859 25.524037,26.2687277 24.821965,26.2687277 Z M15.033618,15.2091666 L20.626959,15.2091666 L20.626959,20.8025078 L15.033618,20.8025078 L15.033618,15.2091666 Z M35.373041,15.2091666 L40.966382,15.2091666 L40.966382,20.8025078 L35.373041,20.8025078 L35.373041,15.2091666 Z M45.161388,26.2687277 L37.534104,26.2687277 C36.832032,26.2687277 36.26289,25.6995859 36.26289,24.9975138 C36.26289,24.2954417 36.832032,23.7262999 37.534104,23.7262999 L43.890174,23.7262999 L43.890174,12.2853746 L32.449249,12.2853746 L32.449249,24.9975138 C32.449249,25.6995859 31.880107,26.2687277 31.178035,26.2687277 C30.475963,26.2687277 29.906821,25.6995859 29.906821,24.9975138 L29.906821,11.0141606 C29.906821,10.3120886 30.475963,9.7429467 31.178035,9.7429467 L45.161388,9.7429467 C45.498535,9.7429467 45.821873,9.8768778 46.060272,10.1152766 C46.298671,10.3536755 46.432602,10.6770137 46.432602,11.0141606 L46.432602,24.9975138 C46.432602,25.6995859 45.86346,26.2687277 45.161388,26.2687277 Z M15.033618,35.5485893 L20.626959,35.5485893 L20.626959,41.1419306 L15.033618,41.1419306 L15.033618,35.5485893 Z M24.821965,46.6081505 L10.838612,46.6081505 C10.13654,46.6081505 9.567398,46.0390086 9.567398,45.3369365 L9.567398,31.3535834 C9.567398,30.6515113 10.13654,30.0823695 10.838612,30.0823695 L18.465896,30.0823695 C19.167968,30.0823695 19.73711,30.6515113 19.73711,31.3535834 C19.73711,32.0556555 19.167968,32.6247973 18.465896,32.6247973 L12.109826,32.6247973 L12.109826,44.0657226 L23.550751,44.0657226 L23.550751,31.3535834 C23.550751,30.6515113 24.119893,30.0823695 24.821965,30.0823695 C25.524037,30.0823695 26.093179,30.6515113 26.093179,31.3535834 L26.093179,45.3369365 C26.093179,46.0390086 25.524037,46.6081505 24.821965,46.6081505 Z M31.178035,46.6081505 C30.475963,46.6081505 29.906821,46.0390086 29.906821,45.3369365 L29.906821,31.3535834 C29.906821,30.6515113 30.475963,30.0823695 31.178035,30.0823695 C31.880107,30.0823695 32.449249,30.6515113 32.449249,31.3535834 L32.449249,45.3369365 C32.449249,46.0390086 31.880107,46.6081505 31.178035,46.6081505 Z M45.161388,34.2773754 C45.86346,34.2773754 46.432602,34.8465173 46.432602,35.5485893 C46.432602,36.2506614 45.86346,36.8198033 45.161388,36.8198033 L35.373041,36.8198033 C34.670969,36.8198033 34.101827,36.2506614 34.101827,35.5485893 L34.101827,31.3535834 C34.101827,30.6515113 34.670969,30.0823695 35.373041,30.0823695 C36.075113,30.0823695 36.644255,30.6515113 36.644255,31.3535834 L36.644255,34.2773754 L39.695168,34.2773754 L39.695168,31.3535834 C39.695168,30.6515113 40.26431,30.0823695 40.966382,30.0823695 L45.161388,30.0823695 C45.86346,30.0823695 46.432602,30.6515113 46.432602,31.3535834 C46.432602,32.0556555 45.86346,32.6247973 45.161388,32.6247973 L42.237596,32.6247973 L42.237596,34.2773754 L45.161388,34.2773754 Z M45.161388,46.6081505 C44.459316,46.6081505 43.890174,46.0390086 43.890174,45.3369365 L43.890174,41.0148092 L35.373041,41.0148092 C34.670969,41.0148092 34.101827,40.4456674 34.101827,39.7435953 C34.101827,39.0415232 34.670969,38.4723814 35.373041,38.4723814 L45.161388,38.4723814 C45.86346,38.4723814 46.432602,39.0415232 46.432602,39.7435953 L46.432602,45.3369365 C46.432602,46.0390086 45.86346,46.6081505 45.161388,46.6081505 Z M35.373041,46.6081505 C34.670969,46.6081505 34.101827,46.0390086 34.101827,45.3369365 L34.101827,43.9386012 C34.101827,43.2365292 34.670969,42.6673873 35.373041,42.6673873 C36.075113,42.6673873 36.644255,43.2365292 36.644255,43.9386012 L36.644255,45.3369365 C36.644255,46.0390086 36.075113,46.6081505 35.373041,46.6081505 Z M39.568047,46.6081505 C38.865975,46.6081505 38.296833,46.0390086 38.296833,45.3369365 L38.296833,43.9386012 C38.296833,43.2365292 38.865975,42.6673874 39.568047,42.6673874 C40.270119,42.6673874 40.839261,43.2365292 40.839261,43.9386012 L40.839261,45.3369365 C40.839261,46.0390086 40.270119,46.6081505 39.568047,46.6081505 Z" id="形状结合" fill="#90A1B0"></path>
            <g id="Group" fill="#33CCFF">
                <polygon id="形状结合-path" points="1.931034 1.9310345 1.931034 9.6551724 0 9.6551724 0 1.9310345 0 1.24344979e-14 9.655172 1.24344979e-14 9.655172 1.9310345"></polygon>
                <polygon id="形状结合-path" points="1.931034 54.0689655 9.655172 54.0689655 9.655172 56 0 56 0 54.0689655 0 46.3448276 1.931034 46.3448276"></polygon>
                <polygon id="形状结合-path" points="54.068966 1.9310345 46.344828 1.9310345 46.344828 1.24344979e-14 56 1.24344979e-14 56 1.9310345 56 9.6551724 54.068966 9.6551724"></polygon>
                <polygon id="形状结合-path" points="54.068966 54.0689655 54.068966 46.3448276 56 46.3448276 56 54.0689655 56 56 46.344828 56 46.344828 54.0689655"></polygon>
            </g>
        </g>
    </g>
</svg>