<?xml version="1.0" encoding="UTF-8"?>
<svg width="274px" height="256px" viewBox="0 0 274 256" version="1.1" xmlns="http://www.w3.org/2000/svg" xmlns:xlink="http://www.w3.org/1999/xlink">
    <!-- Generator: Sketch 52.3 (67297) - http://www.bohemiancoding.com/sketch -->
    <title>assistant</title>
    <desc>Created with Sketch.</desc>
    <g id="Page-1" stroke="none" stroke-width="1" fill="none" fill-rule="evenodd">
        <g id="assistant">
            <g id="Heavier_Lines">
                <g id="Group">
                    <path d="M108,214.5 C108,198.3 94.9,185.2 78.7,185.2 L29.3,185.2 C13.1,185.2 0,198.3 0,214.5 L0,225.8 C0,242 13.1,255.1 29.3,255.1 L78.6,255.1 C94.8,255.1 107.9,242 107.9,225.8 L107.9,214.5 L108,214.5 Z M27.2,228.3 C22.2,228.6 17.9,224.9 17.6,219.9 C17.3,214.9 21,210.6 26,210.3 C31,210 35.3,213.7 35.6,218.7 C35.9,223.6 32.2,227.9 27.2,228.3 Z M54.3,228.3 C49.3,228.6 45,224.9 44.7,219.9 C44.4,214.9 48.1,210.6 53.1,210.3 C58.1,210 62.4,213.7 62.7,218.7 C63,223.7 59.3,227.9 54.3,228.3 Z M81.4,228.3 C76.4,228.6 72.1,224.9 71.8,219.9 C71.5,214.9 75.2,210.6 80.2,210.3 C85.2,210 89.5,213.7 89.8,218.7 C90.1,223.6 86.4,227.9 81.4,228.3 Z" id="Shape" fill="#80E4FF" fill-rule="nonzero"></path>
                    <path d="M230,163.3 C224.5,163.3 220,158.8 220,153.3 L220,100.3 C220,56.4 185.9,20.8 144,20.8 C102.1,20.8 68,56.5 68,100.3 L68,153.2 C68,158.7 63.5,163.2 58,163.2 C52.5,163.2 48,158.7 48,153.2 L48,100.3 C48,45.4 91.1,0.8 144,0.8 C196.9,0.8 240,45.5 240,100.3 L240,153.3 C240,158.9 235.5,163.3 230,163.3 Z" id="Path" fill="#33CCFF"></path>
                    <path d="M246.1,169.2 L236,169.2 C231.9,169.2 227.2,166.5 225.9,160.5 C225.7,159.6 225.6,158.6 225.4,157.2 C225.2,155.2 225,152.3 224.9,148.8 C224.7,142.4 224.5,133.9 224.5,124.7 C224.5,115.5 224.6,107 224.9,100.6 C225,97 225.2,94.2 225.4,92.2 C225.5,90.8 225.7,89.8 225.9,88.9 C227.2,82.9 231.9,80.2 236,80.2 L246.1,80.2 C255.4,80.2 262.5,82.9 267.3,88.1 C271.8,93.1 274,100 274,109.2 L274,130.9 C274,153.5 262.5,169.2 246.1,169.2 Z M244.9,149.2 L246.1,149.2 C251.5,149.2 254,138.3 254,130.9 L254,109.2 C254,103.7 252.8,102 252.5,101.6 C251.7,100.7 249.3,100.2 246.1,100.2 L244.9,100.2 C244.4,112.6 244.4,136.8 244.9,149.2 Z" id="Shape" fill="#33CCFF" fill-rule="nonzero"></path>
                    <path d="M56,169.2 L48.4,169.2 C29.6,169.2 18,149.3 18,130.9 L18,109.2 C18,91.3 29.7,80.2 48.4,80.2 L56,80.2 C60.1,80.2 64.8,82.9 66.1,88.9 C66.3,89.8 66.4,90.8 66.6,92.2 C66.8,94.2 67,97.1 67.1,100.6 C67.3,107 67.5,115.5 67.5,124.7 C67.5,133.9 67.4,142.4 67.1,148.8 C67,152.4 66.8,155.2 66.6,157.2 C66.5,158.6 66.3,159.6 66.1,160.5 C64.8,166.5 60.1,169.2 56,169.2 Z M47.1,100.2 C39.4,100.5 38,103.5 38,109.2 L38,130.9 C38,140.1 42.7,147.7 47.1,149 C47.6,136.5 47.6,112.6 47.1,100.2 Z" id="Shape" fill="#33CCFF" fill-rule="nonzero"></path>
                    <path d="M165.2,249 L133.9,249 C128.4,249 123.9,244.5 123.9,239 L123.9,229.2 C123.9,223.7 128.4,219.2 133.9,219.2 L164.3,219.2 C169.6,219.2 173.9,223.3 174.3,228.5 C215,223.6 220,185.4 220,156.1 L220,103.2 C220,97.7 224.5,93.2 230,93.2 C235.5,93.2 240,97.7 240,103.2 L240,156.1 C240,184.3 234.5,206.4 223.6,221.8 C210.9,239.8 191.2,249 165.2,249 Z" id="Path" fill="#33CCFF"></path>
                </g>
            </g>
        </g>
    </g>
</svg>