<?xml version="1.0" encoding="UTF-8" standalone="no"?>
<svg width="25px" height="25px" viewBox="0 0 25 25" version="1.1" xmlns="http://www.w3.org/2000/svg" xmlns:xlink="http://www.w3.org/1999/xlink">
    <!-- Generator: Sketch 50.2 (55047) - http://www.bohemiancoding.com/sketch -->
    <title>Icon/25/contentcreators</title>
    <desc>Created with Sketch.</desc>
    <defs></defs>
    <g id="Icon/25/contentcreators" stroke="none" stroke-width="1" fill="none" fill-rule="evenodd">
        <g id="icon/content-copy" transform="translate(1.000000, 1.000000)" fill-rule="nonzero">
            <path d="M0.918181818,19.5911111 C0.418181818,19.5911111 0.00909090909,19.1911111 0.00909090909,18.7022222 C0.00909090909,18.2133333 0.418181818,17.8133333 0.918181818,17.8133333 L18.8545455,17.8133333 C19.3545455,17.8133333 19.7636364,18.2133333 19.7636364,18.7022222 C19.7636364,19.1911111 19.3545455,19.5911111 18.8545455,19.5911111 L0.918181818,19.5911111 Z" id="Shape" fill="#9B9B9B"></path>
            <path d="M0.918181818,15.1822222 C0.418181818,15.1822222 0.00909090909,14.7822222 0.00909090909,14.2933333 C0.00909090909,13.8044444 0.418181818,13.4044444 0.918181818,13.4044444 L6.53636364,13.4044444 C7.03636364,13.4044444 7.44545455,13.8044444 7.44545455,14.2933333 C7.44545455,14.7822222 7.03636364,15.1822222 6.53636364,15.1822222 L0.918181818,15.1822222 Z" id="Shape" fill="#9B9B9B"></path>
            <path d="M0.918181818,24 C0.418181818,24 0.00909090909,23.6 0.00909090909,23.1111111 C0.00909090909,22.6222222 0.418181818,22.2222222 0.918181818,22.2222222 L18.8545455,22.2222222 C19.3545455,22.2222222 19.7636364,22.6222222 19.7636364,23.1111111 C19.7636364,23.6 19.3545455,24 18.8545455,24 L0.918181818,24 Z" id="Shape" fill="#9B9B9B"></path>
            <path d="M10.6090909,12.9955556 C10.3727273,12.9955556 10.1454545,12.9066667 9.97272727,12.7466667 C9.79090909,12.5688889 9.69090909,12.3288889 9.7,12.08 L9.8,8.85333333 C9.80909091,8.63111111 9.9,8.40888889 10.0636364,8.24888889 L18.2363636,0.257777778 C18.4090909,0.0888888889 18.6363636,-5.68434189e-14 18.8818182,-5.68434189e-14 C19.1272727,-5.68434189e-14 19.3545455,0.0977777778 19.5272727,0.257777778 L22.6454545,3.30666667 C23,3.65333333 23,4.21333333 22.6454545,4.56 L14.4727273,12.5511111 C14.3181818,12.7022222 14.1,12.8 13.8818182,12.8088889 L10.6636364,12.9866667 C10.6454545,12.9866667 10.6272727,12.9955556 10.6090909,12.9955556 Z M11.6,9.25333333 L11.5454545,11.1555556 L13.4272727,11.0488889 L20.7090909,3.92888889 L18.8818182,2.14222222 L11.6,9.25333333 Z" id="Shape" fill="#535353"></path>
        </g>
    </g>
</svg>