<?xml version="1.0" encoding="UTF-8" standalone="no"?>
<svg width="25px" height="25px" viewBox="0 0 25 25" version="1.1" xmlns="http://www.w3.org/2000/svg" xmlns:xlink="http://www.w3.org/1999/xlink">
    <!-- Generator: Sketch 50.2 (55047) - http://www.bohemiancoding.com/sketch -->
    <title>Icon/25/creatives</title>
    <desc>Created with Sketch.</desc>
    <defs></defs>
    <g id="Icon/25/creatives" stroke="none" stroke-width="1" fill="none" fill-rule="evenodd">
        <g id="icon/creatives-copy" transform="translate(5.000000, 1.000000)" fill-rule="nonzero">
            <path d="M10.8912563,4.21016949 C10.8584598,4.2100074 10.8257033,4.20792451 10.7931658,4.2039322 L9.37889447,4.03708475 C8.94451324,3.97827686 8.63887909,3.59274007 8.69195703,3.17055964 C8.74503497,2.74837921 9.13723902,2.44534138 9.57346734,2.48945763 L10.9877387,2.65084746 C11.4317867,2.67668315 11.7701605,3.04669325 11.7435176,3.47728814 C11.7168747,3.90788303 11.3353043,4.23600518 10.8912563,4.21016949 Z" id="Shape" fill="#9B9B9B"></path>
            <path d="M10.6548744,6.40335593 C10.6218266,6.4034593 10.5888022,6.4016368 10.5559799,6.39789831 L9.14251256,6.23027119 C8.85349655,6.20104268 8.60323387,6.02286591 8.48791559,5.76422496 C8.37259731,5.50558401 8.41017015,5.20673064 8.58619262,4.98253221 C8.76221509,4.75833379 9.04929317,4.64368186 9.33708543,4.68264407 L10.7505528,4.84949153 C11.1732846,4.89824942 11.4835534,5.25808511 11.4581798,5.67016523 C11.4328062,6.08224534 11.0805859,6.40372291 10.6548744,6.40335593 Z" id="Shape" fill="#9B9B9B"></path>
            <path d="M10.4072362,8.53027119 C10.3741878,8.53039736 10.341162,8.52857479 10.3083417,8.52481356 L8.89487437,8.3579661 C8.45393467,8.30694061 8.1391391,7.91895361 8.19175879,7.49137288 C8.24437849,7.06379216 8.64448743,6.75853383 9.08542714,6.80955932 L10.4996985,6.97718644 C10.9195664,7.028917 11.2261859,7.38743267 11.2009468,7.79712275 C11.1757077,8.20681284 10.8272529,8.52738067 10.4040201,8.53027119 L10.4072362,8.53027119 Z" id="Shape" fill="#9B9B9B"></path>
            <path d="M10.1700503,10.7281356 C10.1372538,10.7279735 10.1044973,10.7258906 10.0719598,10.7218983 L8.65768844,10.5550508 C8.36867243,10.5258223 8.11840975,10.3476456 8.00309147,10.0890046 C7.88777319,9.83036368 7.92534603,9.5315103 8.1013685,9.30731187 C8.27739097,9.08311345 8.56446905,8.96846152 8.85226131,9.00742373 L10.2665327,9.17427119 C10.6894228,9.22304237 10.9997408,9.58311358 10.9741452,9.99533509 C10.9485496,10.4075566 10.59592,10.7289206 10.1700503,10.7281356 Z" id="Shape" fill="#9B9B9B"></path>
            <path d="M11.2217085,12.0668136 C11.1350481,12.0668108 11.0494343,12.0484506 10.9708543,12.0130169 C10.9430194,12.0009253 10.9161454,11.986853 10.8904523,11.9709153 C10.6699636,12.0008074 10.4505688,11.9096512 10.320799,11.7342305 C10.1910293,11.5588098 10.1722969,11.3280694 10.2721608,11.1351186 L12.3819095,7.05905085 C12.3819095,6.26847458 12.7533668,5.54650847 13.4673367,4.96410169 C13.8033086,4.68967983 14.1811304,4.46743506 14.5873367,4.30528814 L15.6325628,3.91545763 L15.3913568,4.97111864 C15.3549964,5.15279504 15.3318905,5.3367313 15.3222111,5.52155932 C15.2964824,5.85681356 15.2699497,6.20376271 15.1035176,6.51874576 C14.8936683,6.9179322 14.1652261,7.44186441 13.6643216,7.76620339 L11.7732663,11.7245424 C11.6756872,11.9346104 11.4592925,12.0688949 11.2217085,12.0668136 Z" id="Shape" fill="#9B9B9B"></path>
            <path d="M13.8677387,12.7131525 L13.3973869,12.7131525 L13.3973869,11.9529831 C13.3973869,11.5223882 13.0374149,11.173322 12.5933668,11.173322 L10.8655276,11.173322 L12.0868342,1.45250847 C12.1127119,1.24716389 12.0533697,1.04026458 11.921873,0.877364055 C11.7903763,0.714463532 11.5975066,0.608918154 11.3857286,0.583966102 L7.15577889,0.0834237288 C6.71697687,0.0300262496 6.31608045,0.330297783 6.25849246,0.755491525 L5.17386935,8.68308475 L3.52964824,4.62884746 C3.48942027,4.53047995 3.42896331,4.44108297 3.3519598,4.36610169 L1.71015075,2.76233898 C1.49118841,2.55074251 1.16651422,2.47961458 0.875011233,2.57938097 C0.583508249,2.67914736 0.376803229,2.93213889 0.343316583,3.23013559 L0.0852261307,5.47789831 C0.0715729367,5.59761534 0.086709073,5.71877195 0.129447236,5.83186441 L2.15316583,11.173322 L1.20603015,11.173322 C0.761982111,11.173322 0.40201005,11.5223882 0.40201005,11.9529831 L0.40201005,19.6957966 C0.404225255,21.50728 1.91805079,22.9752417 3.78613065,22.9773898 L10.0148744,22.9773898 C11.8829542,22.9752417 13.3967798,21.50728 13.398995,19.6957966 L13.398995,17.94 L13.8693467,17.94 C15.0424121,17.94 15.959799,17.1798305 15.959799,16.2099322 L15.959799,14.4432203 C15.959799,13.473322 15.040804,12.7131525 13.8677387,12.7131525 Z M7.74753769,1.72461017 L10.3935678,2.03647458 L9.25427136,11.1039322 L6.48040201,10.9885424 L7.74753769,1.72461017 Z M1.75517588,5.01867797 L2.09045226,5.3500339 L4.39396985,11.0283051 L3.81668342,11.0509153 L1.70452261,5.46620339 L1.75517588,5.01867797 Z M11.7893467,19.6957966 C11.788018,20.6464465 10.9936176,21.4167794 10.0132663,21.4180678 L3.78452261,21.4180678 C2.80479942,21.4159212 2.01137649,20.6458391 2.01005025,19.6957966 L2.01005025,12.7326441 L11.7893467,12.7326441 L11.7893467,19.6957966 Z M14.3517588,16.2013559 C14.3236181,16.2559322 14.1507538,16.380678 13.8693467,16.380678 L13.398995,16.380678 L13.398995,14.2755932 L13.8693467,14.2755932 C14.1523618,14.2755932 14.3252261,14.3995593 14.3517588,14.4541356 L14.3517588,16.2013559 Z" id="Shape" fill="#535353"></path>
        </g>
    </g>
</svg>