<?xml version="1.0" encoding="UTF-8" standalone="no"?>
<svg width="25px" height="25px" viewBox="0 0 25 25" version="1.1" xmlns="http://www.w3.org/2000/svg" xmlns:xlink="http://www.w3.org/1999/xlink">
    <!-- Generator: Sketch 50.2 (55047) - http://www.bohemiancoding.com/sketch -->
    <title>Icon/25/eye</title>
    <desc>Created with Sketch.</desc>
    <defs></defs>
    <g id="Icon/25/eye" stroke="none" stroke-width="1" fill="none" fill-rule="evenodd">
        <path d="M21.5714286,12.4285714 C20.4404705,10.6726103 19.023074,9.35937935 17.3191964,8.48883929 C17.7730677,9.26265268 18,10.0996979 18,11 C18,12.376495 17.5107936,13.5539386 16.5323661,14.5323661 C15.5539386,15.5107936 14.376495,16 13,16 C11.623505,16 10.4460614,15.5107936 9.46763393,14.5323661 C8.48920642,13.5539386 8,12.376495 8,11 C8,10.0996979 8.22693225,9.26265268 8.68080357,8.48883929 C6.976926,9.35937935 5.55952946,10.6726103 4.42857143,12.4285714 C5.41815971,13.9538767 6.65884671,15.1685223 8.15066964,16.0725446 C9.64249258,16.976567 11.2589199,17.4285714 13,17.4285714 C14.7410801,17.4285714 16.3575074,16.976567 17.8493304,16.0725446 C19.3411533,15.1685223 20.5818403,13.9538767 21.5714286,12.4285714 Z M13.5357143,8.14285714 C13.5357143,7.99404687 13.4836315,7.86756004 13.3794643,7.76339286 C13.2752971,7.65922567 13.1488103,7.60714286 13,7.60714286 C12.0699358,7.60714286 11.2719527,7.94010084 10.6060268,8.60602679 C9.94010084,9.27195273 9.60714286,10.0699358 9.60714286,11 C9.60714286,11.1488103 9.65922567,11.2752971 9.76339286,11.3794643 C9.86756004,11.4836315 9.99404688,11.5357143 10.1428571,11.5357143 C10.2916674,11.5357143 10.4181542,11.4836315 10.5223214,11.3794643 C10.6264886,11.2752971 10.6785714,11.1488103 10.6785714,11 C10.6785714,10.3601158 10.9055037,9.81324632 11.359375,9.359375 C11.8132463,8.90550368 12.3601158,8.67857143 13,8.67857143 C13.1488103,8.67857143 13.2752971,8.62648862 13.3794643,8.52232143 C13.4836315,8.41815424 13.5357143,8.29166741 13.5357143,8.14285714 Z M23,12.4285714 C23,12.6815489 22.925596,12.9382427 22.7767857,13.1986607 C21.7351138,14.9099788 20.3344582,16.2808728 18.5747768,17.3113839 C16.8150954,18.341895 14.956855,18.8571429 13,18.8571429 C11.043145,18.8571429 9.18490463,18.3400349 7.42522321,17.3058036 C5.6655418,16.2715722 4.26488616,14.9025383 3.22321429,13.1986607 C3.07440402,12.9382427 3,12.6815489 3,12.4285714 C3,12.175594 3.07440402,11.9189001 3.22321429,11.6584821 C4.26488616,9.95460458 5.6655418,8.58557065 7.42522321,7.55133929 C9.18490463,6.51710792 11.043145,6 13,6 C14.956855,6 16.8150954,6.51710792 18.5747768,7.55133929 C20.3344582,8.58557065 21.7351138,9.95460458 22.7767857,11.6584821 C22.925596,11.9189001 23,12.175594 23,12.4285714 Z" id="eye---FontAwesome" fill="#535353"></path>
    </g>
</svg>