<?xml version="1.0" encoding="UTF-8"?>
<svg width="243px" height="243px" viewBox="0 0 243 243" version="1.1" xmlns="http://www.w3.org/2000/svg" xmlns:xlink="http://www.w3.org/1999/xlink">
    <!-- Generator: Sketch 52.3 (67297) - http://www.bohemiancoding.com/sketch -->
    <title>finance</title>
    <desc>Created with Sketch.</desc>
    <g id="Page-1" stroke="none" stroke-width="1" fill="none" fill-rule="evenodd">
        <g id="finance" fill="#33CCFF" fill-rule="nonzero">
            <g id="Heavier_Lines">
                <path d="M232.1,0.9 C226.6,0.9 222.1,5.4 222.1,10.9 L222.1,52.5 L106.1,52.5 L106.1,47.5 C106.1,42 101.6,37.5 96.1,37.5 C90.6,37.5 86.1,42 86.1,47.5 L86.1,52.5 L76.1,52.5 L76.1,47.5 C76.1,42 71.6,37.5 66.1,37.5 C60.6,37.5 56.1,42 56.1,47.5 L56.1,52.5 L46.1,52.5 L46.1,47.5 C46.1,42 41.6,37.5 36.1,37.5 C30.6,37.5 26.1,42 26.1,47.5 L26.1,52.5 L20,52.5 L20,10.9 C20,5.4 15.5,0.9 10,0.9 C4.5,0.9 2.84217094e-14,5.4 2.84217094e-14,10.9 L2.84217094e-14,233 C2.84217094e-14,238.5 4.5,243 10,243 L232.1,243 C237.6,243 242.1,238.5 242.1,233 L242.1,10.9 C242.1,5.4 237.6,0.9 232.1,0.9 Z M131.1,151.5 C125.6,151.5 121.1,156 121.1,161.5 L121.1,166.5 L81.1,166.5 L81.1,161.5 C81.1,156 76.6,151.5 71.1,151.5 C65.6,151.5 61.1,156 61.1,161.5 L61.1,166.5 L51.1,166.5 L51.1,161.5 C51.1,156 46.6,151.5 41.1,151.5 C35.6,151.5 31.1,156 31.1,161.5 L31.1,166.5 L19.9,166.5 L19.9,129.5 L154,129.5 L154,132.5 C154,138 158.5,142.5 164,142.5 C169.5,142.5 174,138 174,132.5 L174,129.5 L184,129.5 L184,132.5 C184,138 188.5,142.5 194,142.5 C199.5,142.5 204,138 204,132.5 L204,129.5 L222,129.5 L222,166.5 L141,166.5 L141,161.5 C141.1,156 136.6,151.5 131.1,151.5 Z M26.1,72.5 L26.1,74.5 C26.1,80 30.6,84.5 36.1,84.5 C41.6,84.5 46.1,80 46.1,74.5 L46.1,72.5 L56.1,72.5 L56.1,74.5 C56.1,80 60.6,84.5 66.1,84.5 C71.6,84.5 76.1,80 76.1,74.5 L76.1,72.5 L86.1,72.5 L86.1,74.5 C86.1,80 90.6,84.5 96.1,84.5 C101.6,84.5 106.1,80 106.1,74.5 L106.1,72.5 L222.1,72.5 L222.1,109.5 L204.1,109.5 L204.1,105.5 C204.1,100 199.6,95.5 194.1,95.5 C188.6,95.5 184.1,100 184.1,105.5 L184.1,109.5 L174.1,109.5 L174.1,105.5 C174.1,100 169.6,95.5 164.1,95.5 C158.6,95.5 154.1,100 154.1,105.5 L154.1,109.5 L19.9,109.5 L19.9,72.5 L26.1,72.5 Z M19.9,223.1 L19.9,186.5 L31,186.5 L31,188.5 C31,194 35.5,198.5 41,198.5 C46.5,198.5 51,194 51,188.5 L51,186.5 L61,186.5 L61,188.5 C61,194 65.5,198.5 71,198.5 C76.5,198.5 81,194 81,188.5 L81,186.5 L121,186.5 L121,188.5 C121,194 125.5,198.5 131,198.5 C136.5,198.5 141,194 141,188.5 L141,186.5 L222,186.5 L222,223.1 L19.9,223.1 Z" id="Shape"></path>
            </g>
        </g>
    </g>
</svg>