<?xml version="1.0" encoding="UTF-8"?>
<svg width="302px" height="367px" viewBox="0 0 302 367" version="1.1" xmlns="http://www.w3.org/2000/svg" xmlns:xlink="http://www.w3.org/1999/xlink">
    <!-- Generator: Sketch 52.3 (67297) - http://www.bohemiancoding.com/sketch -->
    <title>marketing</title>
    <desc>Created with Sketch.</desc>
    <g id="Page-1" stroke="none" stroke-width="1" fill="none" fill-rule="evenodd">
        <g id="marketing">
            <g id="Palette">
                <g id="Group">
                    <path d="M80.9,265.8 C79.5,265.8 78.2,265.5 76.9,265 L24.9,242.2 C19.8,240 17.5,234.1 19.8,229 C22,223.9 27.9,221.6 33,223.9 L74.2,242 L96.6,157 C97.5,153.7 100,151 103.2,150 C106.5,149 110,149.7 112.7,151.9 L156.2,188.5 L197.9,22.8 C199.2,17.4 204.7,14.2 210,15.5 C215.4,16.8 218.6,22.3 217.3,27.6 L171.7,208.8 C170.9,212.1 168.4,214.8 165.1,215.9 C161.8,217 158.2,216.3 155.6,214 L111.9,177.3 L90.6,258.3 C89.9,261.1 87.9,263.5 85.3,264.8 C83.8,265.5 82.4,265.8 80.9,265.8 Z" id="Path" fill="#80E4FF"></path>
                    <path d="M230.5,52.2 C227.1,52.2 223.9,50.5 222,47.5 L207.1,23.3 L182.3,37.2 C177.5,39.9 171.4,38.2 168.7,33.4 C166,28.6 167.7,22.5 172.5,19.8 L205.6,1.3 C210.3,-1.3 216.2,0.2 219,4.8 L239,37 C241.9,41.7 240.4,47.9 235.7,50.8 C234.1,51.7 232.3,52.2 230.5,52.2 Z" id="Path" fill="#80E4FF"></path>
                    <path d="M130,321.8 C58.6,321.8 0.6,263.7 0.6,192.4 C0.6,121.1 58.6,63 130,63 C138.5,63 147,63.8 155.3,65.5 C160.7,66.6 164.2,71.8 163.2,77.3 C162.1,82.7 156.9,86.2 151.4,85.2 C144.4,83.8 137.2,83.1 130,83.1 C69.7,83 20.6,132 20.6,192.4 C20.6,252.8 69.7,301.8 130,301.8 C190.3,301.8 239.4,252.7 239.4,192.4 C239.4,166.5 230.2,141.3 213.4,121.6 C209.8,117.4 210.3,111.1 214.5,107.5 C218.7,103.9 225,104.4 228.6,108.6 C248.5,131.9 259.4,161.7 259.4,192.4 C259.4,263.8 201.4,321.8 130,321.8 Z" id="Path" fill="#33CCFF"></path>
                    <path d="M258,366.1 C257.7,366.1 257.4,366.1 257.1,366.1 C254.4,365.9 252,364.5 250.3,362.5 L194.4,293.8 C190.9,289.5 191.6,283.2 195.8,279.7 C200.1,276.2 206.4,276.9 209.9,281.1 L259.4,341.9 L276.8,327.2 L221,270 C217.1,266 217.2,259.7 221.2,255.9 C225.2,252 231.5,252.1 235.3,256.1 L298.6,320.9 C300.5,322.9 301.6,325.6 301.4,328.4 C301.2,331.2 300,333.8 297.9,335.6 L264.5,363.8 C262.6,365.2 260.4,366.1 258,366.1 Z" id="Path" fill="#33CCFF"></path>
                </g>
            </g>
        </g>
    </g>
</svg>