<?xml version="1.0" encoding="UTF-8" standalone="no"?>
<svg width="25px" height="25px" viewBox="0 0 25 25" version="1.1" xmlns="http://www.w3.org/2000/svg" xmlns:xlink="http://www.w3.org/1999/xlink">
    <!-- Generator: Sketch 50.2 (55047) - http://www.bohemiancoding.com/sketch -->
    <title>Icon/25/software engineers</title>
    <desc>Created with Sketch.</desc>
    <defs></defs>
    <g id="Icon/25/software-engineers" stroke="none" stroke-width="1" fill="none" fill-rule="evenodd">
        <g id="icon/web-copy" transform="translate(2.000000, 3.000000)" fill-rule="nonzero">
            <path d="M1.00050505,1.07491639 L1.00050505,5.75719064 L19.95,5.75719064 L19.95,1.07491639 L1.00050505,1.07491639 Z M3.78353535,4.41939799 C3.35185779,4.41939763 2.96271275,4.17332886 2.79764932,3.79599091 C2.63258588,3.41865296 2.72413077,2.98440251 3.02957525,2.69583179 C3.33501974,2.40726107 3.79417418,2.32123465 4.1928278,2.47788671 C4.59148143,2.63453876 4.85107719,3.00300008 4.85050505,3.41137124 C4.84933518,3.96804406 4.37197905,4.4187302 3.78353535,4.4187291 L3.78353535,4.41939799 Z" id="Shape" fill="#9B9B9B"></path>
            <path d="M17.9546465,19.967893 L3.00575758,19.967893 C1.34609398,19.9664174 0.00116941815,18.6938053 0,17.1237458 L0,2.84347826 C0.00194813687,1.27383259 1.34653112,0.00184295795 3.00575758,0 L17.9546465,0 C19.6138729,0.00184295795 20.9584559,1.27383259 20.960404,2.84347826 L20.960404,17.1237458 C20.9592346,18.6938053 19.6143101,19.9664174 17.9546465,19.967893 Z M3.00575758,1.33779264 C2.12721672,1.33889809 1.41530995,2.01236938 1.41414141,2.84347826 L1.41414141,17.1237458 C1.41531074,17.9547461 2.12733111,18.6280256 3.00575758,18.6287625 L17.9546465,18.6287625 C18.8330729,18.6280256 19.5450933,17.9547461 19.5462626,17.1237458 L19.5462626,2.84347826 C19.5450941,2.01236938 18.8331873,1.33889809 17.9546465,1.33779264 L3.00575758,1.33779264 Z" id="Shape" fill="#535353"></path>
            <path d="M5.03292929,15.8829431 C4.7469928,15.8828854 4.48923855,15.7199147 4.37982365,15.470003 C4.27040875,15.2200914 4.33087319,14.9324376 4.5330303,14.7411371 L7.28282828,12.1391304 L4.60727273,9.60602007 C4.33931258,9.34355927 4.34314479,8.9263647 4.61588586,8.66834878 C4.88862693,8.41033286 5.32963109,8.40670755 5.60707071,8.66020067 L8.78393939,11.6655518 C8.91671104,11.7910156 8.9913138,11.9612647 8.9913138,12.138796 C8.9913138,12.3163273 8.91671104,12.4865764 8.78393939,12.6120401 L5.53141414,15.6889632 C5.39884442,15.8133515 5.21964724,15.8830841 5.03292929,15.8829431 Z" id="Shape" fill="#535353"></path>
            <path d="M15.2126263,16.5264214 L9.69747475,16.5264214 C9.30697038,16.5264214 8.99040404,16.2269463 8.99040404,15.8575251 C8.99040404,15.4881038 9.30697038,15.1886288 9.69747475,15.1886288 L15.2126263,15.1886288 C15.6031306,15.1886288 15.919697,15.4881038 15.919697,15.8575251 C15.919697,16.2269463 15.6031306,16.5264214 15.2126263,16.5264214 Z" id="Shape" fill="#535353"></path>
            <path d="M3.78353535,4.75317726 C3.2088018,4.75317665 2.69070042,4.42554965 2.47095809,3.92315485 C2.25121577,3.42076005 2.37313744,2.84260514 2.77983899,2.45843573 C3.18654053,2.07426633 3.79787267,1.95979127 4.32861052,2.16842036 C4.85934837,2.37704945 5.20489864,2.86766786 5.2040404,3.41137124 C5.20170564,4.15229649 4.56674835,4.75207579 3.78353535,4.75317726 Z M3.78353535,2.73444816 C3.38979296,2.73444981 3.07049358,3.03621338 3.07010451,3.40869764 C3.06971544,3.7811819 3.38838379,4.08354184 3.78212542,4.08427961 C4.17586704,4.08501739 4.49579901,3.78385404 4.4969697,3.41137124 C4.49753337,3.23202485 4.4226171,3.05984125 4.28876106,2.93283554 C4.15490502,2.80582982 3.973118,2.73444737 3.78353535,2.73444816 Z" id="Shape" fill="#535353"></path>
        </g>
    </g>
</svg>